<?xml version="1.0" encoding="utf-8"?>
<!-- Generator: Adobe Illustrator 15.1.0, SVG Export Plug-In . SVG Version: 6.00 Build 0)  -->
<!DOCTYPE svg PUBLIC "-//W3C//DTD SVG 1.1//EN" "http://www.w3.org/Graphics/SVG/1.1/DTD/svg11.dtd">
<svg version="1.1" id="Layer_1" xmlns="http://www.w3.org/2000/svg" xmlns:xlink="http://www.w3.org/1999/xlink" x="0px" y="0px"
	 width="666.815px" height="426px" viewBox="0 0 666.815 426" enable-background="new 0 0 666.815 426" xml:space="preserve">
<g>
	<path fill="none" stroke="#4FB44D" stroke-width="2" stroke-miterlimit="10" d="M129.325,213c0-18.215-8.474-34.442-21.683-44.986
		v89.973C120.851,247.441,129.325,231.215,129.325,213z"/>
	<circle fill="none" stroke="#4FB44D" stroke-width="2" stroke-miterlimit="10" cx="333.767" cy="213" r="57.929"/>
	<line fill="none" stroke="#4FB44D" stroke-width="2" stroke-miterlimit="10" x1="333.766" y1="0.333" x2="333.766" y2="425.667"/>
	<polyline fill="none" stroke="#4FB44D" stroke-width="2" stroke-miterlimit="10" points="107.642,169.202 107.642,87.485 
		3.395,87.485 3.395,156.644 37.586,156.644 37.586,271.346 3.395,271.346 3.395,338.515 107.642,338.515 107.642,259.174 	"/>
	
		<rect x="-1.834" y="189.876" fill="none" stroke="#4FB44D" stroke-width="2" stroke-miterlimit="10" width="5.229" height="46.248"/>
	<rect x="3.5" fill="none" stroke="#4FB44D" stroke-width="2" stroke-miterlimit="10" width="660" height="425"/>
	<path fill="none" stroke="#4FB44D" stroke-width="2" stroke-miterlimit="10" d="M537.49,213.001
		c0,18.213,8.475,34.441,21.684,44.984v-89.971C545.965,178.56,537.49,194.786,537.49,213.001z"/>
	<polyline fill="none" stroke="#4FB44D" stroke-width="2" stroke-miterlimit="10" points="559.174,256.798 559.174,338.515 
		663.42,338.515 663.42,269.356 629.229,269.356 629.229,154.654 663.42,154.654 663.42,87.485 559.174,87.485 559.174,166.826 	"/>
	
		<rect x="663.42" y="189.876" fill="none" stroke="#4FB44D" stroke-width="2" stroke-miterlimit="10" width="5.23" height="46.248"/>
</g>
</svg>
