<?xml version="1.0" encoding="utf-8"?>
<!-- Generator: Adobe Illustrator 16.0.0, SVG Export Plug-In . SVG Version: 6.00 Build 0)  -->
<!DOCTYPE svg PUBLIC "-//W3C//DTD SVG 1.1//EN" "http://www.w3.org/Graphics/SVG/1.1/DTD/svg11.dtd">
<svg version="1.1" id="Layer_1" xmlns="http://www.w3.org/2000/svg" xmlns:xlink="http://www.w3.org/1999/xlink" x="0px" y="0px"
	 width="428px" height="340.666px" viewBox="0 0 428 340.666" enable-background="new 0 0 428 340.666" xml:space="preserve">
<g>
	<path fill="#333333" d="M14.323,338.584c18.44,0.13,36.881,0.113,55.322,0.144c17.412-4.454,35.775-1.507,53.641-1.022
		c23.217,0.628,46.221-3.645,69.385-4.534c5.986-6.215,12.023-12.403,18.115-18.66c-1.648-1.817-3.008-3.309-3.93-4.325
		c-6.311,5.84-12.496,11.345-18.398,17.127c-2.393,2.346-4.789,3.33-8.211,3.324c-54.705-0.102-109.406-0.07-164.108-0.068h-5.917
		c0-26.028-0.012-51.341,0.047-76.656c0.002-0.846,0.677-1.7,1.078-2.529c1.009-2.096,2.916-4.171,2.932-6.265
		c0.207-26.367,0.176-52.737,0.09-79.105c-0.008-2.149-0.244-5.676-1.438-6.188c-3.694-1.588-2.684-4.3-2.686-6.758
		c-0.043-41.781-0.031-83.564-0.031-125.348v-5.672h29.06c-2.377-0.773-4.757-0.736-7.135-0.781c-4.2-0.083-4.199-0.106-3.06-4.373
		h12.366c0.001-0.412,0.003-0.821,0.003-1.233H10.486c0.013-0.51,0.026-1.024,0.038-1.538h32.631v-1.238H11.481
		c0.004-0.354,0.008-0.709,0.012-1.068h31.967c-0.004-0.338-0.01-0.68-0.016-1.018H1.208v331.114
		c2.981-0.892,6.136-1.261,9.311-1.402C10.971,339.28,12.006,338.569,14.323,338.584z M10.706,17.237h11.713
		c1.621,4.463-1.375,4.012-3.971,4.045C10.599,21.375,10.599,21.389,10.706,17.237z M10.776,250.133v-90.026h1.139v90.026H10.776z"
		/>
	<path fill="#333333" d="M268.32,9.498c-14.357,7.77-27.982,15.146-40.844,22.109l-2.309,1.325
		c-15.31,8.456-30.14,16.649-45.332,25.043c20.453,20.673,40.556,40.985,60.195,60.833c2.924-2.409,5.424-4.467,8.004-6.59
		c-17.084-17.261-33.877-34.227-51.347-51.874c24.164-12.932,47.511-25.426,71.722-38.389V34.73
		c0.307-0.004,0.611-0.009,0.918-0.013v-12.31H345v12.764c0.336-0.015,0.67-0.029,1.006-0.043v-12.48
		c1.625,0.676,2.771,1.035,3.799,1.594c21.236,11.551,42.486,23.078,63.623,34.808c1.396,0.773,2.615,3.097,2.668,4.737
		c0.277,8.214,0.238,16.442,0.051,24.654c-0.037,1.667-0.748,3.725-1.896,4.905c-23.869,24.527-47.842,48.945-71.809,73.377
		c-0.309,0.311-0.82,0.429-1.898,0.967v-41.235c-0.357,0.003-0.719,0.005-1.08,0.007v41.523
		c-14.664-14.799-28.422-28.681-40.904-41.275c-9.391,8.127-18.443,15.959-26.918,23.292c2.072,2.579,3.348,4.165,4.799,5.966
		c6.346-6.141,12.379-11.977,18.658-18.055c13.354,13.481,26.664,26.919,40.248,40.635c-31.23,31.623-61.928,62.707-93.012,94.182
		c-15.232-15.34-30.138-30.349-45.314-45.628c-1.857,1.963-3.359,3.55-4.912,5.188c16.762,16.953,33.345,33.729,49.968,50.543
		c4.105-3.405,8.041-6.297,11.5-9.656c3.299-3.198,6.074-6.916,9.135-10.354c1.504-1.695,3.15-3.273,4.717-4.913
		c1.762-1.843,3.213-4.18,5.328-5.444c3.521-2.104,4.746-8.643,10.732-5.883c2.777,3.508-3.277,7.533,1.092,10.755
		c1.215-3.406,1.215-3.406,7.662-2.42v6.398c-1.383,0.275-2.531,0.508-4.725,0.945c2.271,0.303,3.441,0.458,3.621,0.481
		c4.111,3.226-0.729,6.003,0.982,9.55c1.479,3.06,0.35,7.333,0.359,11.071c0.01,3.546,0.002,7.093,0.002,10.925
		c-1.541,0.212-2.826,0.391-5.088,0.703c2.275,0.395,3.574,0.618,4.75,0.821v6.146c-2.982-0.267-5.57-0.496-8.451-0.754v7.331
		c-4.01,1.911-7.168,3.417-10.326,4.922c-0.201,0.704-0.396,1.407-0.596,2.112c5.422,4.845,11.016,9.52,16.189,14.605
		c2.418,2.377,4.773,3.387,8.189,3.376c37.398-0.106,74.801-0.071,112.201-0.076h6.49v5.671c0.463,0.09,0.926,0.174,1.389,0.261
		c0.135-0.918,1.146-1.814,1.723-2.725c0.49,0.92,1.402,1.833,1.408,2.753c0,0.181,0,0.361,0.002,0.54
		c0.424,0.074,0.85,0.146,1.279,0.219v-2.361c0.203-0.067,0.406-0.135,0.609-0.203v2.666c0.576,0.094,1.154,0.183,1.736,0.268
		v-3.724c0.377,0.002,0.754,0.002,1.131,0.002v3.878c0.473,0.062,0.947,0.118,1.422,0.17c0.002-51.398-0.004-102.798,0.016-154.196
		c0.016-41.78,0.08-83.559,0.236-125.336c0.014-3.744-0.848-6.068-4.572-8.035c-9.982-5.276-19.611-11.19-29.389-16.84
		c-15.545-8.982-31.096-17.953-47.369-27.344V2.089H268.32V9.498z M381.816,262.74h6.801v6.849h-6.801V262.74z M380.174,269.54
		h-6.881v-6.57h6.881V269.54z M307.803,262.791v6.744h-6.691v-6.744H307.803z M323.525,269.695h-5.77v-6.844h5.77V269.695z
		 M325.033,262.948h6.93v6.615h-6.93V262.948z M341.875,269.662v-6.645h5.928v6.645H341.875z M349.342,262.974h6.887v6.557h-6.887
		V262.974z M357.625,269.633v-6.765h6.984v6.765H357.625z M340.457,269.498h-6.982v-6.655h6.982V269.498z M293.637,269.699v-6.85
		h5.758v6.85H293.637z M309.41,269.74v-6.852h6.869v6.852H309.41z M333.609,271.167h6.744v6.798h-6.744V271.167z M332.068,277.884
		h-6.801v-6.846h6.801V277.884z M341.875,277.882v-6.645h5.928v6.645H341.875z M349.137,271.175h6.932v6.597h-6.932V271.175z
		 M357.766,277.88v-6.837h6.801v6.837H357.766z M366.016,277.868v-6.849h5.875v6.849H366.016z M293.621,277.896v-6.841h5.949v6.841
		H293.621z M301.051,277.984v-6.849h6.811v6.849H301.051z M309.314,271.084h6.988v6.776h-6.988V271.084z M317.893,271.021h5.65
		v6.894c-1.588,0.072-3.406,0.157-5.65,0.266V271.021z M323.709,278.964v6.992h-5.99v-6.68
		C319.469,279.183,321.287,279.09,323.709,278.964z M333.658,286.104v-6.846h6.797v6.846H333.658z M331.965,286.185h-6.746v-6.798
		h6.746V286.185z M342.031,286.085v-6.836h5.75v6.836H342.031z M357.707,285.998v-6.609h6.939v6.609H357.707z M356.066,285.994
		h-6.746v-6.786h6.746V285.994z M316.158,286.13h-6.801v-6.852h6.801V286.13z M307.771,279.278v6.852h-6.805v-6.852H307.771z
		 M293.707,286.211v-6.854h5.77v6.854H293.707z M333.584,287.586h6.973v6.659h-6.973V287.586z M331.938,294.195h-6.875v-6.561h6.875
		V294.195z M323.742,294.29h-5.953v-6.746h5.953V294.29z M316.162,294.169h-6.801v-6.691h6.801V294.169z M307.912,294.298H301v-6.85
		h6.912V294.298z M293.656,294.37v-6.852h5.877v6.852H293.656z M341.932,294.385v-6.835h5.812v6.835H341.932z M349.316,294.395
		v-6.786h6.754v6.786H349.316z M357.707,294.395v-6.786h6.752v6.786H357.707z M293.75,295.685c1.643-0.074,3.453-0.156,5.873-0.266
		v6.143c-1.818,0.083-3.643,0.163-5.873,0.263V295.685z M357.771,301.556v-5.849h6.811v5.849H357.771z M356.117,301.624h-6.846
		v-5.835h6.846V301.624z M347.795,301.542h-5.758v-5.835h5.758V301.542z M307.951,295.862c0.088,1.567,0.184,3.35,0.307,5.554
		h-7.344v-5.554H307.951z M310.078,296.152h29.938v26.783h-5.52c-0.033-0.12-0.066-0.243-0.1-0.365
		c1.4-0.189,2.801-0.382,4.467-0.607c-8.957-4.045-17.646-4.101-26.734-0.058c1.211,0.24,2.18,0.433,3.145,0.627
		c0.004,0.147,0.01,0.295,0.016,0.444h-5.211V296.152z M347.783,309.76h-5.76v-6.861h5.76V309.76z M349.285,302.998h6.996v6.684
		h-6.996V302.998z M357.65,309.698v-6.844h6.865v6.844H357.65z M357.619,318.01v-6.844h6.914v6.844H357.619z M347.646,318.016h-5.77
		v-6.864h5.77V318.016z M356.146,317.953h-6.912v-6.852h6.912V317.953z M307.986,317.973h-7.027v-6.676h7.027V317.973z
		 M307.961,309.589h-7.021v-6.674h7.021V309.589z M299.414,302.583v7.016h-5.812v-6.678
		C295.336,302.822,297.152,302.714,299.414,302.583z M285.17,309.698v-6.727h7.012v6.727H285.17z M285.232,311.066h6.857v6.696
		C285.613,318.53,284.854,317.835,285.232,311.066z M293.684,318.047v-6.858h5.834v6.858H293.684z M301.646,322.875
		c-0.504-0.081-0.68-2.125-1.09-3.576h7.471c-0.135,1.187-0.061,3.259-0.43,3.336C305.666,323.045,303.584,323.185,301.646,322.875z
		 M349.314,319.266h6.42c0.346,0.354,0.691,0.711,1.035,1.066c-1.023,0.982-1.934,2.617-3.096,2.812
		C351.297,323.547,348.117,323.955,349.314,319.266z M357.646,319.284h8.154c-1.625,1.854-2.434,3.657-3.533,3.846
		C359.947,323.526,356.613,324.2,357.646,319.284z M400.525,323.185c-1.166-0.183-2.186-1.286-3.271-1.975
		c2.08-0.951,4.156-1.907,6.607-3.031C405.572,323.44,403.033,323.575,400.525,323.185z M424.994,320.024l-1.137-0.007v-44.833
		c0.379-0.004,0.758-0.011,1.137-0.015V320.024z M421.652,319.232v-43.047c0.199-0.07,0.4-0.145,0.604-0.216v43.256
		C422.053,319.23,421.852,319.23,421.652,319.232z M420.34,277.866l0.025,39.489c-0.006,0.939-0.877,1.873-1.344,2.81
		c-0.637-0.949-1.801-1.884-1.824-2.847c-0.158-6.66-0.084-13.327-0.084-19.994c0.014-6.494-0.041-12.992,0.076-19.484
		c0.02-0.945,0.869-1.874,1.336-2.812C419.156,275.975,420.332,276.915,420.34,277.866z M411.654,317.851h-5.873v-6.703
		c1.826-0.106,3.643-0.213,5.873-0.344V317.851z M405.836,303.092h5.955v6.666h-5.955V303.092z M404.508,309.696h-7.004v-6.725
		h7.004V309.696z M404.385,301.503h-6.895v-5.844h6.895V301.503z M405.752,295.809h5.924v5.637h-5.924V295.809z M404.4,287.523
		v6.863h-6.93v-6.863H404.4z M405.859,287.457h5.881v6.86h-5.881V287.457z M405.949,279.254c1.68-0.081,3.492-0.168,5.705-0.273
		v7.214h-5.705V279.254z M404.529,286.035h-7.004v-6.678h7.004V286.035z M411.783,271.229v6.675h-5.953v-6.675H411.783z
		 M404.26,271.036v6.7h-6.648v-6.7H404.26z M390.09,271.053c1.75-0.096,3.568-0.194,5.811-0.314v7.159
		c-1.891,0.187-3.693,0.365-5.498,0.546c0.014,0.234,0.027,0.468,0.041,0.702h6.346c-0.652,2.992-1.197,5.49-1.836,8.398
		c0.055,0.095,1.51,1.536,1.207,2.337c-1.457,3.812,0.723,7.551-0.109,11.602c-1.293,0.164-2.594,0.33-5.26,0.664
		c2.584,0.409,3.824,0.605,5.387,0.854v8.147h8.184v6.845c-2.48,0.127-4.996,0.258-7.785,0.402c-0.25,1.617-0.473,3.066-0.641,4.157
		h-29.994c1.738-2.923-0.525-5.985-0.1-9.104c0.158-1.18,1.43-2.209,1.725-2.635c-0.76-2.26-1.594-4.739-2.602-7.741
		c2.02-0.205,3.002-0.352,3.99-0.387c0.854-0.034,1.715,0.06,2.945,0.115c0.168,1.706,0.326,3.297,0.609,6.137
		c0.656-3.253,1.07-5.301,1.523-7.551c-2.854,0.153-5.324,0.284-8.062,0.43v-6.056c1.303-0.19,2.543-0.373,5-0.733
		c-2.42-0.351-3.596-0.517-5.006-0.72v-6.882c1.742-0.096,3.389-0.185,5.033-0.274c0.006-0.169,0.012-0.34,0.02-0.507
		c-1.615-0.177-3.23-0.353-5.057-0.554v-7.264c2.516,0.35,4.707,0.656,7.854,1.094c-0.203-2.083-0.51-5.222-0.873-8.977
		c5.484-0.171,10.629,1.48,15.875-0.715v6.091c0.256,0.047,0.516,0.096,0.773,0.146C389.74,274.843,389.891,273.222,390.09,271.053z
		 M366.141,262.809h5.809v6.865c-1.736,0.088-3.559,0.183-5.809,0.299V262.809z M411.748,262.857v6.867h-5.889v-6.867H411.748z
		 M404.371,262.76v6.86H397.5v-6.86H404.371z M396.127,269.573h-5.912v-6.77c1.732-0.077,3.541-0.155,5.912-0.257V269.573z
		 M347.756,261.396h-5.93v-6.737h5.93V261.396z M357.656,261.384v-6.839h6.854v6.839H357.656z M340.455,261.443h-6.797v-6.845h6.797
		V261.443z M332.096,261.447h-6.982v-6.66h6.982V261.447z M323.656,261.426h-5.881v-6.853h5.881V261.426z M307.859,254.7v6.667
		h-6.99V254.7H307.859z M293.648,261.477v-6.853h5.748v6.853H293.648z M309.496,261.494v-6.744h6.699v6.744H309.496z
		 M366.102,254.547c1.941,0,3.633,0,5.711,0.002v6.926c-1.682,0.073-3.498,0.151-5.711,0.245V254.547z M381.764,254.567h6.906v6.854
		h-6.906V254.567z M380.365,261.422h-6.992v-6.774h6.992V261.422z M411.621,254.624v6.865h-5.775v-6.865H411.621z M404.449,254.595
		v6.701h-6.84v-6.701H404.449z M395.99,254.536v6.856h-5.816v-6.856H395.99z M356.094,254.521v6.837h-6.799v-6.837H356.094z
		 M285.41,253.24v-6.862h6.811v6.862H285.41z M309.391,246.347h6.908v6.853h-6.908V246.347z M307.99,253.098h-6.883v-6.568h6.883
		V253.098z M317.775,246.354h5.881v6.851h-5.881V246.354z M325.268,246.376h6.801v6.846h-6.801V246.376z M333.477,246.561h6.822
		v6.655h-6.822V246.561z M341.996,246.329h5.686v6.92c-1.676,0.074-3.482,0.153-5.686,0.251V246.329z M357.711,246.327h6.744v6.784
		h-6.744V246.327z M349.289,253.319v-6.839h6.811v6.839H349.289z M396.131,253.16h-5.945v-6.699h5.945V253.16z M397.555,246.504
		h6.764v6.796h-6.764V246.504z M388.781,253.174h-6.992v-6.723h6.992V253.174z M380.393,253.174H373.4v-6.723h6.992V253.174z
		 M411.721,246.445v6.866h-5.83v-6.866H411.721z M371.84,246.3v6.843h-5.768V246.3H371.84z M299.447,253.296h-5.707v-6.934
		c1.689-0.075,3.5-0.151,5.707-0.247V253.296z M301.162,228.755v-4.963h6.609v4.963H301.162z M309.375,223.767h6.803
		c0.172,1.388,0.35,2.821,0.578,4.68h-7.381V223.767z M355.982,228.745h-6.592v-4.953h6.592V228.745z M357.594,223.796h6.943
		c0.076,1.419,0.154,2.953,0.252,4.776h-7.195V223.796z M340.539,223.851v4.673h-7.035c-0.07-1.495-0.139-2.92-0.223-4.673H340.539z
		 M332.018,228.527h-6.904c-0.07-1.503-0.137-2.928-0.223-4.789h7.127V228.527z M341.932,223.851h5.855
		c0.068,1.498,0.131,2.92,0.215,4.776h-6.07V223.851z M380.148,229.939v6.689h-6.807v-6.689H380.148z M381.846,229.889h6.744v6.794
		h-6.744V229.889z M356.012,229.945v6.673h-6.795v-6.673H356.012z M357.656,230.018h6.98v6.708h-6.98V230.018z M340.482,236.788
		H333.5v-6.658h6.982V236.788z M332.039,236.824h-6.902v-6.84h6.902V236.824z M323.668,236.78h-5.766v-6.843h5.766V236.78z
		 M294.146,236.838c-1.633-6.58-0.932-7.465,5.451-6.553v6.553H294.146z M301.111,229.918h6.695v6.735h-6.695V229.918z
		 M309.41,236.859v-6.848h6.869v6.848H309.41z M366.043,236.861v-6.842h5.83v6.842H366.043z M293.625,245.013v-6.664h5.943v6.664
		H293.625z M332.045,244.983h-6.982v-6.778h6.982V244.983z M333.451,238.314h6.875v6.559h-6.875V238.314z M342.031,238.148h5.75
		v6.835h-5.75V238.148z M316.275,244.952h-6.861v-6.852h6.861V244.952z M307.803,238.132v6.741h-6.691v-6.741H307.803z
		 M317.744,245.015v-6.658h5.955v6.658H317.744z M349.318,245.072v-6.785h6.752v6.785H349.318z M357.654,238.233h6.982v6.715h-6.982
		V238.233z M366.129,238.136h5.652v6.889c-1.59,0.079-3.416,0.169-5.652,0.276V238.136z M388.566,244.88h-6.885v-6.57h6.885V244.88z
		 M390.113,238.347h5.939v6.666h-5.939V238.347z M380.15,245.003h-6.832v-6.67h6.832V245.003z M397.445,245.04v-6.862h6.807v6.862
		H397.445z M411.688,238.075v6.862h-5.771v-6.862H411.688z M292.312,238.209v6.706h-6.633
		C284.205,238.401,284.848,237.683,292.312,238.209z M411.688,230.046v6.853h-5.77v-6.853H411.688z M404.426,229.964v6.678h-6.992
		v-6.678H404.426z M395.959,229.855v6.849h-5.758v-6.849H395.959z M347.711,229.854v6.835h-5.744v-6.835H347.711z M366.129,223.753
		h5.848v4.853c-1.793,0.077-3.617,0.153-5.848,0.249V223.753z M380.299,228.559h-6.953v-4.729h6.953V228.559z M381.459,223.888
		h7.357c0,1.64,0,2.956,0.002,4.61h-7.062C381.668,227.106,381.574,225.675,381.459,223.888z M397.551,228.639
		c-0.133-1.478-0.26-2.91-0.422-4.738h7.201c0.131,1.306,0.277,2.734,0.477,4.738H397.551z M411.736,223.831v4.713h-5.945v-4.713
		H411.736z M395.977,223.714c0.117,1.556,0.221,2.991,0.354,4.784h-6.189c-0.086-1.387-0.176-2.819-0.299-4.784H395.977z
		 M323.545,228.604h-5.787v-4.768C321.518,223.309,325.066,222.575,323.545,228.604z M412.355,219.497
		c1.359,0.002,2.725,0.816,4.088,1.252c-0.145,0.534-0.285,1.065-0.43,1.599H303.271c-0.123-0.432-0.248-0.86-0.373-1.29
		c1.723-0.539,3.439-1.545,5.164-1.549C342.828,219.418,377.59,219.427,412.355,219.497z M424.908,218.273
		c-0.326,0.002-0.65,0.006-0.975,0.008v-43.783c0.326-0.012,0.65-0.021,0.975-0.033V218.273z M420.352,177.382
		c0.109,12.652,0.104,25.308-0.008,37.96c-0.01,1.052-1.016,2.095-1.559,3.144c-0.547-0.697-1.564-1.391-1.57-2.088
		c-0.092-13.975-0.068-27.95-0.068-41.921c0.547-0.161,1.094-0.32,1.641-0.479C419.332,175.122,420.34,176.248,420.352,177.382z
		 M409.891,121.775c4.682,4.538,6.607,9.134,6.504,15.656c-0.393,25.157-0.234,50.325-0.074,75.484
		c0.025,4.052-0.859,5.753-5.436,5.729c-33.02-0.161-66.039-0.078-99.062-0.102c-1.318,0-2.635-0.275-5.033-0.543
		c2.113-2.395,3.562-4.202,5.186-5.845c29.613-30.017,59.285-59.972,88.82-90.063C404.078,118.746,406.055,118.054,409.891,121.775z
		 M328.91,18.052c0.16,0.542,0.322,1.082,0.482,1.625c-1.156,0.535-2.312,1.522-3.473,1.53c-12.553,0.112-25.107,0.11-37.66,0
		c-1.064-0.01-2.119-1.016-3.182-1.559c0.713-0.533,1.42-1.525,2.133-1.53C301.109,18.027,315.01,18.052,328.91,18.052z
		 M328.1,16.383c-0.064,0.201-0.133,0.402-0.199,0.604h-41.602c-0.002-0.201-0.004-0.402-0.004-0.604H328.1z M326.445,11.947
		c0.891,0.019,1.764,1.007,2.645,1.546c-0.713,0.535-1.418,1.527-2.135,1.532c-13.258,0.091-26.518,0.099-39.775-0.017
		c-0.832-0.007-1.652-1.184-2.48-1.818c0.18-0.439,0.359-0.879,0.541-1.32h20.795C312.838,11.872,319.645,11.814,326.445,11.947z
		 M331.977,2.941v7.727h-49.955V2.941H331.977z"/>
</g>
</svg>
