<?xml version="1.0" encoding="utf-8"?>
<!-- Generator: Adobe Illustrator 16.0.0, SVG Export Plug-In . SVG Version: 6.00 Build 0)  -->
<!DOCTYPE svg PUBLIC "-//W3C//DTD SVG 1.1//EN" "http://www.w3.org/Graphics/SVG/1.1/DTD/svg11.dtd">
<svg version="1.1" id="Layer_1" xmlns="http://www.w3.org/2000/svg" xmlns:xlink="http://www.w3.org/1999/xlink" x="0px" y="0px"
	 width="573.668px" height="280px" viewBox="0 0 573.668 280" enable-background="new 0 0 573.668 280" xml:space="preserve">
<g>
	<g opacity="0.1">
		<g>
			<path fill="none" stroke="#4FB44D" stroke-miterlimit="10" d="M20.228,7.255c0,0,69.731,0,152.783,0
				c11.885,0.028,24.151,0.043,36.688,0.092c51.61,0.456,103.222,0.456,154.279-0.026c12.535-0.036,24.795-0.042,36.68-0.066
				c83.052,0,152.782,0,152.782,0"/>
			<path fill="none" stroke="#4FB44D" stroke-miterlimit="10" d="M20.228,33.327c0,0,26.705,0,60.083,0
				c136.761,7.174,275.375,4.993,413.047,0c33.377,0,60.083,0,60.083,0"/>
			<path fill="none" stroke="#4FB44D" stroke-miterlimit="10" d="M20.228,57.239c0,0,26.705,0,61.992,0.796
				c136.326,11.913,273.463,9.731,408.95,0.052c31.812,0.404,62.271-0.848,62.271-0.848"/>
			<path fill="none" stroke="#4FB44D" stroke-miterlimit="10" d="M20.473,81.202c173.058,13.83,360.226,11.649,532.924-0.044"/>
			<path fill="none" stroke="#4FB44D" stroke-miterlimit="10" d="M22.489,105.353c172.517,10.399,356.734,9.311,529.49-0.108"/>
			<path fill="none" stroke="#4FB44D" stroke-miterlimit="10" d="M24.215,129.115c170.791,4.09,355.01,1.908,526.337-0.04"/>
			<path fill="none" stroke="#4FB44D" stroke-miterlimit="10" d="M23.971,152.672c171.034-5.289,355.251-4.199,526.784,0.062"/>
			<path fill="none" stroke="#4FB44D" stroke-miterlimit="10" d="M21.979,176.529c173.026-11.697,357.244-10.607,530.402,0.109"/>
			<path fill="none" stroke="#4FB44D" stroke-miterlimit="10" d="M20.274,200.691c154.087-9.687,314.766-15.14,467.834-1.604
				c37.784,1.396,65.331,1.613,65.331,1.613"/>
			<path fill="none" stroke="#4FB44D" stroke-miterlimit="10" d="M20.228,224.616c0,0,29.727-1.101,61.799-0.728
				c136.519-8.891,272.182-8.891,410.056,0.199c32.292-0.312,61.356,0.526,61.356,0.526"/>
			<path fill="none" stroke="#4FB44D" stroke-miterlimit="10" d="M20.228,248.525c0,0,26.705,0,60.083,0
				c14.699,0.035,29.658-0.164,44.398-0.289c102.684-1.608,207.382-5.971,309.899,0.02c22.229,0.262,42.061,0.271,58.747,0.271
				c33.378,0,60.084,0,60.084,0"/>
			<path fill="none" stroke="#4FB44D" stroke-miterlimit="10" d="M20.228,272.438c0,0,69.731,0,152.783,0
				c11.866,0,24.121,0,36.638,0c38.388,0.365,78.203,0.365,115.955,0.199c12.832-0.045,25.641-0.107,38.416-0.199
				c12.518,0,24.771,0,36.639,0c83.052,0,152.782,0,152.782,0"/>
		</g>
		<g>
			<path fill="none" stroke="#4FB44D" stroke-miterlimit="10" d="M500.184,7.255c0,0-1.561,19.355-0.949,43.501
				c-12.311,59.545-16.733,120.619,0.405,179.585c-0.416,24.285,0.544,41.187,0.544,41.187"/>
			<path fill="none" stroke="#4FB44D" stroke-miterlimit="10" d="M452.773,7.255c0,0-0.944,19.172-4.461,45.308
				c-26.271,56.648-18.897,117.721,0.227,175.697c-1.112,23.188,4.234,43.27,4.234,43.27"/>
			<path fill="none" stroke="#4FB44D" stroke-miterlimit="10" d="M405.362,7.255c0,0-0.425,4.516-1.146,12.158
				c-16.093,70.188-35.264,142.147-4.296,211.946c4.424,8.727,4.424,18.541,4.657,28.312c0.615,7.594,0.781,11.855,0.781,11.855"/>
			<path fill="none" stroke="#4FB44D" stroke-miterlimit="10" d="M357.913,7.318c-21.399,83.373-21.399,168.42-0.81,251.807
				c0.709,8.089,0.847,12.402,0.847,12.402"/>
			<path fill="none" stroke="#4FB44D" stroke-miterlimit="10" d="M310.471,7.591c-6.397,87.462-6.397,176.872,0.062,263.892"/>
			<path fill="none" stroke="#4FB44D" stroke-miterlimit="10" d="M263.185,7.613c8.446,87.44,5.497,176.85-0.049,263.86"/>
			<path fill="none" stroke="#4FB44D" stroke-miterlimit="10" d="M215.767,7.349c17.524,83.341,20.474,168.39,0.762,251.715
				c-0.678,8.136-0.812,12.463-0.812,12.463"/>
			<path fill="none" stroke="#4FB44D" stroke-miterlimit="10" d="M168.306,7.255c0,0,0.154,4.246,1.041,12.093
				c28.554,80.066,22.655,160.751-0.195,240.228c-0.638,7.636-0.846,11.951-0.846,11.951"/>
			<path fill="none" stroke="#4FB44D" stroke-miterlimit="10" d="M120.896,7.255c0,0,0.007,18.548,4.438,45.298
				c23.905,57.748,20.956,117.73,0.329,175.321c-1.49,24.922-4.767,43.651-4.767,43.651"/>
			<path fill="none" stroke="#4FB44D" stroke-miterlimit="10" d="M73.484,7.255c0,0,2.158,19.698,1.359,43.685
				c16.886,59.361,13.937,120.435-0.539,179.272c0.58,24.158-0.82,41.315-0.82,41.315"/>
		</g>
	</g>
	<g>
		<polygon fill="#4FB44D" points="573.213,-0.483 0.455,-0.483 0.455,280.482 23.346,278.32 23.346,16.446 551.783,16.446 
			551.783,278.32 573.213,280.482 		"/>
	</g>
</g>
</svg>
