<?xml version="1.0" encoding="utf-8"?>
<!-- Generator: Adobe Illustrator 15.1.0, SVG Export Plug-In . SVG Version: 6.00 Build 0)  -->
<!DOCTYPE svg PUBLIC "-//W3C//DTD SVG 1.1//EN" "http://www.w3.org/Graphics/SVG/1.1/DTD/svg11.dtd">
<svg version="1.1" id="Layer_1" xmlns="http://www.w3.org/2000/svg" xmlns:xlink="http://www.w3.org/1999/xlink" x="0px" y="0px"
	 width="573.668px" height="280px" viewBox="-48.093 101.499 573.668 280" enable-background="new -48.093 101.499 573.668 280"
	 xml:space="preserve">
<g opacity="0.1">
	<g>
		<path fill="none" stroke="#4FB44D" stroke-miterlimit="10" d="M-27.408,116.018c0,0,69.731,0,152.783,0
			c11.885,0.028,24.151,0.043,36.688,0.092c51.61,0.456,103.222,0.456,154.28-0.026c12.534-0.036,24.793-0.042,36.678-0.066
			c83.052,0,152.783,0,152.783,0"/>
		<path fill="none" stroke="#4FB44D" stroke-miterlimit="10" d="M-27.408,142.09c0,0,26.705,0,60.083,0
			c136.761,7.174,275.374,4.993,413.047,0c33.377,0,60.083,0,60.083,0"/>
		<path fill="none" stroke="#4FB44D" stroke-miterlimit="10" d="M-27.408,166.002c0,0,26.705,0,61.992,0.796
			c136.326,11.913,273.464,9.731,408.95,0.051c31.812,0.405,62.271-0.847,62.271-0.847"/>
		<path fill="none" stroke="#4FB44D" stroke-miterlimit="10" d="M-27.163,189.965c173.058,13.83,360.225,11.649,532.924-0.044"/>
		<path fill="none" stroke="#4FB44D" stroke-miterlimit="10" d="M-25.147,214.116c172.517,10.4,356.734,9.311,529.49-0.108"/>
		<path fill="none" stroke="#4FB44D" stroke-miterlimit="10" d="M-23.421,237.878c170.791,4.09,355.009,1.908,526.337-0.04"/>
		<path fill="none" stroke="#4FB44D" stroke-miterlimit="10" d="M-23.665,261.435c171.034-5.289,355.252-4.199,526.784,0.063"/>
		<path fill="none" stroke="#4FB44D" stroke-miterlimit="10" d="M-25.657,285.294c173.026-11.698,357.244-10.608,530.402,0.108"/>
		<path fill="none" stroke="#4FB44D" stroke-miterlimit="10" d="M-27.362,309.456c154.087-9.687,314.766-15.139,467.835-1.603
			c37.785,1.397,65.331,1.613,65.331,1.613"/>
		<path fill="none" stroke="#4FB44D" stroke-miterlimit="10" d="M-27.408,333.38c0,0,29.727-1.101,61.799-0.728
			c136.519-8.889,272.182-8.889,410.056,0.201c32.292-0.314,61.357,0.526,61.357,0.526"/>
		<path fill="none" stroke="#4FB44D" stroke-miterlimit="10" d="M-27.408,357.29c0,0,26.705,0,60.083,0
			c14.699,0.035,29.658-0.165,44.398-0.29c102.684-1.608,207.382-5.97,309.899,0.02c22.23,0.261,42.061,0.271,58.749,0.271
			c33.377,0,60.083,0,60.083,0"/>
		<path fill="none" stroke="#4FB44D" stroke-miterlimit="10" d="M-27.408,381.202c0,0,69.731,0,152.783,0
			c11.866,0,24.121,0,36.638,0c38.388,0.365,78.203,0.365,115.955,0.199c12.831-0.045,25.64-0.108,38.415-0.199
			c12.517,0,24.772,0,36.638,0c83.052,0,152.783,0,152.783,0"/>
	</g>
	<g>
		<path fill="none" stroke="#4FB44D" stroke-miterlimit="10" d="M452.548,116.018c0,0-1.561,19.355-0.95,43.501
			c-12.31,59.545-16.734,120.619,0.406,179.586c-0.416,24.286,0.544,41.186,0.544,41.186"/>
		<path fill="none" stroke="#4FB44D" stroke-miterlimit="10" d="M405.138,116.018c0,0-0.945,19.172-4.46,45.308
			c-26.272,56.649-18.899,117.722,0.225,175.697c-1.112,23.188,4.235,43.269,4.235,43.269"/>
		<path fill="none" stroke="#4FB44D" stroke-miterlimit="10" d="M357.726,116.018c0,0-0.424,4.516-1.144,12.158
			c-16.093,70.187-35.263,142.147-4.296,211.947c4.424,8.726,4.424,18.541,4.658,28.312c0.615,7.592,0.781,11.856,0.781,11.856"/>
		<path fill="none" stroke="#4FB44D" stroke-miterlimit="10" d="M310.278,116.081c-21.4,83.373-21.4,168.421-0.81,251.808
			c0.71,8.089,0.846,12.402,0.846,12.402"/>
		<path fill="none" stroke="#4FB44D" stroke-miterlimit="10" d="M262.835,116.354c-6.398,87.462-6.398,176.873,0.061,263.892"/>
		<path fill="none" stroke="#4FB44D" stroke-miterlimit="10" d="M215.549,116.376c8.446,87.44,5.497,176.851-0.049,263.86"/>
		<path fill="none" stroke="#4FB44D" stroke-miterlimit="10" d="M168.131,116.112c17.524,83.341,20.474,168.39,0.762,251.715
			c-0.678,8.136-0.812,12.464-0.812,12.464"/>
		<path fill="none" stroke="#4FB44D" stroke-miterlimit="10" d="M120.67,116.018c0,0,0.154,4.246,1.041,12.093
			c28.554,80.066,22.655,160.752-0.195,240.228c-0.638,7.636-0.846,11.952-0.846,11.952"/>
		<path fill="none" stroke="#4FB44D" stroke-miterlimit="10" d="M73.26,116.018c0,0,0.007,18.548,4.438,45.298
			c23.905,57.748,20.956,117.731,0.329,175.322c-1.49,24.922-4.767,43.652-4.767,43.652"/>
		<path fill="none" stroke="#4FB44D" stroke-miterlimit="10" d="M25.848,116.018c0,0,2.158,19.698,1.359,43.685
			c16.886,59.362,13.937,120.436-0.539,179.273c0.58,24.158-0.82,41.315-0.82,41.315"/>
	</g>
</g>
<g>
	<polygon fill="#4FB44D" points="525.576,101.499 -47.181,101.499 -47.181,382.465 -24.291,380.303 -24.291,118.428 
		504.147,118.428 504.147,380.303 525.576,382.465 	"/>
</g>
</svg>
