<?xml version="1.0" encoding="utf-8"?>
<!-- Generator: Adobe Illustrator 16.0.0, SVG Export Plug-In . SVG Version: 6.00 Build 0)  -->
<!DOCTYPE svg PUBLIC "-//W3C//DTD SVG 1.1//EN" "http://www.w3.org/Graphics/SVG/1.1/DTD/svg11.dtd">
<svg version="1.1" id="Layer_1" xmlns="http://www.w3.org/2000/svg" xmlns:xlink="http://www.w3.org/1999/xlink" x="0px" y="0px"
	 width="573.668px" height="280px" viewBox="0 0 573.668 280" enable-background="new 0 0 573.668 280" xml:space="preserve">
<g>
	<path fill="#333333" d="M5.349,279.52v-25.938c0.505,0.003,1.011,0.006,1.516,0.01v26.039c0.775,0.059,1.55,0.124,2.328,0.192
		V254.23c0.272,0,0.545-0.001,0.817-0.003v25.666c0.555,0.051,1.11,0.104,1.666,0.159c-0.039-7.428-0.037-16.876,0.079-24.302
		c0.01-0.762,1.532-1.519,2.352-2.275c0.652,0.854,1.835,1.706,1.867,2.569c0.174,5.108,0.086,10.221,0.086,15.332
		c0.005,2.373,0.029,6.763,0.034,9.137c0.563,0.06,1.128,0.123,1.694,0.186v-98.6h175.22v-4.696
		c0.003-12.533-0.005-25.064,0.026-37.595c0.005-1.066-0.257-2.902,0.503-3.075c7.222-1.64,1.825-3.946,1.859-5.848h-10.327
		c-1.982,4.554-3.788,8.686-5.519,12.662c-23.626,0-45.42,0.068-67.2-0.087c-2.734-0.02-5.445-1.227-8.165-1.882
		c0.186-0.338,0.365-0.676,0.548-1.014H23.451v3.664h7.929c19.915,0,39.832-0.005,59.748,0.012c1.849,0.002,5.002-0.172,5.342,0.283
		c2.65,3.557,7.879,2.026,11.953,2.064c16.396,0.154,32.799,0.064,49.2,0.066h25.367v29.795H17.261c0-8.718-0.08-17.183,0.07-25.644
		c0.028-1.631-1.576-3.608,3.145-4.663c1.143-0.255,1.17-5.039,0.037-5.296c-5.083-1.149-3.166-3.342-3.171-5.058
		c-0.107-40.96-0.076-81.922-0.071-122.883V8.696h242.931c0.233,0.575,0.429,0.832,0.429,1.088
		c0.033,26.409,0.118,52.818-0.104,79.227c-0.015,1.294-2.709,2.581-4.154,3.871c-1.28,11.631-1.374,23.621-1.146,35.61
		c0.027,1.323,1.916,2.635,2.852,3.843c-0.393,0.989-0.849,2.138-1.307,3.288c3.938-0.136,4.166,4.621,9.583,2.444
		c6.766-2.719,14.433-1.871,21.854-1.902c13.987-0.057,27.968-0.016,42.26-0.016v-7.834c-2.852,0-5.501-0.287-7.813,0.094
		c-1.796,0.295-3.154,2.07-4.739,2.088c-15.625,0.166-31.258,0.1-47.197,0.1V8.398c14.865,0,29.337-0.086,43.801,0.085
		c2.354,0.027,4.569,1.442,7.028,1.745c2.773,0.343,7.94,0.615,8.259,0.116c1.649-2.591,4.988-1.928,7.97-1.928
		c72.162-0.02,144.324-0.017,216.484-0.006c2.258,0.001,4.52,0.118,6.834,0.183v167.821H271.891
		c1.796-0.652,3.626-0.652,5.454-0.652c17.337-0.003,34.676-0.01,52.016-0.008c3.283,0,7.027,0.292,4.874-3.093
		c-20.522,0-41.106-0.043-61.685,0.081c-1.646,0.01-3.271,1.152-5.192,1.878c-1.44-0.294-3.661-0.747-6.198-1.266v9.016h61.416
		c0,11.12-0.615,21.772,0.179,32.39c0.601,8.044,0.058,16.014,1.47,24.123v-56.426c0.624-0.01,1.248-0.021,1.871-0.03v57.418
		h145.106c-0.003,0.362-0.007,0.725-0.009,1.088H324.624c0.325,1.494,0.715,2.992,1.209,4.498
		c3.983,12.159,1.188,22.732,0.856,35.339c0.517-0.02,1.034-0.046,1.55-0.067v-22.976h21.941v6.887
		c-2.483,0.114-5.14,0.233-7.794,0.357v0.377c2.495,0.103,4.993,0.205,7.905,0.326v15.156c0.724-0.043,1.448-0.085,2.171-0.128
		V265.85h21.783v14.68c0.688-0.032,1.376-0.07,2.064-0.101v-14.613h23.322v13.959c0.63-0.004,1.259-0.015,1.89-0.015v-13.998h21.868
		v14.561c0.686,0.031,1.373,0.062,2.061,0.093v-14.773h21.787v15.579c0.723,0.014,1.444,0.023,2.165,0.031v-15.583h21.673v14.794
		c0.689-0.068,1.375-0.143,2.062-0.221v-14.609h44.345v-23.434h44.111v6.4c-0.002,9.73-0.025,22.371,0.021,32.103h12.053V0.741
		c-11.882-1.621-23.502-0.04-35.084-0.3c-12.867-0.289-25.771-0.073-38.658-0.064c-12.652,0.012-25.305,0.049-37.956,0.059
		c-12.653,0.011-25.305,0.001-37.957,0.001c-12.649,0-25.296,0.001-37.946,0.001c-12.884-0.001-25.771,0.004-38.658-0.007
		c-12.653-0.01-25.303-0.044-37.954-0.054c-12.653-0.008-25.306-0.002-37.96,0.008c-12.654,0.01-25.302,0.044-37.956,0.052
		c-12.885,0.008-25.773-0.009-38.659-0.009c-12.649,0-25.297,0.006-37.947,0.011c-12.654,0.006-25.302,0.028-37.957,0.018
		c-12.647-0.011-25.296-0.065-37.95-0.079C68.137,0.364,55.252,0.375,42.366,0.375H3.307v4.87
		c0.05,66.155,0.125,132.31,0.146,198.465c0.009,24.557-0.011,51.134-0.013,75.692C4.077,279.437,4.713,279.478,5.349,279.52z
		 M24.718,143.311c-0.223-0.348-0.445-0.695-0.67-1.043c1.55-0.422,3.093-1.208,4.646-1.213c23.849-0.08,47.703-0.084,71.555-0.005
		c1.568,0.005,3.129,0.791,4.695,1.215c-0.22,0.349-0.435,0.698-0.653,1.046H24.718z M99.213,145.532c0-0.289,0-0.578,0.005-0.866
		h78.098c0,0.288-0.002,0.577-0.002,0.866H99.213z M258.712,130.376c-0.498,0.007-0.993,0.01-1.49,0.015V92.725
		c0.498-0.005,0.993-0.01,1.49-0.014V130.376z M270.713,174.637c0.002-0.292,0.005-0.586,0.01-0.88h62.697
		c-0.007,0.294-0.011,0.588-0.015,0.88H270.713z M328.354,256.524V242.3h22.016v14.225H328.354z M352.321,242.318h22.006v14.175
		h-22.006V242.318z M376.369,256.605v-14.219h22.987v14.219H376.369z M425.541,256.576v-14.199h21.617v14.199H425.541z
		 M352.214,264.633v-7.011h22.028v7.011H352.214z M376.135,257.768h23.434v6.736h-23.434V257.768z M401.336,264.581V257.7h21.989
		v6.881H401.336z M425.235,257.676h22.027v6.903h-22.029v-6.903H425.235z M449.146,264.579v-6.899h21.982v6.899H449.146z
		 M516.214,242.363v22.082h-42.935v-22.082H516.214z M471.365,242.328v14.173h-22.01v-14.173H471.365z M423.387,242.292v14.211
		h-22.003v-14.211H423.387z M449.23,182.447h21.998v25.574H449.23V182.447z M447.24,207.949h-22.019v-25.436h22.019V207.949z
		 M376.115,207.894v-25.457h23.439v25.457H376.115z M374.332,207.935h-21.953v-25.409h21.953V207.935z M328.439,208.087v-25.581
		h21.822v25.581H328.439z M401.555,208.103v-25.597h21.783v25.596L401.555,208.103L401.555,208.103z M328.467,227.357v-18.158h22
		v18.158H328.467z M352.188,209.236h21.845v18.071h-21.845V209.236z M376.253,227.359v-18.309h23.188v18.309H376.253z
		 M401.57,227.359v-18.304h21.745v18.304H401.57z M425.332,209.119h22.021v18.167h-22.021V209.119z M449.219,227.412v-18.269h21.991
		v18.269H449.219z M328.378,229.637c0.001-0.297,0.004-0.597,0.007-0.893h142.816c-0.004,0.296-0.008,0.596-0.011,0.893H328.378z
		 M328.504,238.684v-7.677h138.629v7.677H328.504z M473.062,241.086v-12.485h42.994v12.485H473.062z M561.135,228.562v12.575
		h-43.079v-12.575H561.135z M476.736,227.542c-1.327-0.017-3.68-1.36-3.729-2.125c-0.324-5.348-0.173-10.703-0.173-16.281h43.382
		v18.504C502.824,227.64,489.773,227.704,476.736,227.542z M561.717,186.195c-0.325,12.644-0.129,25.289-0.126,37.935v3.293h-43.658
		v-19.051h-44.693v-25.866c1.553-0.09,3.109-0.26,4.669-0.262c25.499-0.018,50.997,0.053,76.492-0.071
		C559.692,182.145,561.802,182.857,561.717,186.195z M474.927,5.227c1.198,0.005,2.385,0.775,3.577,1.189
		c-0.931,0.427-1.856,1.224-2.794,1.228c-18.646,0.073-37.292,0.054-55.938,0.054c-0.23-0.36-0.461-0.719-0.691-1.078
		c1.311-0.481,2.611-1.375,3.93-1.381C440.314,5.144,457.623,5.15,474.927,5.227z M476.909,3.811
		c0.093,0.156,0.185,0.313,0.275,0.469H420.85c-0.002-0.157-0.004-0.314-0.006-0.469H476.909z M478.261,1.562
		c-0.008,0.29-0.015,0.575-0.021,0.864h-58.472c0-0.289,0.002-0.576,0.002-0.864H478.261z M251.857,1.492
		c0.011,0.267,0.024,0.539,0.034,0.806h-58.46c-0.005-0.268-0.013-0.539-0.023-0.806H251.857z M116.095,2.375
		c-0.008-0.291-0.019-0.583-0.029-0.873h58.483c0,0.291,0.002,0.582,0.002,0.873H116.095z M342.418,2.429
		c0.002-0.292,0.002-0.584,0.002-0.875h58.514v0.875H342.418z M399.867,3.754c0,0.157,0.006,0.315,0.007,0.473h-56.073
		c-0.076-0.158-0.15-0.316-0.228-0.473H399.867z M250.912,3.757c0,0.158,0.003,0.317,0.005,0.475h-56.182
		c-0.055-0.158-0.113-0.316-0.176-0.475H250.912z M117.436,4.339c-0.003-0.157-0.005-0.313-0.008-0.469h56.055
		c-0.098,0.157-0.198,0.313-0.293,0.469H117.436z M396.945,5.215c1.56,0.007,3.106,0.789,4.661,1.21
		c-0.221,0.35-0.44,0.702-0.66,1.052h-58.538c-0.219-0.35-0.439-0.702-0.662-1.052c1.553-0.421,3.1-1.203,4.661-1.21
		C363.251,5.126,380.1,5.126,396.945,5.215z M247.89,5.222c1.563,0.01,3.116,0.768,4.671,1.177
		c-0.215,0.356-0.427,0.712-0.642,1.067h-58.486c-0.225-0.343-0.445-0.687-0.67-1.029c1.543-0.423,3.084-1.205,4.637-1.214
		C214.229,5.136,231.061,5.136,247.89,5.222z M116.042,7.698c-0.218-0.422-0.43-0.843-0.645-1.264
		c1.561-0.423,3.116-1.206,4.685-1.214c17.067-0.085,34.145-0.076,51.215,0.007c1.181,0.007,2.351,0.794,3.527,1.218
		c-0.948,0.418-1.898,1.196-2.852,1.2C153.327,7.716,134.683,7.698,116.042,7.698z M5.323,239.531v-34.456
		c0.409,0.002,0.813,0.005,1.226,0.008v34.454C6.137,239.535,5.731,239.533,5.323,239.531z M9.971,205.749v33.205
		c-0.246,0.002-0.49,0.002-0.733,0.004v-33.207C9.481,205.751,9.725,205.749,9.971,205.749z M11.743,237.637
		c-0.135-10.225-0.144-20.449,0.016-30.674c0.01-0.762,1.545-1.518,2.37-2.276c0.646,0.126,1.292,0.253,1.938,0.377
		c0,4.943,0,9.886-0.002,14.828c0,5.92,0.073,11.84-0.097,17.758c-0.018,0.687-1.384,1.36-2.126,2.039
		C13.11,239.005,11.754,238.323,11.743,237.637z"/>
</g>
</svg>
