<?xml version="1.0" encoding="utf-8"?>
<!-- Generator: Adobe Illustrator 16.0.0, SVG Export Plug-In . SVG Version: 6.00 Build 0)  -->
<!DOCTYPE svg PUBLIC "-//W3C//DTD SVG 1.1//EN" "http://www.w3.org/Graphics/SVG/1.1/DTD/svg11.dtd">
<svg version="1.1" id="Layer_1" xmlns="http://www.w3.org/2000/svg" xmlns:xlink="http://www.w3.org/1999/xlink" x="0px" y="0px"
	 width="336.093px" height="426px" viewBox="0 0 336.093 426" enable-background="new 0 0 336.093 426" xml:space="preserve">
<path fill="#333333" d="M334.677,424.195h-31.056c0.004-0.377,0.008-0.754,0.012-1.131h31.177c0.07-0.578,0.148-1.156,0.23-1.736
	h-30.642c0-0.203-0.002-0.406-0.004-0.609h30.731c0.061-0.414,0.125-0.828,0.191-1.242c-8.895,0.029-20.206,0.027-29.097-0.059
	c-0.912-0.008-1.818-1.143-2.725-1.754c1.023-0.486,2.043-1.369,3.076-1.393c6.117-0.129,12.238-0.064,18.357-0.064
	c2.842-0.004,8.099-0.021,10.94-0.025c0.072-0.42,0.148-0.842,0.223-1.264H218.032V284.221h-5.623
	c-15.004-0.002-30.008,0.004-45.012-0.02c-1.277-0.004-3.475,0.191-3.682-0.375c-1.964-5.387-4.725-1.361-7.002-1.387v7.703
	c5.452,1.479,10.4,2.826,15.16,4.117c0,17.623,0.082,33.879-0.104,50.125c-0.023,2.039-1.469,4.061-2.254,6.09
	c-0.404-0.139-0.809-0.273-1.213-0.41v60.629h4.387v-5.914c0-14.854-0.006-29.711,0.014-44.566c0.002-1.379-0.205-3.732,0.34-3.984
	c4.258-1.977,2.426-5.877,2.471-8.916c0.184-12.23,0.078-24.465,0.08-36.699v-18.92h35.674v123.617
	c-10.439,0-20.572,0.059-30.703-0.053c-1.953-0.021-4.322,1.176-5.584-2.346c-0.305-0.852-6.033-0.873-6.34-0.027
	c-1.377,3.791-4.002,2.361-6.057,2.365c-49.043,0.08-98.088,0.057-147.132,0.053h-5.04V234.1c0.689-0.174,0.996-0.32,1.303-0.32
	c31.62-0.025,63.241-0.088,94.861,0.078c1.549,0.01,3.09,2.02,4.635,3.098c13.926,0.955,28.282,1.025,42.637,0.854
	c1.584-0.02,3.155-1.428,4.601-2.127c1.185,0.293,2.56,0.633,3.937,0.975c-0.164-2.938,5.533-3.107,2.926-7.148
	c-3.256-5.047-2.24-10.766-2.277-16.301c-0.068-10.432-0.02-20.861-0.02-31.521h-9.379c0,2.127-0.344,4.103,0.112,5.828
	c0.353,1.34,2.479,2.352,2.5,3.535c0.199,11.654,0.12,23.315,0.12,35.204H10.055c0-11.088-0.103-21.883,0.102-32.672
	c0.033-1.756,1.727-3.408,2.09-5.242c0.41-2.068,0.736-5.923,0.139-6.16c-3.103-1.231-2.308-3.721-2.309-5.944
	C10.053,122.41,10.057,68.584,10.07,14.76c0.001-1.685,0.141-3.371,0.219-5.098h200.938v215.719
	c-0.781-1.34-0.781-2.705-0.781-4.068c-0.004-12.932-0.012-25.866-0.01-38.799c0-2.449,0.348-5.242-3.703-3.636
	c0,15.308-0.051,30.661,0.096,46.011c0.012,1.227,1.379,2.439,2.248,3.873c-0.35,1.074-0.893,2.73-1.514,4.623h10.795v-45.811
	c13.314,0,26.068,0.459,38.781-0.132c9.631-0.449,19.174-0.043,28.883-1.097h-67.562c-0.012-0.465-0.023-0.931-0.035-1.396h68.748
	V76.714c0.434,0.002,0.867,0.005,1.303,0.007v109.326c1.789-0.242,3.582-0.533,5.385-0.901c14.559-2.972,27.218-0.887,42.313-0.639
	c-0.023-0.386-0.055-0.771-0.08-1.156h-27.511v-16.366h8.246c0.137,1.852,0.281,3.834,0.428,5.813h0.451
	c0.123-1.861,0.246-3.725,0.391-5.896h18.147c-0.051-0.54-0.102-1.08-0.152-1.62h-17.784v-16.248h17.576
	c-0.039-0.513-0.084-1.026-0.121-1.54h-17.496v-17.396h16.713c-0.004-0.47-0.018-0.939-0.018-1.409h-16.76v-16.312h17.434
	c0.037-0.512,0.074-1.024,0.111-1.537h-17.688V94.589h18.654c0.016-0.539,0.027-1.077,0.037-1.615h-18.658V76.808h17.713
	c-0.082-0.514-0.17-1.026-0.264-1.537h-17.492V42.194h-28.059V9.291h7.664c11.65,0.001,26.786,0.019,38.437-0.016V0.284H0.887
	c-1.94,8.864-0.047,17.531-0.358,26.17c-0.347,9.598-0.088,19.222-0.077,28.835c0.014,9.438,0.059,18.875,0.07,28.312
	c0.013,9.438,0.002,18.875,0.002,28.312c0,9.435,0.001,18.868,0.001,28.304c-0.001,9.61,0.005,19.224-0.009,28.836
	c-0.012,9.437-0.053,18.873-0.064,28.31c-0.01,9.438-0.003,18.875,0.01,28.314c0.012,9.438,0.053,18.873,0.062,28.311
	c0.009,9.611-0.011,19.225-0.011,28.836c0,9.436,0.008,18.869,0.014,28.305c0.007,9.438,0.033,18.873,0.021,28.312
	c-0.014,9.434-0.078,18.869-0.095,28.307c-0.017,9.613-0.004,19.225-0.004,28.836v29.135H6.28
	c79.209-0.037,158.418-0.094,237.627-0.109c29.404-0.006,61.226,0.008,90.63,0.01C334.578,425.145,334.626,424.67,334.677,424.195z
	 M171.59,409.748c-0.416,0.166-0.832,0.332-1.248,0.5c-0.506-1.156-1.447-2.307-1.453-3.465c-0.096-17.789-0.1-35.582-0.006-53.373
	c0.006-1.17,0.947-2.334,1.455-3.502c0.418,0.164,0.836,0.324,1.252,0.488V409.748z M174.25,354.182c-0.346,0-0.691,0-1.037-0.004
	v-58.254c0.346,0,0.691,0.002,1.037,0.002V354.182z M156.104,235.211c0.007,0.371,0.011,0.74,0.017,1.111h-45.099
	c-0.006-0.371-0.012-0.74-0.016-1.111H156.104z M209.098,226.26c-0.35-0.002-0.701-0.004-1.053-0.008v-46.765
	c0.352,0.004,0.703,0.007,1.053,0.01V226.26z M307.145,183.265h-17.031v-16.422h17.031V183.265z M290.135,165.388v-16.414h16.973
	v16.414H290.135z M307.241,147.45h-17.025v-17.146h17.025V147.45z M307.206,110.773h-17.002V94.649h17.002V110.773z
	 M316.854,165.468h-8.395v-16.431h8.395V165.468z M308.633,147.625v-17.479h8.066v17.479H308.633z M316.79,128.827h-8.238v-16.401
	h8.238V128.827z M308.524,111.001V94.571h8.264v16.431H308.524z M316.788,93.165h-8.26V76.769h8.26V93.165z M290.19,43.14h26.438
	v32.025H290.19V43.14z M290.147,76.593h16.969v16.417h-16.969V76.593z M290.104,112.38h17.014v16.412h-17.014V112.38z
	 M218.448,93.103V76.695h30.623v16.408H218.448z M248.985,94.587v16.424H218.53V94.587H248.985z M248.917,147.64h-30.479v-17.484
	h30.479V147.64z M248.967,148.97v16.375h-30.424V148.97H248.967z M249.149,183.201H218.52v-16.277h30.629V183.201z M249.167,128.664
	H218.52v-16.248h30.646V128.664z M272.223,183.181h-21.742v-16.41h21.742V183.181z M250.526,165.488v-16.294h21.635v16.294H250.526z
	 M272.225,147.537h-21.922v-17.296h21.922V147.537z M272.225,128.653h-21.916v-16.22h21.916V128.653z M250.385,110.929V94.503
	h21.752v16.426H250.385z M272.286,93.112h-21.873V76.708h21.873V93.112z M274.95,183.247c-0.355-0.001-0.713-0.003-1.068-0.005
	V76.715c0.355,0.003,0.713,0.006,1.068,0.008V183.247z M285.782,183.154h-9.191V79.749h9.191V183.154z M288.659,75.327h-14.949
	V43.258h14.949V75.327z M273.663,9.633h15.057v32.133h-15.057V9.633z M272.444,72.586c-0.02,0.99-1.629,2.745-2.545,2.781
	c-6.404,0.243-12.816,0.129-19.494,0.129V43.138h22.156C272.561,53.127,272.637,62.862,272.444,72.586z M222.938,9.199
	c15.137,0.243,30.279,0.096,45.42,0.094h3.943v32.565h-22.812v33.337H218.52c-0.109-1.159-0.312-2.32-0.314-3.483
	c-0.021-19.019,0.064-38.039-0.086-57.056C218.088,10.709,218.942,9.136,222.938,9.199z M6.258,73.936
	c0.006-0.894,0.928-1.779,1.424-2.668c0.512,0.694,1.465,1.385,1.47,2.084c0.087,13.908,0.065,27.816,0.065,41.724
	c-0.431,0.172-0.861,0.344-1.291,0.516c-0.576-0.978-1.646-1.947-1.654-2.931C6.159,99.753,6.166,86.843,6.258,73.936z
	 M4.563,72.457c0.187-0.069,0.375-0.137,0.562-0.205v42.021c-0.188,0.001-0.376,0.003-0.562,0.004V72.457z M1.871,71.449
	c0.347,0.006,0.688,0.011,1.034,0.016v43.614c-0.346,0-0.689-0.001-1.034-0.001V71.449z M1.786,240.324
	c0.32-0.008,0.645-0.018,0.965-0.025v43.605c-0.32,0.004-0.645,0.01-0.965,0.018V240.324z M2.844,341.59
	c-0.348,0.006-0.697,0.014-1.045,0.021v-43.623c0.348,0,0.696-0.002,1.045-0.002V341.59z M2.908,172.775
	c-0.349-0.001-0.699-0.001-1.048-0.001v-43.646h1.048V172.775z M4.495,129.923c0.188,0,0.377-0.004,0.566-0.005v41.825
	c-0.189,0.057-0.379,0.113-0.566,0.17V129.923z M4.499,241.029c0.189,0,0.379-0.002,0.568-0.004v41.906
	c-0.189,0.041-0.379,0.084-0.568,0.131V241.029z M5.196,340.59c-0.188,0.002-0.375,0.004-0.562,0.006v-41.812
	c0.188,0.074,0.375,0.148,0.562,0.219V340.59z M6.244,132.103c0.009-1.163,0.944-2.318,1.449-3.477
	c0.419,0.164,0.84,0.328,1.259,0.492v43.664c-0.419,0.164-0.84,0.328-1.259,0.494c-0.505-1.159-1.44-2.312-1.449-3.477
	C6.137,157.236,6.137,144.668,6.244,132.103z M6.252,243.283c0.012-1.166,0.92-2.324,1.409-3.484
	c0.427,0.16,0.853,0.318,1.278,0.479v43.625c-0.41,0.168-0.822,0.332-1.232,0.5c-0.506-1.152-1.443-2.301-1.453-3.459
	C6.149,268.391,6.15,255.836,6.252,243.283z M9.217,341.629c-0.506,0.162-1.01,0.32-1.514,0.48
	c-0.506-1.164-1.443-2.324-1.453-3.494c-0.102-12.73-0.091-25.469,0.008-38.201c0.008-0.881,0.951-1.754,1.459-2.631
	c0.5,0.707,1.432,1.416,1.436,2.127C9.239,313.818,9.217,327.725,9.217,341.629z M286.799,424.215h-41.256
	c0.002-0.305,0.006-0.607,0.01-0.914h41.252C286.803,423.607,286.801,423.91,286.799,424.215z M246.35,420.748h39.758
	c0.002,0.184,0.002,0.365,0.004,0.547h-39.76C246.352,421.113,246.35,420.932,246.35,420.748z M284.53,419.426
	c-12.244,0.1-24.486,0.107-36.727-0.012c-0.912-0.008-1.816-1.152-2.725-1.768c0.15-0.482,0.303-0.963,0.451-1.445
	c5.918,0,11.836,0,17.754,0.002c7.088,0,14.176-0.055,21.262,0.072c0.822,0.014,1.629,1.033,2.441,1.586
	C286.168,418.406,285.352,419.418,284.53,419.426z"/>
</svg>
