<?xml version="1.0" encoding="utf-8"?>
<!-- Generator: Adobe Illustrator 15.1.0, SVG Export Plug-In . SVG Version: 6.00 Build 0)  -->
<!DOCTYPE svg PUBLIC "-//W3C//DTD SVG 1.1//EN" "http://www.w3.org/Graphics/SVG/1.1/DTD/svg11.dtd">
<svg version="1.1" id="Layer_1" xmlns="http://www.w3.org/2000/svg" xmlns:xlink="http://www.w3.org/1999/xlink" x="0px" y="0px"
	 width="428px" height="340.666px" viewBox="-48.093 40.832 428 340.666" enable-background="new -48.093 40.832 428 340.666"
	 xml:space="preserve">
<path fill="none" stroke="#4FB44D" stroke-width="2" stroke-miterlimit="10" d="M166.131,247.723
	c-18.065,0-34.158,8.474-44.615,21.683h89.231C200.29,256.196,184.196,247.723,166.131,247.723z"/>
<polyline fill="none" stroke="#4FB44D" stroke-width="2" stroke-miterlimit="10" points="122.694,269.405 41.649,269.405 
	41.649,373.652 110.239,373.652 110.239,339.461 223.997,339.461 223.997,373.652 290.614,373.652 290.614,269.405 211.925,269.405 
	"/>
<rect x="143.197" y="373.652" fill="none" stroke="#4FB44D" stroke-width="2" stroke-miterlimit="10" width="45.868" height="5.229"/>
<g>
	<path fill="none" stroke="#4FB44D" stroke-width="2" stroke-miterlimit="10" d="M166.131,101.209
		c31.611,0,57.251-25.743,57.444-57.57H108.688C108.88,75.467,134.521,101.209,166.131,101.209z"/>
</g>
<rect x="-45.116" y="43.64" fill="none" stroke="#4FB44D" stroke-width="2" stroke-miterlimit="10" width="421.502" height="329.907"/>
</svg>
