<?xml version="1.0" encoding="utf-8"?>
<!-- Generator: Adobe Illustrator 16.0.0, SVG Export Plug-In . SVG Version: 6.00 Build 0)  -->
<!DOCTYPE svg PUBLIC "-//W3C//DTD SVG 1.1//EN" "http://www.w3.org/Graphics/SVG/1.1/DTD/svg11.dtd">
<svg version="1.1" id="Layer_1" xmlns="http://www.w3.org/2000/svg" xmlns:xlink="http://www.w3.org/1999/xlink" x="0px" y="0px"
	 width="666.816px" height="426px" viewBox="0 0 666.816 426" enable-background="new 0 0 666.816 426" xml:space="preserve">
<g>
	<path fill="#333333" d="M635.945,226.477c6.561,12.862,13.51,26.487,20.83,40.844c1.564,0,4.104,0,6.98,0
		c0,25.807,0,51.231,0,77.143c-2.428,0-4.918,0-6.639,0c-8.848,16.273-17.299,31.824-25.762,47.369
		c-5.322,9.777-10.895,19.406-15.865,29.389c-1.854,3.726-4.043,4.586-7.57,4.572c-39.359-0.156-78.721-0.221-118.082-0.236
		c-81.141-0.032-162.281-0.043-243.423-0.024c-79.208,0.016-158.418,0.071-237.627,0.108c-1.738,0-3.477,0-5.831,0
		c0-10.289,0-19.711,0-29.135c0-9.611-0.013-19.223,0.004-28.836c0.017-9.438,0.081-18.873,0.094-28.307
		c0.012-9.438-0.014-18.875-0.021-28.312c-0.006-9.436-0.013-18.869-0.013-28.305c0-9.611,0.019-19.225,0.01-28.836
		c-0.009-9.438-0.049-18.873-0.062-28.311c-0.012-9.438-0.019-18.875-0.009-28.313c0.011-9.436,0.053-18.873,0.065-28.31
		c0.013-9.612,0.007-19.225,0.008-28.836c0-9.435-0.001-18.868-0.001-28.303c0-9.437,0.011-18.874-0.002-28.312
		c-0.012-9.437-0.057-18.874-0.07-28.312C2.948,45.6,2.69,35.976,3.036,26.378c0.311-8.639-1.582-17.306,0.358-26.17
		c217.1,0,434.193,0,652.156,0c0,14.109,0,28.174,0,42.237c-0.318,0.006-0.641,0.012-0.959,0.016c0-10.655,0-21.312,0-31.968
		c-0.338-0.003-0.672-0.007-1.006-0.011c0,10.558,0,21.116,0,31.674c-0.389,0-0.779,0-1.166,0c0-10.877,0-21.753,0-32.631
		c-0.484-0.012-0.969-0.025-1.449-0.038c0,10.32,0,20.642,0,30.962c-0.389-0.001-0.773-0.002-1.162-0.003c0-4.151,0-8.302,0-12.367
		c-4.02-1.139-4.041-1.14-4.119,3.06c-0.043,2.378-0.008,4.758-0.736,7.135c0-9.4,0-18.8,0-29.06c-1.963,0-3.652,0-5.344,0
		c-39.365,0-78.73-0.012-118.094,0.031c-2.316,0.003-4.871-1.008-6.367,2.686c-0.482,1.193-3.805,1.43-5.83,1.437
		c-24.842,0.086-49.686,0.118-74.527-0.089c-1.973-0.016-3.928-1.923-5.902-2.932c-0.781-0.401-1.586-1.076-2.383-1.078
		c-23.85-0.059-47.699-0.047-72.219-0.047c0,2.219,0,4.067,0,5.917c0.002,54.702,0.029,109.404-0.066,164.108
		c-0.006,3.422,0.922,5.82,3.131,8.212c5.449,5.902,10.635,12.088,16.137,18.399c-0.957,0.922-2.363,2.28-4.072,3.929
		c-7.604-7.855-15.076-15.656-22.668-23.317c-1.045-1.055-2.676-2.003-4.045-2.017c-15.485-0.146-31.379-2.435-46.334,0.618
		c-12.443,2.541-24.511,1.726-36.722,2.295c-12.712,0.591-25.466,0.132-38.781,0.132c0,15.297,0,30.385,0,45.811
		c-3.715,0-6.864,0-10.794,0c0.62-1.893,1.163-3.549,1.513-4.623c-0.869-1.434-2.236-2.646-2.247-3.873
		c-0.147-15.35-0.097-30.703-0.097-46.011c4.051-1.606,3.703,1.186,3.703,3.636c-0.001,12.933,0.006,25.867,0.011,38.798
		c0,1.363,0,2.729,0.78,4.068c0-71.778,0-143.556,0-215.719c-66.847,0-133.694,0-200.938,0c-0.078,1.727-0.218,3.413-0.219,5.098
		c-0.012,53.825-0.016,107.65,0.007,161.473c0.001,2.224-0.794,4.713,2.308,5.944c0.598,0.238,0.272,4.093-0.138,6.161
		c-0.363,1.833-2.057,3.486-2.09,5.242c-0.204,10.789-0.102,21.584-0.102,32.672c48.911,0,97.37,0,146.313,0
		c0-11.889,0.079-23.549-0.12-35.203c-0.02-1.184-2.147-2.195-2.5-3.535c-0.456-1.726-0.112-3.702-0.112-5.828
		c3.163,0,5.986,0,9.379,0c0,10.659-0.049,21.089,0.019,31.521c0.037,5.535-0.978,11.254,2.277,16.301
		c2.608,4.041-3.09,4.211-2.926,7.148c-1.376-0.342-2.752-0.682-3.936-0.975c-1.445,0.699-3.017,2.108-4.601,2.127
		c-14.354,0.172-28.711,0.102-42.636-0.853c-1.545-1.078-3.086-3.088-4.635-3.098c-31.62-0.166-63.241-0.104-94.862-0.078
		c-0.306,0-0.613,0.146-1.302,0.319c0,60.09,0,120.273,0,181.203c1.632,0,3.335,0,5.04,0c49.044,0.005,98.089,0.027,147.132-0.053
		c2.054-0.004,4.68,1.426,6.057-2.365c0.307-0.846,6.035-0.823,6.34,0.027c1.262,3.521,3.631,2.324,5.583,2.346
		c10.132,0.111,20.265,0.054,30.704,0.054c0-41.388,0-82.347,0-123.617c-11.82,0-23.495,0-35.675,0c0,6.438,0,12.68,0,18.92
		c-0.001,12.234,0.104,24.469-0.079,36.699c-0.045,3.039,1.787,6.938-2.471,8.916c-0.544,0.252-0.338,2.604-0.34,3.983
		c-0.02,14.855-0.013,29.713-0.013,44.566c0,1.895,0,3.791,0,5.914c-1.626,0-2.85,0-4.388,0c0-20.215,0-40.422,0-60.629
		c0.405,0.137,0.81,0.272,1.213,0.41c0.786-2.029,2.231-4.05,2.254-6.089c0.187-16.247,0.104-32.502,0.104-50.126
		c-4.759-1.291-9.708-2.638-15.161-4.117c0-1.803,0-4.512,0-7.703c2.278,0.025,5.039-4,7.003,1.387
		c0.207,0.566,2.405,0.371,3.681,0.375c15.004,0.023,30.008,0.018,45.013,0.02c1.736,0,3.473,0,5.622,0c0,43.736,0,87.007,0,130.697
		c43.705,0,86.998,0,131.009,0c0-2.104,0-4.297,0-6.49c-0.004-37.399,0.031-74.803-0.072-112.201
		c-0.01-3.416,0.941-5.771,3.182-8.188c4.791-5.174,9.195-10.769,13.762-16.19c0.664,0.199,1.324,0.396,1.988,0.596
		c1.418,3.158,2.836,6.316,4.637,10.326c1.496,0,4.236,0,6.906,0c-0.242,2.881-0.459,5.469-0.709,8.451c2.08,0,3.771,0,5.789,0
		c0.191-1.176,0.402-2.474,0.773-4.75c0.295,2.262,0.463,3.547,0.664,5.088c3.609,0,6.951,0.008,10.293-0.002
		c3.521-0.01,7.547,1.119,10.43-0.359c3.342-1.711,5.959,3.129,8.998-0.982c0.021-0.18,0.168-1.35,0.453-3.621
		c0.412,2.193,0.631,3.342,0.891,4.726c1.998,0,4.031,0,6.027,0c0.93-6.447,0.93-6.447-2.279-7.662
		c3.035-4.369,6.828,1.685,10.133-1.092c2.6-5.986-3.561-7.212-5.543-10.732c-1.191-2.116-3.393-3.567-5.129-5.329
		c-1.545-1.566-3.031-3.212-4.629-4.716c-3.24-3.062-6.742-5.836-9.756-9.135c-3.164-3.459-5.889-7.396-9.098-11.5
		c15.842-16.623,31.646-33.206,47.619-49.967c1.543,1.551,3.037,3.053,4.887,4.911c-14.395,15.175-28.535,30.081-42.986,45.313
		c29.652,31.084,58.938,61.781,88.73,93.012c12.922-13.584,25.582-26.895,38.283-40.248c-5.727-6.278-11.225-12.312-17.01-18.658
		c1.697-1.45,3.191-2.727,5.621-4.799c6.908,8.476,14.287,17.527,21.943,26.918c-11.865,12.482-24.943,26.24-38.887,40.904
		c13.857,0,26.488,0,39.121,0c0.002,0.361,0.004,0.724,0.006,1.08c-12.801,0-25.604,0-38.848,0c0.506,1.078,0.617,1.59,0.91,1.898
		c23.018,23.967,46.023,47.94,69.131,71.809c1.111,1.148,3.051,1.859,4.621,1.896c7.736,0.188,15.488,0.227,23.227-0.05
		c1.545-0.053,3.734-1.272,4.463-2.668c11.051-21.137,21.91-42.387,32.793-63.623c0.527-1.028,0.865-2.174,1.502-3.799
		c-4.207,0-7.982,0-11.758,0c-0.014-0.336-0.027-0.67-0.041-1.006c3.928,0,7.854,0,12.025,0c0-25.463,0-50.349,0-75.672
		c-4.004,0-7.803,0-11.598,0c-0.004-0.308-0.008-0.611-0.012-0.918c3.646,0,7.293,0,12.035,0
		c-12.213-24.211-23.984-47.56-36.168-71.721c-16.625,17.469-32.609,34.262-48.871,51.346c-2-2.58-3.939-5.08-6.209-8.004
		c18.699-19.64,37.836-39.741,57.312-60.195c7.908,15.193,15.627,30.023,23.594,45.332L635.945,226.477z M460.339,305.79
		c-0.252,2.398-0.512,3.715-0.512,5.033c-0.021,33.022,0.057,66.043-0.096,99.062c-0.021,4.576,1.58,5.461,5.398,5.437
		c23.703-0.16,47.414-0.318,71.115,0.073c6.145,0.104,10.475-1.821,14.75-6.504c3.506-3.836,2.854-5.812-0.299-9.096
		c-28.35-29.535-56.572-59.207-84.852-88.82C464.298,309.353,462.595,307.903,460.339,305.79z M274.809,9.217
		c-1.459,0-2.701,0-3.943,0c-15.142,0.002-30.283,0.149-45.421-0.094c-3.995-0.063-4.849,1.511-4.817,5.457
		c0.149,19.017,0.064,38.037,0.086,57.056c0.001,1.163,0.204,2.324,0.314,3.483c10.352,0,20.402,0,30.969,0
		c0-11.208,0-22.093,0-33.337c7.869,0,15.22,0,22.812,0C274.809,30.857,274.809,20.315,274.809,9.217z M292.5,42.118
		c9.575,0,18.652,0,28.059,0c0,11.305,0,22.06,0,33.077c8.788,0,17.224,0,25.565,0c0.232-0.573,0.465-0.876,0.465-1.18
		c0.045-20.23,0.01-40.461,0.143-60.692c0.023-3.779-1.766-4.157-4.545-4.14c-14.007,0.08-28.015,0.033-42.022,0.032
		c-2.511,0-5.021,0-7.664,0C292.5,20.368,292.5,30.778,292.5,42.118z M387.769,369.972c-0.34-2.457-0.512-3.698-0.689-5
		c-1.92,0-3.639,0-5.705,0c0.137,2.738,0.258,5.209,0.402,8.062c-2.117-0.453-4.049-0.867-7.111-1.523
		c2.676-0.283,4.174-0.442,5.779-0.61c0.055-1.229,0.141-2.091,0.109-2.945c-0.033-0.988-0.172-1.971-0.365-3.99
		c-2.828,1.008-5.164,1.842-7.293,2.603c-0.398-0.296-1.371-1.566-2.48-1.726c-2.939-0.426-5.824,1.838-8.576,0.101
		c0,10.157,0,19.961,0,29.993c1.027,0.168,2.391,0.392,3.916,0.642c0.135,2.789,0.258,5.305,0.377,7.785c2.434,0,4.445,0,6.449,0
		c0-2.854,0-5.355,0-8.185c2.592,0,5.125,0,7.678,0c0.232-1.562,0.418-2.803,0.803-5.387c0.316,2.666,0.473,3.967,0.625,5.26
		c3.816,0.832,7.34-1.348,10.932,0.109c0.754,0.303,2.111-1.152,2.201-1.207c2.74,0.639,5.094,1.184,7.912,1.836
		c0-2.701,0-4.523,0-6.346c0.221-0.013,0.441-0.027,0.662-0.041c0.17,1.805,0.338,3.608,0.514,5.498c2.27,0,4.402,0,6.746,0
		c-0.113-2.242-0.207-4.06-0.297-5.81c-2.043-0.199-3.57-0.35-5.1-0.5c0.047-0.258,0.092-0.518,0.137-0.774c1.582,0,3.162,0,5.738,0
		c-2.068-5.246-0.512-10.39-0.674-15.875c-3.537,0.364-6.494,0.67-8.457,0.873c0.412-3.146,0.701-5.337,1.031-7.853
		c-2.658,0-4.691,0-6.844,0c-0.189,1.826-0.355,3.441-0.521,5.057c-0.158-0.008-0.318-0.014-0.479-0.02
		c-0.084-1.646-0.168-3.291-0.258-5.033c-2.391,0-4.432,0-6.482,0C388.257,366.376,388.099,367.552,387.769,369.972z
		 M279.097,79.673c0,34.872,0,69.162,0,103.405c3.301,0,6.26,0,9.192,0c0-34.682,0-68.97,0-103.405
		C285.096,79.673,282.25,79.673,279.097,79.673z M292.698,43.064c0,10.799,0,21.306,0,32.025c9.115,0,17.856,0,26.438,0
		c0-10.901,0-21.418,0-32.025C310.049,43.064,301.422,43.064,292.698,43.064z M275.069,43.062c-7.645,0-14.799,0-22.157,0
		c0,10.83,0,21.374,0,32.359c6.678,0,13.091,0.114,19.494-0.129c0.916-0.036,2.526-1.791,2.546-2.781
		C275.144,62.786,275.069,53.052,275.069,43.062z M362.447,311.13c3.809,9.088,3.756,17.777-0.055,26.734
		c-0.213-1.666-0.393-3.066-0.572-4.467c-0.113,0.032-0.229,0.065-0.344,0.1c0,1.99,0,3.981,0,5.52c8.785,0,17.23,0,25.232,0
		c0-10.151,0-20.276,0-29.938c-8.312,0-16.859,0-25.271,0c0,1.717,0,3.463,0,5.211c0.141-0.006,0.279-0.012,0.418-0.016
		C362.039,313.31,362.22,312.341,362.447,311.13z M346.353,183.275c0-5.867,0-11.163,0-16.448c-8.814,0-17.274,0-25.747,0
		c-0.145,2.171-0.268,4.034-0.391,5.896c-0.15,0-0.301,0-0.451,0c-0.146-1.98-0.291-3.962-0.428-5.814c-3.051,0-5.686,0-8.245,0
		c0,5.685,0,10.973,0,16.366C322.98,183.275,334.503,183.275,346.353,183.275z M251.424,147.564c0-5.676,0-11.45,0-17.484
		c-10.144,0-20.191,0-30.479,0c0,5.93,0,11.583,0,17.484C231.129,147.564,241.065,147.564,251.424,147.564z M251.657,166.847
		c-10.508,0-20.55,0-30.63,0c0,5.64,0,10.934,0,16.278c10.378,0,20.42,0,30.63,0C251.657,177.601,251.657,172.424,251.657,166.847z
		 M221.052,148.894c0,5.884,0,11.188,0,16.375c10.415,0,20.465,0,30.423,0c0-5.699,0-11.004,0-16.375
		C241.186,148.894,231.25,148.894,221.052,148.894z M251.674,112.34c-10.564,0-20.611,0-30.646,0c0,5.66,0,10.964,0,16.248
		c10.388,0,20.435,0,30.646,0C251.674,123.048,251.674,117.87,251.674,112.34z M251.493,110.936c0-5.851,0-11.155,0-16.424
		c-10.387,0-20.434,0-30.456,0c0,5.671,0,10.972,0,16.424C231.315,110.936,241.249,110.936,251.493,110.936z M220.956,76.619
		c0,5.581,0,10.875,0,16.409c10.311,0,20.352,0,30.623,0c0-5.567,0-10.866,0-16.409C241.288,76.619,231.247,76.619,220.956,76.619z
		 M291.167,75.251c0-11.101,0-21.618,0-32.069c-5.253,0-10.14,0-14.949,0c0,10.937,0,21.46,0,32.069
		C281.356,75.251,286.126,75.251,291.167,75.251z M291.227,41.69c0-10.957,0-21.476,0-32.133c-5.182,0-10.064,0-15.057,0
		c0,10.867,0,21.39,0,32.133C281.233,41.69,286.004,41.69,291.227,41.69z M320.776,130.023c0,6.245,0,11.889,0,17.396
		c8.818,0,17.247,0,25.542,0c0-6.065,0-11.71,0-17.396C337.621,130.023,329.305,130.023,320.776,130.023z M320.602,92.898
		c8.971,0,17.397,0,25.731,0c0-5.69,0-10.981,0-16.166c-8.811,0-17.235,0-25.731,0C320.602,82.301,320.602,87.469,320.602,92.898z
		 M320.569,110.765c8.93,0,17.36,0,25.8,0c0-5.674,0-10.967,0-16.252c-8.77,0-17.202,0-25.8,0
		C320.569,100.042,320.569,105.217,320.569,110.765z M346.496,112.303c-8.834,0-17.258,0-25.785,0c0,5.623,0,10.91,0,16.311
		c8.742,0,17.164,0,25.785,0C346.496,123.119,346.496,117.952,346.496,112.303z M346.455,148.959c-8.68,0-17.109,0-25.638,0
		c0,5.678,0,11.097,0,16.248c8.86,0,17.294,0,25.638,0C346.455,159.59,346.455,154.417,346.455,148.959z M252.811,147.461
		c7.652,0,14.791,0,21.922,0c0-6.003,0-11.646,0-17.296c-7.479,0-14.618,0-21.922,0
		C252.811,136.033,252.811,141.551,252.811,147.461z M655.673,281.021c0,17.018,0,33.491,0,49.956c2.652,0,4.969,0,7.279,0
		c0-16.834,0-33.307,0-49.956C660.416,281.021,658.208,281.021,655.673,281.021z M274.794,93.036c0-5.612,0-10.898,0-16.403
		c-7.402,0-14.533,0-21.873,0c0,5.583,0,10.867,0,16.403C260.214,93.036,267.233,93.036,274.794,93.036z M252.989,166.695
		c0,5.834,0,11.116,0,16.411c7.482,0,14.615,0,21.742,0c0-5.661,0-10.95,0-16.411C267.376,166.695,260.358,166.695,252.989,166.695z
		 M274.668,165.412c0-5.925,0-11.227,0-16.294c-7.551,0-14.697,0-21.635,0c0,5.731,0,11.037,0,16.294
		C260.454,165.412,267.481,165.412,274.668,165.412z M274.645,110.853c0-5.329,0-10.75,0-16.425c-7.239,0-14.379,0-21.753,0
		c0,5.572,0,10.871,0,16.425C260.166,110.853,267.194,110.853,274.645,110.853z M252.817,128.577c7.658,0,14.793,0,21.916,0
		c0-5.667,0-10.962,0-16.22c-7.473,0-14.609,0-21.916,0C252.817,117.886,252.817,123.051,252.817,128.577z M290.983,186.269
		c0-36.819,0-73.221,0-109.624c-0.435-0.002-0.869-0.005-1.303-0.007c0,35.73,0,71.462,0,108.235c-23.4,0-46.074,0-68.749,0
		c0.013,0.466,0.024,0.931,0.037,1.396C244.254,186.269,267.54,186.269,290.983,186.269z M456.244,415.015
		c0.502,0.144,1.002,0.285,1.506,0.429c0.41-1.363,1.178-2.728,1.18-4.088c0.066-34.765,0.074-69.527-0.012-104.293
		c-0.004-1.724-0.951-3.441-1.459-5.164c-0.404,0.125-0.809,0.25-1.215,0.373C456.244,339.851,456.244,377.433,456.244,415.015z
		 M309.749,130.229c-5.846,0-11.507,0-17.027,0c0,6.073,0,11.731,0,17.145c5.943,0,11.488,0,17.027,0
		C309.749,141.374,309.749,135.816,309.749,130.229z M292.621,166.767c0,5.629,0,10.921,0,16.422c5.83,0,11.368,0,17.032,0
		c0-5.589,0-10.883,0-16.422C303.975,166.767,298.555,166.767,292.621,166.767z M292.642,148.898c0,5.756,0,11.054,0,16.415
		c5.847,0,11.38,0,16.974,0c0-5.632,0-10.925,0-16.415C303.883,148.898,298.463,148.898,292.642,148.898z M309.625,128.717
		c0-5.738,0-11.02,0-16.412c-5.836,0-11.36,0-17.014,0c0,5.609,0,10.903,0,16.412C298.304,128.717,303.714,128.717,309.625,128.717z
		 M309.713,94.573c-6.1,0-11.635,0-17.002,0c0,5.726,0,11.026,0,16.124c5.926,0,11.465,0,17.002,0
		C309.713,105.111,309.713,99.939,309.713,94.573z M292.654,76.517c0,5.802,0,11.1,0,16.417c5.866,0,11.401,0,16.97,0
		c0-5.654,0-10.947,0-16.417C303.885,76.517,298.461,76.517,292.654,76.517z M277.458,76.647c-0.356-0.002-0.714-0.005-1.07-0.008
		c0,35.509,0,71.017,0,106.527c0.356,0.002,0.714,0.004,1.07,0.005C277.458,147.664,277.458,112.156,277.458,76.647z
		 M514.882,10.916c0-0.379,0-0.759,0-1.139c-28.271,0-56.545,0-84.816,0c0,0.38,0,0.76,0,1.139
		C458.337,10.916,486.611,10.916,514.882,10.916z M172.85,410.173c0.416-0.168,0.832-0.334,1.248-0.5c0-19.785,0-39.57,0-59.352
		c-0.417-0.164-0.835-0.324-1.252-0.488c-0.508,1.168-1.45,2.332-1.456,3.502c-0.092,17.791-0.089,35.584,0.007,53.373
		C171.402,407.866,172.344,409.017,172.85,410.173z M311.141,130.071c0,6.029,0,11.798,0,17.478c2.94,0,5.461,0,8.066,0
		c0-6.034,0-11.799,0-17.478C316.268,130.071,313.747,130.071,311.141,130.071z M319.362,165.393c0-5.583,0-10.881,0-16.431
		c-2.887,0-5.518,0-8.395,0c0,5.576,0,10.878,0,16.431C313.739,165.393,316.258,165.393,319.362,165.393z M319.297,128.751
		c0-5.824,0-11.116,0-16.402c-2.961,0-5.588,0-8.238,0c0,5.653,0,10.939,0,16.402C313.915,128.751,316.434,128.751,319.297,128.751z
		 M319.295,110.926c0-5.806,0-11.104,0-16.431c-2.959,0-5.592,0-8.263,0c0,5.643,0,10.947,0,16.431
		C313.875,110.926,316.397,110.926,319.295,110.926z M319.295,93.089c0-5.772,0-11.057,0-16.396c-2.936,0-5.561,0-8.26,0
		c0,5.638,0,10.921,0,16.396C313.871,93.089,316.389,93.089,319.295,93.089z M403.937,419.341c0.896-0.008,1.783-1.184,2.676-1.815
		c-0.885-0.466-1.76-1.316-2.65-1.336c-6.117-0.117-12.238-0.062-18.357-0.076c-6.279,0-12.562-0.074-18.838,0.084
		c-0.906,0.024-1.787,1.188-2.68,1.824c0.881,0.467,1.76,1.338,2.645,1.344 M327.438,416.132c-6.119,0-12.24-0.065-18.358,0.064
		c-1.033,0.022-2.052,0.905-3.076,1.393c0.907,0.611,1.812,1.746,2.724,1.754c12.4,0.119,24.803,0.109,37.205,0.019
		c0.867-0.006,1.729-0.918,2.594-1.408c-0.908-0.611-1.807-1.728-2.727-1.748C339.679,416.046,333.559,416.122,327.438,416.132z
		 M248.038,416.126c-0.15,0.482-0.301,0.963-0.451,1.445c0.907,0.614,1.811,1.76,2.723,1.768
		c12.242,0.119,24.484,0.111,36.727,0.012c0.822-0.008,1.639-1.021,2.457-1.565c-0.813-0.553-1.619-1.572-2.441-1.586
		c-7.086-0.127-14.174-0.072-21.262-0.072C259.874,416.126,253.955,416.126,248.038,416.126z M501.796,417.788
		c-0.15-0.547-0.301-1.094-0.453-1.641c-13.162,0-26.328-0.023-39.494,0.067c-0.656,0.006-1.311,1.023-1.967,1.57
		c0.988,0.543,1.971,1.549,2.961,1.559c11.92,0.111,23.844,0.117,35.764,0.008C499.675,419.341,500.736,418.333,501.796,417.788z
		 M654.541,284.241c-0.416-0.183-0.83-0.361-1.244-0.541c-0.598,0.827-1.707,1.647-1.713,2.479
		c-0.109,13.258-0.102,26.519-0.016,39.775c0.004,0.717,0.939,1.422,1.443,2.135c0.508-0.881,1.439-1.754,1.457-2.645
		c0.125-6.801,0.07-13.607,0.072-20.41C654.541,298.104,654.541,291.173,654.541,284.241z M647.185,328.394
		c0.512-0.161,1.021-0.323,1.531-0.483c0-13.9,0.023-27.801-0.062-41.699c-0.004-0.713-0.939-1.42-1.441-2.133
		c-0.512,1.062-1.459,2.117-1.469,3.182c-0.104,12.553-0.105,25.107,0,37.66C645.751,326.081,646.681,327.237,647.185,328.394z
		 M10.211,342.034c0.504-0.16,1.008-0.318,1.513-0.48c0-13.905,0.022-27.812-0.064-41.719c-0.004-0.711-0.935-1.42-1.436-2.127
		c-0.507,0.877-1.451,1.75-1.458,2.631c-0.099,12.732-0.11,25.471-0.008,38.201C8.768,339.71,9.705,340.87,10.211,342.034z
		 M10.434,115.516c0.43-0.172,0.86-0.344,1.29-0.516c0-13.908,0.022-27.817-0.065-41.724c-0.005-0.699-0.958-1.39-1.47-2.084
		c-0.496,0.889-1.417,1.774-1.424,2.668C8.673,86.768,8.666,99.678,8.78,112.585C8.788,113.568,9.857,114.538,10.434,115.516z
		 M11.459,129.043c-0.419-0.164-0.84-0.328-1.259-0.492c-0.505,1.158-1.44,2.313-1.449,3.477c-0.106,12.565-0.106,25.132,0,37.697
		c0.009,1.163,0.944,2.317,1.449,3.476c0.419-0.166,0.84-0.33,1.259-0.494C11.459,158.154,11.459,143.599,11.459,129.043z
		 M11.447,240.202c-0.426-0.16-0.852-0.318-1.278-0.479c-0.49,1.161-1.398,2.319-1.409,3.485
		c-0.103,12.553-0.104,25.106,0.002,37.66c0.01,1.157,0.947,2.307,1.453,3.459c0.41-0.168,0.822-0.332,1.232-0.5
		C11.447,269.284,11.447,254.743,11.447,240.202z M176.759,295.85c-0.346,0-0.693-0.002-1.039-0.002c0,19.417,0,38.835,0,58.255
		c0.346,0.003,0.693,0.003,1.039,0.003C176.759,334.685,176.759,315.267,176.759,295.85z M113.514,235.136
		c0.004,0.371,0.01,0.74,0.015,1.111c15.033,0,30.066,0,45.099,0c-0.006-0.371-0.01-0.74-0.016-1.111
		C143.58,235.136,128.546,235.136,113.514,235.136z M210.553,226.177c0.351,0.003,0.703,0.005,1.053,0.007
		c0-15.588,0-31.176,0-46.763c-0.35-0.003-0.702-0.006-1.053-0.01C210.553,195.001,210.553,210.589,210.553,226.177z
		 M364.224,422.858c-0.002,0.379-0.004,0.758-0.006,1.137c14.086,0,28.172,0,42.26,0c-0.004-0.379-0.01-0.758-0.014-1.137
		C392.384,422.858,378.302,422.858,364.224,422.858z M348.378,424.12c0-0.377,0-0.754,0.002-1.131c-14.082,0-28.159,0-42.24,0
		c-0.003,0.377-0.007,0.754-0.011,1.131C320.211,424.12,334.294,424.12,348.378,424.12z M460.074,422.935
		c0.002,0.324,0.006,0.648,0.008,0.974c13.756,0,27.516,0,41.273,0c-0.012-0.324-0.02-0.648-0.031-0.974
		C487.574,422.935,473.824,422.935,460.074,422.935z M289.306,424.14c0.002-0.305,0.004-0.608,0.006-0.914
		c-13.751,0-27.501,0-41.252,0c-0.003,0.306-0.007,0.609-0.009,0.914C261.801,424.14,275.555,424.14,289.306,424.14z M4.306,341.536
		c0.349-0.008,0.698-0.017,1.046-0.021c0-14.534,0-29.071,0-43.604c-0.349,0-0.697,0.002-1.046,0.002
		C4.306,312.454,4.306,326.993,4.306,341.536z M4.293,283.846c0.321-0.007,0.644-0.013,0.965-0.017c0-14.537,0-29.072,0-43.606
		c-0.321,0.008-0.644,0.018-0.965,0.026C4.293,254.779,4.293,269.312,4.293,283.846z M4.367,172.698c0.349,0,0.699,0,1.048,0.001
		c0-14.549,0-29.097,0-43.646c-0.35,0-0.699,0-1.048,0C4.367,143.602,4.367,158.149,4.367,172.698z M4.378,115.002
		c0.345,0,0.689,0.001,1.034,0.001c0-14.538,0-29.076,0-43.614c-0.345-0.005-0.688-0.01-1.034-0.016
		C4.378,85.917,4.378,100.459,4.378,115.002z M419.363,315.196c2.555,0,4.543,0,6.354,0c0-2.57,0-4.726,0-6.699
		c-2.375,0-4.355,0-6.354,0C419.363,310.935,419.363,312.968,419.363,315.196z M419.482,299.87c0,2.698,0,4.858,0,6.99
		c2.33,0,4.318,0,6.281,0c0-2.519,0-4.675,0-6.99 M427.082,403.319c2.527,0,4.518,0,6.404,0c0-2.56,0-4.716,0-6.765
		c-2.352,0-4.344,0-6.404,0C427.082,398.964,427.082,400.999,427.082,403.319z M433.535,387.782c0-2.629,0-4.783,0-6.992
		c-2.289,0-4.277,0-6.334,0c0,2.492,0,4.652,0,6.992C429.382,387.782,431.259,387.782,433.535,387.782z M433.535,379.394
		c0-2.631,0-4.784,0-6.993c-2.289,0-4.277,0-6.334,0c0,2.493,0,4.651,0,6.993C429.382,379.394,431.259,379.394,433.535,379.394z
		 M433.652,356.712c-2.521,0-4.514,0-6.393,0c0,2.533,0,4.691,0,6.744c2.355,0,4.344,0,6.393,0
		C433.652,361.038,433.652,359.005,433.652,356.712z M427.064,355.101c2.498,0,4.486,0,6.443,0c0-2.522,0-4.676,0-6.811
		c-2.311,0-4.305,0-6.443,0C427.064,350.661,427.064,352.692,427.064,355.101z M427.162,332.478c0,2.41,0,4.568,0,6.822
		c2.322,0,4.426,0,6.27,0c0-2.586,0-4.746,0-6.822C431.167,332.478,429.292,332.478,427.162,332.478z M433.605,324.269
		c-2.021,0-4.119,0-6.449,0c0,2.285,0,4.439,0,6.8c2.25,0,4.242,0,6.449,0C433.605,328.772,433.605,326.739,433.605,324.269z
		 M433.632,308.392c-2.342,0-4.33,0-6.455,0c0,2.457,0,4.615,0,6.908c2.279,0,4.268,0,6.455,0
		C433.632,312.968,433.632,310.935,433.632,308.392z M433.46,306.991c0-2.767,0-4.916,0-6.884c-2.365,0-4.354,0-6.188,0
		c0,2.578,0,4.73,0,6.884C429.535,306.991,431.412,306.991,433.46,306.991z M433.603,284.411c-2.027,0-4.131,0-6.465,0
		c0,2.271,0,4.435,0,6.81c2.246,0,4.24,0,6.465,0C433.603,288.919,433.603,286.882,433.603,284.411z M425.681,331.097
		c0-2.194,0-4.467,0-6.983c-2.068,0-4.057,0-6.275,0c0,2.434,0,4.59,0,6.983C421.531,331.097,423.408,331.097,425.681,331.097z
		 M425.859,332.659c-2.02,0-4.117,0-6.449,0c0,2.285,0,4.438,0,6.797c2.252,0,4.244,0,6.449,0
		C425.859,337.163,425.859,335.13,425.859,332.659z M425.931,348.296c-2.488,0-4.48,0-6.441,0c0,2.506,0,4.662,0,6.799
		c2.33,0,4.32,0,6.441,0C425.931,352.702,425.931,350.669,425.931,348.296z M425.91,356.657c-2.418,0-4.41,0-6.443,0
		c0,2.481,0,4.637,0,6.854c2.309,0,4.295,0,6.443,0C425.91,361.147,425.91,359.112,425.91,356.657z M425.812,379.366
		c0-2.543,0-4.699,0-6.992c-2.264,0-4.25,0-6.381,0c0,2.463,0,4.621,0,6.992C421.589,379.366,423.466,379.366,425.812,379.366z
		 M425.888,380.765c-2.338,0-4.324,0-6.457,0c0,2.466,0,4.623,0,6.906c2.277,0,4.268,0,6.457,0
		C425.888,385.343,425.888,383.31,425.888,380.765z M425.863,403.45c0-2.662,0-4.693,0-6.84c-2.346,0-4.447,0-6.314,0
		c0,2.59,0,4.752,0,6.84C421.833,403.45,423.71,403.45,425.863,403.45z M418.14,300.111c-2.551,0-4.537,0-6.354,0
		c0,2.572,0,4.73,0,6.691c2.381,0,4.371,0,6.354,0C418.14,304.354,418.14,302.32,418.14,300.111z M411.593,315.28
		c2.422,0,4.406,0,6.455,0c0-2.492,0-4.646,0-6.869c-2.287,0-4.277,0-6.455,0C411.593,310.761,411.593,312.794,411.593,315.28z
		 M411.759,324.034c0,2.735,0,4.891,0,6.93c2.361,0,4.355,0,6.232,0c0-2.533,0-4.688,0-6.93
		C415.779,324.034,413.906,324.034,411.759,324.034z M411.822,332.476c0,2.201,0,4.479,0,6.982c2.086,0,4.08,0,6.27,0
		c0-2.42,0-4.574,0-6.982C415.984,332.476,414.107,332.476,411.822,332.476z M417.968,355.229c0-2.764,0-4.913,0-6.887
		c-2.361,0-4.354,0-6.178,0c0,2.558,0,4.715,0,6.887C414.046,355.229,415.923,355.229,417.968,355.229z M418.068,363.61
		c0-2.527,0-4.683,0-6.984c-2.26,0-4.252,0-6.373,0c0,2.449,0,4.602,0,6.984C413.849,363.61,415.722,363.61,418.068,363.61z
		 M366.117,363.534c2.332,0,4.318,0,6.447,0c0-2.467,0-4.621,0-6.914c-2.264,0-4.26,0-6.447,0
		C366.117,358.938,366.117,360.974,366.117,363.534z M372.625,348.235c-2.328,0-4.326,0-6.455,0c0,2.463,0,4.621,0,6.911
		c2.262,0,4.254,0,6.455,0C372.625,352.808,372.625,350.772,372.625,348.235z M372.441,306.987c0-2.195,0-4.482,0-7.027
		c-2.094,0-4.09,0-6.289,0c0,2.442,0,4.604,0,7.027C368.279,306.987,370.162,306.987,372.441,306.987z M449.111,300.111
		c-2.549,0-4.529,0-6.346,0c0,2.574,0,4.73,0,6.695c2.383,0,4.373,0,6.346,0C449.111,304.366,449.111,302.331,449.111,300.111z
		 M442.572,315.28c2.42,0,4.406,0,6.451,0c0-2.49,0-4.646,0-6.869c-2.283,0-4.271,0-6.451,0
		C442.572,310.763,442.572,312.796,442.572,315.28z M442.605,331.04c2.328,0,4.318,0,6.443,0c0-2.451,0-4.604,0-6.902
		c-2.258,0-4.244,0-6.443,0C442.605,326.474,442.605,328.503,442.605,331.04z M448.912,339.483c0-2.185,0-4.466,0-6.982
		c-2.066,0-4.053,0-6.273,0c0,2.434,0,4.59,0,6.982C444.757,339.483,446.634,339.483,448.912,339.483z M442.798,348.218
		c0,2.748,0,4.902,0,6.795c2.404,0,4.393,0,6.287,0c0-2.471,0-4.504,0-6.795C446.869,348.218,444.876,348.218,442.798,348.218z
		 M449.017,363.638c0-2.604,0-4.76,0-6.981c-2.289,0-4.277,0-6.32,0c0,2.475,0,4.629,0,6.981
		C444.876,363.638,446.75,363.638,449.017,363.638z M442.789,372.343c0,2.523,0,4.801,0,6.806c2.404,0,4.396,0,6.303,0
		c0-2.468,0-4.505,0-6.806C446.882,372.343,444.896,372.343,442.789,372.343z M449.138,380.847c-2.508,0-4.494,0-6.4,0
		c0,2.556,0,4.711,0,6.744c2.359,0,4.354,0,6.4,0C449.138,385.173,449.138,383.14,449.138,380.847z M442.777,396.435
		c0,2.168,0,4.457,0,6.992c2.111,0,4.104,0,6.291,0c0-2.434,0-4.592,0-6.992C446.941,396.435,445.058,396.435,442.777,396.435z
		 M380.285,403.509c0-2.623,0-4.781,0-7.004c-2.307,0-4.303,0-6.336,0c0,2.494,0,4.648,0,7.004
		C376.109,403.509,377.99,403.509,380.285,403.509z M441.373,300.111c-2.541,0-4.527,0-6.352,0c0,2.582,0,4.736,0,6.691
		c2.381,0,4.369,0,6.352,0C441.373,304.357,441.373,302.325,441.373,300.111z M441.402,308.415c-2.416,0-4.404,0-6.455,0
		c0,2.49,0,4.648,0,6.861c2.311,0,4.297,0,6.455,0C441.402,312.913,441.402,310.88,441.402,308.415z M434.917,324.062
		c0,2.536,0,4.69,0,6.983c2.27,0,4.264,0,6.387,0c0-2.445,0-4.602,0-6.983C439.167,324.062,437.292,324.062,434.917,324.062z
		 M435.021,332.452c0,2.772,0,4.926,0,6.875c2.375,0,4.369,0,6.18,0c0-2.562,0-4.717,0-6.875
		C438.957,332.452,437.082,332.452,435.021,332.452z M434.833,355.071c2.527,0,4.514,0,6.393,0c0-2.554,0-4.703,0-6.752
		c-2.34,0-4.332,0-6.393,0C434.833,350.718,434.833,352.751,434.833,355.071z M441.277,363.638c0-2.612,0-4.768,0-6.983
		c-2.283,0-4.275,0-6.326,0c0,2.479,0,4.631,0,6.983C437.128,363.638,439.003,363.638,441.277,363.638z M434.9,379.151
		c2.541,0,4.535,0,6.283,0c0-2.595,0-4.75,0-6.832c-2.277,0-4.154,0-6.283,0C434.9,374.72,434.9,376.88,434.9,379.151z
		 M435.015,380.683c0,2.769,0,4.929,0,6.884c2.391,0,4.379,0,6.189,0c0-2.57,0-4.728,0-6.884
		C438.955,380.683,437.08,380.683,435.015,380.683z M434.865,403.253c2.039,0,4.141,0,6.465,0c0-2.26,0-4.418,0-6.807
		c-2.246,0-4.238,0-6.465,0C434.865,398.733,434.865,400.771,434.865,403.253z M380.394,356.651c-2.402,0-4.4,0-6.447,0
		c0,2.487,0,4.647,0,6.864c2.281,0,4.275,0,6.447,0C380.394,361.153,380.394,359.116,380.394,356.651z M380.259,355.282
		c0-2.707,0-4.863,0-6.996c-2.326,0-4.322,0-6.295,0c0,2.512,0,4.674,0,6.996C376.156,355.282,378.035,355.282,380.259,355.282z
		 M374.05,299.939c0,2.209,0,4.49,0,7.021c2.088,0,4.084,0,6.289,0c0-2.434,0-4.598,0-7.021
		C378.21,299.939,376.33,299.939,374.05,299.939z M396.152,306.771c2.029,0,4.133,0,6.455,0c0-2.256,0-4.41,0-6.804
		c-2.234,0-4.225,0-6.455,0C396.152,302.261,396.152,304.294,396.152,306.771z M410.373,396.612c-2.346,0-4.449,0-6.312,0
		c0,2.592,0,4.754,0,6.647c2.412,0,4.396,0,6.312,0C410.373,400.788,410.373,398.753,410.373,396.612z M396.152,315.159
		c2.029,0,4.133,0,6.455,0c0-2.254,0-4.41,0-6.801c-2.234,0-4.225,0-6.455,0C396.152,310.651,396.152,312.685,396.152,315.159z
		 M396.101,330.966c2.527,0,4.521,0,6.404,0c0-2.533,0-4.688,0-6.746c-2.338,0-4.322,0-6.404,0
		C396.101,326.64,396.101,328.671,396.101,330.966z M410.367,356.767c-2.008,0-4.117,0-6.441,0c0,2.25,0,4.404,0,6.8
		c2.248,0,4.236,0,6.441,0C410.367,361.265,410.367,359.229,410.367,356.767z M402.626,332.659c-2.021,0-4.119,0-6.449,0
		c0,2.285,0,4.438,0,6.797c2.25,0,4.242,0,6.449,0C402.626,337.163,402.626,335.13,402.626,332.659z M404.027,348.138
		c0,2.722,0,4.877,0,6.931c2.363,0,4.354,0,6.215,0c0-2.55,0-4.701,0-6.931C408.017,348.138,406.14,348.138,404.027,348.138z
		 M403.845,339.354c2.527,0,4.521,0,6.404,0c0-2.53,0-4.688,0-6.743c-2.338,0-4.32,0-6.404,0
		C403.845,335.03,403.845,337.06,403.845,339.354z M410.371,324.269c-2.02,0-4.117,0-6.449,0c0,2.285,0,4.439,0,6.8
		c2.25,0,4.244,0,6.449,0C410.371,328.772,410.371,326.739,410.371,324.269z M403.943,308.315c0,2.526,0,4.688,0,6.987
		c2.277,0,4.266,0,6.385,0c0-2.459,0-4.612,0-6.987C408.183,308.315,406.302,308.315,403.943,308.315z M402.673,348.321
		c-2.521,0-4.514,0-6.393,0c0,2.535,0,4.69,0,6.746c2.354,0,4.344,0,6.393,0C402.673,352.647,402.673,350.612,402.673,348.321z
		 M403.826,306.862c2.492,0,4.479,0,6.453,0c0-2.521,0-4.677,0-6.812c-2.314,0-4.305,0-6.453,0
		C403.826,302.434,403.826,304.464,403.826,306.862z M402.503,363.646c0-2.728,0-4.882,0-6.939c-2.336,0-4.328,0-6.227,0
		c0,2.537,0,4.691,0,6.939C398.507,363.646,400.382,363.646,402.503,363.646z M402.533,403.53c0-2.703,0-4.859,0-7.004
		c-2.328,0-4.32,0-6.291,0c0,2.508,0,4.67,0,7.004C398.451,403.53,400.33,403.53,402.533,403.53z M394.781,339.558
		c0-2.688,0-4.846,0-6.973c-2.312,0-4.301,0-6.275,0c0,2.525,0,4.682,0,6.973C390.712,339.558,392.591,339.558,394.781,339.558z
		 M411.783,372.294c0,2.769,0,4.926,0,6.881c2.381,0,4.375,0,6.189,0c0-2.567,0-4.725,0-6.881
		C415.72,372.294,413.847,372.294,411.783,372.294z M418.189,380.817c-2.494,0-4.479,0-6.453,0c0,2.524,0,4.684,0,6.801
		c2.332,0,4.32,0,6.453,0C418.189,385.229,418.189,383.196,418.189,380.817z M418.169,396.501c-2.424,0-4.416,0-6.463,0
		c0,2.482,0,4.646,0,6.871c2.305,0,4.297,0,6.463,0C418.169,401.009,418.169,398.972,418.169,396.501z M388.552,324.062
		c0,2.774,0,4.928,0,6.875c2.385,0,4.377,0,6.182,0c0-2.562,0-4.718,0-6.875C392.49,324.062,390.615,324.062,388.552,324.062z
		 M388.367,355.071c2.52,0,4.51,0,6.393,0c0-2.545,0-4.697,0-6.754c-2.338,0-4.33,0-6.393,0
		C388.367,350.72,388.367,352.753,388.367,355.071z M388.578,308.362c0,2.521,0,4.797,0,6.801c2.414,0,4.396,0,6.305,0
		c0-2.473,0-4.504,0-6.801C392.666,308.362,390.677,308.362,388.578,308.362z M394.91,300.001c-2.342,0-4.33,0-6.453,0
		c0,2.463,0,4.621,0,6.912c2.277,0,4.268,0,6.453,0C394.91,304.579,394.91,302.546,394.91,300.001z M373.947,284.171
		c0,2.619,0,4.774,0,7.011c2.309,0,4.301,0,6.338,0c0-2.494,0-4.656,0-7.011C378.111,284.171,376.234,284.171,373.947,284.171z
		 M388.367,363.46c2.52,0,4.51,0,6.393,0c0-2.543,0-4.695,0-6.752c-2.338,0-4.33,0-6.393,0
		C388.367,359.11,388.367,361.142,388.367,363.46z M388.375,403.401c2.352,0,4.344,0,6.465,0c0-2.461,0-4.619,0-6.931
		c-2.271,0-4.264,0-6.465,0C388.375,398.788,388.375,400.823,388.375,403.401z M649.484,9.706c-3.912-0.106-3.898-0.106-3.811,7.743
		c0.031,2.596-0.395,5.592,3.811,3.971C649.484,17.658,649.484,13.89,649.484,9.706z M441.3,291.312
		c0.496-7.465-0.182-8.107-6.318-6.633c0,2.182,0,4.34,0,6.633C437.21,291.312,439.087,291.312,441.3,291.312z M372.658,284.232
		c-6.375-0.379-7.029,0.382-6.309,6.857c2.1,0,4.193,0,6.309,0C372.658,288.654,372.658,286.636,372.658,284.232z M347.634,421.253
		c-0.064-0.203-0.127-0.406-0.191-0.609c-13.514,0-27.026,0-40.54,0c0.001,0.203,0.003,0.406,0.004,0.609
		C320.483,421.253,334.06,421.253,347.634,421.253z M405.724,421.257c-0.066-0.203-0.137-0.404-0.203-0.604
		c-13.52,0-27.039,0-40.555,0c0.002,0.2,0.002,0.401,0.004,0.604C378.554,421.257,392.14,421.257,405.724,421.257z M288.619,421.22
		c-0.001-0.182-0.002-0.364-0.003-0.547c-13.254,0-26.506,0-39.758,0c0,0.183,0.002,0.365,0.002,0.547
		C262.112,421.22,275.366,421.22,288.619,421.22z M442.535,410.688c2.492,0,4.49,0,6.455,0c0-2.162,0-3.974,0-5.769
		c-2.324,0-4.32,0-6.455,0C442.535,406.956,442.535,408.649,442.535,410.688z M380.173,410.792c0-1.822,0-3.754,0-5.955
		c-2.072,0-4.064,0-6.283,0c0,2.08,0,3.889,0,5.955C376.005,410.792,377.886,410.792,380.173,410.792z M388.376,346.745
		c2.406,0,4.395,0,6.438,0c0-2.125,0-3.93,0-5.812c-2.273,0-4.262,0-6.438,0C388.376,342.933,388.376,344.612,388.376,346.745z
		 M449.169,389.202c-2.488,0-4.479,0-6.451,0c0,2.168,0,3.975,0,5.758c2.332,0,4.324,0,6.451,0
		C449.169,392.919,449.169,391.228,449.169,389.202z M649.72,326.901c0.189,0.065,0.379,0.135,0.568,0.198
		c0-13.934,0-27.869,0-41.805c-0.189,0-0.379,0.002-0.568,0.004C649.72,299.167,649.72,313.036,649.72,326.901z M374.042,292.602
		c0,2.422,0,4.229,0,5.813c2.4,0,4.391,0,6.607,0c-0.123-2.263-0.223-4.078-0.318-5.813
		C377.919,292.602,376.039,292.602,374.042,292.602z M7.703,298.927c-0.188-0.071-0.375-0.146-0.563-0.219
		c0,13.936,0,27.875,0,41.812c0.188-0.002,0.375-0.004,0.563-0.006C7.703,326.653,7.703,312.79,7.703,298.927z M442.57,370.874
		c2.412,0,4.406,0,6.445,0c0-2.133,0-3.943,0-5.83c-2.283,0-4.279,0-6.445,0C442.57,367.046,442.57,368.737,442.57,370.874z
		 M394.902,404.86c-2.328,0-4.326,0-6.465,0c0,2.104,0,3.922,0,5.881c2.266,0,4.264,0,6.465,0
		C394.902,408.763,394.902,407.069,394.902,404.86z M449.171,340.968c-2.488,0-4.477,0-6.439,0c0,2.16,0,3.963,0,5.744
		c2.332,0,4.32,0,6.439,0C449.171,344.673,449.171,342.989,449.171,340.968z M7.006,282.986c0.19-0.047,0.379-0.09,0.568-0.131
		c0-13.969,0-27.938,0-41.905c-0.189,0.002-0.378,0.004-0.568,0.004C7.006,254.966,7.006,268.977,7.006,282.986z M381.751,299.915
		c0,2.789,0,4.946,0,7.344c2.074-0.123,3.756-0.219,5.23-0.307c0-2.748,0-4.902,0-7.037
		C385.042,299.915,383.48,299.915,381.751,299.915z M449.093,316.903c-2.023,0-4.137,0-6.447,0c0,1.95,0,3.766,0,5.766
		c2.25,0,4.244,0,6.447,0C449.093,320.712,449.093,319.019,449.093,316.903z M381.554,355.118c2.121,0,3.797,0,5.498,0
		c0-2.508,0-4.666,0-6.846c-1.986,0-3.664,0-5.498,0C381.554,350.647,381.554,352.688,381.554,355.118z M7.002,171.838
		c0.188-0.057,0.377-0.113,0.566-0.17c0-13.942,0-27.883,0-41.825c-0.189,0.001-0.378,0.004-0.566,0.005
		C7.002,143.845,7.002,157.841,7.002,171.838z M387.128,363.583c0-2.662,0-4.697,0-6.812c-2.023,0-3.811,0-5.508,0
		c0,2.477,0,4.516,0,6.812C383.517,363.583,385.193,363.583,387.128,363.583z M7.633,72.176c-0.188,0.068-0.376,0.136-0.563,0.205
		c0,13.941,0,27.881,0,41.82c0.187-0.001,0.375-0.003,0.563-0.004C7.633,100.19,7.633,86.184,7.633,72.176z M366.083,298.518
		c2.418,0,4.408,0,6.461,0c0-2.136,0-3.943,0-5.834c-2.297,0-4.291,0-6.461,0C366.083,294.704,366.083,296.393,366.083,298.518z
		 M366.111,346.647c2.043,0,4.152,0,6.467,0c0-1.957,0-3.765,0-5.771c-2.264,0-4.254,0-6.467,0
		C366.111,342.849,366.111,344.538,366.111,346.647z M387.175,396.491c-2.049,0-3.719,0-5.506,0c0,2.475,0,4.635,0,6.895
		c1.967,0,3.639,0,5.506,0C387.175,401.046,387.175,399.011,387.175,396.491z M366.267,404.782c0,2.397,0,4.207,0,5.873
		c2.377,0,4.367,0,6.639,0c-0.123-2.23-0.225-4.047-0.324-5.873C370.228,404.782,368.349,404.782,366.267,404.782z M411.609,410.749
		c2.324,0,4.322,0,6.469,0c0-2.107,0-3.918,0-5.889c-2.273,0-4.271,0-6.469,0C411.609,406.841,411.609,408.536,411.609,410.749z
		 M427.085,298.448c2.525,0,4.516,0,6.766,0c-0.09-2.207-0.162-4.019-0.232-5.707c-2.469,0-4.459,0-6.533,0
		C427.085,294.805,427.085,296.489,427.085,298.448z M411.632,298.395c2.061,0,4.158,0,6.453,0c0-1.933,0-3.736,0-5.758
		c-2.246,0-4.236,0-6.453,0C411.632,294.593,411.632,296.275,411.632,298.395z M402.904,322.71c-0.119-2.422-0.207-4.24-0.295-5.99
		c-2.418,0-4.297,0-6.293,0c0,2.181,0,4.115,0,5.99C398.587,322.71,400.47,322.71,402.904,322.71z M433.626,316.776
		c-2.328,0-4.32,0-6.455,0c0,2.112,0,3.924,0,5.881c2.27,0,4.268,0,6.455,0C433.626,320.683,433.626,318.989,433.626,316.776z
		 M419.378,298.396c2.061,0,4.158,0,6.457,0c0-1.937,0-3.746,0-5.748c-2.244,0-4.236,0-6.457,0
		C419.378,294.591,419.378,296.277,419.378,298.396z M410.183,346.804c0-1.821,0-3.737,0-5.928c-2.045,0-4.031,0-6.26,0
		c0,2.064,0,3.867,0,5.928C406.037,346.804,407.91,346.804,410.183,346.804z M425.882,316.776c-2.326,0-4.32,0-6.455,0
		c0,2.112,0,3.924,0,5.881c2.27,0,4.268,0,6.455,0C425.882,320.688,425.882,318.991,425.882,316.776z M419.455,340.827
		c0,2.205,0,4.006,0,5.93c2.283,0,4.27,0,6.348,0c0-2.119,0-3.922,0-5.93C423.662,340.827,421.789,340.827,419.455,340.827z
		 M410.386,316.894c-2.545,0-4.537,0-6.744,0c0.102,2.244,0.182,4.062,0.25,5.65c2.539,0,4.541,0,6.494,0
		C410.386,320.448,410.386,318.757,410.386,316.894z M425.908,365.103c-2.523,0-4.521,0-6.758,0c0.088,2.212,0.162,4.029,0.23,5.71
		c2.484,0,4.48,0,6.525,0C425.908,368.735,425.908,367.044,425.908,365.103z M403.91,298.57c2.455,0,4.332,0,6.445,0
		c0-2.059,0-3.866,0-5.948c-2.211,0-4.201,0-6.445,0C403.91,294.669,403.91,296.479,403.91,298.57z M425.917,389.175
		c-2.414,0-4.404,0-6.459,0c0,2.137,0,3.945,0,5.816c2.307,0,4.299,0,6.459,0C425.917,392.981,425.917,391.294,425.917,389.175z
		 M396.076,298.477c2.5,0,4.492,0,6.457,0c0-2.162,0-3.972,0-5.769c-2.324,0-4.314,0-6.457,0
		C396.076,294.739,396.076,296.427,396.076,298.477z M433.65,340.997c-2.516,0-4.5,0-6.756,0c0.092,2.203,0.166,4.01,0.236,5.686
		c2.506,0,4.49,0,6.52,0C433.65,344.616,433.65,342.931,433.65,340.997z M410.191,410.784c0-1.83,0-3.758,0-5.953
		c-2.07,0-4.068,0-6.289,0c0,2.066,0,3.881,0,5.953C406.015,410.784,407.898,410.784,410.191,410.784z M433.677,365.073
		c-2.49,0-4.486,0-6.447,0c0,2.164,0,3.979,0,5.768c2.324,0,4.318,0,6.447,0C433.677,368.796,433.677,367.103,433.677,365.073z
		 M419.367,410.622c2.041,0,4.154,0,6.469,0c0-1.949,0-3.76,0-5.775c-2.256,0-4.256,0-6.469,0
		C419.367,406.808,419.367,408.503,419.367,410.622z M410.388,365.017c-2.322,0-4.32,0-6.453,0c0,2.105,0,3.921,0,5.875
		c2.268,0,4.266,0,6.453,0C410.388,368.913,410.388,367.218,410.388,365.017z M418.125,370.95c0-2.293,0-3.984,0-5.81
		c-2.324,0-4.438,0-6.75,0c0.109,2.25,0.199,4.072,0.281,5.81C414.074,370.95,415.955,370.95,418.125,370.95z M427.072,410.722
		c2.406,0,4.404,0,6.469,0c0-2.139,0-3.948,0-5.83c-2.303,0-4.301,0-6.469,0C427.072,406.899,427.072,408.595,427.072,410.722z
		 M417.927,346.804c0-1.821,0-3.737,0-5.928c-2.043,0-4.029,0-6.26,0c0,2.064,0,3.867,0,5.928
		C413.783,346.804,415.654,346.804,417.927,346.804z M441.167,298.568c0-1.827,0-3.752,0-5.942c-2.049,0-4.039,0-6.277,0
		c0,2.072,0,3.879,0,5.942C437.003,298.568,438.88,298.568,441.167,298.568z M394.82,322.743c0-2.215,0-4.027,0-5.953
		c-2.271,0-4.264,0-6.357,0c0,2.131,0,3.945,0,5.953C390.621,322.743,392.501,322.743,394.82,322.743z M441.162,322.7
		c0-1.836,0-3.76,0-5.955c-2.057,0-4.049,0-6.273,0c0,2.076,0,3.891,0,5.955C437,322.7,438.88,322.7,441.162,322.7z
		 M441.357,341.032c-2.035,0-4.137,0-6.439,0c0,1.946,0,3.748,0,5.75c2.258,0,4.246,0,6.439,0
		C441.357,344.829,441.357,343.142,441.357,341.032z M388.388,298.534c2.334,0,4.322,0,6.455,0c0-2.101,0-3.908,0-5.877
		c-2.256,0-4.246,0-6.455,0C388.388,294.628,388.388,296.312,388.388,298.534z M433.525,395.132c0-2.312,0-4.113,0-5.945
		c-2.303,0-4.291,0-6.311,0c0,2.158,0,3.968,0,5.945C429.414,395.132,431.291,395.132,433.525,395.132z M441.369,365.13
		c-2.549,0-4.547,0-6.75,0c0.102,2.236,0.186,4.062,0.26,5.652c2.527,0,4.527,0,6.49,0
		C441.369,368.677,441.369,366.985,441.369,365.13z M396.091,410.655c2.521,0,4.521,0,6.797,0c-0.1-2.213-0.182-4.025-0.258-5.705
		c-2.492,0-4.486,0-6.539,0C396.091,407.017,396.091,408.71,396.091,410.655z M441.169,395.054c0-1.807,0-3.735,0-5.94
		c-2.059,0-4.047,0-6.279,0c0,2.069,0,3.879,0,5.94C437.011,395.054,438.886,395.054,441.169,395.054z M411.636,322.526
		c2.033,0,4.15,0,6.447,0c0-1.935,0-3.748,0-5.771c-2.238,0-4.232,0-6.447,0C411.636,318.722,411.636,320.415,411.636,322.526z
		 M418.371,395.128c-0.096-2.371-0.17-4.18-0.242-5.912c-2.457,0-4.441,0-6.377,0c0,2.189,0,3.996,0,5.912
		C413.98,395.128,415.857,395.128,418.371,395.128z M380.353,341.024c-2.041,0-4.148,0-6.465,0c0,1.938,0,3.752,0,5.76
		c2.248,0,4.242,0,6.465,0C380.353,344.825,380.353,343.134,380.353,341.024z M402.634,341.032c-2.035,0-4.137,0-6.439,0
		c0,1.949,0,3.75,0,5.75c2.256,0,4.246,0,6.439,0C402.634,344.821,402.634,343.138,402.634,341.032z M441.425,404.917
		c-2.504,0-4.5,0-6.465,0c0,2.166,0,3.984,0,5.771c2.32,0,4.316,0,6.465,0C441.425,408.649,441.425,406.956,441.425,404.917z
		 M442.591,298.598c2.438,0,4.322,0,6.174,0c0.859-6.382,0.025-7.084-6.174-5.451C442.591,294.837,442.591,296.527,442.591,298.598z
		 M381.722,404.753c0,2.371,0,4.187,0,5.924c2.025,0,3.697,0,5.311,0c0-2.188,0-4,0-5.924
		C385.134,404.753,383.576,404.753,381.722,404.753z M387.4,298.624c-0.104-2.42-0.18-4.231-0.25-5.873c-2.215,0-3.891,0-5.785,0
		c0.096,2.229,0.17,4.054,0.248,5.873C383.683,298.624,385.246,298.624,387.4,298.624z M387.128,341.038c-1.709,0-3.498,0-5.496,0
		c0,1.91,0,3.729,0,5.758c1.92,0,3.598,0,5.496,0C387.128,344.837,387.128,343.147,387.128,341.038z M450.207,306.771
		c1.629,0,3.188,0,4.676,0c0-2.486,0-4.521,0-6.609c-1.705,0-3.154,0-4.676,0C450.207,302.507,450.207,304.411,450.207,306.771z
		 M450.498,308.376c0,2.732,0,4.898,0,7.381c1.75-0.229,3.102-0.406,4.408-0.578c0-2.459,0-4.489,0-6.803
		C453.353,308.376,452.005,308.376,450.498,308.376z M454.933,323.892c-1.754,0.086-3.096,0.152-4.512,0.222
		c0,2.541,0,4.699,0,6.905c1.639,0,2.986,0,4.512,0C454.933,328.681,454.933,326.653,454.933,323.892z M454.828,339.54
		c0-2.615,0-4.775,0-7.258c-1.652,0.084-2.994,0.151-4.402,0.223c0,2.543,0,4.701,0,7.035
		C451.953,339.54,453.191,339.54,454.828,339.54z M450.216,354.983c1.631,0,3.182,0,4.666,0c0-2.478,0-4.505,0-6.593
		c-1.709,0-3.156,0-4.666,0C450.216,350.724,450.216,352.626,450.216,354.983z M450.378,356.595c0,2.668,0,4.697,0,7.195
		c1.719-0.098,3.164-0.176,4.5-0.252c0-2.652,0-4.682,0-6.943C453.292,356.595,451.947,356.595,450.378,356.595z M454.847,379.3
		c0-2.451,0-4.617,0-6.953c-1.609,0-2.955,0-4.455,0c0,2.451,0,4.619,0,6.953C452.003,379.3,453.353,379.3,454.847,379.3z
		 M454.792,387.817c0-2.72,0-4.882,0-7.357c-1.684,0.115-3.033,0.209-4.344,0.297c0,2.568,0,4.736,0,7.062
		C452.007,387.817,453.248,387.817,454.792,387.817z M450.316,403.808c1.889-0.2,3.234-0.346,4.465-0.477c0-2.574,0-4.738,0-7.201
		c-1.723,0.162-3.072,0.289-4.465,0.422C450.316,398.991,450.316,401.024,450.316,403.808z M450.349,322.546
		c5.68,1.521,4.988-2.027,4.492-5.787c-1.582,0-2.934,0-4.492,0C450.349,318.726,450.349,320.417,450.349,322.546z M450.328,347.003
		c1.748-0.084,3.088-0.147,4.5-0.215c0-2.17,0-3.976,0-5.855c-1.633,0-2.977,0-4.5,0
		C450.328,342.927,450.328,344.603,450.328,347.003z M454.919,370.978c0-2.284,0-3.975,0-5.848c-1.668,0-3.127,0-4.807,0
		c0.09,2.23,0.162,4.055,0.234,5.848C452.101,370.978,453.343,370.978,454.919,370.978z M454.957,388.843
		c-1.852,0.123-3.201,0.213-4.508,0.299c0,2.216,0,4.033,0,6.188c1.689-0.133,3.041-0.236,4.508-0.353
		C454.957,392.929,454.957,391.239,454.957,388.843z M450.406,404.792c0,2.195,0,4.01,0,5.945c1.627,0,2.979,0,4.439,0
		c0-2.105,0-3.925,0-5.945C453.345,404.792,452.103,404.792,450.406,404.792z M365.957,402.862
		c-1.059-2.451-1.957-4.527-2.855-6.607c-0.646,1.086-1.688,2.104-1.857,3.271C360.873,402.034,361,404.573,365.957,402.862z
		 M364.917,356.646c-4.633-1.033-3.996,2.301-3.623,4.622c0.176,1.099,1.877,1.908,3.623,3.533
		C364.917,360.978,364.917,358.956,364.917,356.646z M364.933,348.315c-4.418-1.197-4.033,1.981-3.654,4.358
		c0.184,1.162,1.725,2.072,2.65,3.096c0.334-0.344,0.67-0.688,1.004-1.034C364.933,352.72,364.933,350.704,364.933,348.315z
		 M364.902,299.557c-1.367,0.411-3.293,0.586-3.367,1.09c-0.293,1.938-0.16,4.021,0.225,5.952c0.074,0.369,2.025,0.295,3.143,0.429
		C364.902,304.312,364.902,302.296,364.902,299.557z"/>
	<path fill="#333333" d="M429.205,16.76c3.676,7.958-0.717,16.213,1.016,25.127c1.432,0,3.113,0,4.797,0
		c15.312,0.002,30.623-0.079,45.932,0.103c2.168,0.025,4.434,1.07,6.461,2.091c4.574,2.299,9.031,4.865,13.521,7.353
		c1.824,1.012,3.535,2.317,5.436,3.114c3.135,1.318,6.689,1.987,5.93,7.14c-0.041,0.285,1.525,0.848,2.562,1.398
		c0-15.872,0-31.036,0-46.2c0.369,0.006,0.74,0.012,1.109,0.019c0,11.943,0,23.887,0,35.83c-0.002,24.617,0.043,49.235-0.105,73.85
		c-0.014,1.847-1.439,3.684-2.428,6.047c0.354,0.344,1.684,1.64,3.014,2.936c-0.24,0.427-0.48,0.854-0.723,1.281
		c-28.768,0-57.535,0-86.303,0c-0.062-4.026-0.062-4.026,11.807-5.069c0-4.224,0-8.487,0-13.127c-3.553,0-7.158,0-11.264,0
		c0,3.231,0,6.466,0,9.7c-0.254-0.008-0.508-0.016-0.762-0.024C429.205,91.138,429.205,53.949,429.205,16.76z M447.453,99.302
		c2.049,0,3.76,0,5.453,0c0.203-1.748,0.377-3.229,0.553-4.708c0.229,0.01,0.461,0.021,0.688,0.029c0,3.599,0,7.197,0,10.916
		c5.662,0,10.883,0,16.166,0c0-6.027,0-11.707,0-17.641c-1.709,0.093-3.1,0.169-4.461,0.244c-0.174,1.812-0.314,3.287-0.457,4.761
		c-0.145-0.002-0.291-0.004-0.436-0.006c-0.115-1.529-0.23-3.057-0.377-5.005c-3.449,0-6.781,0-10.115,0
		c-0.002-0.307-0.002-0.615-0.004-0.923c3.289,0,6.578,0,10.092,0c0-1.951,0-3.413,0-5.08c-5.779,0-11.33,0-17.104,0
		C447.453,87.718,447.453,93.248,447.453,99.302z M458.767,45.167c-5.455,0-10.686,0-16.094,0c0,5.981,0,11.643,0,17.749
		c3.566,0,6.836,0,10.105,0c0,0.31,0.002,0.619,0.002,0.928c-3.316,0-6.633,0-10.094,0c0,1.943,0,3.399,0,4.984
		c5.51,0,10.73,0,16.027,0c0-6.021,0-11.692,0-17.396c-1.619-0.193-2.959-0.354-4.299-0.513c0-0.152,0-0.305,0-0.456
		c1.396-0.13,2.793-0.261,4.352-0.404C458.767,48.362,458.767,46.871,458.767,45.167z M482.341,70.674
		c0.178-0.038,0.355-0.077,0.531-0.114c0.143,1.518,0.283,3.035,0.428,4.578c5.457,0,10.703,0,16.064,0c0-5.992,0-11.66,0-17.665
		c-1.684,0.12-3.037,0.216-4.809,0.342c0,3.791,0,7.24,0,10.69c-0.713-2.457-0.361-4.967-0.844-7.274
		c-0.297-1.414-1.797-3.481-2.891-3.583c-4.41-0.409-8.875-0.17-13.264-0.17c0,6.424,0,12.102,0,18.021
		c1.732-0.143,3.109-0.255,4.504-0.369C482.171,73.401,482.255,72.038,482.341,70.674z M505.099,99.323c0-1.622,0-3.229,0-4.762
		c-5.566,0-10.787,0-15.861,0c0,5.747,0,11.066,0,16.65c3.58,0,6.771,0,9.965,0c0.002,0.256,0.004,0.514,0.006,0.771
		c-3.271,0-6.539,0-9.939,0c0,2.055,0,3.623,0,5.143c5.52,0,10.617,0,15.949,0c0-5.616,0-10.955,0-16.419
		c-1.562-0.158-2.975-0.3-4.387-0.443c-0.006-0.145-0.012-0.291-0.018-0.436C502.199,99.664,503.583,99.501,505.099,99.323z
		 M430.078,134.542c0,0.381,0.002,0.762,0.002,1.145c28.262,0,56.523,0,84.787,0c0-0.382,0-0.764,0.002-1.145
		C486.605,134.542,458.343,134.542,430.078,134.542z M476.197,124.845c-5.51,0-10.729,0-16.119,0c0,2.435,0,4.59,0,6.954
		c5.471,0,10.686,0,16.119,0C476.197,129.469,476.197,127.424,476.197,124.845z M435.853,81.826c0,5.893,0,11.545,0,17.472
		c1.863,0,3.533,0,5.324,0c0-5.985,0-11.756,0-17.472C439.22,81.826,437.666,81.826,435.853,81.826z M435.843,45.139
		c0,5.917,0,11.573,0,17.471c1.912,0,3.586,0,5.49,0c0-5.912,0-11.562,0-17.471C439.417,45.139,437.748,45.139,435.843,45.139z
		 M447.423,75.08c6.1,0,11.646,0,17.463,0c-0.174-1.871-0.312-3.335-0.438-4.687c-5.945,0-11.494,0-17.023,0
		C447.423,72.128,447.423,73.482,447.423,75.08z M454.191,117.034c5.785,0,11,0,16.479,0c-0.154-1.861-0.275-3.319-0.391-4.678
		c-5.613,0-10.83,0-16.088,0C454.191,114.083,454.191,115.43,454.191,117.034z M459.988,123.329c5.764,0,10.98,0,16.465,0
		c-0.148-1.858-0.268-3.317-0.375-4.686c-5.607,0-10.824,0-16.09,0C459.988,120.355,459.988,121.707,459.988,123.329z
		 M460.025,51.468c0,6.098,0,11.61,0,17.254c1.672,0,3.111,0,4.564,0c0-5.939,0-11.453,0-17.254
		C463.033,51.468,461.691,51.468,460.025,51.468z M465.832,51.475c0,6.079,0,11.594,0,17.236c1.666,0,3.109,0,4.557,0
		c0-5.935,0-11.446,0-17.236C468.816,51.475,467.468,51.475,465.832,51.475z M476.316,88.37c-1.562,0-3.109,0-4.682,0
		c0,5.863,0,11.392,0,17.056c1.67,0,3.115,0,4.682,0C476.316,99.634,476.316,94.245,476.316,88.37z M471.615,69.226
		c1.855-0.182,3.203-0.314,4.477-0.439c0-6.06,0-11.714,0-17.683c-1.705,0.17-3.055,0.307-4.477,0.451
		C471.615,57.453,471.615,62.967,471.615,69.226z M499.378,88.254c-5.738,0-10.959,0-16.467,0c0.207,1.9,0.365,3.361,0.521,4.808
		c5.488,0,10.588,0,15.945,0C499.378,91.351,499.378,89.89,499.378,88.254z M499.396,81.846c-5.455,0-10.678,0-16.088,0
		c0,1.72,0,3.175,0,4.878c5.467,0,10.688,0,16.088,0C499.396,84.989,499.396,83.531,499.396,81.846z M494.621,118.463
		c0.139,1.98,0.238,3.439,0.34,4.893c5.594,0,10.818,0,16.324,0c-0.121-1.819-0.217-3.282-0.326-4.893
		C505.511,118.463,500.417,118.463,494.621,118.463z M511.011,124.845c-5.408,0-10.637,0-16.289,0
		c0.076,1.825,0.141,3.396,0.201,4.897c5.664,0,10.766,0,16.088,0C511.011,128.035,511.011,126.574,511.011,124.845z
		 M506.515,64.033c0,5.553,0,10.858,0,16.381c1.604,0,2.945,0,4.506,0c0-5.568,0-10.872,0-16.381
		C509.419,64.033,508.072,64.033,506.515,64.033z M510.964,117.23c0-5.845,0-11.153,0-16.771c-1.674,0.116-3.023,0.209-4.379,0.304
		c0,5.706,0,11.013,0,16.467C508.136,117.23,509.384,117.23,510.964,117.23z M477.578,94.376c0,5.927,0,11.246,0,16.833
		c1.732-0.199,3.09-0.354,4.305-0.493c0-5.746,0-11.062,0-16.34C480.265,94.376,479.017,94.376,477.578,94.376z M500.71,64.043
		c0,5.495,0,10.807,0,16.194c1.678,0,3.125,0,4.533,0c0-5.61,0-10.785,0-16.194C503.652,64.043,502.302,64.043,500.71,64.043z
		 M487.699,110.921c0-5.915,0-11.232,0-16.823c-1.717,0.17-3.068,0.305-4.32,0.43c0,5.753,0,11.072,0,16.393
		C484.98,110.921,486.228,110.921,487.699,110.921z M447.56,118.475c0,4.826,0,9.074,0,13.22c2.008,0,3.67,0,5.295,0
		c0-4.642,0-8.89,0-13.22C450.957,118.475,449.392,118.475,447.56,118.475z M434.615,80.543c-1.844,1.371-3.594,2.012-3.672,2.84
		c-0.502,5.251-0.635,10.543-0.904,16.183c1.762-0.128,3.104-0.226,4.576-0.333C434.615,93.299,434.615,87.762,434.615,80.543z
		 M446.851,79.28c0.307,0.376,0.609,0.752,0.914,1.128c5.555,0,11.107,0,16.662,0c0.264-0.459,0.525-0.918,0.787-1.378
		c-1.09-0.898-2.135-2.48-3.279-2.571c-3.998-0.318-8.045-0.324-12.043,0.015C448.82,76.565,447.863,78.3,446.851,79.28z
		 M477.492,55.907c5.336,0,10.104,0,15.461,0c-5.045-5.396-5.982-5.625-15.461-4.236C477.492,53.086,477.492,54.537,477.492,55.907z
		 M442.574,99.415c3.943-0.468,5.062-5.226,3.701-15.24c-0.15-1.095-1.879-1.938-3.701-3.697
		C442.574,87.929,442.574,93.448,442.574,99.415z M430.953,62.082c0.469,0.417,0.934,0.835,1.4,1.253
		c0.811-1.204,2.221-2.35,2.322-3.619c0.309-3.807-0.014-7.668,0.139-11.496c0.133-3.295-1.15-3.872-3.861-2.845
		C430.953,51.018,430.953,56.549,430.953,62.082z M482.679,79.228c0.281,0.482,0.562,0.966,0.84,1.448
		c4.475,0,8.959,0.179,13.416-0.13c1.08-0.074,2.068-1.758,3.102-2.702c-0.291-0.498-0.584-0.996-0.875-1.493
		c-4.473,0-8.955-0.181-13.408,0.131C484.679,76.559,483.703,78.269,482.679,79.228z M471.14,108.458
		c-0.381-0.567-0.764-1.133-1.145-1.7c-4.486,0-8.982-0.188-13.445,0.14c-1.025,0.077-1.941,1.917-2.908,2.947
		c0.324,0.426,0.65,0.854,0.977,1.279c4.482,0,8.975,0.167,13.441-0.122C469.13,110.933,470.119,109.346,471.14,108.458z
		 M442.615,131.529c3.729,0.233,4.166,0.169,3.654-3.95c-0.385-3.073,2.65-8.204-3.654-9.584 M488.021,50.041
		c-1.352-7.359-6.299-4.711-10.41-5.075c0,1.906,0,3.478,0,5.075C481.292,50.041,484.599,50.041,488.021,50.041z M515.125,64.378
		c-0.443-0.296-0.891-0.592-1.334-0.888c-0.562,0.863-1.568,1.702-1.607,2.592c-0.178,3.992-0.176,8.001-0.012,11.994
		c0.035,0.854,1.018,1.664,1.562,2.495c0.465-0.902,1.301-1.791,1.328-2.708C515.201,73.372,515.125,68.874,515.125,64.378z
		 M515.089,108.951c0-2.264,0.098-4.538-0.066-6.789c-0.043-0.573-0.896-1.484-1.393-1.497c-0.486-0.014-1.41,0.913-1.422,1.448
		c-0.119,4.526-0.119,9.059-0.006,13.584c0.012,0.551,0.896,1.487,1.389,1.495c0.492,0.007,1.383-0.893,1.424-1.453
		C515.181,113.489,515.083,111.217,515.089,108.951z M454.296,124.776c0,2.596,0,4.756,0,7.25c1.65-0.08,2.994-0.144,4.396-0.211
		c0-2.539,0-4.696,0-7.039C457.164,124.776,455.923,124.776,454.296,124.776z M447.435,105.574c2.018,0,3.691,0,5.48,0
		c0-1.75,0-3.216,0-4.82c-1.949,0-3.625,0-5.48,0C447.435,102.388,447.435,103.733,447.435,105.574z M453.255,117.195
		c-0.166-2.052-0.285-3.523-0.424-5.255c-2.039,0.114-3.719,0.207-5.68,0.316c0.168,1.98,0.295,3.448,0.422,4.939
		C449.498,117.195,451.052,117.195,453.255,117.195z M436.027,70.283c0,1.618,0,3.311,0,4.909c1.979,0,3.533,0,5.289,0
		c0-1.727,0-3.191,0-4.909C439.539,70.283,437.976,70.283,436.027,70.283z M435.583,63.918c0.125,2.008,0.219,3.478,0.309,4.928
		c2.033,0,3.717,0,5.689,0c-0.119-1.845-0.215-3.312-0.322-4.928C439.363,63.918,437.796,63.918,435.583,63.918z M435.496,112.18
		c0.191,2.063,0.33,3.53,0.492,5.244c2.021-0.096,3.701-0.176,5.662-0.269c-0.174-2.005-0.303-3.474-0.434-4.975
		C439.294,112.18,437.738,112.18,435.496,112.18z M441.218,105.638c1.377-6.152-1.893-5.416-5.359-4.902c0,1.733,0,3.2,0,4.902
		C437.662,105.638,439.224,105.638,441.218,105.638z M429.712,100.664c0.176,2.064,0.301,3.539,0.445,5.263
		c1.723-0.168,3.082-0.3,4.723-0.46c-0.168-1.866-0.301-3.337-0.432-4.803C432.849,100.664,431.609,100.664,429.712,100.664z
		 M453.853,118.552c0.23,2.051,0.395,3.527,0.547,4.887c1.625,0,2.861,0,4.336,0c0-1.698,0-3.161,0-4.887
		C457.195,118.552,455.839,118.552,453.853,118.552z M434.355,117.154c1.283-4.699-0.318-5.896-4.301-4.739c0,1.57,0,3.041,0,4.739
		C431.533,117.154,432.769,117.154,434.355,117.154z M460.187,45.158c-1.137,4.571,0.352,5.896,4.361,4.718c0-1.585,0-3.05,0-4.718
		C462.949,45.158,461.597,45.158,460.187,45.158z M489.111,129.55c4.271,1.309,5.381-0.412,4.369-4.704c-1.488,0-2.84,0-4.369,0
		C489.111,126.581,489.111,128.045,489.111,129.55z M489.216,123.39c4.359,1.017,5.416-0.747,4.162-4.761
		C489.472,117.476,488.107,118.934,489.216,123.39z M483.445,112.273c0,1.795,0,3.37,0,5.25c1.768-0.215,3.125-0.379,4.365-0.529
		c0-1.778,0-3.116,0-4.72C486.25,112.273,484.896,112.273,483.445,112.273z M483.433,118.563c-1.129,4.537,0.312,5.899,4.35,4.713
		c0-1.598,0-3.061,0-4.713C486.183,118.563,484.833,118.563,483.433,118.563z M483.425,124.857c0,1.788,0,3.381,0,5.278
		c1.77-0.223,3.125-0.395,4.379-0.554c0-1.78,0-3.125,0-4.724C486.24,124.857,484.882,124.857,483.425,124.857z M505.207,88.293
		c-1.643,0-3.115,0-4.84,0c0.191,1.911,0.342,3.389,0.477,4.726c1.637,0,2.879,0,4.363,0
		C505.207,91.328,505.207,89.859,505.207,88.293z M500.863,81.851c-1.182,4.607,0.406,5.829,4.35,4.749c0-1.614,0-3.084,0-4.749
		C503.621,81.851,502.263,81.851,500.863,81.851z M500.441,57.626c0.127,2.019,0.219,3.494,0.328,5.232
		c1.711-0.12,3.072-0.216,4.703-0.329c-0.113-1.83-0.207-3.305-0.307-4.903C503.593,57.626,502.347,57.626,500.441,57.626z
		 M477.138,81.788c0.191,2.049,0.328,3.518,0.486,5.248c1.719-0.16,3.076-0.287,4.678-0.437c-0.162-1.87-0.289-3.345-0.416-4.812
		C480.287,81.788,479.044,81.788,477.138,81.788z M506.539,99.148c4.227,1.261,5.438-0.35,4.33-4.7c-1.451,0-2.803,0-4.33,0
		C506.539,96.178,506.539,97.642,506.539,99.148z M506.458,93.387c1.898-0.2,3.258-0.342,4.885-0.513
		c-0.162-1.862-0.289-3.333-0.438-5.068c-1.732,0.166-3.096,0.295-4.447,0.426C506.458,89.981,506.458,91.327,506.458,93.387z
		 M510.826,86.703c1.35-4.743-0.416-5.75-4.289-4.782c0,1.636,0,3.103,0,4.782C508.126,86.703,509.48,86.703,510.826,86.703z
		 M477.498,92.816c4.316,1.384,5.355-0.428,4.41-4.676c-1.518,0-2.877,0-4.41,0C477.498,89.865,477.498,91.338,477.498,92.816z
		 M481.769,117.228c1.314-4.76-0.273-5.963-4.055-4.865C477.193,117.225,477.193,117.225,481.769,117.228z M482.283,123.482
		c-0.162-2.056-0.279-3.523-0.42-5.279c-1.725,0.177-3.08,0.315-4.701,0.481c0.164,1.866,0.291,3.33,0.422,4.798
		C479.173,123.482,480.414,123.482,482.283,123.482z M481.974,129.743c0-1.687,0-3.154,0-4.74c-1.66,0-3.133,0-4.875,0
		c0.205,1.919,0.363,3.396,0.508,4.74C479.25,129.743,480.492,129.743,481.974,129.743z M476.521,50.072
		c-0.184-2.062-0.314-3.537-0.471-5.286c-1.719,0.172-3.082,0.311-4.721,0.476c0.17,1.87,0.305,3.351,0.438,4.81
		C473.371,50.072,474.613,50.072,476.521,50.072z M476.23,69.968c-1.896,0.182-3.256,0.311-4.881,0.466
		c0.162,1.861,0.291,3.332,0.443,5.084c1.715-0.171,3.07-0.308,4.438-0.443C476.23,73.326,476.23,71.982,476.23,69.968z
		 M471.617,87.07c1.904-0.188,3.264-0.32,4.857-0.478c-0.15-1.862-0.271-3.337-0.416-5.103c-1.727,0.18-3.084,0.321-4.441,0.462
		C471.617,83.686,471.617,85.031,471.617,87.07z M476.433,117.229c-0.119-2.014-0.207-3.487-0.312-5.26
		c-1.703,0.129-3.061,0.231-4.713,0.356c0.121,1.837,0.217,3.308,0.318,4.903C473.302,117.229,474.542,117.229,476.433,117.229z
		 M470.355,45.236c-4.176-1.129-5.461,0.413-4.369,4.781c1.477,0,2.832,0,4.369,0C470.355,48.288,470.355,46.818,470.355,45.236z
		 M466.011,70.326c-1.18,4.594,0.352,5.863,4.338,4.721c0-1.601,0-3.065,0-4.721C468.755,70.326,467.404,70.326,466.011,70.326z
		 M470.355,82.03c-4.258-1.319-5.414,0.358-4.361,4.687c1.479,0,2.832,0,4.361,0C470.355,84.986,470.355,83.519,470.355,82.03z"/>
	<path fill="#333333" d="M133.526,10.765c1.766,0,3.101,0,4.673,0c0,42.724,0,85.282,0,128.182c-14.608,0-29.034,0-44.042,0
		c0-20.848,0-41.696,0-62.544c-0.347-0.001-0.694-0.002-1.041-0.003c0,17.981,0,35.96,0,53.941c-0.285,0.001-0.57,0.003-0.854,0.004
		c0-18.076,0-36.152,0-54.65c-20.091,0-39.806,0-59.998,0c0,18.152,0,36.52,0,54.886c-0.334,0.004-0.67,0.008-1.006,0.012
		c0-18.228,0-36.457,0-55.057c-2.839-0.155-5.174-0.282-7.509-0.409c0-0.216-0.001-0.431-0.001-0.646c7.73,0,15.462,0,23.627,0
		c0-10.644,0-20.86,0-31.077c0.28-0.003,0.561-0.005,0.841-0.008c0,10.056,0,20.11,0,30.748c27.422,0,54.456,0,81.49,0
		c0.002,0.339,0.004,0.68,0.007,1.019c-10.422,0-20.844,0-31.61,0c0,3.983,0,7.543,0,11.469c11.635,0,23.312,0,35.422,0
		C133.526,61.457,133.526,36.268,133.526,10.765z M97.915,125.444c12.171,0,23.832,0,35.478,0c0-4.264,0-8.173,0-12.048
		c-11.999,0-23.658,0-35.478,0C97.915,117.533,97.915,121.316,97.915,125.444z M97.99,88.108c0,4.036,0,7.464,0,11.034
		c12.014,0,23.782,0,35.33,0c0-3.995,0-7.551,0-11.034C121.372,88.108,109.834,88.108,97.99,88.108z M97.926,111.822
		c12.146,0,23.81,0,35.48,0c0-3.903,0-7.464,0-11.031c-11.989,0-23.651,0-35.48,0C97.926,104.562,97.926,107.998,97.926,111.822z
		 M133.56,127.03c-12.169,0-23.817,0-35.462,0c0,3.916,0,7.459,0,10.988c11.999,0,23.647,0,35.462,0
		C133.56,134.238,133.56,130.812,133.56,127.03z M137.595,106.616c0-9.254,0.061-18.509-0.075-27.76
		c-0.017-1.159-1.071-2.298-1.645-3.447c-0.446,1.11-1.276,2.218-1.281,3.33c-0.079,18.676-0.084,37.354,0.021,56.03
		c0.006,1.163,1.061,2.318,1.628,3.476c0.449-1.115,1.274-2.224,1.287-3.346C137.633,125.473,137.588,116.044,137.595,106.616z
		 M135.913,9.917c-0.966,2.03-1.238,2.335-1.239,2.641c-0.057,19.707-0.111,39.414-0.062,59.12c0.002,0.871,0.972,1.74,1.49,2.61
		c0.499-1.064,1.426-2.123,1.431-3.188c0.084-18.839,0.077-37.677-0.002-56.515C137.524,13.434,136.761,12.287,135.913,9.917z
		 M95.271,138.073c0.343-0.002,0.687-0.005,1.029-0.007c0-20.836,0-41.67,0-62.506c-0.343,0.004-0.686,0.009-1.029,0.013
		C95.271,96.406,95.271,117.239,95.271,138.073z"/>
	<path fill="#333333" d="M467.47,14.984c0,6.127,0,11.861,0,17.98c-11.393,0-22.725,0-34.338,0c0-5.883,0-11.732,0-17.98
		C444.365,14.984,455.695,14.984,467.47,14.984z"/>
	<path fill="#333333" d="M477.474,32.953c0-6.099,0-11.83,0-17.958c11.389,0,22.713,0,34.33,0c0,5.86,0,11.707,0,17.958
		C500.58,32.953,489.251,32.953,477.474,32.953z"/>
	<path fill="#333333" d="M347.394,308.487c4.098,3.397,3.014,8.248,3.016,12.764c0,10.129-0.049,20.258-0.094,30.385
		c-0.002,0.314-0.213,0.623-0.482,1.369c-13.459,0-27.066,0-40.676,0c-0.004-0.287-0.006-0.574-0.01-0.858
		c11.126,0,22.251,0,32.728,0c0-12.539-0.076-24.712,0.143-36.875c0.018-0.97,2.207-2.8,3.123-2.621
		c1.246,0.241,3.189,2.028,3.191,3.153c0.004,11.82-0.326,23.644-0.531,35.463c-0.004,0.248,0.346,0.505,1.176,1.636
		c0-14.16,0-27.476,0-41.297c-13.211,0-26.857,0-40.061,0c-1.299-7.662,2.785-7.685,7.414-7.578
		c8.702,0.201,17.411,0.104,26.116,0.029c2.951-0.025,5.141,0.618,4.873,4.538c-12.137,0.023-24.247,0.023-36.356,0.023
		c7.526,0.697,15.055,0.793,22.58,0.66C338.164,309.198,342.779,308.763,347.394,308.487z M345.466,314.37
		c-0.176,0.002-0.352,0.002-0.527,0.004c0,11.887,0,23.773,0,35.658c0.176,0,0.352,0,0.527-0.002
		C345.466,338.146,345.466,326.259,345.466,314.37z"/>
	<path fill="#333333" d="M308.31,317.804c10.515,0,20.629,0,31.123,0c0,9.595,0,19.066,0,28.861c-10.306,0-20.528,0-31.123,0
		C308.31,337.237,308.31,327.765,308.31,317.804z M309.038,333.769c0.011,0.566,0.021,1.134,0.031,1.699
		c9.889,0.033,19.78,0.24,29.659-0.096c-0.014-0.533-0.027-1.068-0.043-1.604C328.803,333.769,318.92,333.769,309.038,333.769z
		 M338.699,345.509c-0.01-0.328-0.018-0.656-0.025-0.983c-9.88,0-19.762,0-29.644,0c0.014,0.327,0.027,0.655,0.043,0.983
		C318.948,345.509,328.823,345.509,338.699,345.509z M338.683,329.753c-0.008-0.557-0.016-1.111-0.025-1.666
		c-9.874-0.063-19.752-0.193-29.622,0.074c0.009,0.529,0.018,1.061,0.027,1.592C318.937,329.753,328.811,329.753,338.683,329.753z
		 M338.664,324.591c-0.014-0.358-0.023-0.721-0.037-1.08c-9.863,0-19.728,0-29.59,0c0.01,0.359,0.018,0.722,0.027,1.08
		C318.93,324.591,328.797,324.591,338.664,324.591z M338.681,340.253c0-0.379,0-0.756,0.002-1.135c-9.882,0-19.765,0-29.647,0
		c0,0.379,0,0.756,0,1.135C318.918,340.253,328.8,340.253,338.681,340.253z M337.962,321.608c0-0.187-0.002-0.369-0.002-0.558
		c-9.374,0-18.746,0-28.118,0c0.001,0.188,0.002,0.371,0.004,0.558C319.219,321.608,328.59,321.608,337.962,321.608z
		 M309.838,318.862c0.031,0.203,0.063,0.407,0.096,0.612c9.346,0,18.689,0,28.036,0c-0.002-0.205-0.002-0.409-0.004-0.612
		C328.59,318.862,319.214,318.862,309.838,318.862z M337.968,326.87c0-0.197,0-0.396-0.002-0.596c-9.39,0-18.78,0-28.169,0
		c0,0.198,0,0.397,0,0.596C319.188,326.87,328.579,326.87,337.968,326.87z M309.735,331.472c0.002,0.183,0.002,0.363,0.004,0.547
		c9.381,0,18.762,0,28.144,0c-0.002-0.184-0.004-0.364-0.006-0.547C328.496,331.472,319.115,331.472,309.735,331.472z
		 M337.769,337.44c0.064-0.203,0.129-0.406,0.193-0.611c-9.328,0-18.655,0-27.981,0c0.002,0.205,0.004,0.408,0.005,0.611
		C319.247,337.44,328.508,337.44,337.769,337.44z M309.704,341.968c0.002,0.172,0.006,0.342,0.008,0.513c9.378,0,18.756,0,28.133,0
		c-0.002-0.171-0.004-0.341-0.006-0.513C328.461,341.968,319.083,341.968,309.704,341.968z"/>
	<path fill="#333333" d="M88.913,183.958c0-0.375,0.001-0.749,0.001-1.122c-23.098,0-46.195,0-69.293,0c0,0.373,0,0.747,0,1.122
		C42.718,183.958,65.815,183.958,88.913,183.958z M81.549,185.842c0.004,0.378,0.009,0.756,0.014,1.133c22.788,0,45.577,0,68.366,0
		c-0.003-0.377-0.005-0.755-0.008-1.133C127.129,185.842,104.339,185.842,81.549,185.842z"/>
	<path fill="#333333" d="M309.323,354.45c12.654,0,25.161,0,37.854,0c0.521,3.557-1.014,5.002-3.891,5.016
		c-10.148,0.043-20.298,0.056-30.445-0.024C310.04,359.417,308.243,358.202,309.323,354.45z"/>
	<path fill="#333333" d="M54.642,284.323c20.541,0,40.769,0,61.026,0c1.687,4.901-1.155,6.028-4.401,6.043
		c-17.178,0.073-34.357-0.039-51.536-0.105C56.381,290.251,53.445,289.706,54.642,284.323z M85.233,285.029
		c-8.864,0-17.728-0.059-26.59,0.074c-1.136,0.019-2.26,1.047-3.389,1.605c1.138,0.537,2.273,1.531,3.415,1.537
		c17.725,0.104,35.45,0.107,53.174,0.01c1.14-0.006,2.273-1.037,3.41-1.59c-1.144-0.547-2.281-1.551-3.431-1.566
		C102.961,284.971,94.096,285.027,85.233,285.029z"/>
	<path fill="#333333" d="M263.852,354.604c1.096,3.177-0.279,4.767-2.994,4.802c-10.295,0.129-20.594,0.184-30.884-0.093
		c-1.326-0.034-2.602-2.17-3.901-3.331c0.255-0.46,0.512-0.916,0.768-1.378C239.133,354.604,251.428,354.604,263.852,354.604z"/>
	<path fill="#333333" d="M116.057,413.907c-20.744,0-40.88,0-62.619,0c1.389-1.879,2.003-3.314,3.037-3.947
		c1.174-0.715,2.722-0.979,4.108-0.984c16.444-0.059,32.89-0.077,49.333,0.013C112.729,409.003,116.217,408.554,116.057,413.907z
		 M115.051,412.616c-0.001-0.33-0.002-0.658-0.003-0.986c-19.873,0-39.746,0-59.619,0c0.007,0.328,0.014,0.656,0.021,0.986
		C75.318,412.616,95.184,412.616,115.051,412.616z"/>
	<path fill="#333333" d="M15.834,75.013c0-21.739,0-43,0-64.28c4.766-1.078,4.379,2.686,4.419,5.406
		c0.145,9.95,0.052,19.904,0.051,29.856c0,7.857,0.136,15.717-0.067,23.568C20.17,72.201,20.634,76.075,15.834,75.013z
		 M18.088,11.629c-0.352,0.005-0.704,0.011-1.055,0.017c0,20.832,0,41.662,0,62.493c0.352-0.001,0.703-0.002,1.055-0.003
		C18.088,53.301,18.088,32.465,18.088,11.629z"/>
	<path fill="#333333" d="M188.51,62.297c0.669-0.505,1.333-1.443,2.008-1.453c6.916-0.108,13.834-0.067,21.114-0.067
		c0,21.547,0,42.773,0,64.426c-7.293,0-14.772,0-22.251,0c-0.009-0.104-0.019-0.209-0.027-0.314c6.396,0,12.792,0,19.532,0
		c0-21.129,0-41.815,0-62.647c-6.763,0-13.588,0-20.413,0L188.51,62.297z M210.964,62.893c-0.185,0.009-0.371,0.019-0.556,0.027
		c0,20.174,0,40.345,0,60.519c0.185-0.002,0.371-0.003,0.556-0.005C210.964,103.253,210.964,83.073,210.964,62.893z"/>
	<path fill="#333333" d="M315.246,412.71c-16.958,0-33.648,0-50.593,0c0-11.365,0-22.453,0-33.871c16.882,0,33.568,0,50.593,0
		C315.246,389.968,315.246,401.06,315.246,412.71z M314.587,379.759c-16.678,0-32.847,0-49.03,0c0,10.908,0,21.441,0,31.976
		c16.516,0,32.682,0,49.03,0C314.587,400.952,314.587,390.544,314.587,379.759z"/>
	<path fill="#333333" d="M357.107,51.184c-0.189,0.074-0.381,0.147-0.568,0.222c0,20.229,0,40.458,0,60.687
		c0.188-0.001,0.379-0.004,0.568-0.005C357.107,91.787,357.107,71.485,357.107,51.184z"/>
	<path fill="#333333" d="M115.396,405.329c0-8.344,0-16.691,0-25.703c-9.812,0-19.364,0-28.917,0
		c0.001-0.369,0.002-0.738,0.003-1.109c9.423,0,18.847,0,28.734,0c0-28.577,0-56.715,0-84.852c0.236,0.002,0.473,0.002,0.71,0.004
		c0,37.219,0,74.438,0,111.654C115.749,405.325,115.572,405.327,115.396,405.329z"/>
	<path fill="#333333" d="M92.777,134.292c0,1.677,0,3.057,0,4.703c-20.44,0-40.831,0-61.44,0c0-1.542,0-2.879,0-4.703
		C51.629,134.292,71.957,134.292,92.777,134.292z M91.818,138.062c0.151-0.452,0.303-0.902,0.454-1.354
		c-1.072-0.547-2.142-1.564-3.217-1.569c-18.032-0.098-36.064-0.098-54.095,0.001c-1.072,0.004-2.14,1.023-3.208,1.57
		c0.152,0.451,0.304,0.901,0.458,1.352C52.079,138.062,71.948,138.062,91.818,138.062z"/>
	<path fill="#333333" d="M65.179,388.218c13.617,0,26.754,0,40.13,0c0,6.455,0,12.646,0,19.176c-13.358,0-26.612,0-40.13,0
		C65.179,401.019,65.179,394.833,65.179,388.218z M66.017,406.462c13.177,0,25.793,0,38.287,0c0-6.039,0-11.686,0-17.201
		c-12.994,0-25.601,0-38.287,0C66.017,395.196,66.017,400.712,66.017,406.462z"/>
	<path fill="#333333" d="M21.754,21.003c5.962,0,11.57,0,17.545,0c0,14.133,0,28.141,0,42.466c-5.764,0-11.484,0-17.545,0
		C21.754,49.552,21.754,35.53,21.754,21.003z M22.476,62.419c5.246,0,10.569,0,16.125,0c0-13.44,0-26.767,0-40.345
		c-5.469,0-10.68,0-16.125,0C22.476,35.555,22.476,48.758,22.476,62.419z"/>
	<path fill="#333333" d="M23.63,10.622c35.263,0,70.528,0,105.792,0c0,0.2,0,0.398-0.001,0.598c-35.263,0-70.528,0-105.792,0
		C23.63,11.02,23.63,10.821,23.63,10.622z"/>
	<path fill="#333333" d="M55.09,293.934c0,37.081,0,74.161,0,111.245c-0.167,0-0.333,0-0.5,0.002c0-37.004,0-74.008,0-111.012
		C54.757,294.091,54.923,294.011,55.09,293.934z"/>
	<path fill="#333333" d="M642.609,319.124c-4.09-9.439-3.773-17.881,0-27.015C642.609,301.277,642.609,309.718,642.609,319.124z"/>
	<path fill="#333333" d="M45.203,384.317c-7.19,0-14.378,0-21.568,0c0.002-0.353,0.003-0.701,0.005-1.052c7.185,0,14.37,0,21.555,0
		C45.198,383.616,45.2,383.966,45.203,384.317z"/>
	<path fill="#333333" d="M188.472,62.242c-0.524,1.632-1.484,3.257-1.502,4.895c-0.132,11.704-0.07,23.41-1.019,35.144
		c0-3.378-0.004-6.755,0-10.133c0.014-8.884-0.012-17.769,0.091-26.652c0.018-1.544-0.932-4.463,2.458-3.207
		C188.51,62.297,188.472,62.242,188.472,62.242z"/>
	<path fill="#333333" d="M306.696,312.837c0,12.619,0,25.238,0,37.857c-0.143,0.002-0.287,0.004-0.432,0.004
		c0-12.539,0-25.08,0-37.619C306.409,312.999,306.553,312.917,306.696,312.837z"/>
	<path fill="#333333" d="M266.187,311.333c0.327,0.896,0.937,1.791,0.941,2.688c0.062,11.854,0.06,23.704-0.006,35.555
		c-0.005,0.881-0.612,1.758-0.94,2.635l0.158,0.09c0-13.682,0-27.365,0-41.047L266.187,311.333z"/>
	<path fill="#333333" d="M337.65,315.161c-9.186,0-18.37,0-27.557,0c0.001-0.162,0.002-0.322,0.003-0.484c9.186,0,18.371,0,27.558,0
		C337.652,314.839,337.65,314.999,337.65,315.161z"/>
	<path fill="#333333" d="M309.977,348.368c9.245,0,18.489,0,27.733,0c0,0.16,0,0.32,0.002,0.479c-9.245,0-18.489,0-27.733,0
		C309.979,348.688,309.979,348.528,309.977,348.368z"/>
	<path fill="#333333" d="M319.208,147.549c-2.605,0-5.126,0-8.066,0"/>
	<path fill="#333333" d="M311.141,130.071c2.605,0,5.127,0,8.066,0"/>
	<path fill="#333333" d="M310.967,148.962c2.877,0,5.508,0,8.395,0"/>
	<path fill="#333333" d="M319.362,165.393c-3.104,0-5.623,0-8.395,0"/>
	<path fill="#333333" d="M427.085,298.448c0-1.96,0-3.646,0-5.707"/>
	<path fill="#333333" d="M433.619,292.741c0.07,1.688,0.143,3.5,0.232,5.707"/>
	<path fill="#333333" d="M233.706,346.542c10.639,0,20.971,0,31.246,0c0-9.768,0-19.113,0-28.674c-10.529,0-20.75,0-31.246,0
		C233.706,327.583,233.706,337.058,233.706,346.542z M263.038,315.155c-0.033-0.189-0.068-0.381-0.104-0.57
		c-8.885,0-17.771,0-26.656,0c-0.001,0.189-0.002,0.381-0.003,0.57C245.196,315.155,254.118,315.155,263.038,315.155z
		 M262.954,348.983c0.068-0.166,0.137-0.334,0.204-0.502c-8.843,0-17.687,0-26.529,0c0.001,0.168,0.003,0.336,0.005,0.502
		C245.408,348.983,254.18,348.983,262.954,348.983z"/>
	<path fill="#333333" d="M233.706,346.542c0-9.484,0-18.959,0-28.674c10.496,0,20.717,0,31.246,0c0,9.561,0,18.906,0,28.674
		C254.676,346.542,244.344,346.542,233.706,346.542z"/>
	<path fill="#333333" d="M263.038,315.155c-8.92,0-17.842,0-26.763,0c0.001-0.189,0.002-0.381,0.003-0.57c8.886,0,17.771,0,26.656,0
		C262.969,314.774,263.004,314.966,263.038,315.155z"/>
	<path fill="#333333" d="M262.954,348.983c-8.773,0-17.546,0-26.319,0c-0.002-0.166-0.004-0.334-0.005-0.502
		c8.842,0,17.686,0,26.529,0C263.09,348.649,263.022,348.817,262.954,348.983z"/>
	<path fill="#333333" d="M269.671,410.06c13.603,0,27.204,0,40.806,0c0,0.197,0.002,0.396,0.002,0.593c-13.594,0-27.188,0-40.781,0
		C269.688,410.454,269.68,410.257,269.671,410.06z"/>
	<path fill="#333333" d="M311.92,407.423c0-8.084,0-16.17,0-24.256c0.151-0.004,0.303-0.008,0.453-0.01c0,8.067,0,16.139,0,24.207
		C312.223,407.384,312.072,407.405,311.92,407.423z"/>
	<path fill="#333333" d="M267.495,407.456c0-8.105,0-16.213,0-24.318c0.16,0,0.319,0,0.478-0.002c0,8.107,0,16.213,0,24.32
		C267.814,407.456,267.655,407.456,267.495,407.456z"/>
</g>
</svg>
