<?xml version="1.0" encoding="utf-8"?>
<!-- Generator: Adobe Illustrator 16.0.0, SVG Export Plug-In . SVG Version: 6.00 Build 0)  -->
<!DOCTYPE svg PUBLIC "-//W3C//DTD SVG 1.1//EN" "http://www.w3.org/Graphics/SVG/1.1/DTD/svg11.dtd">
<svg version="1.1"
	 id="Capa_1" xmlns:dc="http://purl.org/dc/elements/1.1/" xmlns:cc="http://creativecommons.org/ns#" xmlns:rdf="http://www.w3.org/1999/02/22-rdf-syntax-ns#" xmlns:svg="http://www.w3.org/2000/svg" xmlns:sodipodi="http://sodipodi.sourceforge.net/DTD/sodipodi-0.dtd" xmlns:inkscape="http://www.inkscape.org/namespaces/inkscape" inkscape:version="0.48.4 r9939" sodipodi:docname="Longomatch-green-white.svg"
	 xmlns="http://www.w3.org/2000/svg" xmlns:xlink="http://www.w3.org/1999/xlink" x="0px" y="0px" width="1920px"
	 height="419.141px" viewBox="0 0 1920 419.141" enable-background="new 0 0 1920 419.141" xml:space="preserve">
<sodipodi:namedview  id="namedview32" bordercolor="#666666" pagecolor="#ffffff" borderopacity="1" objecttolerance="10" gridtolerance="10" guidetolerance="10" showgrid="false" fit-margin-top="0" fit-margin-left="0" inkscape:zoom="1.3479301" inkscape:cx="831.29419" inkscape:cy="204.46888" inkscape:pageopacity="0" inkscape:pageshadow="2" inkscape:window-width="1070" inkscape:window-height="564" fit-margin-right="0" fit-margin-bottom="0" inkscape:window-x="68" inkscape:window-y="27" inkscape:window-maximized="0" inkscape:current-layer="Capa_1">
	</sodipodi:namedview>
<g>
	<g>
		<path fill="#676767" d="M175.464,138.05v15.751h-70.997v104.78H71.754v-104.78H0.756V138.05H175.464z"/>
		<path fill="#676767" d="M390.792,138.05l81.089,120.531h-34.976l-23.839-35.557h-84.222c-3.829,5.722-7.805,11.647-11.921,17.778
			c-4.118,6.129-8.034,12.059-11.746,17.778h-35.323l81.959-120.531H390.792z M371.477,160.78
			c-5.454,7.921-10.762,15.655-15.922,23.199c-5.163,7.545-10.527,15.436-16.096,23.672h62.818L371.477,160.78z"/>
		<path fill="#676767" d="M1115.955,138.05v15.751h-70.997v104.78h-32.713v-104.78h-70.998V138.05H1115.955z"/>
		<path fill="#676767" d="M1288.476,138.05v120.531h-32.886V138.05H1288.476z"/>
		<path fill="#676767" d="M1459.604,196.807c0,8.487,1.976,15.843,5.917,22.068c3.943,6.226,9.138,11.381,15.576,15.468
			c6.437,4.089,13.717,7.137,21.839,9.147c8.119,2.014,16.354,3.018,24.708,3.018c8.584,0,16.385-0.91,23.404-2.733
			c7.02-1.825,13.168-4.244,18.448-7.264c5.274-3.017,9.627-6.443,13.05-10.278c3.422-3.836,5.828-7.796,7.221-11.885h33.237
			c-2.323,6.602-6.093,12.795-11.313,18.58c-5.217,5.784-11.859,10.829-19.924,15.136s-17.461,7.704-28.188,10.187
			c-10.731,2.482-22.708,3.724-35.935,3.724c-15.429,0-29.38-1.477-41.852-4.433c-12.472-2.952-23.084-7.242-31.841-12.872
			c-8.76-5.625-15.517-12.48-20.271-20.559c-4.76-8.081-7.138-17.244-7.138-27.493c0-5.281,1.015-10.483,3.045-15.607
			c2.029-5.125,5.02-9.981,8.962-14.572c3.945-4.588,8.79-8.817,14.53-12.684c5.745-3.868,12.358-7.215,19.839-10.045
			c7.482-2.83,15.776-5.045,24.886-6.648c9.103-1.604,18.937-2.405,29.493-2.405c13.338,0,25.319,1.022,35.933,3.065
			c10.614,2.043,19.895,4.904,27.841,8.582c7.946,3.677,14.646,8.033,20.101,13.062c5.451,5.031,9.746,10.532,12.878,16.504h-34.282
			c-5.569-8.676-13.457-15.136-23.664-19.381c-10.211-4.244-23.145-6.366-38.806-6.366c-9.978,0-19.115,1.259-27.406,3.773
			c-8.299,2.515-15.432,5.91-21.404,10.185c-5.975,4.276-10.617,9.243-13.922,14.902
			C1461.262,184.64,1459.604,190.582,1459.604,196.807z"/>
		<path fill="#676767" d="M1785.429,217.837c0.466,4.151,2.06,7.955,4.789,11.413c2.722,3.457,6.35,6.459,10.874,9.006
			c4.525,2.547,9.834,4.528,15.924,5.941c6.088,1.415,12.789,2.122,20.099,2.122c6.496,0,12.727-0.378,18.703-1.132
			c5.976-0.756,11.227-1.963,15.751-3.632c4.525-1.665,8.147-3.833,10.873-6.506c2.727-2.672,4.09-5.927,4.09-9.761
			c0-3.27-1.478-6.037-4.438-8.3c-2.957-2.265-6.932-4.243-11.918-5.941c-4.99-1.698-10.677-3.175-17.056-4.433
			c-6.382-1.258-12.991-2.514-19.835-3.773c-9.049-1.634-18.041-3.362-26.972-5.186c-8.938-1.822-16.969-4.071-24.102-6.744
			c-7.136-2.671-12.906-5.941-17.314-9.808c-4.411-3.868-6.613-8.661-6.613-14.383c0-5.155,1.882-9.715,5.657-13.675
			c3.766-3.961,9.016-7.292,15.746-9.997c6.727-2.703,14.762-4.746,24.101-6.13c9.339-1.383,19.575-2.075,30.714-2.075
			c14.85,0,27.231,1.226,37.149,3.678c9.923,2.452,17.895,5.597,23.93,9.431c6.03,3.836,10.412,8.049,13.138,12.638
			c2.726,4.59,4.318,9.023,4.785,13.298h-33.586c-0.579-3.835-2.148-7.23-4.697-10.186c-2.554-2.955-5.858-5.437-9.918-7.45
			c-4.063-2.012-8.73-3.521-14.01-4.528c-5.28-1.004-10.874-1.509-16.791-1.509c-5.339,0-10.59,0.299-15.747,0.896
			c-5.161,0.598-9.806,1.541-13.923,2.83c-4.119,1.289-7.426,2.987-9.917,5.092c-2.495,2.107-3.741,4.669-3.741,7.687
			c0,3.27,1.506,6.068,4.525,8.394c3.015,2.327,7.016,4.355,12.006,6.083c4.985,1.729,10.701,3.239,17.138,4.526
			c6.438,1.29,13.14,2.562,20.101,3.82c9.05,1.635,17.982,3.381,26.796,5.234c8.815,1.855,16.762,4.118,23.842,6.792
			c7.073,2.671,12.789,5.909,17.138,9.712c4.354,3.806,6.525,8.476,6.525,14.007c0,6.034-2.059,11.348-6.177,15.939
			c-4.118,4.588-9.829,8.408-17.14,11.456c-7.31,3.054-15.98,5.364-26.016,6.933c-10.035,1.572-20.968,2.356-32.798,2.356
			c-10.677,0-21.057-1.019-31.149-3.065c-10.094-2.042-19.084-4.982-26.973-8.814c-7.889-3.838-14.301-8.474-19.229-13.912
			c-4.931-5.438-7.569-11.554-7.916-18.345H1785.429z"/>
	</g>
	<path d="M197.407,199.037"/>
	<path fill="#988E82" d="M700.899,107.796c-48.996,0-88.709,39.717-88.709,88.71c0,48.994,39.713,88.712,88.709,88.712
		c48.991,0,88.709-39.718,88.709-88.712C789.608,147.514,749.891,107.796,700.899,107.796z M700.899,266.322
		c-38.559,0-69.817-31.257-69.817-69.815c0-38.562,31.259-69.82,69.817-69.82c38.56,0,69.82,31.258,69.82,69.82
		C770.72,235.065,739.459,266.322,700.899,266.322z"/>
	<circle fill="none" stroke="#988E82" stroke-miterlimit="10" cx="700.899" cy="196.507" r="103.704"/>
	<g>
		<g>
			<path fill="#988E82" stroke="#988E82" stroke-miterlimit="10" d="M696,32.57h-2v110.35c0-0.04,2-0.128,2-0.128V32.57z"/>
			<path fill="#988E82" stroke="#988E82" stroke-miterlimit="10" d="M529,199.57v3h118.314c-0.04,0-0.129,0-0.129-3H529z"/>
			<path fill="#988E82" stroke="#988E82" stroke-miterlimit="10" d="M863,199.57H754.612c0,3-0.089,3-0.129,3H863V199.57z"/>
			<path fill="#988E82" stroke="#988E82" stroke-miterlimit="10" d="M694,368.57h2V250.224c0,0-2-0.093-2-0.13V368.57z"/>
		</g>
	</g>
	<rect x="730.5" y="184.07" fill="#988E82" width="115" height="29"/>
	<g>
		<path fill="#988E82" d="M805.22,199.07c-1.018,56-47.318,102.132-104.32,102.132c-57.639,0-104.365-46.895-104.365-104.535
			c0-57.638,46.727-104.449,104.365-104.449c26.057,0,49.865,9.532,68.154,25.324l19.13-19.151
			c-23.209-20.654-53.772-33.234-87.284-33.234c-72.546,0-131.353,58.802-131.353,131.351c0,72.543,58.807,131.364,131.353,131.364
			c71.908,0,130.283-57.802,131.307-128.802C823.132,199.07,814.888,199.07,805.22,199.07z"/>
	</g>
	<path fill="#988E82" d="M804.948,199.037c-1.348,56.327-47.398,101.584-104.049,101.584c-57.5,0-104.113-46.615-104.113-104.114
		c0-56.973,45.761-103.254,102.532-104.101c0.525-0.007,1.054-0.012,1.581-0.012c0-11.892,0-23.783,0-35.676
		c-0.529,0-1.057,0.003-1.583,0.008c-76.473,0.849-138.206,63.107-138.206,139.781c0,77.204,62.586,139.789,139.789,139.789
		c76.355,0,138.369-61.226,139.724-137.259C828.857,199.037,816.326,199.037,804.948,199.037z"/>
	<path d="M203.849,562.452"/>
	<g>
		<path fill="#424242" d="M951.341,300.078v33.307h-3.029v-33.307H951.341z"/>
		<path fill="#424242" d="M982.032,300.078v3.214h-18.181v11.259h15.804v3.214h-15.804v15.62h-3.03v-33.307H982.032z"/>
		<path fill="#424242" d="M1012.88,317.242l10.266-17.164h3.214l-11.963,19.933v13.374h-3.03v-13.374l-11.991-19.933h3.396
			L1012.88,317.242z"/>
		<path fill="#424242" d="M1059.846,316.77c0,2.562-0.327,4.914-0.981,7.055c-0.652,2.143-1.603,3.983-2.848,5.524
			c-1.244,1.541-2.78,2.743-4.608,3.604c-1.83,0.863-3.919,1.294-6.272,1.294c-2.35,0-4.434-0.431-6.254-1.294
			c-1.82-0.861-3.356-2.063-4.611-3.604c-1.253-1.541-2.203-3.382-2.847-5.524c-0.646-2.141-0.967-4.493-0.967-7.055
			c0-2.558,0.32-4.909,0.967-7.051c0.644-2.143,1.594-3.983,2.847-5.524c1.255-1.541,2.791-2.743,4.611-3.606
			c1.82-0.862,3.904-1.292,6.254-1.292c2.354,0,4.442,0.43,6.272,1.292c1.828,0.863,3.364,2.065,4.608,3.606
			c1.245,1.541,2.195,3.382,2.848,5.524C1059.519,311.86,1059.846,314.212,1059.846,316.77z M1056.788,316.77
			c0-2.244-0.3-4.256-0.901-6.031c-0.6-1.778-1.424-3.279-2.469-4.509c-1.046-1.226-2.276-2.167-3.696-2.819
			c-1.419-0.654-2.947-0.979-4.586-0.979c-1.653,0-3.184,0.325-4.596,0.979c-1.411,0.652-2.638,1.594-3.684,2.819
			c-1.045,1.229-1.864,2.73-2.455,4.509c-0.592,1.775-0.89,3.787-0.89,6.031c0,2.248,0.298,4.26,0.89,6.035
			c0.591,1.778,1.41,3.283,2.455,4.521c1.046,1.234,2.272,2.181,3.684,2.834c1.412,0.653,2.942,0.98,4.596,0.98
			c1.639,0,3.167-0.327,4.586-0.98c1.42-0.653,2.65-1.6,3.696-2.834c1.045-1.237,1.869-2.742,2.469-4.521
			C1056.488,321.029,1056.788,319.018,1056.788,316.77z"/>
		<path fill="#424242" d="M1070.579,300.078v22.415c0,1.358,0.257,2.577,0.771,3.656s1.188,1.993,2.023,2.741
			c0.837,0.75,1.776,1.324,2.822,1.724c1.045,0.404,2.089,0.604,3.136,0.604c1.13,0,2.253-0.183,3.369-0.55
			c1.113-0.365,2.115-0.91,3.004-1.632c0.888-0.723,1.61-1.621,2.169-2.692c0.555-1.069,0.834-2.319,0.834-3.747v-22.519h3.03
			v22.284c0,1.287-0.171,2.48-0.508,3.577c-0.34,1.099-0.804,2.091-1.386,2.979c-0.583,0.887-1.274,1.671-2.076,2.351
			c-0.801,0.68-1.658,1.245-2.572,1.698c-0.914,0.452-1.868,0.797-2.862,1.031c-0.991,0.234-1.975,0.353-2.95,0.353
			c-1.411,0-2.817-0.257-4.219-0.771c-1.402-0.513-2.669-1.275-3.802-2.286c-1.132-1.009-2.05-2.273-2.757-3.787
			c-0.704-1.516-1.057-3.265-1.057-5.25v-22.18H1070.579z"/>
		<path fill="#424242" d="M1116.471,322.99c0.069,1.182,0.339,2.275,0.812,3.276c0.47,1.002,1.101,1.864,1.894,2.586
			c0.792,0.723,1.724,1.288,2.794,1.698c1.071,0.41,2.25,0.614,3.539,0.614c1.149,0,2.25-0.121,3.305-0.365
			c1.053-0.246,1.982-0.631,2.783-1.163s1.439-1.219,1.92-2.063c0.479-0.845,0.717-1.877,0.717-3.096
			c0-1.099-0.287-2.024-0.861-2.782c-0.574-0.757-1.327-1.407-2.261-1.946c-0.931-0.54-1.993-1.014-3.186-1.424
			c-1.194-0.408-2.417-0.823-3.67-1.24c-1.254-0.418-2.479-0.87-3.669-1.358c-1.194-0.487-2.257-1.089-3.188-1.804
			c-0.934-0.713-1.686-1.574-2.261-2.585c-0.574-1.011-0.861-2.237-0.861-3.685c0-1.375,0.264-2.589,0.797-3.645
			c0.53-1.053,1.274-1.941,2.232-2.662c0.959-0.724,2.099-1.269,3.422-1.634c1.323-0.364,2.779-0.549,4.363-0.549
			c2.107,0,3.867,0.314,5.275,0.941c1.412,0.627,2.544,1.424,3.397,2.391c0.853,0.967,1.472,2.034,1.854,3.199
			c0.384,1.168,0.61,2.289,0.679,3.37h-3.134c-0.087-1.113-0.356-2.094-0.81-2.938s-1.041-1.556-1.764-2.13
			c-0.724-0.574-1.554-1.005-2.495-1.292c-0.939-0.288-1.941-0.432-3.003-0.432c-0.958,0-1.903,0.097-2.834,0.286
			c-0.932,0.193-1.764,0.502-2.496,0.929c-0.731,0.427-1.322,0.98-1.775,1.658c-0.453,0.68-0.68,1.516-0.68,2.507
			c0,1.099,0.288,2.029,0.862,2.796s1.327,1.429,2.26,1.984c0.932,0.559,1.994,1.047,3.187,1.464
			c1.194,0.417,2.412,0.837,3.657,1.254c1.246,0.418,2.464,0.875,3.657,1.372c1.193,0.496,2.256,1.1,3.187,1.815
			c0.932,0.714,1.686,1.562,2.261,2.548c0.574,0.982,0.861,2.181,0.861,3.591c0,1.62-0.291,3.048-0.874,4.284
			c-0.585,1.236-1.398,2.269-2.443,3.096c-1.046,0.828-2.284,1.45-3.723,1.867c-1.437,0.417-2.999,0.627-4.689,0.627
			c-1.532,0-3.017-0.267-4.452-0.796c-1.438-0.531-2.723-1.284-3.854-2.261c-1.132-0.976-2.051-2.163-2.755-3.564
			c-0.707-1.403-1.084-2.981-1.137-4.74H1116.471z"/>
		<path fill="#424242" d="M1166.65,300.078v3.214h-18.703v11.259h17.606v3.214h-17.606v12.407h19.514v3.213h-22.544v-33.307H1166.65
			z"/>
		<path fill="#424242" d="M1196.87,300.078v3.214h-18.702v11.259h17.606v3.214h-17.606v12.407h19.514v3.213h-22.544v-33.307H1196.87
			z"/>
		<path fill="#424242" d="M1222.416,322.99c0.068,1.182,0.34,2.275,0.811,3.276c0.47,1.002,1.101,1.864,1.894,2.586
			c0.793,0.723,1.724,1.288,2.795,1.698s2.25,0.614,3.54,0.614c1.148,0,2.25-0.121,3.305-0.365c1.052-0.246,1.98-0.631,2.781-1.163
			s1.441-1.219,1.921-2.063c0.479-0.845,0.718-1.877,0.718-3.096c0-1.099-0.287-2.024-0.862-2.782
			c-0.574-0.757-1.327-1.407-2.26-1.946c-0.932-0.54-1.995-1.014-3.188-1.424c-1.193-0.408-2.415-0.823-3.67-1.24
			c-1.254-0.418-2.478-0.87-3.669-1.358c-1.192-0.487-2.256-1.089-3.188-1.804c-0.933-0.713-1.686-1.574-2.26-2.585
			s-0.862-2.237-0.862-3.685c0-1.375,0.265-2.589,0.797-3.645c0.53-1.053,1.275-1.941,2.233-2.662
			c0.958-0.724,2.1-1.269,3.422-1.634c1.323-0.364,2.778-0.549,4.363-0.549c2.107,0,3.866,0.314,5.275,0.941
			c1.411,0.627,2.543,1.424,3.396,2.391c0.854,0.967,1.473,2.034,1.854,3.199c0.384,1.168,0.61,2.289,0.68,3.37h-3.135
			c-0.086-1.113-0.356-2.094-0.809-2.938c-0.453-0.845-1.04-1.556-1.764-2.13s-1.554-1.005-2.495-1.292
			c-0.939-0.288-1.941-0.432-3.003-0.432c-0.958,0-1.903,0.097-2.835,0.286c-0.931,0.193-1.763,0.502-2.495,0.929
			c-0.731,0.427-1.323,0.98-1.775,1.658c-0.453,0.68-0.68,1.516-0.68,2.507c0,1.099,0.287,2.029,0.861,2.796
			c0.575,0.767,1.328,1.429,2.261,1.984c0.931,0.559,1.994,1.047,3.188,1.464c1.192,0.417,2.411,0.837,3.656,1.254
			c1.245,0.418,2.464,0.875,3.657,1.372c1.192,0.496,2.256,1.1,3.188,1.815c0.931,0.714,1.686,1.562,2.26,2.548
			c0.574,0.982,0.861,2.181,0.861,3.591c0,1.62-0.291,3.048-0.874,4.284c-0.585,1.236-1.398,2.269-2.442,3.096
			c-1.047,0.828-2.286,1.45-3.725,1.867c-1.436,0.417-2.998,0.627-4.688,0.627c-1.533,0-3.018-0.267-4.454-0.796
			c-1.437-0.531-2.722-1.284-3.854-2.261c-1.133-0.976-2.051-2.163-2.755-3.564c-0.707-1.403-1.084-2.981-1.137-4.74H1222.416z"/>
		<path fill="#424242" d="M1280.301,316.77c0,2.562-0.327,4.914-0.981,7.055c-0.652,2.143-1.603,3.983-2.848,5.524
			c-1.243,1.541-2.78,2.743-4.608,3.604c-1.83,0.863-3.919,1.294-6.271,1.294c-2.351,0-4.435-0.431-6.255-1.294
			c-1.819-0.861-3.356-2.063-4.61-3.604s-2.204-3.382-2.848-5.524c-0.646-2.141-0.967-4.493-0.967-7.055
			c0-2.558,0.321-4.909,0.967-7.051c0.644-2.143,1.594-3.983,2.848-5.524s2.791-2.743,4.61-3.606
			c1.82-0.862,3.904-1.292,6.255-1.292c2.353,0,4.441,0.43,6.271,1.292c1.828,0.863,3.365,2.065,4.608,3.606
			c1.245,1.541,2.195,3.382,2.848,5.524C1279.974,311.86,1280.301,314.212,1280.301,316.77z M1277.243,316.77
			c0-2.244-0.3-4.256-0.901-6.031c-0.6-1.778-1.424-3.279-2.468-4.509c-1.046-1.226-2.276-2.167-3.697-2.819
			c-1.419-0.654-2.947-0.979-4.585-0.979c-1.654,0-3.185,0.325-4.597,0.979c-1.411,0.652-2.637,1.594-3.684,2.819
			c-1.044,1.229-1.864,2.73-2.455,4.509c-0.591,1.775-0.889,3.787-0.889,6.031c0,2.248,0.298,4.26,0.889,6.035
			c0.591,1.778,1.411,3.283,2.455,4.521c1.047,1.234,2.272,2.181,3.684,2.834c1.412,0.653,2.942,0.98,4.597,0.98
			c1.638,0,3.166-0.327,4.585-0.98c1.421-0.653,2.651-1.6,3.697-2.834c1.044-1.237,1.868-2.742,2.468-4.521
			C1276.943,321.029,1277.243,319.018,1277.243,316.77z"/>
		<path fill="#424242" d="M1292.078,300.078l11.13,28.501l10.865-28.501h4.023v33.307h-3.029v-27.741l-10.501,27.741h-2.745
			l-10.735-27.741v27.741h-3.029v-33.307H1292.078z"/>
		<path fill="#424242" d="M1347.559,300.078v3.214h-18.703v11.259h17.606v3.214h-17.606v12.407h19.514v3.213h-22.544v-33.307
			H1347.559z"/>
		<path fill="#424242" d="M1381.15,300.078v3.214h-11.047v30.093h-3.005v-30.093h-11.051v-3.214H1381.15z"/>
		<path fill="#424242" d="M1391.861,300.078v14.473h18.649v-14.473h3.032v33.307h-3.032v-15.7h-18.649v15.7h-3.03v-33.307H1391.861z
			"/>
		<path fill="#424242" d="M1426.025,300.078v33.307h-3.03v-33.307H1426.025z"/>
		<path fill="#424242" d="M1439.791,300.078l17.448,29.206v-29.206h3.033v33.307h-4.286l-17.449-29.413v29.413h-3.03v-33.307
			H1439.791z"/>
		<path fill="#424242" d="M1471.028,316.667c0,2.282,0.314,4.32,0.94,6.112c0.628,1.793,1.478,3.309,2.548,4.546
			c1.07,1.234,2.312,2.181,3.722,2.834c1.412,0.653,2.908,0.98,4.494,0.98c1.376,0,2.718-0.344,4.021-1.034
			c1.306-0.688,2.481-1.596,3.527-2.728s1.902-2.418,2.574-3.854c0.669-1.437,1.048-2.912,1.134-4.429h-10.343v-3.135h13.166v17.424
			h-1.619l-1.072-5.93c-0.54,0.976-1.245,1.877-2.115,2.704c-0.871,0.826-1.826,1.541-2.862,2.142
			c-1.034,0.602-2.098,1.076-3.186,1.424c-1.09,0.348-2.129,0.522-3.12,0.522c-2.282,0-4.343-0.448-6.179-1.345
			c-1.838-0.896-3.4-2.138-4.69-3.724c-1.288-1.582-2.277-3.442-2.964-5.577c-0.688-2.132-1.032-4.444-1.032-6.935
			c0-1.445,0.147-2.887,0.445-4.322c0.296-1.438,0.725-2.805,1.292-4.102c0.565-1.298,1.268-2.503,2.102-3.62
			c0.838-1.113,1.8-2.079,2.888-2.898c1.088-0.818,2.291-1.458,3.604-1.919c1.315-0.461,2.746-0.692,4.299-0.692
			c1.934,0,3.661,0.26,5.186,0.782c1.521,0.522,2.849,1.25,3.981,2.183c1.132,0.932,2.086,2.041,2.862,3.331
			c0.773,1.288,1.379,2.7,1.815,4.23h-3.268c-0.886-2.489-2.188-4.345-3.904-5.562c-1.714-1.221-3.941-1.829-6.673-1.829
			c-1.708,0-3.271,0.386-4.69,1.162c-1.42,0.775-2.639,1.819-3.657,3.135c-1.02,1.314-1.811,2.843-2.378,4.584
			C1471.312,312.87,1471.028,314.715,1471.028,316.667z"/>
		<path fill="#424242" d="M1542.993,300.078v3.214h-11.048v30.093h-3.004v-30.093h-11.051v-3.214H1542.993z"/>
		<path fill="#424242" d="M1561.407,300.078l12.146,33.307h-3.292l-3.709-10.214h-14.784l-3.685,10.214h-3.345l12.278-33.307
			H1561.407z M1559.238,303.005l-6.296,17.058h12.408L1559.238,303.005z"/>
		<path fill="#424242" d="M1582.406,316.667c0,2.282,0.314,4.32,0.941,6.112c0.626,1.793,1.476,3.309,2.547,4.546
			c1.069,1.234,2.312,2.181,3.722,2.834c1.412,0.653,2.908,0.98,4.494,0.98c1.374,0,2.717-0.344,4.021-1.034
			c1.307-0.688,2.482-1.596,3.527-2.728s1.903-2.418,2.574-3.854c0.669-1.437,1.048-2.912,1.134-4.429h-10.343v-3.135h13.165v17.424
			h-1.618l-1.071-5.93c-0.541,0.976-1.246,1.877-2.116,2.704c-0.872,0.826-1.825,1.541-2.862,2.142
			c-1.036,0.602-2.099,1.076-3.187,1.424c-1.089,0.348-2.128,0.522-3.119,0.522c-2.282,0-4.344-0.448-6.181-1.345
			c-1.836-0.896-3.397-2.138-4.688-3.724c-1.29-1.582-2.277-3.442-2.965-5.577c-0.688-2.132-1.031-4.444-1.031-6.935
			c0-1.445,0.146-2.887,0.443-4.322c0.297-1.438,0.726-2.805,1.291-4.102c0.567-1.298,1.27-2.503,2.104-3.62
			c0.838-1.113,1.8-2.079,2.888-2.898c1.089-0.818,2.289-1.458,3.604-1.919s2.746-0.692,4.298-0.692c1.935,0,3.661,0.26,5.186,0.782
			c1.523,0.522,2.851,1.25,3.981,2.183c1.133,0.932,2.087,2.041,2.862,3.331c0.774,1.288,1.381,2.7,1.817,4.23h-3.268
			c-0.887-2.489-2.189-4.345-3.904-5.562c-1.715-1.221-3.941-1.829-6.675-1.829c-1.709,0-3.271,0.386-4.689,1.162
			c-1.419,0.775-2.638,1.819-3.656,3.135c-1.021,1.314-1.812,2.843-2.378,4.584C1582.689,312.87,1582.406,314.715,1582.406,316.667z
			"/>
		<path fill="#424242" d="M1632.948,322.99c0.07,1.182,0.34,2.275,0.812,3.276c0.469,1.002,1.1,1.864,1.893,2.586
			c0.793,0.723,1.724,1.288,2.795,1.698c1.07,0.41,2.249,0.614,3.54,0.614c1.148,0,2.248-0.121,3.304-0.365
			c1.053-0.246,1.98-0.631,2.782-1.163s1.44-1.219,1.921-2.063c0.479-0.845,0.717-1.877,0.717-3.096
			c0-1.099-0.288-2.024-0.862-2.782c-0.574-0.757-1.327-1.407-2.26-1.946c-0.931-0.54-1.993-1.014-3.187-1.424
			c-1.194-0.408-2.415-0.823-3.67-1.24c-1.253-0.418-2.478-0.87-3.669-1.358c-1.193-0.487-2.256-1.089-3.187-1.804
			c-0.934-0.713-1.687-1.574-2.261-2.585c-0.575-1.011-0.861-2.237-0.861-3.685c0-1.375,0.264-2.589,0.796-3.645
			c0.531-1.053,1.274-1.941,2.232-2.662c0.959-0.724,2.099-1.269,3.423-1.634c1.323-0.364,2.778-0.549,4.363-0.549
			c2.106,0,3.866,0.314,5.274,0.941c1.412,0.627,2.545,1.424,3.397,2.391c0.854,0.967,1.473,2.034,1.854,3.199
			c0.385,1.168,0.61,2.289,0.68,3.37h-3.135c-0.086-1.113-0.356-2.094-0.81-2.938c-0.452-0.845-1.04-1.556-1.764-2.13
			c-0.723-0.574-1.553-1.005-2.495-1.292c-0.938-0.288-1.941-0.432-3.002-0.432c-0.959,0-1.904,0.097-2.835,0.286
			c-0.931,0.193-1.764,0.502-2.496,0.929c-0.729,0.427-1.322,0.98-1.775,1.658c-0.452,0.68-0.68,1.516-0.68,2.507
			c0,1.099,0.288,2.029,0.862,2.796s1.327,1.429,2.262,1.984c0.93,0.559,1.993,1.047,3.186,1.464
			c1.193,0.417,2.412,0.837,3.657,1.254c1.246,0.418,2.463,0.875,3.657,1.372c1.193,0.496,2.256,1.1,3.187,1.815
			c0.931,0.714,1.686,1.562,2.26,2.548c0.574,0.982,0.862,2.181,0.862,3.591c0,1.62-0.292,3.048-0.874,4.284
			c-0.585,1.236-1.398,2.269-2.443,3.096c-1.046,0.828-2.285,1.45-3.724,1.867c-1.438,0.417-2.999,0.627-4.688,0.627
			c-1.534,0-3.019-0.267-4.454-0.796c-1.437-0.531-2.722-1.284-3.854-2.261c-1.133-0.976-2.051-2.163-2.756-3.564
			c-0.706-1.403-1.083-2.981-1.137-4.74H1632.948z"/>
		<path fill="#424242" d="M1690.836,316.77c0,2.562-0.328,4.914-0.981,7.055c-0.653,2.143-1.602,3.983-2.847,5.524
			c-1.244,1.541-2.781,2.743-4.609,3.604c-1.831,0.863-3.92,1.294-6.271,1.294s-4.436-0.431-6.256-1.294
			c-1.818-0.861-3.355-2.063-4.609-3.604s-2.204-3.382-2.847-5.524c-0.647-2.141-0.968-4.493-0.968-7.055
			c0-2.558,0.32-4.909,0.968-7.051c0.643-2.143,1.593-3.983,2.847-5.524s2.791-2.743,4.609-3.606
			c1.82-0.862,3.904-1.292,6.256-1.292s4.44,0.43,6.271,1.292c1.828,0.863,3.365,2.065,4.609,3.606
			c1.245,1.541,2.193,3.382,2.847,5.524C1690.508,311.86,1690.836,314.212,1690.836,316.77z M1687.778,316.77
			c0-2.244-0.3-4.256-0.901-6.031c-0.6-1.778-1.424-3.279-2.467-4.509c-1.047-1.226-2.277-2.167-3.697-2.819
			c-1.42-0.654-2.948-0.979-4.586-0.979c-1.654,0-3.186,0.325-4.596,0.979c-1.412,0.652-2.638,1.594-3.685,2.819
			c-1.044,1.229-1.864,2.73-2.455,4.509c-0.591,1.775-0.89,3.787-0.89,6.031c0,2.248,0.299,4.26,0.89,6.035
			c0.591,1.778,1.411,3.283,2.455,4.521c1.047,1.234,2.272,2.181,3.685,2.834c1.41,0.653,2.941,0.98,4.596,0.98
			c1.638,0,3.166-0.327,4.586-0.98s2.65-1.6,3.697-2.834c1.043-1.237,1.867-2.742,2.467-4.521
			C1687.479,321.029,1687.778,319.018,1687.778,316.77z"/>
		<path fill="#424242" d="M1702.611,300.078l11.13,28.501l10.865-28.501h4.022v33.307h-3.029v-27.741l-10.5,27.741h-2.745
			l-10.734-27.741v27.741h-3.03v-33.307H1702.611z"/>
		<path fill="#424242" d="M1758.093,300.078v3.214h-18.702v11.259h17.606v3.214h-17.606v12.407h19.514v3.213h-22.544v-33.307
			H1758.093z"/>
		<path fill="#424242" d="M1791.684,300.078v3.214h-11.049v30.093h-3.004v-30.093h-11.05v-3.214H1791.684z"/>
		<path fill="#424242" d="M1802.395,300.078v14.473h18.649v-14.473h3.033v33.307h-3.033v-15.7h-18.649v15.7h-3.03v-33.307H1802.395z
			"/>
		<path fill="#424242" d="M1836.561,300.078v33.307h-3.03v-33.307H1836.561z"/>
		<path fill="#424242" d="M1850.323,300.078l17.449,29.206v-29.206h3.031v33.307h-4.284l-17.449-29.413v29.413h-3.029v-33.307
			H1850.323z"/>
		<path fill="#424242" d="M1881.564,316.667c0,2.282,0.314,4.32,0.94,6.112c0.627,1.793,1.476,3.309,2.548,4.546
			c1.068,1.234,2.31,2.181,3.722,2.834c1.41,0.653,2.908,0.98,4.493,0.98c1.375,0,2.717-0.344,4.021-1.034
			c1.307-0.688,2.482-1.596,3.526-2.728c1.046-1.132,1.904-2.418,2.575-3.854c0.668-1.437,1.049-2.912,1.135-4.429h-10.343v-3.135
			h13.165v17.424h-1.619l-1.071-5.93c-0.54,0.976-1.245,1.877-2.115,2.704c-0.873,0.826-1.827,1.541-2.862,2.142
			c-1.036,0.602-2.1,1.076-3.188,1.424s-2.129,0.522-3.12,0.522c-2.28,0-4.343-0.448-6.179-1.345s-3.399-2.138-4.688-3.724
			c-1.29-1.582-2.277-3.442-2.964-5.577c-0.689-2.132-1.032-4.444-1.032-6.935c0-1.445,0.147-2.887,0.444-4.322
			c0.295-1.438,0.726-2.805,1.291-4.102c0.565-1.298,1.27-2.503,2.104-3.62c0.836-1.113,1.799-2.079,2.888-2.898
			c1.088-0.818,2.289-1.458,3.604-1.919c1.313-0.461,2.746-0.692,4.297-0.692c1.934,0,3.661,0.26,5.186,0.782
			c1.521,0.522,2.85,1.25,3.982,2.183c1.133,0.932,2.085,2.041,2.861,3.331c0.773,1.288,1.379,2.7,1.816,4.23h-3.267
			c-0.888-2.489-2.189-4.345-3.904-5.562c-1.716-1.221-3.942-1.829-6.675-1.829c-1.708,0-3.27,0.386-4.69,1.162
			c-1.419,0.775-2.637,1.819-3.656,3.135c-1.019,1.314-1.812,2.843-2.377,4.584C1881.846,312.87,1881.564,314.715,1881.564,316.667z
			"/>
	</g>
</g>
</svg>
