<?xml version="1.0" encoding="UTF-8" standalone="no"?>
<!-- Generator: Adobe Illustrator 15.1.0, SVG Export Plug-In . SVG Version: 6.00 Build 0)  -->

<svg
   xmlns:dc="http://purl.org/dc/elements/1.1/"
   xmlns:cc="http://creativecommons.org/ns#"
   xmlns:rdf="http://www.w3.org/1999/02/22-rdf-syntax-ns#"
   xmlns:svg="http://www.w3.org/2000/svg"
   xmlns="http://www.w3.org/2000/svg"
   xmlns:sodipodi="http://sodipodi.sourceforge.net/DTD/sodipodi-0.dtd"
   xmlns:inkscape="http://www.inkscape.org/namespaces/inkscape"
   version="1.1"
   id="Capa_1"
   x="0px"
   y="0px"
   width="449.99997"
   height="98.229301"
   viewBox="0 0 449.99997 98.229306"
   enable-background="new 0 0 480 270.149"
   xml:space="preserve"
   inkscape:version="0.48.4 r9939"
   sodipodi:docname="longomatch-light-bg.svg"><metadata
     id="metadata72"><rdf:RDF><cc:Work
         rdf:about=""><dc:format>image/svg+xml</dc:format><dc:type
           rdf:resource="http://purl.org/dc/dcmitype/StillImage" /><dc:title></dc:title></cc:Work></rdf:RDF></metadata><defs
     id="defs70" /><sodipodi:namedview
     pagecolor="#ffffff"
     bordercolor="#666666"
     borderopacity="1"
     objecttolerance="10"
     gridtolerance="10"
     guidetolerance="10"
     inkscape:pageopacity="0"
     inkscape:pageshadow="2"
     inkscape:window-width="1600"
     inkscape:window-height="845"
     id="namedview68"
     showgrid="false"
     fit-margin-top="0"
     fit-margin-left="0"
     fit-margin-right="0"
     fit-margin-bottom="0"
     inkscape:zoom="2.3716658"
     inkscape:cx="227.51838"
     inkscape:cy="29.003743"
     inkscape:window-x="0"
     inkscape:window-y="27"
     inkscape:window-maximized="1"
     inkscape:current-layer="Capa_1" /><g
     id="g3"
     transform="matrix(1.2406606,0,0,1.2406606,-72.505457,-112.13711)"
     inkscape:export-filename="/home/andoni/git/longomatch-rework/data/images/longomatch-light-bg.svg.png"
     inkscape:export-xdpi="90"
     inkscape:export-ydpi="90"><g
       id="g5"><linearGradient
         id="SVGID_1_"
         gradientUnits="userSpaceOnUse"
         x1="71.2817"
         y1="96.773903"
         x2="119.3462"
         y2="166.0764"><stop
           offset="0"
           style="stop-color:#ABD05C"
           id="stop8" /><stop
           offset="1"
           style="stop-color:#6E921C"
           id="stop10" /></linearGradient><path
         d="m 90.878,106.999 c 2.013,-0.545 3.708,-0.812 3.793,-0.824 v -5.632 l -5.309,-0.477 v -8.718 c 0,0 3.875,-0.963 9.681,-0.963 6.195,0 9.678,0.963 9.678,0.963 v 8.718 l -5.224,0.467 v 5.638 c 0.103,0.01 1.259,0.117 3.812,0.802 2.553,0.688 3.839,1.248 3.839,1.248 11.618,4.751 19.812,16.161 19.815,29.489 0,17.591 -14.259,31.85 -31.849,31.85 -8.821,0 -16.8,-3.587 -22.568,-9.384 l 6.023,-7.594 c 4.071,4.529 9.972,7.378 16.543,7.378 12.289,0 22.253,-9.96 22.253,-22.246 0,-12.29 -9.965,-22.252 -22.253,-22.252 -12.277,0 -22.225,9.942 -22.249,22.206 h 9.069 L 72.171,155.02 58.441,137.667 h 8.831 c 0.007,-5.774 1.554,-11.188 4.253,-15.855 l -4.381,-3.356 -2.115,2.023 -5.694,-4.362 c 0,0 -0.358,-1.407 2.481,-5.469 2.163,-3.102 4.734,-3.961 4.734,-3.961 l 5.697,4.36 -1.41,2.56 4.223,3.235 c 3.337,-3.841 7.575,-6.872 12.387,-8.77 0,0.002 1.419,-0.523 3.431,-1.073 z"
         id="path12"
         style="fill:url(#SVGID_1_)"
         inkscape:connector-curvature="0" /><g
         id="g14"><path
           d="m 155.972,115.807 h 4.329 v 20.684 h 12.948 v 3.939 h -17.276 v -24.623 z"
           id="path16"
           inkscape:connector-curvature="0"
           style="fill:#1a1a1a" /><path
           d="m 175.249,128.188 v -0.07 c 0,-6.932 5.348,-12.735 12.914,-12.735 7.56,0 12.839,5.736 12.839,12.664 v 0.071 c 0,6.932 -5.347,12.734 -12.911,12.734 -7.563,0.001 -12.842,-5.735 -12.842,-12.664 z m 21.214,0 v -0.07 c 0,-4.782 -3.48,-8.762 -8.372,-8.762 -4.89,0 -8.304,3.907 -8.304,8.691 v 0.071 c 0,4.783 3.483,8.725 8.375,8.725 4.888,0.001 8.301,-3.87 8.301,-8.655 z"
           id="path18"
           inkscape:connector-curvature="0"
           style="fill:#1a1a1a" /><path
           d="m 206.24,115.807 h 4.01 l 13.193,17.029 v -17.029 h 4.257 v 24.623 h -3.624 l -13.58,-17.519 v 17.519 h -4.256 v -24.623 z"
           id="path20"
           inkscape:connector-curvature="0"
           style="fill:#1a1a1a" /><path
           d="m 232.938,128.188 v -0.07 c 0,-6.898 5.278,-12.735 12.699,-12.735 4.293,0 6.933,1.195 9.464,3.339 l -2.743,3.273 c -1.898,-1.617 -3.764,-2.64 -6.895,-2.64 -4.539,0 -7.985,3.979 -7.985,8.691 v 0.071 c 0,5.064 3.34,8.797 8.372,8.797 2.322,0 4.433,-0.742 5.945,-1.866 v -4.611 h -6.298 v -3.766 h 10.485 v 10.344 c -2.427,2.078 -5.911,3.835 -10.273,3.835 -7.706,0.003 -12.771,-5.483 -12.771,-12.662 z"
           id="path22"
           inkscape:connector-curvature="0"
           style="fill:#1a1a1a" /><path
           d="m 260.516,128.188 v -0.07 c 0,-6.932 5.348,-12.735 12.914,-12.735 7.562,0 12.841,5.736 12.841,12.664 v 0.071 c 0,6.932 -5.348,12.734 -12.914,12.734 -7.564,0.001 -12.841,-5.735 -12.841,-12.664 z m 21.213,0 v -0.07 c 0,-4.782 -3.479,-8.762 -8.373,-8.762 -4.89,0 -8.299,3.907 -8.299,8.691 v 0.071 c 0,4.783 3.48,8.725 8.372,8.725 4.891,0.001 8.3,-3.87 8.3,-8.655 z"
           id="path24"
           inkscape:connector-curvature="0"
           style="fill:#1a1a1a" /><path
           d="m 292.027,114.367 h 2.978 l 9.494,14.225 9.499,-14.225 h 2.977 v 26.063 h -2.94 v -21.113 l -9.495,13.967 h -0.152 l -9.491,-13.927 v 21.073 h -2.868 v -26.063 z"
           id="path26"
           inkscape:connector-curvature="0"
           style="fill:#1a1a1a" /><path
           d="m 333.99,114.181 h 2.756 l 11.875,26.249 h -3.164 l -3.053,-6.886 h -14.188 l -3.091,6.886 h -3.017 l 11.882,-26.249 z m 7.259,16.681 -5.917,-13.258 -5.962,13.258 h 11.879 z"
           id="path28"
           inkscape:connector-curvature="0"
           style="fill:#1a1a1a" /><path
           d="m 357.295,117.083 h -8.749 v -2.716 h 20.479 v 2.716 h -8.75 v 23.347 h -2.98 v -23.347 z"
           id="path30"
           inkscape:connector-curvature="0"
           style="fill:#1a1a1a" /><path
           d="M 371.593,127.475 V 127.4 c 0,-7.374 5.51,-13.483 13.182,-13.483 4.729,0 7.558,1.674 10.165,4.134 l -2.01,2.161 c -2.196,-2.087 -4.655,-3.575 -8.191,-3.575 -5.771,0 -10.093,4.691 -10.093,10.689 v 0.074 c 0,6.033 4.358,10.761 10.093,10.761 3.575,0 5.921,-1.378 8.416,-3.761 l 1.935,1.899 c -2.717,2.756 -5.697,4.578 -10.427,4.578 -7.522,0 -13.07,-5.919 -13.07,-13.402 z"
           id="path32"
           inkscape:connector-curvature="0"
           style="fill:#1a1a1a" /><path
           d="m 400.223,114.367 h 2.945 v 11.582 h 15.041 v -11.582 h 2.942 v 26.063 h -2.942 v -11.728 h -15.041 v 11.728 h -2.945 v -26.063 z"
           id="path34"
           inkscape:connector-curvature="0"
           style="fill:#1a1a1a" /></g><g
         id="g36"><path
           d="m 159.137,150.475 h -3.52 v -0.69 h 7.791 v 0.69 h -3.521 v 9.406 h -0.75 v -9.406 z"
           id="path38"
           inkscape:connector-curvature="0"
           style="fill:#1a1a1a" /><path
           d="m 172.902,149.785 h 0.75 v 4.672 h 6.463 v -4.672 h 0.75 v 10.097 h -0.75 v -4.731 h -6.463 v 4.731 h -0.75 v -10.097 z"
           id="path40"
           inkscape:connector-curvature="0"
           style="fill:#1a1a1a" /><path
           d="m 191.083,149.785 h 7.185 v 0.69 h -6.434 v 3.969 h 5.784 v 0.69 h -5.784 v 4.058 h 6.505 v 0.689 h -7.257 v -10.096 z"
           id="path42"
           inkscape:connector-curvature="0"
           style="fill:#1a1a1a" /><path
           d="m 219.508,149.785 h 3.36 c 3.174,0 5.369,2.175 5.369,5.019 v 0.03 c 0,2.841 -2.195,5.048 -5.369,5.048 h -3.36 v -10.097 z m 0.749,0.69 v 8.717 h 2.612 c 2.814,0 4.589,-1.924 4.589,-4.33 v -0.028 c 0,-2.397 -1.775,-4.358 -4.589,-4.358 h -2.612 z"
           id="path44"
           inkscape:connector-curvature="0"
           style="fill:#1a1a1a" /><path
           d="m 238.105,149.785 h 0.751 v 10.097 h -0.751 v -10.097 z"
           id="path46"
           inkscape:connector-curvature="0"
           style="fill:#1a1a1a" /><path
           d="m 248.726,154.862 v -0.028 c 0,-2.728 1.978,-5.226 4.992,-5.226 1.643,0 2.682,0.494 3.691,1.33 l -0.489,0.562 c -0.792,-0.693 -1.715,-1.209 -3.246,-1.209 -2.453,0 -4.17,2.073 -4.17,4.513 v 0.03 c 0,2.609 1.631,4.556 4.329,4.556 1.283,0 2.48,-0.532 3.217,-1.154 v -2.898 h -3.376 v -0.695 h 4.099 v 3.897 c -0.911,0.808 -2.323,1.516 -3.968,1.516 -3.19,-0.002 -5.079,-2.352 -5.079,-5.194 z"
           id="path48"
           inkscape:connector-curvature="0"
           style="fill:#1a1a1a" /><path
           d="m 267.801,149.785 h 0.749 v 10.097 h -0.749 v -10.097 z"
           id="path50"
           inkscape:connector-curvature="0"
           style="fill:#1a1a1a" /><path
           d="m 281.667,150.475 h -3.521 v -0.69 h 7.791 v 0.69 h -3.522 v 9.406 h -0.748 v -9.406 z"
           id="path52"
           inkscape:connector-curvature="0"
           style="fill:#1a1a1a" /><path
           d="m 297.971,149.711 h 0.722 l 4.703,10.17 h -0.824 l -1.285,-2.828 h -5.958 l -1.281,2.828 h -0.78 l 4.703,-10.17 z m 2.998,6.666 -2.652,-5.844 -2.667,5.844 h 5.319 z"
           id="path54"
           inkscape:connector-curvature="0"
           style="fill:#1a1a1a" /><path
           d="m 312.747,149.785 h 0.75 v 9.407 h 5.929 v 0.689 h -6.679 v -10.096 z"
           id="path56"
           inkscape:connector-curvature="0"
           style="fill:#1a1a1a" /><path
           d="m 339.985,154.862 v -0.028 c 0,-2.86 2.137,-5.226 5.051,-5.226 1.804,0 2.884,0.666 3.923,1.617 l -0.533,0.549 c -0.88,-0.85 -1.89,-1.483 -3.403,-1.483 -2.425,0 -4.255,1.974 -4.255,4.513 v 0.03 c 0,2.552 1.859,4.543 4.269,4.543 1.455,0 2.453,-0.562 3.479,-1.575 l 0.503,0.492 c -1.069,1.053 -2.221,1.761 -4.011,1.761 -2.886,-0.001 -5.023,-2.295 -5.023,-5.193 z"
           id="path58"
           inkscape:connector-curvature="0"
           style="fill:#1a1a1a" /><path
           d="m 357.561,154.862 v -0.028 c 0,-2.756 2.035,-5.226 5.095,-5.226 3.057,0 5.062,2.439 5.062,5.195 v 0.03 c 0,2.756 -2.034,5.221 -5.095,5.221 -3.057,0 -5.062,-2.436 -5.062,-5.192 z m 9.378,0 v -0.028 c 0,-2.497 -1.819,-4.543 -4.316,-4.543 -2.493,0 -4.284,2.016 -4.284,4.513 v 0.03 c 0,2.491 1.821,4.543 4.316,4.543 2.494,-0.001 4.284,-2.021 4.284,-4.515 z"
           id="path60"
           inkscape:connector-curvature="0"
           style="fill:#1a1a1a" /><path
           d="m 380.746,149.711 h 0.723 l 4.702,10.17 h -0.823 l -1.283,-2.828 h -5.957 l -1.283,2.828 h -0.779 l 4.7,-10.17 z m 3.001,6.666 -2.654,-5.844 -2.668,5.844 h 5.322 z"
           id="path62"
           inkscape:connector-curvature="0"
           style="fill:#1a1a1a" /><path
           d="m 394.498,154.862 v -0.028 c 0,-2.86 2.136,-5.226 5.051,-5.226 1.804,0 2.885,0.666 3.924,1.617 l -0.533,0.549 c -0.879,-0.85 -1.89,-1.483 -3.405,-1.483 -2.425,0 -4.256,1.974 -4.256,4.513 v 0.03 c 0,2.552 1.859,4.543 4.271,4.543 1.456,0 2.451,-0.562 3.474,-1.575 l 0.506,0.492 c -1.066,1.053 -2.221,1.761 -4.009,1.761 -2.887,-0.001 -5.023,-2.295 -5.023,-5.193 z"
           id="path64"
           inkscape:connector-curvature="0"
           style="fill:#1a1a1a" /><path
           d="m 412.811,149.785 h 0.749 v 4.672 h 6.461 v -4.672 h 0.752 v 10.097 h -0.752 v -4.731 h -6.461 v 4.731 h -0.749 v -10.097 z"
           id="path66"
           inkscape:connector-curvature="0"
           style="fill:#1a1a1a" /></g></g></g></svg>