<?xml version="1.0" encoding="UTF-8" standalone="no"?>
<!-- Generator: Adobe Illustrator 16.0.0, SVG Export Plug-In . SVG Version: 6.00 Build 0)  -->

<svg
   xmlns:dc="http://purl.org/dc/elements/1.1/"
   xmlns:cc="http://creativecommons.org/ns#"
   xmlns:rdf="http://www.w3.org/1999/02/22-rdf-syntax-ns#"
   xmlns:svg="http://www.w3.org/2000/svg"
   xmlns="http://www.w3.org/2000/svg"
   xmlns:sodipodi="http://sodipodi.sourceforge.net/DTD/sodipodi-0.dtd"
   xmlns:inkscape="http://www.inkscape.org/namespaces/inkscape"
   version="1.1"
   id="Capa_1"
   inkscape:version="0.48.4 r9939"
   sodipodi:docname="longomatch-dark-bg.svg"
   x="0px"
   y="0px"
   width="1920px"
   height="419.141px"
   viewBox="0 0 1920 419.141"
   enable-background="new 0 0 1920 419.141"
   xml:space="preserve"><metadata
     id="metadata3313"><rdf:RDF><cc:Work
         rdf:about=""><dc:format>image/svg+xml</dc:format><dc:type
           rdf:resource="http://purl.org/dc/dcmitype/StillImage" /></cc:Work></rdf:RDF></metadata><defs
     id="defs3311" /><sodipodi:namedview
     id="namedview32"
     bordercolor="#666666"
     pagecolor="#ffffff"
     borderopacity="1"
     objecttolerance="10"
     gridtolerance="10"
     guidetolerance="10"
     showgrid="false"
     fit-margin-top="0"
     fit-margin-left="0"
     inkscape:zoom="1.3479301"
     inkscape:cx="1464.8369"
     inkscape:cy="204.46888"
     inkscape:pageopacity="0"
     inkscape:pageshadow="2"
     inkscape:window-width="1871"
     inkscape:window-height="860"
     fit-margin-right="0"
     fit-margin-bottom="0"
     inkscape:window-x="68"
     inkscape:window-y="34"
     inkscape:window-maximized="0"
     inkscape:current-layer="g3207" /><g
     id="g3207"><g
       id="g3209"><path
         fill="#676767"
         d="M175.464,138.05v15.751h-70.997v104.78H71.754v-104.78H0.756V138.05H175.464z"
         id="path3211" /><path
         fill="#676767"
         d="M390.792,138.05l81.089,120.531h-34.976l-23.839-35.557h-84.222c-3.829,5.722-7.805,11.647-11.921,17.778    c-4.118,6.129-8.034,12.059-11.746,17.778h-35.323l81.959-120.531H390.792z M371.477,160.78    c-5.454,7.921-10.762,15.655-15.922,23.199c-5.163,7.545-10.527,15.436-16.096,23.672h62.818L371.477,160.78z"
         id="path3213" /><path
         fill="#676767"
         d="M1115.955,138.05v15.751h-70.997v104.78h-32.713v-104.78h-70.998V138.05H1115.955z"
         id="path3215" /><path
         fill="#676767"
         d="M1288.476,138.05v120.531h-32.886V138.05H1288.476z"
         id="path3217" /><path
         fill="#676767"
         d="M1459.604,196.807c0,8.487,1.976,15.843,5.917,22.068c3.943,6.226,9.138,11.381,15.576,15.468    c6.437,4.089,13.717,7.137,21.839,9.147c8.119,2.014,16.354,3.018,24.708,3.018c8.584,0,16.385-0.91,23.404-2.733    c7.02-1.825,13.168-4.244,18.448-7.264c5.274-3.017,9.627-6.443,13.05-10.278c3.422-3.836,5.828-7.796,7.221-11.885h33.237    c-2.323,6.602-6.093,12.795-11.313,18.58c-5.217,5.784-11.859,10.829-19.924,15.136s-17.461,7.704-28.188,10.187    c-10.731,2.482-22.708,3.724-35.935,3.724c-15.429,0-29.38-1.477-41.852-4.433c-12.472-2.952-23.084-7.242-31.841-12.872    c-8.76-5.625-15.517-12.48-20.271-20.559c-4.76-8.081-7.138-17.244-7.138-27.493c0-5.281,1.015-10.483,3.045-15.607    c2.029-5.125,5.02-9.981,8.962-14.572c3.945-4.588,8.79-8.817,14.53-12.684c5.745-3.868,12.358-7.215,19.839-10.045    c7.482-2.83,15.776-5.045,24.886-6.648c9.103-1.604,18.937-2.405,29.493-2.405c13.338,0,25.319,1.022,35.933,3.065    c10.614,2.043,19.895,4.904,27.841,8.582c7.946,3.677,14.646,8.033,20.101,13.062c5.451,5.031,9.746,10.532,12.878,16.504h-34.282    c-5.569-8.676-13.457-15.136-23.664-19.381c-10.211-4.244-23.145-6.366-38.806-6.366c-9.978,0-19.115,1.259-27.406,3.773    c-8.299,2.515-15.432,5.91-21.404,10.185c-5.975,4.276-10.617,9.243-13.922,14.902    C1461.262,184.64,1459.604,190.582,1459.604,196.807z"
         id="path3219" /><path
         fill="#676767"
         d="M1785.429,217.837c0.466,4.151,2.06,7.955,4.789,11.413c2.722,3.457,6.35,6.459,10.874,9.006    c4.525,2.547,9.834,4.528,15.924,5.941c6.088,1.415,12.789,2.122,20.099,2.122c6.496,0,12.727-0.378,18.703-1.132    c5.976-0.756,11.227-1.963,15.751-3.632c4.525-1.665,8.147-3.833,10.873-6.506c2.727-2.672,4.09-5.927,4.09-9.761    c0-3.27-1.478-6.037-4.438-8.3c-2.957-2.265-6.932-4.243-11.918-5.941c-4.99-1.698-10.677-3.175-17.056-4.433    c-6.382-1.258-12.991-2.514-19.835-3.773c-9.049-1.634-18.041-3.362-26.972-5.186c-8.938-1.822-16.969-4.071-24.102-6.744    c-7.136-2.671-12.906-5.941-17.314-9.808c-4.411-3.868-6.613-8.661-6.613-14.383c0-5.155,1.882-9.715,5.657-13.675    c3.766-3.961,9.016-7.292,15.746-9.997c6.727-2.703,14.762-4.746,24.101-6.13c9.339-1.383,19.575-2.075,30.714-2.075    c14.85,0,27.231,1.226,37.149,3.678c9.923,2.452,17.895,5.597,23.93,9.431c6.03,3.836,10.412,8.049,13.138,12.638    c2.726,4.59,4.318,9.023,4.785,13.298h-33.586c-0.579-3.835-2.148-7.23-4.697-10.186c-2.554-2.955-5.858-5.437-9.918-7.45    c-4.063-2.012-8.73-3.521-14.01-4.528c-5.28-1.004-10.874-1.509-16.791-1.509c-5.339,0-10.59,0.299-15.747,0.896    c-5.161,0.598-9.806,1.541-13.923,2.83c-4.119,1.289-7.426,2.987-9.917,5.092c-2.495,2.107-3.741,4.669-3.741,7.687    c0,3.27,1.506,6.068,4.525,8.394c3.015,2.327,7.016,4.355,12.006,6.083c4.985,1.729,10.701,3.239,17.138,4.526    c6.438,1.29,13.14,2.562,20.101,3.82c9.05,1.635,17.982,3.381,26.796,5.234c8.815,1.855,16.762,4.118,23.842,6.792    c7.073,2.671,12.789,5.909,17.138,9.712c4.354,3.806,6.525,8.476,6.525,14.007c0,6.034-2.059,11.348-6.177,15.939    c-4.118,4.588-9.829,8.408-17.14,11.456c-7.31,3.054-15.98,5.364-26.016,6.933c-10.035,1.572-20.968,2.356-32.798,2.356    c-10.677,0-21.057-1.019-31.149-3.065c-10.094-2.042-19.084-4.982-26.973-8.814c-7.889-3.838-14.301-8.474-19.229-13.912    c-4.931-5.438-7.569-11.554-7.916-18.345H1785.429z"
         id="path3221" /></g><path
       d="M197.407,199.037"
       id="path3223" /><path
       fill="#988E82"
       d="M700.899,107.796c-48.996,0-88.709,39.717-88.709,88.71c0,48.994,39.713,88.712,88.709,88.712   c48.991,0,88.709-39.718,88.709-88.712C789.608,147.514,749.891,107.796,700.899,107.796z M700.899,266.322   c-38.559,0-69.817-31.257-69.817-69.815c0-38.562,31.259-69.82,69.817-69.82c38.56,0,69.82,31.258,69.82,69.82   C770.72,235.065,739.459,266.322,700.899,266.322z"
       id="path3225" /><circle
       fill="none"
       stroke="#988E82"
       stroke-miterlimit="10"
       cx="700.899"
       cy="196.507"
       r="103.704"
       id="circle3227" /><g
       id="g3229"><g
         id="g3231"><path
           fill="#988E82"
           stroke="#988E82"
           stroke-miterlimit="10"
           d="M696,32.57h-2v110.35c0-0.04,2-0.128,2-0.128V32.57z"
           id="path3233" /><path
           fill="#988E82"
           stroke="#988E82"
           stroke-miterlimit="10"
           d="M529,199.57v3h118.314c-0.04,0-0.129,0-0.129-3H529z"
           id="path3235" /><path
           fill="#988E82"
           stroke="#988E82"
           stroke-miterlimit="10"
           d="M863,199.57H754.612c0,3-0.089,3-0.129,3H863V199.57z"
           id="path3237" /><path
           fill="#988E82"
           stroke="#988E82"
           stroke-miterlimit="10"
           d="M694,368.57h2V250.224c0,0-2-0.093-2-0.13V368.57z"
           id="path3239" /></g></g><rect
       x="730.5"
       y="184.07"
       fill="#988E82"
       width="115"
       height="29"
       id="rect3241" /><g
       id="g3243"><path
         fill="#988E82"
         d="M805.22,199.07c-1.018,56-47.318,102.132-104.32,102.132c-57.639,0-104.365-46.895-104.365-104.535    c0-57.638,46.727-104.449,104.365-104.449c26.057,0,49.865,9.532,68.154,25.324l19.13-19.151    c-23.209-20.654-53.772-33.234-87.284-33.234c-72.546,0-131.353,58.802-131.353,131.351c0,72.543,58.807,131.364,131.353,131.364    c71.908,0,130.283-57.802,131.307-128.802C823.132,199.07,814.888,199.07,805.22,199.07z"
         id="path3245" /></g><path
       fill="#988E82"
       d="M804.948,199.037c-1.348,56.327-47.398,101.584-104.049,101.584c-57.5,0-104.113-46.615-104.113-104.114   c0-56.973,45.761-103.254,102.532-104.101c0.525-0.007,1.054-0.012,1.581-0.012c0-11.892,0-23.783,0-35.676   c-0.529,0-1.057,0.003-1.583,0.008c-76.473,0.849-138.206,63.107-138.206,139.781c0,77.204,62.586,139.789,139.789,139.789   c76.355,0,138.369-61.226,139.724-137.259C828.857,199.037,816.326,199.037,804.948,199.037z"
       id="path3247" /><path
       d="M203.849,562.452"
       id="path3249" /></g></svg>