<?xml version="1.0" encoding="UTF-8" standalone="no"?>
<!-- Generator: Adobe Illustrator 14.0.0, SVG Export Plug-In . SVG Version: 6.00 Build 43363)  -->

<svg
   xmlns:dc="http://purl.org/dc/elements/1.1/"
   xmlns:cc="http://creativecommons.org/ns#"
   xmlns:rdf="http://www.w3.org/1999/02/22-rdf-syntax-ns#"
   xmlns:svg="http://www.w3.org/2000/svg"
   xmlns="http://www.w3.org/2000/svg"
   xmlns:xlink="http://www.w3.org/1999/xlink"
   xmlns:sodipodi="http://sodipodi.sourceforge.net/DTD/sodipodi-0.dtd"
   xmlns:inkscape="http://www.inkscape.org/namespaces/inkscape"
   version="1.1"
   id="Capa_1"
   x="0px"
   y="0px"
   width="1920"
   height="419.14078"
   viewBox="0 0 1920 419.14076"
   enable-background="new 0 0 480 270.148"
   xml:space="preserve"
   inkscape:version="0.48.4 r9939"
   sodipodi:docname="Longomatch-green-black.svg"><metadata
     id="metadata36"><rdf:RDF><cc:Work
         rdf:about=""><dc:format>image/svg+xml</dc:format><dc:type
           rdf:resource="http://purl.org/dc/dcmitype/StillImage" /><dc:title></dc:title></cc:Work></rdf:RDF></metadata><defs
     id="defs34"><linearGradient
       inkscape:collect="always"
       xlink:href="#SVGID_1_"
       id="linearGradient3027"
       gradientUnits="userSpaceOnUse"
       gradientTransform="translate(-58.13,-90.353005)"
       x1="126.9075"
       y1="166.37669"
       x2="69.907501"
       y2="99.376701" /></defs><sodipodi:namedview
     pagecolor="#ffffff"
     bordercolor="#666666"
     borderopacity="1"
     objecttolerance="10"
     gridtolerance="10"
     guidetolerance="10"
     inkscape:pageopacity="0"
     inkscape:pageshadow="2"
     inkscape:window-width="804"
     inkscape:window-height="480"
     id="namedview32"
     showgrid="false"
     fit-margin-top="0"
     fit-margin-left="0"
     fit-margin-right="0"
     fit-margin-bottom="0"
     inkscape:zoom="1.1261188"
     inkscape:cx="885.78852"
     inkscape:cy="204.46888"
     inkscape:window-x="0"
     inkscape:window-y="27"
     inkscape:window-maximized="0"
     inkscape:current-layer="Capa_1" /><linearGradient
     id="SVGID_1_"
     gradientUnits="userSpaceOnUse"
     x1="126.9075"
     y1="166.37669"
     x2="69.907501"
     y2="99.376701"
     gradientTransform="translate(-58.13,-90.353005)"><stop
       offset="0"
       style="stop-color:#6E921C"
       id="stop4" /><stop
       offset="1"
       style="stop-color:#ABD05C"
       id="stop6" /></linearGradient><g
     id="g3013"
     transform="matrix(5.2895768,0,0,5.2895768,0,2.5066442e-5)"><path
       style="fill:url(#linearGradient3027)"
       inkscape:connector-curvature="0"
       id="path8"
       d="m 32.464,16.629995 c 2.014,-0.545 3.708,-0.816 3.797,-0.825 v -5.639 L 30.943,9.6869949 V 0.96699487 c 0,0 3.883,-0.9669999969531 9.692,-0.9669999969531 6.198,0 9.687,0.9669999969531 9.687,0.9669999969531 V 9.6889949 l -5.229,0.4680001 v 5.646 c 0.103,0.006 1.258,0.117 3.816,0.802 2.555,0.688 3.84,1.25 3.84,1.25 11.625,4.756 19.829,16.17 19.829,29.508 0,17.604 -14.271,31.876 -31.869,31.876 -8.826,0 -16.814,-3.59 -22.585,-9.393 l 6.023,-7.601 c 4.074,4.528 9.979,7.382 16.558,7.382 12.297,0 22.269,-9.962 22.269,-22.263 0,-12.3 -9.972,-22.268 -22.269,-22.268 -12.286,0 -22.243,9.949 -22.27,22.223 h 9.076 l -13.769,17.36 L 0,47.318995 h 8.837 c 0.005,-5.776 1.553,-11.196 4.256,-15.871 l -4.384,-3.354 -2.116,2.028 -5.701,-4.367 c 0,0 -0.354,-1.407 2.488,-5.479 2.163,-3.104 4.737,-3.965 4.737,-3.965 l 5.697,4.367 -1.408,2.559 4.227,3.242 c 3.335,-3.847 7.58,-6.878 12.397,-8.772 10e-4,0.001 1.417,-0.528 3.434,-1.077 z" /><g
       transform="translate(-58.13,-90.353005)"
       id="g10"><path
         style="fill:#252627"
         inkscape:connector-curvature="0"
         id="path12"
         d="m 155.734,125.384 h 4.333 v 20.699 h 12.958 v 3.94 h -17.29 l -0.001,-24.639 0,0 z" /><path
         style="fill:#252627"
         inkscape:connector-curvature="0"
         id="path14"
         d="m 175.029,137.778 v -0.074 c 0,-6.935 5.354,-12.743 12.922,-12.743 7.565,0 12.851,5.738 12.851,12.674 v 0.069 c 0,6.938 -5.351,12.742 -12.917,12.742 -7.578,0 -12.856,-5.736 -12.856,-12.668 z m 21.23,0 v -0.074 c 0,-4.786 -3.485,-8.771 -8.378,-8.771 -4.897,0 -8.313,3.91 -8.313,8.698 v 0.069 c 0,4.79 3.486,8.729 8.383,8.729 4.89,0.004 8.308,-3.868 8.308,-8.651 z" /><path
         style="fill:#252627"
         inkscape:connector-curvature="0"
         id="path16"
         d="m 206.043,125.384 h 4.009 l 13.204,17.037 v -17.037 h 4.26 v 24.643 h -3.626 l -13.593,-17.53 v 17.53 h -4.254 v -24.643 l 0,0 z" /><path
         style="fill:#252627"
         inkscape:connector-curvature="0"
         id="path18"
         d="m 232.758,137.778 v -0.074 c 0,-6.901 5.283,-12.743 12.715,-12.743 4.294,0 6.933,1.196 9.464,3.341 l -2.743,3.274 c -1.897,-1.617 -3.768,-2.643 -6.896,-2.643 -4.545,0 -7.995,3.981 -7.995,8.698 v 0.069 c 0,5.07 3.344,8.801 8.378,8.801 2.328,0 4.437,-0.737 5.952,-1.86 v -4.617 h -6.305 v -3.768 h 10.491 v 10.354 c -2.432,2.077 -5.917,3.834 -10.277,3.834 -7.717,0.002 -12.784,-5.488 -12.784,-12.666 z" /><path
         style="fill:#252627"
         inkscape:connector-curvature="0"
         id="path20"
         d="m 260.358,137.778 v -0.074 c 0,-6.935 5.352,-12.743 12.925,-12.743 7.565,0 12.85,5.738 12.85,12.674 v 0.069 c 0,6.938 -5.354,12.742 -12.92,12.742 -7.574,0 -12.855,-5.736 -12.855,-12.668 z m 21.229,0 v -0.074 c 0,-4.786 -3.485,-8.771 -8.378,-8.771 -4.896,0 -8.312,3.91 -8.312,8.698 v 0.069 c 0,4.79 3.484,8.729 8.381,8.729 4.896,0.004 8.309,-3.868 8.309,-8.651 z" /><path
         style="fill:#252627"
         inkscape:connector-curvature="0"
         id="path22"
         d="m 291.892,123.943 h 2.982 l 9.496,14.229 9.509,-14.229 h 2.979 v 26.081 h -2.943 v -21.127 l -9.498,13.976 h -0.149 l -9.502,-13.938 v 21.091 h -2.87 l -0.004,-26.083 0,0 z" /><path
         style="fill:#252627"
         inkscape:connector-curvature="0"
         id="path24"
         d="m 333.883,123.755 h 2.756 l 11.893,26.271 h -3.169 l -3.058,-6.895 h -14.197 l -3.091,6.895 h -3.021 l 11.887,-26.271 z m 7.267,16.694 -5.921,-13.267 -5.966,13.267 h 11.887 z" /><path
         style="fill:#252627"
         inkscape:connector-curvature="0"
         id="path26"
         d="m 357.203,126.659 h -8.752 v -2.717 h 20.492 v 2.717 h -8.754 v 23.364 h -2.986 v -23.364 z" /><path
         style="fill:#252627"
         inkscape:connector-curvature="0"
         id="path28"
         d="m 371.515,137.057 v -0.071 c 0,-7.382 5.515,-13.492 13.188,-13.492 4.735,0 7.565,1.675 10.177,4.137 l -2.011,2.161 c -2.198,-2.089 -4.66,-3.578 -8.197,-3.578 -5.776,0 -10.103,4.696 -10.103,10.696 v 0.076 c 0,6.039 4.36,10.769 10.103,10.769 3.572,0 5.925,-1.378 8.419,-3.763 l 1.938,1.896 c -2.719,2.761 -5.702,4.59 -10.432,4.59 -7.527,-0.003 -13.082,-5.93 -13.082,-13.421 z" /><path
         style="fill:#252627"
         inkscape:connector-curvature="0"
         id="path30"
         d="m 400.17,123.943 h 2.944 v 11.587 h 15.054 v -11.587 h 2.94 v 26.081 h -2.94 v -11.736 h -15.054 v 11.736 h -2.944 v -26.081 z" /></g></g></svg>