<?xml version="1.0" encoding="utf-8"?>
<!-- Generator: Adobe Illustrator 17.0.0, SVG Export Plug-In . SVG Version: 6.00 Build 0)  -->
<!DOCTYPE svg PUBLIC "-//W3C//DTD SVG 1.1//EN" "http://www.w3.org/Graphics/SVG/1.1/DTD/svg11.dtd">
<svg version="1.1" id="Calque_1" xmlns="http://www.w3.org/2000/svg" xmlns:xlink="http://www.w3.org/1999/xlink" x="0px" y="0px"
	 width="20px" height="20px" viewBox="0 -2.219 20 20" enable-background="new 0 -2.219 20 20" xml:space="preserve">
<g id="c115_arrows">
	<path fill="#00FF64" d="M19.999,11.727c0-0.633-0.469-1.144-1.051-1.144c-0.578,0.001-1.052,0.512-1.052,1.144v2.368l-4.244-4.388
		c-0.41-0.425-1.075-0.425-1.485,0c-0.41,0.424-0.41,1.113,0,1.537l4.223,4.363h-2.281c-0.621,0.001-1.122,0.488-1.122,1.087
		c0,0.6,0.501,1.086,1.122,1.086h4.768c0.621,0,1.121-0.485,1.123-1.086c-0.002-0.016-0.004-0.028-0.006-0.044
		C19.996,16.629,20,16.607,20,16.586L19.999,11.727L19.999,11.727z"/>
	<path fill="#00FF64" d="M6.347,9.707l-4.242,4.388v-2.368c0-0.633-0.474-1.143-1.053-1.144c-0.581,0-1.051,0.512-1.051,1.144
		L0,16.588c0,0.021,0.006,0.043,0.007,0.063c-0.001,0.015-0.004,0.028-0.006,0.044c0.001,0.601,0.502,1.086,1.123,1.086h4.769
		c0.62,0,1.121-0.485,1.121-1.086c0-0.599-0.501-1.085-1.121-1.087H3.611l4.223-4.363c0.409-0.424,0.409-1.113,0-1.537
		C7.424,9.282,6.759,9.282,6.347,9.707z"/>
	<path fill="#00FF64" d="M13.652,5.853l4.244-4.385v2.368c0,0.63,0.475,1.141,1.052,1.143c0.582,0,1.051-0.512,1.051-1.143v-4.862
		c0-0.021-0.004-0.043-0.006-0.062c0.002-0.015,0.004-0.03,0.006-0.045c-0.002-0.602-0.502-1.087-1.123-1.087h-4.768
		c-0.621,0-1.122,0.485-1.122,1.087c0,0.598,0.501,1.086,1.122,1.087h2.281l-4.223,4.363c-0.41,0.423-0.41,1.111,0,1.534
		C12.577,6.279,13.241,6.279,13.652,5.853z"/>
	<path fill="#00FF64" d="M3.611-0.045h2.281c0.62-0.001,1.121-0.489,1.121-1.087c0-0.602-0.501-1.087-1.121-1.087H1.124
		c-0.621,0-1.121,0.485-1.123,1.087c0.001,0.015,0.004,0.03,0.006,0.045C0.006-1.068,0-1.047,0-1.025l0.001,4.862
		c0,0.63,0.47,1.143,1.051,1.143c0.579-0.002,1.053-0.512,1.053-1.143V1.469l4.242,4.384c0.412,0.426,1.077,0.426,1.488,0
		c0.409-0.423,0.409-1.111,0-1.534L3.611-0.045z"/>
</g>
</svg>
