<?xml version="1.0" encoding="utf-8"?>
<!-- Generator: Adobe Illustrator 17.0.0, SVG Export Plug-In . SVG Version: 6.00 Build 0)  -->
<!DOCTYPE svg PUBLIC "-//W3C//DTD SVG 1.1//EN" "http://www.w3.org/Graphics/SVG/1.1/DTD/svg11.dtd">
<svg version="1.1" id="Calque_1" xmlns="http://www.w3.org/2000/svg" xmlns:xlink="http://www.w3.org/1999/xlink" x="0px" y="0px"
	 width="20.012px" height="20.012px" viewBox="0 5.332 20.012 20.012" enable-background="new 0 5.332 20.012 20.012"
	 xml:space="preserve">
<g id="Calque_1_1_">
</g>
<g id="Capa_1">
</g>
<g>
	<g>
		<path fill="#FF0070" d="M10.993,25.344h-8.76C0.981,25.344,0,24.181,0,22.696V7.992c0-1.485,0.981-2.648,2.233-2.648h8.76
			c0.547,0,0.99,0.443,0.99,0.99s-0.444,0.99-0.99,0.99h-8.76C2.171,7.347,1.98,7.59,1.98,7.992v14.705
			c0,0.402,0.191,0.644,0.264,0.669l8.749-0.001c0.547,0,0.99,0.443,0.99,0.99C11.983,24.901,11.54,25.344,10.993,25.344z"/>
	</g>
	<g id="c115_arrows_3_">
		<path fill="#FF0070" d="M13.358,11.501c-0.4-0.4-1.03-0.417-1.411-0.036c-0.377,0.378-0.364,1.011,0.036,1.411l1.498,1.498
			l-5.55-0.001c-0.537,0-0.971,0.434-0.971,0.971c0,0.537,0.436,0.972,0.972,0.972l5.52-0.001l-1.491,1.491
			c-0.405,0.407-0.425,1.042-0.046,1.421c0.38,0.38,1.014,0.36,1.42-0.047l3.117-3.117c0.406-0.406,0.426-1.039,0.047-1.421
			c-0.012-0.009-0.021-0.015-0.032-0.024c-0.012-0.014-0.023-0.031-0.036-0.044L13.358,11.501L13.358,11.501z"/>
	</g>
</g>
</svg>
