<?xml version="1.0" encoding="utf-8"?>
<!-- Generator: Adobe Illustrator 17.0.0, SVG Export Plug-In . SVG Version: 6.00 Build 0)  -->
<!DOCTYPE svg PUBLIC "-//W3C//DTD SVG 1.1//EN" "http://www.w3.org/Graphics/SVG/1.1/DTD/svg11.dtd">
<svg version="1.1" xmlns="http://www.w3.org/2000/svg" xmlns:xlink="http://www.w3.org/1999/xlink" x="0px" y="0px"
	 width="25.344px" height="25.344px" viewBox="0 -7.562 25.344 25.344" enable-background="new 0 -7.562 25.344 25.344"
	 xml:space="preserve">
<g id="Calque_1">
</g>
<g id="Capa_1">
</g>
<g id="Layer_1">
	<path fill="#00FFFF" d="M25.216,4.616c-0.231-0.379-0.745-0.588-1.448-0.588h-5.743V2.051c0-1.137-0.925-2.061-2.061-2.061H9.279
		l-1.021-1.48C7.967-1.917,7.666-2.219,7.201-2.219H1.146c-0.3,0-0.592,0.122-0.802,0.334c-0.214,0.215-0.33,0.5-0.329,0.804
		L0.03,2.05L0,15.72c0,1.137,0.925,2.061,2.061,2.061l14.891-0.005c0.895,0,1.843-0.562,2.2-1.297l6.037-10.826
		C25.439,5.172,25.341,4.823,25.216,4.616z M15.761,2.253v1.776h-4.944c-0.707,0-1.419,0.512-1.815,1.305l-5.33,10.184H2.263
		L2.262,0.045h4.159l1.021,1.481c0.303,0.437,0.592,0.728,1.057,0.728H15.761z"/>
</g>
</svg>
