<?xml version="1.0" encoding="utf-8"?>
<!-- Generator: Adobe Illustrator 17.0.0, SVG Export Plug-In . SVG Version: 6.00 Build 0)  -->
<!DOCTYPE svg PUBLIC "-//W3C//DTD SVG 1.1//EN" "http://www.w3.org/Graphics/SVG/1.1/DTD/svg11.dtd">
<svg version="1.1" id="Calque_1" xmlns="http://www.w3.org/2000/svg" xmlns:xlink="http://www.w3.org/1999/xlink" x="0px" y="0px"
	 width="20px" height="20px" viewBox="0 0 20 20" enable-background="new 0 0 20 20" xml:space="preserve">
<g>
	<path fill="#00FF64" d="M14.047,10.873l-3.188,0l0,3.243c0,0.482-0.384,0.873-0.859,0.873c-0.237,0-0.452-0.098-0.607-0.256
		c-0.155-0.158-0.251-0.376-0.251-0.617l0-3.243H5.953c-0.237,0-0.452-0.098-0.607-0.256C5.191,10.46,5.095,10.241,5.095,10
		c0-0.482,0.384-0.873,0.859-0.873l3.188,0l0-3.243c0-0.482,0.384-0.873,0.859-0.873c0.474,0,0.858,0.391,0.858,0.873l0,3.243h3.189
		c0.474,0,0.858,0.391,0.858,0.873C14.905,10.482,14.521,10.873,14.047,10.873z"/>
	<path fill="#00FF64" d="M18.659,5.001c-2.76-4.783-8.876-6.421-13.658-3.66s-6.421,8.876-3.659,13.658
		c2.76,4.782,8.875,6.42,13.657,3.659S21.42,9.782,18.659,5.001z M13.999,16.926c-3.825,2.209-8.717,0.898-10.925-2.928
		C0.865,10.173,2.176,5.281,6.001,3.073C9.826,0.864,14.718,2.175,16.927,6C19.135,9.826,17.825,14.717,13.999,16.926z"/>
</g>
</svg>
