<?xml version="1.0" encoding="utf-8"?>
<!-- Generator: Adobe Illustrator 17.0.0, SVG Export Plug-In . SVG Version: 6.00 Build 0)  -->
<!DOCTYPE svg PUBLIC "-//W3C//DTD SVG 1.1//EN" "http://www.w3.org/Graphics/SVG/1.1/DTD/svg11.dtd">
<svg version="1.1" id="Calque_1" xmlns="http://www.w3.org/2000/svg" xmlns:xlink="http://www.w3.org/1999/xlink" x="0px" y="0px"
	 width="20.012px" height="20.012px" viewBox="0 5.332 20.012 20.012" enable-background="new 0 5.332 20.012 20.012"
	 xml:space="preserve">
<g id="Calque_1_1_">
</g>
<g id="Capa_1">
</g>
<g>
	<path fill="#FF0070" d="M18.665,10.339c-2.76-4.783-8.876-6.421-13.658-3.66s-6.421,8.876-3.659,13.658
		c2.76,4.782,8.875,6.42,13.657,3.659S21.427,15.121,18.665,10.339z M14.005,22.264c-3.825,2.209-8.717,0.898-10.925-2.928
		C0.871,15.51,2.183,10.619,6.008,8.411c3.825-2.209,8.717-0.898,10.926,2.928C19.142,15.164,17.831,20.055,14.005,22.264z"/>
	<path fill="#FF0070" d="M14.617,14.385c0-0.536-0.429-0.972-0.956-0.972h-0.777l-0.001-0.002l-4.96,0.001L9.39,11.92
		c0.399-0.407,0.418-1.042,0.045-1.421c-0.374-0.38-0.997-0.36-1.397,0.047l-3.065,3.118c-0.399,0.406-0.419,1.04-0.047,1.422
		c0.011,0.009,0.02,0.015,0.032,0.024c0.011,0.014,0.022,0.031,0.035,0.044l3.023,3.075l0,0c0.394,0.4,1.013,0.417,1.388,0.036
		c0.37-0.379,0.358-1.012-0.035-1.412l-1.474-1.499l0.943,0v0.003h3.867v3.746c0,0.537,0.427,0.972,0.955,0.971
		c0.528,0,0.956-0.436,0.956-0.973L14.617,14.385L14.617,14.385z"/>
</g>
</svg>
