<?xml version="1.0" encoding="utf-8"?>
<!-- Generator: Adobe Illustrator 15.1.0, SVG Export Plug-In . SVG Version: 6.00 Build 0)  -->
<!DOCTYPE svg PUBLIC "-//W3C//DTD SVG 1.1//EN" "http://www.w3.org/Graphics/SVG/1.1/DTD/svg11.dtd">
<svg version="1.1" id="Layer_1" xmlns="http://www.w3.org/2000/svg" xmlns:xlink="http://www.w3.org/1999/xlink" x="0px" y="0px"
	 width="36px" height="36px" viewBox="0 0 36 36" enable-background="new 0 0 36 36" xml:space="preserve">
<path id="plus_12_" fill="#6A6A6A" d="M1730.626,833.451c-0.297,0-0.535-0.238-0.535-0.535v-5.23h-5.229
	c-0.298,0-0.537-0.239-0.537-0.534v-3.461c0-0.298,0.239-0.535,0.537-0.535h5.229v-5.23c0-0.299,0.238-0.537,0.535-0.537h3.461
	c0.296,0,0.536,0.238,0.536,0.537v5.23h5.229c0.298,0,0.537,0.237,0.537,0.535v3.461c0,0.295-0.239,0.534-0.537,0.534h-5.229v5.23
	c0,0.297-0.24,0.535-0.536,0.535H1730.626z"/>
<g>
	<path fill="#6A6A6A" d="M11.97,25.803c-0.553-0.166-1.055-0.372-1.445-0.638l-0.694-0.343l-0.16-0.838
		c-0.021-0.113-0.534-2.837-0.628-7.526c-0.002-0.086-0.003-0.166-0.005-0.25c-0.022,0-0.038,0.004-0.061,0.004
		c-1.081-0.001-1.562-0.313-1.78-0.627c-0.317-0.097-0.653-0.25-1.011-0.461c-1.519,0.399-2.608,1.099-2.967,1.466
		c-0.423,0.432-2.455,3.267-2.455,3.267s-0.13,0.459,0.951,1.51c1.098,1.069,1.504,1.027,1.504,1.027l1.715-2.132
		c0,0,0,1.079,0.055,3.724c0.053,2.646,0.344,4.16,0.344,4.16c0.869,0.591,3.645,0.619,3.645,0.619s2.094-0.021,3.214-0.416
		C11.686,27.588,11.615,26.624,11.97,25.803z"/>
	<path fill="#6A6A6A" d="M34.908,16.878c-0.524-0.728-2.128-2.944-2.816-3.778c-0.092,0.095-0.166,0.184-0.266,0.28
		c-1.611,1.57-2.908,2.333-3.963,2.333l-0.211-0.012l-0.836-0.108c-0.006,0.276-0.01,0.552-0.016,0.85
		c-0.003,0.134-0.007,0.261-0.01,0.393h7.699C34.633,16.836,34.771,16.856,34.908,16.878z"/>
	<path fill="#6A6A6A" d="M21.771,16.836h3.019c0.004-0.14,0.008-0.275,0.011-0.418c0.092-4.566,0.092-6.428,0.092-6.428l2.959,3.68
		c0,0,0.705,0.072,2.596-1.771c1.867-1.815,1.641-2.608,1.641-2.608s-3.506-4.892-4.236-5.636c-0.705-0.724-3.062-2.197-6.289-2.792
		c-0.092-0.016-0.178-0.028-0.205-0.011c-0.049,0.026-0.061,0.03-0.061,0.141c-0.004,0.521-0.275,2.009-3.376,2.01
		c-3.102-0.001-3.374-1.489-3.374-2.01c0-0.111-0.013-0.115-0.06-0.141c-0.027-0.017-0.113-0.005-0.207,0.011
		C11.053,1.458,8.7,2.931,7.991,3.655C7.261,4.399,3.756,9.291,3.756,9.291s-0.229,0.793,1.64,2.608
		c1.893,1.842,2.595,1.771,2.595,1.771l2.959-3.68c0,0,0,1.862,0.093,6.428c0.091,4.565,0.591,7.173,0.591,7.173
		c0.385,0.263,0.987,0.46,1.667,0.609l6.582-6.583C20.404,17.107,21.069,16.836,21.771,16.836z"/>
</g>
<path id="delete_5_" fill="#C32628" d="M34.607,18.836H21.889c-0.178,0-0.348,0.071-0.475,0.195l-7.362,7.363
	c-0.26,0.263-0.26,0.686,0,0.947l7.362,7.363c0.127,0.125,0.297,0.195,0.475,0.195h12.719c0.369,0,0.668-0.301,0.668-0.671V19.504
	C35.275,19.137,34.977,18.836,34.607,18.836z M32.383,30.978l-1.029,1.026c-0.281,0.285-0.74,0.285-1.027,0l-3.082-3.082
	l-3.084,3.084c-0.285,0.285-0.744,0.285-1.029,0l-1.027-1.028c-0.285-0.286-0.281-0.744,0-1.026l3.086-3.085l-3.088-3.083
	c-0.283-0.285-0.283-0.747,0-1.028l1.027-1.027c0.287-0.284,0.744-0.284,1.027,0l3.088,3.082l3.082-3.082
	c0.285-0.284,0.746-0.284,1.027,0l1.029,1.027c0.285,0.281,0.285,0.742,0,1.028l-3.084,3.083l3.084,3.082
	C32.668,30.232,32.668,30.691,32.383,30.978z"/>
</svg>
