<?xml version="1.0" encoding="utf-8"?>
<!-- Generator: Adobe Illustrator 15.1.0, SVG Export Plug-In . SVG Version: 6.00 Build 0)  -->
<!DOCTYPE svg PUBLIC "-//W3C//DTD SVG 1.1//EN" "http://www.w3.org/Graphics/SVG/1.1/DTD/svg11.dtd">
<svg version="1.1" id="Layer_1" xmlns="http://www.w3.org/2000/svg" xmlns:xlink="http://www.w3.org/1999/xlink" x="0px" y="0px"
	 width="47px" height="54.197px" viewBox="0 0 47 54.197" enable-background="new 0 0 47 54.197" xml:space="preserve">
<g>
	<path fill="#6A6A6A" d="M13.077,31.402l-0.207-1.079c-0.027-0.146-0.688-3.653-0.809-9.692c-0.002-0.109-0.004-0.214-0.006-0.322
		c-0.029,0-0.049,0.006-0.078,0.006c-1.392-0.002-2.012-0.402-2.293-0.809c-0.409-0.125-0.841-0.32-1.302-0.594
		c-1.956,0.514-3.36,1.414-3.821,1.888c-0.544,0.556-3.162,4.208-3.162,4.208S1.232,25.6,2.625,26.952
		c1.414,1.378,1.937,1.323,1.937,1.323l2.209-2.746c0,0,0,1.391,0.07,4.797c0.068,3.406,0.443,5.357,0.443,5.357
		c1.119,0.762,4.694,0.797,4.694,0.797s3.568-0.035,4.693-0.797c0,0,0.183-0.977,0.316-2.721c-1.17-0.244-2.251-0.599-3.015-1.119
		L13.077,31.402z"/>
	<path fill="#6A6A6A" d="M45.6,21.479c0,0-2.783-3.88-3.85-5.173c-0.118,0.123-0.214,0.236-0.343,0.361
		c-2.075,2.022-3.745,3.004-5.104,3.004l-0.271-0.016l-1.076-0.139c-0.008,0.354-0.014,0.711-0.021,1.094
		c-0.119,6.039-0.781,9.525-0.81,9.674l-0.206,1.033l-0.895,0.524c-1.789,1.22-5.317,1.542-7.662,1.624
		c0.142,1.276,0.271,1.971,0.271,1.971c1.465,1,6.139,1.045,6.139,1.045s4.668-0.045,6.136-1.045c0,0,0.489-2.545,0.579-7
		c0.09-4.457,0.09-6.275,0.09-6.275l2.886,3.591c0,0,0.688,0.072,2.536-1.728C45.822,22.251,45.6,21.479,45.6,21.479z"/>
	<path fill="#6A6A6A" d="M23.497,3.299c-3.995,0-4.346-1.917-4.346-2.589c0-0.144-0.016-0.148-0.077-0.181
		c-0.035-0.022-0.146-0.007-0.267,0.014c-4.156,0.767-7.187,2.664-8.101,3.596c-0.939,0.958-5.454,7.26-5.454,7.26
		s-0.294,1.021,2.112,3.358c2.438,2.374,3.342,2.282,3.342,2.282l3.812-4.739c0,0,0,2.397,0.12,8.278
		c0.117,5.879,0.761,9.238,0.761,9.238c1.936,1.317,8.099,1.379,8.099,1.379s6.166-0.062,8.1-1.379c0,0,0.644-3.359,0.762-9.238
		c0.117-5.881,0.117-8.278,0.117-8.278l3.812,4.739c0,0,0.908,0.092,3.344-2.282c2.404-2.337,2.113-3.358,2.113-3.358
		s-4.516-6.302-5.457-7.26c-0.908-0.932-3.943-2.829-8.102-3.596c-0.117-0.021-0.229-0.037-0.264-0.014
		c-0.062,0.033-0.078,0.038-0.078,0.181C27.841,1.382,27.491,3.299,23.497,3.299z"/>
</g>
<polygon fill="#14191F" points="23.642,40.794 10.766,54.197 36.436,54.197 "/>
</svg>
