<?xml version="1.0" encoding="utf-8"?>
<!-- Generator: Adobe Illustrator 15.1.0, SVG Export Plug-In . SVG Version: 6.00 Build 0)  -->
<!DOCTYPE svg PUBLIC "-//W3C//DTD SVG 1.1//EN" "http://www.w3.org/Graphics/SVG/1.1/DTD/svg11.dtd">
<svg version="1.1" id="Layer_1" xmlns="http://www.w3.org/2000/svg" xmlns:xlink="http://www.w3.org/1999/xlink" x="0px" y="0px"
	 width="36px" height="36px" viewBox="0 0 36 36" enable-background="new 0 0 36 36" xml:space="preserve">
<path fill="none" d="M28.395,16.362c0.338-0.578,0.601-1.309,0.79-2.191s0.285-1.92,0.285-3.115c0-0.166-0.006-0.338-0.016-0.51
	c-0.008-0.172-0.015-0.337-0.015-0.496l-6.934,5.208c0.22,0.695,0.509,1.257,0.86,1.692h3.323c0.382,0,0.739,0.09,1.063,0.241
	C27.985,16.958,28.202,16.69,28.395,16.362z"/>
<path fill="none" d="M28.956,6.839c-0.332-0.976-0.771-1.699-1.316-2.168c-0.545-0.469-1.189-0.703-1.93-0.703
	c-0.53,0-1.023,0.141-1.48,0.422c-0.455,0.281-0.852,0.712-1.189,1.295c-0.334,0.582-0.601,1.312-0.795,2.19
	c-0.195,0.878-0.291,1.918-0.291,3.122c0,0.197,0,0.381,0,0.555c0,0.172,0.009,0.348,0.028,0.525L28.956,6.839z"/>
<g>
	<path fill="none" d="M4.296,22.374c-0.786,0.354-1.15,1.293-0.809,2.116c0.338,0.817,1.241,1.195,2.03,0.843
		c0.786-0.354,1.15-1.291,0.81-2.116C5.99,22.398,5.087,22.02,4.296,22.374z"/>
	<path fill="#6A6A6A" d="M14.93,25.254c0-1.398,1.138-2.536,2.537-2.536h3.229v-3.229c0-1.398,1.137-2.536,2.534-2.536h0.589
		c-0.117-0.46-0.256-0.917-0.442-1.368c-0.265-0.64-0.584-1.232-0.956-1.777l10.487-7.752l-1.832-4.438L16.869,7.981l1.224,2.958
		l-4.264,1.91l-1.221-2.959l-1.422,0.636c-3.925,1.758-6.09,6-5.527,10.204c-0.636-0.167-1.324-0.124-1.973,0.167
		c-1.567,0.7-2.294,2.598-1.619,4.229c0.673,1.637,2.493,2.39,4.063,1.687c0.648-0.291,1.151-0.781,1.473-1.379
		c1.792,2.338,4.529,3.658,7.362,3.625c-0.016-0.113-0.035-0.226-0.035-0.343V25.254z M5.518,25.333
		c-0.789,0.353-1.692-0.025-2.03-0.843c-0.341-0.823,0.023-1.763,0.809-2.116c0.791-0.354,1.693,0.024,2.031,0.843
		C6.668,24.042,6.303,24.979,5.518,25.333z"/>
</g>
<path id="plus_13_" fill="#50B149" d="M23.23,35.016c-0.297,0-0.534-0.24-0.534-0.537v-5.229h-5.229
	c-0.298,0-0.537-0.239-0.537-0.534v-3.461c0-0.298,0.239-0.536,0.537-0.536h5.229v-5.229c0-0.299,0.237-0.536,0.534-0.536h3.461
	c0.298,0,0.537,0.237,0.537,0.536v5.229h5.229c0.297,0,0.537,0.238,0.537,0.536v3.461c0,0.295-0.24,0.534-0.537,0.534h-5.229v5.229
	c0,0.297-0.239,0.537-0.537,0.537H23.23z"/>
</svg>
