<?xml version="1.0" encoding="utf-8"?>
<!-- Generator: Adobe Illustrator 15.1.0, SVG Export Plug-In . SVG Version: 6.00 Build 0)  -->
<!DOCTYPE svg PUBLIC "-//W3C//DTD SVG 1.1//EN" "http://www.w3.org/Graphics/SVG/1.1/DTD/svg11.dtd">
<svg version="1.1" id="Layer_1" xmlns="http://www.w3.org/2000/svg" xmlns:xlink="http://www.w3.org/1999/xlink" x="0px" y="0px"
	 width="50px" height="36px" viewBox="0 0 50 36" enable-background="new 0 0 50 36" xml:space="preserve">
<g>
	<path fill="#6A6A6A" d="M19.317,25.068l7.382-7.383c0.497-0.498,1.186-0.783,1.889-0.783h4.443
		c0.063-3.622,0.063-5.154,0.063-5.154l3.52,4.316c0,0,0.835,0.083,3.086-2.077c2.221-2.129,1.95-3.06,1.95-3.06
		s-4.17-5.735-5.036-6.607c-0.842-0.851-3.643-2.577-7.48-3.275c-0.108-0.019-0.21-0.033-0.245-0.012
		c-0.057,0.031-0.071,0.036-0.071,0.165c0,0.611-0.323,2.357-4.012,2.358c-3.688,0-4.014-1.747-4.014-2.358
		c0-0.129-0.014-0.134-0.069-0.165c-0.035-0.021-0.138-0.006-0.247,0.012c-3.837,0.699-6.637,2.424-7.479,3.275
		c-0.867,0.872-5.037,6.607-5.037,6.607s-0.27,0.93,1.95,3.06c2.252,2.16,3.086,2.077,3.086,2.077l3.519-4.316
		c0,0,0,2.184,0.11,7.538c0.107,5.352,0.704,8.411,0.704,8.411c0.38,0.255,0.942,0.456,1.583,0.618
		c-0.243-0.408-0.38-0.871-0.38-1.358C18.532,26.243,18.811,25.572,19.317,25.068z"/>
	<path fill="#6A6A6A" d="M14.703,16.953l-0.749,0.918l-0.97,0.088c-1.117,0-2.545-0.851-4.368-2.599
		c-0.443-0.425-0.811-0.824-1.121-1.2c0.008,0.882,0.028,2.382,0.074,4.63c0.08,3.997,0.526,6.281,0.526,6.281
		c1.334,0.896,5.582,0.937,5.582,0.937s0.641-0.007,1.5-0.066c-0.175-1.49-0.372-3.727-0.431-6.617
		C14.73,18.45,14.715,17.661,14.703,16.953z"/>
	<path fill="#6A6A6A" d="M6.157,10.396l0.092-0.319l0.195-0.269c0.441-0.608,1.999-2.742,3.334-4.492
		C7.262,5.9,5.437,7.031,4.859,7.615c-0.647,0.652-3.76,4.934-3.76,4.934s-0.203,0.694,1.455,2.284
		c1.682,1.614,2.305,1.55,2.305,1.55l2.235-2.74C6.022,12.152,5.957,11.085,6.157,10.396z"/>
	<path fill="#6A6A6A" d="M42.102,17.024c0.023-1.318,0.036-2.271,0.042-2.897c-0.314,0.386-0.692,0.795-1.148,1.233
		c-0.658,0.632-1.264,1.143-1.823,1.542h2.173C41.609,16.902,41.86,16.953,42.102,17.024z"/>
	<path fill="#6A6A6A" d="M48.539,12.549c0,0-3.114-4.282-3.761-4.934c-0.58-0.587-2.418-1.724-4.952-2.306
		c1.337,1.751,2.898,3.891,3.34,4.5l0.195,0.269l0.092,0.319c0.2,0.687,0.135,1.749-0.924,3.229l2.249,2.758
		c0,0,0.623,0.063,2.306-1.55C48.74,13.243,48.539,12.549,48.539,12.549z"/>
</g>
<path id="delete_1_" fill="#C42527" d="M41.345,18.902H28.588c-0.178,0-0.349,0.071-0.475,0.197l-7.385,7.386
	c-0.263,0.262-0.263,0.687,0,0.949l7.385,7.385c0.126,0.125,0.297,0.196,0.475,0.196h12.757c0.372,0,0.671-0.301,0.671-0.672v-14.77
	C42.016,19.203,41.717,18.902,41.345,18.902z M39.113,31.08l-1.031,1.03c-0.283,0.287-0.742,0.287-1.03,0l-3.093-3.091l-3.093,3.093
	c-0.285,0.285-0.746,0.285-1.033,0l-1.03-1.03c-0.286-0.287-0.282-0.746,0-1.03l3.095-3.095l-3.097-3.093
	c-0.284-0.285-0.284-0.747,0-1.031l1.03-1.03c0.289-0.286,0.748-0.285,1.03,0l3.098,3.094l3.093-3.094
	c0.285-0.286,0.747-0.286,1.03,0l1.031,1.03c0.285,0.284,0.285,0.745,0,1.031l-3.093,3.093l3.093,3.093
	C39.401,30.333,39.401,30.794,39.113,31.08z"/>
</svg>
