<?xml version="1.0" encoding="utf-8"?>
<!-- Generator: Adobe Illustrator 14.0.0, SVG Export Plug-In . SVG Version: 6.00 Build 43363)  -->
<!DOCTYPE svg PUBLIC "-//W3C//DTD SVG 1.1//EN" "http://www.w3.org/Graphics/SVG/1.1/DTD/svg11.dtd">
<svg version="1.1" id="Layer_1" xmlns="http://www.w3.org/2000/svg" xmlns:xlink="http://www.w3.org/1999/xlink" x="0px" y="0px"
	 width="47px" height="54.197px" viewBox="0 0 47 54.197" enable-background="new 0 0 47 54.197" xml:space="preserve">
<g>
	<path fill="#6A6A6A" d="M18.137,25.19c-1.262-0.842-2.425-1.632-3.227-4.063h-4.027L2.93,24.388c0,0-1.297,0.531-1.297,1.779v1.479
		c0,0.813,0.302,1.981,1.118,1.981h5.315l0.901-0.698L18.137,25.19z"/>
	<path fill="#6A6A6A" d="M12.414,18.053c-0.438-0.346-0.692-0.874-0.692-1.434c0-3.296,1.165-8.624,4.922-11.581
		c-0.867-0.375-1.871-0.615-3.082-0.615c-7.604,0-7.604,9.326-7.604,9.326c1.091-0.262,1.63-0.288,1.63-0.288
		c0.015,7.103,6.1,7.103,6.1,7.103s0.295-0.005,0.744-0.075c-0.208-0.642-0.379-1.332-0.483-2.091
		C13.411,18.522,12.848,18.395,12.414,18.053z"/>
	<path fill="#6A6A6A" d="M43.891,24.387l-8.134-3.262h-3.831c-0.916,2.431-2.303,3.568-3.773,4.412l8.229,3.396l0.87,0.695h6.643
		c0.814,0,1.479-1.17,1.479-1.98v-1.481C45.367,24.941,43.891,24.387,43.891,24.387z"/>
	<path fill="#6A6A6A" d="M35.105,16.297c0.019,0.104,0.024,0.341,0.024,0.449c0,1.006-0.813,1.951-1.819,1.951
		c-0.006,0-0.02,0-0.022,0c-0.136,0-0.272-0.146-0.403-0.175c-0.096,0.679-0.244,1.229-0.421,1.813
		c0.94,0.286,1.66,0.262,1.66,0.262s6.097-0.018,6.097-7.112c0.715,0.007,1.633,0.271,1.633,0.271s0-9.326-7.854-9.326
		c-1.467,0-2.645,0.349-3.598,0.907C33.859,8.243,35.034,13.094,35.105,16.297z"/>
	<g>
		<path fill="#6A6A6A" d="M35.889,30.594L25.5,26.815h-5.667L9.445,30.594c0,0-1.889,0.295-1.889,1.891v1.893
			c0,1.042,0.844,1.89,1.889,1.89h26.444c1.045,0,1.889-0.847,1.889-1.89v-1.893C37.777,30.916,35.889,30.594,35.889,30.594z"/>
		<path fill="#6A6A6A" d="M31.202,16.26c0.913,0.008,2.086,0.356,2.086,0.356s0-11.909-10.033-11.909
			c-9.711,0-9.711,11.914-9.711,11.914c1.393-0.334,2.081-0.368,2.081-0.368c0.02,9.071,7.792,9.071,7.792,9.071
			S31.202,25.325,31.202,16.26z"/>
	</g>
</g>
<g>
	<polyline fill="#FFFFFF" points="36,54.11 23.207,40.708 10.331,54.11 	"/>
	<polygon fill="#0C0C0C" points="10.421,54.197 10.241,54.023 23.208,40.527 23.298,40.622 36.091,54.024 35.909,54.196 
		23.206,40.888 10.421,54.197 	"/>
</g>
</svg>
