<?xml version="1.0" encoding="utf-8"?>
<!-- Generator: Adobe Illustrator 16.0.0, SVG Export Plug-In . SVG Version: 6.00 Build 0)  -->
<!DOCTYPE svg PUBLIC "-//W3C//DTD SVG 1.1//EN" "http://www.w3.org/Graphics/SVG/1.1/DTD/svg11.dtd">
<svg version="1.1" id="Layer_1" xmlns="http://www.w3.org/2000/svg" xmlns:xlink="http://www.w3.org/1999/xlink" x="0px" y="0px"
	 width="36px" height="36px" viewBox="0 0 36 36" enable-background="new 0 0 36 36" xml:space="preserve">
<g>
	<path fill="#6A6A6A" d="M22.532,33.438c-0.529,0.531-1.384,0.703-2.081,0.411c-0.245-0.108-0.445-0.243-0.616-0.411
		c-0.352-0.349-0.556-0.84-0.556-1.346l0.032-0.935c-0.438,0.043-0.881,0.066-1.33,0.066c-7.318,0-13.252-5.933-13.252-13.252
		c0-7.318,5.934-13.252,13.252-13.252s13.252,5.934,13.252,13.252c0,0.454-0.023,0.979-0.067,1.421l0.871,0.047
		c0.002,0,0.002,0,0.003,0c0.554,0,1.043,0.129,1.395,0.482c0.182,0.182,0.323,0.358,0.416,0.596
		c0.291,0.691,0.131,1.49-0.419,2.039l-2.286,2.277l1.407,1.403c1.387-2.439,2.188-5.256,2.188-8.263
		c0-9.256-7.504-16.761-16.76-16.761c-9.257,0-16.76,7.503-16.76,16.758c0,9.256,7.503,16.761,16.76,16.761
		c2.998,0,5.806-0.798,8.24-2.178l-1.403-1.404L22.532,33.438z"/>
	<path fill="#6A6A6A" d="M17.981,24.047c-3.354,0-6.072-2.72-6.072-6.074c0-3.354,2.718-6.073,6.072-6.073
		c3.354,0,6.072,2.72,6.072,6.073c0,0.554-0.08,1.088-0.219,1.598l3.912-0.135c0.07-0.479,0.12-0.964,0.12-1.463
		c0-5.459-4.426-9.886-9.886-9.886c-5.461,0-9.886,4.427-9.886,9.886s4.425,9.886,9.886,9.886c0.493,0,0.974-0.049,1.448-0.117
		l0.134-3.91C19.058,23.967,18.529,24.047,17.981,24.047z"/>
	<circle fill="#6A6A6A" cx="17.981" cy="17.973" r="2.259"/>
	<path id="arrow-down2_6_" fill-rule="evenodd" clip-rule="evenodd" fill="#50B44D" d="M32.447,20.826
		c0.048,0.048,0.086,0.103,0.111,0.167c0.082,0.191,0.038,0.414-0.11,0.562l-3.271,3.27l5.45,5.45c0.2,0.199,0.202,0.524,0,0.725
		l-3.635,3.634c-0.199,0.201-0.525,0.201-0.725,0l-5.45-5.449l-3.27,3.271c-0.146,0.146-0.371,0.188-0.562,0.11
		c-0.063-0.027-0.12-0.064-0.169-0.11c-0.094-0.095-0.148-0.226-0.148-0.362l0.363-10.537c0-0.145,0.06-0.273,0.15-0.365
		c0.094-0.094,0.221-0.151,0.365-0.151l10.537-0.362C32.224,20.676,32.354,20.731,32.447,20.826z"/>
</g>
</svg>
