<?xml version="1.0" encoding="UTF-8" standalone="no"?>
<!-- Generator: Adobe Illustrator 15.1.0, SVG Export Plug-In . SVG Version: 6.00 Build 0)  -->

<svg
   xmlns:dc="http://purl.org/dc/elements/1.1/"
   xmlns:cc="http://creativecommons.org/ns#"
   xmlns:rdf="http://www.w3.org/1999/02/22-rdf-syntax-ns#"
   xmlns:svg="http://www.w3.org/2000/svg"
   xmlns="http://www.w3.org/2000/svg"
   xmlns:sodipodi="http://sodipodi.sourceforge.net/DTD/sodipodi-0.dtd"
   xmlns:inkscape="http://www.inkscape.org/namespaces/inkscape"
   version="1.1"
   id="Layer_1"
   x="0px"
   y="0px"
   width="26"
   height="26"
   viewBox="0 0 26 26"
   enable-background="new 0 0 58 58"
   xml:space="preserve"
   inkscape:version="0.48.4 r9939"
   sodipodi:docname="longomatch-apply-button.svg"><metadata
     id="metadata8"><rdf:RDF><cc:Work
         rdf:about=""><dc:format>image/svg+xml</dc:format><dc:type
           rdf:resource="http://purl.org/dc/dcmitype/StillImage" /></cc:Work></rdf:RDF></metadata><defs
     id="defs6" /><sodipodi:namedview
     pagecolor="#ffffff"
     bordercolor="#666666"
     borderopacity="1"
     objecttolerance="10"
     gridtolerance="10"
     guidetolerance="10"
     inkscape:pageopacity="0"
     inkscape:pageshadow="2"
     inkscape:window-width="920"
     inkscape:window-height="640"
     id="namedview4"
     showgrid="false"
     inkscape:zoom="7.7882543"
     inkscape:cx="29"
     inkscape:cy="29"
     inkscape:window-x="0"
     inkscape:window-y="27"
     inkscape:window-maximized="0"
     inkscape:current-layer="Layer_1" /><path
     id="checkmark_1_"
     d="M 10.561838,24 C 10.101658,24 9.6608553,23.795072 9.3353391,23.432922 L 0.50861904,13.049876 C 0.18310285,12.686644 0,12.192213 0,11.678265 0,11.162149 0.18310285,10.668802 0.50861904,10.307738 L 1.7341487,8.935041 C 2.0732281,8.55446 2.5169376,8.36688 2.9596784,8.36688 c 0.4446783,0 0.8874191,0.188665 1.2264985,0.568161 L 10.562806,14.557023 21.812491,2.5692459 C 22.138007,2.2038442 22.57881,2 23.038989,2 l 0,0 c 0.460179,0 0.900982,0.2038442 1.226499,0.5692459 l 1.226498,1.3716116 c 0.67719,0.7557418 0.67719,1.985313 9.69e-4,2.7410549 L 11.788336,23.431838 C 11.464757,23.793987 11.021048,24 10.561838,24 z"
     inkscape:connector-curvature="0"
     style="fill:#50b44b" /></svg>