<?xml version="1.0" encoding="utf-8"?>
<!-- Generator: Adobe Illustrator 15.1.0, SVG Export Plug-In . SVG Version: 6.00 Build 0)  -->
<!DOCTYPE svg PUBLIC "-//W3C//DTD SVG 1.1//EN" "http://www.w3.org/Graphics/SVG/1.1/DTD/svg11.dtd">
<svg version="1.1" id="Layer_1" xmlns="http://www.w3.org/2000/svg" xmlns:xlink="http://www.w3.org/1999/xlink" x="0px" y="0px"
	 width="36px" height="36px" viewBox="0 0 36 36" enable-background="new 0 0 36 36" xml:space="preserve">
<path id="plus_12_" fill="#6A6A6A" d="M1730.626,833.451c-0.297,0-0.535-0.238-0.535-0.535v-5.23h-5.229
	c-0.298,0-0.537-0.239-0.537-0.534v-3.461c0-0.298,0.239-0.535,0.537-0.535h5.229v-5.23c0-0.299,0.238-0.537,0.535-0.537h3.461
	c0.296,0,0.536,0.238,0.536,0.537v5.23h5.229c0.298,0,0.537,0.237,0.537,0.535v3.461c0,0.295-0.239,0.534-0.537,0.534h-5.229v5.23
	c0,0.297-0.24,0.535-0.536,0.535H1730.626z"/>
<g id="video_1_">
	<path fill="#6A6A6A" d="M25.44,15.815v-1.707c0-0.276,0.224-0.5,0.5-0.5c0.138,0,0.263,0.056,0.354,0.146
		c0.128,0,0.256,0.049,0.354,0.146c0.195,0.195,0.195,0.512,0,0.707L25.44,15.815z"/>
	<path fill="#6A6A6A" d="M32.878,28.419c-0.392,0-0.776-0.16-1.055-0.438c-0.195-0.195-0.216-0.532-0.021-0.728
		s0.491-0.216,0.687-0.021c0.17,0.169,0.328,0.21,0.491,0.177c0.269-0.043,0.532,0.13,0.582,0.402
		c0.049,0.272-0.131,0.532-0.402,0.582C33.065,28.41,32.971,28.419,32.878,28.419z M33.87,26.733c-0.276,0-0.5-0.224-0.5-0.5v-1.03
		c0-0.276,0.224-0.5,0.5-0.5s0.5,0.224,0.5,0.5v1.03C34.37,26.51,34.146,26.733,33.87,26.733z M30.679,26.629
		c-0.128,0-0.256-0.049-0.354-0.146l-0.729-0.729c-0.195-0.195-0.195-0.512,0-0.707s0.512-0.195,0.707,0l0.729,0.729
		c0.195,0.195,0.195,0.512,0,0.707C30.935,26.58,30.807,26.629,30.679,26.629z M28.493,24.443c-0.128,0-0.256-0.049-0.354-0.146
		l-0.729-0.729c-0.195-0.195-0.195-0.512,0-0.707s0.512-0.195,0.707,0l0.729,0.729c0.195,0.195,0.195,0.512,0,0.707
		C28.749,24.395,28.621,24.443,28.493,24.443z M33.87,23.643c-0.276,0-0.5-0.224-0.5-0.5v-1.03c0-0.276,0.224-0.5,0.5-0.5
		s0.5,0.224,0.5,0.5v1.03C34.37,23.419,34.146,23.643,33.87,23.643z M33.87,20.552c-0.276,0-0.5-0.224-0.5-0.5v-1.03
		c0-0.276,0.224-0.5,0.5-0.5s0.5,0.224,0.5,0.5v1.03C34.37,20.328,34.146,20.552,33.87,20.552z M33.87,17.461
		c-0.276,0-0.5-0.224-0.5-0.5v-1.03c0-0.276,0.224-0.5,0.5-0.5s0.5,0.224,0.5,0.5v1.03C34.37,17.237,34.146,17.461,33.87,17.461z
		 M33.87,14.37c-0.276,0-0.5-0.224-0.5-0.5v-1.03c0-0.276,0.224-0.5,0.5-0.5s0.5,0.224,0.5,0.5v1.03
		C34.37,14.146,34.146,14.37,33.87,14.37z M27.751,13.298c-0.128,0-0.256-0.049-0.354-0.146c-0.195-0.195-0.195-0.512,0-0.707
		l0.729-0.729c0.195-0.195,0.512-0.195,0.707,0s0.195,0.512,0,0.707l-0.729,0.729C28.007,13.249,27.879,13.298,27.751,13.298z
		 M33.87,11.279c-0.276,0-0.5-0.224-0.5-0.5v-1.03c0-0.276,0.224-0.5,0.5-0.5s0.5,0.224,0.5,0.5v1.03
		C34.37,11.055,34.146,11.279,33.87,11.279z M29.937,11.112c-0.128,0-0.256-0.049-0.354-0.146c-0.195-0.195-0.195-0.512,0-0.707
		l0.729-0.729c0.195-0.195,0.512-0.195,0.707,0s0.195,0.512,0,0.707l-0.729,0.729C30.192,11.063,30.064,11.112,29.937,11.112z
		 M32.53,8.727l-0.408-0.3l-0.352-0.355l0.055-0.054c0.339-0.338,0.833-0.5,1.313-0.414c0.271,0.048,0.453,0.308,0.404,0.58
		c-0.049,0.273-0.305,0.452-0.58,0.405C32.757,8.579,32.623,8.634,32.53,8.727z"/>
	<path fill="#6A6A6A" d="M25.94,22.39c-0.276,0-0.5-0.224-0.5-0.5v-1.707l1.207,1.207c0.195,0.195,0.195,0.512,0,0.707
		c-0.098,0.098-0.226,0.146-0.354,0.146C26.203,22.334,26.078,22.39,25.94,22.39z"/>
	<path fill="#6A6A6A" d="M23.211,28.419h-0.988c-0.276,0-0.5-0.224-0.5-0.5s0.224-0.5,0.5-0.5h0.988c0.276,0,0.5,0.224,0.5,0.5
		S23.487,28.419,23.211,28.419z M20.246,28.419h-0.987c-0.276,0-0.5-0.224-0.5-0.5s0.224-0.5,0.5-0.5h0.987
		c0.276,0,0.5,0.224,0.5,0.5S20.522,28.419,20.246,28.419z M17.282,28.419h-0.988c-0.276,0-0.5-0.224-0.5-0.5s0.224-0.5,0.5-0.5
		h0.988c0.276,0,0.5,0.224,0.5,0.5S17.559,28.419,17.282,28.419z M14.318,28.419H13.33c-0.276,0-0.5-0.224-0.5-0.5
		s0.224-0.5,0.5-0.5h0.988c0.276,0,0.5,0.224,0.5,0.5S14.594,28.419,14.318,28.419z M11.354,28.419h-0.988
		c-0.276,0-0.5-0.224-0.5-0.5s0.224-0.5,0.5-0.5h0.988c0.276,0,0.5,0.224,0.5,0.5S11.63,28.419,11.354,28.419z M8.39,28.419H7.401
		c-0.276,0-0.5-0.224-0.5-0.5s0.224-0.5,0.5-0.5H8.39c0.276,0,0.5,0.224,0.5,0.5S8.666,28.419,8.39,28.419z M5.425,28.419H4.437
		c-0.276,0-0.5-0.224-0.5-0.5s0.224-0.5,0.5-0.5h0.988c0.276,0,0.5,0.224,0.5,0.5S5.702,28.419,5.425,28.419z M25.109,28.048
		c-0.155,0-0.309-0.072-0.406-0.208c-0.161-0.225-0.109-0.537,0.114-0.698c0.201-0.145,0.364-0.338,0.472-0.56
		c0.12-0.25,0.419-0.353,0.668-0.232c0.248,0.12,0.353,0.419,0.232,0.668c-0.18,0.371-0.452,0.694-0.788,0.937
		C25.312,28.018,25.211,28.048,25.109,28.048z M2.646,27.771c-0.136,0-0.271-0.055-0.37-0.164c-0.279-0.307-0.478-0.681-0.575-1.082
		c-0.065-0.269,0.1-0.538,0.368-0.604c0.268-0.06,0.539,0.101,0.604,0.369c0.058,0.237,0.176,0.461,0.343,0.645
		c0.186,0.204,0.17,0.521-0.034,0.706C2.887,27.728,2.766,27.771,2.646,27.771z M25.938,25.354
		C25.938,25.354,25.938,25.354,25.938,25.354c-0.276,0-0.5-0.225-0.5-0.501l0.001-0.988c0-0.275,0.224-0.499,0.5-0.499
		c0,0,0,0,0.001,0c0.275,0,0.499,0.225,0.499,0.501l-0.001,0.988C26.438,25.131,26.214,25.354,25.938,25.354z M2.13,24.937
		C2.13,24.937,2.13,24.937,2.13,24.937c-0.276,0-0.5-0.224-0.5-0.5l0-0.988c0-0.276,0.224-0.5,0.5-0.5c0,0,0,0,0,0
		c0.276,0,0.5,0.224,0.5,0.5l0,0.988C2.63,24.713,2.406,24.937,2.13,24.937z M2.131,21.972c-0.276,0-0.5-0.224-0.5-0.5v-0.988
		c0-0.276,0.224-0.5,0.5-0.5s0.5,0.224,0.5,0.5v0.988C2.631,21.748,2.408,21.972,2.131,21.972z M2.132,19.008
		c-0.276,0-0.5-0.224-0.5-0.5V17.52c0-0.276,0.224-0.5,0.5-0.5s0.5,0.224,0.5,0.5v0.988C2.632,18.784,2.409,19.008,2.132,19.008z
		 M2.133,16.043c-0.276,0-0.5-0.224-0.5-0.5v-0.988c0-0.276,0.224-0.5,0.5-0.5s0.5,0.224,0.5,0.5v0.988
		C2.633,15.82,2.41,16.043,2.133,16.043z M2.134,13.079L2.134,13.079c-0.276,0-0.5-0.224-0.5-0.5l0-0.989c0-0.276,0.224-0.5,0.5-0.5
		c0,0,0,0,0,0c0.276,0,0.5,0.224,0.5,0.5l0,0.988C2.634,12.855,2.41,13.079,2.134,13.079z M25.94,12.609c-0.276,0-0.5-0.224-0.5-0.5
		v-0.988c0-0.276,0.224-0.5,0.5-0.5s0.5,0.224,0.5,0.5v0.988C26.44,12.386,26.217,12.609,25.94,12.609z M2.185,10.119
		c-0.037,0-0.075-0.004-0.112-0.013c-0.269-0.062-0.437-0.33-0.375-0.599C1.79,9.104,1.983,8.728,2.258,8.418
		c0.183-0.207,0.5-0.226,0.706-0.042s0.225,0.5,0.042,0.706C2.842,9.267,2.727,9.491,2.672,9.73
		C2.619,9.962,2.413,10.119,2.185,10.119z M25.731,9.678c-0.183,0-0.359-0.101-0.447-0.276c-0.11-0.22-0.275-0.412-0.479-0.553
		c-0.227-0.158-0.282-0.469-0.124-0.696c0.157-0.227,0.472-0.28,0.696-0.125c0.339,0.236,0.616,0.557,0.801,0.926
		c0.123,0.247,0.023,0.547-0.224,0.671C25.883,9.661,25.807,9.678,25.731,9.678z M23.189,8.582h-0.988c-0.276,0-0.5-0.224-0.5-0.5
		s0.224-0.5,0.5-0.5h0.988c0.276,0,0.5,0.224,0.5,0.5S23.466,8.582,23.189,8.582z M20.225,8.582h-0.987c-0.276,0-0.5-0.224-0.5-0.5
		s0.224-0.5,0.5-0.5h0.987c0.276,0,0.5,0.224,0.5,0.5S20.501,8.582,20.225,8.582z M17.261,8.582h-0.988c-0.276,0-0.5-0.224-0.5-0.5
		s0.224-0.5,0.5-0.5h0.988c0.276,0,0.5,0.224,0.5,0.5S17.537,8.582,17.261,8.582z M14.296,8.582h-0.988c-0.276,0-0.5-0.224-0.5-0.5
		s0.224-0.5,0.5-0.5h0.988c0.276,0,0.5,0.224,0.5,0.5S14.573,8.582,14.296,8.582z M11.332,8.582h-0.988c-0.276,0-0.5-0.224-0.5-0.5
		s0.224-0.5,0.5-0.5h0.988c0.276,0,0.5,0.224,0.5,0.5S11.608,8.582,11.332,8.582z M8.368,8.582H7.38c-0.276,0-0.5-0.224-0.5-0.5
		s0.224-0.5,0.5-0.5h0.988c0.276,0,0.5,0.224,0.5,0.5S8.644,8.582,8.368,8.582z M5.404,8.582H4.416c-0.276,0-0.5-0.224-0.5-0.5
		s0.224-0.5,0.5-0.5h0.988c0.276,0,0.5,0.224,0.5,0.5S5.68,8.582,5.404,8.582z"/>
</g>
</svg>
