<?xml version="1.0" encoding="utf-8"?>
<!-- Generator: Adobe Illustrator 15.1.0, SVG Export Plug-In . SVG Version: 6.00 Build 0)  -->
<!DOCTYPE svg PUBLIC "-//W3C//DTD SVG 1.1//EN" "http://www.w3.org/Graphics/SVG/1.1/DTD/svg11.dtd">
<svg version="1.1" id="Layer_1" xmlns="http://www.w3.org/2000/svg" xmlns:xlink="http://www.w3.org/1999/xlink" x="0px" y="0px"
	 width="36px" height="36px" viewBox="13.49 0 36 36" enable-background="new 13.49 0 36 36" xml:space="preserve">
<path id="plus_12_" fill="#6A6A6A" d="M1730.626,833.451c-0.297,0-0.535-0.238-0.535-0.535v-5.23h-5.229
	c-0.297,0-0.537-0.24-0.537-0.535v-3.461c0-0.297,0.24-0.535,0.537-0.535h5.229v-5.23c0-0.299,0.238-0.537,0.535-0.537h3.461
	c0.296,0,0.536,0.238,0.536,0.537v5.23h5.229c0.297,0,0.537,0.238,0.537,0.535v3.461c0,0.295-0.24,0.535-0.537,0.535h-5.229v5.23
	c0,0.297-0.24,0.535-0.536,0.535H1730.626z"/>
<path fill="none" d="M43.88,16.362c0.338-0.578,0.601-1.309,0.79-2.191s0.285-1.92,0.285-3.115c0-0.166-0.006-0.338-0.015-0.51
	c-0.009-0.172-0.015-0.337-0.015-0.496l-6.934,5.208c0.22,0.695,0.509,1.257,0.86,1.692h3.324c0.381,0,0.739,0.09,1.063,0.241
	C43.471,16.958,43.688,16.69,43.88,16.362z"/>
<path fill="none" d="M44.442,6.839C44.11,5.863,43.67,5.14,43.125,4.671s-1.189-0.703-1.93-0.703c-0.53,0-1.023,0.141-1.48,0.422
	c-0.455,0.281-0.852,0.712-1.189,1.295c-0.335,0.582-0.601,1.312-0.796,2.19c-0.195,0.878-0.291,1.918-0.291,3.122
	c0,0.197,0,0.381,0,0.555c0,0.172,0.009,0.348,0.029,0.525L44.442,6.839z"/>
<g>
	<polygon fill="#6A6A6A" points="23.246,1.23 20.327,1.23 14.418,4.471 15.558,7.417 19.686,5.048 19.686,17.479 14.945,17.479 
		14.945,20.691 27.332,20.691 27.332,17.479 23.246,17.479 	"/>
	<path fill="#6A6A6A" d="M32.008,20.824c0.312-0.137,0.583-0.328,0.811-0.57c0.228-0.24,0.408-0.525,0.542-0.85
		c0.131-0.326,0.198-0.676,0.198-1.051c0-0.365-0.067-0.711-0.198-1.037c-0.134-0.326-0.314-0.605-0.542-0.844
		c-0.228-0.236-0.498-0.424-0.811-0.562c-0.314-0.139-0.649-0.207-1.011-0.207s-0.696,0.068-1.005,0.207
		c-0.308,0.139-0.579,0.326-0.811,0.562c-0.233,0.238-0.415,0.518-0.55,0.844c-0.133,0.326-0.198,0.672-0.198,1.037
		c0,0.375,0.065,0.725,0.198,1.051c0.135,0.324,0.316,0.609,0.55,0.85c0.231,0.242,0.503,0.434,0.811,0.57
		c0.309,0.139,0.644,0.207,1.005,0.207S31.693,20.962,32.008,20.824z"/>
	<path fill="#6A6A6A" d="M29.182,10.064c0.231,0.238,0.503,0.424,0.811,0.562c0.309,0.139,0.644,0.207,1.005,0.207
		s0.696-0.068,1.011-0.207c0.312-0.138,0.583-0.324,0.811-0.562c0.228-0.236,0.408-0.518,0.542-0.842
		c0.131-0.326,0.198-0.676,0.198-1.051c0-0.365-0.067-0.711-0.198-1.036c-0.134-0.327-0.314-0.609-0.542-0.851
		c-0.228-0.242-0.498-0.432-0.811-0.57c-0.314-0.137-0.649-0.207-1.011-0.207s-0.696,0.07-1.005,0.207
		c-0.308,0.139-0.579,0.328-0.811,0.57c-0.233,0.241-0.415,0.523-0.55,0.851c-0.133,0.325-0.198,0.671-0.198,1.036
		c0,0.375,0.065,0.725,0.198,1.051C28.767,9.546,28.948,9.828,29.182,10.064z"/>
	<path fill="#6A6A6A" d="M38.716,16.951h0.137c-0.352-0.435-0.641-0.997-0.86-1.692l6.934-5.208c0,0.158,0.006,0.323,0.015,0.496
		c0.009,0.172,0.015,0.344,0.015,0.51c0,1.195-0.096,2.232-0.285,3.115s-0.452,1.613-0.79,2.191c-0.192,0.328-0.409,0.596-0.64,0.83
		c0.867,0.403,1.474,1.277,1.474,2.295v0.545c0.682-0.426,1.279-0.975,1.786-1.658c0.642-0.863,1.125-1.92,1.46-3.174
		c0.33-1.254,0.496-2.674,0.496-4.264c0-1.753-0.175-3.259-0.524-4.513c-0.354-1.252-0.84-2.277-1.461-3.076
		c-0.621-0.8-1.364-1.387-2.227-1.762c-0.866-0.375-1.811-0.562-2.833-0.562c-1.178,0-2.232,0.228-3.163,0.681
		c-0.93,0.454-1.714,1.112-2.349,1.976c-0.636,0.863-1.122,1.922-1.458,3.175c-0.338,1.253-0.507,2.673-0.507,4.26
		c0,1.746,0.175,3.248,0.527,4.5c0.351,1.252,0.84,2.281,1.467,3.086c0.095,0.121,0.197,0.229,0.297,0.34
		C36.438,17.855,37.471,16.951,38.716,16.951z M37.438,10.997c0-1.204,0.096-2.244,0.291-3.122c0.195-0.879,0.461-1.608,0.796-2.19
		c0.338-0.583,0.734-1.014,1.189-1.295c0.457-0.281,0.95-0.422,1.48-0.422c0.74,0,1.385,0.234,1.93,0.703s0.985,1.191,1.317,2.168
		l-6.975,5.238c-0.021-0.178-0.029-0.354-0.029-0.525C37.438,11.378,37.438,11.194,37.438,10.997z"/>
</g>
<path id="plus_1_" fill="#50B34B" d="M38.716,35.015c-0.297,0-0.535-0.239-0.535-0.536v-5.23h-5.229
	c-0.297,0-0.537-0.239-0.537-0.534v-3.461c0-0.298,0.24-0.536,0.537-0.536h5.229v-5.23c0-0.298,0.238-0.536,0.535-0.536h3.461
	c0.297,0,0.537,0.238,0.537,0.536v5.23h5.229c0.297,0,0.537,0.238,0.537,0.536v3.461c0,0.295-0.24,0.534-0.537,0.534h-5.229v5.23
	c0,0.297-0.24,0.536-0.537,0.536H38.716z"/>
</svg>
