<?xml version="1.0" encoding="UTF-8" standalone="no"?>
<!-- Generator: Adobe Illustrator 15.1.0, SVG Export Plug-In . SVG Version: 6.00 Build 0)  -->

<svg
   xmlns:dc="http://purl.org/dc/elements/1.1/"
   xmlns:cc="http://creativecommons.org/ns#"
   xmlns:rdf="http://www.w3.org/1999/02/22-rdf-syntax-ns#"
   xmlns:svg="http://www.w3.org/2000/svg"
   xmlns="http://www.w3.org/2000/svg"
   xmlns:sodipodi="http://sodipodi.sourceforge.net/DTD/sodipodi-0.dtd"
   xmlns:inkscape="http://www.inkscape.org/namespaces/inkscape"
   version="1.1"
   id="Layer_1"
   x="0px"
   y="0px"
   width="20px"
   height="20px"
   viewBox="0 0 20 20"
   enable-background="new 0 0 20 20"
   xml:space="preserve"
   inkscape:version="0.48.4 r9939"
   sodipodi:docname="longomatch-arrow.svg"><metadata
     id="metadata8"><rdf:RDF><cc:Work
         rdf:about=""><dc:format>image/svg+xml</dc:format><dc:type
           rdf:resource="http://purl.org/dc/dcmitype/StillImage" /><dc:title></dc:title></cc:Work></rdf:RDF></metadata><defs
     id="defs6" /><sodipodi:namedview
     pagecolor="#ffffff"
     bordercolor="#666666"
     borderopacity="1"
     objecttolerance="10"
     gridtolerance="10"
     guidetolerance="10"
     inkscape:pageopacity="0"
     inkscape:pageshadow="2"
     inkscape:window-width="1118"
     inkscape:window-height="669"
     id="namedview4"
     showgrid="false"
     inkscape:zoom="23.922656"
     inkscape:cx="2.2458444"
     inkscape:cy="10"
     inkscape:window-x="0"
     inkscape:window-y="27"
     inkscape:window-maximized="0"
     inkscape:current-layer="Layer_1" /><path
     id="arrow-right"
     d="m 19.712,13.963 -4.33,-4.33 C 15.264,9.514 15.106,9.451 14.945,9.451 c -0.08,0 -0.161,0.015 -0.236,0.047 -0.232,0.096 -0.383,0.322 -0.383,0.572 v 3.093 H 0.717 c -0.342,0 -0.617,0.276 -0.617,0.618 v 1.238 c 0,0.342 0.275,0.619 0.617,0.619 h 13.609 v 3.092 c 0,0.25 0.15,0.475 0.383,0.57 0.075,0.035 0.156,0.049 0.236,0.049 0.16,0 0.318,-0.064 0.437,-0.182 l 4.33,-4.331 c 0.243,-0.24 0.243,-0.632 0,-0.873 z"
     inkscape:connector-curvature="0"
     style="fill:#55d400" /><path
     style="fill:#d40000"
     inkscape:connector-curvature="0"
     id="arrow-right-8"
     d="m 0.28225,5.5440004 4.33,-4.33 c 0.118,-0.119 0.276,-0.182 0.437,-0.182 0.08,0 0.161,0.015 0.236,0.047 0.232,0.096 0.383,0.322 0.383,0.572 v 3.093 h 13.609 c 0.342,0 0.617,0.276 0.617,0.618 v 1.238 c 0,0.342 -0.275,0.6189996 -0.617,0.6189996 h -13.609 v 3.092 c 0,0.25 -0.15,0.475 -0.383,0.57 -0.075,0.035 -0.156,0.049 -0.236,0.049 -0.16,0 -0.318,-0.064 -0.437,-0.182 l -4.33,-4.3309996 c -0.243,-0.24 -0.243,-0.632 0,-0.873 z" /></svg>