<?xml version="1.0" encoding="utf-8"?>
<!-- Generator: Adobe Illustrator 15.1.0, SVG Export Plug-In . SVG Version: 6.00 Build 0)  -->
<!DOCTYPE svg PUBLIC "-//W3C//DTD SVG 1.1//EN" "http://www.w3.org/Graphics/SVG/1.1/DTD/svg11.dtd">
<svg version="1.1" id="Layer_1" xmlns="http://www.w3.org/2000/svg" xmlns:xlink="http://www.w3.org/1999/xlink" x="0px" y="0px"
	 width="80px" height="80px" viewBox="0 0 80 80" enable-background="new 0 0 80 80" xml:space="preserve">
<ellipse fill="#151A20" cx="39.917" cy="40" rx="34.917" ry="35"/>
<ellipse fill="#3B3B3C" cx="39.917" cy="40" rx="25.917" ry="25.979"/>
<linearGradient id="prelight_1_" gradientUnits="userSpaceOnUse" x1="39.9175" y1="65.9785" x2="39.9175" y2="14.022">
	<stop  offset="0" style="stop-color:#3B3B3C"/>
	<stop  offset="1" style="stop-color:#585859"/>
</linearGradient>
<ellipse id="prelight" display="none" fill="url(#prelight_1_)" cx="39.917" cy="40" rx="25.917" ry="25.979"/>
<linearGradient id="pessed_1_" gradientUnits="userSpaceOnUse" x1="39.9175" y1="65.9785" x2="39.9175" y2="14.022">
	<stop  offset="0" style="stop-color:#585859"/>
	<stop  offset="0.0323" style="stop-color:#515152"/>
	<stop  offset="0.1224" style="stop-color:#454546"/>
	<stop  offset="0.2414" style="stop-color:#3D3D3E"/>
	<stop  offset="0.5" style="stop-color:#3B3B3C"/>
	<stop  offset="0.7884" style="stop-color:#3D3D3E"/>
	<stop  offset="0.8922" style="stop-color:#444445"/>
	<stop  offset="0.966" style="stop-color:#4F4F50"/>
	<stop  offset="1" style="stop-color:#585859"/>
</linearGradient>
<ellipse id="pessed" display="none" fill="url(#pessed_1_)" cx="39.917" cy="40" rx="25.917" ry="25.979"/>
<g>
	<g>
		<path fill="#6A6A6A" d="M38.425,49.269c0-1.332,0.953-2.455,2.266-2.674l0.172-0.029l-0.079-0.109
			c-0.774-1.086-0.65-2.555,0.293-3.494l0.678-0.678c0.91-0.915,2.446-1.04,3.498-0.281l0.111,0.078l0.03-0.181
			c0.205-1.303,1.329-2.264,2.671-2.264h0.015c0.061-3.468,0.061-4.935,0.061-4.935l3.498,4.252c0,0,0.83,0.083,3.067-2.045
			c2.205-2.099,1.938-3.015,1.938-3.015s-4.145-5.651-5.005-6.51c-0.837-0.838-3.619-2.539-7.433-3.227
			c-0.107-0.018-0.209-0.032-0.244-0.012c-0.057,0.031-0.07,0.035-0.07,0.163c0,0.602-0.323,2.322-3.987,2.323
			c-3.665-0.001-3.988-1.721-3.988-2.323c0-0.127-0.014-0.132-0.069-0.163c-0.034-0.02-0.136-0.006-0.245,0.012
			c-3.813,0.688-6.595,2.389-7.432,3.227c-0.861,0.859-5.004,6.51-5.004,6.51s-0.268,0.916,1.938,3.015
			c2.237,2.128,3.066,2.045,3.066,2.045l3.497-4.252c0,0,0,2.152,0.11,7.426c0.106,5.273,0.698,8.289,0.698,8.289
			c1.287,0.855,4.604,1.119,6.336,1.199c-0.242-0.408-0.385-0.879-0.385-1.385V49.269z"/>
		<path fill="#6A6A6A" d="M29.864,39.83l-0.744,0.906l-0.963,0.084c-1.109,0-2.529-0.836-4.34-2.559
			c-0.44-0.419-0.806-0.812-1.114-1.183c0.008,0.87,0.028,2.347,0.074,4.562c0.08,3.937,0.522,6.188,0.522,6.188
			c1.326,0.881,5.548,0.922,5.548,0.922s0.637-0.008,1.49-0.064c-0.174-1.471-0.369-3.674-0.428-6.521
			C29.892,41.307,29.878,40.527,29.864,39.83z"/>
		<path fill="#6A6A6A" d="M21.373,33.37l0.092-0.314l0.194-0.265c0.438-0.599,1.985-2.701,3.313-4.426
			c-2.501,0.575-4.314,1.689-4.888,2.265c-0.644,0.643-3.737,4.861-3.737,4.861s-0.201,0.684,1.447,2.251
			c1.671,1.59,2.291,1.526,2.291,1.526l2.221-2.699C21.239,35.101,21.174,34.05,21.373,33.37z"/>
		<path fill="#6A6A6A" d="M51.776,42.341c0.067,0.029,0.134,0.061,0.2,0.09l0.363-0.227c1.054-0.671,2.613-0.468,3.469,0.498
			l0.637,0.715c0.221,0.25,0.384,0.529,0.498,0.822c0.052-0.758,0.095-1.627,0.114-2.599c0.045-2.245,0.065-3.73,0.075-4.595
			c-0.313,0.38-0.69,0.784-1.142,1.215c-1.811,1.723-3.23,2.559-4.339,2.559l-0.197-0.008l-0.218-0.021
			c0.229,0.323,0.396,0.694,0.466,1.108L51.776,42.341z"/>
		<path fill="#6A6A6A" d="M63.487,35.491c0,0-3.095-4.219-3.738-4.861c-0.575-0.579-2.401-1.698-4.92-2.272
			c1.329,1.726,2.879,3.833,3.318,4.433l0.193,0.265l0.093,0.314c0.198,0.676,0.134,1.723-0.919,3.182l2.234,2.717
			c0,0,0.62,0.063,2.291-1.526C63.688,36.175,63.487,35.491,63.487,35.491z"/>
	</g>
	<path id="settings_2_" fill="#50B44D" d="M56.06,48.567L54.451,48.3c-0.115-0.477-0.288-0.934-0.51-1.359l1.03-1.275
		c0.218-0.27,0.208-0.66-0.021-0.918l-0.642-0.721c-0.229-0.26-0.615-0.314-0.907-0.129l-1.376,0.863
		c-0.604-0.422-1.29-0.734-2.027-0.914l-0.269-1.617c-0.058-0.341-0.354-0.593-0.701-0.593h-0.965c-0.347,0-0.645,0.252-0.698,0.593
		l-0.271,1.617c-0.611,0.148-1.183,0.391-1.707,0.709l-1.308-0.932c-0.281-0.203-0.668-0.172-0.913,0.074l-0.681,0.68
		c-0.246,0.246-0.277,0.633-0.076,0.916l0.935,1.309c-0.314,0.52-0.552,1.088-0.702,1.695l-1.626,0.27
		c-0.341,0.057-0.593,0.354-0.593,0.701v0.963c0,0.348,0.252,0.645,0.593,0.701l1.626,0.271c0.123,0.496,0.3,0.973,0.537,1.414
		l-1.023,1.27c-0.219,0.268-0.209,0.658,0.022,0.916l0.639,0.721c0.229,0.26,0.616,0.314,0.91,0.129l1.393-0.875
		c0.591,0.404,1.259,0.701,1.975,0.875l0.271,1.617c0.054,0.342,0.352,0.594,0.698,0.594h0.965c0.348,0,0.644-0.252,0.701-0.594
		l0.269-1.617c0.603-0.148,1.168-0.383,1.686-0.695l1.362,0.971c0.28,0.201,0.669,0.172,0.913-0.076l0.683-0.68
		c0.243-0.246,0.277-0.633,0.074-0.914l-0.969-1.359c0.314-0.521,0.554-1.092,0.703-1.701l1.608-0.266
		c0.342-0.057,0.593-0.354,0.593-0.701v-0.963C56.652,48.921,56.401,48.624,56.06,48.567z M48.563,52.794
		c-1.68,0-3.042-1.365-3.042-3.045s1.362-3.041,3.042-3.041c1.683,0,3.044,1.361,3.044,3.041S50.246,52.794,48.563,52.794z"/>
</g>
</svg>
