<?xml version="1.0" encoding="utf-8"?>
<!-- Generator: Adobe Illustrator 16.0.0, SVG Export Plug-In . SVG Version: 6.00 Build 0)  -->
<!DOCTYPE svg PUBLIC "-//W3C//DTD SVG 1.1//EN" "http://www.w3.org/Graphics/SVG/1.1/DTD/svg11.dtd">
<svg version="1.1" id="Layer_1" xmlns="http://www.w3.org/2000/svg" xmlns:xlink="http://www.w3.org/1999/xlink" x="0px" y="0px"
	 width="48px" height="48px" viewBox="0 0 48 48" enable-background="new 0 0 48 48" xml:space="preserve">
<g>
	<g>
		<path fill="#6A6A6A" d="M31.287,28.209h8.846c0.457,0,0.873,0.279,1.049,0.707c0.053,0.141,0.086,0.286,0.086,0.438
			c0,0.299-0.117,0.59-0.33,0.805L23.936,46.165c-0.223,0.219-0.514,0.335-0.801,0.335c-0.293,0-0.582-0.116-0.803-0.335
			L5.336,30.156c-0.219-0.215-0.333-0.506-0.333-0.806c0-0.15,0.028-0.297,0.085-0.438c0.175-0.426,0.586-0.706,1.046-0.706h8.85
			L16.159,3.51c0-0.628,0.508-1.142,1.133-1.142h11.337c0.621,0,1.131,0.514,1.131,1.142L31.287,28.209z"/>
	</g>
	<g>
		<g>
			<circle fill="#3B3B3C" cx="31.74" cy="12.757" r="11.259"/>
		</g>
		<g>
			<path id="settings_18_" fill="#50B44D" d="M28.906,7.075c-0.178,0.101-0.354,0.213-0.52,0.327l-1.465-0.919
				c-0.314-0.196-0.724-0.139-0.97,0.141L25.271,7.39c-0.246,0.276-0.257,0.69-0.023,0.976l1.096,1.36
				c-0.234,0.456-0.416,0.94-0.541,1.45l-1.715,0.288c-0.366,0.059-0.631,0.372-0.631,0.745v1.022c0,0.372,0.265,0.689,0.631,0.749
				l1.713,0.282c0.158,0.649,0.414,1.259,0.748,1.815l-1.031,1.447c-0.219,0.298-0.18,0.711,0.08,0.974l0.727,0.723
				c0.262,0.262,0.677,0.297,0.974,0.079l1.448-1.03c0.553,0.331,1.158,0.582,1.801,0.737l0.287,1.727
				c0.061,0.364,0.375,0.63,0.746,0.63h1.027c0.367,0,0.684-0.266,0.744-0.63l0.289-1.727c0.76-0.187,1.471-0.501,2.1-0.932
				l1.488,0.933c0.313,0.2,0.723,0.143,0.969-0.137l0.68-0.768c0.244-0.274,0.258-0.689,0.023-0.974l-1.09-1.354
				c0.25-0.47,0.439-0.978,0.572-1.513l1.73-0.283c0.365-0.06,0.633-0.377,0.633-0.749v-1.022c0-0.374-0.268-0.687-0.633-0.745
				l-1.73-0.291c-0.158-0.649-0.416-1.252-0.748-1.806l0.994-1.397c0.215-0.302,0.18-0.71-0.08-0.973l-0.725-0.723
				c-0.264-0.265-0.676-0.299-0.975-0.085l-1.395,0.995c-0.557-0.338-1.166-0.595-1.814-0.755l-0.287-1.722
				c-0.063-0.364-0.379-0.632-0.744-0.632h-1.027c-0.373,0-0.688,0.268-0.746,0.632L30.549,6.43
				C29.963,6.572,29.418,6.789,28.906,7.075 M28.832,12.716c0-1.786,1.451-3.236,3.244-3.236c1.787,0,3.24,1.454,3.24,3.236
				c0,1.794-1.453,3.245-3.24,3.245C30.283,15.963,28.832,14.512,28.832,12.716z"/>
		</g>
	</g>
</g>
</svg>
