<?xml version="1.0" encoding="utf-8"?>
<!-- Generator: Adobe Illustrator 15.1.0, SVG Export Plug-In . SVG Version: 6.00 Build 0)  -->
<!DOCTYPE svg PUBLIC "-//W3C//DTD SVG 1.1//EN" "http://www.w3.org/Graphics/SVG/1.1/DTD/svg11.dtd">
<svg version="1.1" id="Layer_1" xmlns="http://www.w3.org/2000/svg" xmlns:xlink="http://www.w3.org/1999/xlink" x="0px" y="0px"
	 width="36px" height="36px" viewBox="13.49 0 36 36" enable-background="new 13.49 0 36 36" xml:space="preserve">
<path id="plus_12_" fill="#6A6A6A" d="M1730.626,833.451c-0.297,0-0.535-0.238-0.535-0.535v-5.23h-5.229
	c-0.297,0-0.537-0.24-0.537-0.535v-3.461c0-0.297,0.24-0.535,0.537-0.535h5.229v-5.23c0-0.299,0.238-0.537,0.535-0.537h3.461
	c0.296,0,0.536,0.238,0.536,0.537v5.23h5.229c0.297,0,0.537,0.238,0.537,0.535v3.461c0,0.295-0.24,0.535-0.537,0.535h-5.229v5.23
	c0,0.297-0.24,0.535-0.536,0.535H1730.626z"/>
<path fill="#6A6A6A" d="M14.49,6.536v22.495h16.073c0.266-1.19,0.857-2.284,1.741-3.168l0.009-0.009v-2.433v-1.679v-7.918v-1.68
	V6.536H14.49z M30.633,27.352H16.169V8.215h14.464v4.02c-0.026,0.004-0.05,0.015-0.076,0.02c-0.288,0.053-0.569,0.125-0.841,0.22
	c-0.042,0.015-0.082,0.032-0.124,0.047c-0.275,0.104-0.544,0.225-0.797,0.37c-0.022,0.012-0.042,0.027-0.063,0.04
	c-0.252,0.148-0.491,0.314-0.717,0.498c-0.017,0.014-0.035,0.026-0.052,0.04c-0.223,0.186-0.428,0.392-0.619,0.61
	c-0.03,0.033-0.061,0.065-0.09,0.1c-0.18,0.214-0.343,0.443-0.49,0.683c-0.026,0.044-0.054,0.088-0.08,0.133
	c-0.14,0.243-0.263,0.496-0.366,0.759c-0.018,0.045-0.033,0.092-0.05,0.138c-0.1,0.272-0.181,0.553-0.236,0.843
	c-0.007,0.035-0.01,0.07-0.016,0.104c-0.054,0.308-0.087,0.622-0.087,0.944s0.033,0.637,0.087,0.945
	c0.006,0.034,0.009,0.068,0.016,0.103c0.056,0.291,0.138,0.572,0.236,0.846c0.017,0.045,0.031,0.09,0.049,0.134
	c0.104,0.266,0.228,0.521,0.369,0.765c0.024,0.043,0.051,0.084,0.076,0.126c0.148,0.242,0.312,0.473,0.494,0.689
	c0.027,0.031,0.056,0.062,0.084,0.093c0.193,0.22,0.399,0.428,0.624,0.615c0.016,0.013,0.031,0.023,0.047,0.035
	c0.227,0.186,0.469,0.354,0.723,0.502c0.021,0.013,0.039,0.026,0.061,0.038c0.254,0.145,0.521,0.266,0.798,0.37
	c0.042,0.016,0.082,0.032,0.124,0.047c0.271,0.095,0.551,0.167,0.837,0.22c0.027,0.005,0.053,0.016,0.08,0.021V27.352z
	 M30.633,21.612c-0.221-0.054-0.437-0.121-0.642-0.211c-0.04-0.018-0.076-0.043-0.116-0.062c-0.174-0.083-0.344-0.176-0.503-0.282
	c-0.068-0.046-0.131-0.101-0.197-0.151c-0.121-0.093-0.239-0.188-0.349-0.294c-0.066-0.063-0.127-0.132-0.188-0.2
	c-0.097-0.107-0.188-0.219-0.274-0.336c-0.055-0.076-0.106-0.153-0.156-0.232c-0.077-0.125-0.146-0.255-0.209-0.388
	c-0.039-0.082-0.079-0.162-0.112-0.247c-0.06-0.149-0.104-0.306-0.144-0.463c-0.02-0.076-0.046-0.15-0.061-0.229
	c-0.046-0.238-0.074-0.482-0.074-0.733s0.028-0.496,0.074-0.734c0.015-0.078,0.041-0.152,0.061-0.229
	c0.04-0.157,0.084-0.313,0.144-0.462c0.033-0.085,0.074-0.166,0.112-0.248c0.063-0.133,0.132-0.263,0.209-0.387
	c0.05-0.08,0.102-0.157,0.157-0.233c0.085-0.117,0.176-0.229,0.272-0.335c0.062-0.068,0.123-0.137,0.189-0.201
	c0.109-0.105,0.228-0.201,0.35-0.294c0.065-0.05,0.128-0.105,0.196-0.151c0.16-0.107,0.331-0.2,0.506-0.284
	c0.039-0.019,0.074-0.043,0.113-0.06c0.205-0.089,0.421-0.157,0.642-0.21V21.612z"/>
<path id="clip_1_" fill="#50B44D" d="M47.054,20.292c-1.753-1.753-4.597-1.753-6.352,0.001l-6.984,6.985
	c-1.755,1.754-1.755,4.599-0.001,6.352c1.752,1.755,4.598,1.755,6.352,0l1.479-1.438c-0.795-0.017-1.521-0.277-2.136-0.696
	l-0.755,0.723c-0.975,0.976-2.555,0.976-3.528,0c-0.975-0.973-0.975-2.554,0-3.529l6.986-6.985c0.975-0.974,2.554-0.974,3.528,0
	c0.976,0.976,0.976,2.553,0.001,3.528l-3.481,3.506c-0.292,0.291-0.767,0.291-1.06,0c-0.292-0.293-0.292-0.767,0-1.06l2.629-2.652
	c0.195-0.195,0.196-0.511,0-0.707l-0.705-0.704c-0.195-0.194-0.511-0.194-0.706,0l-2.628,2.652c-1.072,1.072-1.072,2.812,0,3.881
	c1.07,1.073,2.811,1.073,3.88,0l3.481-3.504C48.809,24.89,48.809,22.045,47.054,20.292z"/>
</svg>
