<?xml version="1.0" encoding="utf-8"?>
<!-- Generator: Adobe Illustrator 16.0.0, SVG Export Plug-In . SVG Version: 6.00 Build 0)  -->
<!DOCTYPE svg PUBLIC "-//W3C//DTD SVG 1.1//EN" "http://www.w3.org/Graphics/SVG/1.1/DTD/svg11.dtd">
<svg version="1.1" id="Layer_1" xmlns="http://www.w3.org/2000/svg" xmlns:xlink="http://www.w3.org/1999/xlink" x="0px" y="0px"
	 width="36px" height="36px" viewBox="0 0 36 36" enable-background="new 0 0 36 36" xml:space="preserve">
<path id="plus_12_" fill="#6A6A6A" d="M1730.626,833.451c-0.297,0-0.535-0.238-0.535-0.535v-5.23h-5.229
	c-0.298,0-0.537-0.238-0.537-0.533v-3.461c0-0.299,0.239-0.535,0.537-0.535h5.229v-5.23c0-0.299,0.238-0.537,0.535-0.537h3.461
	c0.296,0,0.536,0.238,0.536,0.537v5.23h5.229c0.299,0,0.537,0.236,0.537,0.535v3.461c0,0.295-0.238,0.533-0.537,0.533h-5.229v5.23
	c0,0.297-0.24,0.535-0.536,0.535H1730.626z"/>
<g>
	<path fill="#6A6A6A" d="M6.037,22.447l7.549-3.062c-1.039-0.693-1.996-1.375-2.656-3.375H7.614l-6.546,2.715
		c0,0-1.068,0.469-1.068,1.496v1.219c0,0.672,0.248,1.57,0.92,1.57h4.375L6.037,22.447z"/>
	<path fill="#6A6A6A" d="M9.924,15.61c0,0,0.243-0.004,0.612-0.062c-0.171-0.528-0.312-1.096-0.398-1.721
		c-0.441,0.102-0.905-0.004-1.263-0.284c-0.36-0.284-0.57-0.719-0.57-1.179c0-2.713,0.959-7.099,4.052-9.533
		c-0.714-0.309-1.54-0.506-2.537-0.506c-6.259,0-6.259,7.677-6.259,7.677c0.898-0.216,1.342-0.237,1.342-0.237
		C4.914,15.61,9.924,15.61,9.924,15.61z"/>
	<path fill="#6A6A6A" d="M25.231,19.01h10.231c0.038,0,0.074,0.131,0.111,0.133c-0.352-0.359-0.791-0.479-0.791-0.479l-6.694-2.655
		h-3.153c-0.754,2-1.896,2.969-3.107,3.663l1.518,0.623l0.444-0.566C24.163,19.352,24.69,19.01,25.231,19.01z"/>
	<path fill="#6A6A6A" d="M27.553,12.096c0.016,0.086,0.023,0.249,0.023,0.339c0,0.828-0.672,1.574-1.5,1.574
		c-0.006,0-0.014,0-0.02,0c-0.111,0-0.223-0.088-0.332-0.111c-0.077,0.559-0.2,1.028-0.345,1.509
		c0.773,0.235,1.366,0.223,1.366,0.223s5.018-0.01,5.018-5.852c0.588,0.006,1.344,0.225,1.344,0.225s0-7.676-6.465-7.676
		c-1.206,0-2.176,0.288-2.961,0.747C26.527,5.466,27.494,9.46,27.553,12.096z"/>
	<path fill="#6A6A6A" d="M17.863,26.018l4.158-4.152l-2.375-0.855h-4.664l-8.489,2.982c0,0-1.493,0.113-1.493,1.426v1.557
		c0,0.857,0.572,2.035,1.432,2.035h11.33C17.086,28.01,17.113,26.773,17.863,26.018z"/>
	<path fill="#6A6A6A" d="M11.518,12.061c0.016,7.466,6.414,7.466,6.414,7.466s6.408,0,6.408-7.46
		c0.752,0.006,1.717,0.293,1.717,0.293s0-9.803-8.258-9.803c-7.994,0-7.994,9.807-7.994,9.807
		C10.951,12.088,11.518,12.061,11.518,12.061z"/>
	<path id="delete_4_" fill="#C42527" d="M35.463,20.754H25.231c-0.143,0-0.281,0.057-0.381,0.158l-5.923,5.922
		c-0.21,0.211-0.21,0.553,0,0.762l5.923,5.924c0.1,0.1,0.238,0.156,0.381,0.156h10.231c0.297,0,0.537-0.242,0.537-0.541V21.291
		C35.998,20.996,35.76,20.754,35.463,20.754z M33.673,30.521l-0.827,0.826c-0.227,0.227-0.595,0.227-0.827,0l-2.479-2.48l-2.48,2.48
		c-0.229,0.23-0.598,0.23-0.827,0l-0.827-0.826c-0.23-0.23-0.226-0.6,0-0.826l2.483-2.482l-2.485-2.479
		c-0.229-0.229-0.229-0.602,0-0.828l0.828-0.826c0.23-0.229,0.597-0.229,0.824,0l2.484,2.48l2.479-2.48
		c0.229-0.229,0.601-0.229,0.827,0l0.827,0.826c0.229,0.227,0.229,0.598,0,0.828l-2.481,2.479l2.481,2.48
		C33.902,29.922,33.902,30.291,33.673,30.521z"/>
</g>
</svg>
