<?xml version="1.0" encoding="utf-8"?>
<!-- Generator: Adobe Illustrator 14.0.0, SVG Export Plug-In . SVG Version: 6.00 Build 43363)  -->
<!DOCTYPE svg PUBLIC "-//W3C//DTD SVG 1.1//EN" "http://www.w3.org/Graphics/SVG/1.1/DTD/svg11.dtd">
<svg version="1.1" id="Capa_1" xmlns="http://www.w3.org/2000/svg" xmlns:xlink="http://www.w3.org/1999/xlink" x="0px" y="0px"
	 width="36px" height="36px" viewBox="0 0 36 36" enable-background="new 0 0 36 36" xml:space="preserve">
<g>
	<path fill="#50B44D" d="M17.495,1.152c0.106-0.105,0.243-0.155,0.383-0.155c0.135,0,0.274,0.05,0.382,0.155l8.083,7.542
		C26.443,8.797,26.5,8.932,26.5,9.077c0,0.068-0.018,0.138-0.043,0.207c-0.082,0.199-0.281,0.332-0.496,0.332h-3.826v8.08
		l-4.256,2.222l-4.364-2.222v-8.08H9.796c-0.219,0-0.414-0.133-0.497-0.332c-0.028-0.07-0.04-0.139-0.04-0.207
		c0-0.142,0.055-0.277,0.158-0.383L17.495,1.152z"/>
	<path fill="#6A6A6A" d="M30.402,15.268l-6.592-3.354l0.037,3.368l3.758,1.88l-9.729,4.822l-9.729-4.819l3.76-1.881l-0.018-3.37
		l-6.54,3.355c-0.274,0.138-0.447,0.419-0.447,0.729v12.063c0,0.311,0.174,0.588,0.447,0.728l12.163,6.126
		c0.114,0.064,0.235,0.091,0.363,0.091c0.122,0,0.248-0.024,0.361-0.091l12.163-6.126c0.279-0.14,0.449-0.417,0.449-0.728V15.999
		C30.852,15.686,30.678,15.409,30.402,15.268z"/>
</g>
</svg>
