<?xml version="1.0" encoding="utf-8"?>
<!-- Generator: Adobe Illustrator 16.0.0, SVG Export Plug-In . SVG Version: 6.00 Build 0)  -->
<!DOCTYPE svg PUBLIC "-//W3C//DTD SVG 1.1//EN" "http://www.w3.org/Graphics/SVG/1.1/DTD/svg11.dtd">
<svg version="1.1" id="Layer_1" xmlns="http://www.w3.org/2000/svg" xmlns:xlink="http://www.w3.org/1999/xlink" x="0px" y="0px"
	 width="36px" height="36px" viewBox="0 0 36 36" enable-background="new 0 0 36 36" xml:space="preserve">
<path id="plus_12_" fill="#6A6A6A" d="M1730.626,833.451c-0.297,0-0.535-0.238-0.535-0.535v-5.23h-5.229
	c-0.298,0-0.537-0.239-0.537-0.534v-3.461c0-0.298,0.239-0.535,0.537-0.535h5.229v-5.23c0-0.299,0.238-0.537,0.535-0.537h3.461
	c0.296,0,0.536,0.238,0.536,0.537v5.23h5.229c0.298,0,0.537,0.237,0.537,0.535v3.461c0,0.295-0.239,0.534-0.537,0.534h-5.229v5.23
	c0,0.297-0.24,0.535-0.536,0.535H1730.626z"/>
<g>
	<path fill="none" d="M5.5,24.456c2-0.803,4-1.508,5-2.307V7.326c-1,0.803-3,1.601-5,2.401C5.5,15.915,5.5,18.271,5.5,24.456z"/>
	<path fill="#6A6A6A" d="M14.996,23.866l0.553-0.518c-1.707-0.787-3.049-1.465-3.049-1.475V7.085c3,1.005,8,3.03,8,3.05v12.149
		l2,2.189V9.971c1-0.785,3-1.569,5-2.358c0,5.387,0,8.089,0,12.796l2.721-2.693c0.344-0.354,0.797-0.576,1.279-0.672
		c0-3.693,0-8.324,0-12.209c0-1.072-0.369-1.312-0.902-1.686c-0.494-0.291-1.428-0.179-1.822-0.014
		c-2.605,1.098-4.99,2.479-7.598,3.576c-2.654-1.098-5.543-2.479-8.199-3.576c-0.301-0.125-0.597-0.167-0.879-0.16
		c-0.271-0.007-0.556,0.035-0.846,0.16C8.348,4.383,5.416,5.628,2.507,6.873C1.743,7.201,1.5,7.63,1.5,8.573
		c0,0.943,0,17.752,0,18.686s0.678,1.541,1.357,1.721c0.457,0.186,0.998,0.215,1.549-0.023c2.624-1.125,4.79-2.148,7.415-3.273
		c0.853,0.365,1.759,0.719,2.679,1.068C14.084,25.802,14.244,24.647,14.996,23.866z M10.5,22.149c-1,0.799-3,1.504-5,2.307
		c0-6.186,0-8.542,0-14.729c2-0.801,4-1.599,5-2.401V22.149z"/>
	<path fill="#50B44B" d="M22.115,32.708c0.199,0.205,0.469,0.322,0.752,0.322c0.285,0,0.557-0.117,0.756-0.322l10.562-10.922
		c0.199-0.207,0.314-0.488,0.314-0.781c0-0.291-0.115-0.572-0.314-0.777l-1.4-1.445c-0.209-0.215-0.482-0.322-0.756-0.322
		s-0.545,0.107-0.754,0.322l-8.408,8.32l-3.514-3.85c-0.209-0.215-0.48-0.322-0.754-0.322s-0.545,0.107-0.754,0.322l-1.77,1.654
		c-0.416,0.432-0.416,1.129,0,1.561L22.115,32.708z"/>
</g>
</svg>
