<?xml version="1.0" encoding="utf-8"?>
<!-- Generator: Adobe Illustrator 15.1.0, SVG Export Plug-In . SVG Version: 6.00 Build 0)  -->
<!DOCTYPE svg PUBLIC "-//W3C//DTD SVG 1.1//EN" "http://www.w3.org/Graphics/SVG/1.1/DTD/svg11.dtd">
<svg version="1.1" id="Layer_1" xmlns="http://www.w3.org/2000/svg" xmlns:xlink="http://www.w3.org/1999/xlink" x="0px" y="0px"
	 width="20px" height="20px" viewBox="0 0 20 20" enable-background="new 0 0 20 20" xml:space="preserve">
<g id="usericon">
	<path fill="#6A6A6A" d="M17.476,15.34l-5.873-2.137H8.398L2.525,15.34c0,0-1.068,0.166-1.068,1.067v1.068
		c0,0.59,0.479,1.067,1.068,1.067h14.95c0.589,0,1.067-0.478,1.067-1.067v-1.068C18.543,15.522,17.476,15.34,17.476,15.34z"/>
	<path fill="#6A6A6A" d="M10,12.137c2.669,0,4.271-2.503,4.271-4.272v-2.67c0-1.768-1.912-3.737-4.271-3.737
		c-2.358,0-4.272,1.97-4.272,3.737v2.67C5.728,9.466,7.33,12.137,10,12.137z"/>
</g>
</svg>
