<?xml version="1.0" encoding="utf-8"?>
<!-- Generator: Adobe Illustrator 15.1.0, SVG Export Plug-In . SVG Version: 6.00 Build 0)  -->
<!DOCTYPE svg PUBLIC "-//W3C//DTD SVG 1.1//EN" "http://www.w3.org/Graphics/SVG/1.1/DTD/svg11.dtd">
<svg version="1.1" id="Layer_1" xmlns="http://www.w3.org/2000/svg" xmlns:xlink="http://www.w3.org/1999/xlink" x="0px" y="0px"
	 width="36px" height="36px" viewBox="13.49 0 36 36" enable-background="new 13.49 0 36 36" xml:space="preserve">
<path id="plus_12_" fill="#6A6A6A" d="M1730.626,833.451c-0.297,0-0.535-0.238-0.535-0.535v-5.23h-5.229
	c-0.297,0-0.537-0.24-0.537-0.535v-3.461c0-0.297,0.24-0.535,0.537-0.535h5.229v-5.23c0-0.299,0.238-0.537,0.535-0.537h3.461
	c0.296,0,0.536,0.238,0.536,0.537v5.23h5.229c0.297,0,0.537,0.238,0.537,0.535v3.461c0,0.295-0.24,0.535-0.537,0.535h-5.229v5.23
	c0,0.297-0.24,0.535-0.536,0.535H1730.626z"/>
<g>
	<path fill="#6A6A6A" d="M31.181,4.337c0.086-0.086,0.197-0.126,0.31-0.126c0.11,0,0.224,0.04,0.31,0.126l6.553,6.116
		c0.083,0.084,0.129,0.194,0.129,0.311c0,0.055-0.014,0.111-0.035,0.167c-0.065,0.162-0.227,0.269-0.403,0.269h-3.102v6.553
		l-3.451,1.802l-3.539-1.802V11.2h-3.015c-0.178,0-0.336-0.107-0.404-0.269c-0.022-0.056-0.033-0.113-0.033-0.167
		c0-0.116,0.045-0.226,0.129-0.311L31.181,4.337z"/>
	<path fill="#6A6A6A" d="M41.647,15.785l-5.345-2.721l0.03,2.733l3.047,1.524l-7.89,3.909L23.6,17.322l3.048-1.524l-0.012-2.733
		l-5.304,2.721c-0.222,0.113-0.363,0.339-0.363,0.591v9.781c0,0.251,0.142,0.478,0.363,0.59l9.864,4.968
		c0.092,0.051,0.191,0.073,0.294,0.073c0.1,0,0.202-0.022,0.294-0.073l9.863-4.968c0.224-0.112,0.363-0.339,0.363-0.59v-9.781
		C42.011,16.124,41.871,15.898,41.647,15.785z"/>
</g>
</svg>
