<?xml version="1.0" encoding="utf-8"?>
<!-- Generator: Adobe Illustrator 15.1.0, SVG Export Plug-In . SVG Version: 6.00 Build 0)  -->
<!DOCTYPE svg PUBLIC "-//W3C//DTD SVG 1.1//EN" "http://www.w3.org/Graphics/SVG/1.1/DTD/svg11.dtd">
<svg version="1.1" id="Layer_1" xmlns="http://www.w3.org/2000/svg" xmlns:xlink="http://www.w3.org/1999/xlink" x="0px" y="0px"
	 width="22px" height="22px" viewBox="0 0 22 22" enable-background="new 0 0 22 22" xml:space="preserve">
<g>
	<polygon fill="#6A6A6A" points="21.048,18.986 19.548,18.986 19.548,17.986 20.048,17.986 20.048,17.486 21.048,17.486 	"/>
	<path fill="#6A6A6A" d="M17.648,18.986h-1.899v-1h1.899V18.986z M13.85,18.986H11.95v-1h1.899V18.986z M10.05,18.986H8.151v-1
		h1.899V18.986z M6.251,18.986h-1.9v-1h1.9V18.986z"/>
	<polygon fill="#6A6A6A" points="2.452,18.986 0.952,18.986 0.952,17.486 1.952,17.486 1.952,17.986 2.452,17.986 	"/>
	<path fill="#6A6A6A" d="M1.952,15.633h-1v-1.854h1V15.633z M1.952,11.927h-1v-1.854h1V11.927z M1.952,8.22h-1V6.367h1V8.22z"/>
	<polygon fill="#6A6A6A" points="1.952,4.514 0.952,4.514 0.952,3.014 2.452,3.014 2.452,4.014 1.952,4.014 	"/>
	<path fill="#6A6A6A" d="M17.648,4.014h-1.899v-1h1.899V4.014z M13.85,4.014h-1.9v-1h1.9V4.014z M10.05,4.014h-1.9v-1h1.9V4.014z
		 M6.251,4.014H4.352v-1h1.899V4.014z"/>
	<polygon fill="#6A6A6A" points="21.048,4.514 20.048,4.514 20.048,4.014 19.548,4.014 19.548,3.014 21.048,3.014 	"/>
	<path fill="#6A6A6A" d="M21.048,15.633h-1v-1.854h1V15.633z M21.048,11.927h-1v-1.854h1V11.927z M21.048,8.22h-1V6.367h1V8.22z"/>
</g>
<path fill="none" stroke="#6A6A6A" stroke-miterlimit="10" stroke-dasharray="2,2" d="M11,11"/>
<g>
	<rect x="5.765" y="6.502" fill="#6A6A6A" width="1.949" height="8.996"/>
	<rect x="14.286" y="6.502" fill="#6A6A6A" width="1.949" height="8.996"/>
	<g>
		<path fill="#6A6A6A" d="M10.23,8.89c0-0.444,0.3-0.756,0.72-0.756c0.419,0,0.695,0.312,0.707,0.756
			c0,0.419-0.275,0.744-0.72,0.744C10.518,9.633,10.23,9.309,10.23,8.89z M10.23,13.123c0-0.444,0.3-0.755,0.72-0.755
			c0.419,0,0.695,0.311,0.707,0.755c0,0.42-0.275,0.743-0.72,0.743C10.518,13.866,10.23,13.543,10.23,13.123z"/>
	</g>
</g>
</svg>
