<?xml version="1.0" encoding="UTF-8" standalone="no"?>
<!-- Generator: Adobe Illustrator 15.1.0, SVG Export Plug-In . SVG Version: 6.00 Build 0)  -->

<svg
   xmlns:dc="http://purl.org/dc/elements/1.1/"
   xmlns:cc="http://creativecommons.org/ns#"
   xmlns:rdf="http://www.w3.org/1999/02/22-rdf-syntax-ns#"
   xmlns:svg="http://www.w3.org/2000/svg"
   xmlns="http://www.w3.org/2000/svg"
   xmlns:sodipodi="http://sodipodi.sourceforge.net/DTD/sodipodi-0.dtd"
   xmlns:inkscape="http://www.inkscape.org/namespaces/inkscape"
   version="1.1"
   id="Layer_1"
   x="0px"
   y="0px"
   width="19"
   height="15"
   viewBox="0 0 19 15"
   enable-background="new 0 0 37 21"
   xml:space="preserve"
   inkscape:version="0.48.4 r9939"
   sodipodi:docname="longomatch-browse.svg"><metadata
     id="metadata9"><rdf:RDF><cc:Work
         rdf:about=""><dc:format>image/svg+xml</dc:format><dc:type
           rdf:resource="http://purl.org/dc/dcmitype/StillImage" /></cc:Work></rdf:RDF></metadata><defs
     id="defs7" /><sodipodi:namedview
     pagecolor="#ffffff"
     bordercolor="#666666"
     borderopacity="1"
     objecttolerance="10"
     gridtolerance="10"
     guidetolerance="10"
     inkscape:pageopacity="0"
     inkscape:pageshadow="2"
     inkscape:window-width="640"
     inkscape:window-height="480"
     id="namedview5"
     showgrid="false"
     fit-margin-top="0"
     fit-margin-left="0"
     fit-margin-right="0"
     fit-margin-bottom="0"
     inkscape:zoom="14.486607"
     inkscape:cx="9.5"
     inkscape:cy="7.5"
     inkscape:window-x="0"
     inkscape:window-y="27"
     inkscape:window-maximized="0"
     inkscape:current-layer="Layer_1" /><path
     id="folder"
     clip-rule="evenodd"
     d="M 0.594,15 C 0.265,15 0,14.742 0,14.423 V 0.578 C 0,0.258 0.265,0 0.594,0 h 7.352 c 0.225,0 0.43,0.124 0.532,0.319 L 9.5,2.308 h 8.905 C 18.735,2.308 19,2.566 19,2.885 V 14.423 C 19,14.742 18.735,15 18.405,15 H 0.594 z"
     inkscape:connector-curvature="0"
     style="fill:#151a20;fill-rule:evenodd" /><path
     id="plus"
     d="M 9.034,12 C 8.904,12 8.801,11.896 8.801,11.766 V 9.2 H 6.234 C 6.104,9.2 6,9.097 6,8.967 V 8.033 C 6,7.904 6.104,7.801 6.233,7.801 H 8.8 V 5.234 C 8.8,5.104 8.904,5 9.034,5 H 9.968 C 10.096,5 10.2,5.104 10.2,5.234 v 2.567 h 2.565 c 0.13,0 0.234,0.104 0.234,0.232 v 0.934 c 0,0.13 -0.104,0.233 -0.234,0.233 H 10.2 v 2.565 c 0,0.13 -0.104,0.234 -0.233,0.234 H 9.034 z"
     inkscape:connector-curvature="0"
     style="fill:#50b44b" /></svg>