<?xml version="1.0" encoding="utf-8"?>
<!-- Generator: Adobe Illustrator 16.2.0, SVG Export Plug-In . SVG Version: 6.00 Build 0)  -->
<!DOCTYPE svg PUBLIC "-//W3C//DTD SVG 1.1//EN" "http://www.w3.org/Graphics/SVG/1.1/DTD/svg11.dtd">
<svg version="1.1" id="Layer_1" xmlns="http://www.w3.org/2000/svg" xmlns:xlink="http://www.w3.org/1999/xlink" x="0px" y="0px"
	 width="36px" height="36px" viewBox="0 0 36 36" enable-background="new 0 0 36 36" xml:space="preserve">
<path id="plus_12_" fill="#6A6A6A" d="M1730.625,833.451c-0.297,0-0.533-0.238-0.533-0.535v-5.23h-5.229
	c-0.297,0-0.537-0.234-0.537-0.529v-3.461c0-0.303,0.24-0.535,0.537-0.535h5.229v-5.23c0-0.299,0.236-0.535,0.533-0.535h3.463
	c0.295,0,0.535,0.236,0.535,0.535v5.23h5.229c0.299,0,0.537,0.232,0.537,0.535v3.461c0,0.295-0.238,0.529-0.537,0.529h-5.229v5.23
	c0,0.297-0.24,0.535-0.535,0.535H1730.625z"/>
<g>
	<g>
		<g>
			<g>
				<path id="filter_40_" fill="#1E1F20" d="M18.021,0C8.069,0,0,3.025,0,6.758c0,1.056,0,2.252,2.252,4.504
					c0,0,7.885,7.886,11.264,10.138c0,4.504,0,12.389,0,12.389c0,1.247,2.016,2.255,4.504,2.255c2.489,0,4.505-1.008,4.505-2.255
					c0,0,0-10.137,0-12.389c3.379-2.252,11.265-10.138,11.265-10.138c2.252-2.252,2.252-3.448,2.252-4.504
					C36.042,3.025,27.975,0,18.021,0z M18.021,12.318c-7.464,0-13.516-1.999-13.516-4.469c0-2.47,6.052-4.471,13.516-4.471
					c7.467,0,13.517,2.001,13.517,4.471C31.538,10.319,25.488,12.318,18.021,12.318z"/>
				<circle fill="#1E1F20" cx="17.682" cy="7.789" r="3.259"/>
			</g>
			<g>
				<path id="filter_39_" fill="#1E1F20" d="M18.021,0C8.069,0,0,3.025,0,6.758c0,1.056,0,2.252,2.252,4.504
					c0,0,7.885,7.886,11.264,10.138c0,4.504,0,12.389,0,12.389c0,1.247,2.016,2.255,4.504,2.255c2.489,0,4.505-1.008,4.505-2.255
					c0,0,0-10.137,0-12.389c3.379-2.252,11.265-10.138,11.265-10.138c2.252-2.252,2.252-3.448,2.252-4.504
					C36.042,3.025,27.975,0,18.021,0z M18.021,12.318c-7.464,0-13.516-1.999-13.516-4.469c0-2.47,6.052-4.471,13.516-4.471
					c7.467,0,13.517,2.001,13.517,4.471C31.538,10.319,25.488,12.318,18.021,12.318z"/>
				<circle fill="#1E1F20" cx="17.682" cy="7.789" r="3.259"/>
			</g>
		</g>
		<g>
			<g>
				<path id="filter_38_" fill="#1E1F20" d="M18.021,0C8.069,0,0,3.025,0,6.758c0,1.056,0,2.252,2.252,4.504
					c0,0,7.885,7.886,11.264,10.138c0,4.504,0,12.389,0,12.389c0,1.247,2.016,2.255,4.504,2.255c2.489,0,4.505-1.008,4.505-2.255
					c0,0,0-10.137,0-12.389c3.379-2.252,11.265-10.138,11.265-10.138c2.252-2.252,2.252-3.448,2.252-4.504
					C36.042,3.025,27.975,0,18.021,0z M18.021,12.318c-7.464,0-13.516-1.999-13.516-4.469c0-2.47,6.052-4.471,13.516-4.471
					c7.467,0,13.517,2.001,13.517,4.471C31.538,10.319,25.488,12.318,18.021,12.318z"/>
				<circle fill="#1E1F20" cx="17.682" cy="7.789" r="3.259"/>
			</g>
			<g>
				<path id="filter_37_" fill="#1E1F20" d="M18.021,0C8.069,0,0,3.025,0,6.758c0,1.056,0,2.252,2.252,4.504
					c0,0,7.885,7.886,11.264,10.138c0,4.504,0,12.389,0,12.389c0,1.247,2.016,2.255,4.504,2.255c2.489,0,4.505-1.008,4.505-2.255
					c0,0,0-10.137,0-12.389c3.379-2.252,11.265-10.138,11.265-10.138c2.252-2.252,2.252-3.448,2.252-4.504
					C36.042,3.025,27.975,0,18.021,0z M18.021,12.318c-7.464,0-13.516-1.999-13.516-4.469c0-2.47,6.052-4.471,13.516-4.471
					c7.467,0,13.517,2.001,13.517,4.471C31.538,10.319,25.488,12.318,18.021,12.318z"/>
				<circle fill="#1E1F20" cx="17.682" cy="7.789" r="3.259"/>
			</g>
		</g>
	</g>
	<g>
		<g>
			<g>
				<path id="filter_36_" fill="#1E1F20" d="M18.021,0C8.069,0,0,3.025,0,6.758c0,1.056,0,2.252,2.252,4.504
					c0,0,7.885,7.886,11.264,10.138c0,4.504,0,12.389,0,12.389c0,1.247,2.016,2.255,4.504,2.255c2.489,0,4.505-1.008,4.505-2.255
					c0,0,0-10.137,0-12.389c3.379-2.252,11.265-10.138,11.265-10.138c2.252-2.252,2.252-3.448,2.252-4.504
					C36.042,3.025,27.975,0,18.021,0z M18.021,12.318c-7.464,0-13.516-1.999-13.516-4.469c0-2.47,6.052-4.471,13.516-4.471
					c7.467,0,13.517,2.001,13.517,4.471C31.538,10.319,25.488,12.318,18.021,12.318z"/>
				<circle fill="#1E1F20" cx="17.682" cy="7.789" r="3.259"/>
			</g>
			<g>
				<path id="filter_35_" fill="#1E1F20" d="M18.021,0C8.069,0,0,3.025,0,6.758c0,1.056,0,2.252,2.252,4.504
					c0,0,7.885,7.886,11.264,10.138c0,4.504,0,12.389,0,12.389c0,1.247,2.016,2.255,4.504,2.255c2.489,0,4.505-1.008,4.505-2.255
					c0,0,0-10.137,0-12.389c3.379-2.252,11.265-10.138,11.265-10.138c2.252-2.252,2.252-3.448,2.252-4.504
					C36.042,3.025,27.975,0,18.021,0z M18.021,12.318c-7.464,0-13.516-1.999-13.516-4.469c0-2.47,6.052-4.471,13.516-4.471
					c7.467,0,13.517,2.001,13.517,4.471C31.538,10.319,25.488,12.318,18.021,12.318z"/>
				<circle fill="#1E1F20" cx="17.682" cy="7.789" r="3.259"/>
			</g>
		</g>
		<g>
			<g>
				<path id="filter_34_" fill="#1E1F20" d="M18.021,0C8.069,0,0,3.025,0,6.758c0,1.056,0,2.252,2.252,4.504
					c0,0,7.885,7.886,11.264,10.138c0,4.504,0,12.389,0,12.389c0,1.247,2.016,2.255,4.504,2.255c2.489,0,4.505-1.008,4.505-2.255
					c0,0,0-10.137,0-12.389c3.379-2.252,11.265-10.138,11.265-10.138c2.252-2.252,2.252-3.448,2.252-4.504
					C36.042,3.025,27.975,0,18.021,0z M18.021,12.318c-7.464,0-13.516-1.999-13.516-4.469c0-2.47,6.052-4.471,13.516-4.471
					c7.467,0,13.517,2.001,13.517,4.471C31.538,10.319,25.488,12.318,18.021,12.318z"/>
				<circle fill="#1E1F20" cx="17.682" cy="7.789" r="3.259"/>
			</g>
			<g>
				<path id="filter_33_" fill="#1E1F20" d="M18.021,0C8.069,0,0,3.025,0,6.758c0,1.056,0,2.252,2.252,4.504
					c0,0,7.885,7.886,11.264,10.138c0,4.504,0,12.389,0,12.389c0,1.247,2.016,2.255,4.504,2.255c2.489,0,4.505-1.008,4.505-2.255
					c0,0,0-10.137,0-12.389c3.379-2.252,11.265-10.138,11.265-10.138c2.252-2.252,2.252-3.448,2.252-4.504
					C36.042,3.025,27.975,0,18.021,0z M18.021,12.318c-7.464,0-13.516-1.999-13.516-4.469c0-2.47,6.052-4.471,13.516-4.471
					c7.467,0,13.517,2.001,13.517,4.471C31.538,10.319,25.488,12.318,18.021,12.318z"/>
				<circle fill="#1E1F20" cx="17.682" cy="7.789" r="3.259"/>
			</g>
		</g>
	</g>
</g>
</svg>
