<?xml version="1.0" encoding="utf-8"?>
<!-- Generator: Adobe Illustrator 15.1.0, SVG Export Plug-In . SVG Version: 6.00 Build 0)  -->
<!DOCTYPE svg PUBLIC "-//W3C//DTD SVG 1.1//EN" "http://www.w3.org/Graphics/SVG/1.1/DTD/svg11.dtd">
<svg version="1.1" id="Layer_1" xmlns="http://www.w3.org/2000/svg" xmlns:xlink="http://www.w3.org/1999/xlink" x="0px" y="0px"
	 width="80px" height="80px" viewBox="0 0 80 80" enable-background="new 0 0 80 80" xml:space="preserve">
<g id="new-message_2_">
	<path fill="#6A6A6A" d="M47.783,52.037H27.965l-0.001-19.82h11.892v-3.963H25.981c-1.095,0-1.981,0.886-1.981,1.981v23.783
		C24,55.115,24.887,56,25.982,56h23.784c1.094,0,1.981-0.885,1.981-1.98V40.146h-3.965L47.783,52.037L47.783,52.037z"/>
	<g>
		<path fill="#6A6A6A" d="M53.439,30.526c0.994-0.997,1.668-1.669,1.83-1.833c0.99-0.99,0-1.981,0-1.981s-0.99-0.991-1.981-1.981
			c-0.99-0.991-1.979,0-1.979,0l-1.834,1.83L53.439,30.526z"/>
		<path fill="#6A6A6A" d="M48.074,27.962L30.938,45.1l-0.991,4.955l4.955-0.99c0,0,11.374-11.373,17.138-17.139L48.074,27.962z"/>
	</g>
</g>
</svg>
