<?xml version="1.0" encoding="utf-8"?>
<!-- Generator: Adobe Illustrator 15.1.0, SVG Export Plug-In . SVG Version: 6.00 Build 0)  -->
<!DOCTYPE svg PUBLIC "-//W3C//DTD SVG 1.1//EN" "http://www.w3.org/Graphics/SVG/1.1/DTD/svg11.dtd">
<svg version="1.1" id="Layer_1" xmlns="http://www.w3.org/2000/svg" xmlns:xlink="http://www.w3.org/1999/xlink" x="0px" y="0px"
	 width="50px" height="36px" viewBox="0 0 50 36" enable-background="new 0 0 50 36" xml:space="preserve">
<g>
	<path fill="#6A6A6A" d="M23.996,26.545l0.072-0.07l1.51-1.414c1.112-1.104,3.045-1.09,4.144,0.043l1.692,1.854l0.932-0.922
		c0.18-1.383,0.412-3.696,0.476-6.803c0.108-5.273,0.108-7.423,0.108-7.423l3.512,4.25c0,0,0.833,0.082,3.078-2.045
		c2.215-2.098,1.947-3.013,1.947-3.013s-4.162-5.649-5.025-6.508c-0.841-0.837-3.634-2.538-7.463-3.226
		c-0.107-0.018-0.21-0.031-0.244-0.012c-0.057,0.03-0.07,0.035-0.07,0.163c0,0.602-0.324,2.321-4.003,2.322
		c-3.68-0.001-4.004-1.72-4.004-2.322c0-0.127-0.014-0.132-0.069-0.163c-0.036-0.02-0.138-0.006-0.247,0.012
		c-3.828,0.688-6.621,2.389-7.461,3.226c-0.865,0.859-5.025,6.508-5.025,6.508s-0.269,0.916,1.946,3.013
		c2.246,2.127,3.079,2.045,3.079,2.045l3.51-4.25c0,0,0,2.15,0.109,7.423c0.108,5.271,0.702,8.282,0.702,8.282
		c1.202,0.797,4.167,1.081,5.976,1.182C23.156,27.92,23.424,27.137,23.996,26.545z"/>
	<path fill="#6A6A6A" d="M14.582,16.934l-0.747,0.905l-0.968,0.087c-1.113,0-2.538-0.838-4.357-2.561
		c-0.442-0.417-0.809-0.811-1.118-1.181c0.008,0.869,0.028,2.345,0.074,4.56c0.08,3.935,0.525,6.186,0.525,6.186
		c1.331,0.883,5.569,0.925,5.569,0.925s0.64-0.009,1.497-0.065c-0.176-1.47-0.372-3.672-0.431-6.518
		C14.61,18.409,14.594,17.631,14.582,16.934z"/>
	<path fill="#6A6A6A" d="M6.057,10.478l0.093-0.314l0.194-0.264C6.784,9.3,8.338,7.198,9.671,5.474
		C7.16,6.05,5.339,7.163,4.763,7.738c-0.646,0.643-3.751,4.86-3.751,4.86s-0.202,0.683,1.452,2.25
		c1.678,1.588,2.299,1.526,2.299,1.526l2.23-2.699C5.922,12.208,5.857,11.156,6.057,10.478z"/>
	<path fill="#6A6A6A" d="M41.406,21.22l0.344,0.354c0.061-0.814,0.11-1.753,0.132-2.831c0.047-2.244,0.066-3.728,0.075-4.592
		c-0.313,0.379-0.691,0.783-1.145,1.213c-1.817,1.722-3.243,2.561-4.356,2.561l-0.198-0.01l-0.77-0.076l-0.748-0.907
		c-0.014,0.699-0.028,1.476-0.044,2.338c-0.038,1.839-0.134,3.403-0.244,4.681l2.795-2.766C38.303,20.1,40.307,20.08,41.406,21.22z"
		/>
	<path fill="#6A6A6A" d="M48.338,12.598c0,0-3.107-4.217-3.753-4.86c-0.579-0.579-2.412-1.697-4.939-2.271
		c1.334,1.725,2.89,3.832,3.331,4.432l0.194,0.264l0.094,0.314c0.198,0.675,0.134,1.722-0.924,3.181l2.244,2.716
		c0,0,0.623,0.062,2.299-1.526C48.538,13.28,48.338,12.598,48.338,12.598z"/>
</g>
<path fill="#50B44B" d="M30.686,34.719C30.859,34.899,31.095,35,31.341,35c0.247,0,0.483-0.101,0.656-0.281l9.188-9.498
	c0.173-0.181,0.271-0.425,0.271-0.68c0-0.254-0.099-0.498-0.271-0.678l-1.22-1.256c-0.181-0.188-0.418-0.281-0.655-0.281
	c-0.238,0-0.475,0.094-0.657,0.281l-7.312,7.235l-3.056-3.348c-0.182-0.188-0.419-0.28-0.656-0.28c-0.238,0-0.476,0.093-0.656,0.28
	l-1.538,1.439c-0.362,0.375-0.362,0.981,0,1.355L30.686,34.719z"/>
</svg>
