<?xml version="1.0" encoding="utf-8"?>
<!-- Generator: Adobe Illustrator 15.1.0, SVG Export Plug-In . SVG Version: 6.00 Build 0)  -->
<!DOCTYPE svg PUBLIC "-//W3C//DTD SVG 1.1//EN" "http://www.w3.org/Graphics/SVG/1.1/DTD/svg11.dtd">
<svg version="1.1" id="Layer_1" xmlns="http://www.w3.org/2000/svg" xmlns:xlink="http://www.w3.org/1999/xlink" x="0px" y="0px"
	 width="80px" height="80px" viewBox="0 0 80 80" enable-background="new 0 0 80 80" xml:space="preserve">
<g>
	<g>
		<path fill="#6A6A6A" d="M38.425,49.27c0-1.332,0.953-2.455,2.267-2.675l0.172-0.028l-0.078-0.108
			c-0.774-1.086-0.65-2.556,0.293-3.494l0.678-0.678c0.91-0.915,2.446-1.04,3.498-0.281l0.109,0.078l0.031-0.183
			c0.205-1.303,1.328-2.262,2.67-2.262h0.017c0.062-3.468,0.062-4.935,0.062-4.935l3.498,4.252c0,0,0.83,0.083,3.066-2.045
			c2.205-2.099,1.938-3.015,1.938-3.015s-4.146-5.651-5.006-6.51c-0.837-0.838-3.619-2.539-7.433-3.227
			c-0.106-0.018-0.209-0.032-0.244-0.012c-0.058,0.031-0.069,0.035-0.069,0.163c0,0.602-0.324,2.322-3.988,2.323
			c-3.665-0.001-3.988-1.721-3.988-2.323c0-0.127-0.014-0.132-0.069-0.163c-0.034-0.02-0.136-0.006-0.245,0.012
			c-3.813,0.688-6.595,2.389-7.432,3.227c-0.861,0.859-5.004,6.51-5.004,6.51s-0.268,0.916,1.938,3.015
			c2.237,2.128,3.066,2.045,3.066,2.045l3.497-4.252c0,0,0,2.152,0.11,7.426c0.106,5.271,0.698,8.289,0.698,8.289
			c1.287,0.854,4.604,1.119,6.336,1.199c-0.242-0.408-0.385-0.881-0.385-1.387V49.27H38.425z"/>
		<path fill="#6A6A6A" d="M29.864,39.83l-0.744,0.906l-0.963,0.084c-1.109,0-2.529-0.836-4.34-2.561
			c-0.44-0.419-0.806-0.812-1.114-1.183c0.008,0.87,0.028,2.347,0.074,4.562c0.08,3.938,0.522,6.188,0.522,6.188
			c1.326,0.881,5.548,0.922,5.548,0.922s0.637-0.008,1.49-0.063c-0.174-1.472-0.369-3.675-0.428-6.521
			C29.892,41.307,29.878,40.527,29.864,39.83z"/>
		<path fill="#6A6A6A" d="M21.373,33.37l0.092-0.314l0.194-0.265c0.438-0.599,1.985-2.701,3.313-4.426
			c-2.501,0.575-4.314,1.689-4.888,2.265c-0.644,0.643-3.737,4.861-3.737,4.861s-0.201,0.684,1.447,2.251
			c1.671,1.59,2.291,1.526,2.291,1.526l2.221-2.699C21.239,35.101,21.174,34.05,21.373,33.37z"/>
		<path fill="#6A6A6A" d="M51.775,42.341c0.066,0.029,0.135,0.062,0.201,0.091l0.361-0.228c1.055-0.671,2.613-0.468,3.471,0.498
			l0.637,0.715c0.221,0.25,0.384,0.528,0.498,0.822c0.052-0.759,0.095-1.628,0.113-2.599c0.045-2.247,0.064-3.73,0.074-4.597
			c-0.312,0.38-0.689,0.784-1.142,1.215c-1.812,1.723-3.23,2.56-4.341,2.56l-0.195-0.008l-0.219-0.021
			c0.229,0.322,0.396,0.693,0.467,1.107L51.775,42.341z"/>
		<path fill="#6A6A6A" d="M63.486,35.491c0,0-3.094-4.219-3.737-4.861c-0.575-0.579-2.401-1.698-4.92-2.272
			c1.329,1.726,2.879,3.833,3.317,4.433l0.192,0.265l0.095,0.314c0.196,0.676,0.133,1.723-0.92,3.182l2.233,2.717
			c0,0,0.62,0.063,2.291-1.526C63.688,36.175,63.486,35.491,63.486,35.491z"/>
	</g>
	<path id="settings_2_" fill="#50B44D" d="M56.061,48.566L54.451,48.3c-0.115-0.477-0.288-0.934-0.51-1.358l1.029-1.274
		c0.219-0.271,0.209-0.66-0.021-0.918l-0.643-0.722c-0.229-0.26-0.615-0.313-0.908-0.129l-1.375,0.862
		c-0.604-0.422-1.291-0.733-2.026-0.913l-0.271-1.617c-0.058-0.342-0.354-0.594-0.701-0.594h-0.965
		c-0.347,0-0.645,0.252-0.697,0.594l-0.271,1.617c-0.61,0.147-1.183,0.392-1.706,0.709l-1.309-0.933
		c-0.281-0.203-0.668-0.172-0.913,0.074l-0.683,0.68c-0.246,0.246-0.275,0.633-0.074,0.916l0.935,1.31
		c-0.313,0.521-0.552,1.088-0.7,1.694l-1.627,0.271c-0.342,0.058-0.594,0.354-0.594,0.701v0.963c0,0.349,0.252,0.646,0.594,0.701
		l1.627,0.271c0.123,0.496,0.299,0.973,0.537,1.414l-1.023,1.271c-0.219,0.268-0.209,0.656,0.021,0.916l0.64,0.721
		c0.229,0.26,0.617,0.312,0.91,0.129l1.394-0.875c0.591,0.404,1.259,0.701,1.976,0.875l0.271,1.617
		c0.054,0.342,0.352,0.594,0.697,0.594h0.965c0.349,0,0.645-0.252,0.701-0.594L50,55.656c0.604-0.148,1.168-0.383,1.688-0.695
		l1.36,0.971c0.28,0.201,0.669,0.172,0.913-0.076l0.684-0.68c0.244-0.246,0.276-0.633,0.073-0.914l-0.97-1.361
		c0.314-0.521,0.554-1.092,0.703-1.7l1.607-0.267c0.342-0.058,0.594-0.354,0.594-0.701V49.27
		C56.652,48.921,56.4,48.624,56.061,48.566z M48.562,52.794c-1.681,0-3.041-1.364-3.041-3.045s1.36-3.041,3.041-3.041
		c1.684,0,3.045,1.36,3.045,3.041S50.246,52.794,48.562,52.794z"/>
</g>
</svg>
