<?xml version="1.0" encoding="UTF-8" standalone="no"?>
<!-- Generator: Adobe Illustrator 15.1.0, SVG Export Plug-In . SVG Version: 6.00 Build 0)  -->

<svg
   xmlns:dc="http://purl.org/dc/elements/1.1/"
   xmlns:cc="http://creativecommons.org/ns#"
   xmlns:rdf="http://www.w3.org/1999/02/22-rdf-syntax-ns#"
   xmlns:svg="http://www.w3.org/2000/svg"
   xmlns="http://www.w3.org/2000/svg"
   xmlns:sodipodi="http://sodipodi.sourceforge.net/DTD/sodipodi-0.dtd"
   xmlns:inkscape="http://www.inkscape.org/namespaces/inkscape"
   version="1.1"
   id="Layer_1"
   x="0px"
   y="0px"
   width="47px"
   height="54.197px"
   viewBox="0 0 47 54.197"
   enable-background="new 0 0 47 54.197"
   xml:space="preserve"
   inkscape:version="0.48.4 r9939"
   sodipodi:docname="longomatch-template-header.svg"><metadata
     id="metadata45"><rdf:RDF><cc:Work
         rdf:about=""><dc:format>image/svg+xml</dc:format><dc:type
           rdf:resource="http://purl.org/dc/dcmitype/StillImage" /></cc:Work></rdf:RDF></metadata><defs
     id="defs43" /><sodipodi:namedview
     pagecolor="#ffffff"
     bordercolor="#666666"
     borderopacity="1"
     objecttolerance="10"
     gridtolerance="10"
     guidetolerance="10"
     inkscape:pageopacity="0"
     inkscape:pageshadow="2"
     inkscape:window-width="809"
     inkscape:window-height="480"
     id="namedview41"
     showgrid="false"
     inkscape:zoom="4.3544847"
     inkscape:cx="23.5"
     inkscape:cy="27.098499"
     inkscape:window-x="3317"
     inkscape:window-y="157"
     inkscape:window-maximized="0"
     inkscape:current-layer="Layer_1" /><g
     id="g3"
     style="fill:#151a20;fill-opacity:1"><g
       id="g5"
       style="fill:#151a20;fill-opacity:1"><rect
         x="12.103"
         y="54.209"
         fill="none"
         width="0.001"
         height="0.021"
         id="rect7"
         style="fill:#151a20;fill-opacity:1" /><polygon
         fill="none"
         points="35.037,54.175 35.08,54.219 35.096,54.219 35.052,54.174   "
         id="polygon9"
         style="fill:#151a20;fill-opacity:1" /><polygon
         fill="none"
         points="13.363,54.217 13.36,54.219 33.836,54.219 33.795,54.177   "
         id="polygon11"
         style="fill:#151a20;fill-opacity:1" /><polygon
         fill="#252627"
         points="11.363,54.217 35.795,54.177 23.622,41.279   "
         id="polygon13"
         style="fill:#151a20;fill-opacity:1" /><polygon
         fill="#6A6A6A"
         points="12.094,54.219 12.114,54.219 23.624,41.98 35.037,54.175 35.052,54.174 23.622,41.964   "
         id="polygon15"
         style="fill:#151a20;fill-opacity:1" /><polygon
         fill="#1F2021"
         points="11.669,54.219 12.093,54.219 12.094,54.219   "
         id="polygon17"
         style="fill:#151a20;fill-opacity:1" /><polygon
         fill="#232425"
         points="33.795,54.177 33.836,54.219 35.08,54.219 35.037,54.175   "
         id="polygon19"
         style="fill:#151a20;fill-opacity:1" /><rect
         x="12.737"
         y="53.596"
         fill="#232425"
         width="0.001"
         height="1.245"
         id="rect21"
         style="fill:#151a20;fill-opacity:1" /><polygon
         fill="#232425"
         points="11.114,54.219 13.363,54.217 23.622,43.279 33.795,54.177 36.037,54.175 23.624,40.98   "
         id="polygon23"
         style="fill:#151a20;fill-opacity:1" /><polygon
         fill="#1F2021"
         points="23.624,40.665 10.847,54.219 11.669,54.219 12.094,54.219 23.622,41.964 35.052,54.174     35.096,54.219 36.34,54.219   "
         id="polygon25"
         style="fill:#151a20;fill-opacity:1" /></g></g><g
     id="g27"><path
       fill="#6A6A6A"
       d="M23.508,12.182c-3.31,0-5.9,1.188-6.704,2.478h13.403C29.402,13.369,26.817,12.182,23.508,12.182z"
       id="path29" /><path
       fill="#6A6A6A"
       d="M11.508,0.004c0,2.752,4.903,5.818,11.944,5.818c7.04,0,11.945-3.066,11.945-5.818V0h-23.89L11.508,0.004   L11.508,0.004z"
       id="path31" /><path
       fill="#6A6A6A"
       d="M29.915,16.679h-12.82c1.051,1.123,3.45,2.073,6.413,2.073C26.467,18.753,28.864,17.802,29.915,16.679z"
       id="path33" /><path
       fill="#6A6A6A"
       d="M23.452,27.527c-10.205,0-17.317,4.404-17.317,8.36H40.77C40.77,31.931,33.656,27.527,23.452,27.527z"
       id="path35" /><path
       fill="#6A6A6A"
       d="M38.994,0h-1.973v0.004c0,4.395-5.959,7.838-13.569,7.838c-7.609,0-13.57-3.443-13.57-7.838V0H7.809   L5.31,14.66h10.05c0.617-2.371,3.897-4.08,8.147-4.08c4.245,0,7.523,1.709,8.143,4.08h9.656"
       id="path37" /><path
       fill="#6A6A6A"
       d="M41.922,16.679H31.52c-0.868,2.158-4.016,3.677-8.012,3.677c-4.005,0-7.147-1.519-8.017-3.677H5.024   L1.322,35.887H3.56c0-6.594,8.55-11.562,19.892-11.562c11.343,0,19.894,4.968,19.894,11.562h2.332"
       id="path39" /></g></svg>