<?xml version="1.0" encoding="utf-8"?>
<!-- Generator: Adobe Illustrator 16.0.0, SVG Export Plug-In . SVG Version: 6.00 Build 0)  -->
<!DOCTYPE svg PUBLIC "-//W3C//DTD SVG 1.1//EN" "http://www.w3.org/Graphics/SVG/1.1/DTD/svg11.dtd">
<svg version="1.1"
	 id="svg3065" xmlns:dc="http://purl.org/dc/elements/1.1/" xmlns:cc="http://creativecommons.org/ns#" xmlns:rdf="http://www.w3.org/1999/02/22-rdf-syntax-ns#" xmlns:svg="http://www.w3.org/2000/svg" xmlns:sodipodi="http://sodipodi.sourceforge.net/DTD/sodipodi-0.dtd" xmlns:inkscape="http://www.inkscape.org/namespaces/inkscape" inkscape:version="0.48.4 r9939" sodipodi:docname="longomatch-template-import.svg"
	 xmlns="http://www.w3.org/2000/svg" xmlns:xlink="http://www.w3.org/1999/xlink" x="0px" y="0px" width="37.215px" height="36px"
	 viewBox="0 0 37.215 36" enable-background="new 0 0 37.215 36" xml:space="preserve">
<sodipodi:namedview  id="namedview3088" bordercolor="#666666" pagecolor="#ffffff" borderopacity="1" objecttolerance="10" gridtolerance="10" guidetolerance="10" showgrid="false" inkscape:zoom="6.5555556" inkscape:cx="45.454958" inkscape:cy="18" inkscape:pageopacity="0" inkscape:pageshadow="2" inkscape:window-width="753" inkscape:window-height="612" inkscape:window-x="763" inkscape:window-y="130" inkscape:window-maximized="0" inkscape:current-layer="Icons">
	</sodipodi:namedview>
<g id="Layer_1">
	<path id="plus_12_" fill="#6A6A6A" d="M1730.626,833.451c-0.297,0-0.535-0.238-0.535-0.535v-5.23h-5.229
		c-0.298,0-0.537-0.239-0.537-0.534v-3.461c0-0.298,0.239-0.535,0.537-0.535h5.229v-5.23c0-0.299,0.238-0.537,0.535-0.537h3.461
		c0.296,0,0.536,0.238,0.536,0.537v5.23h5.229c0.298,0,0.537,0.237,0.537,0.535v3.461c0,0.295-0.239,0.534-0.537,0.534h-5.229v5.23
		c0,0.297-0.24,0.535-0.536,0.535H1730.626z"/>
</g>
<g id="Calque_1">
</g>
<g>
	<path fill="none" d="M6.107,23.369c2-0.803,4-1.508,5-2.307V6.238c-1,0.803-3,1.601-5,2.401
		C6.107,14.827,6.107,17.183,6.107,23.369z"/>
	<path fill="none" d="M21.107,9.048c0-0.02-5-2.045-8-3.05v14.789c0,0.02,5,2.529,8,3.516V9.048z"/>
	<path fill="#6A6A6A" d="M23.107,24.711V8.884c1-0.785,3-1.569,5-2.358c0,4.948,0,7.185,0,12.186h2.117
		c0.525,0,1.354-0.15,1.883,0.445c0-3.847,0-10.284,0-15.408c0-1.072-0.368-1.312-0.902-1.686c-0.494-0.291-1.428-0.179-1.821-0.014
		c-2.606,1.098-4.991,2.479-7.599,3.576c-2.654-1.098-5.543-2.479-8.198-3.576c-0.302-0.125-0.598-0.167-0.88-0.16
		c-0.271-0.007-0.556,0.035-0.845,0.16C8.955,3.296,6.024,4.541,3.114,5.785c-0.764,0.328-1.007,0.758-1.007,1.7
		c0,0.943,0,17.753,0,18.687s0.679,1.541,1.357,1.721c0.457,0.186,0.999,0.215,1.549-0.023c2.624-1.125,4.79-2.148,7.415-3.273
		c2.187,0.938,4.686,1.807,6.981,2.721c0.02-0.447,0.112-0.436,0.146-0.516c0.346-0.832,1.018-1.09,1.79-1.09h1.761v-2V24.711z
		 M11.107,21.062c-1,0.799-3,1.504-5,2.307c0-6.187,0-8.542,0-14.729c2-0.801,4-1.599,5-2.401V21.062z M13.107,5.998
		c3,1.005,8,3.03,8,3.05v15.255c-3-0.986-8-3.496-8-3.516V5.998z"/>
	<path id="arrow-down2" fill-rule="evenodd" clip-rule="evenodd" fill="#50B44D" d="M20.902,27.469c0-0.057,0.01-0.271,0.033-0.326
		c0.068-0.166,0.229-0.432,0.411-0.432h3.761v-6.344c0-0.244,0.432-0.656,0.678-0.656h4.439c0.244,0,0.883,0.412,0.883,0.656v6.344
		h3.556c0.179,0,0.342,0.266,0.41,0.432c0.021,0.055,0.034,0.191,0.034,0.248c0,0.117-0.046,0.268-0.13,0.354l-6.658,6.234
		c-0.088,0.086-0.202,0.139-0.314,0.139c-0.115,0-0.228-0.037-0.314-0.125l-6.658-6.211C20.947,27.695,20.902,27.586,20.902,27.469z
		"/>
</g>
</svg>
