<?xml version="1.0" encoding="utf-8"?>
<!-- Generator: Adobe Illustrator 15.1.0, SVG Export Plug-In . SVG Version: 6.00 Build 0)  -->
<!DOCTYPE svg PUBLIC "-//W3C//DTD SVG 1.1//EN" "http://www.w3.org/Graphics/SVG/1.1/DTD/svg11.dtd">
<svg version="1.1" id="Layer_1" xmlns="http://www.w3.org/2000/svg" xmlns:xlink="http://www.w3.org/1999/xlink" x="0px" y="0px"
	 width="50px" height="36px" viewBox="0 0 50 36" enable-background="new 0 0 50 36" xml:space="preserve">
<g>
	<path fill="#6A6A6A" d="M23.88,25.206c0-1.399,1.138-2.537,2.537-2.537h3.229v-3.229c0-1.399,1.138-2.537,2.535-2.537h0.766
		c0.064-3.635,0.064-5.171,0.064-5.171l3.512,4.302c0,0,0.832,0.083,3.077-2.07c2.215-2.122,1.947-3.048,1.947-3.048
		s-4.162-5.716-5.024-6.585c-0.84-0.848-3.633-2.568-7.462-3.264c-0.108-0.019-0.209-0.033-0.244-0.012
		c-0.058,0.031-0.071,0.035-0.071,0.164c0,0.609-0.324,2.349-4.002,2.35c-3.68-0.001-4.003-1.741-4.003-2.35
		c0-0.129-0.014-0.133-0.069-0.164c-0.035-0.021-0.138-0.006-0.247,0.012c-3.827,0.696-6.62,2.416-7.46,3.264
		c-0.864,0.869-5.023,6.585-5.023,6.585s-0.27,0.926,1.945,3.048c2.246,2.153,3.078,2.07,3.078,2.07l3.51-4.302
		c0,0,0,2.176,0.11,7.512c0.107,5.333,0.702,8.382,0.702,8.382c1.356,0.91,4.964,1.158,6.611,1.226
		c-0.004-0.062-0.019-0.121-0.019-0.184V25.206z"/>
	<path fill="#6A6A6A" d="M14.668,16.917l-0.747,0.916l-0.968,0.087c-1.113,0-2.539-0.847-4.357-2.589
		c-0.441-0.424-0.809-0.821-1.117-1.196c0.008,0.879,0.027,2.374,0.074,4.614c0.079,3.982,0.524,6.259,0.524,6.259
		c1.331,0.893,5.567,0.934,5.567,0.934s0.641-0.007,1.497-0.065c-0.175-1.484-0.37-3.714-0.43-6.595
		C14.695,18.41,14.68,17.624,14.668,16.917z"/>
	<path fill="#6A6A6A" d="M6.144,10.384l0.093-0.318L6.43,9.798c0.441-0.605,1.994-2.732,3.326-4.477
		C7.246,5.904,5.426,7.03,4.85,7.612C4.203,8.262,1.1,12.529,1.1,12.529s-0.203,0.691,1.451,2.276
		c1.678,1.608,2.299,1.545,2.299,1.545l2.229-2.731C6.01,12.134,5.944,11.071,6.144,10.384z"/>
	<path fill="#6A6A6A" d="M38.18,22.669h3.229c0.113,0,0.221,0.019,0.33,0.033c0.1-1.017,0.192-2.336,0.226-3.954
		c0.045-2.27,0.065-3.772,0.075-4.646c-0.315,0.384-0.692,0.792-1.147,1.228c-1.329,1.274-2.446,2.065-3.386,2.4
		c0.414,0.452,0.674,1.049,0.674,1.709V22.669z"/>
	<path fill="#6A6A6A" d="M48.417,12.529c0,0-3.105-4.268-3.751-4.917c-0.578-0.585-2.412-1.717-4.938-2.298
		c1.331,1.746,2.889,3.878,3.329,4.484l0.194,0.268l0.093,0.318c0.198,0.684,0.135,1.743-0.923,3.218l2.244,2.749
		c0,0,0.621,0.063,2.299-1.545C48.618,13.221,48.417,12.529,48.417,12.529z"/>
</g>
<path id="plus_13_" fill="#50B149" d="M32.227,35.016c-0.297,0-0.535-0.24-0.535-0.537v-5.23h-5.23
	c-0.297,0-0.537-0.238-0.537-0.533v-3.461c0-0.299,0.24-0.537,0.537-0.537h5.23v-5.23c0-0.297,0.238-0.535,0.535-0.535h3.461
	c0.297,0,0.537,0.238,0.537,0.535v5.23h5.229c0.297,0,0.537,0.238,0.537,0.537v3.461c0,0.295-0.24,0.533-0.537,0.533h-5.229v5.23
	c0,0.297-0.24,0.537-0.537,0.537H32.227z"/>
</svg>
