<?xml version="1.0" encoding="utf-8"?>
<!-- Generator: Adobe Illustrator 17.0.0, SVG Export Plug-In . SVG Version: 6.00 Build 0)  -->
<!DOCTYPE svg PUBLIC "-//W3C//DTD SVG 1.1//EN" "http://www.w3.org/Graphics/SVG/1.1/DTD/svg11.dtd">
<svg version="1.1" xmlns="http://www.w3.org/2000/svg" xmlns:xlink="http://www.w3.org/1999/xlink" x="0px" y="0px"
	 width="37.215px" height="36px" viewBox="0 0 37.215 36" enable-background="new 0 0 37.215 36" xml:space="preserve">
<g id="Layer_1">
	<path id="plus_12_" fill="#6A6A6A" d="M1730.626,833.451c-0.297,0-0.535-0.238-0.535-0.535v-5.23h-5.229
		c-0.297,0-0.537-0.24-0.537-0.535v-3.461c0-0.297,0.24-0.535,0.537-0.535h5.229v-5.23c0-0.299,0.238-0.537,0.535-0.537h3.461
		c0.296,0,0.536,0.238,0.536,0.537v5.23h5.229c0.297,0,0.537,0.238,0.537,0.535v3.461c0,0.295-0.24,0.535-0.537,0.535h-5.229v5.23
		c0,0.297-0.24,0.535-0.536,0.535H1730.626z"/>
</g>
<g id="Calque_1">
</g>
<g id="Icons">
	<g>
		<g>
			<path fill="#6A6A6A" d="M17.308,10.376c-2.584,0-4.606,0.927-5.234,1.935h10.464C21.909,11.302,19.891,10.376,17.308,10.376z"/>
			<path fill="#6A6A6A" d="M7.939,0.868c0,2.148,3.828,4.542,9.325,4.542c5.496,0,9.325-2.394,9.325-4.542V0.865H7.938L7.939,0.868
				L7.939,0.868z"/>
			<path fill="#6A6A6A" d="M22.309,13.886H12.301c0.821,0.877,2.693,1.618,5.007,1.618C19.617,15.505,21.489,14.763,22.309,13.886z"
				/>
			<path fill="#6A6A6A" d="M29.397,0.865h-1.54v0.002c0,3.431-4.652,6.119-10.593,6.119c-5.94,0-10.594-2.688-10.594-6.119V0.865
				H5.052L3.101,12.309h7.846c0.482-1.851,3.042-3.184,6.36-3.184c3.314,0,5.873,1.333,6.357,3.184h7.538"/>
		</g>
		<path fill="#6A6A6A" d="M26.326,19.138c0-1.594,1.297-2.89,2.891-2.89h1.78c0.429,0,0.833,0.1,1.2,0.269l-0.514-2.631h-8.121
			c-0.678,1.685-3.134,2.871-6.255,2.871c-3.127,0-5.58-1.186-6.259-2.871H2.877l-2.89,14.996h1.747
			c0-5.148,6.675-9.026,15.529-9.026c3.44,0,6.544,0.591,9.062,1.609V19.138z"/>
		<path fill="#6A6A6A" d="M20.985,28.013c0-0.395,0.077-0.774,0.229-1.129c0.439-1.061,1.487-1.761,2.66-1.761h2.451v-0.99
			c-2.329-1.065-5.442-1.779-9.062-1.779c-7.967,0-13.519,3.438-13.519,6.527h17.387C21.044,28.603,20.985,28.314,20.985,28.013z"/>
		<path id="arrow-down_1_" fill="#C1F3C0" d="M30.736,34.874l6.231-6.231c0.17-0.17,0.261-0.398,0.261-0.629
			c0-0.115-0.022-0.231-0.068-0.341c-0.137-0.332-0.462-0.549-0.822-0.549h-4.451v-7.985c0-0.492-0.398-0.89-0.89-0.89h-1.78
			c-0.492,0-0.89,0.398-0.89,0.89v7.985h-4.451c-0.36,0-0.685,0.217-0.822,0.549c-0.047,0.11-0.068,0.226-0.068,0.341
			c0,0.231,0.09,0.459,0.261,0.629l6.231,6.231C29.825,35.222,30.388,35.222,30.736,34.874z"/>
	</g>
</g>
</svg>
