<?xml version="1.0" encoding="utf-8"?>
<!-- Generator: Adobe Illustrator 15.1.0, SVG Export Plug-In . SVG Version: 6.00 Build 0)  -->
<!DOCTYPE svg PUBLIC "-//W3C//DTD SVG 1.1//EN" "http://www.w3.org/Graphics/SVG/1.1/DTD/svg11.dtd">
<svg version="1.1" id="Layer_1" xmlns="http://www.w3.org/2000/svg" xmlns:xlink="http://www.w3.org/1999/xlink" x="0px" y="0px"
	 width="36px" height="36px" viewBox="0 0 36 36" enable-background="new 0 0 36 36" xml:space="preserve">
<path id="plus_12_" fill="#6A6A6A" d="M1730.626,833.451c-0.297,0-0.535-0.238-0.535-0.535v-5.23h-5.229
	c-0.298,0-0.537-0.239-0.537-0.534v-3.461c0-0.298,0.239-0.535,0.537-0.535h5.229v-5.23c0-0.299,0.238-0.537,0.535-0.537h3.461
	c0.296,0,0.536,0.238,0.536,0.537v5.23h5.229c0.298,0,0.537,0.237,0.537,0.535v3.461c0,0.295-0.239,0.534-0.537,0.534h-5.229v5.23
	c0,0.297-0.24,0.535-0.536,0.535H1730.626z"/>
<g>
	<path fill="none" d="M29.626,18.201l0.249-0.247l-0.246-0.307C29.629,17.647,29.629,17.831,29.626,18.201z"/>
	<path fill="none" d="M22.271,25.477l1.862-1.843c-0.623,0.389-1.724,0.631-2.832,0.781L22.271,25.477z"/>
	<path fill="#6A6A6A" d="M12.418,25.928c-0.732-0.184-1.4-0.427-1.893-0.763l-0.694-0.343l-0.16-0.838
		c-0.021-0.113-0.534-2.837-0.628-7.526c-0.002-0.086-0.003-0.166-0.005-0.25c-0.022,0-0.038,0.004-0.061,0.004
		c-1.081-0.001-1.562-0.313-1.78-0.627c-0.317-0.097-0.653-0.25-1.011-0.461c-1.519,0.399-2.608,1.099-2.967,1.466
		c-0.423,0.432-2.455,3.267-2.455,3.267s-0.13,0.459,0.951,1.51c1.098,1.069,1.504,1.027,1.504,1.027l1.715-2.132
		c0,0,0,1.079,0.055,3.724c0.053,2.646,0.344,4.16,0.344,4.16c0.869,0.591,3.645,0.619,3.645,0.619s2.733-0.028,3.625-0.608
		C12.279,27.456,12.219,26.666,12.418,25.928z"/>
	<path fill="#6A6A6A" d="M29.875,17.954l0.285-0.282c0.574-0.594,1.383-0.938,2.246-0.938c0.865,0,1.674,0.344,2.279,0.97
		l0.163,0.168c0.299-0.517,0.231-0.753,0.231-0.753s-2.16-3.015-2.988-4.018c-0.092,0.095-0.166,0.184-0.266,0.28
		c-1.611,1.57-2.908,2.333-3.963,2.333l-0.211-0.012l-0.836-0.108c-0.006,0.276-0.01,0.552-0.016,0.85
		c-0.039,1.977-0.154,3.597-0.274,4.823l3.1-3.066"/>
	<path fill="#50B44B" d="M21.357,34.609c0.223,0.231,0.525,0.36,0.84,0.36c0.316,0,0.619-0.129,0.842-0.36l11.77-12.169
		c0.223-0.23,0.35-0.543,0.35-0.869c0-0.327-0.127-0.639-0.35-0.869l-1.561-1.608c-0.232-0.24-0.537-0.36-0.842-0.36
		s-0.607,0.12-0.84,0.36l-9.369,9.269l-3.915-4.288c-0.232-0.24-0.535-0.36-0.84-0.36s-0.608,0.12-0.841,0.36l-1.971,1.843
		c-0.464,0.48-0.464,1.259,0,1.738L21.357,34.609z"/>
	<path fill="#6A6A6A" d="M19.72,22.684l1.581,1.731c1.108-0.15,2.209-0.393,2.832-0.781l0.083-0.082
		c0.06-0.329,0.499-2.882,0.585-7.134c0.092-4.566,0.092-6.428,0.092-6.428l2.959,3.68c0,0,0.705,0.072,2.596-1.771
		c1.867-1.815,1.641-2.608,1.641-2.608s-3.506-4.892-4.236-5.636c-0.705-0.724-3.062-2.197-6.289-2.792
		c-0.092-0.016-0.178-0.028-0.205-0.011c-0.049,0.026-0.061,0.03-0.061,0.141c-0.004,0.521-0.275,2.009-3.376,2.01
		c-3.102-0.001-3.374-1.489-3.374-2.01c0-0.111-0.013-0.115-0.06-0.141c-0.027-0.017-0.113-0.005-0.207,0.011
		C11.053,1.458,8.7,2.931,7.991,3.655C7.261,4.399,3.756,9.291,3.756,9.291s-0.229,0.793,1.64,2.608
		c1.893,1.842,2.595,1.771,2.595,1.771l2.959-3.68c0,0,0,1.862,0.093,6.428c0.091,4.565,0.591,7.173,0.591,7.173
		c0.421,0.287,1.104,0.495,1.863,0.649l1.711-1.601C16.421,21.43,18.524,21.446,19.72,22.684z"/>
	<path fill="#50B44B" d="M24.209,23.591c0,0,0.003-0.015,0.007-0.039l-0.083,0.082C24.157,23.619,24.187,23.606,24.209,23.591z"/>
</g>
</svg>
