<?xml version="1.0" encoding="utf-8"?>
<!-- Generator: Adobe Illustrator 16.0.0, SVG Export Plug-In . SVG Version: 6.00 Build 0)  -->
<!DOCTYPE svg PUBLIC "-//W3C//DTD SVG 1.1//EN" "http://www.w3.org/Graphics/SVG/1.1/DTD/svg11.dtd">
<svg version="1.1" id="Layer_1" xmlns="http://www.w3.org/2000/svg" xmlns:xlink="http://www.w3.org/1999/xlink" x="0px" y="0px"
	 width="36px" height="36px" viewBox="0 0 36 36" enable-background="new 0 0 36 36" xml:space="preserve">
<g>
	<path fill="#6A6A6A" d="M17.006,25.499c0-1.076,1.34-1.476,2.418-1.476h3.541v-1.271l-5.629-1.707h-4.632l-8.273,2.904
		c0,0-1.327,0.056-1.327,1.358v1.547c0,0.85,0.258,1.141,1.109,1.141h13.562c-0.19,0-0.769-0.256-0.769-0.638V25.499z"/>
	<path fill="#6A6A6A" d="M15.634,19.457c0,0,6.364,0,6.364-7.408c0.747,0.005,1.705,0.291,1.705,0.291s0-9.736-8.201-9.736
		c-7.938,0-7.938,9.74-7.938,9.74c1.138-0.274,1.703-0.302,1.703-0.302C9.28,19.457,15.634,19.457,15.634,19.457z"/>
	<path id="plus_1_" fill="#50B44D" d="M24.999,33.396c-0.256,0-0.466-0.207-0.466-0.464v-5.111h-5.109
		c-0.26,0-0.466-0.206-0.466-0.464v-1.86c0-0.256,0.206-0.465,0.466-0.465h5.109v-5.108c0-0.258,0.21-0.467,0.466-0.467h1.857
		c0.259,0,0.466,0.209,0.466,0.467v5.108h5.111c0.256,0,0.463,0.209,0.463,0.465v1.86c0,0.256-0.207,0.464-0.463,0.464h-5.111v5.111
		c0,0.257-0.207,0.464-0.466,0.464H24.999z"/>
</g>
</svg>
