<?xml version="1.0" encoding="utf-8"?>
<!-- Generator: Adobe Illustrator 15.1.0, SVG Export Plug-In . SVG Version: 6.00 Build 0)  -->
<!DOCTYPE svg PUBLIC "-//W3C//DTD SVG 1.1//EN" "http://www.w3.org/Graphics/SVG/1.1/DTD/svg11.dtd">
<svg version="1.1" id="Layer_1" xmlns="http://www.w3.org/2000/svg" xmlns:xlink="http://www.w3.org/1999/xlink" x="0px" y="0px"
	 width="18px" height="18px" viewBox="2 2 18 18" enable-background="new 2 2 18 18" xml:space="preserve">
<path id="tag_2_" fill="#F6F6F6" d="M20,3.124C20,2.504,19.496,2,18.875,2l-7.313,0.006c-0.225,0-0.386,0.075-0.608,0.297
	l-8.65,8.64c-0.404,0.403-0.404,1.057,0,1.46l7.391,7.294c0.405,0.403,1.06,0.403,1.464,0l8.578-8.622
	C19.959,10.854,20,10.624,20,10.428V3.124z M16.068,7.626c-0.932,0-1.688-0.757-1.688-1.688c0-0.932,0.757-1.688,1.688-1.688
	c0.933,0,1.69,0.756,1.69,1.688C17.759,6.869,17.001,7.626,16.068,7.626z"/>
</svg>
