<?xml version="1.0" encoding="utf-8"?>
<!-- Generator: Adobe Illustrator 17.0.0, SVG Export Plug-In . SVG Version: 6.00 Build 0)  -->
<!DOCTYPE svg PUBLIC "-//W3C//DTD SVG 1.1//EN" "http://www.w3.org/Graphics/SVG/1.1/DTD/svg11.dtd">
<svg version="1.1" xmlns="http://www.w3.org/2000/svg" xmlns:xlink="http://www.w3.org/1999/xlink" x="0px" y="0px" width="36px"
	 height="36px" viewBox="0 0 36 36" enable-background="new 0 0 36 36" xml:space="preserve">
<g id="Layer_1">
	<path id="plus_12_" fill="#6A6A6A" d="M1730.626,833.451c-0.297,0-0.535-0.238-0.535-0.535v-5.23h-5.229
		c-0.297,0-0.537-0.24-0.537-0.535v-3.461c0-0.297,0.24-0.535,0.537-0.535h5.229v-5.23c0-0.299,0.238-0.537,0.535-0.537h3.461
		c0.296,0,0.536,0.238,0.536,0.537v5.23h5.229c0.297,0,0.537,0.238,0.537,0.535v3.461c0,0.295-0.24,0.535-0.537,0.535h-5.229v5.23
		c0,0.297-0.24,0.535-0.536,0.535H1730.626z"/>
</g>
<g id="Icons">
	<g>
		<path fill-rule="evenodd" clip-rule="evenodd" fill="#6A6A6A" d="M23.713,15.141l-5.695-6.238
			c-0.15-0.157-0.356-0.242-0.564-0.242c-0.097,0-0.196,0.018-0.29,0.056c-0.295,0.119-0.489,0.405-0.488,0.724v4.667
			c0,0-15.546,0.749-15.564,13.229c0.018-0.351,0.533-5.447,15.564-5.447v4.667c-0.002,0.319,0.193,0.606,0.488,0.724
			c0.094,0.038,0.193,0.056,0.29,0.056c0.208,0,0.413-0.084,0.564-0.242l5.695-6.238V15.141z"/>
		<path fill="#6A6A6A" d="M34.295,24.125H23.409c-0.352,0-0.637-0.285-0.637-0.637V12.601c0-0.352,0.285-0.637,0.637-0.637h10.886
			c0.352,0,0.637,0.285,0.637,0.637v10.887C34.932,23.84,34.647,24.125,34.295,24.125z M24.046,22.852h9.613v-9.613h-9.613V22.852z"
			/>
		<path fill="#6A6A6A" d="M28.883,14.678c0.462,0,0.851,0.06,1.169,0.179c0.318,0.12,0.574,0.289,0.767,0.508
			c0.194,0.219,0.332,0.479,0.415,0.78c0.083,0.301,0.124,0.633,0.124,0.996v4.022c-0.099,0.017-0.237,0.04-0.415,0.069
			c-0.177,0.029-0.377,0.056-0.6,0.081c-0.223,0.025-0.464,0.047-0.724,0.068c-0.26,0.02-0.518,0.031-0.774,0.031
			c-0.363,0-0.697-0.037-1.002-0.112c-0.305-0.074-0.569-0.192-0.792-0.352c-0.223-0.161-0.396-0.374-0.52-0.637
			c-0.124-0.264-0.186-0.582-0.186-0.953c0-0.355,0.072-0.66,0.217-0.916c0.144-0.256,0.34-0.462,0.588-0.619
			c0.247-0.156,0.536-0.272,0.866-0.346c0.33-0.074,0.677-0.112,1.04-0.112c0.115,0,0.235,0.006,0.359,0.018
			c0.124,0.013,0.242,0.029,0.352,0.049c0.112,0.021,0.208,0.04,0.291,0.056c0.082,0.017,0.14,0.029,0.173,0.037v-0.322
			c0-0.189-0.02-0.377-0.061-0.563c-0.042-0.185-0.116-0.35-0.223-0.494s-0.254-0.26-0.439-0.347
			c-0.185-0.087-0.427-0.13-0.724-0.13c-0.379,0-0.711,0.027-0.996,0.081c-0.285,0.054-0.497,0.109-0.637,0.167l-0.136-0.953
			c0.149-0.066,0.396-0.13,0.742-0.192C28.103,14.709,28.478,14.678,28.883,14.678z M28.982,20.445c0.272,0,0.514-0.006,0.724-0.018
			c0.21-0.013,0.385-0.035,0.526-0.068V18.44c-0.083-0.041-0.216-0.076-0.402-0.105c-0.186-0.028-0.41-0.043-0.675-0.043
			c-0.173,0-0.357,0.013-0.551,0.037c-0.194,0.025-0.371,0.076-0.532,0.155c-0.161,0.078-0.295,0.185-0.402,0.321
			c-0.107,0.136-0.161,0.316-0.161,0.538c0,0.413,0.132,0.699,0.396,0.86C28.169,20.365,28.528,20.445,28.982,20.445z"/>
	</g>
</g>
</svg>
