<?xml version="1.0" encoding="utf-8"?>
<!-- Generator: Adobe Illustrator 16.0.0, SVG Export Plug-In . SVG Version: 6.00 Build 0)  -->
<!DOCTYPE svg PUBLIC "-//W3C//DTD SVG 1.1//EN" "http://www.w3.org/Graphics/SVG/1.1/DTD/svg11.dtd">
<svg version="1.1" id="Layer_1" xmlns="http://www.w3.org/2000/svg" xmlns:xlink="http://www.w3.org/1999/xlink" x="0px" y="0px"
	 width="22px" height="22px" viewBox="0 0 22 22" enable-background="new 0 0 22 22" xml:space="preserve">
<g>
	<g>
		<g>
			<g id="Layer_8_5_">
				<path fill="#6B6A6A" d="M21.383,0H0.518C0.232,0,0,0.253,0,0.564V16.25c0,0.311,0.231,0.563,0.518,0.563h7.846v4.005
					c0,0.02-0.797,0.039-0.794,0.058H0.846c-0.262,0-0.474,0.231-0.474,0.518c0,0.283,0.212,0.516,0.474,0.516h19.967
					c0.26,0,0.473-0.23,0.473-0.516c0-0.286-0.213-0.519-0.473-0.519h-6.223c0.002-0.017-1.597-0.038-1.597-0.059v-4.004h8.391
					c0.283,0,0.517-0.253,0.517-0.563V0.564C21.9,0.253,21.669,0,21.383,0z M20.435,13.791c0,0.31-0.231,0.563-0.518,0.563H1.983
					c-0.285,0-0.518-0.254-0.518-0.563V1.896c0-0.31,0.232-0.563,0.518-0.563h17.934c0.284,0,0.518,0.253,0.518,0.563V13.791
					L20.435,13.791z"/>
			</g>
		</g>
		<polygon fill="#6B6A6A" points="7.724,4.063 7.724,11.757 15.382,7.91 		"/>
	</g>
	<g>
		<g>
			<g id="Layer_8_4_">
				<path fill="#F3F3F3" d="M21.383,0H0.518C0.232,0,0,0.253,0,0.564V16.25c0,0.311,0.231,0.563,0.518,0.563h7.846v4.005
					c0,0.02-0.797,0.039-0.794,0.058H0.846c-0.262,0-0.474,0.231-0.474,0.518c0,0.283,0.212,0.516,0.474,0.516h19.967
					c0.26,0,0.473-0.23,0.473-0.516c0-0.286-0.213-0.519-0.473-0.519h-6.223c0.002-0.017-1.597-0.038-1.597-0.059v-4.004h8.391
					c0.283,0,0.517-0.253,0.517-0.563V0.564C21.9,0.253,21.669,0,21.383,0z M20.435,13.791c0,0.31-0.231,0.563-0.518,0.563H1.983
					c-0.285,0-0.518-0.254-0.518-0.563V1.896c0-0.31,0.232-0.563,0.518-0.563h17.934c0.284,0,0.518,0.253,0.518,0.563V13.791
					L20.435,13.791z"/>
			</g>
		</g>
		<polygon fill="#F3F3F3" points="7.724,4.063 7.724,11.757 15.382,7.91 		"/>
	</g>
</g>
</svg>
