<?xml version="1.0" encoding="utf-8"?>
<!-- Generator: Adobe Illustrator 16.0.0, SVG Export Plug-In . SVG Version: 6.00 Build 0)  -->
<!DOCTYPE svg PUBLIC "-//W3C//DTD SVG 1.1//EN" "http://www.w3.org/Graphics/SVG/1.1/DTD/svg11.dtd">
<svg version="1.1" id="Layer_1" xmlns="http://www.w3.org/2000/svg" xmlns:xlink="http://www.w3.org/1999/xlink" x="0px" y="0px"
	 width="48px" height="48px" viewBox="0 0 48 48" enable-background="new 0 0 48 48" xml:space="preserve">
<g>
	<g>
		<path id="document_5_" fill="#50B44D" d="M2.065,30.926c-0.427,0-0.772-0.346-0.772-0.773V6.997c0-0.426,0.345-0.771,0.772-0.771
			h29.042c0.205,0,0.4,0.083,0.546,0.226l7.267,7.266c0.145,0.144,0.226,0.341,0.226,0.546v15.889c0,0.428-0.344,0.773-0.771,0.773
			H2.065z M31.427,13.56c0,0.21,0.174,0.385,0.385,0.385h5.017l-5.399-5.401L31.427,13.56z"/>
		<rect x="3.5" y="8.5" fill="#50A04D" width="2" height="21"/>
		<rect x="9.5" y="8.5" fill="#50A04D" width="2" height="21"/>
		<rect x="16.5" y="8.5" fill="#50A04D" width="2" height="21"/>
		<rect x="21.5" y="8.5" fill="#50A04D" width="2" height="21"/>
		<rect x="27.5" y="8.5" fill="#50A04D" width="2" height="21"/>
	</g>
	<g>
		<g>
			<path id="folder_2_" fill-rule="evenodd" clip-rule="evenodd" fill="#6B6B6A" d="M2.219,38.424C1.547,38.424,1,37.88,1,37.209
				V7.958C1,7.284,1.547,6.74,2.219,6.74h15.089c0.462,0,0.884,0.261,1.091,0.674l2.102,4.2H38.78c0.676,0,1.219,0.545,1.219,1.22
				v24.375c0,0.671-0.543,1.215-1.219,1.215H2.219z"/>
			<path fill="#3B3B3C" d="M11.273,17.087c0.513-0.138,0.945-0.207,0.968-0.21v-1.436l-1.355-0.122v-2.224
				c0,0,0.989-0.245,2.47-0.245c1.581,0,2.468,0.245,2.468,0.245v2.224l-1.333,0.121v1.438c0.027,0.003,0.322,0.031,0.974,0.206
				c0.651,0.175,0.978,0.317,0.978,0.317c2.964,1.213,5.054,4.123,5.055,7.521c0,4.49-3.637,8.129-8.124,8.129
				c-2.25,0-4.286-0.918-5.757-2.396l1.536-1.937c1.038,1.153,2.543,1.882,4.22,1.882c3.136,0,5.677-2.541,5.677-5.676
				c0-3.135-2.541-5.676-5.677-5.676c-3.131,0-5.669,2.535-5.675,5.666h2.312L6.5,29.339l-3.503-4.427h2.254
				c0.001-1.474,0.395-2.855,1.084-4.045l-1.117-0.855l-0.541,0.516l-1.451-1.115c0,0-0.092-0.357,0.633-1.394
				c0.552-0.791,1.208-1.01,1.208-1.01l1.453,1.112l-0.36,0.652l1.078,0.825c0.85-0.979,1.933-1.751,3.16-2.236
				C10.397,17.363,10.76,17.229,11.273,17.087z"/>
		</g>
		<g>
			<circle fill="#3B3B3C" cx="36.38" cy="31.154" r="10.62"/>
		</g>
		<path id="plus_9_" fill="#50B34B" d="M35.54,39.266c-0.297,0-0.537-0.239-0.537-0.535l-0.383-5.502l-5.504-0.387
			c-0.297,0-0.537-0.239-0.537-0.535v-2.142c0-0.296,0.24-0.534,0.537-0.534l5.504-0.387l0.383-5.503
			c0-0.296,0.24-0.537,0.537-0.537h2.141c0.297,0,0.537,0.241,0.537,0.537l0.384,5.503l5.505,0.387c0.295,0,0.535,0.238,0.535,0.534
			v2.142c0,0.296-0.24,0.535-0.535,0.535l-5.505,0.387l-0.384,5.502c0,0.296-0.24,0.535-0.537,0.535H35.54z"/>
	</g>
</g>
</svg>
