<?xml version="1.0" encoding="utf-8"?>
<!-- Generator: Adobe Illustrator 17.0.0, SVG Export Plug-In . SVG Version: 6.00 Build 0)  -->
<!DOCTYPE svg PUBLIC "-//W3C//DTD SVG 1.1//EN" "http://www.w3.org/Graphics/SVG/1.1/DTD/svg11.dtd">
<svg version="1.1" id="Calque_1" xmlns="http://www.w3.org/2000/svg" xmlns:xlink="http://www.w3.org/1999/xlink" x="0px" y="0px"
	 width="27px" height="27px" viewBox="0 20 27 27" enable-background="new 0 20 27 27" xml:space="preserve">
<g id="Layer_1_1_">
</g>
<g>
	<g>
		<path fill="#6A6A6A" d="M20.25,30.125C20.25,24.534,15.716,20,10.125,20C4.534,20,0,24.534,0,30.125
			C0,35.716,4.534,40.25,10.125,40.25C15.716,40.25,20.25,35.716,20.25,30.125z M10.125,37.719c-4.187,0-7.594-3.406-7.594-7.594
			c0-4.188,3.406-7.594,7.594-7.594c4.187,0,7.594,3.406,7.594,7.594C17.719,34.312,14.312,37.719,10.125,37.719z M26.258,42.679
			l-6.195-6.195c-0.923,1.435-2.144,2.656-3.579,3.579l6.195,6.195c0.989,0.989,2.592,0.989,3.579,0
			C27.247,45.271,27.247,43.668,26.258,42.679z"/>
	</g>
</g>
</svg>
