<?xml version="1.0" encoding="UTF-8" standalone="no"?>
<!-- Generator: Adobe Illustrator 15.1.0, SVG Export Plug-In . SVG Version: 6.00 Build 0)  -->

<svg
   xmlns:dc="http://purl.org/dc/elements/1.1/"
   xmlns:cc="http://creativecommons.org/ns#"
   xmlns:rdf="http://www.w3.org/1999/02/22-rdf-syntax-ns#"
   xmlns:svg="http://www.w3.org/2000/svg"
   xmlns="http://www.w3.org/2000/svg"
   xmlns:sodipodi="http://sodipodi.sourceforge.net/DTD/sodipodi-0.dtd"
   xmlns:inkscape="http://www.inkscape.org/namespaces/inkscape"
   version="1.1"
   id="Layer_1"
   x="0px"
   y="0px"
   width="18"
   height="18"
   viewBox="13.49 0 18 18"
   enable-background="new 13.49 0 36 36"
   xml:space="preserve"
   inkscape:version="0.48.4 r9939"
   sodipodi:docname="longomatch-tab-project-active.svg"><metadata
     id="metadata17"><rdf:RDF><cc:Work
         rdf:about=""><dc:format>image/svg+xml</dc:format><dc:type
           rdf:resource="http://purl.org/dc/dcmitype/StillImage" /><dc:title></dc:title></cc:Work></rdf:RDF></metadata><defs
     id="defs15" /><sodipodi:namedview
     pagecolor="#ffffff"
     bordercolor="#666666"
     borderopacity="1"
     objecttolerance="10"
     gridtolerance="10"
     guidetolerance="10"
     inkscape:pageopacity="0"
     inkscape:pageshadow="2"
     inkscape:window-width="1092"
     inkscape:window-height="613"
     id="namedview13"
     showgrid="false"
     inkscape:zoom="11.856337"
     inkscape:cx="1.167358"
     inkscape:cy="15.761"
     inkscape:window-x="0"
     inkscape:window-y="95"
     inkscape:window-maximized="0"
     inkscape:current-layer="Layer_1"
     fit-margin-top="0"
     fit-margin-left="0"
     fit-margin-right="0"
     fit-margin-bottom="0" /><path
     id="plus_12_"
     d="m 1729.439,817.69 c -0.297,0 -0.535,-0.238 -0.535,-0.535 v -5.23 h -5.229 c -0.297,0 -0.537,-0.24 -0.537,-0.535 v -3.461 c 0,-0.297 0.24,-0.535 0.537,-0.535 h 5.229 v -5.23 c 0,-0.299 0.238,-0.537 0.535,-0.537 h 3.461 c 0.296,0 0.536,0.238 0.536,0.537 v 5.23 h 5.229 c 0.297,0 0.537,0.238 0.537,0.535 v 3.461 c 0,0.295 -0.24,0.535 -0.537,0.535 h -5.229 v 5.23 c 0,0.297 -0.24,0.535 -0.536,0.535 h -3.461 z"
     inkscape:connector-curvature="0"
     style="fill:#6a6a6a" /><g
     id="categories_1_"
     transform="matrix(0.53531599,0,0,0.53928877,5.6331672,-0.70692816)"><path
       d="M 48.219,20.574 44.016,3.761 C 43.761,2.864 42.931,2.238 41.996,2.238 H 20.982 c -0.937,0 -1.767,0.628 -2.02,1.523 L 14.757,20.58 c -0.053,0.192 -0.08,0.384 -0.08,0.573 v 9.456 c 0,1.567 0.976,3.152 3.152,3.152 H 45.15 c 1.567,0 3.152,-0.976 3.152,-3.152 v -9.456 c -10e-4,-0.192 -0.029,-0.387 -0.083,-0.579 z m -9.777,0.579 c -0.397,0 -0.762,0.224 -0.94,0.58 l -1.812,3.621 h -8.406 l -1.813,-3.621 c -0.178,-0.356 -0.541,-0.58 -0.94,-0.58 H 18.878 L 22.564,6.442 h 17.848 l 3.687,14.711 h -5.657 z"
       id="path5"
       inkscape:connector-curvature="0"
       style="fill:#f6f6f6;fill-opacity:1" /><polygon
       points="39.266,10.644 38.845,8.543 24.134,8.543 23.713,10.644 "
       id="polygon7"
       style="fill:#f6f6f6;fill-opacity:1" /><polygon
       points="22.452,16.948 22.032,19.05 40.944,19.05 40.525,16.948 "
       id="polygon9"
       style="fill:#f6f6f6;fill-opacity:1" /><polygon
       points="40.105,14.847 39.685,12.746 23.292,12.746 22.873,14.847 "
       id="polygon11"
       style="fill:#f6f6f6;fill-opacity:1" /></g></svg>