<?xml version="1.0" encoding="utf-8"?>
<!-- Generator: Adobe Illustrator 14.0.0, SVG Export Plug-In . SVG Version: 6.00 Build 43363)  -->
<!DOCTYPE svg PUBLIC "-//W3C//DTD SVG 1.1//EN" "http://www.w3.org/Graphics/SVG/1.1/DTD/svg11.dtd">
<svg version="1.1" id="Layer_1" xmlns="http://www.w3.org/2000/svg" xmlns:xlink="http://www.w3.org/1999/xlink" x="0px" y="0px"
	 width="47px" height="54.197px" viewBox="0 0 47 54.197" enable-background="new 0 0 47 54.197" xml:space="preserve">
<polygon fill="#14191F" points="23.642,40.794 10.766,54.197 36.436,54.197 "/>
<g>
	<g>
		<g id="Layer_8_14_">
			<path fill="#6A6A6A" d="M39.691,1.098H7.308c-0.443,0-0.804,0.392-0.804,0.875v24.344c0,0.482,0.359,0.875,0.804,0.875h12.178
				v6.215c0,0.03-1.236,0.061-1.233,0.09H7.818c-0.406,0-0.735,0.358-0.735,0.804c0,0.438,0.329,0.8,0.735,0.8h30.989
				c0.404,0,0.732-0.357,0.732-0.801s-0.328-0.805-0.732-0.805H29.15c0.002-0.025-2.479-0.059-2.479-0.09v-6.214h13.021
				c0.438,0,0.803-0.393,0.803-0.875V1.973C40.494,1.49,40.133,1.098,39.691,1.098z M38.217,22.501c0,0.48-0.357,0.875-0.801,0.875
				H9.583c-0.442,0-0.804-0.395-0.804-0.875V4.042c0-0.482,0.359-0.875,0.804-0.875h27.833c0.441,0,0.801,0.392,0.801,0.875V22.501
				L38.217,22.501z"/>
		</g>
	</g>
	<polyline fill="#6A6A6A" points="18.491,7.406 18.491,19.344 30.377,13.373 	"/>
</g>
</svg>
