<?xml version="1.0" encoding="utf-8"?>
<!-- Generator: Adobe Illustrator 15.1.0, SVG Export Plug-In . SVG Version: 6.00 Build 0)  -->
<!DOCTYPE svg PUBLIC "-//W3C//DTD SVG 1.1//EN" "http://www.w3.org/Graphics/SVG/1.1/DTD/svg11.dtd">
<svg version="1.1" id="Layer_1" xmlns="http://www.w3.org/2000/svg" xmlns:xlink="http://www.w3.org/1999/xlink" x="0px" y="0px"
	 width="36px" height="36px" viewBox="13.49 0 36 36" enable-background="new 13.49 0 36 36" xml:space="preserve">
<path id="plus_12_" fill="#6A6A6A" d="M1730.626,833.451c-0.297,0-0.535-0.238-0.535-0.535v-5.23h-5.229
	c-0.297,0-0.537-0.24-0.537-0.535v-3.461c0-0.297,0.24-0.535,0.537-0.535h5.229v-5.23c0-0.299,0.238-0.537,0.535-0.537h3.461
	c0.296,0,0.536,0.238,0.536,0.537v5.23h5.229c0.297,0,0.537,0.238,0.537,0.535v3.461c0,0.295-0.24,0.535-0.537,0.535h-5.229v5.23
	c0,0.297-0.24,0.535-0.536,0.535H1730.626z"/>
<path fill="#6A6A6A" d="M31.638,10.521c-2.508,0-4.473,0.927-5.081,1.935h10.159C36.106,11.448,34.146,10.521,31.638,10.521z"/>
<path fill="#6A6A6A" d="M31.596,5.555c5.336,0,9.056-2.395,9.056-4.543V1.009h-18.11v0.002C22.542,3.16,26.259,5.555,31.596,5.555z"
	/>
<path fill="#6A6A6A" d="M36.495,14.033h-9.719c0.796,0.877,2.615,1.619,4.861,1.619C33.88,15.651,35.698,14.91,36.495,14.033z"/>
<path fill="#6A6A6A" d="M35.593,25.509l2.209-2.186c-1.48-0.418-3.151-0.699-4.976-0.787c0.071,0.061,0.149,0.111,0.216,0.18
	L35.593,25.509z"/>
<path fill="#6A6A6A" d="M26.515,24.561l0.072-0.072l1.912-1.788c-6.037,0.764-10.031,3.674-10.031,6.33h8.009
	C25.316,27.783,25.325,25.792,26.515,24.561z"/>
<path fill="#6A6A6A" d="M31.638,9.271c3.218,0,5.703,1.333,6.173,3.185h7.319L43.377,1.009h-1.495v0.002
	c0,3.431-4.518,6.12-10.286,6.12s-10.287-2.689-10.287-6.12V1.009h-1.571l-1.894,11.446h7.618
	C25.93,10.604,28.416,9.271,31.638,9.271z"/>
<path fill="#6A6A6A" d="M46.675,29.031h1.769l-0.636-3.347l-1.43,1.478C46.573,27.761,46.675,28.386,46.675,29.031z"/>
<path fill="#6A6A6A" d="M45.729,16.766c0.134,0,0.264,0.023,0.395,0.04l-0.526-2.773h-7.886c-0.657,1.685-3.043,2.871-6.073,2.871
	c-3.035,0-5.418-1.186-6.077-2.871h-7.934L14.82,29.031h1.697c0-5.148,6.481-9.027,15.079-9.027c3.064,0,5.852,0.5,8.181,1.367
	l3.706-3.666C44.053,17.112,44.862,16.766,45.729,16.766z"/>
<path fill="#50B44D" d="M34.68,34.642c0.223,0.231,0.524,0.36,0.84,0.36c0.316,0,0.618-0.129,0.841-0.36l11.771-12.169
	c0.223-0.23,0.349-0.543,0.349-0.869c0-0.327-0.126-0.639-0.349-0.869l-1.562-1.608c-0.232-0.24-0.536-0.36-0.841-0.36
	s-0.608,0.12-0.84,0.36l-9.369,9.269l-3.915-4.288c-0.232-0.24-0.535-0.36-0.84-0.36s-0.608,0.12-0.841,0.36l-1.971,1.843
	c-0.464,0.48-0.464,1.259,0,1.738L34.68,34.642z"/>
</svg>
