<?xml version="1.0" encoding="utf-8"?>
<!-- Generator: Adobe Illustrator 16.0.0, SVG Export Plug-In . SVG Version: 6.00 Build 0)  -->
<!DOCTYPE svg PUBLIC "-//W3C//DTD SVG 1.1//EN" "http://www.w3.org/Graphics/SVG/1.1/DTD/svg11.dtd">
<svg version="1.1" id="Layer_1" xmlns="http://www.w3.org/2000/svg" xmlns:xlink="http://www.w3.org/1999/xlink" x="0px" y="0px"
	 width="48px" height="48px" viewBox="0 0 48 48" enable-background="new 0 0 48 48" xml:space="preserve">
<g>
	<polygon fill="#3B3B3C" points="34.153,2.5 42.032,20.271 42.148,44.492 6.867,44.492 7.222,2.519 	"/>
	<g>
		<path fill="#50B44D" d="M34.749,28.096h-21.5c-0.707,0-1.279-0.574-1.279-1.281c0-0.706,0.573-1.279,1.279-1.279h21.5
			c0.707,0,1.28,0.573,1.28,1.279C36.029,27.521,35.456,28.096,34.749,28.096z"/>
		<path fill="#50B44D" d="M34.749,33.47h-21.5c-0.707,0-1.279-0.572-1.279-1.279c0-0.706,0.573-1.279,1.279-1.279h21.5
			c0.707,0,1.28,0.573,1.28,1.279C36.029,32.897,35.456,33.47,34.749,33.47z"/>
		<path fill="#50B44D" d="M34.749,38.59h-21.5c-0.707,0-1.279-0.574-1.279-1.28c0-0.707,0.573-1.28,1.279-1.28h21.5
			c0.707,0,1.28,0.573,1.28,1.28C36.029,38.016,35.456,38.59,34.749,38.59z"/>
		<path fill="#50B44D" d="M24.598,2.5v8.489c0,0.566,0.458,1.023,1.023,1.023h3.412c0.566,0,1.023-0.458,1.023-1.023V2.5H24.598z"/>
		<path fill="#6A6A6A" d="M37.378,2.5h-1.792h-1.433v11.091c0,0.566-0.459,1.024-1.024,1.024h-21.5
			c-0.565,0-1.023-0.458-1.023-1.024V2.5H7.241h-1.67C3.875,2.5,2.5,3.875,2.5,5.571v36.858c0,1.696,1.375,3.071,3.071,3.071h36.858
			c1.696,0,3.071-1.375,3.071-3.071V10.622L37.378,2.5z M40.381,41.916c0,0.566-0.458,1.024-1.023,1.024H8.643
			c-0.565,0-1.024-0.458-1.024-1.024V22.465c0-0.566,0.459-1.025,1.024-1.025h30.715c0.565,0,1.023,0.459,1.023,1.025V41.916z"/>
	</g>
</g>
</svg>
