<?xml version="1.0" encoding="utf-8"?>
<!-- Generator: Adobe Illustrator 16.0.0, SVG Export Plug-In . SVG Version: 6.00 Build 0)  -->
<!DOCTYPE svg PUBLIC "-//W3C//DTD SVG 1.1//EN" "http://www.w3.org/Graphics/SVG/1.1/DTD/svg11.dtd">
<svg version="1.1" id="Layer_1" xmlns="http://www.w3.org/2000/svg" xmlns:xlink="http://www.w3.org/1999/xlink" x="0px" y="0px"
	 width="48px" height="48px" viewBox="0 0 48 48" enable-background="new 0 0 48 48" xml:space="preserve">
<g>
	<path fill="#6A6A6A" d="M7.859,16.406l7.985-0.561l0.561-7.985c0.063-1.722,0.957-3.228,2.284-4.157
		C11.367,5.617,5.617,11.367,3.705,18.688C4.632,17.363,6.137,16.47,7.859,16.406z"/>
	<path fill="#6A6A6A" d="M31.596,7.861l0.561,7.985l7.986,0.56c1.721,0.064,3.226,0.957,4.153,2.281
		c-1.912-7.32-7.661-13.07-14.98-14.983C30.641,4.632,31.533,6.138,31.596,7.861z"/>
	<path fill="#6A6A6A" d="M40.143,31.595l-7.986,0.562l-0.561,7.982c-0.063,1.722-0.955,3.229-2.28,4.156
		c7.319-1.913,13.067-7.663,14.98-14.98C43.368,30.64,41.863,31.532,40.143,31.595z"/>
	<path fill="#6A6A6A" d="M16.405,40.141l-0.561-7.984l-7.985-0.562c-1.722-0.063-3.227-0.955-4.155-2.28
		c1.913,7.318,7.663,13.068,14.983,14.981C17.361,43.368,16.468,41.861,16.405,40.141z"/>
	<path fill="#50B34B" d="M39.942,20.586l-11.706-0.823L27.417,8.06c0-0.629-0.51-1.14-1.139-1.14h-4.554
		c-0.631,0-1.141,0.511-1.141,1.14l-0.821,11.704L8.059,20.586c-0.629,0-1.139,0.505-1.139,1.136v4.555
		c0,0.63,0.51,1.139,1.139,1.139l11.704,0.821l0.821,11.704c0,0.631,0.51,1.139,1.141,1.139h4.554c0.629,0,1.139-0.508,1.139-1.139
		l0.819-11.704l11.706-0.821c0.631,0,1.138-0.509,1.138-1.139v-4.555C41.08,21.091,40.573,20.586,39.942,20.586z"/>
	<path fill="#3B3B3C" d="M44.296,18.688c-0.928-1.325-2.433-2.217-4.153-2.281l-7.986-0.56l-0.561-7.985
		c-0.063-1.723-0.955-3.229-2.28-4.157C27.614,3.261,25.841,3,24,3c-1.839,0-3.612,0.261-5.312,0.704
		c-1.327,0.929-2.22,2.435-2.284,4.157l-0.561,7.985l-7.985,0.561c-1.722,0.064-3.227,0.957-4.155,2.281C3.261,20.388,3,22.161,3,24
		c0,1.84,0.261,3.613,0.705,5.314c0.928,1.325,2.433,2.218,4.155,2.28l7.985,0.562l0.561,7.984c0.063,1.721,0.957,3.228,2.283,4.155
		C20.387,44.739,22.161,45,24,45c1.841,0,3.614-0.261,5.315-0.705c1.325-0.928,2.218-2.435,2.28-4.156l0.561-7.982l7.986-0.562
		c1.721-0.063,3.226-0.955,4.153-2.28C44.74,27.613,45,25.84,45,24C45,22.161,44.74,20.387,44.296,18.688z M41.08,26.277
		c0,0.63-0.507,1.139-1.138,1.139l-11.706,0.821l-0.819,11.704c0,0.631-0.51,1.139-1.139,1.139h-4.554
		c-0.631,0-1.141-0.508-1.141-1.139l-0.821-11.704L8.059,27.416c-0.629,0-1.139-0.509-1.139-1.139v-4.555
		c0-0.631,0.51-1.136,1.139-1.136l11.704-0.823L20.583,8.06c0-0.629,0.51-1.14,1.141-1.14h4.554c0.629,0,1.139,0.511,1.139,1.14
		l0.819,11.704l11.706,0.823c0.631,0,1.138,0.505,1.138,1.136V26.277z"/>
</g>
</svg>
