<?xml version="1.0" encoding="utf-8"?>
<!-- Generator: Adobe Illustrator 15.1.0, SVG Export Plug-In . SVG Version: 6.00 Build 0)  -->
<!DOCTYPE svg PUBLIC "-//W3C//DTD SVG 1.1//EN" "http://www.w3.org/Graphics/SVG/1.1/DTD/svg11.dtd">
<svg version="1.1" id="Layer_1" xmlns="http://www.w3.org/2000/svg" xmlns:xlink="http://www.w3.org/1999/xlink" x="0px" y="0px"
	 width="58px" height="58px" viewBox="0 0 58 58" enable-background="new 0 0 58 58" xml:space="preserve">
<path id="checkmark_1_" fill="#50B44B" d="M26.484,39.645c-0.475,0-0.93-0.189-1.266-0.523l-9.111-9.576
	c-0.336-0.335-0.525-0.791-0.525-1.265c0-0.476,0.189-0.931,0.525-1.264l1.265-1.266c0.35-0.351,0.808-0.524,1.265-0.524
	c0.459,0,0.916,0.174,1.266,0.524l6.582,5.185L38.097,19.88c0.336-0.337,0.791-0.525,1.266-0.525l0,0
	c0.475,0,0.93,0.188,1.266,0.525l1.266,1.265c0.699,0.697,0.699,1.831,0.001,2.528L27.75,39.121
	C27.416,39.455,26.958,39.645,26.484,39.645z"/>
</svg>
