<?xml version="1.0" encoding="utf-8"?>
<!-- Generator: Adobe Illustrator 15.1.0, SVG Export Plug-In . SVG Version: 6.00 Build 0)  -->
<!DOCTYPE svg PUBLIC "-//W3C//DTD SVG 1.1//EN" "http://www.w3.org/Graphics/SVG/1.1/DTD/svg11.dtd">
<svg version="1.1" id="Layer_1" xmlns="http://www.w3.org/2000/svg" xmlns:xlink="http://www.w3.org/1999/xlink" x="0px" y="0px"
	 width="36px" height="36px" viewBox="13.49 0 36 36" enable-background="new 13.49 0 36 36" xml:space="preserve">
<path id="plus_12_" fill="#6A6A6A" d="M1730.626,833.451c-0.297,0-0.535-0.238-0.535-0.535v-5.23h-5.229
	c-0.297,0-0.537-0.24-0.537-0.535v-3.461c0-0.297,0.24-0.535,0.537-0.535h5.229v-5.23c0-0.299,0.238-0.537,0.535-0.537h3.461
	c0.296,0,0.536,0.238,0.536,0.537v5.23h5.229c0.297,0,0.537,0.238,0.537,0.535v3.461c0,0.295-0.24,0.535-0.537,0.535h-5.229v5.23
	c0,0.297-0.24,0.535-0.536,0.535H1730.626z"/>
<g id="upload2">
	<path fill="#6A6A6A" d="M31.181,14.875c0.086,0.086,0.197,0.126,0.31,0.126c0.11,0,0.224-0.04,0.31-0.126l6.553-6.116
		c0.083-0.084,0.129-0.194,0.129-0.311c0-0.055-0.014-0.111-0.035-0.167c-0.065-0.162-0.227-0.269-0.403-0.269h-3.102V1.459
		c0-0.242-0.196-0.438-0.438-0.438h-6.116c-0.242,0-0.437,0.196-0.437,0.438v6.553h-3.015c-0.178,0-0.336,0.107-0.404,0.269
		c-0.022,0.056-0.033,0.113-0.033,0.167c0,0.116,0.045,0.226,0.129,0.311L31.181,14.875z"/>
	<path fill="#6A6A6A" d="M41.613,13.035l-3.432-1.729l-1.864,1.741l3.036,1.519l-7.863,3.896l-7.865-3.896l3.038-1.519l-1.867-1.741
		l-3.431,1.729c-0.222,0.113-0.361,0.337-0.361,0.589v9.748c0,0.251,0.14,0.477,0.361,0.589l9.832,4.952
		c0.092,0.051,0.19,0.072,0.293,0.072c0.1,0,0.202-0.021,0.293-0.072l9.83-4.952c0.223-0.112,0.363-0.338,0.363-0.589v-9.748
		C41.977,13.372,41.836,13.147,41.613,13.035z"/>
</g>
</svg>
