<?xml version="1.0" encoding="utf-8"?>
<!-- Generator: Adobe Illustrator 14.0.0, SVG Export Plug-In . SVG Version: 6.00 Build 43363)  -->
<!DOCTYPE svg PUBLIC "-//W3C//DTD SVG 1.1//EN" "http://www.w3.org/Graphics/SVG/1.1/DTD/svg11.dtd">
<svg version="1.1" id="Capa_1" xmlns="http://www.w3.org/2000/svg" xmlns:xlink="http://www.w3.org/1999/xlink" x="0px" y="0px"
	 width="36px" height="36px" viewBox="0 0 36 36" enable-background="new 0 0 36 36" xml:space="preserve">
<g>
	<path fill="#6A6A6A" d="M34.192,0.999H1.808c-0.443,0-0.803,0.392-0.803,0.875v24.344c0,0.482,0.359,0.875,0.803,0.875h12.178
		v6.215c0,0.03-1.236,0.061-1.233,0.09H2.317c-0.406,0-0.735,0.358-0.735,0.804c0,0.438,0.329,0.8,0.735,0.8h14.396h0.942
		c-0.126-0.254-0.205-0.536-0.205-0.84c0-0.885,0.606-1.629,1.418-1.824c-0.946-0.096-1.688-0.911-1.688-1.899V24.5v-1.224h-0.468
		H4.083c-0.443,0-0.803-0.395-0.803-0.875V3.942c0-0.482,0.359-0.875,0.803-0.875h27.834c0.441,0,0.801,0.392,0.801,0.875v12.77
		v0.466h1.158h0.282c0.303,0,0.585,0.081,0.839,0.212v-0.678V1.874C34.995,1.391,34.633,0.999,34.192,0.999z"/>
	<polygon fill="#6A6A6A" points="12.991,7.306 12.991,19.245 16.713,17.375 18.032,16.712 24.877,13.273 	"/>
	<g>
		<g>
			<defs>
				<rect id="SVGID_1_" x="18.213" y="18.212" width="16.787" height="16.787"/>
			</defs>
			<clipPath id="SVGID_2_">
				<use xlink:href="#SVGID_1_"  overflow="visible"/>
			</clipPath>
			<path clip-path="url(#SVGID_2_)" fill="#50B149" d="M40.439,34.542c-0.139,0-0.249-0.112-0.249-0.25v-2.439H37.75
				c-0.139,0-0.249-0.112-0.249-0.249v-1.615c0-0.138,0.11-0.249,0.249-0.249h2.439v-2.44c0-0.139,0.11-0.249,0.249-0.249h1.614
				c0.138,0,0.25,0.11,0.25,0.249v2.44h2.439c0.137,0,0.25,0.111,0.25,0.249v1.615c0,0.137-0.113,0.249-0.25,0.249h-2.439v2.439
				c0,0.138-0.112,0.25-0.25,0.25H40.439z"/>
		</g>
		<g>
			<g>
				<g id="Layer_8_3_">
					<path fill="#6A6A6A" d="M34.158,18.678H19.056c-0.207,0-0.375,0.183-0.375,0.408v11.351c0,0.226,0.168,0.409,0.375,0.409h5.679
						v2.897c0,0.015-0.576,0.029-0.576,0.043h-4.865c-0.188,0-0.343,0.166-0.343,0.374c0,0.204,0.154,0.373,0.343,0.373h14.451
						c0.188,0,0.341-0.166,0.341-0.373s-0.152-0.376-0.341-0.376h-4.503c0.001-0.011-1.156-0.027-1.156-0.042v-2.897h6.072
						c0.205,0,0.375-0.183,0.375-0.408V19.086C34.531,18.861,34.363,18.678,34.158,18.678z M33.469,28.659
						c0,0.224-0.167,0.408-0.373,0.408H20.117c-0.206,0-0.374-0.185-0.374-0.408v-8.607c0-0.225,0.167-0.408,0.374-0.408h12.979
						c0.205,0,0.373,0.183,0.373,0.408V28.659L33.469,28.659z"/>
				</g>
			</g>
			<polyline fill="#6A6A6A" points="24.271,21.62 24.271,27.186 29.814,24.402 			"/>
		</g>
		<g>
			<g>
				<g id="Layer_8_2_">
					<path fill="#50B44D" d="M34.158,18.678H19.056c-0.207,0-0.375,0.183-0.375,0.408v11.351c0,0.226,0.168,0.409,0.375,0.409h5.679
						v2.897c0,0.015-0.576,0.029-0.576,0.043h-4.865c-0.188,0-0.343,0.166-0.343,0.374c0,0.204,0.154,0.373,0.343,0.373h14.451
						c0.188,0,0.341-0.166,0.341-0.373s-0.152-0.376-0.341-0.376h-4.503c0.001-0.011-1.156-0.027-1.156-0.042v-2.897h6.072
						c0.205,0,0.375-0.183,0.375-0.408V19.086C34.531,18.861,34.363,18.678,34.158,18.678z M33.469,28.659
						c0,0.224-0.167,0.408-0.373,0.408H20.117c-0.206,0-0.374-0.185-0.374-0.408v-8.607c0-0.225,0.167-0.408,0.374-0.408h12.979
						c0.205,0,0.373,0.183,0.373,0.408V28.659L33.469,28.659z"/>
				</g>
			</g>
			<polygon fill="#50B44D" points="24.271,21.62 24.271,27.186 29.814,24.402 			"/>
		</g>
	</g>
</g>
</svg>
