<?xml version="1.0" encoding="utf-8"?>
<!-- Generator: Adobe Illustrator 15.1.0, SVG Export Plug-In . SVG Version: 6.00 Build 0)  -->
<!DOCTYPE svg PUBLIC "-//W3C//DTD SVG 1.1//EN" "http://www.w3.org/Graphics/SVG/1.1/DTD/svg11.dtd">
<svg version="1.1" id="Layer_1" xmlns="http://www.w3.org/2000/svg" xmlns:xlink="http://www.w3.org/1999/xlink" x="0px" y="0px"
	 width="80px" height="80px" viewBox="0 0 80 80" enable-background="new 0 0 80 80" xml:space="preserve">
<ellipse fill="#151A20" cx="39.917" cy="40" rx="34.917" ry="35"/>
<ellipse fill="#3B3B3C" cx="39.917" cy="40" rx="25.917" ry="25.979"/>
<linearGradient id="prelight_1_" gradientUnits="userSpaceOnUse" x1="39.9175" y1="65.9785" x2="39.9175" y2="14.022">
	<stop  offset="0" style="stop-color:#3B3B3C"/>
	<stop  offset="1" style="stop-color:#585859"/>
</linearGradient>
<ellipse id="prelight" display="none" fill="url(#prelight_1_)" cx="39.917" cy="40" rx="25.917" ry="25.979"/>
<linearGradient id="pessed_1_" gradientUnits="userSpaceOnUse" x1="39.9175" y1="65.9785" x2="39.9175" y2="14.022">
	<stop  offset="0" style="stop-color:#585859"/>
	<stop  offset="0.0323" style="stop-color:#515152"/>
	<stop  offset="0.1224" style="stop-color:#454546"/>
	<stop  offset="0.2414" style="stop-color:#3D3D3E"/>
	<stop  offset="0.5" style="stop-color:#3B3B3C"/>
	<stop  offset="0.7884" style="stop-color:#3D3D3E"/>
	<stop  offset="0.8922" style="stop-color:#444445"/>
	<stop  offset="0.966" style="stop-color:#4F4F50"/>
	<stop  offset="1" style="stop-color:#585859"/>
</linearGradient>
<ellipse id="pessed" display="none" fill="url(#pessed_1_)" cx="39.917" cy="40" rx="25.917" ry="25.979"/>
<path id="reply_1_" fill-rule="evenodd" clip-rule="evenodd" fill="#6A6A6A" d="M36.015,31.008v-6.005
	c0.001-0.41-0.249-0.778-0.628-0.931C35.266,24.022,35.14,24,35.014,24c-0.267,0-0.531,0.107-0.726,0.31l-9.894,10.837
	c-0.307,0.307-0.404,0.574-0.393,0.868c-0.02,0.271,0.174,0.638,0.375,0.849l0.027,0.011l-0.009,0.007l9.894,10.837
	c0.195,0.201,0.459,0.312,0.726,0.312c0.126,0,0.252-0.024,0.374-0.072c0.379-0.154,0.629-0.521,0.628-0.932v-6.006
	c19.339,0,20.001,6.556,20.025,7.01C56.017,31.97,36.015,31.008,36.015,31.008z"/>
<path id="settings" fill="#50B44D" d="M50.11,48.651l-1.272-0.212c-0.092-0.378-0.228-0.738-0.401-1.075l0.813-1.009
	c0.173-0.213,0.165-0.521-0.018-0.725l-0.505-0.569c-0.183-0.205-0.487-0.249-0.718-0.103l-1.088,0.683
	c-0.479-0.334-1.021-0.58-1.603-0.724l-0.215-1.277c-0.045-0.271-0.277-0.47-0.552-0.47H43.79c-0.274,0-0.51,0.199-0.553,0.47
	l-0.214,1.277c-0.483,0.119-0.937,0.31-1.35,0.562l-1.033-0.737c-0.224-0.16-0.528-0.136-0.723,0.059l-0.538,0.538
	c-0.195,0.194-0.22,0.501-0.06,0.724l0.738,1.035c-0.248,0.411-0.436,0.86-0.554,1.34l-1.285,0.214
	c-0.271,0.046-0.47,0.278-0.47,0.554v0.762c0,0.274,0.199,0.509,0.47,0.554l1.285,0.214c0.096,0.394,0.237,0.771,0.425,1.119
	l-0.81,1.003c-0.173,0.213-0.165,0.521,0.017,0.726l0.505,0.569c0.182,0.205,0.486,0.248,0.72,0.103l1.101-0.692
	c0.468,0.319,0.995,0.553,1.562,0.691l0.214,1.278C43.28,55.802,43.516,56,43.79,56h0.763c0.274,0,0.507-0.198,0.552-0.469
	l0.215-1.278c0.475-0.117,0.922-0.304,1.332-0.551l1.076,0.769c0.222,0.159,0.53,0.135,0.724-0.061l0.537-0.537
	c0.193-0.194,0.22-0.5,0.061-0.724l-0.767-1.074c0.25-0.412,0.438-0.862,0.556-1.344l1.272-0.211
	c0.271-0.045,0.468-0.279,0.468-0.554v-0.762C50.578,48.93,50.381,48.697,50.11,48.651z M44.185,51.991
	c-1.329,0-2.405-1.077-2.405-2.405c0-1.329,1.076-2.405,2.405-2.405c1.328,0,2.404,1.076,2.404,2.405
	C46.589,50.914,45.513,51.991,44.185,51.991z"/>
</svg>
