<?xml version="1.0" encoding="utf-8"?>
<!-- Generator: Adobe Illustrator 14.0.0, SVG Export Plug-In . SVG Version: 6.00 Build 43363)  -->
<!DOCTYPE svg PUBLIC "-//W3C//DTD SVG 1.1//EN" "http://www.w3.org/Graphics/SVG/1.1/DTD/svg11.dtd">
<svg version="1.1" id="Capa_1" xmlns="http://www.w3.org/2000/svg" xmlns:xlink="http://www.w3.org/1999/xlink" x="0px" y="0px"
	 width="36px" height="36px" viewBox="0 0 36 36" enable-background="new 0 0 36 36" xml:space="preserve">
<g>
	<defs>
		<rect id="SVGID_1_" y="0" width="36" height="36"/>
	</defs>
	<clipPath id="SVGID_2_">
		<use xlink:href="#SVGID_1_"  overflow="visible"/>
	</clipPath>
	<path clip-path="url(#SVGID_2_)" fill="#50B149" d="M47.664,35.015c-0.297,0-0.535-0.239-0.535-0.536v-5.23h-5.229
		c-0.297,0-0.537-0.239-0.537-0.534v-3.461c0-0.298,0.24-0.536,0.537-0.536h5.229v-5.23c0-0.298,0.238-0.536,0.535-0.536h3.461
		c0.297,0,0.537,0.238,0.537,0.536v5.23h5.229c0.297,0,0.537,0.238,0.537,0.536v3.461c0,0.295-0.24,0.534-0.537,0.534h-5.229v5.23
		c0,0.297-0.24,0.536-0.537,0.536H47.664z"/>
</g>
<polyline fill="#6A6A6A" points="12.991,7.306 12.991,19.245 24.877,13.273 "/>
<g>
	<path fill="none" d="M22.706,18.751h10.012V3.942c0-0.483-0.359-0.875-0.801-0.875H4.083c-0.444,0-0.803,0.393-0.803,0.875v18.458
		c0,0.48,0.36,0.875,0.803,0.875h13.222l3.905-3.905C21.619,18.968,22.147,18.751,22.706,18.751z"/>
	<path fill="#6A6A6A" d="M17.304,23.276H4.083c-0.443,0-0.803-0.395-0.803-0.875V3.942c0-0.482,0.359-0.875,0.803-0.875h27.834
		c0.441,0,0.801,0.392,0.801,0.875v14.809h1.656c0.219,0,0.425,0.043,0.623,0.104V1.874c-0.002-0.483-0.363-0.875-0.805-0.875H1.808
		c-0.443,0-0.803,0.392-0.803,0.875v24.344c0,0.482,0.359,0.875,0.803,0.875h12.108c0.089-0.352,0.262-0.687,0.534-0.962
		L17.304,23.276z"/>
	<path fill="#6A6A6A" d="M13.985,28.381v4.926c0,0.03-1.236,0.061-1.233,0.09H2.317c-0.406,0-0.735,0.358-0.735,0.804
		c0,0.438,0.329,0.8,0.735,0.8h18.024l-5.885-5.887C14.243,28.899,14.087,28.648,13.985,28.381z"/>
	<path id="delete_6_" fill="#C22729" d="M34.374,20.251H22.706c-0.162,0-0.318,0.064-0.436,0.18l-6.753,6.753
		c-0.238,0.241-0.238,0.629,0,0.869l6.753,6.755c0.115,0.113,0.271,0.179,0.436,0.179h11.668c0.338,0,0.611-0.274,0.611-0.614
		V20.865C34.985,20.528,34.709,20.251,34.374,20.251z M32.333,31.389l-0.943,0.94c-0.26,0.262-0.68,0.262-0.943,0l-2.826-2.828
		l-2.828,2.83c-0.264,0.262-0.686,0.262-0.943,0l-0.943-0.942c-0.262-0.263-0.258-0.683,0-0.942l2.83-2.828l-2.832-2.828
		c-0.26-0.263-0.26-0.686,0-0.941l0.943-0.941c0.262-0.263,0.682-0.263,0.941,0l2.832,2.826l2.826-2.826
		c0.264-0.263,0.686-0.263,0.941,0l0.943,0.941c0.262,0.258,0.262,0.681,0,0.941l-2.828,2.828l2.828,2.826
		C32.592,30.705,32.592,31.126,32.333,31.389z"/>
</g>
</svg>
