<?xml version="1.0" encoding="utf-8"?>
<!-- Generator: Adobe Illustrator 15.1.0, SVG Export Plug-In . SVG Version: 6.00 Build 0)  -->
<!DOCTYPE svg PUBLIC "-//W3C//DTD SVG 1.1//EN" "http://www.w3.org/Graphics/SVG/1.1/DTD/svg11.dtd">
<svg version="1.1" id="Layer_1" xmlns="http://www.w3.org/2000/svg" xmlns:xlink="http://www.w3.org/1999/xlink" x="0px" y="0px"
	 width="20px" height="20px" viewBox="0 0 20 20" enable-background="new 0 0 20 20" xml:space="preserve">
<g>
	<path fill="#6A6A6A" d="M7.847,5.956v3.821h3.664v1.649H7.847v3.855H6.13v-3.855H2.466V9.777H6.13V5.956H7.847z"/>
	<path fill="#6A6A6A" d="M13.791,6.254h-0.036l-2.171,1.034l-0.44-2l3.017-1.402h2.208v11.395h-2.577V6.254z"/>
</g>
<path fill="#6A6A6A" d="M10,19.445c-5.445,0-9.875-4.237-9.875-9.445c0-5.208,4.43-9.446,9.875-9.446S19.875,4.792,19.875,10
	C19.875,15.208,15.445,19.445,10,19.445z M10,1.648c-4.814,0-8.73,3.747-8.73,8.352c0,4.604,3.916,8.349,8.73,8.349
	c4.813,0,8.73-3.744,8.73-8.349C18.73,5.395,14.813,1.648,10,1.648z"/>
</svg>
