<?xml version="1.0" encoding="utf-8"?>
<!-- Generator: Adobe Illustrator 15.1.0, SVG Export Plug-In . SVG Version: 6.00 Build 0)  -->
<!DOCTYPE svg PUBLIC "-//W3C//DTD SVG 1.1//EN" "http://www.w3.org/Graphics/SVG/1.1/DTD/svg11.dtd">
<svg version="1.1" id="Layer_1" xmlns="http://www.w3.org/2000/svg" xmlns:xlink="http://www.w3.org/1999/xlink" x="0px" y="0px"
	 width="18px" height="18px" viewBox="2 2 18 18" enable-background="new 2 2 18 18" xml:space="preserve">
<path id="filter_2_" fill-rule="evenodd" clip-rule="evenodd" fill="#F5F6F7" d="M11,2C6.03,2,2,3.511,2,5.375
	C2,5.902,2,6.5,3.125,7.625c0,0,3.938,3.938,5.625,5.062c0,2.249,0,6.188,0,6.188C8.75,19.497,9.757,20,11,20
	s2.251-0.503,2.251-1.125c0,0,0-5.062,0-6.188c1.687-1.125,5.625-5.062,5.625-5.062C20,6.5,20,5.902,20,5.375
	C20,3.511,15.971,2,11,2z M11,8.151c-3.728,0-6.75-0.998-6.75-2.231S7.272,3.688,11,3.688c3.729,0,6.751,0.999,6.751,2.232
	S14.729,8.151,11,8.151z"/>
</svg>
