<?xml version="1.0" encoding="UTF-8" standalone="no"?>
<!-- Generator: Adobe Illustrator 17.0.0, SVG Export Plug-In . SVG Version: 6.00 Build 0)  -->

<svg
   xmlns:dc="http://purl.org/dc/elements/1.1/"
   xmlns:cc="http://creativecommons.org/ns#"
   xmlns:rdf="http://www.w3.org/1999/02/22-rdf-syntax-ns#"
   xmlns:svg="http://www.w3.org/2000/svg"
   xmlns="http://www.w3.org/2000/svg"
   xmlns:sodipodi="http://sodipodi.sourceforge.net/DTD/sodipodi-0.dtd"
   xmlns:inkscape="http://www.inkscape.org/namespaces/inkscape"
   version="1.1"
   x="0px"
   y="0px"
   width="37.215px"
   height="36px"
   viewBox="0 0 37.215 36"
   enable-background="new 0 0 37.215 36"
   xml:space="preserve"
   id="svg3065"
   inkscape:version="0.48.4 r9939"
   sodipodi:docname="longomatch-template-import.svg"><metadata
     id="metadata3092"><rdf:RDF><cc:Work
         rdf:about=""><dc:format>image/svg+xml</dc:format><dc:type
           rdf:resource="http://purl.org/dc/dcmitype/StillImage" /></cc:Work></rdf:RDF></metadata><defs
     id="defs3090" /><sodipodi:namedview
     pagecolor="#ffffff"
     bordercolor="#666666"
     borderopacity="1"
     objecttolerance="10"
     gridtolerance="10"
     guidetolerance="10"
     inkscape:pageopacity="0"
     inkscape:pageshadow="2"
     inkscape:window-width="753"
     inkscape:window-height="612"
     id="namedview3088"
     showgrid="false"
     inkscape:zoom="6.5555556"
     inkscape:cx="45.454958"
     inkscape:cy="18"
     inkscape:window-x="763"
     inkscape:window-y="130"
     inkscape:window-maximized="0"
     inkscape:current-layer="Icons" /><g
     id="Layer_1"><path
       id="plus_12_"
       fill="#6A6A6A"
       d="M1730.626,833.451c-0.297,0-0.535-0.238-0.535-0.535v-5.23h-5.229   c-0.297,0-0.537-0.24-0.537-0.535v-3.461c0-0.297,0.24-0.535,0.537-0.535h5.229v-5.23c0-0.299,0.238-0.537,0.535-0.537h3.461   c0.296,0,0.536,0.238,0.536,0.537v5.23h5.229c0.297,0,0.537,0.238,0.537,0.535v3.461c0,0.295-0.24,0.535-0.537,0.535h-5.229v5.23   c0,0.297-0.24,0.535-0.536,0.535H1730.626z" /></g><g
     id="Calque_1" /><g
     id="Icons"><g
       id="g3073"><path
         style="fill:#6a6a6a"
         inkscape:connector-curvature="0"
         id="path3075"
         d="m 17.308,10.376 c -2.584,0 -4.606,0.927 -5.234,1.935 h 10.464 c -0.629,-1.009 -2.647,-1.935 -5.23,-1.935 z" /><path
         style="fill:#6a6a6a"
         inkscape:connector-curvature="0"
         id="path3077"
         d="m 7.939,0.868 c 0,2.148 3.828,4.542 9.325,4.542 5.496,0 9.325,-2.394 9.325,-4.542 V 0.865 H 7.938 l 0.001,0.003 0,0 z" /><path
         style="fill:#6a6a6a"
         inkscape:connector-curvature="0"
         id="path3079"
         d="M 22.309,13.886 H 12.301 c 0.821,0.877 2.693,1.618 5.007,1.618 2.309,0.001 4.181,-0.741 5.001,-1.618 z" /><path
         style="fill:#6a6a6a"
         inkscape:connector-curvature="0"
         id="path3081"
         d="m 29.397,0.865 h -1.54 v 0.002 c 0,3.431 -4.652,6.119 -10.593,6.119 C 11.324,6.986 6.67,4.298 6.67,0.867 V 0.865 H 5.052 L 3.101,12.309 h 7.846 c 0.482,-1.851 3.042,-3.184 6.36,-3.184 3.314,0 5.873,1.333 6.357,3.184 h 7.538" /></g><path
       style="fill:#6a6a6a"
       inkscape:connector-curvature="0"
       id="path3083"
       d="m 26.326,19.138 c 0,-1.594 1.297,-2.89 2.891,-2.89 h 1.78 c 0.429,0 0.833,0.1 1.2,0.269 l -0.514,-2.631 h -8.121 c -0.678,1.685 -3.134,2.871 -6.255,2.871 -3.127,0 -5.58,-1.186 -6.259,-2.871 H 2.877 l -2.89,14.996 h 1.747 c 0,-5.148 6.675,-9.026 15.529,-9.026 3.44,0 6.544,0.591 9.062,1.609 v -2.327 z" /><path
       style="fill:#6a6a6a"
       inkscape:connector-curvature="0"
       id="path3085"
       d="m 20.985,28.013 c 0,-0.395 0.077,-0.774 0.229,-1.129 0.439,-1.061 1.487,-1.761 2.66,-1.761 h 2.451 v -0.99 c -2.329,-1.065 -5.442,-1.779 -9.062,-1.779 -7.967,0 -13.519,3.438 -13.519,6.527 h 17.387 c -0.087,-0.278 -0.146,-0.567 -0.146,-0.868 z" /><path
       style="fill:#50b149;fill-opacity:1"
       inkscape:connector-curvature="0"
       d="m 30.736,34.874 6.231,-6.231 c 0.17,-0.17 0.261,-0.398 0.261,-0.629 0,-0.115 -0.022,-0.231 -0.068,-0.341 -0.137,-0.332 -0.462,-0.549 -0.822,-0.549 h -4.451 v -7.985 c 0,-0.492 -0.398,-0.89 -0.89,-0.89 h -1.78 c -0.492,0 -0.89,0.398 -0.89,0.89 v 7.985 h -4.451 c -0.36,0 -0.685,0.217 -0.822,0.549 -0.047,0.11 -0.068,0.226 -0.068,0.341 0,0.231 0.09,0.459 0.261,0.629 l 6.231,6.231 c 0.347,0.348 0.91,0.348 1.258,0 z"
       id="arrow-down_1_" /></g></svg>