<?xml version="1.0" encoding="utf-8"?>
<!-- Generator: Adobe Illustrator 15.1.0, SVG Export Plug-In . SVG Version: 6.00 Build 0)  -->
<!DOCTYPE svg PUBLIC "-//W3C//DTD SVG 1.1//EN" "http://www.w3.org/Graphics/SVG/1.1/DTD/svg11.dtd">
<svg version="1.1" id="Layer_1" xmlns="http://www.w3.org/2000/svg" xmlns:xlink="http://www.w3.org/1999/xlink" x="0px" y="0px"
	 width="80px" height="80px" viewBox="0 0 80 80" enable-background="new 0 0 80 80" xml:space="preserve">
<path id="reply_1_" fill="#6A6A6A" d="M36.015,31.008v-6.005c0.001-0.41-0.249-0.778-0.628-0.931C35.266,24.022,35.14,24,35.014,24
	c-0.267,0-0.531,0.107-0.726,0.31l-9.894,10.837c-0.307,0.307-0.404,0.574-0.393,0.868c-0.02,0.271,0.174,0.638,0.375,0.849
	l0.027,0.011l-0.009,0.007l9.894,10.837c0.195,0.201,0.459,0.312,0.726,0.312c0.126,0,0.252-0.024,0.374-0.072
	c0.379-0.154,0.629-0.521,0.628-0.932v-6.006c19.339,0,20.001,6.556,20.025,7.01C56.018,31.97,36.015,31.008,36.015,31.008z"/>
<path id="settings" fill="#50B44D" d="M50.109,48.65l-1.271-0.211c-0.092-0.379-0.229-0.738-0.4-1.075l0.812-1.009
	c0.173-0.213,0.165-0.521-0.018-0.727l-0.506-0.568c-0.184-0.205-0.486-0.248-0.719-0.104l-1.088,0.684
	c-0.479-0.334-1.021-0.58-1.604-0.725l-0.215-1.275c-0.045-0.271-0.276-0.472-0.553-0.472H43.79c-0.274,0-0.511,0.199-0.554,0.472
	l-0.213,1.275c-0.483,0.119-0.938,0.311-1.352,0.562l-1.031-0.736c-0.226-0.16-0.53-0.137-0.725,0.059l-0.538,0.538
	c-0.195,0.194-0.22,0.501-0.06,0.724l0.738,1.035c-0.248,0.411-0.436,0.86-0.554,1.34l-1.285,0.215
	c-0.271,0.047-0.47,0.277-0.47,0.555v0.762c0,0.274,0.199,0.51,0.47,0.555l1.285,0.215c0.096,0.394,0.237,0.771,0.425,1.119
	l-0.81,1.002c-0.173,0.213-0.165,0.521,0.017,0.727l0.505,0.568c0.182,0.205,0.486,0.248,0.72,0.104l1.101-0.691
	c0.47,0.318,0.995,0.554,1.562,0.69l0.213,1.278C43.279,55.802,43.516,56,43.79,56h0.763c0.274,0,0.508-0.198,0.553-0.469
	l0.215-1.278c0.476-0.117,0.923-0.304,1.332-0.551l1.076,0.769c0.223,0.159,0.529,0.135,0.725-0.061l0.535-0.537
	c0.193-0.193,0.222-0.5,0.062-0.725l-0.767-1.073c0.25-0.412,0.438-0.862,0.556-1.345l1.271-0.211
	c0.271-0.045,0.469-0.278,0.469-0.555v-0.762C50.578,48.93,50.381,48.697,50.109,48.65z M44.186,51.991
	c-1.33,0-2.406-1.077-2.406-2.405c0-1.329,1.076-2.404,2.406-2.404c1.328,0,2.403,1.075,2.403,2.404
	C46.589,50.914,45.514,51.991,44.186,51.991z"/>
</svg>
