<?xml version="1.0" encoding="utf-8"?>
<!-- Generator: Adobe Illustrator 16.0.0, SVG Export Plug-In . SVG Version: 6.00 Build 0)  -->
<!DOCTYPE svg PUBLIC "-//W3C//DTD SVG 1.1//EN" "http://www.w3.org/Graphics/SVG/1.1/DTD/svg11.dtd">
<svg version="1.1" id="Layer_1" xmlns="http://www.w3.org/2000/svg" xmlns:xlink="http://www.w3.org/1999/xlink" x="0px" y="0px"
	 width="50px" height="36px" viewBox="0 0 50 36" enable-background="new 0 0 50 36" xml:space="preserve">
<g>
	<path fill="#6A6A6A" d="M10.921,23.397l8.879-3.624c-1.221-0.813-2.347-1.578-3.124-3.93h-3.9l-7.699,3.156
		c0,0-1.256,0.515-1.256,1.722v1.435c0,0.79,0.293,1.92,1.082,1.92h5.146L10.921,23.397z"/>
	<path fill="#6A6A6A" d="M15.492,15.297c0,0,0.288-0.004,0.72-0.072c-0.201-0.619-0.366-1.289-0.468-2.023
		c-0.518,0.119-1.062-0.005-1.483-0.334c-0.425-0.336-0.671-0.847-0.671-1.387c0-3.191,1.129-8.35,4.767-11.214
		c-0.839-0.364-1.811-0.595-2.984-0.595c-7.362,0-7.362,9.033-7.362,9.033c1.055-0.255,1.578-0.281,1.578-0.281
		C9.601,15.297,15.492,15.297,15.492,15.297z"/>
	<path fill="#6A6A6A" d="M34.271,20.238l0.477,0.34c0.012-0.005,0.021-0.009,0.031-0.015l0.103-0.45
		c0.198-1.204,1.235-1.918,2.463-1.918h0.992c1.219,0,2.253,0.71,2.459,1.914l0.103,0.534c0.166,0.067,0.328,0.099,0.489,0.179
		l0.512-0.343c0.98-0.623,2.403-0.44,3.19,0.445l0.657,0.734c0.174,0.195,0.303,0.41,0.405,0.636
		c0.007-0.047,0.015-0.097,0.015-0.142v-1.438c0-1.185-1.431-1.718-1.431-1.718l-7.876-3.158h-3.712
		c-0.886,2.354-2.229,3.455-3.653,4.269l1.38,0.568l0.174-0.177C31.902,19.656,33.303,19.546,34.271,20.238z"/>
	<path fill="#6A6A6A" d="M36.231,11.165c0.019,0.103,0.026,0.331,0.026,0.437c0,0.974-0.79,1.889-1.765,1.889
		c-0.009,0-0.02,0-0.024,0c-0.129,0-0.263-0.14-0.391-0.168c-0.09,0.658-0.233,1.191-0.404,1.756
		c0.907,0.277,1.605,0.252,1.605,0.252s5.903-0.019,5.903-6.888c0.692,0.007,1.58,0.264,1.58,0.264s0-9.031-7.604-9.031
		c-1.416,0-2.56,0.337-3.483,0.878C35.025,3.369,36.158,8.066,36.231,11.165z"/>
	<path fill="#6A6A6A" d="M27.346,28.478v-0.993c0-1.226,1.064-2.263,2.273-2.463l0.712-0.104c0.004-0.007,0.054-0.01,0.055-0.02
		l-0.321-0.479c-0.423-0.605-0.534-1.175-0.387-1.842l-2.747-0.857h-5.488l-9.987,3.508c0,0-1.754,0.137-1.754,1.681v1.83
		c0,1.008,0.672,2.393,1.683,2.393h17.481C28.168,29.955,27.346,29.348,27.346,28.478z"/>
	<path fill="#6A6A6A" d="M17.369,11.2c0.018,8.78,7.542,8.78,7.542,8.78s7.54,0,7.54-8.773c0.884,0.006,2.019,0.345,2.019,0.345
		s0-11.532-9.713-11.532c-9.403,0-9.403,11.537-9.403,11.537C16.7,11.232,17.369,11.2,17.369,11.2z"/>
	<path id="settings_6_" fill="#50B44D" d="M45.568,26.763l-1.654-0.276c-0.119-0.49-0.296-0.963-0.525-1.4l1.062-1.312
		c0.227-0.275,0.214-0.678-0.021-0.945l-0.659-0.74c-0.236-0.266-0.636-0.322-0.935-0.133l-1.416,0.888
		c-0.62-0.435-1.327-0.755-2.084-0.943l-0.277-1.661c-0.062-0.354-0.365-0.61-0.72-0.61h-0.991c-0.358,0-0.665,0.257-0.722,0.61
		L36.347,21.9c-0.63,0.157-1.22,0.406-1.755,0.73l-1.346-0.96c-0.288-0.205-0.688-0.172-0.942,0.078l-0.697,0.703
		c-0.254,0.251-0.287,0.649-0.081,0.942l0.962,1.348c-0.322,0.534-0.57,1.119-0.722,1.74l-1.673,0.282
		c-0.353,0.057-0.609,0.363-0.609,0.72v0.993c0,0.355,0.257,0.659,0.609,0.719l1.673,0.276c0.127,0.516,0.312,1.004,0.551,1.457
		l-1.05,1.303c-0.228,0.276-0.216,0.68,0.021,0.943l0.655,0.743c0.24,0.269,0.636,0.325,0.938,0.134l1.435-0.9
		c0.609,0.413,1.297,0.718,2.035,0.897l0.277,1.666c0.059,0.354,0.365,0.611,0.721,0.611h0.992c0.355,0,0.658-0.258,0.718-0.611
		l0.279-1.666c0.617-0.151,1.2-0.394,1.734-0.715l1.401,1.003c0.289,0.21,0.69,0.176,0.943-0.078l0.7-0.699
		c0.25-0.255,0.287-0.651,0.077-0.944l-1.001-1.399c0.325-0.532,0.572-1.119,0.724-1.745l1.656-0.275
		c0.355-0.06,0.611-0.363,0.611-0.717v-0.995C46.182,27.127,45.924,26.819,45.568,26.763z M37.854,31.112
		c-1.729,0-3.131-1.406-3.131-3.135c0-1.726,1.402-3.13,3.131-3.13c1.732,0,3.134,1.404,3.134,3.13
		C40.988,29.706,39.587,31.112,37.854,31.112z"/>
</g>
</svg>
