<?xml version="1.0" encoding="utf-8"?>
<!-- Generator: Adobe Illustrator 15.1.0, SVG Export Plug-In . SVG Version: 6.00 Build 0)  -->
<!DOCTYPE svg PUBLIC "-//W3C//DTD SVG 1.1//EN" "http://www.w3.org/Graphics/SVG/1.1/DTD/svg11.dtd">
<svg version="1.1" id="Layer_1" xmlns="http://www.w3.org/2000/svg" xmlns:xlink="http://www.w3.org/1999/xlink" x="0px" y="0px"
	 width="36px" height="36px" viewBox="13.49 0 36 36" enable-background="new 13.49 0 36 36" xml:space="preserve">
<path fill="#6A6A6A" d="M25.839,25.103l7.37-7.371c0.516-0.508,1.183-0.781,1.889-0.781h4.68c0.063-3.634,0.063-5.17,0.063-5.17
	l3.547,4.329c0,0,0.841,0.083,3.109-2.083c2.237-2.136,1.966-3.068,1.966-3.068s-4.202-5.753-5.075-6.627
	c-0.849-0.854-3.669-2.586-7.536-3.286c-0.109-0.019-0.213-0.032-0.248-0.013c-0.056,0.031-0.07,0.036-0.07,0.166
	c0,0.612-0.327,2.364-4.043,2.365c-3.717-0.001-4.045-1.753-4.045-2.365c0-0.13-0.015-0.135-0.069-0.166
	c-0.036-0.02-0.14-0.006-0.25,0.013c-3.866,0.7-6.687,2.433-7.534,3.286c-0.875,0.874-5.076,6.627-5.076,6.627
	s-0.271,0.933,1.965,3.068c2.27,2.166,3.111,2.083,3.111,2.083l3.545-4.329c0,0,0,2.189,0.111,7.561
	c0.107,5.367,0.709,8.437,0.709,8.437c0.366,0.245,0.9,0.44,1.511,0.6C24.841,27.35,24.961,25.991,25.839,25.103z"/>
<path id="delete_2_" fill="#C42527" d="M47.816,18.951H35.098c-0.178,0-0.349,0.071-0.475,0.195l-7.362,7.363
	c-0.26,0.263-0.26,0.686,0,0.947l7.362,7.363c0.126,0.125,0.297,0.195,0.475,0.195h12.719c0.369,0,0.667-0.301,0.667-0.671V19.619
	C48.483,19.251,48.186,18.951,47.816,18.951z M45.591,31.092l-1.028,1.026c-0.282,0.285-0.74,0.285-1.027,0l-3.083-3.082
	l-3.084,3.084c-0.284,0.285-0.743,0.285-1.029,0l-1.027-1.028c-0.285-0.286-0.281-0.744,0-1.026l3.087-3.085l-3.089-3.083
	c-0.283-0.285-0.283-0.747,0-1.028l1.028-1.027c0.287-0.284,0.744-0.284,1.026,0l3.088,3.082l3.083-3.082
	c0.285-0.284,0.745-0.284,1.027,0l1.028,1.027c0.285,0.281,0.285,0.742,0,1.028l-3.084,3.083l3.084,3.082
	C45.877,30.347,45.877,30.806,45.591,31.092z"/>
</svg>
