<?xml version="1.0" encoding="UTF-8" standalone="no"?>
<!-- Generator: Adobe Illustrator 14.0.0, SVG Export Plug-In . SVG Version: 6.00 Build 43363)  -->

<svg
   xmlns:dc="http://purl.org/dc/elements/1.1/"
   xmlns:cc="http://creativecommons.org/ns#"
   xmlns:rdf="http://www.w3.org/1999/02/22-rdf-syntax-ns#"
   xmlns:svg="http://www.w3.org/2000/svg"
   xmlns="http://www.w3.org/2000/svg"
   xmlns:sodipodi="http://sodipodi.sourceforge.net/DTD/sodipodi-0.dtd"
   xmlns:inkscape="http://www.inkscape.org/namespaces/inkscape"
   version="1.1"
   id="Capa_1"
   x="0px"
   y="0px"
   width="80"
   height="80"
   viewBox="0 0 80 80"
   enable-background="new 0 0 36 36"
   xml:space="preserve"
   inkscape:version="0.48.4 r9939"
   sodipodi:docname="longomatch-plugin.svg"><metadata
     id="metadata15"><rdf:RDF><cc:Work
         rdf:about=""><dc:format>image/svg+xml</dc:format><dc:type
           rdf:resource="http://purl.org/dc/dcmitype/StillImage" /></cc:Work></rdf:RDF></metadata><defs
     id="defs13" /><sodipodi:namedview
     pagecolor="#ffffff"
     bordercolor="#666666"
     borderopacity="1"
     objecttolerance="10"
     gridtolerance="10"
     guidetolerance="10"
     inkscape:pageopacity="0"
     inkscape:pageshadow="2"
     inkscape:window-width="1600"
     inkscape:window-height="845"
     id="namedview11"
     showgrid="false"
     inkscape:zoom="9.5243411"
     inkscape:cx="18"
     inkscape:cy="22.199766"
     inkscape:window-x="0"
     inkscape:window-y="27"
     inkscape:window-maximized="1"
     inkscape:current-layer="Capa_1" /><g
     id="g2992"
     transform="matrix(1.8070112,0,0,1.784305,7.4737983,-68.907732)"><path
       style="fill:#6a6a6a"
       inkscape:connector-curvature="0"
       id="path3"
       d="m 34.602,71.634 c 0,2.195 -1.779,3.974 -3.975,3.974 H 5.373 c -2.195,0 -3.975,-1.778 -3.975,-3.974 V 56.676 c 0,-2.195 1.779,-3.974 3.975,-3.974 h 25.254 c 2.195,0 3.975,1.778 3.975,3.974 v 14.958 z" /><g
       transform="translate(0,44)"
       id="g5"><path
         style="fill:#6a6a6a"
         inkscape:connector-curvature="0"
         id="path7"
         d="m 14.105,3.498 c 0,-0.571 -0.462,-1.033 -1.033,-1.033 h -5.55 c -0.571,0 -1.033,0.462 -1.033,1.033 v 3.931 h 7.617 V 3.498 z" /><path
         style="fill:#6a6a6a"
         inkscape:connector-curvature="0"
         id="path9"
         d="m 29.48,3.498 c 0,-0.571 -0.463,-1.033 -1.033,-1.033 h -5.551 c -0.57,0 -1.033,0.462 -1.033,1.033 V 7.429 H 29.48 V 3.498 z" /></g></g></svg>