<?xml version="1.0" encoding="UTF-8" standalone="no"?>
<!-- Generator: Adobe Illustrator 15.1.0, SVG Export Plug-In . SVG Version: 6.00 Build 0)  -->

<svg
   xmlns:dc="http://purl.org/dc/elements/1.1/"
   xmlns:cc="http://creativecommons.org/ns#"
   xmlns:rdf="http://www.w3.org/1999/02/22-rdf-syntax-ns#"
   xmlns:svg="http://www.w3.org/2000/svg"
   xmlns="http://www.w3.org/2000/svg"
   xmlns:sodipodi="http://sodipodi.sourceforge.net/DTD/sodipodi-0.dtd"
   xmlns:inkscape="http://www.inkscape.org/namespaces/inkscape"
   version="1.1"
   id="Layer_1"
   x="0px"
   y="0px"
   width="18"
   height="18"
   viewBox="0 0 18 18"
   enable-background="new 0 0 47 37"
   xml:space="preserve"
   inkscape:version="0.48.4 r9939"
   sodipodi:docname="longomatch-tab-player.svg"><metadata
     id="metadata9"><rdf:RDF><cc:Work
         rdf:about=""><dc:format>image/svg+xml</dc:format><dc:type
           rdf:resource="http://purl.org/dc/dcmitype/StillImage" /><dc:title /></cc:Work></rdf:RDF></metadata><defs
     id="defs7" /><sodipodi:namedview
     pagecolor="#ffffff"
     bordercolor="#666666"
     borderopacity="1"
     objecttolerance="10"
     gridtolerance="10"
     guidetolerance="10"
     inkscape:pageopacity="0"
     inkscape:pageshadow="2"
     inkscape:window-width="1167"
     inkscape:window-height="578"
     id="namedview5"
     showgrid="false"
     inkscape:zoom="17.828626"
     inkscape:cx="23.5"
     inkscape:cy="18.5"
     inkscape:window-x="0"
     inkscape:window-y="27"
     inkscape:window-maximized="0"
     inkscape:current-layer="Layer_1" /><path
     d="m 8.9998102,2.8600622 c -1.9692404,0 -2.1428235,-0.9378259 -2.1428235,-1.2661077 0,-0.069675 -0.00758,-0.071384 -0.037076,-0.088482 -0.018959,-0.010686 -0.073309,-0.00342 -0.1322938,0.00641 C 4.6391685,1.886758 3.1443321,2.8138975 2.6947857,3.2712693 2.2317572,3.7393274 0.00551261,6.8199615 0.00551261,6.8199615 c 0,0 -0.1440908,0.4992618 1.04107689,1.6431187 1.2020204,1.1596725 1.6481962,1.1147907 1.6481962,1.1147907 L 4.5734429,7.2598077 c 0,0 0,1.1737785 0.058984,4.0488083 0.057299,2.874603 0.3753944,4.517294 0.3753944,4.517294 C 5.9621067,16.470506 9.0002307,16.5 9.0002307,16.5 c 0,0 3.0372813,-0.02949 3.9915673,-0.67409 0,0 0.317673,-1.643118 0.375394,-4.517294 0.05814,-2.8750298 0.05814,-4.0488083 0.05814,-4.0488083 l 1.8795,2.3180632 c 0,0 0.446176,0.044884 1.648196,-1.1147907 1.185168,-1.1438569 1.041498,-1.6431187 1.041498,-1.6431187 0,0 -2.226666,-3.0806341 -2.689694,-3.5486922 C 14.855707,2.814325 13.360449,1.8871854 11.311158,1.511884 c -0.05814,-0.00983 -0.112492,-0.017525 -0.131451,-0.00641 -0.02991,0.01667 -0.03792,0.018808 -0.03792,0.088482 0,0.3282818 -0.17274,1.2661077 -2.1419803,1.2661077 z"
     id="path3"
     inkscape:connector-curvature="0"
     style="fill:#6a6a6a" /></svg>