<?xml version="1.0" encoding="utf-8"?>
<!-- Generator: Adobe Illustrator 15.1.0, SVG Export Plug-In . SVG Version: 6.00 Build 0)  -->
<!DOCTYPE svg PUBLIC "-//W3C//DTD SVG 1.1//EN" "http://www.w3.org/Graphics/SVG/1.1/DTD/svg11.dtd">
<svg version="1.1" id="Layer_1" xmlns="http://www.w3.org/2000/svg" xmlns:xlink="http://www.w3.org/1999/xlink" x="0px" y="0px"
	 width="50px" height="36px" viewBox="0 0 50 36" enable-background="new 0 0 50 36" xml:space="preserve">
<g>
	<path fill="#6A6A6A" d="M23.207,26.405c0-1.332,0.953-2.456,2.265-2.674l0.172-0.029l-0.079-0.11
		c-0.774-1.086-0.65-2.555,0.293-3.494l0.678-0.678c0.91-0.915,2.446-1.041,3.498-0.281l0.111,0.079l0.03-0.182
		c0.205-1.303,1.329-2.264,2.671-2.264h0.015c0.061-3.467,0.061-4.935,0.061-4.935l3.498,4.252c0,0,0.83,0.083,3.067-2.045
		c2.205-2.099,1.938-3.015,1.938-3.015S37.28,5.379,36.42,4.52c-0.837-0.838-3.619-2.539-7.433-3.227
		c-0.107-0.018-0.209-0.032-0.244-0.012c-0.057,0.031-0.07,0.035-0.07,0.163c0,0.602-0.323,2.322-3.987,2.323
		c-3.665-0.001-3.988-1.721-3.988-2.323c0-0.127-0.014-0.132-0.07-0.163c-0.035-0.02-0.136-0.006-0.245,0.012
		c-3.813,0.688-6.595,2.389-7.432,3.227c-0.861,0.859-5.004,6.51-5.004,6.51s-0.268,0.916,1.938,3.015
		c2.237,2.128,3.066,2.045,3.066,2.045l3.497-4.252c0,0,0,2.152,0.11,7.427c0.106,5.272,0.699,8.288,0.699,8.288
		c1.287,0.855,4.604,1.119,6.335,1.199c-0.242-0.407-0.385-0.879-0.385-1.385V26.405z"/>
	<path fill="#6A6A6A" d="M14.647,16.966l-0.744,0.905l-0.964,0.085c-1.109,0-2.529-0.837-4.34-2.56
		c-0.44-0.419-0.806-0.812-1.114-1.183c0.008,0.87,0.028,2.347,0.074,4.562c0.08,3.938,0.522,6.189,0.522,6.189
		c1.326,0.882,5.548,0.923,5.548,0.923s0.637-0.008,1.49-0.065c-0.174-1.47-0.369-3.673-0.428-6.521
		C14.674,18.441,14.66,17.663,14.647,16.966z"/>
	<path fill="#6A6A6A" d="M6.155,10.506l0.092-0.314l0.194-0.265C6.88,9.328,8.427,7.226,9.754,5.501
		C7.253,6.076,5.44,7.19,4.867,7.766c-0.644,0.643-3.737,4.861-3.737,4.861s-0.201,0.684,1.447,2.251
		c1.671,1.59,2.291,1.526,2.291,1.526l2.221-2.699C6.021,12.236,5.957,11.185,6.155,10.506z"/>
	<path fill="#6A6A6A" d="M36.559,19.478c0.067,0.029,0.134,0.06,0.2,0.09l0.363-0.228c1.054-0.672,2.613-0.468,3.469,0.499
		l0.637,0.715c0.221,0.249,0.384,0.528,0.498,0.822c0.052-0.759,0.095-1.627,0.114-2.601c0.045-2.244,0.065-3.729,0.075-4.594
		c-0.313,0.38-0.69,0.784-1.142,1.215c-1.811,1.723-3.23,2.56-4.339,2.56l-0.197-0.009l-0.218-0.021
		c0.229,0.323,0.396,0.694,0.466,1.108L36.559,19.478z"/>
	<path fill="#6A6A6A" d="M48.27,12.627c0,0-3.095-4.219-3.738-4.861c-0.575-0.579-2.401-1.698-4.92-2.272
		C40.94,7.22,42.49,9.327,42.93,9.927l0.193,0.265l0.093,0.314c0.198,0.676,0.134,1.723-0.919,3.181l2.234,2.717
		c0,0,0.62,0.063,2.291-1.526C48.47,13.311,48.27,12.627,48.27,12.627z"/>
</g>
<path id="settings_2_" fill="#50B44D" d="M40.842,25.704l-1.608-0.269c-0.115-0.477-0.288-0.934-0.51-1.359l1.03-1.275
	c0.218-0.27,0.208-0.659-0.021-0.917l-0.642-0.721c-0.229-0.26-0.615-0.315-0.907-0.129l-1.376,0.863
	c-0.604-0.423-1.29-0.734-2.027-0.915l-0.269-1.616c-0.058-0.342-0.354-0.594-0.701-0.594h-0.965c-0.347,0-0.645,0.252-0.698,0.594
	l-0.271,1.616c-0.611,0.149-1.183,0.391-1.707,0.709l-1.308-0.932c-0.281-0.203-0.668-0.172-0.913,0.074l-0.681,0.681
	c-0.246,0.245-0.277,0.633-0.076,0.915l0.935,1.31c-0.314,0.519-0.552,1.088-0.702,1.695l-1.626,0.27
	c-0.341,0.057-0.593,0.353-0.593,0.701v0.962c0,0.349,0.251,0.645,0.593,0.701l1.626,0.271c0.123,0.497,0.3,0.974,0.537,1.415
	l-1.023,1.269c-0.219,0.269-0.209,0.658,0.022,0.917l0.639,0.721c0.229,0.259,0.616,0.314,0.91,0.129l1.393-0.876
	c0.591,0.404,1.259,0.701,1.975,0.875l0.271,1.618C32.202,34.748,32.5,35,32.847,35h0.965c0.348,0,0.644-0.252,0.701-0.593
	l0.269-1.618c0.603-0.147,1.168-0.383,1.686-0.695l1.362,0.972c0.28,0.2,0.669,0.171,0.913-0.077l0.683-0.68
	c0.243-0.246,0.277-0.632,0.074-0.914l-0.969-1.359c0.314-0.521,0.554-1.091,0.703-1.7l1.608-0.267
	c0.342-0.057,0.593-0.353,0.593-0.701v-0.962C41.435,26.057,41.184,25.761,40.842,25.704z M33.346,29.93
	c-1.68,0-3.042-1.364-3.042-3.044s1.362-3.042,3.042-3.042c1.683,0,3.044,1.362,3.044,3.042S35.028,29.93,33.346,29.93z"/>
</svg>
