<?xml version="1.0" encoding="utf-8"?>
<!-- Generator: Adobe Illustrator 16.0.0, SVG Export Plug-In . SVG Version: 6.00 Build 0)  -->
<!DOCTYPE svg PUBLIC "-//W3C//DTD SVG 1.1//EN" "http://www.w3.org/Graphics/SVG/1.1/DTD/svg11.dtd">
<svg version="1.1" id="Layer_1" xmlns="http://www.w3.org/2000/svg" xmlns:xlink="http://www.w3.org/1999/xlink" x="0px" y="0px"
	 width="36px" height="36px" viewBox="0 0 36 36" enable-background="new 0 0 36 36" xml:space="preserve">
<g>
	<path fill="#6A6A6A" d="M20.379,23.582H25v-0.174l-7.668-2.826h-4.664l-8.332,3.17c0,0-1.336,0.303-1.336,1.615v1.557
		c0,0.857,0.259,0.658,1.117,0.658H18V26.76C18,25.469,19.088,23.582,20.379,23.582z"/>
	<path fill="#6A6A6A" d="M15.617,19.477c0,0,6.408,0,6.408-7.46c0.752,0.006,1.717,0.293,1.717,0.293s0-9.803-8.258-9.803
		c-7.994,0-7.994,9.807-7.994,9.807c1.146-0.275,1.714-0.303,1.714-0.303C9.219,19.477,15.617,19.477,15.617,19.477z"/>
	<path id="lock-unlocked" fill-rule="evenodd" clip-rule="evenodd" fill="#50B44D" d="M29.635,20.027
		c-1.858,0-3.365,1.508-3.365,3.367v2.523h-3.366h-1.683h-0.842c-0.465,0-0.842,0.377-0.842,0.842v5.889
		c0,0.467,0.377,0.844,0.842,0.844h8.414c0.465,0,0.842-0.377,0.842-0.844V26.76c0-0.465-0.377-0.842-0.842-0.842h-0.841v-2.523
		c0-0.93,0.754-1.684,1.683-1.684c0.93,0,1.683,0.754,1.683,1.684v3.365H33v-3.365C33,21.535,31.493,20.027,29.635,20.027z"/>
</g>
</svg>
