<?xml version="1.0" encoding="utf-8"?>
<!-- Generator: Adobe Illustrator 15.1.0, SVG Export Plug-In . SVG Version: 6.00 Build 0)  -->
<!DOCTYPE svg PUBLIC "-//W3C//DTD SVG 1.1//EN" "http://www.w3.org/Graphics/SVG/1.1/DTD/svg11.dtd">
<svg version="1.1" id="Layer_1" xmlns="http://www.w3.org/2000/svg" xmlns:xlink="http://www.w3.org/1999/xlink" x="0px" y="0px"
	 width="36px" height="36px" viewBox="13.49 0 36 36" enable-background="new 13.49 0 36 36" xml:space="preserve">
<path id="plus_12_" fill="#6A6A6A" d="M1730.626,833.451c-0.297,0-0.535-0.238-0.535-0.535v-5.23h-5.229
	c-0.297,0-0.537-0.24-0.537-0.535v-3.461c0-0.297,0.24-0.535,0.537-0.535h5.229v-5.23c0-0.299,0.238-0.537,0.535-0.537h3.461
	c0.296,0,0.536,0.238,0.536,0.537v5.23h5.229c0.297,0,0.537,0.238,0.537,0.535v3.461c0,0.295-0.24,0.535-0.537,0.535h-5.229v5.23
	c0,0.297-0.24,0.535-0.536,0.535H1730.626z"/>
<g>
	<path fill="#6A6A6A" d="M23.496,24.631l-0.156-0.819c-0.021-0.11-0.522-2.774-0.614-7.357c-0.002-0.084-0.003-0.162-0.005-0.244
		c-0.021,0-0.038,0.004-0.06,0.004c-1.057-0.001-1.527-0.307-1.74-0.613c-0.31-0.095-0.639-0.244-0.988-0.45
		c-1.485,0.39-2.549,1.073-2.901,1.433c-0.413,0.422-2.4,3.196-2.4,3.196s-0.127,0.449,0.93,1.477
		c1.074,1.041,1.47,1.003,1.47,1.003l1.677-2.087c0,0,0,1.057,0.053,3.644c0.052,2.585,0.336,4.066,0.336,4.066
		c0.85,0.577,3.563,0.604,3.563,0.604s2.709-0.026,3.562-0.604c0,0,0.139-0.742,0.239-2.065c-0.888-0.184-1.708-0.455-2.288-0.85
		L23.496,24.631z"/>
	<path fill="#6A6A6A" d="M48.178,17.1c0,0-2.111-2.947-2.921-3.929c-0.09,0.094-0.162,0.181-0.26,0.273
		c-1.575,1.535-2.843,2.281-3.873,2.281l-0.207-0.012L40.1,15.608c-0.005,0.27-0.011,0.539-0.017,0.832
		c-0.004,0.122-0.008,0.236-0.01,0.355h0.688c0.844,0,1.598,0.398,2.085,1.025c0.263,0.338,0.448,0.736,0.525,1.182l0.069,0.428
		c0.063,0.027,0.127,0.057,0.188,0.084l0.35-0.218c0.05-0.032,0.101-0.053,0.154-0.08c0.789-0.423,1.787-0.392,2.573,0.048
		c0.085-0.078,0.163-0.143,0.255-0.235C48.348,17.686,48.178,17.1,48.178,17.1z"/>
	<path fill="#6A6A6A" d="M43.649,11.999c1.825-1.773,1.604-2.549,1.604-2.549s-3.428-4.782-4.141-5.51
		c-0.689-0.708-2.992-2.147-6.148-2.729c-0.09-0.016-0.174-0.027-0.201-0.01c-0.047,0.024-0.059,0.028-0.059,0.136
		c-0.004,0.509-0.27,1.964-3.299,1.965c-3.032,0-3.3-1.456-3.3-1.965c0-0.108-0.011-0.112-0.058-0.138
		c-0.026-0.017-0.11-0.005-0.201,0.011c-3.156,0.582-5.456,2.021-6.149,2.729c-0.713,0.728-4.14,5.51-4.14,5.51
		s-0.224,0.775,1.603,2.549c1.851,1.801,2.537,1.731,2.537,1.731l2.893-3.597c0,0,0,1.819,0.091,6.284
		c0.089,4.462,0.578,7.011,0.578,7.011c1.231,0.838,4.703,1.006,5.801,1.041c0.394-0.466,0.948-0.792,1.588-0.896l0.151-0.023
		l-0.07-0.101c-0.757-1.059-0.634-2.499,0.29-3.413l0.656-0.657c0.895-0.895,2.387-1.018,3.412-0.28l0.102,0.072l0.026-0.162
		c0.102-0.634,0.426-1.184,0.886-1.578c0.012-0.328,0.021-0.663,0.029-1.015c0.089-4.463,0.089-6.284,0.089-6.284l2.894,3.597
		C41.112,13.729,41.801,13.799,43.649,11.999z"/>
</g>
<path id="settings_1_" fill="#50B44B" d="M47.673,25.491l-1.582-0.265c-0.112-0.469-0.28-0.918-0.5-1.336l1.012-1.252
	c0.215-0.266,0.205-0.647-0.019-0.901l-0.632-0.708c-0.225-0.257-0.604-0.31-0.891-0.128l-1.353,0.848
	c-0.593-0.415-1.269-0.72-1.992-0.897l-0.264-1.589c-0.057-0.336-0.347-0.583-0.687-0.583h-0.948c-0.343,0-0.632,0.247-0.685,0.583
	l-0.266,1.589c-0.602,0.146-1.161,0.384-1.676,0.697l-1.286-0.917c-0.274-0.198-0.654-0.171-0.896,0.07l-0.668,0.673
	c-0.243,0.239-0.271,0.62-0.075,0.896l0.919,1.285c-0.31,0.51-0.544,1.071-0.689,1.665l-1.598,0.266
	c-0.336,0.055-0.583,0.346-0.583,0.688v0.947c0,0.34,0.247,0.63,0.583,0.688l1.598,0.265c0.12,0.488,0.294,0.956,0.527,1.39
	l-1.005,1.245c-0.216,0.265-0.206,0.647,0.021,0.9l0.626,0.709c0.228,0.256,0.605,0.308,0.894,0.128l1.367-0.86
	c0.583,0.396,1.239,0.687,1.938,0.858l0.268,1.589c0.051,0.338,0.344,0.584,0.685,0.584h0.948c0.342,0,0.632-0.246,0.688-0.584
	l0.265-1.589c0.592-0.144,1.147-0.376,1.655-0.684l1.339,0.955c0.274,0.198,0.657,0.168,0.897-0.075l0.67-0.668
	c0.239-0.24,0.271-0.618,0.073-0.896l-0.952-1.335c0.307-0.51,0.545-1.071,0.689-1.671l1.58-0.261
	c0.336-0.058,0.584-0.348,0.584-0.688v-0.947C48.254,25.836,48.008,25.545,47.673,25.491z M40.31,29.641
	c-1.65,0-2.989-1.34-2.989-2.991c0-1.65,1.337-2.988,2.989-2.988c1.651,0,2.99,1.338,2.99,2.988
	C43.3,28.301,41.961,29.641,40.31,29.641z"/>
</svg>
