<?xml version="1.0" encoding="utf-8"?>
<!-- Generator: Adobe Illustrator 15.1.0, SVG Export Plug-In . SVG Version: 6.00 Build 0)  -->
<!DOCTYPE svg PUBLIC "-//W3C//DTD SVG 1.1//EN" "http://www.w3.org/Graphics/SVG/1.1/DTD/svg11.dtd">
<svg version="1.1" id="Layer_1" xmlns="http://www.w3.org/2000/svg" xmlns:xlink="http://www.w3.org/1999/xlink" x="0px" y="0px"
	 width="20px" height="20px" viewBox="0 0 20 20" enable-background="new 0 0 20 20" xml:space="preserve">
<path fill="#6A6A6A" d="M10,17.301c-4.756,0-8.625-3.275-8.625-7.301c0-4.026,3.869-7.301,8.625-7.301S18.625,5.974,18.625,10
	C18.625,14.025,14.756,17.301,10,17.301z M10,3.545c-4.205,0-7.625,2.896-7.625,6.455c0,3.559,3.42,6.454,7.625,6.454
	c4.204,0,7.625-2.896,7.625-6.454C17.625,6.441,14.204,3.545,10,3.545z"/>
<linearGradient id="SVGID_1_" gradientUnits="userSpaceOnUse" x1="10.0005" y1="15.4746" x2="10.0005" y2="4.5254">
	<stop  offset="0" style="stop-color:#4A4A4A"/>
	<stop  offset="1" style="stop-color:#6A6A6A"/>
</linearGradient>
<ellipse fill="url(#SVGID_1_)" cx="10" cy="10" rx="6.478" ry="5.475"/>
</svg>
