<?xml version="1.0" encoding="utf-8"?>
<!-- Generator: Adobe Illustrator 16.0.0, SVG Export Plug-In . SVG Version: 6.00 Build 0)  -->
<!DOCTYPE svg PUBLIC "-//W3C//DTD SVG 1.1//EN" "http://www.w3.org/Graphics/SVG/1.1/DTD/svg11.dtd">
<svg version="1.1" id="Layer_1" xmlns="http://www.w3.org/2000/svg" xmlns:xlink="http://www.w3.org/1999/xlink" x="0px" y="0px"
	 width="48px" height="48px" viewBox="0 0 48 48" enable-background="new 0 0 48 48" xml:space="preserve">
<g>
	<g>
		<path id="folder_18_" fill-rule="evenodd" clip-rule="evenodd" fill="#50B44D" d="M2.726,46.882c-0.676,0-1.226-0.466-1.226-1.04
			v-25.07c0-0.577,0.549-1.043,1.226-1.043H17.9c0.465,0,0.889,0.224,1.098,0.578l2.112,3.6h18.382c0.68,0,1.226,0.467,1.226,1.045
			v20.892c0,0.574-0.546,1.04-1.226,1.04H2.726z"/>
	</g>
	<g>
		<path fill="#6A6A6A" d="M30.674,20.421h6.46c0.334,0,0.639,0.205,0.767,0.516c0.038,0.104,0.062,0.212,0.062,0.32
			c0,0.217-0.085,0.431-0.24,0.588L25.306,33.536c-0.162,0.16-0.375,0.243-0.584,0.243c-0.215,0-0.425-0.083-0.586-0.243
			L11.722,21.843c-0.16-0.157-0.242-0.371-0.242-0.588c0-0.108,0.02-0.216,0.062-0.32c0.127-0.31,0.428-0.516,0.763-0.516h6.462
			l0.86-18.036c0-0.457,0.371-0.833,0.826-0.833h8.278c0.454,0,0.827,0.377,0.827,0.833L30.674,20.421z"/>
	</g>
	<path id="folder_17_" fill-rule="evenodd" clip-rule="evenodd" fill="#6A6A6A" d="M2.854,47.084c-0.677,0-1.106-0.366-0.959-0.82
		l6.428-19.762c0.148-0.455,0.817-0.822,1.493-0.822h15.174c0.466,0,0.833,0.177,0.95,0.454l1.19,2.839h18.381
		c0.68,0,1.106,0.368,0.958,0.823l-5.356,16.468c-0.147,0.454-0.813,0.82-1.492,0.82H2.854z"/>
	<path fill="#50B44D" d="M40.719,28.986h-13.78l-1.308-3.118c-0.035-0.086-0.226-0.176-0.507-0.176H9.808v-0.876h15.316
		c0.668,0,1.201,0.282,1.392,0.736l1.071,2.558h13.132V28.986z"/>
	<path fill="#3B3B3C" d="M19.092,31.708c0.547-0.12,0.998-0.178,1.021-0.18l0.322-1.232L19.1,30.191l0.499-1.906
		c0,0,1.049-0.21,2.539-0.21c1.589,0,2.427,0.21,2.427,0.21l-0.499,1.906l-1.367,0.104l-0.322,1.233
		c0.027,0.002,0.316,0.025,0.932,0.176c0.615,0.15,0.914,0.271,0.914,0.271c2.708,1.039,4.157,3.533,3.397,6.446
		c-1.007,3.847-5.481,6.966-9.994,6.966c-2.262,0-4.104-0.787-5.252-2.052l1.979-1.661c0.784,0.988,2.135,1.613,3.821,1.613
		c3.154,0,6.279-2.177,6.982-4.864c0.703-2.687-1.283-4.865-4.437-4.865c-3.149,0-6.27,2.172-6.977,4.855h2.325l-4.521,3.795
		l-2.53-3.796h2.267c0.331-1.262,1.037-2.446,1.998-3.466l-0.932-0.733l-0.66,0.441l-1.21-0.956c0,0-0.012-0.306,0.949-1.194
		c0.733-0.677,1.442-0.864,1.442-0.864l1.212,0.952l-0.508,0.561l0.899,0.707c1.075-0.84,2.335-1.501,3.678-1.918
		C18.149,31.942,18.545,31.829,19.092,31.708z"/>
	<g>
		<g>
			<circle fill="#3B3B3C" cx="31.004" cy="9.138" r="8.222"/>
		</g>
		<g>
			<path id="settings_14_" fill="#50B44D" d="M28.938,4.987c-0.131,0.074-0.259,0.156-0.383,0.241l-1.067-0.672
				c-0.229-0.144-0.527-0.102-0.709,0.1l-0.497,0.561c-0.181,0.203-0.188,0.504-0.018,0.713l0.801,0.993
				c-0.172,0.332-0.304,0.686-0.396,1.059l-1.251,0.209c-0.267,0.043-0.463,0.273-0.463,0.544v0.748
				c0,0.272,0.196,0.501,0.463,0.546l1.249,0.208c0.117,0.473,0.302,0.918,0.548,1.323l-0.753,1.058
				c-0.159,0.22-0.132,0.519,0.059,0.71l0.53,0.53c0.189,0.191,0.492,0.215,0.71,0.058l1.059-0.755
				c0.403,0.244,0.846,0.426,1.313,0.542l0.211,1.258c0.044,0.267,0.272,0.461,0.544,0.461h0.75c0.269,0,0.501-0.194,0.545-0.461
				l0.209-1.258c0.557-0.138,1.077-0.368,1.535-0.682l1.086,0.683c0.229,0.144,0.527,0.101,0.707-0.101l0.497-0.563
				c0.18-0.201,0.188-0.502,0.018-0.711l-0.796-0.988c0.184-0.342,0.32-0.714,0.416-1.103l1.266-0.208
				c0.267-0.045,0.463-0.274,0.463-0.546V8.737c0-0.272-0.196-0.501-0.463-0.544L35.854,7.98c-0.113-0.473-0.304-0.916-0.545-1.318
				l0.726-1.02c0.158-0.219,0.133-0.519-0.057-0.711l-0.53-0.529c-0.191-0.193-0.492-0.216-0.711-0.061L33.72,5.069
				c-0.408-0.25-0.853-0.437-1.328-0.552l-0.207-1.258c-0.046-0.267-0.278-0.462-0.545-0.462h-0.751
				c-0.272,0-0.501,0.195-0.543,0.462l-0.211,1.258C29.708,4.622,29.308,4.78,28.938,4.987 M28.881,9.108
				c0-1.306,1.061-2.366,2.369-2.366c1.306,0,2.367,1.062,2.367,2.366c0,1.309-1.062,2.369-2.367,2.369
				C29.941,11.479,28.881,10.419,28.881,9.108z"/>
		</g>
	</g>
</g>
</svg>
