<?xml version="1.0" encoding="utf-8"?>
<!-- Generator: Adobe Illustrator 16.0.0, SVG Export Plug-In . SVG Version: 6.00 Build 0)  -->
<!DOCTYPE svg PUBLIC "-//W3C//DTD SVG 1.1//EN" "http://www.w3.org/Graphics/SVG/1.1/DTD/svg11.dtd">
<svg version="1.1" id="Layer_1" xmlns="http://www.w3.org/2000/svg" xmlns:xlink="http://www.w3.org/1999/xlink" x="0px" y="0px"
	 width="36px" height="36px" viewBox="0 0 36 36" enable-background="new 0 0 36 36" xml:space="preserve">
<path id="plus_12_" fill="#6A6A6A" d="M1730.626,833.451c-0.297,0-0.535-0.238-0.535-0.535v-5.23h-5.229
	c-0.298,0-0.537-0.239-0.537-0.534v-3.461c0-0.298,0.239-0.535,0.537-0.535h5.229v-5.23c0-0.299,0.238-0.537,0.535-0.537h3.461
	c0.296,0,0.536,0.238,0.536,0.537v5.23h5.229c0.298,0,0.537,0.237,0.537,0.535v3.461c0,0.295-0.239,0.534-0.537,0.534h-5.229v5.23
	c0,0.297-0.24,0.535-0.536,0.535H1730.626z"/>
<g>
	<path fill="none" d="M5.5,23.946c2-0.803,4-1.508,5-2.307V6.816c-1,0.803-3,1.602-5,2.402C5.5,15.406,5.5,17.761,5.5,23.946z"/>
	<path fill="#6A6A6A" d="M18.5,25.585c0-0.414,0.231-0.797,0.451-1.115c-2.495-1.139-6.451-3.088-6.451-3.105V6.576
		c3,1.006,8,3.031,8,3.051v13.496c0-0.082,0.187,0,0.433,0H22.5V9.462c1-0.785,3-1.57,5-2.359c0,4.623,0,7.02,0,11.019h0.918
		c1.085,0,2.082,0.764,2.082,1.85v3.15h0.904c0.031,0,0.096,0.121,0.096-0.109c0-0.936,0-11.21,0-18.687
		c0-1.072-0.368-1.312-0.902-1.686c-0.494-0.291-1.428-0.178-1.821-0.014c-2.607,1.098-4.992,2.479-7.599,3.576
		c-2.655-1.098-5.543-2.479-8.199-3.576c-0.301-0.125-0.597-0.166-0.88-0.16c-0.27-0.006-0.555,0.035-0.845,0.16
		C8.347,3.875,5.417,5.119,2.507,6.363C1.744,6.691,1.5,7.121,1.5,8.064s0,17.751,0,18.685s0.678,1.541,1.357,1.721
		c0.457,0.186,0.999,0.215,1.549-0.023c2.625-1.125,4.791-2.148,7.416-3.273c2.264,0.971,4.631,1.869,6.991,2.818
		c-0.049-0.17-0.312-0.348-0.312-0.533V25.585z M10.5,21.64c-1,0.799-3,1.504-5,2.307c0-6.185,0-8.541,0-14.728
		c2-0.801,4-1.6,5-2.402V21.64z"/>
	<path id="plus_4_" fill="#50B44D" d="M26.547,33.54c-0.259,0-0.469-0.211-0.469-0.469v-5.146h-5.146
		c-0.26,0-0.468-0.209-0.468-0.467v-1.873c0-0.258,0.208-0.467,0.468-0.467h5.146v-5.146c0-0.258,0.21-0.469,0.469-0.469h1.871
		c0.259,0,0.469,0.211,0.469,0.469v5.146h5.146c0.258,0,0.467,0.209,0.467,0.467v1.873c0,0.258-0.209,0.467-0.467,0.467h-5.146
		v5.146c0,0.258-0.21,0.469-0.469,0.469H26.547z"/>
</g>
</svg>
