<?xml version="1.0" encoding="utf-8"?>
<!-- Generator: Adobe Illustrator 16.0.0, SVG Export Plug-In . SVG Version: 6.00 Build 0)  -->
<!DOCTYPE svg PUBLIC "-//W3C//DTD SVG 1.1//EN" "http://www.w3.org/Graphics/SVG/1.1/DTD/svg11.dtd">
<svg version="1.1" id="Layer_1" xmlns="http://www.w3.org/2000/svg" xmlns:xlink="http://www.w3.org/1999/xlink" x="0px" y="0px"
	 width="48px" height="48px" viewBox="0 0 48 48" enable-background="new 0 0 48 48" xml:space="preserve">
<g>
	<path fill="#6B6A6A" d="M13.155,37.424l-0.214-1.123c-0.031-0.151-0.714-3.803-0.839-10.084c-0.004-0.114-0.006-0.222-0.008-0.334
		c-0.032,0-0.05,0.004-0.083,0.004c-1.445-0.002-2.092-0.42-2.384-0.839c-0.425-0.131-0.876-0.334-1.355-0.619
		c-2.035,0.535-3.497,1.472-3.978,1.964C3.73,26.97,1.006,30.77,1.006,30.77s-0.173,0.616,1.275,2.025
		c1.469,1.432,2.012,1.376,2.012,1.376l2.3-2.856c0,0,0,1.445,0.071,4.99c0.07,3.545,0.461,5.574,0.461,5.574
		c1.166,0.792,4.884,0.829,4.884,0.829s3.715-0.037,4.885-0.829c0,0,0.189-1.017,0.327-2.83c-1.218-0.255-2.343-0.623-3.138-1.166
		L13.155,37.424z"/>
	<path fill="#50B44D" d="M46.991,27.099c0,0-2.896-4.039-4.004-5.384c-0.123,0.129-0.224,0.247-0.354,0.376
		c-2.162,2.105-3.9,3.125-5.315,3.125l-0.281-0.013l-1.12-0.146c-0.008,0.37-0.013,0.739-0.021,1.139
		c-0.125,6.283-0.812,9.908-0.843,10.063l-0.215,1.074l-0.93,0.547c-1.861,1.27-5.534,1.605-7.971,1.69
		c0.145,1.326,0.279,2.05,0.279,2.05c1.524,1.038,6.39,1.087,6.39,1.087s4.86-0.049,6.386-1.087c0,0,0.508-2.648,0.599-7.285
		c0.094-4.635,0.094-6.526,0.094-6.526l3.003,3.735c0,0,0.718,0.073,2.641-1.797C47.226,27.903,46.991,27.099,46.991,27.099z"/>
	<path fill="#6B6A6A" d="M23.997,8.185c-4.158,0-4.522-1.994-4.522-2.693c0-0.15-0.017-0.154-0.08-0.189
		c-0.037-0.023-0.154-0.007-0.279,0.015c-4.325,0.799-7.475,2.771-8.425,3.741c-0.978,0.997-5.676,7.553-5.676,7.553
		s-0.305,1.061,2.199,3.496c2.537,2.469,3.477,2.371,3.477,2.371l3.964-4.93c0,0,0,2.494,0.125,8.612
		c0.119,6.118,0.788,9.611,0.788,9.611c2.017,1.372,8.429,1.437,8.429,1.437s6.418-0.064,8.428-1.437c0,0,0.667-3.493,0.791-9.611
		c0.124-6.118,0.124-8.612,0.124-8.612l3.963,4.93c0,0,0.944,0.098,3.479-2.371c2.503-2.436,2.2-3.496,2.2-3.496
		s-4.699-6.557-5.68-7.553c-0.943-0.971-4.103-2.942-8.426-3.741c-0.121-0.022-0.239-0.038-0.279-0.015
		c-0.061,0.035-0.075,0.039-0.075,0.189C28.517,6.19,28.15,8.185,23.997,8.185z"/>
</g>
</svg>
