<?xml version="1.0" encoding="utf-8"?>
<!-- Generator: Adobe Illustrator 14.0.0, SVG Export Plug-In . SVG Version: 6.00 Build 43363)  -->
<!DOCTYPE svg PUBLIC "-//W3C//DTD SVG 1.1//EN" "http://www.w3.org/Graphics/SVG/1.1/DTD/svg11.dtd">
<svg version="1.1" id="Capa_1" xmlns="http://www.w3.org/2000/svg" xmlns:xlink="http://www.w3.org/1999/xlink" x="0px" y="0px"
	 width="36px" height="36px" viewBox="0 0 36 36" enable-background="new 0 0 36 36" xml:space="preserve">
<path fill="#333333" d="M29.447,14.632l-0.248-0.642c-1.547-4.009-5.16-6.711-9.371-7.095l-0.002,2.869
	c4.105,0.496,7.297,4.001,7.297,8.236c0,2.217-0.863,4.3-2.43,5.866c-1.33,1.329-3.029,2.152-4.865,2.37l-0.002,2.868
	c2.588-0.236,4.988-1.359,6.848-3.219c1.107-1.106,1.955-2.402,2.518-3.854l0.246-0.638H35v-6.764H29.447z"/>
<path fill="#252627" d="M16.784,11.705V6.893c-2.601,0.229-5.017,1.354-6.885,3.222c-1.106,1.106-1.953,2.403-2.516,3.854
	l-0.247,0.638H1.001L1,21.37l6.128,0.001l0.247,0.641c1.526,3.958,5.23,6.714,9.409,7.096v-4.81h1c1.683,0,3.263-0.655,4.452-1.845
	s1.844-2.77,1.844-4.452c0-3.471-2.824-6.295-6.296-6.296H16.784z"/>
</svg>
