<?xml version="1.0" encoding="utf-8"?>
<!-- Generator: Adobe Illustrator 15.1.0, SVG Export Plug-In . SVG Version: 6.00 Build 0)  -->
<!DOCTYPE svg PUBLIC "-//W3C//DTD SVG 1.1//EN" "http://www.w3.org/Graphics/SVG/1.1/DTD/svg11.dtd">
<svg version="1.1" id="Layer_1" xmlns="http://www.w3.org/2000/svg" xmlns:xlink="http://www.w3.org/1999/xlink" x="0px" y="0px"
	 width="47px" height="37px" viewBox="0 0 47 37" enable-background="new 0 0 47 37" xml:space="preserve">
<path fill="#6A6A6A" d="M23.5,4.135c-4.674,0-5.086-2.194-5.086-2.962c0-0.163-0.018-0.167-0.088-0.207
	c-0.045-0.025-0.174-0.008-0.314,0.015c-4.862,0.877-8.41,3.046-9.477,4.116c-1.099,1.095-6.383,8.302-6.383,8.302
	s-0.342,1.168,2.471,3.844c2.853,2.713,3.912,2.608,3.912,2.608l4.459-5.423c0,0,0,2.746,0.14,9.472
	c0.136,6.725,0.891,10.568,0.891,10.568c2.265,1.508,9.476,1.577,9.476,1.577s7.209-0.069,9.474-1.577c0,0,0.754-3.844,0.891-10.568
	c0.138-6.726,0.138-9.472,0.138-9.472l4.461,5.423c0,0,1.059,0.105,3.912-2.608c2.813-2.676,2.472-3.844,2.472-3.844
	s-5.285-7.207-6.384-8.302c-1.066-1.069-4.615-3.238-9.479-4.116c-0.138-0.023-0.267-0.041-0.312-0.015
	c-0.071,0.039-0.09,0.044-0.09,0.207C28.584,1.941,28.174,4.135,23.5,4.135z"/>
</svg>
