<?xml version="1.0" encoding="utf-8"?>
<!-- Generator: Adobe Illustrator 16.2.0, SVG Export Plug-In . SVG Version: 6.00 Build 0)  -->
<!DOCTYPE svg PUBLIC "-//W3C//DTD SVG 1.1//EN" "http://www.w3.org/Graphics/SVG/1.1/DTD/svg11.dtd">
<svg version="1.1" id="Layer_1" xmlns="http://www.w3.org/2000/svg" xmlns:xlink="http://www.w3.org/1999/xlink" x="0px" y="0px"
	 width="22px" height="22px" viewBox="0 0 22 22" enable-background="new 0 0 22 22" xml:space="preserve">
<g>
	<linearGradient id="SVGID_1_" gradientUnits="userSpaceOnUse" x1="4.5063" y1="21.959" x2="4.5063" y2="20.8799">
		<stop  offset="0" style="stop-color:#B4B4B4"/>
		<stop  offset="0.3322" style="stop-color:#BDBDBD"/>
		<stop  offset="1" style="stop-color:#CDCCCC"/>
	</linearGradient>
	<path fill="url(#SVGID_1_)" d="M8.288,20.88c-0.223,0.015-0.678,0.029-0.676,0.044H0.875c-0.263,0-0.475,0.231-0.475,0.519
		c0,0.283,0.212,0.517,0.475,0.517h7.738c-0.206-0.258-0.333-0.579-0.333-0.934C8.28,20.976,8.287,20.93,8.288,20.88z"/>
	<linearGradient id="SVGID_2_" gradientUnits="userSpaceOnUse" x1="11.0005" y1="19.6436" x2="11.0005" y2="0.0063">
		<stop  offset="0" style="stop-color:#B4B4B4"/>
		<stop  offset="0.3322" style="stop-color:#BDBDBD"/>
		<stop  offset="1" style="stop-color:#CDCCCC"/>
	</linearGradient>
	<path fill="url(#SVGID_2_)" d="M21.453,0.006H0.546c-0.286,0-0.519,0.253-0.519,0.565v15.717c0,0.312,0.232,0.564,0.519,0.564
		h7.862v2.791c0.449-2.588,2.125-4.249,4.035-5.255H2.015c-0.286,0-0.52-0.255-0.52-0.565V1.906c0-0.311,0.232-0.565,0.52-0.565
		h17.97c0.285,0,0.518,0.253,0.518,0.565v10.547l1.471,1.611V0.571C21.972,0.259,21.739,0.006,21.453,0.006z"/>
	<linearGradient id="SVGID_3_" gradientUnits="userSpaceOnUse" x1="13.6943" y1="21.959" x2="13.6943" y2="20.3096">
		<stop  offset="0" style="stop-color:#B4B4B4"/>
		<stop  offset="0.3322" style="stop-color:#BDBDBD"/>
		<stop  offset="1" style="stop-color:#CDCCCC"/>
	</linearGradient>
	<path fill="url(#SVGID_3_)" d="M14.647,20.922c0.001-0.016-1.6-0.037-1.6-0.058V20.31c-1.347,0.364-1.719,0.832-1.784,0.934
		c-0.04,0.275-0.171,0.511-0.338,0.716h5.538c-0.282-0.281-0.462-0.639-0.521-1.037H14.647z"/>
	<linearGradient id="SVGID_4_" gradientUnits="userSpaceOnUse" x1="20.2354" y1="21.959" x2="20.2354" y2="20.9219">
		<stop  offset="0" style="stop-color:#B4B4B4"/>
		<stop  offset="0.3322" style="stop-color:#BDBDBD"/>
		<stop  offset="1" style="stop-color:#CDCCCC"/>
	</linearGradient>
	<path fill="url(#SVGID_4_)" d="M20.882,20.922h-0.805l-0.912,0.999c-0.015,0.016-0.034,0.023-0.05,0.038h1.767
		c0.261,0,0.474-0.23,0.474-0.517C21.355,21.155,21.143,20.922,20.882,20.922z"/>
	<linearGradient id="SVGID_5_" gradientUnits="userSpaceOnUse" x1="11.6035" y1="11.7861" x2="11.6035" y2="4.0786">
		<stop  offset="0" style="stop-color:#B4B4B4"/>
		<stop  offset="0.3322" style="stop-color:#BDBDBD"/>
		<stop  offset="1" style="stop-color:#CDCCCC"/>
	</linearGradient>
	<polygon fill="url(#SVGID_5_)" points="7.767,4.078 7.767,11.786 15.44,7.932 	"/>
</g>
<g>
	<linearGradient id="SVGID_6_" gradientUnits="userSpaceOnUse" x1="9.7798" y1="16.4551" x2="21.9727" y2="16.4551">
		<stop  offset="0" style="stop-color:#51B44B"/>
		<stop  offset="1" style="stop-color:#A1CD48"/>
	</linearGradient>
	<path fill="url(#SVGID_6_)" d="M21.822,16.125L18.058,12c-0.074-0.077-0.174-0.117-0.275-0.117c-0.048,0-0.097,0.008-0.143,0.027
		c-0.146,0.059-0.239,0.198-0.239,0.354v2.285c0,0-7.612,0.366-7.621,6.479c0.009-0.173,0.26-2.668,7.621-2.668v2.286
		c0,0.156,0.094,0.296,0.239,0.354c0.046,0.018,0.095,0.027,0.143,0.027c0.102,0,0.201-0.042,0.275-0.118l3.772-4.131
		c0.076-0.081,0.149-0.221,0.142-0.323C21.977,16.344,21.94,16.241,21.822,16.125z"/>
</g>
</svg>
