<?xml version="1.0" encoding="utf-8"?>
<!-- Generator: Adobe Illustrator 15.1.0, SVG Export Plug-In . SVG Version: 6.00 Build 0)  -->
<!DOCTYPE svg PUBLIC "-//W3C//DTD SVG 1.1//EN" "http://www.w3.org/Graphics/SVG/1.1/DTD/svg11.dtd">
<svg version="1.1" id="Layer_1" xmlns="http://www.w3.org/2000/svg" xmlns:xlink="http://www.w3.org/1999/xlink" x="0px" y="0px"
	 width="18px" height="18px" viewBox="0 0 18 18" enable-background="new 0 0 18 18" xml:space="preserve">
<g>
	<path fill="#6A6A6A" d="M3.938,3.375h13.5C17.748,3.374,18,3.123,18,2.812V1.687c0-0.311-0.252-0.562-0.562-0.562h-13.5
		c-0.311,0-0.562,0.251-0.562,0.562v1.126C3.376,3.123,3.627,3.375,3.938,3.375z"/>
	<path fill="#6A6A6A" d="M3.938,7.875h13.5C17.748,7.876,18,7.624,18,7.312V6.188c0-0.312-0.252-0.563-0.562-0.563h-13.5
		c-0.311,0-0.562,0.251-0.562,0.563v1.124C3.376,7.623,3.627,7.875,3.938,7.875z"/>
	<path fill="#6A6A6A" d="M9.299,11.252h1.919v-1.127h-7.28c-0.311,0-0.562,0.251-0.562,0.562v1.125c0,0.311,0.251,0.562,0.562,0.562
		h4.098C8.125,11.745,8.645,11.252,9.299,11.252z"/>
	<path fill="#6A6A6A" d="M17.667,11.252c0.118,0,0.225,0.038,0.333,0.067v-0.632c0-0.312-0.252-0.562-0.562-0.562h-1.69v1.127
		H17.667z"/>
	<path fill="#6A6A6A" d="M15.747,15.781v1.093h1.69c0.312,0,0.562-0.252,0.562-0.562v-0.599c-0.108,0.029-0.215,0.067-0.333,0.067
		H15.747z"/>
	<path fill="#6A6A6A" d="M9.299,15.781c-0.666,0-1.196-0.511-1.27-1.156H3.938c-0.311,0-0.562,0.252-0.562,0.562v1.125
		c0,0.312,0.251,0.562,0.562,0.562h7.28v-1.093H9.299z"/>
	<path fill="#6A6A6A" d="M1.688,1.125H0.562C0.251,1.125,0,1.376,0,1.687v1.126c0,0.31,0.251,0.562,0.562,0.562h1.125
		c0.311,0,0.562-0.251,0.562-0.562V1.687C2.25,1.376,1.999,1.125,1.688,1.125z"/>
	<path fill="#6A6A6A" d="M1.688,5.625H0.562C0.251,5.625,0,5.876,0,6.188v1.124c0,0.311,0.251,0.563,0.562,0.563h1.125
		c0.311,0,0.562-0.252,0.562-0.563V6.188C2.25,5.876,1.999,5.625,1.688,5.625z"/>
	<path fill="#6A6A6A" d="M1.688,10.125H0.562C0.251,10.125,0,10.376,0,10.688v1.125c0,0.312,0.251,0.562,0.562,0.562h1.125
		c0.311,0,0.562-0.253,0.562-0.562v-1.125C2.25,10.376,1.999,10.125,1.688,10.125z"/>
	<path fill="#6A6A6A" d="M1.688,14.625H0.562C0.251,14.625,0,14.877,0,15.188v1.125c0,0.312,0.251,0.562,0.562,0.562h1.125
		c0.311,0,0.562-0.252,0.562-0.562v-1.125C2.25,14.877,1.999,14.625,1.688,14.625z"/>
</g>
<path id="plus_9_" fill="#50B44B" d="M12.518,18c-0.166,0-0.3-0.135-0.3-0.299v-2.92H9.299C9.133,14.781,9,14.647,9,14.482v-1.932
	c0-0.165,0.133-0.299,0.299-0.299h2.919V9.333c0-0.165,0.134-0.298,0.3-0.298h1.931c0.165,0,0.299,0.134,0.299,0.298v2.919h2.92
	c0.166,0,0.299,0.134,0.299,0.299v1.932c0,0.165-0.133,0.299-0.299,0.299h-2.92v2.92c0,0.164-0.134,0.299-0.299,0.299H12.518z"/>
</svg>
