<?xml version="1.0" encoding="utf-8"?>
<!-- Generator: Adobe Illustrator 15.1.0, SVG Export Plug-In . SVG Version: 6.00 Build 0)  -->
<!DOCTYPE svg PUBLIC "-//W3C//DTD SVG 1.1//EN" "http://www.w3.org/Graphics/SVG/1.1/DTD/svg11.dtd">
<svg version="1.1" id="Layer_1" xmlns="http://www.w3.org/2000/svg" xmlns:xlink="http://www.w3.org/1999/xlink" x="0px" y="0px"
	 width="36px" height="36px" viewBox="13.49 0 36 36" enable-background="new 13.49 0 36 36" xml:space="preserve">
<path fill="#6A6A6A" d="M30.414,25.253c0-1.398,1.138-2.536,2.537-2.536h3.229v-3.23c0-1.398,1.138-2.536,2.535-2.536h1.071
	c0.063-3.634,0.063-5.17,0.063-5.17l3.547,4.33c0,0,0.841,0.083,3.109-2.083c2.237-2.135,1.966-3.068,1.966-3.068
	s-4.202-5.752-5.075-6.627c-0.849-0.854-3.669-2.585-7.536-3.286c-0.109-0.019-0.213-0.032-0.248-0.012
	c-0.056,0.031-0.07,0.036-0.07,0.165c0,0.613-0.327,2.365-4.043,2.365c-3.717,0-4.045-1.752-4.045-2.365
	c0-0.129-0.015-0.134-0.069-0.165c-0.036-0.02-0.14-0.006-0.25,0.012c-3.867,0.701-6.686,2.432-7.535,3.286
	c-0.874,0.875-5.075,6.627-5.075,6.627s-0.271,0.933,1.965,3.068c2.269,2.167,3.11,2.083,3.11,2.083l3.545-4.33
	c0,0,0,2.19,0.111,7.561c0.108,5.367,0.709,8.437,0.709,8.437c1.318,0.881,4.736,1.146,6.477,1.224
	c-0.011-0.095-0.029-0.188-0.029-0.287V25.253z"/>
<path id="plus_11_" fill="#50B44D" d="M38.716,35.015c-0.297,0-0.535-0.239-0.535-0.536v-5.23h-5.229
	c-0.297,0-0.537-0.239-0.537-0.534v-3.461c0-0.298,0.24-0.536,0.537-0.536h5.229v-5.23c0-0.298,0.238-0.536,0.535-0.536h3.461
	c0.296,0,0.536,0.238,0.536,0.536v5.23h5.229c0.297,0,0.537,0.238,0.537,0.536v3.461c0,0.295-0.24,0.534-0.537,0.534h-5.229v5.23
	c0,0.297-0.24,0.536-0.536,0.536H38.716z"/>
</svg>
