<?xml version="1.0" encoding="utf-8"?>
<!-- Generator: Adobe Illustrator 16.0.0, SVG Export Plug-In . SVG Version: 6.00 Build 0)  -->
<!DOCTYPE svg PUBLIC "-//W3C//DTD SVG 1.1//EN" "http://www.w3.org/Graphics/SVG/1.1/DTD/svg11.dtd">
<svg version="1.1" id="Layer_1" xmlns="http://www.w3.org/2000/svg" xmlns:xlink="http://www.w3.org/1999/xlink" x="0px" y="0px"
	 width="36px" height="36px" viewBox="0 0 36 36" enable-background="new 0 0 36 36" xml:space="preserve">
<path id="plus_12_" fill="#6A6A6A" d="M1730.626,833.451c-0.297,0-0.535-0.238-0.535-0.535v-5.23h-5.229
	c-0.298,0-0.537-0.239-0.537-0.534v-3.461c0-0.298,0.239-0.535,0.537-0.535h5.229v-5.23c0-0.299,0.238-0.537,0.535-0.537h3.461
	c0.296,0,0.536,0.238,0.536,0.537v5.23h5.229c0.298,0,0.537,0.237,0.537,0.535v3.461c0,0.295-0.239,0.534-0.537,0.534h-5.229v5.23
	c0,0.297-0.24,0.535-0.536,0.535H1730.626z"/>
<g>
	<path fill="#6A6A6A" d="M22.483,22.856l-5.152-1.809h-4.664l-8.331,2.924c0,0-1.336,0.057-1.336,1.369v1.557
		c0,0.857,0.259,1.15,1.116,1.15h14.032c0.25-0.779,0.661-1.518,1.278-2.137L22.483,22.856z"/>
	<path fill="#6A6A6A" d="M15.616,19.45c0,0,6.409,0,6.409-7.46c0.752,0.006,1.717,0.293,1.717,0.293s0-9.803-8.259-9.803
		c-7.994,0-7.994,9.807-7.994,9.807c1.146-0.275,1.715-0.303,1.715-0.303C9.218,19.45,15.616,19.45,15.616,19.45z"/>
	<path id="clip_2_" fill="#50B44D" d="M31.877,21.009c-1.498-1.498-3.926-1.498-5.424,0l-5.965,5.963
		c-1.497,1.5-1.497,3.928,0,5.426c1.496,1.496,3.926,1.496,5.424,0l1.262-1.23c-0.678-0.014-1.297-0.234-1.822-0.594l-0.645,0.617
		c-0.832,0.834-2.182,0.834-3.012,0c-0.833-0.83-0.833-2.18,0-3.014l5.965-5.963c0.832-0.832,2.18-0.832,3.012,0
		c0.834,0.834,0.834,2.18,0.002,3.012l-2.975,2.996c-0.248,0.248-0.652,0.248-0.902,0c-0.252-0.252-0.252-0.656,0-0.906l2.244-2.266
		c0.164-0.166,0.166-0.436,0-0.604l-0.602-0.6c-0.168-0.166-0.438-0.166-0.605,0l-2.242,2.264c-0.916,0.914-0.916,2.4,0,3.312
		c0.914,0.918,2.4,0.918,3.312,0l2.973-2.992C33.375,24.935,33.375,22.505,31.877,21.009z"/>
</g>
</svg>
