<?xml version="1.0" encoding="utf-8"?>
<!-- Generator: Adobe Illustrator 15.1.0, SVG Export Plug-In . SVG Version: 6.00 Build 0)  -->
<!DOCTYPE svg PUBLIC "-//W3C//DTD SVG 1.1//EN" "http://www.w3.org/Graphics/SVG/1.1/DTD/svg11.dtd">
<svg version="1.1" id="Layer_1" xmlns="http://www.w3.org/2000/svg" xmlns:xlink="http://www.w3.org/1999/xlink" x="0px" y="0px"
	 width="22px" height="22px" viewBox="0 0 22 22" enable-background="new 0 0 22 22" xml:space="preserve">
<g>
	<rect x="17" y="12" fill="#6A6A6A" width="4" height="4"/>
	<rect x="1" y="12" fill="#6A6A6A" width="4" height="4"/>
	<rect x="1" y="1" fill="#6A6A6A" width="4" height="4"/>
	<rect x="17" y="1" fill="#6A6A6A" width="4" height="4"/>
	<g>
		<polygon fill="#6A6A6A" points="20,15.114 18.5,15.114 18.5,14.114 19,14.114 19,13.614 20,13.614 		"/>
		<path fill="#6A6A6A" d="M16,15.114h-2v-1h2V15.114z M12,15.114h-2v-1h2V15.114z M8,15.114H6v-1h2V15.114z"/>
		<polygon fill="#6A6A6A" points="3.5,15.114 2,15.114 2,13.614 3,13.614 3,14.114 3.5,14.114 		"/>
		<path fill="#6A6A6A" d="M3,12.114H2v-2h1V12.114z M3,8.114H2v-2h1V8.114z"/>
		<polygon fill="#6A6A6A" points="3,3.614 2,3.614 2,2.114 3.5,2.114 3.5,3.114 3,3.114 		"/>
		<path fill="#6A6A6A" d="M16,3.114h-2v-1h2V3.114z M12,3.114h-2v-1h2V3.114z M8,3.114H6v-1h2V3.114z"/>
		<polygon fill="#6A6A6A" points="20,3.614 19,3.614 19,3.114 18.5,3.114 18.5,2.114 20,2.114 		"/>
		<path fill="#6A6A6A" d="M20,12.114h-1v-2h1V12.114z M20,8.114h-1v-2h1V8.114z"/>
	</g>
</g>
<path id="lock-locked" fill="#6A6A6A" d="M14.883,13.839h-0.777v-2.33c0-1.717-1.393-3.109-3.107-3.109
	c-1.716,0-3.107,1.391-3.107,3.109v2.33H7.116c-0.43,0-0.778,0.346-0.778,0.775v5.438c0,0.43,0.348,0.775,0.778,0.775h7.767
	c0.43,0,0.779-0.346,0.779-0.775v-5.438C15.66,14.184,15.312,13.839,14.883,13.839z M9.446,11.506c0-0.859,0.696-1.552,1.554-1.552
	c0.858,0,1.553,0.693,1.553,1.552v2.33H9.446V11.506z"/>
</svg>
