<?xml version="1.0" encoding="utf-8"?>
<!-- Generator: Adobe Illustrator 16.0.0, SVG Export Plug-In . SVG Version: 6.00 Build 0)  -->
<!DOCTYPE svg PUBLIC "-//W3C//DTD SVG 1.1//EN" "http://www.w3.org/Graphics/SVG/1.1/DTD/svg11.dtd">
<svg version="1.1" id="Layer_1" xmlns="http://www.w3.org/2000/svg" xmlns:xlink="http://www.w3.org/1999/xlink" x="0px" y="0px"
	 width="36px" height="36px" viewBox="0 0 36 36" enable-background="new 0 0 36 36" xml:space="preserve">
<path id="plus_12_" fill="#6A6A6A" d="M1730.626,833.451c-0.297,0-0.535-0.238-0.535-0.535v-5.23h-5.229
	c-0.298,0-0.537-0.239-0.537-0.534v-3.461c0-0.298,0.239-0.535,0.537-0.535h5.229v-5.23c0-0.299,0.238-0.537,0.535-0.537h3.461
	c0.296,0,0.536,0.238,0.536,0.537v5.23h5.229c0.298,0,0.537,0.237,0.537,0.535v3.461c0,0.295-0.239,0.534-0.537,0.534h-5.229v5.23
	c0,0.297-0.24,0.535-0.536,0.535H1730.626z"/>
<g>
	<path fill="#6A6A6A" d="M6.032,23.926l7.548-3.08c-1.038-0.693-1.995-1.344-2.655-3.344H7.608l-6.545,2.684
		c0,0-1.069,0.438-1.069,1.465v1.219c0,0.672,0.248,1.633,0.92,1.633h4.374L6.032,23.926z"/>
	<path fill="#6A6A6A" d="M9.918,17.04c0,0,0.243-0.004,0.612-0.062c-0.171-0.528-0.311-1.096-0.398-1.721
		c-0.441,0.102-0.904-0.004-1.262-0.284c-0.361-0.284-0.571-0.719-0.571-1.179c0-2.713,0.96-7.099,4.052-9.533
		c-0.713-0.309-1.54-0.506-2.537-0.506c-6.258,0-6.258,7.677-6.258,7.677c0.897-0.216,1.342-0.237,1.342-0.237
		C4.909,17.04,9.918,17.04,9.918,17.04z"/>
	<path fill="#6A6A6A" d="M25.881,21.24l0.404,0.289c0.01-0.004,0.02-0.008,0.029-0.012l0.086-0.383
		c0.168-1.025,1.049-1.633,2.094-1.633h0.844c1.037,0,1.916,0.604,2.09,1.629l0.088,0.455c0.141,0.057,0.279,0.084,0.416,0.152
		l0.434-0.291c0.832-0.529,2.043-0.375,2.713,0.379l0.559,0.625c0.148,0.166,0.258,0.348,0.346,0.541
		c0.004-0.041,0.012-0.084,0.012-0.123V21.65c0-1.008-1.217-1.465-1.217-1.465l-6.695-2.684H24.93c-0.754,2-1.896,2.938-3.106,3.631
		l1.173,0.484l0.148-0.15C23.867,20.746,25.059,20.652,25.881,21.24z"/>
	<path fill="#6A6A6A" d="M27.547,13.526c0.016,0.086,0.023,0.28,0.023,0.37c0,0.828-0.672,1.606-1.5,1.606c-0.006,0-0.014,0-0.02,0
		c-0.111,0-0.223-0.119-0.332-0.144c-0.078,0.559-0.201,1.013-0.346,1.493c0.773,0.235,1.367,0.215,1.367,0.215
		s5.018-0.014,5.018-5.855c0.588,0.006,1.344,0.223,1.344,0.223s0-7.677-6.465-7.677c-1.207,0-2.176,0.287-2.961,0.747
		C26.521,6.897,27.488,10.89,27.547,13.526z"/>
	<path fill="#6A6A6A" d="M19.995,28.244v-0.846c0-1.041,0.904-1.922,1.933-2.092l0.605-0.088c0.002-0.006,0.043-0.01,0.045-0.016
		l-0.273-0.408c-0.359-0.512-0.454-0.998-0.328-1.566l-2.336-0.727h-4.664l-8.489,2.982c0,0-1.492,0.115-1.492,1.428v1.557
		c0,0.857,0.572,2.033,1.431,2.033h14.86C20.694,29.502,19.995,28.984,19.995,28.244z"/>
	<path fill="#6A6A6A" d="M11.513,13.554c0.015,7.467,6.413,7.467,6.413,7.467s6.408,0,6.408-7.46
		c0.752,0.006,1.717,0.292,1.717,0.292s0-9.802-8.258-9.802c-7.994,0-7.994,9.807-7.994,9.807
		C10.945,13.583,11.513,13.554,11.513,13.554z"/>
	<path id="settings_6_" fill="#50B44D" d="M35.486,26.787l-1.406-0.234c-0.102-0.418-0.252-0.818-0.447-1.189l0.902-1.115
		c0.191-0.236,0.184-0.578-0.02-0.805l-0.559-0.629c-0.201-0.227-0.539-0.275-0.795-0.113l-1.203,0.754
		c-0.529-0.369-1.127-0.641-1.771-0.801l-0.238-1.412c-0.051-0.301-0.311-0.52-0.611-0.52h-0.844c-0.305,0-0.564,0.219-0.613,0.52
		l-0.236,1.412c-0.535,0.133-1.037,0.344-1.492,0.621l-1.145-0.816c-0.246-0.176-0.584-0.148-0.799,0.066l-0.594,0.596
		c-0.217,0.215-0.244,0.555-0.068,0.801l0.816,1.146c-0.273,0.455-0.484,0.953-0.613,1.48l-1.422,0.238
		c-0.299,0.049-0.517,0.309-0.517,0.611v0.846c0,0.303,0.218,0.561,0.517,0.611l1.422,0.236c0.107,0.436,0.264,0.852,0.469,1.238
		l-0.893,1.109c-0.193,0.234-0.184,0.578,0.018,0.803l0.557,0.631c0.205,0.227,0.541,0.275,0.797,0.113l1.219-0.766
		c0.52,0.352,1.102,0.611,1.729,0.764l0.236,1.416c0.049,0.301,0.309,0.52,0.613,0.52h0.844c0.301,0,0.561-0.219,0.611-0.52
		l0.238-1.416c0.525-0.129,1.02-0.334,1.473-0.609l1.191,0.852c0.246,0.178,0.586,0.15,0.801-0.066l0.598-0.596
		c0.211-0.215,0.242-0.553,0.064-0.801l-0.85-1.189c0.275-0.453,0.484-0.953,0.615-1.484l1.406-0.234
		c0.301-0.051,0.52-0.309,0.52-0.611v-0.846C36.006,27.096,35.787,26.836,35.486,26.787z M28.928,30.484
		c-1.469,0-2.66-1.195-2.66-2.664s1.191-2.66,2.66-2.66c1.473,0,2.664,1.191,2.664,2.66S30.4,30.484,28.928,30.484z"/>
</g>
</svg>
