<?xml version="1.0" encoding="utf-8"?>
<!-- Generator: Adobe Illustrator 16.0.0, SVG Export Plug-In . SVG Version: 6.00 Build 0)  -->
<!DOCTYPE svg PUBLIC "-//W3C//DTD SVG 1.1//EN" "http://www.w3.org/Graphics/SVG/1.1/DTD/svg11.dtd">
<svg version="1.1" id="Layer_1" xmlns="http://www.w3.org/2000/svg" xmlns:xlink="http://www.w3.org/1999/xlink" x="0px" y="0px"
	 width="36px" height="36px" viewBox="0 0 36 36" enable-background="new 0 0 36 36" xml:space="preserve">
<path id="plus_12_" fill="#6A6A6A" d="M1730.626,833.451c-0.297,0-0.535-0.238-0.535-0.535v-5.23h-5.229
	c-0.298,0-0.537-0.239-0.537-0.534v-3.461c0-0.298,0.239-0.535,0.537-0.535h5.229v-5.23c0-0.299,0.238-0.537,0.535-0.537h3.461
	c0.296,0,0.536,0.238,0.536,0.537v5.23h5.229c0.298,0,0.537,0.237,0.537,0.535v3.461c0,0.295-0.239,0.534-0.537,0.534h-5.229v5.23
	c0,0.297-0.24,0.535-0.536,0.535H1730.626z"/>
<g>
	<path fill="none" d="M24.294,29.624c0.03-0.015,0.062-0.028,0.092-0.045c-0.001-0.013-0.005-0.027-0.006-0.041L24.294,29.624z"/>
	<path fill="#6A6A6A" d="M34.878,21.013c0.227-1.113,0.347-2.268,0.347-3.45c0-9.498-7.699-17.198-17.198-17.198
		c-9.498,0-17.199,7.7-17.199,17.198c0,3.076,0.819,5.957,2.234,8.457l1.44-1.442l-2.346-2.346
		c-0.546-0.542-0.721-1.418-0.422-2.134c0.11-0.252,0.249-0.459,0.422-0.632c0.358-0.36,0.862-0.57,1.381-0.57l0.959,0.032
		c-0.045-0.449-0.069-0.904-0.069-1.365c0-7.511,6.088-13.599,13.598-13.599c7.511,0,13.599,6.088,13.599,13.599
		c0,0.521-0.036,1.033-0.093,1.539c1.146,0.199,2.202,0.74,3.043,1.58C34.683,20.788,34.78,20.901,34.878,21.013z"/>
	<path fill="#6A6A6A" d="M18.205,31.151c-0.06,0.002-0.118,0.01-0.178,0.01c-0.465,0-0.989-0.024-1.441-0.068l-0.032,0.894
		c0,0.002,0,0.002,0,0.004c0,0.566-0.148,1.068-0.512,1.431c-0.186,0.187-0.375,0.331-0.618,0.428
		c-0.708,0.298-1.532,0.132-2.097-0.431l-2.338-2.346l-1.442,1.444c2.504,1.422,5.393,2.245,8.479,2.245
		c0.423,0,0.838-0.034,1.253-0.063c-0.7-0.965-1.084-2.121-1.084-3.336C18.194,31.291,18.202,31.223,18.205,31.151z"/>
	<path fill="#6A6A6A" d="M26.512,20.682c0.431-0.43,0.92-0.778,1.447-1.048c0.139-0.67,0.213-1.361,0.213-2.071
		c0-5.602-4.542-10.145-10.145-10.145c-5.602,0-10.144,4.543-10.144,10.145c0,0.506,0.049,1,0.121,1.485l4.012,0.138
		c-0.14-0.518-0.221-1.06-0.221-1.623c0-3.442,2.791-6.232,6.232-6.232c3.443,0,6.232,2.79,6.232,6.232s-2.789,6.232-6.232,6.232
		c-0.568,0-1.116-0.083-1.639-0.227l0.139,4.015c0.491,0.074,0.989,0.125,1.5,0.125c0.554,0,1.093-0.058,1.624-0.144
		c0.071-0.078,0.139-0.16,0.215-0.236L26.512,20.682z"/>
	<circle fill="#6A6A6A" cx="18.027" cy="17.563" r="2.318"/>
	<path fill="#6A6A6A" d="M14.352,32.408c0.152,0.152,0.38,0.197,0.577,0.113c0.065-0.025,0.121-0.064,0.171-0.115
		c0.097-0.095,0.154-0.229,0.152-0.37L14.88,21.223c0-0.146-0.058-0.277-0.154-0.374c-0.095-0.095-0.227-0.154-0.375-0.154
		L3.539,20.323c-0.142,0-0.275,0.056-0.372,0.152c-0.048,0.048-0.085,0.107-0.113,0.171c-0.082,0.197-0.037,0.426,0.113,0.576
		l3.355,3.354L0.93,30.171c-0.206,0.206-0.206,0.54,0,0.745l3.729,3.729c0.207,0.208,0.54,0.206,0.745,0l5.593-5.593L14.352,32.408z
		"/>
	<path id="clip_1_" fill="#50B44D" d="M33.566,21.691c-1.669-1.67-4.375-1.67-6.045,0l-6.647,6.646c-1.67,1.671-1.67,4.377,0,6.046
		c1.667,1.67,4.375,1.67,6.044,0l1.408-1.369c-0.757-0.016-1.447-0.263-2.032-0.662l-0.719,0.688c-0.929,0.93-2.433,0.93-3.357,0
		c-0.928-0.926-0.928-2.429,0-3.358l6.648-6.646c0.928-0.928,2.43-0.928,3.356,0c0.93,0.929,0.93,2.429,0.002,3.356l-3.313,3.338
		c-0.277,0.277-0.729,0.277-1.008,0c-0.279-0.28-0.279-0.73,0-1.009l2.502-2.524c0.185-0.186,0.186-0.486,0-0.673l-0.671-0.669
		c-0.187-0.186-0.487-0.186-0.673,0l-2.5,2.522c-1.021,1.021-1.021,2.677,0,3.693c1.019,1.022,2.675,1.022,3.692,0l3.312-3.335
		C35.235,26.066,35.235,23.358,33.566,21.691z"/>
</g>
</svg>
