<?xml version="1.0" encoding="utf-8"?>
<!-- Generator: Adobe Illustrator 14.0.0, SVG Export Plug-In . SVG Version: 6.00 Build 43363)  -->
<!DOCTYPE svg PUBLIC "-//W3C//DTD SVG 1.1//EN" "http://www.w3.org/Graphics/SVG/1.1/DTD/svg11.dtd">
<svg version="1.1" id="Capa_1" xmlns="http://www.w3.org/2000/svg" xmlns:xlink="http://www.w3.org/1999/xlink" x="0px" y="0px"
	 width="36px" height="36px" viewBox="0 0 36 36" enable-background="new 0 0 36 36" xml:space="preserve">
<g>
	<defs>
		<rect id="SVGID_1_" y="0" width="36" height="36"/>
	</defs>
	<clipPath id="SVGID_2_">
		<use xlink:href="#SVGID_1_"  overflow="visible"/>
	</clipPath>
	<path clip-path="url(#SVGID_2_)" fill="#50B149" d="M47.664,35.015c-0.297,0-0.535-0.239-0.535-0.536v-5.23h-5.229
		c-0.297,0-0.537-0.239-0.537-0.534v-3.461c0-0.298,0.24-0.536,0.537-0.536h5.229v-5.23c0-0.298,0.238-0.536,0.535-0.536h3.461
		c0.297,0,0.537,0.238,0.537,0.536v5.23h5.229c0.297,0,0.537,0.238,0.537,0.536v3.461c0,0.295-0.24,0.534-0.537,0.534h-5.229v5.23
		c0,0.297-0.24,0.536-0.537,0.536H47.664z"/>
</g>
<polyline fill="#6A6A6A" points="12.991,7.306 12.991,19.245 24.877,13.273 "/>
<g>
	<path fill="none" d="M23.191,23.217v-3.73c0-1.123,0.913-2.036,2.035-2.036h3.461c1.123,0,2.037,0.914,2.037,2.036v3.73h1.457
		c0.312-0.121,0.536-0.438,0.536-0.816V3.942c0-0.483-0.359-0.875-0.801-0.875H4.083c-0.444,0-0.803,0.393-0.803,0.875v18.458
		c0,0.48,0.36,0.875,0.803,0.875h14.914c0.149-0.035,0.305-0.059,0.465-0.059H23.191z"/>
	<path fill="#6A6A6A" d="M30.648,35h2.659c0.404,0,0.732-0.357,0.732-0.801s-0.328-0.805-0.732-0.805h-2.583v1.084
		C30.724,34.661,30.693,34.833,30.648,35z"/>
	<path fill="#6A6A6A" d="M23.191,33.373c-0.716-0.021-2.019-0.045-2.019-0.067v-2.557h-1.711c-1.123,0-2.037-0.912-2.037-2.034
		v-3.461c0-0.963,0.673-1.766,1.572-1.978H4.083c-0.443,0-0.803-0.395-0.803-0.875V3.942c0-0.482,0.359-0.875,0.803-0.875h27.834
		c0.441,0,0.801,0.392,0.801,0.875v18.458c0,0.379-0.225,0.695-0.536,0.816h2.271c0.189,0,0.37,0.034,0.544,0.083V1.874
		c-0.002-0.483-0.363-0.875-0.805-0.875H1.808c-0.443,0-0.803,0.392-0.803,0.875v24.344c0,0.482,0.359,0.875,0.803,0.875h12.178
		v6.215c0,0.03-1.236,0.061-1.233,0.09H2.317c-0.406,0-0.735,0.358-0.735,0.804c0,0.438,0.329,0.8,0.735,0.8h20.95
		c-0.045-0.167-0.076-0.34-0.076-0.521V33.373z"/>
	<path fill="#50B149" d="M25.226,35.015c-0.297,0-0.535-0.239-0.535-0.536v-5.23h-5.229c-0.297,0-0.537-0.239-0.537-0.534v-3.461
		c0-0.298,0.24-0.536,0.537-0.536h5.229v-5.23c0-0.298,0.238-0.536,0.535-0.536h3.461c0.297,0,0.537,0.238,0.537,0.536v5.23h5.229
		c0.297,0,0.537,0.238,0.537,0.536v3.461c0,0.295-0.24,0.534-0.537,0.534h-5.229v5.23c0,0.297-0.24,0.536-0.537,0.536H25.226z"/>
</g>
</svg>
