<?xml version="1.0" encoding="utf-8"?>
<!-- Generator: Adobe Illustrator 15.1.0, SVG Export Plug-In . SVG Version: 6.00 Build 0)  -->
<!DOCTYPE svg PUBLIC "-//W3C//DTD SVG 1.1//EN" "http://www.w3.org/Graphics/SVG/1.1/DTD/svg11.dtd">
<svg version="1.1" id="Layer_1" xmlns="http://www.w3.org/2000/svg" xmlns:xlink="http://www.w3.org/1999/xlink" x="0px" y="0px"
	 width="37px" height="21px" viewBox="0 0 37 21" enable-background="new 0 0 37 21" xml:space="preserve">
<path id="folder" fill-rule="evenodd" clip-rule="evenodd" fill="#151A20" d="M9.594,18C9.265,18,9,17.742,9,17.423V3.578
	C9,3.258,9.265,3,9.594,3h7.352c0.225,0,0.43,0.124,0.532,0.319L18.5,5.308h8.905c0.33,0,0.595,0.258,0.595,0.577v11.538
	C28,17.742,27.735,18,27.405,18H9.594z"/>
<path id="plus" fill="#50B44B" d="M18.034,15c-0.13,0-0.233-0.104-0.233-0.234V12.2h-2.567C15.104,12.2,15,12.097,15,11.967v-0.934
	c0-0.129,0.104-0.232,0.233-0.232H17.8V8.234C17.8,8.104,17.904,8,18.034,8h0.934C19.096,8,19.2,8.104,19.2,8.234v2.567h2.565
	c0.13,0,0.234,0.104,0.234,0.232v0.934c0,0.13-0.104,0.233-0.234,0.233H19.2v2.565c0,0.13-0.104,0.234-0.233,0.234H18.034z"/>
</svg>
