<?xml version="1.0" encoding="utf-8"?>
<!-- Generator: Adobe Illustrator 16.0.0, SVG Export Plug-In . SVG Version: 6.00 Build 0)  -->
<!DOCTYPE svg PUBLIC "-//W3C//DTD SVG 1.1//EN" "http://www.w3.org/Graphics/SVG/1.1/DTD/svg11.dtd">
<svg version="1.1" id="Layer_1" xmlns="http://www.w3.org/2000/svg" xmlns:xlink="http://www.w3.org/1999/xlink" x="0px" y="0px"
	 width="47px" height="37px" viewBox="0 0 47 37" enable-background="new 0 0 47 37" xml:space="preserve">
<g>
	<path fill="#6A6A6A" d="M36.688,28.583l-10.362-3.768h-5.652l-10.361,3.768c0,0-1.885,0.294-1.885,1.885v1.886
		c0,1.039,0.846,1.882,1.885,1.882h26.376c1.042,0,1.884-0.843,1.884-1.882v-1.886C38.572,28.905,36.688,28.583,36.688,28.583z"/>
	<path fill="#6A6A6A" d="M32.013,14.289c0.911,0.007,2.081,0.354,2.081,0.354s0-11.879-10.007-11.879
		c-9.688,0-9.688,11.884-9.688,11.884c1.39-0.334,2.078-0.367,2.078-0.367c0.017,9.048,7.771,9.048,7.771,9.048
		S32.013,23.329,32.013,14.289z"/>
</g>
</svg>
