<?xml version="1.0" encoding="utf-8"?>
<!-- Generator: Adobe Illustrator 15.1.0, SVG Export Plug-In . SVG Version: 6.00 Build 0)  -->
<!DOCTYPE svg PUBLIC "-//W3C//DTD SVG 1.1//EN" "http://www.w3.org/Graphics/SVG/1.1/DTD/svg11.dtd">
<svg version="1.1" id="Layer_1" xmlns="http://www.w3.org/2000/svg" xmlns:xlink="http://www.w3.org/1999/xlink" x="0px" y="0px"
	 width="18px" height="18px" viewBox="0 0 18 18" enable-background="new 0 0 18 18" xml:space="preserve">
<g>
	<path fill="#6A6A6A" d="M17.369,7.882h-8.76c0.246,0.324,0.385,0.712,0.385,1.125c0,0.412-0.139,0.8-0.384,1.125h8.759
		c0.311,0.001,0.562-0.251,0.562-0.562V8.445C17.932,8.133,17.68,7.882,17.369,7.882z"/>
	<g>
		<path fill="#6A6A6A" d="M8.584,13.968H0.631c-0.312,0-0.562,0.251-0.562,0.562v1.125c0,0.311,0.251,0.562,0.562,0.562h7.951
			c-0.244-0.323-0.383-0.712-0.383-1.124C8.199,14.681,8.338,14.292,8.584,13.968z"/>
		<path fill="#6A6A6A" d="M17.369,13.968h-1.755C15.86,14.292,16,14.682,16,15.095c0,0.412-0.139,0.8-0.385,1.123h1.754
			c0.311,0,0.562-0.253,0.562-0.562V14.53C17.932,14.219,17.68,13.968,17.369,13.968z"/>
	</g>
	<g>
		<path fill="#6A6A6A" d="M12.717,17.737c-0.34,0.342-0.895,0.342-1.236,0l-2.025-2.025c-0.342-0.342-0.342-0.896,0-1.237
			l2.025-2.026c0.342-0.341,0.896-0.341,1.236,0l2.025,2.026c0.344,0.343,0.344,0.896,0,1.237L12.717,17.737z"/>
	</g>
	<path fill="#6A6A6A" d="M17.369,1.782H15.74c0.246,0.323,0.386,0.712,0.386,1.125c0,0.413-0.14,0.801-0.386,1.125h1.629
		c0.311-0.001,0.562-0.252,0.562-0.563V2.344C17.932,2.033,17.68,1.782,17.369,1.782z"/>
	<path fill="#6A6A6A" d="M0.631,10.132h0.755C1.14,9.809,1,9.42,1,9.006c0-0.413,0.14-0.801,0.386-1.125H0.631
		C0.32,7.883,0.068,8.134,0.068,8.445v1.125C0.068,9.881,0.32,10.132,0.631,10.132z"/>
	<path fill="#6A6A6A" d="M8.711,1.782h-8.08c-0.312,0-0.562,0.251-0.562,0.562V3.47c0,0.31,0.251,0.562,0.562,0.562h8.08
		C8.208,3.366,8.209,2.447,8.711,1.782z"/>
	<path fill="#6A6A6A" d="M12.843,5.551c-0.341,0.341-0.894,0.342-1.236,0L9.581,3.525c-0.341-0.342-0.341-0.895,0-1.237l2.025-2.026
		c0.342-0.341,0.896-0.341,1.236,0l2.025,2.026c0.344,0.342,0.344,0.895,0,1.237L12.843,5.551z"/>
	<path fill="#6A6A6A" d="M5.712,11.651c-0.341,0.342-0.895,0.342-1.236,0L2.45,9.626c-0.342-0.342-0.342-0.896,0-1.237l2.025-2.026
		c0.342-0.341,0.896-0.341,1.236,0l2.025,2.026c0.343,0.342,0.343,0.895,0,1.237L5.712,11.651z"/>
</g>
</svg>
