<?xml version="1.0" encoding="utf-8"?>
<!-- Generator: Adobe Illustrator 16.2.0, SVG Export Plug-In . SVG Version: 6.00 Build 0)  -->
<!DOCTYPE svg PUBLIC "-//W3C//DTD SVG 1.1//EN" "http://www.w3.org/Graphics/SVG/1.1/DTD/svg11.dtd">
<svg version="1.1" id="Layer_1" xmlns="http://www.w3.org/2000/svg" xmlns:xlink="http://www.w3.org/1999/xlink" x="0px" y="0px"
	 width="36px" height="36px" viewBox="0 0 36 36" enable-background="new 0 0 36 36" xml:space="preserve">
<path id="plus_12_" fill="#6A6A6A" d="M1730.625,833.451c-0.297,0-0.533-0.238-0.533-0.535v-5.23h-5.23
	c-0.297,0-0.537-0.233-0.537-0.528v-3.461c0-0.304,0.24-0.535,0.537-0.535h5.23v-5.23c0-0.299,0.236-0.534,0.533-0.534h3.463
	c0.295,0,0.535,0.235,0.535,0.534v5.23h5.229c0.297,0,0.537,0.231,0.537,0.535v3.461c0,0.295-0.24,0.528-0.537,0.528h-5.229v5.23
	c0,0.297-0.24,0.535-0.535,0.535H1730.625z"/>
<path fill="#F3F3F3" d="M17.999,35.994l-0.419-0.205C3.748,29.048,4.174,18.297,4.236,17.405V4.741l0.357-0.288
	C9.876,0.215,16.519,0,17.797,0c0.108,0,0.18,0.001,0.214,0.002C18.021,0.001,18.093,0,18.201,0c1.279,0,7.922,0.215,13.204,4.453
	l0.359,0.288v12.664c0.061,0.892,0.486,11.643-13.345,18.384L17.999,35.994z M6.151,5.668L6.148,17.519
	c-0.031,0.409-0.62,10.043,11.851,16.339c12.532-6.331,11.862-16.239,11.853-16.339l-0.003-0.079V5.668
	C25.128,2.101,19.34,1.916,18.201,1.916l-0.17,0.001l-0.234-0.001C16.661,1.916,10.873,2.101,6.151,5.668z"/>
<path fill="#F3F3F3" d="M7.827,7.76v9.607c0,0-0.705,8.484,10.053,13.728V4.432C17.879,4.432,12.215,4.24,7.827,7.76z"/>
<path fill="#F3F3F3" d="M17.999,35.994l-0.419-0.205C3.748,29.048,4.174,18.297,4.236,17.405V4.741l0.357-0.288
	C9.876,0.215,16.519,0,17.797,0c0.108,0,0.18,0.001,0.214,0.002C18.021,0.001,18.093,0,18.201,0c1.279,0,7.922,0.215,13.204,4.453
	l0.359,0.288v12.664c0.061,0.892,0.486,11.643-13.345,18.384L17.999,35.994z M6.151,5.668L6.148,17.519
	c-0.031,0.409-0.62,10.043,11.851,16.339c12.532-6.331,11.862-16.239,11.853-16.339l-0.003-0.079V5.668
	C25.128,2.101,19.34,1.916,18.201,1.916l-0.17,0.001l-0.234-0.001C16.661,1.916,10.873,2.101,6.151,5.668z"/>
<path fill="#F3F3F3" d="M7.827,7.76v9.607c0,0-0.705,8.484,10.053,13.728V4.432C17.879,4.432,12.215,4.24,7.827,7.76z"/>
<path fill="#F3F3F3" d="M17.999,35.994l-0.419-0.205C3.748,29.048,4.174,18.297,4.236,17.405V4.741l0.357-0.288
	C9.876,0.215,16.519,0,17.797,0c0.108,0,0.18,0.001,0.214,0.002C18.021,0.001,18.093,0,18.201,0c1.279,0,7.922,0.215,13.204,4.453
	l0.359,0.288v12.664c0.061,0.892,0.486,11.643-13.345,18.384L17.999,35.994z M6.151,5.668L6.148,17.519
	c-0.031,0.409-0.62,10.043,11.851,16.339c12.532-6.331,11.862-16.239,11.853-16.339l-0.003-0.079V5.668
	C25.128,2.101,19.34,1.916,18.201,1.916l-0.17,0.001l-0.234-0.001C16.661,1.916,10.873,2.101,6.151,5.668z"/>
<path fill="#F3F3F3" d="M7.827,7.76v9.607c0,0-0.705,8.484,10.053,13.728V4.432C17.879,4.432,12.215,4.24,7.827,7.76z"/>
<path fill="#F3F3F3" d="M17.999,35.994l-0.419-0.205C3.748,29.048,4.174,18.297,4.236,17.405V4.741l0.357-0.288
	C9.876,0.215,16.519,0,17.797,0c0.108,0,0.18,0.001,0.214,0.002C18.021,0.001,18.093,0,18.201,0c1.279,0,7.922,0.215,13.204,4.453
	l0.359,0.288v12.664c0.061,0.892,0.486,11.643-13.345,18.384L17.999,35.994z M6.151,5.668L6.148,17.519
	c-0.031,0.409-0.62,10.043,11.851,16.339c12.532-6.331,11.862-16.239,11.853-16.339l-0.003-0.079V5.668
	C25.128,2.101,19.34,1.916,18.201,1.916l-0.17,0.001l-0.234-0.001C16.661,1.916,10.873,2.101,6.151,5.668z"/>
<path fill="#F3F3F3" d="M7.827,7.76v9.607c0,0-0.705,8.484,10.053,13.728V4.432C17.879,4.432,12.215,4.24,7.827,7.76z"/>
</svg>
