<?xml version="1.0" encoding="utf-8"?>
<!-- Generator: Adobe Illustrator 15.1.0, SVG Export Plug-In . SVG Version: 6.00 Build 0)  -->
<!DOCTYPE svg PUBLIC "-//W3C//DTD SVG 1.1//EN" "http://www.w3.org/Graphics/SVG/1.1/DTD/svg11.dtd">
<svg version="1.1" id="Layer_1" xmlns="http://www.w3.org/2000/svg" xmlns:xlink="http://www.w3.org/1999/xlink" x="0px" y="0px"
	 width="36px" height="36px" viewBox="0 0 36 36" enable-background="new 0 0 36 36" xml:space="preserve">
<g>
	<circle fill="none" cx="11.833" cy="26.532" r="2.267"/>
	<path fill="#6B6B6A" d="M29.229,22.718h1.686l-1.027-0.793l1.913-2.477c0.527-0.684,0.401-1.664-0.282-2.189
		c-0.682-0.527-1.662-0.401-2.188,0.281l-0.483,0.625c0.238,0.386,0.383,0.836,0.383,1.322V22.718z"/>
	<path fill="#6B6B6A" d="M13.495,9.359l3.104-0.399l0.399,3.104c0.109,0.855,0.892,1.459,1.747,1.349
		c0.855-0.11,1.459-0.893,1.348-1.747l-0.398-3.104l3.104-0.399c0.854-0.11,1.459-0.893,1.349-1.747
		c-0.11-0.855-0.893-1.458-1.746-1.349l-3.105,0.399l-0.399-3.104c-0.109-0.854-0.892-1.459-1.746-1.349
		c-0.854,0.11-1.459,0.893-1.349,1.747L16.2,5.864l-3.104,0.399c-0.854,0.11-1.458,0.892-1.349,1.747
		C11.856,8.864,12.639,9.469,13.495,9.359z"/>
	<path fill="#6B6B6A" d="M9.58,20.49c0.681,0.525,1.662,0.399,2.188-0.281c0.526-0.683,0.4-1.664-0.282-2.19L9.01,16.107
		l1.912-2.478c0.526-0.682,0.4-1.663-0.281-2.189c-0.682-0.526-1.663-0.4-2.188,0.281l-1.913,2.478l-2.477-1.913
		c-0.682-0.526-1.663-0.4-2.189,0.281c-0.527,0.682-0.401,1.663,0.281,2.189l2.477,1.913l-1.912,2.477
		C2.192,19.828,2.318,20.81,3,21.336c0.682,0.526,1.662,0.399,2.189-0.281l1.913-2.478L9.58,20.49z"/>
	<path fill="#6B6B6A" d="M14.93,25.254c0-0.858,0.431-1.615,1.086-2.074c-0.069-0.086-0.13-0.179-0.204-0.26
		c1.034-1.791,3.135-4.978,5.103-6.234c2.578-1.646,5.034-2.507,6.716-2.948l-1.291,1.67c-0.353,0.457-0.406,1.045-0.202,1.544
		h0.554c0.677,0,1.289,0.271,1.745,0.704c0.138-0.092,0.267-0.201,0.374-0.34l2.548-3.301l0.942-1.219
		c0.252-0.318,0.385-0.731,0.329-1.166c-0.055-0.428-0.28-0.794-0.599-1.038v-0.001l-1.235-0.954l-3.3-2.549
		c-0.683-0.527-1.663-0.401-2.189,0.282c-0.526,0.682-0.4,1.662,0.281,2.189l1.961,1.514c-1.892,0.444-4.866,1.398-8.034,3.42
		c-2.541,1.623-4.856,5.245-5.878,6.995c-0.773-0.276-1.613-0.4-2.483-0.289c-2.945,0.379-5.025,3.073-4.646,6.018
		c0.378,2.945,3.073,5.025,6.018,4.646c1.197-0.154,2.247-0.695,3.051-1.476c-0.397-0.447-0.646-1.029-0.646-1.673V25.254z
		 M12.122,28.78c-1.241,0.16-2.377-0.717-2.537-1.959c-0.16-1.241,0.718-2.378,1.959-2.537c1.242-0.159,2.378,0.717,2.538,1.959
		C14.241,27.484,13.363,28.621,12.122,28.78z"/>
</g>
<path id="plus_13_" fill="#50B149" d="M23.23,35.016c-0.297,0-0.534-0.24-0.534-0.537v-5.229h-5.229
	c-0.298,0-0.537-0.239-0.537-0.534v-3.461c0-0.298,0.239-0.536,0.537-0.536h5.229v-5.229c0-0.299,0.237-0.536,0.534-0.536h3.461
	c0.298,0,0.537,0.237,0.537,0.536v5.229h5.229c0.297,0,0.537,0.238,0.537,0.536v3.461c0,0.295-0.24,0.534-0.537,0.534h-5.229v5.229
	c0,0.297-0.239,0.537-0.537,0.537H23.23z"/>
</svg>
