<?xml version="1.0" encoding="utf-8"?>
<!-- Generator: Adobe Illustrator 14.0.0, SVG Export Plug-In . SVG Version: 6.00 Build 43363)  -->
<!DOCTYPE svg PUBLIC "-//W3C//DTD SVG 1.1//EN" "http://www.w3.org/Graphics/SVG/1.1/DTD/svg11.dtd">
<svg version="1.1" id="Capa_1" xmlns="http://www.w3.org/2000/svg" xmlns:xlink="http://www.w3.org/1999/xlink" x="0px" y="0px"
	 width="20px" height="20px" viewBox="0 0 20 20" enable-background="new 0 0 20 20" xml:space="preserve">
<g>
	<g>
		<path fill="#6E921C" d="M13.016,8.452c0-1.216-0.474-2.356-1.33-3.216c-0.855-0.858-1.996-1.33-3.208-1.33
			c-0.361,0-0.725,0.043-1.074,0.13L7.057,4.12L4.034,1.091c0,0-1.363-0.433-2.392,0.599c-1.03,1.033-0.51,2.312-0.51,2.312
			l3.023,3.026L4.071,7.376c-0.377,1.56,0.07,3.161,1.199,4.292c0.856,0.857,1.996,1.334,3.209,1.334
			c1.211,0,2.351-0.477,3.207-1.334C12.542,10.807,13.016,9.667,13.016,8.452z"/>
	</g>
	<g>
		<path fill="#ABD05C" d="M15.596,18.826c0,0,1.559,0.639,2.729-0.537c1.172-1.175,0.465-2.665,0.465-2.665l-3.519-3.556
			l0.191-0.438c1.168-2.637,0.74-5.634-1.068-7.823l-0.803,0.807c1.993,2.502,1.834,6.173-0.477,8.486
			c-1.202,1.202-2.799,1.868-4.5,1.868c-1.461,0-2.846-0.489-3.969-1.392l-0.804,0.805c1.339,1.11,3.009,1.715,4.769,1.715
			c1.051,0,2.07-0.215,3.026-0.639l0.436-0.188L15.596,18.826z"/>
	</g>
</g>
</svg>
