<?xml version="1.0" encoding="utf-8"?>
<!-- Generator: Adobe Illustrator 16.0.0, SVG Export Plug-In . SVG Version: 6.00 Build 0)  -->
<!DOCTYPE svg PUBLIC "-//W3C//DTD SVG 1.1//EN" "http://www.w3.org/Graphics/SVG/1.1/DTD/svg11.dtd">
<svg version="1.1" id="Layer_1" xmlns="http://www.w3.org/2000/svg" xmlns:xlink="http://www.w3.org/1999/xlink" x="0px" y="0px"
	 width="48px" height="48px" viewBox="0 0 48 48" enable-background="new 0 0 48 48" xml:space="preserve">
<g>
	<g>
		<path fill="#6A6A6A" d="M31.287,19.791h8.846c0.457,0,0.873-0.279,1.049-0.707c0.053-0.141,0.086-0.286,0.086-0.438
			c0-0.299-0.117-0.59-0.33-0.805L23.936,1.835C23.713,1.616,23.422,1.5,23.135,1.5c-0.293,0-0.582,0.116-0.803,0.335L5.336,17.844
			c-0.219,0.215-0.333,0.506-0.333,0.806c0,0.15,0.028,0.297,0.085,0.438c0.175,0.426,0.586,0.706,1.046,0.706h8.85l1.176,24.697
			c0,0.628,0.508,1.142,1.133,1.142h11.337c0.621,0,1.131-0.514,1.131-1.142L31.287,19.791z"/>
	</g>
	<g>
		<g>
			<circle fill="#3B3B3C" cx="31.74" cy="35.243" r="11.259"/>
		</g>
		<g>
			<path id="settings_10_" fill="#50B44D" d="M28.906,40.925c0.512,0.286,1.057,0.503,1.643,0.646l0.287,1.722
				c0.059,0.364,0.373,0.632,0.746,0.632h1.027c0.365,0,0.682-0.268,0.744-0.632l0.287-1.722c0.648-0.16,1.258-0.417,1.814-0.755
				l1.395,0.995c0.299,0.214,0.711,0.18,0.975-0.085l0.725-0.723c0.26-0.263,0.295-0.671,0.08-0.973l-0.994-1.397
				c0.332-0.554,0.59-1.156,0.748-1.806l1.73-0.291c0.365-0.059,0.633-0.371,0.633-0.745v-1.022c0-0.372-0.268-0.689-0.633-0.749
				l-1.73-0.283c-0.133-0.535-0.322-1.043-0.572-1.513l1.09-1.354c0.234-0.284,0.221-0.699-0.023-0.974l-0.68-0.768
				c-0.246-0.279-0.656-0.337-0.969-0.137l-1.488,0.933c-0.629-0.431-1.34-0.745-2.1-0.932l-0.289-1.727
				c-0.061-0.364-0.377-0.63-0.744-0.63H31.58c-0.371,0-0.686,0.266-0.746,0.63l-0.287,1.727c-0.643,0.155-1.248,0.406-1.801,0.737
				l-1.448-1.03c-0.297-0.218-0.712-0.183-0.974,0.079l-0.727,0.723c-0.26,0.263-0.299,0.676-0.08,0.974l1.031,1.447
				c-0.334,0.557-0.59,1.166-0.748,1.815l-1.713,0.282c-0.366,0.06-0.631,0.377-0.631,0.749v1.022c0,0.373,0.265,0.687,0.631,0.745
				l1.715,0.288c0.125,0.51,0.307,0.994,0.541,1.45l-1.096,1.36c-0.233,0.285-0.223,0.699,0.023,0.976l0.681,0.766
				c0.246,0.279,0.655,0.337,0.97,0.141l1.465-0.919C28.553,40.712,28.729,40.824,28.906,40.925 M32.076,32.039
				c1.787,0,3.24,1.451,3.24,3.245c0,1.782-1.453,3.236-3.24,3.236c-1.793,0-3.244-1.45-3.244-3.236
				C28.832,33.488,30.283,32.037,32.076,32.039z"/>
		</g>
	</g>
</g>
</svg>
