<?xml version="1.0" encoding="UTF-8" standalone="no"?>
<!-- Generator: Adobe Illustrator 15.1.0, SVG Export Plug-In . SVG Version: 6.00 Build 0)  -->

<svg
   xmlns:dc="http://purl.org/dc/elements/1.1/"
   xmlns:cc="http://creativecommons.org/ns#"
   xmlns:rdf="http://www.w3.org/1999/02/22-rdf-syntax-ns#"
   xmlns:svg="http://www.w3.org/2000/svg"
   xmlns="http://www.w3.org/2000/svg"
   xmlns:sodipodi="http://sodipodi.sourceforge.net/DTD/sodipodi-0.dtd"
   xmlns:inkscape="http://www.inkscape.org/namespaces/inkscape"
   version="1.1"
   id="Layer_1"
   x="0px"
   y="0px"
   width="18.724001"
   height="16.167999"
   viewBox="0.208 1 18.724001 16.167999"
   enable-background="new 0.208 1 37 21"
   xml:space="preserve"
   inkscape:version="0.48.4 r9939"
   sodipodi:docname="btn-ico-calendar.svg"><metadata
     id="metadata20"><rdf:RDF><cc:Work
         rdf:about=""><dc:format>image/svg+xml</dc:format><dc:type
           rdf:resource="http://purl.org/dc/dcmitype/StillImage" /></cc:Work></rdf:RDF></metadata><defs
     id="defs18" /><sodipodi:namedview
     pagecolor="#ffffff"
     bordercolor="#666666"
     borderopacity="1"
     objecttolerance="10"
     gridtolerance="10"
     guidetolerance="10"
     inkscape:pageopacity="0"
     inkscape:pageshadow="2"
     inkscape:window-width="640"
     inkscape:window-height="480"
     id="namedview16"
     showgrid="false"
     fit-margin-top="0"
     fit-margin-left="0"
     fit-margin-right="0"
     fit-margin-bottom="0"
     inkscape:zoom="14.486607"
     inkscape:cx="9.693"
     inkscape:cy="8.168"
     inkscape:window-x="0"
     inkscape:window-y="27"
     inkscape:window-maximized="0"
     inkscape:current-layer="Layer_1" /><g
     id="calendar2"
     transform="translate(-8.807,-2.5)"><path
       clip-rule="evenodd"
       d="m 11.824,17.229 h 1.872 c 0.173,0 0.312,-0.14 0.312,-0.311 v -1.872 c 0,-0.174 -0.14,-0.312 -0.312,-0.312 h -1.872 c -0.171,0 -0.312,0.139 -0.312,0.312 v 1.872 c 0,0.172 0.14,0.311 0.312,0.311 z"
       id="path4"
       inkscape:connector-curvature="0"
       style="fill:#151a20;fill-rule:evenodd" /><path
       clip-rule="evenodd"
       d="m 17.441,14.734 h -1.873 c -0.171,0 -0.311,0.139 -0.311,0.312 v 1.872 c 0,0.171 0.14,0.311 0.311,0.311 h 1.873 c 0.171,0 0.311,-0.14 0.311,-0.311 v -1.872 c 0,-0.173 -0.14,-0.312 -0.311,-0.312 z"
       id="path6"
       inkscape:connector-curvature="0"
       style="fill:#151a20;fill-rule:evenodd" /><path
       clip-rule="evenodd"
       d="m 21.185,14.734 h -1.872 c -0.173,0 -0.312,0.139 -0.312,0.312 v 1.872 c 0,0.171 0.14,0.311 0.312,0.311 h 1.872 c 0.173,0 0.313,-0.14 0.313,-0.311 v -1.872 c 0,-0.173 -0.141,-0.312 -0.313,-0.312 z"
       id="path8"
       inkscape:connector-curvature="0"
       style="fill:#151a20;fill-rule:evenodd" /><path
       clip-rule="evenodd"
       d="m 24.929,14.734 h -1.872 c -0.171,0 -0.312,0.139 -0.312,0.312 v 1.872 c 0,0.171 0.141,0.311 0.312,0.311 h 1.872 c 0.173,0 0.312,-0.14 0.312,-0.311 v -1.872 c 0,-0.173 -0.139,-0.312 -0.312,-0.312 z"
       id="path10"
       inkscape:connector-curvature="0"
       style="fill:#151a20;fill-rule:evenodd" /><path
       clip-rule="evenodd"
       d="m 11.824,12.487 h 13.105 c 0.173,0 0.312,-0.141 0.312,-0.312 v -0.872 c 0,-0.174 -0.14,-0.312 -0.312,-0.312 H 11.824 c -0.171,0 -0.312,0.139 -0.312,0.312 v 0.872 c 0,0.172 0.14,0.312 0.312,0.312 z"
       id="path12"
       inkscape:connector-curvature="0"
       style="fill:#151a20;fill-rule:evenodd" /><path
       clip-rule="evenodd"
       d="m 27.738,7.245 c 0,-0.689 -0.559,-1.248 -1.249,-1.248 h -1.246 l 0,0 H 25.241 V 4.75 c 0,-0.69 -0.56,-1.249 -1.248,-1.249 h -1.249 c -0.688,0 -1.248,0.559 -1.248,1.249 V 5.997 H 15.257 15.256 V 4.749 c 0,-0.69 -0.56,-1.249 -1.249,-1.249 h -1.248 c -0.689,0 -1.248,0.559 -1.248,1.249 v 1.248 h -1.248 c -0.689,0 -1.248,0.559 -1.248,1.248 l 0,11.172 c 0,0.69 0.559,1.251 1.248,1.251 H 26.49 c 0.689,0 1.249,-0.561 1.249,-1.251 V 7.245 z M 22.747,5.061 c 0,-0.172 0.139,-0.312 0.312,-0.312 h 0.625 c 0.172,0 0.311,0.14 0.311,0.312 v 1.873 c 0,0.171 -0.139,0.312 -0.311,0.312 h -0.625 c -0.173,0 -0.312,-0.14 -0.312,-0.312 V 5.061 z m -9.986,0 c 0,-0.172 0.14,-0.312 0.312,-0.312 h 0.624 c 0.173,0 0.312,0.14 0.312,0.312 v 1.873 c 0,0.171 -0.14,0.312 -0.312,0.312 h -0.624 c -0.173,0 -0.312,-0.14 -0.312,-0.312 V 5.061 z M 26.489,18.417 H 10.264 V 9.741 H 26.49 v 8.676 z"
       id="path14"
       inkscape:connector-curvature="0"
       style="fill:#151a20;fill-rule:evenodd" /></g></svg>