<?xml version="1.0" encoding="UTF-8" standalone="no"?>
<!-- Generator: Adobe Illustrator 15.1.0, SVG Export Plug-In . SVG Version: 6.00 Build 0)  -->

<svg
   xmlns:dc="http://purl.org/dc/elements/1.1/"
   xmlns:cc="http://creativecommons.org/ns#"
   xmlns:rdf="http://www.w3.org/1999/02/22-rdf-syntax-ns#"
   xmlns:svg="http://www.w3.org/2000/svg"
   xmlns="http://www.w3.org/2000/svg"
   xmlns:sodipodi="http://sodipodi.sourceforge.net/DTD/sodipodi-0.dtd"
   xmlns:inkscape="http://www.inkscape.org/namespaces/inkscape"
   version="1.1"
   id="Layer_1"
   x="0px"
   y="0px"
   width="36px"
   height="36px"
   viewBox="13.49 0 36 36"
   enable-background="new 13.49 0 36 36"
   xml:space="preserve"
   inkscape:version="0.48.4 r9939"
   sodipodi:docname="longomatch-project-delete.svg"><metadata
     id="metadata15"><rdf:RDF><cc:Work
         rdf:about=""><dc:format>image/svg+xml</dc:format><dc:type
           rdf:resource="http://purl.org/dc/dcmitype/StillImage" /></cc:Work></rdf:RDF></metadata><defs
     id="defs13" /><sodipodi:namedview
     pagecolor="#ffffff"
     bordercolor="#666666"
     borderopacity="1"
     objecttolerance="10"
     gridtolerance="10"
     guidetolerance="10"
     inkscape:pageopacity="0"
     inkscape:pageshadow="2"
     inkscape:window-width="640"
     inkscape:window-height="480"
     id="namedview11"
     showgrid="false"
     inkscape:zoom="6.5555556"
     inkscape:cx="18"
     inkscape:cy="18"
     inkscape:window-x="55"
     inkscape:window-y="228"
     inkscape:window-maximized="0"
     inkscape:current-layer="g4" /><path
     id="plus_12_"
     fill="#6A6A6A"
     d="M1730.626,833.451c-0.297,0-0.535-0.238-0.535-0.535v-5.23h-5.229  c-0.297,0-0.537-0.24-0.537-0.535v-3.461c0-0.297,0.24-0.535,0.537-0.535h5.229v-5.23c0-0.299,0.238-0.537,0.535-0.537h3.461  c0.296,0,0.536,0.238,0.536,0.537v5.23h5.229c0.297,0,0.537,0.238,0.537,0.535v3.461c0,0.295-0.24,0.535-0.537,0.535h-5.229v5.23  c0,0.297-0.24,0.535-0.536,0.535H1730.626z" /><g
     id="g4"><path
       fill="#6A6A6A"
       d="M24.937,8.2h3.015v6.553l3.539,1.802l3.451-1.802V8.2h3.102c0.177,0,0.338-0.107,0.403-0.269   c0.021-0.056,0.035-0.113,0.035-0.167c0-0.116-0.046-0.226-0.129-0.311L31.8,1.337c-0.086-0.086-0.199-0.126-0.31-0.126   c-0.112,0-0.224,0.04-0.31,0.126l-6.553,6.116c-0.084,0.084-0.129,0.194-0.129,0.311c0,0.055,0.011,0.111,0.033,0.167   C24.601,8.093,24.759,8.2,24.937,8.2z"
       id="path6" /><path
       d="m 27.606017,24.116882 2.268746,-2.135594 4.118644,-3.641627 C 35.039231,17.414963 37.265,17.029 38.66,17.029 l 3.351,0 0,-3.652 c 0,-0.252 -0.14,-0.478 -0.363,-0.591 l -5.345,-2.721 0.03,2.733 3.047,1.524 -7.89,3.909 -7.89,-3.909 3.048,-1.524 -0.012,-2.733 -5.304,2.721 c -0.222,0.113 -0.363,0.339 -0.363,0.591 l 0,9.781 c 0,0.251 0.142,0.478 0.363,0.59 l 4.505729,2.285864 0.610169,-0.759864 c 0.874063,-1.088499 0.142348,-0.200963 1.158119,-1.157118 z"
       id="path8"
       inkscape:connector-curvature="0"
       style="fill:#6a6a6a"
       sodipodi:nodetypes="scsscscccccccccssccss" /></g><path
     id="delete_2_"
     d="m 47.615746,19.121042 h -12.718 c -0.178,0 -0.349,0.071 -0.475,0.195 l -7.362,7.363 c -0.26,0.263 -0.26,0.686 0,0.947 l 7.362,7.363 c 0.126,0.125 0.297,0.195 0.475,0.195 h 12.719 c 0.369,0 0.667,-0.301 0.667,-0.671 v -14.724 c -10e-4,-0.368 -0.298,-0.668 -0.668,-0.668 z m -2.225,12.141 -1.028,1.026 c -0.282,0.285 -0.74,0.285 -1.027,0 l -3.083,-3.082 -3.084,3.084 c -0.284,0.285 -0.743,0.285 -1.029,0 l -1.027,-1.028 c -0.285,-0.286 -0.281,-0.744 0,-1.026 l 3.087,-3.085 -3.089,-3.083 c -0.283,-0.285 -0.283,-0.747 0,-1.028 l 1.028,-1.027 c 0.287,-0.284 0.744,-0.284 1.026,0 l 3.088,3.082 3.083,-3.082 c 0.285,-0.284 0.745,-0.284 1.027,0 l 1.028,1.027 c 0.285,0.281 0.285,0.742 0,1.028 l -3.084,3.083 3.084,3.082 c 0.286,0.284 0.286,0.743 0,1.029 z"
     inkscape:connector-curvature="0"
     style="fill:#c42527" /></svg>