<?xml version="1.0" encoding="utf-8"?>
<!-- Generator: Adobe Illustrator 16.2.0, SVG Export Plug-In . SVG Version: 6.00 Build 0)  -->
<!DOCTYPE svg PUBLIC "-//W3C//DTD SVG 1.1//EN" "http://www.w3.org/Graphics/SVG/1.1/DTD/svg11.dtd">
<svg version="1.1" id="Layer_1" xmlns="http://www.w3.org/2000/svg" xmlns:xlink="http://www.w3.org/1999/xlink" x="0px" y="0px"
	 width="36px" height="36px" viewBox="0 0 36 36" enable-background="new 0 0 36 36" xml:space="preserve">
<path id="plus_12_" fill="#6A6A6A" d="M1730.625,833.451c-0.297,0-0.533-0.238-0.533-0.535v-5.23h-5.229
	c-0.297,0-0.537-0.234-0.537-0.529v-3.461c0-0.303,0.24-0.535,0.537-0.535h5.229v-5.23c0-0.299,0.236-0.535,0.533-0.535h3.463
	c0.295,0,0.535,0.236,0.535,0.535v5.23h5.229c0.299,0,0.537,0.232,0.537,0.535v3.461c0,0.295-0.238,0.529-0.537,0.529h-5.229v5.23
	c0,0.297-0.24,0.535-0.535,0.535H1730.625z"/>
<g id="storage_1_">
	<g>
		<g>
			<g>
				<path fill="#1E1F20" d="M17.997,0.049c-9.911,0-17.948,3.014-17.948,6.732v4.486c0,3.718,8.037,6.73,17.948,6.73
					c9.914,0,17.952-3.012,17.952-6.73V6.781C35.949,3.063,27.911,0.049,17.997,0.049z"/>
				<path fill="#1E1F20" d="M17.997,30.34c-9.407,0-17.111-2.715-17.874-6.169c-0.039,0.185-0.073,0.37-0.073,0.562v4.488
					c0,3.715,8.037,6.73,17.948,6.73c9.915,0,17.953-3.018,17.953-6.73v-4.488c0-0.189-0.034-0.377-0.074-0.562
					C35.109,27.625,27.409,30.34,17.997,30.34z"/>
				<path fill="#1E1F20" d="M17.997,21.364c-9.407,0-17.111-2.718-17.874-6.169c-0.039,0.187-0.073,0.371-0.073,0.563v4.489
					c0,3.717,8.037,6.729,17.948,6.729c9.915,0,17.953-3.013,17.953-6.729v-4.489c0-0.191-0.034-0.375-0.074-0.563
					C35.109,18.646,27.409,21.364,17.997,21.364z"/>
			</g>
			<g>
				<path fill="#1E1F20" d="M17.997,0.049c-9.911,0-17.948,3.014-17.948,6.732v4.486c0,3.718,8.037,6.73,17.948,6.73
					c9.914,0,17.952-3.012,17.952-6.73V6.781C35.949,3.063,27.911,0.049,17.997,0.049z"/>
				<path fill="#1E1F20" d="M17.997,30.34c-9.407,0-17.111-2.715-17.874-6.169c-0.039,0.185-0.073,0.37-0.073,0.562v4.488
					c0,3.715,8.037,6.73,17.948,6.73c9.915,0,17.953-3.018,17.953-6.73v-4.488c0-0.189-0.034-0.377-0.074-0.562
					C35.109,27.625,27.409,30.34,17.997,30.34z"/>
				<path fill="#1E1F20" d="M17.997,21.364c-9.407,0-17.111-2.718-17.874-6.169c-0.039,0.187-0.073,0.371-0.073,0.563v4.489
					c0,3.717,8.037,6.729,17.948,6.729c9.915,0,17.953-3.013,17.953-6.729v-4.489c0-0.191-0.034-0.375-0.074-0.563
					C35.109,18.646,27.409,21.364,17.997,21.364z"/>
			</g>
		</g>
		<g>
			<g>
				<path fill="#1E1F20" d="M17.997,0.049c-9.911,0-17.948,3.014-17.948,6.732v4.486c0,3.718,8.037,6.73,17.948,6.73
					c9.914,0,17.952-3.012,17.952-6.73V6.781C35.949,3.063,27.911,0.049,17.997,0.049z"/>
				<path fill="#1E1F20" d="M17.997,30.34c-9.407,0-17.111-2.715-17.874-6.169c-0.039,0.185-0.073,0.37-0.073,0.562v4.488
					c0,3.715,8.037,6.73,17.948,6.73c9.915,0,17.953-3.018,17.953-6.73v-4.488c0-0.189-0.034-0.377-0.074-0.562
					C35.109,27.625,27.409,30.34,17.997,30.34z"/>
				<path fill="#1E1F20" d="M17.997,21.364c-9.407,0-17.111-2.718-17.874-6.169c-0.039,0.187-0.073,0.371-0.073,0.563v4.489
					c0,3.717,8.037,6.729,17.948,6.729c9.915,0,17.953-3.013,17.953-6.729v-4.489c0-0.191-0.034-0.375-0.074-0.563
					C35.109,18.646,27.409,21.364,17.997,21.364z"/>
			</g>
			<g>
				<path fill="#1E1F20" d="M17.997,0.049c-9.911,0-17.948,3.014-17.948,6.732v4.486c0,3.718,8.037,6.73,17.948,6.73
					c9.914,0,17.952-3.012,17.952-6.73V6.781C35.949,3.063,27.911,0.049,17.997,0.049z"/>
				<path fill="#1E1F20" d="M17.997,30.34c-9.407,0-17.111-2.715-17.874-6.169c-0.039,0.185-0.073,0.37-0.073,0.562v4.488
					c0,3.715,8.037,6.73,17.948,6.73c9.915,0,17.953-3.018,17.953-6.73v-4.488c0-0.189-0.034-0.377-0.074-0.562
					C35.109,27.625,27.409,30.34,17.997,30.34z"/>
				<path fill="#1E1F20" d="M17.997,21.364c-9.407,0-17.111-2.718-17.874-6.169c-0.039,0.187-0.073,0.371-0.073,0.563v4.489
					c0,3.717,8.037,6.729,17.948,6.729c9.915,0,17.953-3.013,17.953-6.729v-4.489c0-0.191-0.034-0.375-0.074-0.563
					C35.109,18.646,27.409,21.364,17.997,21.364z"/>
			</g>
		</g>
	</g>
	<g>
		<g>
			<g>
				<path fill="#1E1F20" d="M17.997,0.049c-9.911,0-17.948,3.014-17.948,6.732v4.486c0,3.718,8.037,6.73,17.948,6.73
					c9.914,0,17.952-3.012,17.952-6.73V6.781C35.949,3.063,27.911,0.049,17.997,0.049z"/>
				<path fill="#1E1F20" d="M17.997,30.34c-9.407,0-17.111-2.715-17.874-6.169c-0.039,0.185-0.073,0.37-0.073,0.562v4.488
					c0,3.715,8.037,6.73,17.948,6.73c9.915,0,17.953-3.018,17.953-6.73v-4.488c0-0.189-0.034-0.377-0.074-0.562
					C35.109,27.625,27.409,30.34,17.997,30.34z"/>
				<path fill="#1E1F20" d="M17.997,21.364c-9.407,0-17.111-2.718-17.874-6.169c-0.039,0.187-0.073,0.371-0.073,0.563v4.489
					c0,3.717,8.037,6.729,17.948,6.729c9.915,0,17.953-3.013,17.953-6.729v-4.489c0-0.191-0.034-0.375-0.074-0.563
					C35.109,18.646,27.409,21.364,17.997,21.364z"/>
			</g>
			<g>
				<path fill="#1E1F20" d="M17.997,0.049c-9.911,0-17.948,3.014-17.948,6.732v4.486c0,3.718,8.037,6.73,17.948,6.73
					c9.914,0,17.952-3.012,17.952-6.73V6.781C35.949,3.063,27.911,0.049,17.997,0.049z"/>
				<path fill="#1E1F20" d="M17.997,30.34c-9.407,0-17.111-2.715-17.874-6.169c-0.039,0.185-0.073,0.37-0.073,0.562v4.488
					c0,3.715,8.037,6.73,17.948,6.73c9.915,0,17.953-3.018,17.953-6.73v-4.488c0-0.189-0.034-0.377-0.074-0.562
					C35.109,27.625,27.409,30.34,17.997,30.34z"/>
				<path fill="#1E1F20" d="M17.997,21.364c-9.407,0-17.111-2.718-17.874-6.169c-0.039,0.187-0.073,0.371-0.073,0.563v4.489
					c0,3.717,8.037,6.729,17.948,6.729c9.915,0,17.953-3.013,17.953-6.729v-4.489c0-0.191-0.034-0.375-0.074-0.563
					C35.109,18.646,27.409,21.364,17.997,21.364z"/>
			</g>
		</g>
		<g>
			<g>
				<path fill="#1E1F20" d="M17.997,0.049c-9.911,0-17.948,3.014-17.948,6.732v4.486c0,3.718,8.037,6.73,17.948,6.73
					c9.914,0,17.952-3.012,17.952-6.73V6.781C35.949,3.063,27.911,0.049,17.997,0.049z"/>
				<path fill="#1E1F20" d="M17.997,30.34c-9.407,0-17.111-2.715-17.874-6.169c-0.039,0.185-0.073,0.37-0.073,0.562v4.488
					c0,3.715,8.037,6.73,17.948,6.73c9.915,0,17.953-3.018,17.953-6.73v-4.488c0-0.189-0.034-0.377-0.074-0.562
					C35.109,27.625,27.409,30.34,17.997,30.34z"/>
				<path fill="#1E1F20" d="M17.997,21.364c-9.407,0-17.111-2.718-17.874-6.169c-0.039,0.187-0.073,0.371-0.073,0.563v4.489
					c0,3.717,8.037,6.729,17.948,6.729c9.915,0,17.953-3.013,17.953-6.729v-4.489c0-0.191-0.034-0.375-0.074-0.563
					C35.109,18.646,27.409,21.364,17.997,21.364z"/>
			</g>
			<g>
				<path fill="#1E1F20" d="M17.997,0.049c-9.911,0-17.948,3.014-17.948,6.732v4.486c0,3.718,8.037,6.73,17.948,6.73
					c9.914,0,17.952-3.012,17.952-6.73V6.781C35.949,3.063,27.911,0.049,17.997,0.049z"/>
				<path fill="#1E1F20" d="M17.997,30.34c-9.407,0-17.111-2.715-17.874-6.169c-0.039,0.185-0.073,0.37-0.073,0.562v4.488
					c0,3.715,8.037,6.73,17.948,6.73c9.915,0,17.953-3.018,17.953-6.73v-4.488c0-0.189-0.034-0.377-0.074-0.562
					C35.109,27.625,27.409,30.34,17.997,30.34z"/>
				<path fill="#1E1F20" d="M17.997,21.364c-9.407,0-17.111-2.718-17.874-6.169c-0.039,0.187-0.073,0.371-0.073,0.563v4.489
					c0,3.717,8.037,6.729,17.948,6.729c9.915,0,17.953-3.013,17.953-6.729v-4.489c0-0.191-0.034-0.375-0.074-0.563
					C35.109,18.646,27.409,21.364,17.997,21.364z"/>
			</g>
		</g>
	</g>
</g>
</svg>
