<?xml version="1.0" encoding="utf-8"?>
<!-- Generator: Adobe Illustrator 15.1.0, SVG Export Plug-In . SVG Version: 6.00 Build 0)  -->
<!DOCTYPE svg PUBLIC "-//W3C//DTD SVG 1.1//EN" "http://www.w3.org/Graphics/SVG/1.1/DTD/svg11.dtd">
<svg version="1.1" id="Layer_1" xmlns="http://www.w3.org/2000/svg" xmlns:xlink="http://www.w3.org/1999/xlink" x="0px" y="0px"
	 width="36px" height="36px" viewBox="13.49 0 36 36" enable-background="new 13.49 0 36 36" xml:space="preserve">
<path id="plus_12_" fill="#6A6A6A" d="M1730.626,833.451c-0.297,0-0.535-0.238-0.535-0.535v-5.23h-5.229
	c-0.297,0-0.537-0.24-0.537-0.535v-3.461c0-0.297,0.24-0.535,0.537-0.535h5.229v-5.23c0-0.299,0.238-0.537,0.535-0.537h3.461
	c0.296,0,0.536,0.238,0.536,0.537v5.23h5.229c0.297,0,0.537,0.238,0.537,0.535v3.461c0,0.295-0.24,0.535-0.537,0.535h-5.229v5.23
	c0,0.297-0.24,0.535-0.536,0.535H1730.626z"/>
<g>
	<path fill="none" d="M16.195,8.215v3.446v3.287v5.671v3.328v3.404h14.631v-3.997c-2.747-0.37-4.873-2.724-4.873-5.57
		s2.126-5.201,4.873-5.571V8.215H16.195z"/>
	<path fill="none" d="M46.8,11.661V8.215H32.17v3.972c2.826,0.295,5.038,2.692,5.038,5.597s-2.212,5.3-5.038,5.596v2.631
		c0.046-0.049,0.087-0.101,0.134-0.147l6.984-6.984c1.227-1.227,2.857-1.901,4.591-1.901c1.032,0,2.025,0.245,2.921,0.697v-2.726
		V11.661z"/>
	<path fill="none" d="M35.529,17.784c0-1.977-1.462-3.613-3.359-3.9v3.478c0.066,0.115,0.114,0.242,0.114,0.383
		c0,0.143-0.048,0.27-0.114,0.383v3.555C34.067,21.397,35.529,19.759,35.529,17.784z"/>
	<path fill="none" d="M27.633,17.784c0,1.918,1.377,3.52,3.193,3.874v-3.53c-0.066-0.113-0.114-0.24-0.114-0.383
		c0-0.141,0.048-0.268,0.114-0.383v-3.453C29.01,14.262,27.633,15.864,27.633,17.784z"/>
	<path fill="#6A6A6A" d="M32.17,23.379c2.826-0.296,5.038-2.691,5.038-5.596s-2.212-5.301-5.038-5.597V8.215H46.8v3.446v3.287v2.726
		c0.608,0.308,1.172,0.708,1.668,1.204c0.004,0.004,0.008,0.009,0.012,0.013v-3.942v-3.287V6.536H14.516v5.125v3.287v5.671v3.328
		v5.084h16.047c0.251-1.127,0.801-2.163,1.607-3.021V23.379z M32.17,18.127c0.066-0.113,0.114-0.24,0.114-0.383
		c0-0.141-0.048-0.268-0.114-0.383v-3.478c1.897,0.287,3.359,1.923,3.359,3.9c0,1.976-1.462,3.613-3.359,3.898V18.127z
		 M30.826,17.362c-0.066,0.115-0.114,0.242-0.114,0.383c0,0.143,0.048,0.27,0.114,0.383v3.53c-1.816-0.354-3.193-1.956-3.193-3.874
		c0-1.92,1.377-3.521,3.193-3.875V17.362z M25.953,17.784c0,2.847,2.126,5.2,4.873,5.57v3.997H16.195v-3.404v-3.328v-5.671v-3.287
		V8.215h14.631v3.998C28.079,12.583,25.953,14.937,25.953,17.784z"/>
</g>
<path id="clip_1_" fill="#50B44D" d="M47.054,20.292c-1.753-1.753-4.597-1.753-6.352,0.001l-6.984,6.985
	c-1.755,1.754-1.755,4.599-0.001,6.352c1.752,1.755,4.598,1.755,6.352,0l1.479-1.438c-0.795-0.017-1.521-0.277-2.136-0.696
	l-0.755,0.723c-0.975,0.976-2.555,0.976-3.528,0c-0.975-0.973-0.975-2.554,0-3.529l6.986-6.985c0.975-0.974,2.554-0.974,3.528,0
	c0.976,0.976,0.976,2.553,0.001,3.528l-3.481,3.506c-0.292,0.291-0.767,0.291-1.06,0c-0.292-0.293-0.292-0.767,0-1.06l2.629-2.652
	c0.195-0.195,0.196-0.511,0-0.707l-0.705-0.704c-0.195-0.194-0.511-0.194-0.706,0l-2.628,2.652c-1.072,1.072-1.072,2.812,0,3.881
	c1.07,1.073,2.811,1.073,3.88,0l3.481-3.504C48.809,24.89,48.809,22.045,47.054,20.292z"/>
</svg>
