<?xml version="1.0" encoding="UTF-8" standalone="no"?>
<!-- Generator: Adobe Illustrator 15.1.0, SVG Export Plug-In . SVG Version: 6.00 Build 0)  -->

<svg
   xmlns:dc="http://purl.org/dc/elements/1.1/"
   xmlns:cc="http://creativecommons.org/ns#"
   xmlns:rdf="http://www.w3.org/1999/02/22-rdf-syntax-ns#"
   xmlns:svg="http://www.w3.org/2000/svg"
   xmlns="http://www.w3.org/2000/svg"
   xmlns:sodipodi="http://sodipodi.sourceforge.net/DTD/sodipodi-0.dtd"
   xmlns:inkscape="http://www.inkscape.org/namespaces/inkscape"
   version="1.1"
   id="Layer_1"
   x="0px"
   y="0px"
   width="14.000189"
   height="14"
   viewBox="0 0 14.000189 14"
   enable-background="new 0 0 16 12"
   xml:space="preserve"
   inkscape:version="0.48.4 r9939"
   sodipodi:docname="longomatch-zoom-in.svg"><metadata
     id="metadata9"><rdf:RDF><cc:Work
         rdf:about=""><dc:format>image/svg+xml</dc:format><dc:type
           rdf:resource="http://purl.org/dc/dcmitype/StillImage" /></cc:Work></rdf:RDF></metadata><defs
     id="defs7" /><sodipodi:namedview
     pagecolor="#ffffff"
     bordercolor="#666666"
     borderopacity="1"
     objecttolerance="10"
     gridtolerance="10"
     guidetolerance="10"
     inkscape:pageopacity="0"
     inkscape:pageshadow="2"
     inkscape:window-width="640"
     inkscape:window-height="480"
     id="namedview5"
     showgrid="false"
     fit-margin-top="0"
     fit-margin-left="0"
     fit-margin-right="0"
     fit-margin-bottom="0"
     inkscape:zoom="32.679748"
     inkscape:cx="7.0988871"
     inkscape:cy="6.0586336"
     inkscape:window-x="537"
     inkscape:window-y="57"
     inkscape:window-maximized="0"
     inkscape:current-layer="Layer_1" /><path
     d="m 13.885887,11.726 c -0.141,0.171 -0.393,0.274 -0.666,0.274 H 0.78088715 c -0.27,0 -0.521,-0.102 -0.663,-0.27 -0.143,-0.17 -0.157,-0.38 -0.036,-0.558 L 4.7018871,4.3829996 c 0.159,-0.235 0.493,-0.384 0.87,-0.384 0.388,0 0.726,0.155 0.882,0.407 l 1.979,3.197 0.611,-0.859 c 0.135,-0.187 0.514,-0.357 0.807,-0.357 0.2889999,0 0.5819999,0.102 0.8299999,0.289 0.053,0.04 0.098,0.084 0.135,0.134 l 3.096,4.3570004 c 0.126,0.177 0.117,0.388 -0.026,0.559 z"
     id="path3"
     inkscape:connector-curvature="0"
     style="fill:#6a6a6a" /></svg>