<?xml version="1.0" encoding="utf-8"?>
<!-- Generator: Adobe Illustrator 16.0.0, SVG Export Plug-In . SVG Version: 6.00 Build 0)  -->
<!DOCTYPE svg PUBLIC "-//W3C//DTD SVG 1.1//EN" "http://www.w3.org/Graphics/SVG/1.1/DTD/svg11.dtd">
<svg version="1.1" id="Layer_1" xmlns="http://www.w3.org/2000/svg" xmlns:xlink="http://www.w3.org/1999/xlink" x="0px" y="0px"
	 width="36px" height="36px" viewBox="0 0 36 36" enable-background="new 0 0 36 36" xml:space="preserve">
<path id="plus_12_" fill="#6A6A6A" d="M1730.626,833.451c-0.297,0-0.535-0.238-0.535-0.535v-5.23h-5.229
	c-0.298,0-0.537-0.238-0.537-0.533v-3.461c0-0.299,0.239-0.535,0.537-0.535h5.229v-5.23c0-0.299,0.238-0.537,0.535-0.537h3.461
	c0.296,0,0.536,0.238,0.536,0.537v5.23h5.229c0.299,0,0.537,0.236,0.537,0.535v3.461c0,0.295-0.238,0.533-0.537,0.533h-5.229v5.23
	c0,0.297-0.24,0.535-0.536,0.535H1730.626z"/>
<g>
	<path fill="#6A6A6A" d="M6.038,22.514l7.547-3.064c-1.037-0.693-1.994-1.375-2.655-3.375H7.614l-6.545,2.714
		c0,0-1.069,0.471-1.069,1.498v1.219c0,0.67,0.248,1.568,0.921,1.568h4.373L6.038,22.514z"/>
	<path fill="#6A6A6A" d="M9.923,15.675c0,0,0.244-0.004,0.613-0.062c-0.172-0.528-0.311-1.096-0.398-1.721
		c-0.441,0.102-0.905-0.004-1.262-0.284c-0.361-0.284-0.572-0.719-0.572-1.179c0-2.713,0.961-7.099,4.053-9.533
		C11.644,2.587,10.815,2.39,9.819,2.39c-6.258,0-6.258,7.677-6.258,7.677C4.458,9.851,4.903,9.83,4.903,9.83
		C4.914,15.675,9.923,15.675,9.923,15.675z"/>
	<path fill="#6A6A6A" d="M27.979,18.075h1.871c1.086,0,2.15,0.882,2.15,1.968v3.031h2.783c0.672,0,1.217-0.898,1.217-1.568v-1.219
		c0-1.01-1.217-1.498-1.217-1.498l-6.694-2.714h-3.153c-0.754,2-1.9,2.968-3.111,3.662L26,21.453v-1.41
		C26,18.957,26.893,18.075,27.979,18.075z"/>
	<path fill="#6A6A6A" d="M27.553,12.162c0.016,0.086,0.023,0.249,0.023,0.339c0,0.828-0.672,1.574-1.5,1.574
		c-0.006,0-0.014,0-0.02,0c-0.111,0-0.223-0.088-0.332-0.111c-0.077,0.559-0.2,1.028-0.345,1.509
		c0.773,0.235,1.366,0.223,1.366,0.223s5.018-0.01,5.018-5.852c0.588,0.006,1.344,0.225,1.344,0.225s0-7.676-6.465-7.676
		c-1.206,0-2.176,0.288-2.961,0.747C26.527,5.532,27.494,9.526,27.553,12.162z"/>
	<path fill="#6A6A6A" d="M20,25.656c0-1.084,1.279-1.582,2.364-1.582H26v-0.941l-6.354-2.059h-4.665l-8.488,2.982
		c0,0-1.493,0.115-1.493,1.428v1.557c0,0.857,0.573,2.033,1.431,2.033h14.284c-0.199-1-0.715-1.152-0.715-1.545V25.656z"/>
	<path fill="#6A6A6A" d="M11.519,12.126c0.014,7.467,6.413,7.467,6.413,7.467s6.408,0,6.408-7.461
		c0.752,0.006,1.717,0.293,1.717,0.293s0-9.803-8.258-9.803c-7.995,0-7.995,9.807-7.995,9.807
		C10.95,12.154,11.519,12.126,11.519,12.126z"/>
	<path id="plus_2_" fill="#50B44D" d="M27.979,33.609c-0.259,0-0.469-0.209-0.469-0.467v-5.146h-5.146
		c-0.26,0-0.468-0.209-0.468-0.467v-1.873c0-0.258,0.208-0.467,0.468-0.467h5.146v-5.146c0-0.26,0.21-0.469,0.469-0.469h1.871
		c0.259,0,0.469,0.209,0.469,0.469v5.146h5.146c0.258,0,0.467,0.209,0.467,0.467v1.873c0,0.258-0.209,0.467-0.467,0.467h-5.146
		v5.146c0,0.258-0.21,0.467-0.469,0.467H27.979z"/>
</g>
</svg>
