<?xml version="1.0" encoding="utf-8"?>
<!-- Generator: Adobe Illustrator 15.1.0, SVG Export Plug-In . SVG Version: 6.00 Build 0)  -->
<!DOCTYPE svg PUBLIC "-//W3C//DTD SVG 1.1//EN" "http://www.w3.org/Graphics/SVG/1.1/DTD/svg11.dtd">
<svg version="1.1" id="Layer_1" xmlns="http://www.w3.org/2000/svg" xmlns:xlink="http://www.w3.org/1999/xlink" x="0px" y="0px"
	 width="36px" height="36px" viewBox="13.49 0 36 36" enable-background="new 13.49 0 36 36" xml:space="preserve">
<polygon fill="none" points="36.181,22.717 36.181,20.976 34.449,22.717 "/>
<circle fill="none" cx="36.338" cy="7.131" r="2.618"/>
<path fill="#6A6A6A" d="M32.951,22.717h1.498l1.731-1.741v-1.489c0-1.398,1.138-2.536,2.535-2.536h1.47l1.842-1.851
	c0.346-0.344,0.408-0.7,0.408-1.005V2.765c0-0.961-0.782-1.742-1.746-1.742l-11.342,0.01c-0.35,0-0.601,0.116-0.945,0.46
	L14.985,14.895c-0.626,0.625-0.626,1.638,0,2.266L26.45,28.474c0.627,0.625,1.644,0.625,2.271,0l1.692-1.701v-1.52
	C30.414,23.855,31.552,22.717,32.951,22.717z M36.338,4.513c1.446,0,2.621,1.173,2.621,2.618c0,1.444-1.175,2.618-2.621,2.618
	c-1.445,0-2.619-1.174-2.619-2.618C33.719,5.687,34.893,4.513,36.338,4.513z"/>
<path id="plus_12_" fill="#50B34B" d="M1730.626,833.451c-0.297,0-0.535-0.238-0.535-0.535v-5.23h-5.229
	c-0.297,0-0.537-0.24-0.537-0.535v-3.461c0-0.297,0.24-0.535,0.537-0.535h5.229v-5.23c0-0.299,0.238-0.537,0.535-0.537h3.461
	c0.296,0,0.536,0.238,0.536,0.537v5.23h5.229c0.297,0,0.537,0.238,0.537,0.535v3.461c0,0.295-0.24,0.535-0.537,0.535h-5.229v5.23
	c0,0.297-0.24,0.535-0.536,0.535H1730.626z"/>
<path id="plus_1_" fill="#50B34B" d="M38.716,35.015c-0.297,0-0.535-0.239-0.535-0.536v-5.23h-5.229
	c-0.297,0-0.537-0.239-0.537-0.534v-3.461c0-0.298,0.24-0.536,0.537-0.536h5.229v-5.23c0-0.298,0.238-0.536,0.535-0.536h3.461
	c0.296,0,0.536,0.238,0.536,0.536v5.23h5.229c0.297,0,0.537,0.238,0.537,0.536v3.461c0,0.295-0.24,0.534-0.537,0.534h-5.229v5.23
	c0,0.297-0.24,0.536-0.536,0.536H38.716z"/>
</svg>
