<?xml version="1.0" encoding="utf-8"?>
<!-- Generator: Adobe Illustrator 15.1.0, SVG Export Plug-In . SVG Version: 6.00 Build 0)  -->
<!DOCTYPE svg PUBLIC "-//W3C//DTD SVG 1.1//EN" "http://www.w3.org/Graphics/SVG/1.1/DTD/svg11.dtd">
<svg version="1.1" id="Layer_1" xmlns="http://www.w3.org/2000/svg" xmlns:xlink="http://www.w3.org/1999/xlink" x="0px" y="0px"
	 width="36px" height="36px" viewBox="13.49 0 36 36" enable-background="new 13.49 0 36 36" xml:space="preserve">
<path id="plus_12_" fill="#6A6A6A" d="M1730.626,833.451c-0.297,0-0.535-0.238-0.535-0.535v-5.23h-5.229
	c-0.297,0-0.537-0.24-0.537-0.535v-3.461c0-0.297,0.24-0.535,0.537-0.535h5.229v-5.23c0-0.299,0.238-0.537,0.535-0.537h3.461
	c0.296,0,0.536,0.238,0.536,0.537v5.23h5.229c0.297,0,0.537,0.238,0.537,0.535v3.461c0,0.295-0.24,0.535-0.537,0.535h-5.229v5.23
	c0,0.297-0.24,0.535-0.536,0.535H1730.626z"/>
<g id="categories_1_">
	<path fill="#6A6A6A" d="M48.219,20.574L44.016,3.761c-0.255-0.897-1.085-1.523-2.02-1.523H20.982c-0.937,0-1.767,0.628-2.02,1.523
		L14.757,20.58c-0.053,0.192-0.08,0.384-0.08,0.573v9.456c0,1.567,0.976,3.152,3.152,3.152H45.15c1.567,0,3.152-0.976,3.152-3.152
		v-9.456C48.301,20.961,48.273,20.766,48.219,20.574z M38.442,21.153c-0.397,0-0.762,0.224-0.94,0.58l-1.812,3.621h-8.406
		l-1.813-3.621c-0.178-0.356-0.541-0.58-0.94-0.58h-5.653l3.686-14.711h17.848l3.687,14.711H38.442z"/>
	<polygon fill="#6A6A6A" points="38.845,8.543 24.134,8.543 23.713,10.644 39.266,10.644 	"/>
	<polygon fill="#6A6A6A" points="22.032,19.05 40.944,19.05 40.525,16.948 22.452,16.948 	"/>
	<polygon fill="#6A6A6A" points="39.685,12.746 23.292,12.746 22.873,14.847 40.105,14.847 	"/>
</g>
</svg>
