<?xml version="1.0" encoding="utf-8"?>
<!-- Generator: Adobe Illustrator 16.0.0, SVG Export Plug-In . SVG Version: 6.00 Build 0)  -->
<!DOCTYPE svg PUBLIC "-//W3C//DTD SVG 1.1//EN" "http://www.w3.org/Graphics/SVG/1.1/DTD/svg11.dtd">
<svg version="1.1" id="Layer_1" xmlns="http://www.w3.org/2000/svg" xmlns:xlink="http://www.w3.org/1999/xlink" x="0px" y="0px"
	 width="36px" height="36px" viewBox="0 0 36 36" enable-background="new 0 0 36 36" xml:space="preserve">
<path id="plus_12_" fill="#6A6A6A" d="M1730.626,833.451c-0.297,0-0.535-0.238-0.535-0.535v-5.23h-5.229
	c-0.299,0-0.537-0.238-0.537-0.533v-3.461c0-0.299,0.238-0.535,0.537-0.535h5.229v-5.23c0-0.299,0.238-0.537,0.535-0.537h3.461
	c0.296,0,0.536,0.238,0.536,0.537v5.23h5.229c0.298,0,0.536,0.236,0.536,0.535v3.461c0,0.295-0.238,0.533-0.536,0.533h-5.229v5.23
	c0,0.297-0.24,0.535-0.536,0.535H1730.626z"/>
<g>
	<path fill="#6B6A6A" d="M32.591,13.698c-1.685,1.642-3.042,2.439-4.144,2.439l-0.222-0.013l-0.873-0.112
		c-0.007,0.289-0.011,0.578-0.018,0.89c-0.002,0.104-0.005,0.2-0.008,0.302c0.917-0.781,2.386-0.75,3.244,0.114l3.181,3.181
		c0.261-0.199,0.572-0.466,0.942-0.826c1.48-1.44,1.299-2.066,1.299-2.066s-2.258-3.151-3.124-4.201
		C32.773,13.505,32.695,13.597,32.591,13.698z"/>
	<path fill="#6B6A6A" d="M9.589,25.663l-0.167-0.877c-0.022-0.119-0.557-2.967-0.654-7.869c-0.003-0.091-0.006-0.174-0.007-0.262
		c-0.023,0-0.039,0.004-0.064,0.004c-1.129-0.001-1.633-0.327-1.86-0.654c-0.332-0.104-0.685-0.262-1.058-0.483
		c-1.587,0.417-2.727,1.148-3.102,1.533c-0.442,0.451-2.567,3.416-2.567,3.416s-0.134,0.481,0.995,1.58
		c1.148,1.117,1.573,1.073,1.573,1.073l1.793-2.229c0,0,0,1.127,0.057,3.894c0.054,2.767,0.359,4.35,0.359,4.35
		c0.909,0.619,3.811,0.647,3.811,0.647s2.898-0.028,3.811-0.647c0,0,0.148-0.791,0.255-2.208c-0.95-0.198-1.828-0.485-2.447-0.909
		L9.589,25.663z"/>
	<path fill="#6B6A6A" d="M20.258,25.235c0-0.628,0.256-1.244,0.701-1.689l4.191-4.192c0.042-0.751,0.076-1.578,0.094-2.479
		c0.096-4.775,0.096-6.721,0.096-6.721L28.436,14c0,0,0.736,0.075,2.714-1.852c1.951-1.897,1.715-2.727,1.715-2.727
		s-3.666-5.116-4.429-5.894c-0.738-0.757-3.203-2.296-6.577-2.92c-0.096-0.017-0.187-0.029-0.215-0.011
		c-0.051,0.027-0.063,0.03-0.063,0.147c-0.006,0.545-0.288,2.102-3.532,2.102c-3.243,0-3.527-1.556-3.527-2.102
		c0-0.117-0.014-0.12-0.064-0.147c-0.028-0.019-0.118-0.006-0.215,0.011c-3.374,0.624-5.834,2.163-6.576,2.92
		C6.904,4.306,3.237,9.422,3.237,9.422s-0.239,0.829,1.717,2.727C6.933,14.076,7.667,14,7.667,14l3.094-3.848
		c0,0,0,1.946,0.097,6.721c0.095,4.773,0.617,7.502,0.617,7.502c1.574,1.068,6.577,1.119,6.577,1.119s0.987-0.011,2.222-0.115
		C20.27,25.331,20.258,25.284,20.258,25.235z"/>
	<path fill="#6B6A6A" d="M25.6,27.625h-2.951c-0.486,0-0.946-0.145-1.331-0.402c-0.624,0.06-1.227,0.096-1.753,0.113
		c0.114,1.036,0.221,1.602,0.221,1.602c1.188,0.812,4.983,0.848,4.983,0.848s0.335-0.004,0.831-0.029V27.625z"/>
</g>
<path id="arrow-down_1_" fill="#50B44D" d="M28.25,18.375l-6.23,6.231c-0.17,0.17-0.262,0.397-0.262,0.629
	c0,0.115,0.022,0.23,0.068,0.341c0.137,0.332,0.462,0.549,0.822,0.549H27.1v7.985c0,0.492,0.397,0.89,0.89,0.89h1.78
	c0.492,0,0.89-0.397,0.89-0.89v-7.985h4.451c0.36,0,0.685-0.217,0.821-0.549C35.979,25.466,36,25.351,36,25.235
	c0-0.231-0.09-0.459-0.261-0.629l-6.231-6.231C29.161,18.026,28.598,18.026,28.25,18.375z"/>
</svg>
