<?xml version="1.0" encoding="utf-8"?>
<!-- Generator: Adobe Illustrator 15.1.0, SVG Export Plug-In . SVG Version: 6.00 Build 0)  -->
<!DOCTYPE svg PUBLIC "-//W3C//DTD SVG 1.1//EN" "http://www.w3.org/Graphics/SVG/1.1/DTD/svg11.dtd">
<svg version="1.1" id="Layer_1" xmlns="http://www.w3.org/2000/svg" xmlns:xlink="http://www.w3.org/1999/xlink" x="0px" y="0px"
	 width="20px" height="20px" viewBox="0 0 20 20" enable-background="new 0 0 20 20" xml:space="preserve">
<path id="cross" fill="#6A6A6A" d="M12.132,10l5.764-4.868c0.196-0.166,0.196-0.434,0-0.601l-1.421-1.201
	c-0.099-0.083-0.228-0.125-0.356-0.125c-0.128,0-0.257,0.042-0.355,0.125L10,8.199L4.236,3.331c-0.196-0.166-0.515-0.166-0.711,0
	L2.104,4.532c-0.098,0.083-0.147,0.192-0.147,0.3c0,0.108,0.049,0.217,0.147,0.3L7.867,10l-5.763,4.868
	c-0.196,0.165-0.196,0.434,0,0.601l1.421,1.199c0.099,0.084,0.227,0.125,0.356,0.125c0.128,0,0.257-0.041,0.355-0.125L10,11.801
	l5.763,4.867c0.197,0.166,0.515,0.166,0.712,0l1.421-1.199c0.099-0.084,0.147-0.192,0.147-0.301s-0.049-0.217-0.147-0.3L12.132,10z"
	/>
</svg>
