<?xml version="1.0" encoding="utf-8"?>
<!-- Generator: Adobe Illustrator 15.1.0, SVG Export Plug-In . SVG Version: 6.00 Build 0)  -->
<!DOCTYPE svg PUBLIC "-//W3C//DTD SVG 1.1//EN" "http://www.w3.org/Graphics/SVG/1.1/DTD/svg11.dtd">
<svg version="1.1" id="Layer_1" xmlns="http://www.w3.org/2000/svg" xmlns:xlink="http://www.w3.org/1999/xlink" x="0px" y="0px"
	 width="36px" height="36px" viewBox="13.49 0 36 36" enable-background="new 13.49 0 36 36" xml:space="preserve">
<circle fill="none" cx="36.338" cy="7.131" r="2.618"/>
<path fill="#6A6A6A" d="M25.839,25.103l7.37-7.371c0.516-0.508,1.183-0.781,1.889-0.781h5.088l1.842-1.851
	c0.346-0.344,0.408-0.7,0.408-1.005V2.765c0-0.961-0.782-1.742-1.746-1.742l-11.342,0.01c-0.35,0-0.601,0.116-0.945,0.46
	L14.985,14.895c-0.626,0.625-0.626,1.638,0,2.266l10.098,9.965C25.044,26.397,25.29,25.658,25.839,25.103z M36.338,4.513
	c1.446,0,2.621,1.173,2.621,2.618c0,1.444-1.175,2.618-2.621,2.618c-1.445,0-2.619-1.174-2.619-2.618
	C33.719,5.687,34.893,4.513,36.338,4.513z"/>
<path id="delete_2_" fill="#C42527" d="M47.816,18.951H35.098c-0.178,0-0.349,0.071-0.475,0.195l-7.362,7.363
	c-0.26,0.263-0.26,0.686,0,0.947l7.362,7.363c0.126,0.125,0.297,0.195,0.475,0.195h12.719c0.369,0,0.667-0.301,0.667-0.671V19.619
	C48.483,19.251,48.186,18.951,47.816,18.951z M45.591,31.092l-1.028,1.026c-0.282,0.285-0.74,0.285-1.027,0l-3.083-3.082
	l-3.084,3.084c-0.284,0.285-0.743,0.285-1.029,0l-1.027-1.028c-0.285-0.286-0.281-0.744,0-1.026l3.087-3.085l-3.089-3.083
	c-0.283-0.285-0.283-0.747,0-1.028l1.028-1.027c0.287-0.284,0.744-0.284,1.026,0l3.088,3.082l3.083-3.082
	c0.285-0.284,0.745-0.284,1.027,0l1.028,1.027c0.285,0.281,0.285,0.742,0,1.028l-3.084,3.083l3.084,3.082
	C45.877,30.347,45.877,30.806,45.591,31.092z"/>
</svg>
