<?xml version="1.0" encoding="utf-8"?>
<!-- Generator: Adobe Illustrator 15.1.0, SVG Export Plug-In . SVG Version: 6.00 Build 0)  -->
<!DOCTYPE svg PUBLIC "-//W3C//DTD SVG 1.1//EN" "http://www.w3.org/Graphics/SVG/1.1/DTD/svg11.dtd">
<svg version="1.1" id="Layer_1" xmlns="http://www.w3.org/2000/svg" xmlns:xlink="http://www.w3.org/1999/xlink" x="0px" y="0px"
	 width="36px" height="36px" viewBox="0 0 36 36" enable-background="new 0 0 36 36" xml:space="preserve">
<path id="plus_12_" fill="#6A6A6A" d="M1730.626,833.451c-0.297,0-0.535-0.238-0.535-0.535v-5.23h-5.229
	c-0.298,0-0.537-0.239-0.537-0.534v-3.461c0-0.298,0.239-0.535,0.537-0.535h5.229v-5.23c0-0.299,0.238-0.537,0.535-0.537h3.461
	c0.296,0,0.536,0.238,0.536,0.537v5.23h5.229c0.298,0,0.537,0.237,0.537,0.535v3.461c0,0.295-0.239,0.534-0.537,0.534h-5.229v5.23
	c0,0.297-0.24,0.535-0.536,0.535H1730.626z"/>
<g>
	<path fill="#6A6A6A" d="M9.831,24.822l-0.16-0.838c-0.021-0.113-0.534-2.837-0.628-7.526c-0.002-0.086-0.003-0.166-0.005-0.25
		c-0.022,0-0.038,0.004-0.061,0.004c-1.081-0.001-1.562-0.313-1.78-0.627c-0.317-0.097-0.653-0.25-1.011-0.461
		c-1.519,0.399-2.608,1.099-2.967,1.466c-0.423,0.432-2.455,3.267-2.455,3.267s-0.13,0.459,0.951,1.51
		c1.098,1.069,1.504,1.027,1.504,1.027l1.715-2.132c0,0,0,1.079,0.055,3.724c0.053,2.646,0.344,4.16,0.344,4.16
		c0.869,0.591,3.645,0.619,3.645,0.619s2.771-0.028,3.644-0.619c0,0,0.142-0.758,0.245-2.112c-0.908-0.189-1.748-0.465-2.341-0.869
		L9.831,24.822z"/>
	<path fill="#6A6A6A" d="M31.302,19.488v0.24l0.567,0.706c0,0,0.535,0.056,1.969-1.341c1.416-1.376,1.242-1.976,1.242-1.976
		s-2.16-3.015-2.988-4.018c-0.092,0.095-0.166,0.184-0.266,0.28c-1.611,1.57-2.908,2.333-3.963,2.333l-0.211-0.012l-0.836-0.108
		c-0.006,0.276-0.01,0.552-0.016,0.85c-0.004,0.174-0.009,0.34-0.014,0.509h1.978C30.164,16.952,31.302,18.09,31.302,19.488z"/>
	<path fill="#6A6A6A" d="M19.54,22.718h3.229v-3.229c0-1.221,0.866-2.242,2.016-2.482c0.006-0.194,0.012-0.387,0.016-0.589
		c0.092-4.566,0.092-6.428,0.092-6.428l2.959,3.68c0,0,0.705,0.072,2.596-1.771c1.867-1.815,1.641-2.608,1.641-2.608
		s-3.506-4.892-4.236-5.636c-0.705-0.724-3.062-2.197-6.289-2.792c-0.092-0.016-0.178-0.028-0.205-0.011
		c-0.049,0.026-0.061,0.03-0.061,0.141c-0.004,0.521-0.275,2.009-3.376,2.01c-3.102-0.001-3.374-1.489-3.374-2.01
		c0-0.111-0.013-0.115-0.06-0.141c-0.027-0.017-0.113-0.005-0.207,0.011C11.053,1.458,8.7,2.931,7.991,3.655
		C7.261,4.399,3.756,9.291,3.756,9.291s-0.229,0.793,1.64,2.608c1.893,1.842,2.595,1.771,2.595,1.771l2.959-3.68
		c0,0,0,1.862,0.093,6.428c0.091,4.565,0.591,7.173,0.591,7.173c1.112,0.757,4.017,0.979,5.455,1.045
		C17.366,23.537,18.355,22.718,19.54,22.718z"/>
</g>
<path id="plus_13_" fill="#50B149" d="M25.304,35.016c-0.297,0-0.534-0.24-0.534-0.537v-5.229H19.54
	c-0.298,0-0.537-0.239-0.537-0.534v-3.461c0-0.298,0.239-0.536,0.537-0.536h5.229v-5.229c0-0.299,0.237-0.536,0.534-0.536h3.461
	c0.298,0,0.537,0.237,0.537,0.536v5.229h5.229c0.297,0,0.537,0.238,0.537,0.536v3.461c0,0.295-0.24,0.534-0.537,0.534h-5.229v5.229
	c0,0.297-0.239,0.537-0.537,0.537H25.304z"/>
</svg>
