<?xml version="1.0" encoding="utf-8"?>
<!-- Generator: Adobe Illustrator 16.2.0, SVG Export Plug-In . SVG Version: 6.00 Build 0)  -->
<!DOCTYPE svg PUBLIC "-//W3C//DTD SVG 1.1//EN" "http://www.w3.org/Graphics/SVG/1.1/DTD/svg11.dtd">
<svg version="1.1" id="Layer_1" xmlns="http://www.w3.org/2000/svg" xmlns:xlink="http://www.w3.org/1999/xlink" x="0px" y="0px"
	 width="36px" height="36px" viewBox="0 0 36 36" enable-background="new 0 0 36 36" xml:space="preserve">
<path id="plus_12_" fill="#6A6A6A" d="M1730.625,833.451c-0.297,0-0.533-0.238-0.533-0.535v-5.23h-5.229
	c-0.297,0-0.537-0.235-0.537-0.53v-3.461c0-0.302,0.24-0.535,0.537-0.535h5.229v-5.23c0-0.299,0.236-0.536,0.533-0.536h3.463
	c0.295,0,0.535,0.237,0.535,0.536v5.23h5.229c0.299,0,0.537,0.233,0.537,0.535v3.461c0,0.295-0.238,0.53-0.537,0.53h-5.229v5.23
	c0,0.297-0.24,0.535-0.535,0.535H1730.625z"/>
<g>
	<g>
		<path id="reply_3_" fill="#6A6A6A" d="M27.244,22.108h5.984c0.407-0.002,0.777,0.248,0.926,0.625
			c0.049,0.123,0.072,0.248,0.072,0.373c0,0.27-0.107,0.531-0.309,0.723l-10.803,9.862c-0.304,0.306-0.574,0.404-0.865,0.394
			c-0.272,0.021-0.636-0.174-0.846-0.375l-0.012-0.027l-0.007,0.013l-10.802-9.864c-0.202-0.19-0.31-0.455-0.31-0.722
			c0-0.126,0.021-0.251,0.072-0.373c0.152-0.378,0.519-0.628,0.927-0.625h5.985c0-19.275-6.536-19.935-6.985-19.96
			C26.28,2.175,27.244,22.108,27.244,22.108z"/>
	</g>
	<g>
		<path id="reply_2_" fill="#6A6A6A" d="M27.244,22.108h5.984c0.407-0.002,0.777,0.248,0.926,0.625
			c0.049,0.123,0.072,0.248,0.072,0.373c0,0.27-0.107,0.531-0.309,0.723l-10.803,9.862c-0.304,0.306-0.574,0.404-0.865,0.394
			c-0.272,0.021-0.636-0.174-0.846-0.375l-0.012-0.027l-0.007,0.013l-10.802-9.864c-0.202-0.19-0.31-0.455-0.31-0.722
			c0-0.126,0.021-0.251,0.072-0.373c0.152-0.378,0.519-0.628,0.927-0.625h5.985c0-19.275-6.536-19.935-6.985-19.96
			C26.28,2.175,27.244,22.108,27.244,22.108z"/>
	</g>
	<g>
		<path fill="#252627" d="M21.643,35.015l-0.937-0.558L9.895,24.589c-0.412-0.392-0.643-0.928-0.643-1.479
			c0-0.27,0.052-0.526,0.15-0.767c0.304-0.757,1.038-1.255,1.867-1.255h4.962C16.014,3.707,10.275,3.176,10.217,3.171L9.721,3.144
			l0.058-2.016h0.499C24.933,1.15,27.698,16.833,28.179,21.086h5.05c0.832,0,1.568,0.499,1.877,1.27
			c0.096,0.243,0.146,0.494,0.146,0.751c0,0.549-0.229,1.082-0.625,1.462l-10.819,9.877c-0.318,0.321-0.697,0.538-1.095,0.626l0,0
			h-0.854C21.784,35.055,21.71,35.036,21.643,35.015L21.643,35.015z M21.622,33.899l0.105,0.04c0.101,0.056,0.201,0.096,0.294,0.12
			l0.668-0.057c0.14-0.063,0.275-0.159,0.409-0.296l10.828-9.884c0.188-0.181,0.3-0.445,0.3-0.715c0-0.127-0.023-0.252-0.072-0.375
			c-0.149-0.378-0.515-0.625-0.926-0.625h-5.977l-0.045-0.462C26.906,18.434,24.701,2.55,10.772,2.159L10.77,2.237
			c1.65,0.448,6.39,3.146,6.488,19.357l0.003,0.517h-5.991c-0.408,0-0.769,0.242-0.919,0.617c-0.051,0.121-0.075,0.246-0.075,0.38
			c0,0.271,0.116,0.537,0.317,0.729L21.622,33.899z"/>
	</g>
</g>
<g>
	<g>
		<path fill="none" d="M10.572,5.844h-0.033c0.818,1.734,1.454,3.625,1.887,5.625h0.066C12.02,9.346,11.368,7.442,10.572,5.844z"/>
		<path fill="none" d="M13.038,18.97h0.283c-0.019-1.966-0.183-3.854-0.469-5.625h-0.087c0.199,1.366,0.31,2.776,0.31,4.219
			C13.075,18.036,13.06,18.504,13.038,18.97z"/>
		<path fill="#3B3B3C" d="M6.22,5.844v5.625h6.206c-0.433-2.001-1.07-3.892-1.887-5.625H6.22z"/>
		<path fill="#6A6A6A" d="M4.813,18.97h8.225c0.021-0.466,0.037-0.934,0.037-1.406c0-1.443-0.109-2.853-0.31-4.219H4.813V18.97z"/>
		<path fill="#252627" d="M5.283,4.907v0.938v5.625v0.937H6.22h6.272h0.12c-0.058-0.314-0.119-0.627-0.186-0.937H6.22V5.844h4.319
			c-0.151-0.318-0.306-0.629-0.468-0.938H6.22H5.283z"/>
		<path fill="#252627" d="M4.813,18.97v-5.625h7.953c-0.045-0.315-0.097-0.627-0.154-0.938h-0.12H6.22H5.283h-0.47H3.875v0.938
			v5.625v0.937h0.938h8.167c0.024-0.309,0.042-0.623,0.058-0.937H4.813z"/>
	</g>
	<rect x="2.938" y="13.345" fill="#50B44D" width="0.938" height="5.625"/>
	
		<linearGradient id="SVGID_1_" gradientUnits="userSpaceOnUse" x1="277.8828" y1="-374.9971" x2="284.4434" y2="-374.9971" gradientTransform="matrix(1 0 0 -1 -272.5996 -358.8398)">
		<stop  offset="0" style="stop-color:#9ED844;stop-opacity:0.6"/>
		<stop  offset="1" style="stop-color:#5B5B5B;stop-opacity:0"/>
	</linearGradient>
	
		<linearGradient id="SVGID_2_" gradientUnits="userSpaceOnUse" x1="277.3828" y1="-374.9971" x2="284.9434" y2="-374.9971" gradientTransform="matrix(1 0 0 -1 -272.5996 -358.8398)">
		<stop  offset="0" style="stop-color:#50B44D;stop-opacity:0.6"/>
		<stop  offset="1" style="stop-color:#5B5B5B;stop-opacity:0"/>
	</linearGradient>
	<rect x="5.283" y="13.814" fill="url(#SVGID_1_)" stroke="url(#SVGID_2_)" stroke-miterlimit="10" width="6.561" height="4.686"/>
	<path fill="#3B3B3C" d="M6.22,11.47h6.272c-0.471-2.124-1.124-4.028-1.92-5.625H6.22V11.47z"/>
</g>
</svg>
