<?xml version="1.0" encoding="utf-8"?>
<!-- Generator: Adobe Illustrator 15.1.0, SVG Export Plug-In . SVG Version: 6.00 Build 0)  -->
<!DOCTYPE svg PUBLIC "-//W3C//DTD SVG 1.1//EN" "http://www.w3.org/Graphics/SVG/1.1/DTD/svg11.dtd">
<svg version="1.1" id="Layer_1" xmlns="http://www.w3.org/2000/svg" xmlns:xlink="http://www.w3.org/1999/xlink" x="0px" y="0px"
	 width="18px" height="18px" viewBox="2 2 18 18" enable-background="new 2 2 18 18" xml:space="preserve">
<g>
	<path fill="#F6F6F6" d="M10.475,9.232c-0.895,0-1.62,0.727-1.62,1.619c0,0.894,0.726,1.622,1.62,1.622
		c0.893,0,1.62-0.728,1.62-1.622C12.095,9.959,11.367,9.232,10.475,9.232z"/>
	<path fill="#F6F6F6" d="M18.874,2l-7.312,0.007c-0.226,0-0.387,0.075-0.608,0.296l-8.65,8.64c-0.404,0.403-0.404,1.056,0,1.46
		l7.391,7.294c0.405,0.403,1.06,0.403,1.465,0l8.577-8.622C19.958,10.853,20,10.624,20,10.427V3.124C20,2.504,19.495,2,18.874,2z
		 M14.418,13.688l-0.17,0.234l-3.45,4.869c-0.075,0.102-0.196,0.163-0.323,0.163c-0.128,0-0.248-0.062-0.324-0.163l-3.491-4.928
		L6.53,13.687c-0.6-0.834-0.917-1.813-0.917-2.835c0-2.68,2.182-4.861,4.861-4.861c2.681,0,4.861,2.181,4.861,4.861
		C15.336,11.873,15.018,12.853,14.418,13.688z"/>
</g>
</svg>
