<?xml version="1.0" encoding="utf-8"?>
<!-- Generator: Adobe Illustrator 15.1.0, SVG Export Plug-In . SVG Version: 6.00 Build 0)  -->
<!DOCTYPE svg PUBLIC "-//W3C//DTD SVG 1.1//EN" "http://www.w3.org/Graphics/SVG/1.1/DTD/svg11.dtd">
<svg version="1.1" id="Layer_1" xmlns="http://www.w3.org/2000/svg" xmlns:xlink="http://www.w3.org/1999/xlink" x="0px" y="0px"
	 width="36px" height="36px" viewBox="0 0 36 36" enable-background="new 0 0 36 36" xml:space="preserve">
<path id="plus_12_" fill="#6A6A6A" d="M1730.626,833.451c-0.297,0-0.535-0.238-0.535-0.535v-5.23h-5.229
	c-0.298,0-0.537-0.239-0.537-0.534v-3.461c0-0.298,0.239-0.535,0.537-0.535h5.229v-5.23c0-0.299,0.238-0.537,0.535-0.537h3.461
	c0.296,0,0.536,0.238,0.536,0.537v5.23h5.229c0.298,0,0.537,0.237,0.537,0.535v3.461c0,0.295-0.239,0.534-0.537,0.534h-5.229v5.23
	c0,0.297-0.24,0.535-0.536,0.535H1730.626z"/>
<g>
	<path fill="#6A6A6A" d="M24.178,13.781v0.315l0.323-0.063c1.253-0.246,2.805-0.371,4.612-0.371c2.439,0,4.267,0.595,5.586,1.819
		c0.085,0.078,0.161,0.167,0.242,0.25V5.256c0-0.428-0.258-0.814-0.653-0.978c-0.134-0.055-0.269-0.08-0.405-0.08
		c-0.273,0-0.546,0.108-0.749,0.311l-6.657,6.657V6.315c0-1.169-0.949-2.116-2.119-2.116H3.182c-1.172,0-2.118,0.947-2.118,2.116
		L1.059,23.257c0,1.172,0.946,2.117,2.117,2.117h13.863V13.781H24.178z"/>
</g>
<g>
	<path fill="#50B44B" d="M22.178,15.781v16.021h-3.139V15.781H22.178z"/>
	<path fill="#50B44B" d="M24.886,15.995c0.966-0.189,2.319-0.333,4.228-0.333c1.929,0,3.304,0.43,4.226,1.285
		c0.883,0.809,1.478,2.139,1.478,3.707c0,1.569-0.451,2.899-1.271,3.804c-1.066,1.163-2.647,1.688-4.493,1.688
		c-0.411,0-0.78-0.024-1.068-0.071v5.727h-3.098V15.995z M27.983,23.268c0.268,0.072,0.597,0.097,1.048,0.097
		c1.661,0,2.688-0.974,2.688-2.613c0-1.475-0.883-2.354-2.442-2.354c-0.636,0-1.066,0.071-1.293,0.143V23.268z"/>
</g>
</svg>
