<?xml version="1.0" encoding="utf-8"?>
<!-- Generator: Adobe Illustrator 15.1.0, SVG Export Plug-In . SVG Version: 6.00 Build 0)  -->
<!DOCTYPE svg PUBLIC "-//W3C//DTD SVG 1.1//EN" "http://www.w3.org/Graphics/SVG/1.1/DTD/svg11.dtd">
<svg version="1.1" id="Layer_1" xmlns="http://www.w3.org/2000/svg" xmlns:xlink="http://www.w3.org/1999/xlink" x="0px" y="0px"
	 width="36px" height="36px" viewBox="13.49 0 36 36" enable-background="new 13.49 0 36 36" xml:space="preserve">
<path id="plus_12_" fill="#6A6A6A" d="M1730.626,833.451c-0.297,0-0.535-0.238-0.535-0.535v-5.23h-5.229
	c-0.297,0-0.537-0.24-0.537-0.535v-3.461c0-0.297,0.24-0.535,0.537-0.535h5.229v-5.23c0-0.299,0.238-0.537,0.535-0.537h3.461
	c0.296,0,0.536,0.238,0.536,0.537v5.23h5.229c0.297,0,0.537,0.238,0.537,0.535v3.461c0,0.295-0.24,0.535-0.537,0.535h-5.229v5.23
	c0,0.297-0.24,0.535-0.536,0.535H1730.626z"/>
<g>
	<path fill="none" d="M40.639,14.61l-0.002-0.061V5.462c-3.646-2.754-8.113-2.897-8.991-2.897l-0.131,0.001l-0.181-0.001
		c-0.878,0-5.346,0.143-8.99,2.897l-0.003,9.148c-0.024,0.314-0.467,7.663,8.979,12.524c0.273-0.456,0.598-0.886,0.983-1.271
		l6.984-6.984c0.23-0.23,0.479-0.435,0.735-0.625C40.743,16.156,40.642,14.645,40.639,14.61z M31.397,25.092
		c-8.305-4.049-7.761-10.599-7.761-10.599V7.077c3.388-2.718,7.761-2.569,7.761-2.569V25.092z"/>
	<path fill="#6A6A6A" d="M22.341,14.61l0.003-9.148c3.645-2.754,8.112-2.897,8.99-2.897l0.181,0.001l0.131-0.001
		c0.878,0,5.346,0.143,8.991,2.897v9.087l0.002,0.061c0.003,0.034,0.104,1.546-0.615,3.643c0.558-0.414,1.171-0.733,1.823-0.947
		c0.328-1.499,0.284-2.557,0.269-2.784V4.746l-0.276-0.222c-4.078-3.272-9.206-3.438-10.193-3.438c-0.083,0-0.139,0.001-0.146,0.001
		c-0.026,0-0.082-0.001-0.165-0.001c-0.986,0-6.115,0.166-10.192,3.438l-0.277,0.222v9.776c-0.047,0.679-0.358,8.743,9.844,13.959
		c0.149-0.472,0.357-0.921,0.611-1.347C21.874,22.273,22.317,14.924,22.341,14.61z"/>
	<path fill="#6A6A6A" d="M23.637,6.702v7.417c0,0-0.544,6.55,7.761,10.599V4.133C31.397,4.133,27.024,3.984,23.637,6.702z"/>
</g>
<path id="clip_1_" fill="#50B44D" d="M47.054,20.292c-1.753-1.753-4.597-1.753-6.352,0.001l-6.984,6.985
	c-1.755,1.754-1.755,4.599-0.001,6.352c1.752,1.755,4.598,1.755,6.352,0l1.479-1.438c-0.795-0.017-1.521-0.277-2.136-0.696
	l-0.755,0.723c-0.975,0.976-2.555,0.976-3.528,0c-0.975-0.973-0.975-2.554,0-3.529l6.986-6.985c0.975-0.974,2.554-0.974,3.528,0
	c0.976,0.976,0.976,2.553,0.001,3.528l-3.481,3.506c-0.292,0.291-0.767,0.291-1.06,0c-0.292-0.293-0.292-0.767,0-1.06l2.629-2.652
	c0.195-0.195,0.196-0.511,0-0.707l-0.705-0.704c-0.195-0.194-0.511-0.194-0.706,0l-2.628,2.652c-1.072,1.072-1.072,2.812,0,3.881
	c1.07,1.073,2.811,1.073,3.88,0l3.481-3.504C48.809,24.89,48.809,22.045,47.054,20.292z"/>
</svg>
