<?xml version="1.0" encoding="utf-8"?>
<!-- Generator: Adobe Illustrator 16.2.0, SVG Export Plug-In . SVG Version: 6.00 Build 0)  -->
<!DOCTYPE svg PUBLIC "-//W3C//DTD SVG 1.1//EN" "http://www.w3.org/Graphics/SVG/1.1/DTD/svg11.dtd">
<svg version="1.1" id="Layer_1" xmlns="http://www.w3.org/2000/svg" xmlns:xlink="http://www.w3.org/1999/xlink" x="0px" y="0px"
	 width="22px" height="22px" viewBox="0 0 22 22" enable-background="new 0 0 22 22" xml:space="preserve">
<g id="calendar2_1_">
	<g>
		<path fill="#6A6A6A" d="M5.51,12.435c0-0.185-0.152-0.337-0.337-0.337H3.65c-0.186,0-0.337,0.152-0.337,0.337v1.523
			c0,0.184,0.151,0.336,0.337,0.336h1.522c0.186,0,0.337-0.152,0.337-0.336V12.435z"/>
		<path fill="#6A6A6A" d="M9.902,12.435c0-0.185-0.152-0.337-0.337-0.337H8.043c-0.186,0-0.337,0.152-0.337,0.337v1.523
			c0,0.184,0.152,0.336,0.337,0.336h1.521c0.186,0,0.337-0.152,0.337-0.336V12.435z"/>
		<path fill="#6A6A6A" d="M14.294,12.435c0-0.185-0.152-0.337-0.336-0.337h-1.523c-0.185,0-0.337,0.152-0.337,0.337v1.523
			c0,0.184,0.152,0.336,0.337,0.336h1.523c0.184,0,0.336-0.152,0.336-0.336V12.435z"/>
		<path fill="#6A6A6A" d="M18.687,12.435c0-0.185-0.152-0.337-0.337-0.337h-1.522c-0.185,0-0.337,0.152-0.337,0.337v1.523
			c0,0.184,0.152,0.336,0.337,0.336h1.522c0.185,0,0.337-0.152,0.337-0.336V12.435z"/>
		<path fill="#6A6A6A" d="M5.51,16.827c0-0.185-0.152-0.337-0.337-0.337H3.65c-0.186,0-0.337,0.152-0.337,0.337v1.522
			c0,0.185,0.151,0.337,0.337,0.337h1.522c0.186,0,0.337-0.152,0.337-0.337V16.827z"/>
		<path fill="#6A6A6A" d="M9.902,16.827c0-0.185-0.152-0.337-0.337-0.337H8.043c-0.186,0-0.337,0.152-0.337,0.337v1.522
			c0,0.185,0.152,0.337,0.337,0.337h1.521c0.186,0,0.337-0.152,0.337-0.337V16.827z"/>
		<path fill="#6A6A6A" d="M14.294,16.827c0-0.185-0.152-0.337-0.336-0.337h-1.523c-0.185,0-0.337,0.152-0.337,0.337v1.522
			c0,0.185,0.152,0.337,0.337,0.337h1.523c0.184,0,0.336-0.152,0.336-0.337V16.827z"/>
		<path fill="#6A6A6A" d="M18.687,16.827c0-0.185-0.152-0.337-0.337-0.337h-1.522c-0.185,0-0.337,0.152-0.337,0.337v1.522
			c0,0.185,0.152,0.337,0.337,0.337h1.522c0.185,0,0.337-0.152,0.337-0.337V16.827z"/>
		<path fill="#6A6A6A" d="M20.881,3.813c0-0.745-0.602-1.598-1.347-1.598h-1.945V1.369c0-0.746-0.489-1.35-1.235-1.35h-0.864
			c-0.743,0-1.195,0.604-1.195,1.35v0.847L7.706,2.198V1.369c0-0.746-0.731-1.35-1.476-1.35H5.806c-0.744,0-1.395,0.604-1.395,1.35
			v0.847H2.456c-0.744,0-1.339,1.102-1.339,1.847v16.171c0,0.746,1.041,1.747,1.784,1.747h16.369c0.746,0,1.612-0.928,1.612-1.673
			L20.881,3.813z M16.49,2.977c0,0.186-0.152,0.336-0.337,0.336h-0.424c-0.185,0-0.337-0.151-0.337-0.336V1.453
			c0-0.186,0.152-0.336,0.337-0.336h0.424c0.185,0,0.337,0.15,0.337,0.336V2.977z M6.607,2.977c0,0.186-0.151,0.336-0.337,0.336
			H5.847c-0.186,0-0.337-0.151-0.337-0.336V1.453c0-0.186,0.151-0.336,0.337-0.336h0.424c0.186,0,0.337,0.15,0.337,0.336V2.977z
			 M19.785,19.785H2.215V6.607h17.57V19.785z"/>
		<rect x="3.313" y="7.706" fill="#6A6A6A" width="15.373" height="2.196"/>
	</g>
	<g>
		<path fill="#6A6A6A" d="M5.51,12.435c0-0.185-0.152-0.337-0.337-0.337H3.65c-0.186,0-0.337,0.152-0.337,0.337v1.523
			c0,0.184,0.151,0.336,0.337,0.336h1.522c0.186,0,0.337-0.152,0.337-0.336V12.435z"/>
		<path fill="#6A6A6A" d="M9.902,12.435c0-0.185-0.152-0.337-0.337-0.337H8.043c-0.186,0-0.337,0.152-0.337,0.337v1.523
			c0,0.184,0.152,0.336,0.337,0.336h1.521c0.186,0,0.337-0.152,0.337-0.336V12.435z"/>
		<path fill="#6A6A6A" d="M14.294,12.435c0-0.185-0.152-0.337-0.336-0.337h-1.523c-0.185,0-0.337,0.152-0.337,0.337v1.523
			c0,0.184,0.152,0.336,0.337,0.336h1.523c0.184,0,0.336-0.152,0.336-0.336V12.435z"/>
		<path fill="#6A6A6A" d="M18.687,12.435c0-0.185-0.152-0.337-0.337-0.337h-1.522c-0.185,0-0.337,0.152-0.337,0.337v1.523
			c0,0.184,0.152,0.336,0.337,0.336h1.522c0.185,0,0.337-0.152,0.337-0.336V12.435z"/>
		<path fill="#6A6A6A" d="M5.51,16.827c0-0.185-0.152-0.337-0.337-0.337H3.65c-0.186,0-0.337,0.152-0.337,0.337v1.522
			c0,0.185,0.151,0.337,0.337,0.337h1.522c0.186,0,0.337-0.152,0.337-0.337V16.827z"/>
		<path fill="#6A6A6A" d="M9.902,16.827c0-0.185-0.152-0.337-0.337-0.337H8.043c-0.186,0-0.337,0.152-0.337,0.337v1.522
			c0,0.185,0.152,0.337,0.337,0.337h1.521c0.186,0,0.337-0.152,0.337-0.337V16.827z"/>
		<path fill="#6A6A6A" d="M14.294,16.827c0-0.185-0.152-0.337-0.336-0.337h-1.523c-0.185,0-0.337,0.152-0.337,0.337v1.522
			c0,0.185,0.152,0.337,0.337,0.337h1.523c0.184,0,0.336-0.152,0.336-0.337V16.827z"/>
		<path fill="#6A6A6A" d="M18.687,16.827c0-0.185-0.152-0.337-0.337-0.337h-1.522c-0.185,0-0.337,0.152-0.337,0.337v1.522
			c0,0.185,0.152,0.337,0.337,0.337h1.522c0.185,0,0.337-0.152,0.337-0.337V16.827z"/>
		<path fill="#6A6A6A" d="M20.881,3.813c0-0.745-0.602-1.598-1.347-1.598h-1.945V1.369c0-0.746-0.489-1.35-1.235-1.35h-0.864
			c-0.743,0-1.195,0.604-1.195,1.35v0.847L7.706,2.198V1.369c0-0.746-0.731-1.35-1.476-1.35H5.806c-0.744,0-1.395,0.604-1.395,1.35
			v0.847H2.456c-0.744,0-1.339,1.102-1.339,1.847v16.171c0,0.746,1.041,1.747,1.784,1.747h16.369c0.746,0,1.612-0.928,1.612-1.673
			L20.881,3.813z M16.49,2.977c0,0.186-0.152,0.336-0.337,0.336h-0.424c-0.185,0-0.337-0.151-0.337-0.336V1.453
			c0-0.186,0.152-0.336,0.337-0.336h0.424c0.185,0,0.337,0.15,0.337,0.336V2.977z M6.607,2.977c0,0.186-0.151,0.336-0.337,0.336
			H5.847c-0.186,0-0.337-0.151-0.337-0.336V1.453c0-0.186,0.151-0.336,0.337-0.336h0.424c0.186,0,0.337,0.15,0.337,0.336V2.977z
			 M19.785,19.785H2.215V6.607h17.57V19.785z"/>
		<rect x="3.313" y="7.706" fill="#6A6A6A" width="15.373" height="2.196"/>
	</g>
</g>
</svg>
