<?xml version="1.0" encoding="utf-8"?>
<!-- Generator: Adobe Illustrator 15.1.0, SVG Export Plug-In . SVG Version: 6.00 Build 0)  -->
<!DOCTYPE svg PUBLIC "-//W3C//DTD SVG 1.1//EN" "http://www.w3.org/Graphics/SVG/1.1/DTD/svg11.dtd">
<svg version="1.1" id="Layer_1" xmlns="http://www.w3.org/2000/svg" xmlns:xlink="http://www.w3.org/1999/xlink" x="0px" y="0px"
	 width="47px" height="37px" viewBox="0 0 47 37" enable-background="new 0 0 47 37" xml:space="preserve">
<g>
	<path fill="#6B6B6A" d="M37.381,19.751l-2.2,2.847l-2.848-2.198c-0.785-0.606-1.913-0.461-2.519,0.324
		c-0.605,0.782-0.46,1.91,0.325,2.517l2.848,2.199l-2.199,2.849c-0.606,0.783-0.461,1.911,0.324,2.518
		c0.782,0.606,1.911,0.461,2.518-0.323l2.199-2.849l2.85,2.199c0.784,0.606,1.911,0.461,2.517-0.323
		c0.606-0.786,0.462-1.914-0.323-2.519l-2.85-2.199l2.2-2.848c0.606-0.786,0.462-1.913-0.324-2.518
		C39.114,18.821,37.986,18.965,37.381,19.751z"/>
	<path fill="#6B6B6A" d="M29.412,5.404l-3.571,0.459l-0.459-3.57c-0.126-0.982-1.025-1.678-2.007-1.551
		c-0.984,0.127-1.678,1.026-1.552,2.009l0.459,3.569l-3.571,0.46c-0.981,0.126-1.677,1.025-1.55,2.008
		c0.125,0.983,1.024,1.678,2.008,1.552l3.569-0.46l0.46,3.57c0.125,0.983,1.024,1.678,2.008,1.551
		c0.983-0.126,1.678-1.026,1.55-2.008L26.3,9.424l3.57-0.459c0.982-0.126,1.678-1.026,1.551-2.008
		C31.294,5.972,30.395,5.278,29.412,5.404z"/>
	<path fill="#6B6B6A" d="M13.371,13.057l-2.2,2.851l-2.849-2.2c-0.785-0.605-1.914-0.46-2.518,0.323
		c-0.606,0.785-0.46,1.913,0.324,2.518l2.848,2.201l-2.199,2.847c-0.605,0.783-0.46,1.913,0.324,2.518
		c0.784,0.606,1.912,0.46,2.518-0.323l2.199-2.849l2.851,2.199c0.783,0.604,1.91,0.46,2.516-0.323
		c0.606-0.784,0.46-1.913-0.323-2.519l-2.849-2.197l2.199-2.851c0.605-0.784,0.46-1.912-0.323-2.518
		C15.104,12.129,13.975,12.274,13.371,13.057z"/>
	<g>
		<path fill="#6B6B6A" d="M40.489,11.759L40.489,11.759l-1.421-1.097L35.273,7.73c-0.785-0.605-1.913-0.461-2.519,0.325
			c-0.605,0.784-0.46,1.91,0.323,2.517l2.256,1.741c-2.176,0.511-5.597,1.608-9.24,3.935c-2.922,1.865-5.585,6.029-6.76,8.042
			c-0.89-0.316-1.855-0.46-2.856-0.332c-3.387,0.436-5.78,3.535-5.344,6.921c0.435,3.388,3.535,5.779,6.921,5.344
			s5.78-3.533,5.344-6.921c-0.167-1.305-0.738-2.457-1.562-3.365c1.188-2.06,3.605-5.724,5.868-7.168
			c2.965-1.893,5.79-2.882,7.724-3.39l-1.484,1.921c-0.605,0.785-0.461,1.912,0.324,2.517c0.784,0.605,1.912,0.461,2.518-0.323
			l2.93-3.795l1.084-1.403c0.29-0.366,0.442-0.841,0.379-1.341C41.115,12.459,40.855,12.04,40.489,11.759z M17.591,32.677
			c-1.427,0.185-2.734-0.824-2.918-2.253c-0.183-1.429,0.827-2.735,2.253-2.918c1.429-0.184,2.736,0.824,2.919,2.253
			C20.028,31.186,19.02,32.493,17.591,32.677z"/>
	</g>
</g>
</svg>
