<?xml version="1.0" encoding="utf-8"?>
<!-- Generator: Adobe Illustrator 16.2.0, SVG Export Plug-In . SVG Version: 6.00 Build 0)  -->
<!DOCTYPE svg PUBLIC "-//W3C//DTD SVG 1.1//EN" "http://www.w3.org/Graphics/SVG/1.1/DTD/svg11.dtd">
<svg version="1.1" id="Layer_1" xmlns="http://www.w3.org/2000/svg" xmlns:xlink="http://www.w3.org/1999/xlink" x="0px" y="0px"
	 width="20px" height="20px" viewBox="0 0 20 20" enable-background="new 0 0 20 20" xml:space="preserve">
<g>
	<g>
		<path fill="#151A20" d="M3,17c-0.487,0-0.742,0.076-0.812-0.045c-0.07-0.121-0.065-0.304,0.178-0.726l7-12.07
			C9.61,3.738,9.86,3.615,10,3.615s0.39,0.164,0.634,0.585l7,12.131c0.244,0.422,0.249,0.498,0.179,0.62
			C17.742,17.073,17.487,17,17,17H3z"/>
		<path fill="#C42527" d="M10,4.68L16.536,16H3.464L10,4.68 M10,2.643C9.457,2.643,8.913,3,8.5,3.714l-7,11.907
			C0.675,17.049,1.35,18,3,18h14c1.65,0,2.325-0.951,1.5-2.379l-7-12.016C11.087,2.891,10.543,2.643,10,2.643L10,2.643z"/>
	</g>
	<g>
		<path fill="#FFFFFF" d="M11,11c0,0.55-0.45,1-1,1l0,0c-0.55,0-1-0.45-1-1V8c0-0.55,0.45-1,1-1l0,0c0.55,0,1,0.45,1,1V11z"/>
	</g>
	<g>
		<path fill="#FFFFFF" d="M11,15c0,0.55-0.45,1-1,1l0,0c-0.55,0-1-0.45-1-1l0,0c0-0.55,0.45-1,1-1l0,0C10.55,14,11,14.45,11,15
			L11,15z"/>
	</g>
</g>
</svg>
