<?xml version="1.0" encoding="utf-8"?>
<!-- Generator: Adobe Illustrator 15.1.0, SVG Export Plug-In . SVG Version: 6.00 Build 0)  -->
<!DOCTYPE svg PUBLIC "-//W3C//DTD SVG 1.1//EN" "http://www.w3.org/Graphics/SVG/1.1/DTD/svg11.dtd">
<svg version="1.1" id="Layer_1" xmlns="http://www.w3.org/2000/svg" xmlns:xlink="http://www.w3.org/1999/xlink" x="0px" y="0px"
	 width="36px" height="36px" viewBox="13.49 0 36 36" enable-background="new 13.49 0 36 36" xml:space="preserve">
<path id="plus_12_" fill="#6A6A6A" d="M1730.626,833.451c-0.297,0-0.535-0.238-0.535-0.535v-5.23h-5.229
	c-0.297,0-0.537-0.24-0.537-0.535v-3.461c0-0.297,0.24-0.535,0.537-0.535h5.229v-5.23c0-0.299,0.238-0.537,0.535-0.537h3.461
	c0.296,0,0.536,0.238,0.536,0.537v5.23h5.229c0.297,0,0.537,0.238,0.537,0.535v3.461c0,0.295-0.24,0.535-0.537,0.535h-5.229v5.23
	c0,0.297-0.24,0.535-0.536,0.535H1730.626z"/>
<g>
	<path fill="none" d="M33.242,12.303c0,0.24,0.198,0.437,0.439,0.437h5.696l-6.134-6.133L33.242,12.303z"/>
	<path fill="#6A6A6A" d="M41.75,12.483l-8.25-8.25c-0.166-0.164-0.387-0.256-0.621-0.256h-11.03c-0.485,0-0.876,0.392-0.876,0.875
		v26.294c0,0.484,0.392,0.877,0.876,0.877h19.283c0.483,0,0.876-0.393,0.876-0.877V13.104C42.008,12.87,41.916,12.647,41.75,12.483z
		 M36.781,21.458l-8.812,6.715c-0.422,0.322-1.053,0.418-1.602,0.246c-0.549-0.174-0.906-0.584-0.906-1.037V13.955
		c0-0.452,0.357-0.86,0.906-1.033c0.549-0.174,1.18-0.078,1.602,0.242l8.812,6.714c0.287,0.217,0.431,0.504,0.431,0.791
		C37.212,20.955,37.068,21.242,36.781,21.458z M33.682,12.74c-0.241,0-0.439-0.197-0.439-0.437l0.002-5.696l6.134,6.133H33.682z"/>
</g>
</svg>
