<?xml version="1.0" encoding="utf-8"?>
<!-- Generator: Adobe Illustrator 16.0.0, SVG Export Plug-In . SVG Version: 6.00 Build 0)  -->
<!DOCTYPE svg PUBLIC "-//W3C//DTD SVG 1.1//EN" "http://www.w3.org/Graphics/SVG/1.1/DTD/svg11.dtd">
<svg version="1.1" id="Layer_1" xmlns="http://www.w3.org/2000/svg" xmlns:xlink="http://www.w3.org/1999/xlink" x="0px" y="0px"
	 width="14px" height="14px" viewBox="0 0 14 14" enable-background="new 0 0 14 14" xml:space="preserve">
<g>
	<circle fill="#6A6A6A" cx="7" cy="7" r="7"/>
	<g>
		<path fill="#333333" d="M9.774,5.291c-0.449-0.45-1.046-0.699-1.683-0.699C7.457,4.59,6.861,4.838,6.412,5.288
			C6.279,5.421,6.16,5.571,6.062,5.733L5.965,5.892L3.724,5.89c0,0-0.665,0.346-0.664,1.107C3.062,7.76,3.727,8.041,3.727,8.041
			l2.241,0.003l0.098,0.157c0.437,0.718,1.196,1.144,2.032,1.146C8.731,9.348,9.331,9.102,9.78,8.653
			c0.447-0.448,0.692-1.045,0.692-1.681C10.471,6.337,10.225,5.74,9.774,5.291z"/>
	</g>
</g>
</svg>
