<?xml version="1.0" encoding="utf-8"?>
<!-- Generator: Adobe Illustrator 16.0.0, SVG Export Plug-In . SVG Version: 6.00 Build 0)  -->
<!DOCTYPE svg PUBLIC "-//W3C//DTD SVG 1.1//EN" "http://www.w3.org/Graphics/SVG/1.1/DTD/svg11.dtd">
<svg version="1.1" id="Layer_1" xmlns="http://www.w3.org/2000/svg" xmlns:xlink="http://www.w3.org/1999/xlink" x="0px" y="0px"
	 width="36px" height="36px" viewBox="0 0 36 36" enable-background="new 0 0 36 36" xml:space="preserve">
<g>
	<path fill="#6A6A6A" d="M23.333,24.754v-1.051c0-0.35-0.121-0.5-0.049-0.828l-5.619-1.799h-4.664L4.669,24
		c0,0-1.336,0.057-1.336,1.369v1.557c0,0.857,0.26,1.15,1.117,1.15h16.883v-1.111C21.333,25.928,22.333,25.047,23.333,24.754z"/>
	<path fill="#6A6A6A" d="M15.95,19.478c0,0,6.408,0,6.408-7.46c0.752,0.006,1.717,0.293,1.717,0.293s0-9.803-8.258-9.803
		c-7.994,0-7.994,9.807-7.994,9.807c1.146-0.275,1.715-0.303,1.715-0.303C9.552,19.478,15.95,19.478,15.95,19.478z"/>
	<path id="lock-locked_1_" fill="#C42527" d="M31.853,26.15h-0.82v-2.447c0-1.803-1.461-3.266-3.262-3.266
		c-1.803,0-3.264,1.459-3.264,3.266v2.447h-0.814c-0.451,0-0.816,0.363-0.816,0.814v5.713c0,0.451,0.365,0.816,0.816,0.816h8.158
		c0.449,0,0.816-0.365,0.816-0.816v-5.713C32.667,26.512,32.302,26.15,31.853,26.15z M26.14,23.701c0-0.904,0.73-1.635,1.631-1.635
		s1.633,0.73,1.633,1.635v2.445H26.14V23.701z"/>
</g>
</svg>
