<?xml version="1.0" encoding="utf-8"?>
<!-- Generator: Adobe Illustrator 15.1.0, SVG Export Plug-In . SVG Version: 6.00 Build 0)  -->
<!DOCTYPE svg PUBLIC "-//W3C//DTD SVG 1.1//EN" "http://www.w3.org/Graphics/SVG/1.1/DTD/svg11.dtd">
<svg version="1.1" id="Layer_1" xmlns="http://www.w3.org/2000/svg" xmlns:xlink="http://www.w3.org/1999/xlink" x="0px" y="0px"
	 width="36px" height="36px" viewBox="13.49 0 36 36" enable-background="new 13.49 0 36 36" xml:space="preserve">
<path id="plus_12_" fill="#6A6A6A" d="M1730.626,833.451c-0.297,0-0.535-0.238-0.535-0.535v-5.23h-5.229
	c-0.297,0-0.537-0.24-0.537-0.535v-3.461c0-0.297,0.24-0.535,0.537-0.535h5.229v-5.23c0-0.299,0.238-0.537,0.535-0.537h3.461
	c0.296,0,0.536,0.238,0.536,0.537v5.23h5.229c0.297,0,0.537,0.238,0.537,0.535v3.461c0,0.295-0.24,0.535-0.537,0.535h-5.229v5.23
	c0,0.297-0.24,0.535-0.536,0.535H1730.626z"/>
<g>
	<path fill="#6A6A6A" d="M31.504,10.52c-2.535,0-4.518,0.927-5.134,1.935h10.264C36.018,11.447,34.038,10.52,31.504,10.52z"/>
	<path fill="#6A6A6A" d="M31.461,5.553c5.391,0,9.147-2.394,9.147-4.543V1.007H22.314V1.01C22.314,3.159,26.07,5.553,31.461,5.553z"
		/>
	<path fill="#6A6A6A" d="M36.41,14.032h-9.817c0.806,0.876,2.643,1.619,4.911,1.619C33.769,15.65,35.606,14.908,36.41,14.032z"/>
	<path fill="#6A6A6A" d="M30.414,25.253c0-1.398,1.138-2.536,2.537-2.536h1.759c-1.029-0.135-2.11-0.215-3.249-0.215
		c-7.814,0-13.26,3.439-13.26,6.528h12.246c-0.014-0.104-0.032-0.208-0.032-0.316V25.253z"/>
	<path fill="#6A6A6A" d="M31.504,9.269c3.251,0,5.762,1.334,6.235,3.186h7.394L43.362,1.007h-1.511V1.01
		c0,3.431-4.562,6.121-10.391,6.121c-5.826,0-10.391-2.689-10.391-6.121V1.007h-1.587L17.57,12.455h7.695
		C25.737,10.603,28.249,9.269,31.504,9.269z"/>
	<path fill="#6A6A6A" d="M38.716,16.951h3.461c1.399,0,2.537,1.138,2.537,2.536v3.23h2.555l-1.665-8.686h-7.965
		c-0.664,1.686-3.074,2.871-6.135,2.871c-3.067,0-5.473-1.186-6.139-2.871h-8.015l-2.835,14.999h1.714
		c0-5.148,6.547-9.028,15.231-9.028c1.662,0,3.245,0.145,4.72,0.41v-0.926C36.181,18.088,37.318,16.951,38.716,16.951z"/>
</g>
<path id="plus_13_" fill="#50B149" d="M38.716,35.015c-0.297,0-0.535-0.239-0.535-0.536v-5.23h-5.229
	c-0.297,0-0.537-0.239-0.537-0.534v-3.461c0-0.298,0.24-0.536,0.537-0.536h5.229v-5.23c0-0.298,0.238-0.536,0.535-0.536h3.461
	c0.297,0,0.537,0.238,0.537,0.536v5.23h5.229c0.297,0,0.537,0.238,0.537,0.536v3.461c0,0.295-0.24,0.534-0.537,0.534h-5.229v5.23
	c0,0.297-0.24,0.536-0.537,0.536H38.716z"/>
</svg>
