<?xml version="1.0" encoding="utf-8"?>
<!-- Generator: Adobe Illustrator 15.1.0, SVG Export Plug-In . SVG Version: 6.00 Build 0)  -->
<!DOCTYPE svg PUBLIC "-//W3C//DTD SVG 1.1//EN" "http://www.w3.org/Graphics/SVG/1.1/DTD/svg11.dtd">
<svg version="1.1" id="Layer_1" xmlns="http://www.w3.org/2000/svg" xmlns:xlink="http://www.w3.org/1999/xlink" x="0px" y="0px"
	 width="36px" height="36px" viewBox="13.49 0 36 36" enable-background="new 13.49 0 36 36" xml:space="preserve">
<path id="plus_12_" fill="#6A6A6A" d="M1730.626,833.451c-0.297,0-0.535-0.238-0.535-0.535v-5.23h-5.229
	c-0.297,0-0.537-0.24-0.537-0.535v-3.461c0-0.297,0.24-0.535,0.537-0.535h5.229v-5.23c0-0.299,0.238-0.537,0.535-0.537h3.461
	c0.296,0,0.536,0.238,0.536,0.537v5.23h5.229c0.297,0,0.537,0.238,0.537,0.535v3.461c0,0.295-0.24,0.535-0.537,0.535h-5.229v5.23
	c0,0.297-0.24,0.535-0.536,0.535H1730.626z"/>
<g>
	<path fill="#58595B" d="M32.43,33.554l-0.363-0.177c-11.954-5.826-11.585-15.118-11.533-15.89V6.542l0.31-0.249
		c4.565-3.662,10.307-3.848,11.412-3.848c0.094,0,0.155,0.001,0.185,0.002c0.009-0.001,0.071-0.002,0.165-0.002
		c1.104,0,6.846,0.186,11.411,3.848l0.31,0.249v10.945c0.053,0.771,0.422,10.063-11.532,15.89L32.43,33.554z M22.189,7.344
		l-0.003,10.242c-0.027,0.354-0.534,8.681,10.243,14.122c10.83-5.472,10.25-14.035,10.242-14.122l-0.002-0.068V7.344
		c-4.08-3.083-9.083-3.243-10.065-3.243l-0.147,0.002l-0.202-0.002C31.272,4.101,26.271,4.261,22.189,7.344z"/>
	<g>
		<path fill-rule="evenodd" clip-rule="evenodd" fill="#6D6E70" d="M23.637,9.355v8.304c0,0-0.609,7.332,8.688,11.864V6.479
			C32.325,6.479,27.431,6.312,23.637,9.355z"/>
	</g>
</g>
</svg>
