<?xml version="1.0" encoding="utf-8"?>
<!-- Generator: Adobe Illustrator 15.1.0, SVG Export Plug-In . SVG Version: 6.00 Build 0)  -->
<!DOCTYPE svg PUBLIC "-//W3C//DTD SVG 1.1//EN" "http://www.w3.org/Graphics/SVG/1.1/DTD/svg11.dtd">
<svg version="1.1" id="Layer_1" xmlns="http://www.w3.org/2000/svg" xmlns:xlink="http://www.w3.org/1999/xlink" x="0px" y="0px"
	 width="20px" height="20px" viewBox="0 0 20 20" enable-background="new 0 0 20 20" xml:space="preserve">
<path fill="#6A6A6A" d="M18.975,0v5.384h-0.512c-0.309-1.23-0.668-2.103-1.027-2.667c-0.357-0.513-0.924-0.974-1.59-1.282
	c-0.357-0.205-1.025-0.256-1.947-0.256H12.41v15.385c0,1.025,0.051,1.691,0.152,1.949c0.104,0.256,0.309,0.461,0.67,0.666
	c0.305,0.205,0.768,0.309,1.332,0.309h0.615V20H4.77v-0.512h0.667c0.565,0,1.025-0.104,1.385-0.309
	c0.257-0.153,0.462-0.41,0.615-0.719c0.103-0.255,0.155-0.871,0.155-1.896V1.179H6.154C4.821,1.179,3.846,1.436,3.23,2
	C2.359,2.82,1.847,3.948,1.641,5.384H1.026V0H18.975z"/>
</svg>
