<?xml version="1.0" encoding="utf-8"?>
<!-- Generator: Adobe Illustrator 16.0.0, SVG Export Plug-In . SVG Version: 6.00 Build 0)  -->
<!DOCTYPE svg PUBLIC "-//W3C//DTD SVG 1.1//EN" "http://www.w3.org/Graphics/SVG/1.1/DTD/svg11.dtd">
<svg version="1.1" id="Layer_1" xmlns="http://www.w3.org/2000/svg" xmlns:xlink="http://www.w3.org/1999/xlink" x="0px" y="0px"
	 width="20px" height="20px" viewBox="0 0 20 20" enable-background="new 0 0 20 20" xml:space="preserve">
<g>
	<path fill="#6A6A6A" d="M17.094,15.424l-5.574-2.027h-3.04l-5.574,2.027c0,0-1.013,0.157-1.013,1.013v1.016
		c0,0.559,0.454,1.011,1.013,1.011h14.188c0.561,0,1.014-0.452,1.014-1.011v-1.016C18.107,15.597,17.094,15.424,17.094,15.424z"/>
	<path fill="#6A6A6A" d="M14.578,7.734c0.49,0.004,1.119,0.191,1.119,0.191s0-6.389-5.382-6.389c-5.21,0-5.21,6.391-5.21,6.391
		C5.852,7.749,6.222,7.73,6.222,7.73c0.009,4.867,4.18,4.867,4.18,4.867S14.578,12.598,14.578,7.734z"/>
</g>
</svg>
