<?xml version="1.0" encoding="utf-8"?>
<!-- Generator: Adobe Illustrator 15.1.0, SVG Export Plug-In . SVG Version: 6.00 Build 0)  -->
<!DOCTYPE svg PUBLIC "-//W3C//DTD SVG 1.1//EN" "http://www.w3.org/Graphics/SVG/1.1/DTD/svg11.dtd">
<svg version="1.1" id="Layer_1" xmlns="http://www.w3.org/2000/svg" xmlns:xlink="http://www.w3.org/1999/xlink" x="0px" y="0px"
	 width="80px" height="40px" viewBox="0 0 80 40" enable-background="new 0 0 80 40" xml:space="preserve">
<g>
	<path fill-rule="evenodd" clip-rule="evenodd" fill="#6A6A6A" d="M50.347,15.388H38.458V7.926c0-0.34-0.051-0.644-0.362-0.775
		c-0.104-0.043-0.135-0.062-0.243-0.062c-0.22,0-0.394,0.085-0.555,0.247L25.577,19.913c-0.164,0.163-0.236,0.377-0.236,0.593
		c0,0.213,0.086,0.429,0.25,0.593l11.743,12.579c0.161,0.16,0.375,0.245,0.595,0.245c0.108,0,0.061-0.022,0.166-0.064
		c0.311-0.128,0.363-0.437,0.363-0.772v-7.698h11.889c0.463,0,1.111-0.227,1.111-0.69v-8.387
		C51.458,15.848,50.81,15.388,50.347,15.388z"/>
	<path fill-rule="evenodd" clip-rule="evenodd" fill="#6A6A6A" d="M59.458,16.225c0-0.462-0.376-0.837-0.839-0.837h-5.321
		c-0.463,0-0.839,0.375-0.839,0.837v8.326c0,0.462,0.376,0.837,0.839,0.837h5.321c0.463,0,0.839-0.375,0.839-0.837V16.225z"/>
</g>
</svg>
