<?xml version="1.0" encoding="utf-8"?>
<!-- Generator: Adobe Illustrator 15.1.0, SVG Export Plug-In . SVG Version: 6.00 Build 0)  -->
<!DOCTYPE svg PUBLIC "-//W3C//DTD SVG 1.1//EN" "http://www.w3.org/Graphics/SVG/1.1/DTD/svg11.dtd">
<svg version="1.1" id="Layer_1" xmlns="http://www.w3.org/2000/svg" xmlns:xlink="http://www.w3.org/1999/xlink" x="0px" y="0px"
	 width="36px" height="36px" viewBox="13.49 0 36 36" enable-background="new 13.49 0 36 36" xml:space="preserve">
<path id="plus_12_" fill="#6A6A6A" d="M1730.626,833.451c-0.297,0-0.535-0.238-0.535-0.535v-5.23h-5.229
	c-0.297,0-0.537-0.24-0.537-0.535v-3.461c0-0.297,0.24-0.535,0.537-0.535h5.229v-5.23c0-0.299,0.238-0.537,0.535-0.537h3.461
	c0.296,0,0.536,0.238,0.536,0.537v5.23h5.229c0.297,0,0.537,0.238,0.537,0.535v3.461c0,0.295-0.24,0.535-0.537,0.535h-5.229v5.23
	c0,0.297-0.24,0.535-0.536,0.535H1730.626z"/>
<path fill="none" d="M43.88,16.362c0.338-0.578,0.601-1.309,0.79-2.191s0.285-1.92,0.285-3.115c0-0.166-0.006-0.338-0.015-0.51
	c-0.009-0.172-0.015-0.337-0.015-0.496l-6.934,5.208c0.22,0.695,0.509,1.257,0.86,1.692h3.324c0.381,0,0.739,0.09,1.063,0.241
	C43.471,16.958,43.688,16.69,43.88,16.362z"/>
<path fill="none" d="M44.442,6.839C44.11,5.863,43.67,5.14,43.125,4.671s-1.189-0.703-1.93-0.703c-0.53,0-1.023,0.141-1.48,0.422
	c-0.455,0.281-0.852,0.712-1.189,1.295c-0.335,0.582-0.601,1.312-0.796,2.19c-0.195,0.878-0.291,1.918-0.291,3.122
	c0,0.197,0,0.381,0,0.555c0,0.172,0.009,0.348,0.029,0.525L44.442,6.839z"/>
<path id="plus_13_" fill="#50B149" d="M38.716,35.015c-0.297,0-0.535-0.239-0.535-0.536v-5.23h-5.229
	c-0.297,0-0.537-0.239-0.537-0.534v-3.461c0-0.298,0.24-0.536,0.537-0.536h5.229v-5.23c0-0.298,0.238-0.536,0.535-0.536h3.461
	c0.297,0,0.537,0.238,0.537,0.536v5.23h5.229c0.297,0,0.537,0.238,0.537,0.536v3.461c0,0.295-0.24,0.534-0.537,0.534h-5.229v5.23
	c0,0.297-0.24,0.536-0.537,0.536H38.716z"/>
<g>
	<path fill="#6A6A6A" d="M32.951,31.249c-1.234,0-2.264-0.888-2.488-2.057H24.49h-1c-0.553,0-1-0.447-1-1v-1v-4v-16h-3.208
		c-0.438,0-0.792,0.354-0.792,0.792v24.417c0,0.438,0.354,0.791,0.792,0.791h16.898v-1.943H32.951z"/>
	<path fill="#6A6A6A" d="M32.951,22.717h3.229v-3.23c0-1.398,1.138-2.536,2.535-2.536h3.461c1.031,0,1.917,0.621,2.313,1.506V2.406
		c0-0.671-0.543-1.214-1.214-1.214H25.704c-0.671,0-1.214,0.543-1.214,1.214v23.573c0,0.67,0.543,1.213,1.214,1.213h4.71v-1.938
		C30.414,23.855,31.553,22.717,32.951,22.717z"/>
</g>
</svg>
