<?xml version="1.0" encoding="utf-8"?>
<!-- Generator: Adobe Illustrator 15.1.0, SVG Export Plug-In . SVG Version: 6.00 Build 0)  -->
<!DOCTYPE svg PUBLIC "-//W3C//DTD SVG 1.1//EN" "http://www.w3.org/Graphics/SVG/1.1/DTD/svg11.dtd">
<svg version="1.1" id="Layer_1" xmlns="http://www.w3.org/2000/svg" xmlns:xlink="http://www.w3.org/1999/xlink" x="0px" y="0px"
	 width="28px" height="28px" viewBox="3 -2 28 28" enable-background="new 3 -2 28 28" xml:space="preserve">
<path id="reply_1_" fill-rule="evenodd" clip-rule="evenodd" fill="#6A6A6A" d="M13.75,7.938V3.064
	c0.001-0.333-0.202-0.631-0.509-0.755C13.142,2.268,13.04,2.25,12.938,2.25c-0.217,0-0.431,0.087-0.589,0.252L4.32,11.296
	C4.071,11.545,3.992,11.762,4.001,12c-0.016,0.22,0.141,0.518,0.304,0.688l0.022,0.009L4.32,12.703l8.028,8.794
	c0.158,0.164,0.373,0.253,0.589,0.253c0.102,0,0.205-0.02,0.303-0.059c0.308-0.125,0.511-0.423,0.509-0.756v-4.874
	c15.693,0,16.231,5.32,16.25,5.688C29.981,8.718,13.75,7.938,13.75,7.938z"/>
</svg>
