<?xml version="1.0" encoding="utf-8"?>
<!-- Generator: Adobe Illustrator 16.0.0, SVG Export Plug-In . SVG Version: 6.00 Build 0)  -->
<!DOCTYPE svg PUBLIC "-//W3C//DTD SVG 1.1//EN" "http://www.w3.org/Graphics/SVG/1.1/DTD/svg11.dtd">
<svg version="1.1" id="Layer_1" xmlns="http://www.w3.org/2000/svg" xmlns:xlink="http://www.w3.org/1999/xlink" x="0px" y="0px"
	 width="48px" height="48px" viewBox="0 0 48 48" enable-background="new 0 0 48 48" xml:space="preserve">
<g>
	<path fill-rule="evenodd" clip-rule="evenodd" fill="#C32628" d="M7.875,34.751v5.375v2.686c0,1.486,1.202,2.688,2.687,2.688h2.689
		h21.498h2.689c1.485,0,2.688-1.202,2.688-2.688v-2.686v-5.375V15.934H7.875V34.751z M30.699,22.173
		c0-0.885,0.719-1.599,1.604-1.599c0.884,0,1.6,0.714,1.6,1.599v17.626c0,0.886-0.716,1.604-1.6,1.604
		c-0.885,0-1.604-0.718-1.604-1.604V22.173z M22.688,22.173c0-0.885,0.717-1.599,1.602-1.599c0.884,0,1.601,0.714,1.601,1.599
		v17.626c0,0.886-0.717,1.604-1.601,1.604c-0.885,0-1.602-0.718-1.602-1.604V22.173z M14.675,22.173
		c0-0.885,0.717-1.599,1.604-1.599c0.884,0,1.602,0.714,1.602,1.599v17.626c0,0.886-0.717,1.604-1.602,1.604
		c-0.887,0-1.604-0.718-1.604-1.604V22.173z"/>
	<g id="trash_1_">
		<path fill-rule="evenodd" clip-rule="evenodd" fill="#C32628" d="M40.126,7.874h-8.064V5.188c0-1.489-1.199-2.688-2.686-2.688
			H18.623c-1.484,0-2.687,1.199-2.687,2.688v2.687H7.875c-1.485,0-2.687,1.205-2.687,2.688l0,0v2.687h37.625v-2.687
			C42.813,9.079,41.61,7.874,40.126,7.874z"/>
	</g>
</g>
</svg>
