<?xml version="1.0" encoding="utf-8"?>
<!-- Generator: Adobe Illustrator 15.1.0, SVG Export Plug-In . SVG Version: 6.00 Build 0)  -->
<!DOCTYPE svg PUBLIC "-//W3C//DTD SVG 1.1//EN" "http://www.w3.org/Graphics/SVG/1.1/DTD/svg11.dtd">
<svg version="1.1" id="Layer_1" xmlns="http://www.w3.org/2000/svg" xmlns:xlink="http://www.w3.org/1999/xlink" x="0px" y="0px"
	 width="47px" height="37px" viewBox="0 0 47 37" enable-background="new 0 0 47 37" xml:space="preserve">
<path id="tag_2_" fill="#6A6A6A" d="M41.435,2.805c0-1.235-1.005-2.239-2.242-2.239L24.62,0.579c-0.448,0-0.771,0.148-1.214,0.591
	L6.169,18.387c-0.804,0.802-0.804,2.105,0,2.91l14.729,14.535c0.806,0.803,2.112,0.803,2.917,0L40.91,18.65
	c0.444-0.442,0.524-0.899,0.524-1.291V2.805z M33.6,11.776c-1.855,0-3.364-1.509-3.364-3.363c0-1.856,1.509-3.364,3.364-3.364
	c1.859,0,3.368,1.508,3.368,3.364C36.968,10.268,35.459,11.776,33.6,11.776z"/>
</svg>
