<?xml version="1.0" encoding="utf-8"?>
<!-- Generator: Adobe Illustrator 16.2.0, SVG Export Plug-In . SVG Version: 6.00 Build 0)  -->
<!DOCTYPE svg PUBLIC "-//W3C//DTD SVG 1.1//EN" "http://www.w3.org/Graphics/SVG/1.1/DTD/svg11.dtd">
<svg version="1.1" id="Layer_1" xmlns="http://www.w3.org/2000/svg" xmlns:xlink="http://www.w3.org/1999/xlink" x="0px" y="0px"
	 width="36px" height="36px" viewBox="0 0 36 36" enable-background="new 0 0 36 36" xml:space="preserve">
<path id="plus_12_" fill="#6A6A6A" d="M1730.625,833.451c-0.297,0-0.533-0.238-0.533-0.535v-5.23h-5.23
	c-0.297,0-0.537-0.236-0.537-0.531v-3.461c0-0.301,0.24-0.535,0.537-0.535h5.23v-5.23c0-0.299,0.236-0.537,0.533-0.537h3.463
	c0.295,0,0.535,0.238,0.535,0.537v5.23h5.229c0.297,0,0.537,0.234,0.537,0.535v3.461c0,0.295-0.24,0.531-0.537,0.531h-5.229v5.23
	c0,0.297-0.24,0.535-0.535,0.535H1730.625z"/>
<path fill="#F3F3F3" d="M28.464,2.416V1.722H18.002H7.54v0.694H1.157v9.196h0.001c0.039,5.16,4.089,9.417,9.284,10.001
	c2.435,3.063,5.206,3.949,5.206,3.949v3.592c0,0-2.066,0.283-3.759,1.721c-1.738,1.477-2.049,3.402-2.049,3.402h8.163h8.163
	c0,0-0.313-1.926-2.053-3.402c-1.693-1.438-3.76-1.721-3.76-1.721v-3.592c0,0,2.771-0.887,5.207-3.949
	c5.193-0.584,9.244-4.84,9.282-10.001h0.003V2.416H28.464z M3.703,11.54V4.961H7.54v8.682c0,0-0.246,2.06,1.029,4.897
	C5.712,17.383,3.703,14.683,3.703,11.54z M32.299,11.54c0,3.143-2.009,5.843-4.865,7c1.273-2.838,1.03-4.897,1.03-4.897V4.961h3.835
	V11.54z"/>
<path fill="#F3F3F3" d="M9.3,35.354h17.405c-0.018-0.092-0.367-2.079-2.189-3.628c-1.277-1.085-2.745-1.554-3.503-1.735
	l-0.506-0.119v-3.794l0.402-0.17c0.835-0.351,2.992-1.431,4.989-3.854l0.162-0.2l0.252-0.033c5.46-0.735,9.606-5.311,9.647-10.639
	V1.385h-6.804v-0.74H6.848v0.74H0.042l0.001,9.811c0.04,5.318,4.185,9.89,9.643,10.625l0.254,0.033l0.164,0.2
	c1.996,2.423,4.152,3.5,4.987,3.854l0.401,0.17v3.794l-0.502,0.119c-0.762,0.182-2.229,0.65-3.504,1.733
	C9.668,33.271,9.317,35.253,9.3,35.354z M7.894,18.771l-1.542-1.039c-2.252-1.515-3.596-3.989-3.596-6.619V4.098h4.092l0.003,9.179
	c-0.006,0.094-0.171,1.56,0.493,3.717L7.894,18.771z M28.109,18.767l0.548-1.774c0.65-2.102,0.506-3.535,0.504-3.549l-0.005-9.346
	h4.09v7.013c0,2.631-1.347,5.105-3.596,6.618L28.109,18.767z"/>
</svg>
