<?xml version="1.0" encoding="utf-8"?>
<!-- Generator: Adobe Illustrator 15.1.0, SVG Export Plug-In . SVG Version: 6.00 Build 0)  -->
<!DOCTYPE svg PUBLIC "-//W3C//DTD SVG 1.1//EN" "http://www.w3.org/Graphics/SVG/1.1/DTD/svg11.dtd">
<svg version="1.1" id="Layer_1" xmlns="http://www.w3.org/2000/svg" xmlns:xlink="http://www.w3.org/1999/xlink" x="0px" y="0px"
	 width="36px" height="36px" viewBox="13.49 0 36 36" enable-background="new 13.49 0 36 36" xml:space="preserve">
<path id="plus_12_" fill="#6A6A6A" d="M1730.626,833.451c-0.297,0-0.535-0.238-0.535-0.535v-5.23h-5.229
	c-0.297,0-0.537-0.24-0.537-0.535v-3.461c0-0.297,0.24-0.535,0.537-0.535h5.229v-5.23c0-0.299,0.238-0.537,0.535-0.537h3.461
	c0.296,0,0.536,0.238,0.536,0.537v5.23h5.229c0.297,0,0.537,0.238,0.537,0.535v3.461c0,0.295-0.24,0.535-0.537,0.535h-5.229v5.23
	c0,0.297-0.24,0.535-0.536,0.535H1730.626z"/>
<g>
	<path fill="#6A6A6A" d="M42.375,8.018H14.516V29.05h2.08V10.098h23.7v7.956c0.636-0.422,1.339-0.721,2.08-0.896V8.018z"/>
	<path fill="#6A6A6A" d="M23.301,12.319v-1.164h-0.832v1.164c-2.111,0.2-3.781,1.869-3.98,3.98h-1.164v0.832h1.164
		c0.2,2.111,1.869,3.781,3.98,3.981v1.164h0.832v-1.164c2.111-0.2,3.781-1.87,3.98-3.981h1.164V16.3h-1.164
		C27.082,14.188,25.413,12.519,23.301,12.319z M22.469,20.282c-1.653-0.193-2.956-1.496-3.149-3.15h3.149V20.282z M22.469,16.3
		H19.32c0.193-1.653,1.497-2.956,3.149-3.148V16.3z M23.301,20.282v-3.15h3.149C26.257,18.786,24.954,20.088,23.301,20.282z
		 M23.301,16.3v-3.148c1.653,0.193,2.956,1.496,3.149,3.148H23.301z"/>
</g>
<path id="clip_1_" fill="#50B44D" d="M47.054,20.292c-1.753-1.753-4.597-1.753-6.352,0.001l-6.984,6.985
	c-1.755,1.754-1.755,4.599-0.001,6.352c1.752,1.755,4.598,1.755,6.352,0l1.479-1.438c-0.795-0.017-1.521-0.277-2.136-0.696
	l-0.755,0.723c-0.975,0.976-2.555,0.976-3.528,0c-0.975-0.973-0.975-2.554,0-3.529l6.986-6.985c0.975-0.974,2.554-0.974,3.528,0
	c0.976,0.976,0.976,2.553,0.001,3.528l-3.481,3.506c-0.292,0.291-0.767,0.291-1.06,0c-0.292-0.293-0.292-0.767,0-1.06l2.629-2.652
	c0.195-0.195,0.196-0.511,0-0.707l-0.705-0.704c-0.195-0.194-0.511-0.194-0.706,0l-2.628,2.652c-1.072,1.072-1.072,2.812,0,3.881
	c1.07,1.073,2.811,1.073,3.88,0l3.481-3.504C48.809,24.89,48.809,22.045,47.054,20.292z"/>
</svg>
