<?xml version="1.0" encoding="utf-8"?>
<!-- Generator: Adobe Illustrator 16.0.0, SVG Export Plug-In . SVG Version: 6.00 Build 0)  -->
<!DOCTYPE svg PUBLIC "-//W3C//DTD SVG 1.1//EN" "http://www.w3.org/Graphics/SVG/1.1/DTD/svg11.dtd">
<svg version="1.1" id="Layer_1" xmlns="http://www.w3.org/2000/svg" xmlns:xlink="http://www.w3.org/1999/xlink" x="0px" y="0px"
	 width="14px" height="14px" viewBox="0 0 14 14" enable-background="new 0 0 14 14" xml:space="preserve">
<g>
	<circle fill="#6A6A6A" cx="7" cy="7" r="7"/>
	<g>
		<path fill="#CCCCCC" d="M11.47,8.312c0,0,0.884-0.37,0.883-1.315c0-0.944-0.887-1.26-0.887-1.26L8.62,5.722L8.521,5.468
			c-0.593-1.533-1.971-2.566-3.58-2.72v0.647C6.751,3.6,8.166,5.143,8.166,7.003c0.001,0.969-0.373,1.879-1.059,2.564
			c-0.588,0.588-1.342,0.95-2.157,1.037l0.001,0.648c0.986-0.091,1.9-0.521,2.608-1.229C7.982,9.602,8.307,9.104,8.522,8.55
			L8.62,8.297L11.47,8.312z"/>
	</g>
</g>
</svg>
