<?xml version="1.0" encoding="utf-8"?>
<!-- Generator: Adobe Illustrator 16.0.0, SVG Export Plug-In . SVG Version: 6.00 Build 0)  -->
<!DOCTYPE svg PUBLIC "-//W3C//DTD SVG 1.1//EN" "http://www.w3.org/Graphics/SVG/1.1/DTD/svg11.dtd">
<svg version="1.1" id="Layer_1" xmlns="http://www.w3.org/2000/svg" xmlns:xlink="http://www.w3.org/1999/xlink" x="0px" y="0px"
	 width="36px" height="36px" viewBox="0 0 36 36" enable-background="new 0 0 36 36" xml:space="preserve">
<path id="plus_12_" fill="#6A6A6A" d="M1730.626,833.451c-0.297,0-0.535-0.238-0.535-0.535v-5.23h-5.229
	c-0.298,0-0.537-0.239-0.537-0.534v-3.461c0-0.298,0.239-0.535,0.537-0.535h5.229v-5.23c0-0.299,0.238-0.537,0.535-0.537h3.461
	c0.296,0,0.536,0.238,0.536,0.537v5.23h5.229c0.298,0,0.537,0.237,0.537,0.535v3.461c0,0.295-0.239,0.534-0.537,0.534h-5.229v5.23
	c0,0.297-0.24,0.535-0.536,0.535H1730.626z"/>
<g>
	<path fill="none" d="M5.5,24.132c2-0.803,4-1.508,5-2.307V7.002c-1,0.803-3,1.602-5,2.402C5.5,15.592,5.5,17.947,5.5,24.132z"/>
	<path fill="#6A6A6A" d="M16.23,25.454l1.419-1.482c-2.319-1.1-5.149-2.408-5.149-2.422V6.762c3,1.006,8,3.031,8,3.051v11.769
		l2-1.867V9.648c1-0.785,3-1.57,5-2.359c0,4.932,0,8.02,0,12.019h4c0-3.999,0-10.087,0-14.796c0-1.072-0.368-1.312-0.902-1.686
		c-0.494-0.291-1.428-0.178-1.822-0.014c-2.605,1.098-4.99,2.479-7.598,3.576c-2.654-1.098-5.543-2.479-8.199-3.576
		c-0.301-0.125-0.597-0.166-0.88-0.16c-0.27-0.006-0.555,0.035-0.845,0.16C8.347,4.061,5.417,5.305,2.507,6.549
		C1.744,6.877,1.5,7.307,1.5,8.25s0,17.751,0,18.685s0.678,1.541,1.357,1.721c0.457,0.186,0.999,0.215,1.549-0.023
		c2.625-1.125,4.656-2.148,7.281-3.273c1.242,0.533,2.813,1.041,3.813,1.551c0-0.006,0-0.01,0-0.016
		C15.5,26.351,15.847,25.839,16.23,25.454z M10.5,21.825c-1,0.799-3,1.504-5,2.307c0-6.185,0-8.54,0-14.728c2-0.801,4-1.6,5-2.402
		V21.825z"/>
	<path id="delete_1_" fill="#C42527" d="M33.963,20.433H23.731c-0.143,0-0.281,0.055-0.381,0.156l-5.923,5.922
		c-0.21,0.211-0.21,0.553,0,0.762l5.923,5.924c0.1,0.1,0.238,0.156,0.381,0.156h10.231c0.297,0,0.537-0.242,0.537-0.539V20.97
		C34.498,20.673,34.26,20.433,33.963,20.433z M32.173,30.198l-0.827,0.826c-0.227,0.229-0.595,0.229-0.827,0l-2.479-2.48l-2.48,2.48
		c-0.229,0.23-0.598,0.23-0.827,0l-0.827-0.826c-0.23-0.229-0.226-0.6,0-0.824l2.483-2.484l-2.485-2.479
		c-0.229-0.229-0.229-0.602,0-0.828l0.828-0.826c0.23-0.227,0.597-0.227,0.824,0l2.484,2.48l2.479-2.48
		c0.229-0.227,0.601-0.227,0.827,0l0.827,0.826c0.229,0.227,0.229,0.598,0,0.828l-2.481,2.479l2.481,2.48
		C32.402,29.599,32.402,29.97,32.173,30.198z"/>
</g>
</svg>
