<?xml version="1.0" encoding="UTF-8" standalone="no"?>
<!-- Generator: Adobe Illustrator 15.1.0, SVG Export Plug-In . SVG Version: 6.00 Build 0)  -->

<svg
   xmlns:dc="http://purl.org/dc/elements/1.1/"
   xmlns:cc="http://creativecommons.org/ns#"
   xmlns:rdf="http://www.w3.org/1999/02/22-rdf-syntax-ns#"
   xmlns:svg="http://www.w3.org/2000/svg"
   xmlns="http://www.w3.org/2000/svg"
   xmlns:sodipodi="http://sodipodi.sourceforge.net/DTD/sodipodi-0.dtd"
   xmlns:inkscape="http://www.inkscape.org/namespaces/inkscape"
   version="1.1"
   id="Layer_1"
   x="0px"
   y="0px"
   width="20px"
   height="20px"
   viewBox="0 0 20 20"
   enable-background="new 0 0 20 20"
   xml:space="preserve"
   inkscape:version="0.48.4 r9939"
   sodipodi:docname="longomatch-arrow.svg"><metadata
     id="metadata8"><rdf:RDF><cc:Work
         rdf:about=""><dc:format>image/svg+xml</dc:format><dc:type
           rdf:resource="http://purl.org/dc/dcmitype/StillImage" /><dc:title></dc:title></cc:Work></rdf:RDF></metadata><defs
     id="defs6" /><sodipodi:namedview
     pagecolor="#ffffff"
     bordercolor="#666666"
     borderopacity="1"
     objecttolerance="10"
     gridtolerance="10"
     guidetolerance="10"
     inkscape:pageopacity="0"
     inkscape:pageshadow="2"
     inkscape:window-width="640"
     inkscape:window-height="480"
     id="namedview4"
     showgrid="false"
     inkscape:zoom="15.210938"
     inkscape:cx="10"
     inkscape:cy="10"
     inkscape:window-x="0"
     inkscape:window-y="27"
     inkscape:window-maximized="0"
     inkscape:current-layer="Layer_1" /><path
     id="arrow-right"
     d="m 10.437125,19.714875 4.33,-4.33 c 0.119,-0.118 0.182,-0.276 0.182,-0.437 0,-0.08 -0.015,-0.161 -0.047,-0.236 -0.096,-0.232 -0.322,-0.383 -0.572,-0.383 l -3.093,0 0,-13.609 c 0,-0.342 -0.276,-0.617 -0.618,-0.617 l -1.238,0 c -0.342,0 -0.619,0.275 -0.619,0.617 l 0,13.609 -3.092,0 c -0.25,0 -0.475,0.15 -0.57,0.383 -0.035,0.075 -0.049,0.156 -0.049,0.236 0,0.16 0.064,0.318 0.182,0.437 l 4.331,4.33 c 0.24,0.243 0.632,0.243 0.873,0 z"
     inkscape:connector-curvature="0"
     style="fill:#e6e6e6" /></svg>