<?xml version="1.0" encoding="utf-8"?>
<!-- Generator: Adobe Illustrator 16.0.0, SVG Export Plug-In . SVG Version: 6.00 Build 0)  -->
<!DOCTYPE svg PUBLIC "-//W3C//DTD SVG 1.1//EN" "http://www.w3.org/Graphics/SVG/1.1/DTD/svg11.dtd">
<svg version="1.1" id="Layer_1" xmlns="http://www.w3.org/2000/svg" xmlns:xlink="http://www.w3.org/1999/xlink" x="0px" y="0px"
	 width="36px" height="36px" viewBox="0 0 36 36" enable-background="new 0 0 36 36" xml:space="preserve">
<g>
	<path fill="#6A6A6A" d="M14.788,25.66l4.381-4.195l-1.76-0.455h-4.664l-8.332,2.924c0,0-1.336,0.057-1.336,1.369v1.557
		c0,0.857,0.259,1.15,1.117,1.15h10.49c-0.312,0-0.491-0.623-0.491-1.111C14.193,26.355,14.404,26.045,14.788,25.66z"/>
	<path fill="#6A6A6A" d="M15.694,19.412c0,0,6.408,0,6.408-7.461c0.752,0.006,1.717,0.293,1.717,0.293s0-9.803-8.258-9.803
		c-7.994,0-7.994,9.807-7.994,9.807c1.146-0.275,1.714-0.303,1.714-0.303C9.296,19.412,15.694,19.412,15.694,19.412z"/>
	<path id="delete_1_" fill="#C42527" d="M32.386,20.639H22.154c-0.143,0-0.281,0.055-0.381,0.156l-5.923,5.922
		c-0.21,0.211-0.21,0.553,0,0.762l5.923,5.924c0.1,0.1,0.238,0.156,0.381,0.156h10.231c0.297,0,0.537-0.242,0.537-0.539V21.176
		C32.921,20.879,32.683,20.639,32.386,20.639z M30.596,30.404l-0.827,0.826c-0.227,0.229-0.595,0.229-0.827,0l-2.479-2.48
		l-2.48,2.48c-0.229,0.23-0.598,0.23-0.827,0l-0.827-0.826c-0.23-0.229-0.226-0.6,0-0.824l2.483-2.484l-2.485-2.479
		c-0.229-0.229-0.229-0.602,0-0.828l0.828-0.826c0.23-0.227,0.597-0.227,0.824,0l2.484,2.48l2.479-2.48
		c0.229-0.227,0.601-0.227,0.827,0l0.827,0.826c0.229,0.227,0.229,0.598,0,0.828l-2.481,2.479l2.481,2.48
		C30.825,29.805,30.825,30.176,30.596,30.404z"/>
</g>
</svg>
