<?xml version="1.0" encoding="utf-8"?>
<!-- Generator: Adobe Illustrator 15.1.0, SVG Export Plug-In . SVG Version: 6.00 Build 0)  -->
<!DOCTYPE svg PUBLIC "-//W3C//DTD SVG 1.1//EN" "http://www.w3.org/Graphics/SVG/1.1/DTD/svg11.dtd">
<svg version="1.1" id="Layer_1" xmlns="http://www.w3.org/2000/svg" xmlns:xlink="http://www.w3.org/1999/xlink" x="0px" y="0px"
	 width="22px" height="22px" viewBox="0 0 22 22" enable-background="new 0 0 22 22" xml:space="preserve">
<g>
	<polygon fill="#6A6A6A" points="21.048,20.948 19.548,20.948 19.548,19.948 20.048,19.948 20.048,19.448 21.048,19.448 	"/>
	<path fill="#6A6A6A" d="M17.648,20.948h-1.899v-1h1.899V20.948z M13.85,20.948H11.95v-1h1.899V20.948L13.85,20.948z M10.05,20.948
		H8.151v-1h1.899V20.948z M6.251,20.948h-1.9v-1h1.9V20.948z"/>
	<polygon fill="#6A6A6A" points="2.452,20.948 0.952,20.948 0.952,19.448 1.952,19.448 1.952,19.948 2.452,19.948 	"/>
	<path fill="#6A6A6A" d="M1.952,17.57h-1v-1.877h1V17.57z M1.952,13.816h-1v-1.877h1V13.816z M1.952,10.062h-1V8.185h1V10.062z
		 M1.952,6.307h-1V4.43h1V6.307z"/>
	<polygon fill="#6A6A6A" points="1.952,2.552 0.952,2.552 0.952,1.052 2.452,1.052 2.452,2.052 1.952,2.052 	"/>
	<path fill="#6A6A6A" d="M17.648,2.052h-1.899v-1h1.899V2.052z M13.85,2.052H11.95v-1h1.899V2.052z M10.05,2.052h-1.9v-1h1.9V2.052z
		 M6.251,2.052H4.352v-1h1.899V2.052z"/>
	<polygon fill="#6A6A6A" points="21.048,2.552 20.048,2.552 20.048,2.052 19.548,2.052 19.548,1.052 21.048,1.052 	"/>
	<path fill="#6A6A6A" d="M21.048,17.57h-1v-1.877h1V17.57z M21.048,13.816h-1v-1.879h1V13.816z M21.048,10.062h-1V8.184h1V10.062z
		 M21.048,6.307h-1V4.429h1V6.307z"/>
</g>
<path fill="none" stroke="#6A6A6A" stroke-miterlimit="10" stroke-dasharray="2,2" d="M20.548,1.552"/>
<g>
	
		<rect x="14.852" y="3.507" transform="matrix(-0.7071 -0.7071 0.7071 -0.7071 21.3652 22.5436)" fill="#6A6A6A" width="1" height="6.679"/>
	<path fill="none" stroke="#6A6A6A" stroke-linecap="square" stroke-miterlimit="10" stroke-dasharray="2,2" d="M17.713,4.486"/>
	<rect x="17.213" y="3.986" fill="#6A6A6A" width="1" height="5.589"/>
	<rect x="12.625" y="3.986" fill="#6A6A6A" width="5.588" height="1"/>
</g>
<g>
	
		<rect x="6.587" y="11.827" transform="matrix(-0.7071 -0.7071 0.7071 -0.7071 1.3727 30.9035)" fill="#6A6A6A" width="1" height="6.681"/>
	<path fill="none" stroke="#6A6A6A" stroke-linecap="square" stroke-miterlimit="10" stroke-dasharray="2,2" d="M4.726,17.529"/>
	<rect x="4.226" y="12.439" fill="#6A6A6A" width="1" height="5.59"/>
	<rect x="4.226" y="17.029" fill="#6A6A6A" width="5.589" height="1"/>
</g>
<g>
	
		<rect x="11.829" y="14.547" transform="matrix(-0.7071 -0.7071 0.7071 -0.7071 15.2557 36.4139)" fill="#6A6A6A" width="6.68" height="1"/>
	<path fill="none" stroke="#6A6A6A" stroke-linecap="square" stroke-miterlimit="10" stroke-dasharray="2,2" d="M17.531,17.41"/>
	<rect x="12.441" y="16.91" fill="#6A6A6A" width="5.59" height="1"/>
	<rect x="17.031" y="12.32" fill="#6A6A6A" width="1" height="5.59"/>
</g>
<g>
	
		<rect x="3.509" y="6.285" transform="matrix(-0.7072 -0.707 0.707 -0.7072 6.8965 16.4256)" fill="#6A6A6A" width="6.681" height="1"/>
	<path fill="none" stroke="#6A6A6A" stroke-linecap="square" stroke-miterlimit="10" stroke-dasharray="2,2" d="M4.487,4.423"/>
	<rect x="3.987" y="3.923" fill="#6A6A6A" width="5.59" height="1"/>
	<rect x="3.987" y="3.923" fill="#6A6A6A" width="1" height="5.589"/>
</g>
</svg>
