<?xml version="1.0" encoding="UTF-8" standalone="no"?>
<!-- Generator: Adobe Illustrator 15.1.0, SVG Export Plug-In . SVG Version: 6.00 Build 0)  -->

<svg
   xmlns:dc="http://purl.org/dc/elements/1.1/"
   xmlns:cc="http://creativecommons.org/ns#"
   xmlns:rdf="http://www.w3.org/1999/02/22-rdf-syntax-ns#"
   xmlns:svg="http://www.w3.org/2000/svg"
   xmlns="http://www.w3.org/2000/svg"
   xmlns:sodipodi="http://sodipodi.sourceforge.net/DTD/sodipodi-0.dtd"
   xmlns:inkscape="http://www.inkscape.org/namespaces/inkscape"
   version="1.1"
   id="Layer_1"
   x="0px"
   y="0px"
   width="14"
   height="14"
   viewBox="0 0 14 14"
   enable-background="new 0 0 16 12"
   xml:space="preserve"
   inkscape:version="0.48.4 r9939"
   sodipodi:docname="longomatch-zoom-out.svg"><metadata
     id="metadata9"><rdf:RDF><cc:Work
         rdf:about=""><dc:format>image/svg+xml</dc:format><dc:type
           rdf:resource="http://purl.org/dc/dcmitype/StillImage" /></cc:Work></rdf:RDF></metadata><defs
     id="defs7" /><sodipodi:namedview
     pagecolor="#ffffff"
     bordercolor="#666666"
     borderopacity="1"
     objecttolerance="10"
     gridtolerance="10"
     guidetolerance="10"
     inkscape:pageopacity="0"
     inkscape:pageshadow="2"
     inkscape:window-width="640"
     inkscape:window-height="480"
     id="namedview5"
     showgrid="false"
     fit-margin-top="0"
     fit-margin-left="0"
     fit-margin-right="0"
     fit-margin-bottom="0"
     inkscape:zoom="42.126238"
     inkscape:cx="4.5008143"
     inkscape:cy="5"
     inkscape:window-x="0"
     inkscape:window-y="27"
     inkscape:window-maximized="0"
     inkscape:current-layer="Layer_1" /><path
     d="m 11.927814,11.862 c -0.091,0.086 -0.253,0.138 -0.429,0.138 H 3.5018143 c -0.173,0 -0.335,-0.051 -0.426,-0.135 -0.092,-0.085 -0.101,-0.19 -0.023,-0.278 l 2.97,-3.395 c 0.102,-0.118 0.317,-0.192 0.56,-0.192 0.249,0 0.466,0.078 0.567,0.204 l 1.272,1.598 0.393,-0.43 c 0.087,-0.094 0.3309997,-0.18 0.5189997,-0.18 0.187,0 0.375,0.051 0.534,0.145 0.034,0.021 0.062,0.043 0.087,0.067 l 1.989,2.179 c 0.081,0.088 0.076,0.194 -0.016,0.279 z"
     id="path3"
     inkscape:connector-curvature="0"
     style="fill:#6a6a6a" /></svg>