<?xml version="1.0" encoding="utf-8"?>
<!-- Generator: Adobe Illustrator 15.1.0, SVG Export Plug-In . SVG Version: 6.00 Build 0)  -->
<!DOCTYPE svg PUBLIC "-//W3C//DTD SVG 1.1//EN" "http://www.w3.org/Graphics/SVG/1.1/DTD/svg11.dtd">
<svg version="1.1" id="Layer_1" xmlns="http://www.w3.org/2000/svg" xmlns:xlink="http://www.w3.org/1999/xlink" x="0px" y="0px"
	 width="36px" height="36px" viewBox="13.49 0 36 36" enable-background="new 13.49 0 36 36" xml:space="preserve">
<path id="plus_12_" fill="#6A6A6A" d="M1730.626,833.451c-0.297,0-0.535-0.238-0.535-0.535v-5.23h-5.229
	c-0.297,0-0.537-0.24-0.537-0.535v-3.461c0-0.297,0.24-0.535,0.537-0.535h5.229v-5.23c0-0.299,0.238-0.537,0.535-0.537h3.461
	c0.296,0,0.536,0.238,0.536,0.537v5.23h5.229c0.297,0,0.537,0.238,0.537,0.535v3.461c0,0.295-0.24,0.535-0.537,0.535h-5.229v5.23
	c0,0.297-0.24,0.535-0.536,0.535H1730.626z"/>
<g>
	<path fill="#6A6A6A" d="M31.181,14.875c0.086,0.086,0.197,0.126,0.31,0.126c0.11,0,0.224-0.04,0.31-0.126l6.553-6.116
		c0.083-0.084,0.129-0.194,0.129-0.311c0-0.055-0.014-0.111-0.035-0.167c-0.065-0.162-0.227-0.269-0.403-0.269h-3.102V1.459
		c0-0.242-0.196-0.438-0.438-0.438h-6.116c-0.242,0-0.437,0.196-0.437,0.438v6.553h-3.015c-0.178,0-0.336,0.107-0.404,0.269
		c-0.022,0.056-0.033,0.113-0.033,0.167c0,0.116,0.045,0.226,0.129,0.311L31.181,14.875z"/>
	<path fill="#6A6A6A" d="M30.476,26.539c0-1.326,0.95-2.446,2.259-2.663l0.125-0.021l-0.053-0.074
		c-0.771-1.08-0.649-2.544,0.292-3.481l0.667-0.668c0.914-0.913,2.436-1.038,3.483-0.284l0.077,0.055l0.022-0.134
		c0.207-1.301,1.327-2.257,2.662-2.257h0.951c0.358,0,0.7,0.075,1.015,0.202v-3.59c0-0.251-0.141-0.476-0.363-0.589l-3.432-1.729
		l-1.864,1.741l3.036,1.519l-7.863,3.896l-7.865-3.896l3.038-1.519l-1.867-1.741l-3.431,1.729c-0.222,0.113-0.361,0.337-0.361,0.589
		v9.748c0,0.251,0.14,0.477,0.361,0.589l9.397,4.733c-0.182-0.364-0.287-0.772-0.287-1.205V26.539z"/>
</g>
<path id="settings_3_" fill="#50B44B" d="M47.895,25.849l-1.586-0.266c-0.114-0.471-0.283-0.921-0.502-1.341l1.016-1.259
	c0.215-0.265,0.205-0.648-0.021-0.904l-0.631-0.71c-0.228-0.256-0.607-0.311-0.896-0.128l-1.357,0.852
	c-0.596-0.417-1.271-0.724-1.999-0.902l-0.266-1.593c-0.057-0.338-0.349-0.587-0.69-0.587h-0.951c-0.343,0-0.636,0.249-0.689,0.587
	l-0.267,1.593c-0.604,0.148-1.167,0.386-1.684,0.7l-1.289-0.92c-0.277-0.199-0.659-0.169-0.901,0.073l-0.671,0.672
	c-0.243,0.242-0.273,0.625-0.075,0.902l0.923,1.292c-0.312,0.512-0.546,1.073-0.693,1.671l-1.604,0.268
	c-0.337,0.056-0.585,0.347-0.585,0.689v0.95c0,0.343,0.248,0.635,0.585,0.69l1.604,0.268c0.121,0.49,0.297,0.961,0.529,1.396
	l-1.009,1.251c-0.216,0.266-0.206,0.649,0.021,0.905l0.63,0.711c0.228,0.255,0.607,0.309,0.897,0.127l1.374-0.864
	c0.583,0.399,1.241,0.691,1.947,0.863l0.267,1.595c0.054,0.338,0.347,0.585,0.689,0.585h0.951c0.342,0,0.634-0.247,0.69-0.585
	l0.266-1.595c0.595-0.146,1.151-0.379,1.663-0.687l1.343,0.958c0.276,0.199,0.66,0.169,0.901-0.075l0.672-0.67
	c0.24-0.242,0.273-0.623,0.073-0.902l-0.955-1.341c0.311-0.514,0.546-1.075,0.693-1.676l1.586-0.264
	c0.338-0.056,0.585-0.348,0.585-0.69v-0.95C48.479,26.196,48.232,25.905,47.895,25.849z M40.503,30.015
	c-1.658,0-3.001-1.345-3.001-3.002c0-1.656,1.343-3,3.001-3s3.001,1.344,3.001,3C43.504,28.67,42.161,30.015,40.503,30.015z"/>
</svg>
