<?xml version="1.0" encoding="utf-8"?>
<!-- Generator: Adobe Illustrator 15.1.0, SVG Export Plug-In . SVG Version: 6.00 Build 0)  -->
<!DOCTYPE svg PUBLIC "-//W3C//DTD SVG 1.1//EN" "http://www.w3.org/Graphics/SVG/1.1/DTD/svg11.dtd">
<svg version="1.1" id="Layer_1" xmlns="http://www.w3.org/2000/svg" xmlns:xlink="http://www.w3.org/1999/xlink" x="0px" y="0px"
	 width="42px" height="32px" viewBox="0 0 42 32" enable-background="new 0 0 42 32" xml:space="preserve">
<polygon fill="#3B3B3C" points="42,32 0,32 10,15.917 0,0 42,0 32,16.062 "/>
<g>
	<path fill="#151A20" d="M16.681,20.29l-3.013-8.568h1.225l2.447,7.429h0.024l2.472-7.429h1.188l-3.048,8.568H16.681z"/>
	<path fill="#151A20" d="M26.227,12.892c-0.381-0.275-0.866-0.414-1.458-0.414c-0.24,0-0.476,0.024-0.708,0.072
		s-0.438,0.128-0.618,0.24c-0.18,0.112-0.323,0.262-0.433,0.45c-0.107,0.188-0.161,0.422-0.161,0.701
		c0,0.265,0.077,0.479,0.233,0.643s0.364,0.298,0.625,0.401c0.26,0.104,0.553,0.19,0.881,0.259c0.328,0.067,0.662,0.142,1.002,0.222
		c0.341,0.08,0.674,0.174,1.002,0.282c0.328,0.107,0.623,0.254,0.883,0.438c0.26,0.185,0.468,0.416,0.624,0.696
		c0.155,0.28,0.233,0.632,0.233,1.056c0,0.457-0.102,0.847-0.306,1.17c-0.204,0.324-0.466,0.588-0.786,0.793
		c-0.32,0.203-0.678,0.352-1.074,0.443c-0.396,0.092-0.789,0.139-1.182,0.139c-0.48,0-0.934-0.061-1.361-0.181
		c-0.429-0.12-0.805-0.302-1.129-0.546s-0.58-0.556-0.768-0.936c-0.188-0.381-0.282-0.83-0.282-1.35h1.08
		c0,0.359,0.069,0.67,0.21,0.93s0.324,0.474,0.553,0.642c0.228,0.168,0.493,0.292,0.797,0.372c0.305,0.08,0.616,0.12,0.937,0.12
		c0.256,0,0.515-0.024,0.774-0.072s0.494-0.13,0.701-0.246c0.209-0.116,0.377-0.274,0.504-0.474c0.129-0.2,0.192-0.456,0.192-0.768
		c0-0.297-0.078-0.537-0.233-0.721c-0.156-0.184-0.365-0.334-0.625-0.45s-0.554-0.21-0.881-0.282
		c-0.328-0.071-0.662-0.146-1.002-0.222c-0.341-0.076-0.675-0.164-1.002-0.264c-0.328-0.101-0.623-0.232-0.883-0.396
		s-0.468-0.376-0.624-0.636s-0.234-0.586-0.234-0.979c0-0.432,0.088-0.806,0.265-1.122c0.176-0.315,0.409-0.575,0.701-0.779
		c0.293-0.204,0.625-0.356,0.996-0.456c0.373-0.101,0.754-0.15,1.146-0.15c0.439,0,0.848,0.053,1.225,0.156
		c0.375,0.104,0.705,0.269,0.989,0.492s0.509,0.506,0.673,0.846c0.163,0.34,0.254,0.746,0.27,1.218h-1.08
		C26.828,13.614,26.606,13.168,26.227,12.892z"/>
</g>
</svg>
