<?xml version="1.0" encoding="utf-8"?>
<!-- Generator: Adobe Illustrator 15.1.0, SVG Export Plug-In . SVG Version: 6.00 Build 0)  -->
<!DOCTYPE svg PUBLIC "-//W3C//DTD SVG 1.1//EN" "http://www.w3.org/Graphics/SVG/1.1/DTD/svg11.dtd">
<svg version="1.1" id="Layer_1" xmlns="http://www.w3.org/2000/svg" xmlns:xlink="http://www.w3.org/1999/xlink" x="0px" y="0px"
	 width="22px" height="22px" viewBox="0 0 22 22" enable-background="new 0 0 22 22" xml:space="preserve">
<g>
	<polygon fill="#6A6A6A" points="21.048,19.717 19.548,19.717 19.548,18.717 20.048,18.717 20.048,18.217 21.048,18.217 	"/>
	<path fill="#6A6A6A" d="M17.648,19.717h-1.899v-1h1.899V19.717z M13.85,19.717H11.95v-1h1.899V19.717L13.85,19.717z M10.05,19.717
		H8.151v-1h1.899V19.717z M6.251,19.717h-1.9v-1h1.9V19.717z"/>
	<polygon fill="#6A6A6A" points="2.452,19.717 0.952,19.717 0.952,18.217 1.952,18.217 1.952,18.717 2.452,18.717 	"/>
	<path fill="#6A6A6A" d="M1.952,16.363h-1V14.51h1V16.363z M1.952,12.657h-1v-1.854h1V12.657z M1.952,8.951h-1V7.098h1V8.951z"/>
	<polygon fill="#6A6A6A" points="1.952,5.245 0.952,5.245 0.952,3.745 2.452,3.745 2.452,4.745 1.952,4.745 	"/>
	<path fill="#6A6A6A" d="M17.648,4.745h-1.899v-1h1.899V4.745z M13.85,4.745H11.95v-1h1.899V4.745z M10.05,4.745h-1.9v-1h1.9V4.745z
		 M6.251,4.745H4.352v-1h1.899V4.745z"/>
	<polygon fill="#6A6A6A" points="21.048,5.245 20.048,5.245 20.048,4.745 19.548,4.745 19.548,3.745 21.048,3.745 	"/>
	<path fill="#6A6A6A" d="M21.048,16.363h-1V14.51h1V16.363z M21.048,12.657h-1v-1.853h1V12.657z M21.048,8.951h-1V7.098h1V8.951z"/>
</g>
<g>
	<rect x="12.173" y="11.22" fill="#6A6A6A" width="6.168" height="1"/>
	<path fill="none" stroke="#6A6A6A" stroke-linecap="square" stroke-miterlimit="10" stroke-dasharray="2,2" d="M18.341,11.721"/>
	
		<rect x="16.343" y="10.599" transform="matrix(-0.7069 -0.7074 0.7074 -0.7069 19.3982 34.4759)" fill="#6A6A6A" width="1" height="5.238"/>
	
		<rect x="14.226" y="9.722" transform="matrix(-0.7073 -0.7069 0.7069 -0.7073 21.531 29.3594)" fill="#6A6A6A" width="5.236" height="1.001"/>
</g>
<g>
	<rect x="3.72" y="11.258" fill="#6A6A6A" width="6.17" height="1"/>
	<path fill="none" stroke="#6A6A6A" stroke-linecap="square" stroke-miterlimit="10" stroke-dasharray="2,2" d="M3.72,11.758"/>
	
		<rect x="4.718" y="7.641" transform="matrix(-0.7071 -0.7071 0.7071 -0.7071 1.6531 21.2038)" fill="#6A6A6A" width="1" height="5.238"/>
	
		<rect x="2.599" y="12.756" transform="matrix(-0.7071 -0.7072 0.7072 -0.7071 -0.4667 26.3179)" fill="#6A6A6A" width="5.237" height="1"/>
</g>
<path fill="none" stroke="#6A6A6A" stroke-miterlimit="10" stroke-dasharray="2,2" d="M-15.984,67.538"/>
</svg>
