<?xml version="1.0" encoding="utf-8"?>
<!-- Generator: Adobe Illustrator 15.1.0, SVG Export Plug-In . SVG Version: 6.00 Build 0)  -->
<!DOCTYPE svg PUBLIC "-//W3C//DTD SVG 1.1//EN" "http://www.w3.org/Graphics/SVG/1.1/DTD/svg11.dtd">
<svg version="1.1" id="Layer_1" xmlns="http://www.w3.org/2000/svg" xmlns:xlink="http://www.w3.org/1999/xlink" x="0px" y="0px"
	 width="36px" height="36px" viewBox="0 0 36 36" enable-background="new 0 0 36 36" xml:space="preserve">
<g>
	<g>
		<path fill="#6A6A6A" d="M16.92,26.304c0.331-5.018,4.353-8.984,9.299-9.334c0.066-3.717,0.066-5.287,0.066-5.287l3.535,4.298
			c0,0,0.838,0.083,3.101-2.067c2.229-2.122,1.959-3.047,1.959-3.047s-4.188-5.712-5.06-6.58c-0.845-0.847-3.656-2.566-7.512-3.261
			c-0.109-0.019-0.212-0.032-0.247-0.013c-0.057,0.031-0.071,0.035-0.071,0.164c0,0.608-0.324,2.348-4.028,2.348
			c-3.704,0-4.03-1.74-4.03-2.348c0-0.129-0.014-0.133-0.07-0.164c-0.035-0.02-0.138-0.006-0.248,0.013
			C9.761,1.72,6.949,3.439,6.104,4.286c-0.871,0.868-5.059,6.58-5.059,6.58s-0.271,0.925,1.959,3.047
			c2.261,2.151,3.1,2.067,3.1,2.067l3.534-4.299c0,0,0,2.176,0.109,7.506c0.108,5.33,0.707,8.377,0.707,8.377
			c1.338,0.892,4.85,1.146,6.554,1.22c0.09-0.303,0.229-0.584,0.42-0.83C17.07,27.475,16.883,26.895,16.92,26.304z"/>
	</g>
	<g id="update">
		<path fill="#50B44D" d="M34.653,18.972c-0.062-0.025-0.129-0.039-0.193-0.039c-0.131,0-0.258,0.051-0.354,0.148l-1.87,1.869
			c-1.469-1.299-3.33-2.018-5.305-2.018c-4.215,0-7.736,3.293-8.014,7.496c-0.01,0.14,0.039,0.275,0.135,0.378
			c0.095,0.1,0.229,0.157,0.365,0.157h1.008c0.262,0,0.48-0.201,0.5-0.465c0.238-3.117,2.877-5.559,6.006-5.559
			c1.438,0,2.799,0.506,3.887,1.428l-1.73,1.73c-0.143,0.145-0.188,0.359-0.108,0.547c0.077,0.188,0.261,0.311,0.464,0.311h5.021
			c0.276,0,0.502-0.227,0.502-0.504v-5.02C34.962,19.231,34.839,19.048,34.653,18.972z"/>
		<path fill="#50B44D" d="M34.434,26.964h-1.003c-0.264,0-0.48,0.203-0.501,0.465c-0.237,3.117-2.874,5.561-6,5.561
			c-1.429,0-2.806-0.508-3.888-1.426l1.732-1.734c0.143-0.144,0.188-0.358,0.109-0.547c-0.078-0.187-0.262-0.31-0.465-0.31h-5.021
			c-0.276,0-0.502,0.225-0.502,0.501v5.021c0,0.202,0.122,0.385,0.312,0.463c0.062,0.025,0.127,0.039,0.19,0.039
			c0.132,0,0.261-0.053,0.355-0.147l1.864-1.865c0.01,0.009,0.013,0.021,0.021,0.027c1.46,1.28,3.339,1.985,5.287,1.985
			c4.211,0,7.727-3.293,8.005-7.496c0.011-0.14-0.038-0.275-0.133-0.377C34.706,27.021,34.573,26.964,34.434,26.964z"/>
	</g>
</g>
<path id="lock-locked" fill="#252627" d="M20.644,11.958h-0.749v-2.24c0-1.651-1.338-2.99-2.986-2.99
	c-1.651,0-2.989,1.338-2.989,2.99v2.24h-0.745c-0.413,0-0.747,0.333-0.747,0.746v5.229c0,0.414,0.334,0.746,0.747,0.746h7.468
	c0.412,0,0.747-0.333,0.747-0.746v-5.229C21.391,12.29,21.056,11.958,20.644,11.958z M15.416,9.715c0-0.826,0.668-1.493,1.493-1.493
	c0.824,0,1.494,0.667,1.494,1.493v2.241h-2.987V9.715z"/>
</svg>
