<?xml version="1.0" encoding="utf-8"?>
<!-- Generator: Adobe Illustrator 15.1.0, SVG Export Plug-In . SVG Version: 6.00 Build 0)  -->
<!DOCTYPE svg PUBLIC "-//W3C//DTD SVG 1.1//EN" "http://www.w3.org/Graphics/SVG/1.1/DTD/svg11.dtd">
<svg version="1.1" id="Layer_1" xmlns="http://www.w3.org/2000/svg" xmlns:xlink="http://www.w3.org/1999/xlink" x="0px" y="0px"
	 width="20px" height="20px" viewBox="0 0 20 20" enable-background="new 0 0 20 20" xml:space="preserve">
<path id="arrow-right" fill="#6A6A6A" d="M19.715,9.563l-4.33-4.33c-0.118-0.119-0.276-0.182-0.437-0.182
	c-0.08,0-0.161,0.015-0.236,0.047c-0.232,0.096-0.383,0.322-0.383,0.572v3.093H0.72c-0.342,0-0.617,0.276-0.617,0.618v1.238
	c0,0.342,0.275,0.619,0.617,0.619h13.609v3.092c0,0.25,0.15,0.475,0.383,0.57c0.075,0.035,0.156,0.049,0.236,0.049
	c0.16,0,0.318-0.064,0.437-0.182l4.33-4.331C19.958,10.196,19.958,9.804,19.715,9.563z"/>
</svg>
