<?xml version="1.0" encoding="utf-8"?>
<!-- Generator: Adobe Illustrator 15.1.0, SVG Export Plug-In . SVG Version: 6.00 Build 0)  -->
<!DOCTYPE svg PUBLIC "-//W3C//DTD SVG 1.1//EN" "http://www.w3.org/Graphics/SVG/1.1/DTD/svg11.dtd">
<svg version="1.1" id="Layer_1" xmlns="http://www.w3.org/2000/svg" xmlns:xlink="http://www.w3.org/1999/xlink" x="0px" y="0px"
	 width="36px" height="36px" viewBox="13.49 0 36 36" enable-background="new 13.49 0 36 36" xml:space="preserve">
<path id="plus_12_" fill="#6A6A6A" d="M1730.626,833.451c-0.297,0-0.535-0.238-0.535-0.535v-5.23h-5.229
	c-0.297,0-0.537-0.24-0.537-0.535v-3.461c0-0.297,0.24-0.535,0.537-0.535h5.229v-5.23c0-0.299,0.238-0.537,0.535-0.537h3.461
	c0.296,0,0.536,0.238,0.536,0.537v5.23h5.229c0.297,0,0.537,0.238,0.537,0.535v3.461c0,0.295-0.24,0.535-0.537,0.535h-5.229v5.23
	c0,0.297-0.24,0.535-0.536,0.535H1730.626z"/>
<path id="video" fill-rule="evenodd" clip-rule="evenodd" fill="#6A6A6A" d="M37.814,7.413c1.171,0,2.119,0.947,2.119,2.116v4.851
	l6.658-6.657c0.203-0.203,0.476-0.311,0.749-0.311c0.136,0,0.272,0.025,0.405,0.08c0.396,0.164,0.654,0.55,0.654,0.978v19.06
	c0,0.432-0.259,0.815-0.654,0.981c-0.133,0.054-0.27,0.078-0.405,0.078c-0.273,0-0.546-0.108-0.749-0.311l-6.658-6.658L39.93,26.47
	c0,1.172-0.948,2.118-2.118,2.118H16.633c-1.171,0-2.118-0.946-2.118-2.118l0.005-16.941c0-1.169,0.947-2.116,2.118-2.116H37.814z"
	/>
</svg>
