<?xml version="1.0" encoding="utf-8"?>
<!-- Generator: Adobe Illustrator 15.1.0, SVG Export Plug-In . SVG Version: 6.00 Build 0)  -->
<!DOCTYPE svg PUBLIC "-//W3C//DTD SVG 1.1//EN" "http://www.w3.org/Graphics/SVG/1.1/DTD/svg11.dtd">
<svg version="1.1" id="Layer_1" xmlns="http://www.w3.org/2000/svg" xmlns:xlink="http://www.w3.org/1999/xlink" x="0px" y="0px"
	 width="63px" height="37px" viewBox="0 0 63 37" enable-background="new 0 0 63 37" xml:space="preserve">
<g>
	<path fill="#6A6A6A" d="M31.482,4.083c-4.691-0.001-5.104-2.203-5.104-2.974c0-0.163-0.018-0.169-0.089-0.208
		c-0.045-0.025-0.175-0.008-0.314,0.016c-4.881,0.881-8.441,3.058-9.513,4.131c-1.103,1.1-6.406,8.333-6.406,8.333
		s-0.343,1.173,2.48,3.858c2.864,2.725,3.926,2.619,3.926,2.619l4.476-5.443c0,0,0,2.754,0.141,9.506
		c0.137,6.75,0.895,10.608,0.895,10.608c2.272,1.513,9.51,1.582,9.51,1.582s7.238-0.069,9.51-1.582c0,0,0.757-3.858,0.895-10.608
		c0.139-6.752,0.139-9.506,0.139-9.506l4.478,5.443c0,0,1.062,0.105,3.926-2.619c2.823-2.686,2.48-3.858,2.48-3.858
		s-5.305-7.233-6.406-8.333c-1.071-1.073-4.633-3.25-9.514-4.131c-0.139-0.023-0.269-0.041-0.312-0.016
		c-0.072,0.039-0.091,0.045-0.091,0.208C36.586,1.88,36.174,4.082,31.482,4.083z"/>
	<path fill="#6A6A6A" d="M18.632,20.979l-0.952,1.158l-1.234,0.11c-1.42,0-3.237-1.072-5.556-3.277
		c-0.563-0.536-1.031-1.039-1.426-1.514c0.011,1.113,0.036,3.004,0.095,5.839c0.102,5.041,0.669,7.922,0.669,7.922
		c1.697,1.13,7.101,1.182,7.101,1.182s0.815-0.009,1.908-0.084c-0.223-1.88-0.473-4.7-0.548-8.346
		C18.667,22.867,18.648,21.872,18.632,20.979z"/>
	<path fill="#6A6A6A" d="M7.762,12.71l0.118-0.402l0.248-0.339c0.562-0.767,2.542-3.458,4.241-5.665
		C9.168,7.04,6.847,8.466,6.113,9.202c-0.824,0.822-4.783,6.223-4.783,6.223S1.072,16.3,3.181,18.306
		c2.139,2.035,2.932,1.955,2.932,1.955l2.843-3.456C7.591,14.925,7.508,13.579,7.762,12.71z"/>
	<path fill="#6A6A6A" d="M52.075,18.97c-2.317,2.205-4.134,3.277-5.554,3.277l-0.253-0.013l-0.981-0.097l-0.953-1.16
		c-0.016,0.894-0.034,1.889-0.057,2.991c-0.074,3.644-0.325,6.464-0.549,8.343c1.11,0.078,1.942,0.087,1.942,0.087
		s5.404-0.052,7.102-1.182c0,0,0.564-2.881,0.668-7.922c0.059-2.872,0.084-4.773,0.096-5.88
		C53.135,17.901,52.654,18.418,52.075,18.97z"/>
	<path fill="#6A6A6A" d="M61.671,15.425c0,0-3.962-5.4-4.784-6.223c-0.737-0.74-3.075-2.174-6.298-2.908
		c1.7,2.209,3.685,4.907,4.247,5.675l0.248,0.339l0.118,0.402c0.253,0.865,0.171,2.205-1.177,4.072l2.861,3.479
		c0,0,0.793,0.08,2.932-1.955C61.927,16.3,61.671,15.425,61.671,15.425z"/>
</g>
</svg>
