<?xml version="1.0" encoding="utf-8"?>
<!-- Generator: Adobe Illustrator 15.1.0, SVG Export Plug-In . SVG Version: 6.00 Build 0)  -->
<!DOCTYPE svg PUBLIC "-//W3C//DTD SVG 1.1//EN" "http://www.w3.org/Graphics/SVG/1.1/DTD/svg11.dtd">
<svg version="1.1" id="Layer_1" xmlns="http://www.w3.org/2000/svg" xmlns:xlink="http://www.w3.org/1999/xlink" x="0px" y="0px"
	 width="36px" height="36px" viewBox="13.49 0 36 36" enable-background="new 13.49 0 36 36" xml:space="preserve">
<path id="plus_12_" fill="#6A6A6A" d="M1730.626,833.451c-0.297,0-0.535-0.238-0.535-0.535v-5.23h-5.229
	c-0.297,0-0.537-0.24-0.537-0.535v-3.461c0-0.297,0.24-0.535,0.537-0.535h5.229v-5.23c0-0.299,0.238-0.537,0.535-0.537h3.461
	c0.296,0,0.536,0.238,0.536,0.537v5.23h5.229c0.297,0,0.537,0.238,0.537,0.535v3.461c0,0.295-0.24,0.535-0.537,0.535h-5.229v5.23
	c0,0.297-0.24,0.535-0.536,0.535H1730.626z"/>
<g>
	<path fill="#6A6A6A" d="M24.937,8.2h3.015v6.553l3.539,1.802l3.451-1.802V8.2h3.102c0.177,0,0.338-0.107,0.403-0.269
		c0.021-0.056,0.035-0.113,0.035-0.167c0-0.116-0.046-0.226-0.129-0.311L31.8,1.337c-0.086-0.086-0.199-0.126-0.31-0.126
		c-0.112,0-0.224,0.04-0.31,0.126l-6.553,6.116c-0.084,0.084-0.129,0.194-0.129,0.311c0,0.055,0.011,0.111,0.033,0.167
		C24.601,8.093,24.759,8.2,24.937,8.2z"/>
	<path fill="#6A6A6A" d="M32.945,22.744h3.184V19.56c0-1.396,1.136-2.531,2.531-2.531h3.351v-3.652c0-0.252-0.14-0.478-0.363-0.591
		l-5.345-2.721l0.03,2.733l3.047,1.524l-7.89,3.909L23.6,14.322l3.048-1.524l-0.012-2.733l-5.304,2.721
		c-0.222,0.113-0.363,0.339-0.363,0.591v9.781c0,0.251,0.142,0.478,0.363,0.59l9.082,4.574v-3.048
		C30.414,23.878,31.55,22.744,32.945,22.744z"/>
</g>
<path id="plus_9_" fill="#50B44B" d="M38.66,34.951c-0.293,0-0.531-0.238-0.531-0.531v-5.186h-5.184
	c-0.295,0-0.531-0.236-0.531-0.528v-3.432c0-0.292,0.236-0.53,0.531-0.53h5.184V19.56c0-0.293,0.238-0.531,0.531-0.531h3.43
	c0.293,0,0.53,0.238,0.53,0.531v5.184h5.185c0.295,0,0.531,0.238,0.531,0.53v3.432c0,0.292-0.236,0.528-0.531,0.528H42.62v5.186
	c0,0.293-0.237,0.531-0.53,0.531H38.66z"/>
</svg>
