<?xml version="1.0" encoding="utf-8"?>
<!-- Generator: Adobe Illustrator 14.0.0, SVG Export Plug-In . SVG Version: 6.00 Build 43363)  -->
<!DOCTYPE svg PUBLIC "-//W3C//DTD SVG 1.1//EN" "http://www.w3.org/Graphics/SVG/1.1/DTD/svg11.dtd">
<svg version="1.1" id="Layer_1" xmlns="http://www.w3.org/2000/svg" xmlns:xlink="http://www.w3.org/1999/xlink" x="0px" y="0px"
	 width="14px" height="14px" viewBox="0 0 14 14" enable-background="new 0 0 14 14" xml:space="preserve">
<circle fill="#6A6A6A" cx="7" cy="7" r="7"/>
<g>
	<path fill="#333333" d="M11.301,8.516c0,0,1.02-0.43,1.02-1.519c0-1.09-1.025-1.455-1.025-1.455L8.011,5.526L7.896,5.232
		c-0.683-1.77-2.275-2.962-4.132-3.14l0.001,0.747c2.088,0.236,3.722,2.017,3.722,4.165c0.001,1.12-0.432,2.168-1.222,2.959
		c-0.678,0.678-1.549,1.098-2.49,1.197l0.001,0.748c1.138-0.105,2.193-0.602,3.01-1.418c0.489-0.488,0.863-1.063,1.111-1.701
		l0.114-0.293L11.301,8.516z"/>
</g>
</svg>
