<?xml version="1.0" encoding="utf-8"?>
<!-- Generator: Adobe Illustrator 16.0.0, SVG Export Plug-In . SVG Version: 6.00 Build 0)  -->
<!DOCTYPE svg PUBLIC "-//W3C//DTD SVG 1.1//EN" "http://www.w3.org/Graphics/SVG/1.1/DTD/svg11.dtd">
<svg version="1.1" id="Layer_1" xmlns="http://www.w3.org/2000/svg" xmlns:xlink="http://www.w3.org/1999/xlink" x="0px" y="0px"
	 width="48px" height="48px" viewBox="0 0 48 48" enable-background="new 0 0 48 48" xml:space="preserve">
<g>
	<g>
		<path id="SVGID_1_" fill="#3B3B3C" d="M46,41.798c0,1.628-1.398,2.949-3.124,2.949H5.125C3.4,44.747,2,43.426,2,41.798V6.201
			c0-1.628,1.4-2.948,3.125-2.948h37.751c1.726,0,3.124,1.32,3.124,2.948V41.798z"/>
	</g>
	<g>
		<path fill="#6B6B6A" d="M46,41.798v-5.511H13.65v8.347h30.04C45.018,44.295,46,43.159,46,41.798z"/>
	</g>
	<rect x="13.65" y="14.314" fill="#50B34B" width="20.702" height="8.348"/>
	<rect x="31.18" y="25.333" fill="#4FA149" width="14.858" height="8.347"/>
	<rect x="37.023" y="14.314" fill="#6B6B6A" width="9.015" height="8.348"/>
	<rect x="17.545" y="3.295" fill="#5A5A5B" width="12.91" height="8.348"/>
	<rect x="1.962" y="14.314" fill="#5A5A5B" width="9.017" height="8.348"/>
	<rect x="13.65" y="25.333" fill="#6B6B6A" width="14.898" height="8.347"/>
	<circle fill="#242627" cx="17.973" cy="18.621" r="3.898"/>
	<path fill="#242627" d="M45.627,40.402c0,2.119-1.717,3.837-3.836,3.837c-2.116,0-3.832-1.718-3.832-3.837
		c0-2.117,1.716-3.83,3.832-3.83C43.91,36.572,45.627,38.285,45.627,40.402z"/>
	<path fill="#A8A8A8" stroke="#3B3B3C" stroke-width="0.5" stroke-miterlimit="10" d="M41.793,41.739c-0.021,0-0.049,0-0.072-0.003
		c-16.766-0.902-24.667-21.764-24.999-22.651c-0.256-0.692,0.097-1.461,0.788-1.717c0.686-0.256,1.461,0.097,1.717,0.788
		c0.075,0.201,7.628,20.104,22.636,20.914c0.738,0.039,1.304,0.666,1.264,1.406C43.088,41.188,42.5,41.739,41.793,41.739z"/>
	<g>
		<path fill="#6B6B6A" d="M43.318,3.295h-10.19v8.348H46V6.201C46,4.716,44.832,3.499,43.318,3.295z"/>
	</g>
	<g>
		<path fill="#6B6B6A" d="M14.873,3.295H4.684C3.17,3.499,2,4.716,2,6.201v5.442h12.873V3.295z"/>
	</g>
	<g>
		<path fill="#50B34B" d="M10.979,25.333H2v16.465c0,1.361,0.984,2.497,2.313,2.836h6.666V25.333z"/>
	</g>
</g>
</svg>
