<?xml version="1.0" encoding="utf-8"?>
<!-- Generator: Adobe Illustrator 15.1.0, SVG Export Plug-In . SVG Version: 6.00 Build 0)  -->
<!DOCTYPE svg PUBLIC "-//W3C//DTD SVG 1.1//EN" "http://www.w3.org/Graphics/SVG/1.1/DTD/svg11.dtd">
<svg version="1.1" id="Layer_1" xmlns="http://www.w3.org/2000/svg" xmlns:xlink="http://www.w3.org/1999/xlink" x="0px" y="0px"
	 width="80px" height="80px" viewBox="0 0 80 80" enable-background="new 0 0 80 80" xml:space="preserve">
<g id="more_1_">
	<path fill="#6A6A6A" d="M47.96,49.98H27.999V36.009h3.061c1.36-1.773,3.091-3.067,4.922-3.992h-9.981
		c-1.995,0-1.995,1.994-1.995,1.994v17.966c0,0,0,1.996,1.995,1.996h23.953c0,0,1.997,0,1.997-1.996V44.49l-3.991,4.492V49.98
		L47.96,49.98z"/>
	<path fill="#6A6A6A" d="M55.65,35.303l-7.982-8.98c-0.191-0.191-0.447-0.293-0.707-0.293c-0.129,0-0.258,0.023-0.383,0.076
		c-0.371,0.155-0.615,0.52-0.615,0.922l0.002,4.99h-0.002c-0.01,0-14.994,0.005-14.994,12.958C35.961,39.979,45.963,40,45.963,40
		v4.99c0,0.402,0.244,0.77,0.615,0.923c0.125,0.052,0.254,0.077,0.383,0.077c0.26,0,0.516-0.104,0.707-0.297l7.982-8.98
		c0.195-0.192,0.293-0.45,0.293-0.704C55.943,35.753,55.846,35.497,55.65,35.303z"/>
</g>
</svg>
