<?xml version="1.0" encoding="utf-8"?>
<!-- Generator: Adobe Illustrator 14.0.0, SVG Export Plug-In . SVG Version: 6.00 Build 43363)  -->
<!DOCTYPE svg PUBLIC "-//W3C//DTD SVG 1.1//EN" "http://www.w3.org/Graphics/SVG/1.1/DTD/svg11.dtd">
<svg version="1.1" id="Layer_1" xmlns="http://www.w3.org/2000/svg" xmlns:xlink="http://www.w3.org/1999/xlink" x="0px" y="0px"
	 width="14px" height="14px" viewBox="0 0 14 14" enable-background="new 0 0 14 14" xml:space="preserve">
<circle fill="#6A6A6A" cx="7" cy="7" r="7"/>
<g>
	<path fill="#333333" d="M10.554,4.855C9.989,4.288,9.237,3.975,8.435,3.975C7.637,3.972,6.885,4.285,6.32,4.852
		C6.152,5.019,6.003,5.208,5.879,5.412l-0.123,0.2L2.935,5.61c0,0-0.838,0.436-0.836,1.395c0.002,0.96,0.84,1.315,0.84,1.315
		L5.76,8.322l0.124,0.198c0.55,0.904,1.506,1.441,2.559,1.444c0.797,0,1.554-0.31,2.118-0.876c0.563-0.563,0.873-1.316,0.873-2.116
		C11.432,6.173,11.122,5.42,10.554,4.855z"/>
</g>
</svg>
