<?xml version="1.0" encoding="UTF-8" standalone="no"?>
<!-- Generator: Adobe Illustrator 15.1.0, SVG Export Plug-In . SVG Version: 6.00 Build 0)  -->

<svg
   xmlns:dc="http://purl.org/dc/elements/1.1/"
   xmlns:cc="http://creativecommons.org/ns#"
   xmlns:rdf="http://www.w3.org/1999/02/22-rdf-syntax-ns#"
   xmlns:svg="http://www.w3.org/2000/svg"
   xmlns="http://www.w3.org/2000/svg"
   xmlns:sodipodi="http://sodipodi.sourceforge.net/DTD/sodipodi-0.dtd"
   xmlns:inkscape="http://www.inkscape.org/namespaces/inkscape"
   version="1.1"
   id="Layer_1"
   x="0px"
   y="0px"
   width="11"
   height="14"
   viewBox="0 0 11 14"
   enable-background="new 0 0 6 12"
   xml:space="preserve"
   inkscape:version="0.48.4 r9939"
   sodipodi:docname="timeline-needle-up.svg"><metadata
     id="metadata8"><rdf:RDF><cc:Work
         rdf:about=""><dc:format>image/svg+xml</dc:format><dc:type
           rdf:resource="http://purl.org/dc/dcmitype/StillImage" /><dc:title></dc:title></cc:Work></rdf:RDF></metadata><defs
     id="defs6" /><sodipodi:namedview
     pagecolor="#ffffff"
     bordercolor="#666666"
     borderopacity="1"
     objecttolerance="10"
     gridtolerance="10"
     guidetolerance="10"
     inkscape:pageopacity="0"
     inkscape:pageshadow="2"
     inkscape:window-width="1343"
     inkscape:window-height="778"
     id="namedview4"
     showgrid="false"
     fit-margin-top="0"
     fit-margin-left="0"
     fit-margin-right="0"
     fit-margin-bottom="0"
     inkscape:zoom="48.244792"
     inkscape:cx="2.1271673"
     inkscape:cy="6.796105"
     inkscape:window-x="0"
     inkscape:window-y="27"
     inkscape:window-maximized="0"
     inkscape:current-layer="Layer_1" /><path
     id="location"
     clip-rule="evenodd"
     d="M 5.5,0 C 5.6449814,0 5.7806691,0.06452 5.8680297,0.173607 L 9.8178439,5.4956012 9.9609665,5.6891495 C 10.641264,6.5876833 11,7.6469209 11,8.7495602 11,11.644575 8.5334573,14 5.5,14 2.468402,14 0,11.645748 0,8.7495602 0,7.6469209 0.358736,6.5888563 1.040892,5.6868035 L 1.232342,5.4322581 5.133829,0.174779 C 5.2193305,0.064517 5.3550186,0 5.5,0 z M 5.479554,11.37478 c 1.0130112,0 1.3866172,-1.660997 1.3866172,-2.6252198 0,-0.9653959 -0.373606,-2.6252201 -1.3866172,-2.6252201 -1.0111524,0 -1.386617,1.6609971 -1.386617,2.6252201 0,0.9642228 0.3754646,2.6252198 1.386617,2.6252198 z"
     inkscape:connector-curvature="0"
     style="fill:#50b44b;fill-rule:evenodd" /></svg>