<?xml version="1.0" encoding="utf-8"?>
<!-- Generator: Adobe Illustrator 15.1.0, SVG Export Plug-In . SVG Version: 6.00 Build 0)  -->
<!DOCTYPE svg PUBLIC "-//W3C//DTD SVG 1.1//EN" "http://www.w3.org/Graphics/SVG/1.1/DTD/svg11.dtd">
<svg version="1.1" id="Layer_1" xmlns="http://www.w3.org/2000/svg" xmlns:xlink="http://www.w3.org/1999/xlink" x="0px" y="0px"
	 width="36px" height="36px" viewBox="13.49 0 36 36" enable-background="new 13.49 0 36 36" xml:space="preserve">
<path id="plus_12_" fill="#6A6A6A" d="M1730.626,833.451c-0.297,0-0.535-0.238-0.535-0.535v-5.23h-5.229
	c-0.297,0-0.537-0.24-0.537-0.535v-3.461c0-0.297,0.24-0.535,0.537-0.535h5.229v-5.23c0-0.299,0.238-0.537,0.535-0.537h3.461
	c0.296,0,0.536,0.238,0.536,0.537v5.23h5.229c0.297,0,0.537,0.238,0.537,0.535v3.461c0,0.295-0.24,0.535-0.537,0.535h-5.229v5.23
	c0,0.297-0.24,0.535-0.536,0.535H1730.626z"/>
<path fill="none" d="M43.88,16.362c0.338-0.578,0.601-1.309,0.79-2.191s0.285-1.92,0.285-3.115c0-0.166-0.006-0.338-0.015-0.51
	c-0.009-0.172-0.015-0.337-0.015-0.496l-6.934,5.208c0.22,0.695,0.509,1.257,0.86,1.692h3.324c0.381,0,0.739,0.09,1.063,0.241
	C43.471,16.958,43.688,16.69,43.88,16.362z"/>
<path fill="none" d="M44.442,6.839C44.11,5.863,43.67,5.14,43.125,4.671s-1.189-0.703-1.93-0.703c-0.53,0-1.023,0.141-1.48,0.422
	c-0.455,0.281-0.852,0.712-1.189,1.295c-0.335,0.582-0.601,1.312-0.796,2.19c-0.195,0.878-0.291,1.918-0.291,3.122
	c0,0.197,0,0.381,0,0.555c0,0.172,0.009,0.348,0.029,0.525L44.442,6.839z"/>
<path id="plus_13_" fill="#50B149" d="M38.716,35.015c-0.297,0-0.535-0.239-0.535-0.536v-5.23h-5.229
	c-0.297,0-0.537-0.239-0.537-0.534v-3.461c0-0.298,0.24-0.536,0.537-0.536h5.229v-5.23c0-0.298,0.238-0.536,0.535-0.536h3.461
	c0.297,0,0.537,0.238,0.537,0.536v5.23h5.229c0.297,0,0.537,0.238,0.537,0.536v3.461c0,0.295-0.24,0.534-0.537,0.534h-5.229v5.23
	c0,0.297-0.24,0.536-0.537,0.536H38.716z"/>
<g>
	<path fill="#6A6A6A" d="M33.103,13.654h-3.071V7.95c0-0.242-0.196-0.438-0.439-0.438H26.96c-0.242,0-0.438,0.196-0.438,0.438v6.143
		v0.877v1.754c0,0.242,0.196,0.439,0.438,0.439h2.632h3.511c0.242,0,0.439-0.197,0.439-0.439V14.97v-0.877
		C33.542,13.849,33.345,13.654,33.103,13.654z"/>
	<path fill="#6A6A6A" d="M30.414,25.418c-0.605,0.109-1.226,0.173-1.859,0.173c-5.807,0-10.53-4.723-10.53-10.529
		c0-5.806,4.723-10.529,10.53-10.529c2.72,0,5.306,1.048,7.256,2.909l-2.612,2.613c-0.252,0.25-0.326,0.628-0.189,0.956
		c0.135,0.328,0.455,0.542,0.811,0.542h7.896c0.485,0,0.878-0.393,0.878-0.877V2.778c0-0.354-0.214-0.675-0.542-0.811
		C41.942,1.922,41.83,1.9,41.716,1.9c-0.228,0-0.452,0.089-0.62,0.257l-2.813,2.813c-2.604-2.519-6.077-3.948-9.728-3.948
		c-7.742,0-14.04,6.298-14.04,14.039s6.298,14.039,14.04,14.039c0.64,0,1.266-0.059,1.884-0.143
		c-0.008-0.081-0.024-0.16-0.024-0.244V25.418z"/>
	<path fill="#6A6A6A" d="M42.45,16.979c0.045-0.325,0.091-0.649,0.113-0.98c0.015-0.243-0.071-0.481-0.235-0.658
		c-0.166-0.178-0.399-0.278-0.641-0.278h-1.761c-0.457,0-0.84,0.353-0.873,0.811c-0.028,0.365-0.078,0.724-0.143,1.078h3.266
		C42.271,16.951,42.359,16.968,42.45,16.979z"/>
</g>
</svg>
