<?xml version="1.0" encoding="utf-8"?>
<!-- Generator: Adobe Illustrator 16.0.0, SVG Export Plug-In . SVG Version: 6.00 Build 0)  -->
<!DOCTYPE svg PUBLIC "-//W3C//DTD SVG 1.1//EN" "http://www.w3.org/Graphics/SVG/1.1/DTD/svg11.dtd">
<svg version="1.1" id="Layer_1" xmlns="http://www.w3.org/2000/svg" xmlns:xlink="http://www.w3.org/1999/xlink" x="0px" y="0px"
	 width="48px" height="48px" viewBox="0 0 48 48" enable-background="new 0 0 48 48" xml:space="preserve">
<path fill="#6B6A6A" d="M23.998,7.837c-5.141,0-5.594-2.467-5.594-3.331c0-0.187-0.022-0.192-0.1-0.235
	c-0.047-0.029-0.188-0.008-0.343,0.018c-5.349,0.988-9.249,3.428-10.426,4.63c-1.209,1.232-7.021,9.344-7.021,9.344
	s-0.378,1.313,2.72,4.323c3.138,3.056,4.301,2.935,4.301,2.935l4.905-6.099c0,0,0,3.085,0.154,10.655
	c0.151,7.567,0.978,11.891,0.978,11.891c2.495,1.697,10.427,1.775,10.427,1.775s7.938-0.078,10.425-1.775
	c0,0,0.828-4.323,0.98-11.891c0.154-7.57,0.154-10.655,0.154-10.655l4.901,6.099c0,0,1.169,0.121,4.305-2.935
	c3.097-3.01,2.721-4.323,2.721-4.323s-5.813-8.111-7.025-9.344c-1.167-1.202-5.076-3.642-10.424-4.63
	c-0.151-0.026-0.296-0.047-0.343-0.018c-0.078,0.043-0.098,0.048-0.098,0.235C29.59,5.37,29.139,7.837,23.998,7.837z"/>
</svg>
