<?xml version="1.0" encoding="utf-8"?>
<!-- Generator: Adobe Illustrator 16.0.0, SVG Export Plug-In . SVG Version: 6.00 Build 0)  -->
<!DOCTYPE svg PUBLIC "-//W3C//DTD SVG 1.1//EN" "http://www.w3.org/Graphics/SVG/1.1/DTD/svg11.dtd">
<svg version="1.1" id="Layer_1" xmlns="http://www.w3.org/2000/svg" xmlns:xlink="http://www.w3.org/1999/xlink" x="0px" y="0px"
	 width="36px" height="36px" viewBox="0 0 36 36" enable-background="new 0 0 36 36" xml:space="preserve">
<path id="plus_12_" fill="#6A6A6A" d="M1730.626,833.451c-0.297,0-0.535-0.238-0.535-0.535v-5.23h-5.229
	c-0.298,0-0.537-0.238-0.537-0.533v-3.461c0-0.299,0.239-0.535,0.537-0.535h5.229v-5.23c0-0.299,0.238-0.537,0.535-0.537h3.461
	c0.296,0,0.536,0.238,0.536,0.537v5.23h5.229c0.299,0,0.537,0.236,0.537,0.535v3.461c0,0.295-0.238,0.533-0.537,0.533h-5.229v5.23
	c0,0.297-0.24,0.535-0.536,0.535H1730.626z"/>
<g>
	<path fill="#6A6A6A" d="M6.037,22.588l7.549-3.078c-1.039-0.693-1.996-1.344-2.656-3.344H7.613L1.068,18.85
		c0,0-1.068,0.438-1.068,1.465v1.219c0,0.67,0.248,1.633,0.92,1.633h4.375L6.037,22.588z"/>
	<path fill="#6A6A6A" d="M9.924,15.703c0,0,0.242-0.004,0.611-0.062c-0.17-0.528-0.311-1.096-0.398-1.721
		c-0.441,0.102-0.904-0.004-1.262-0.284c-0.361-0.284-0.57-0.719-0.57-1.179c0-2.713,0.959-7.099,4.051-9.533
		c-0.713-0.309-1.539-0.506-2.537-0.506c-6.258,0-6.258,7.677-6.258,7.677c0.898-0.216,1.342-0.237,1.342-0.237
		C4.914,15.703,9.924,15.703,9.924,15.703z"/>
	<path fill="#6A6A6A" d="M32.299,17.853l-4.211-1.688h-3.152c-0.754,2-1.896,2.936-3.107,3.631l5.893,2.432l4-3.959
		C31.889,18.097,32.088,17.964,32.299,17.853z"/>
	<path fill="#6A6A6A" d="M27.553,12.189c0.016,0.086,0.023,0.28,0.023,0.37c0,0.828-0.672,1.606-1.5,1.606c-0.006,0-0.014,0-0.02,0
		c-0.111,0-0.223-0.119-0.332-0.144c-0.078,0.559-0.201,1.013-0.346,1.493c0.773,0.235,1.367,0.215,1.367,0.215
		s5.018-0.014,5.018-5.855c0.588,0.006,1.344,0.223,1.344,0.223s0-7.677-6.465-7.677c-1.207,0-2.176,0.287-2.961,0.747
		C26.527,5.56,27.494,9.553,27.553,12.189z"/>
	<path fill="#6A6A6A" d="M16.496,24.42l1.826-1.709c0.434-0.451,1.084-0.727,1.777-0.727c0.695,0,1.346,0.275,1.832,0.779
		l2.49,2.727l2.102-1.951l-6.877-2.373h-4.664l-8.49,2.982c0,0-1.492,0.113-1.492,1.426v1.557c0,0.857,0.572,2.035,1.432,2.035H17.1
		l-0.602-0.861C15.527,27.301,15.527,25.424,16.496,24.42z"/>
	<path fill="#6A6A6A" d="M11.518,12.217c0.016,7.466,6.414,7.466,6.414,7.466s6.408,0,6.408-7.46
		c0.752,0.006,1.717,0.293,1.717,0.293s0-9.803-8.258-9.803c-7.994,0-7.994,9.807-7.994,9.807
		C10.951,12.245,11.518,12.217,11.518,12.217z"/>
	<path fill="#50B44B" d="M23.615,33.26c0.199,0.207,0.469,0.322,0.752,0.322c0.285,0,0.557-0.115,0.756-0.322l10.562-10.92
		C35.885,22.133,36,21.852,36,21.559s-0.115-0.572-0.314-0.779l-1.4-1.443c-0.209-0.215-0.482-0.322-0.756-0.322
		s-0.545,0.107-0.754,0.322l-8.408,8.318l-3.514-3.848c-0.209-0.215-0.48-0.322-0.754-0.322s-0.545,0.107-0.754,0.322l-1.77,1.654
		c-0.416,0.432-0.416,1.129,0,1.559L23.615,33.26z"/>
</g>
</svg>
