<?xml version="1.0" encoding="utf-8"?>
<!-- Generator: Adobe Illustrator 16.2.0, SVG Export Plug-In . SVG Version: 6.00 Build 0)  -->
<!DOCTYPE svg PUBLIC "-//W3C//DTD SVG 1.1//EN" "http://www.w3.org/Graphics/SVG/1.1/DTD/svg11.dtd">
<svg version="1.1" id="Layer_1" xmlns="http://www.w3.org/2000/svg" xmlns:xlink="http://www.w3.org/1999/xlink" x="0px" y="0px"
	 width="22px" height="22px" viewBox="0 0 22 22" enable-background="new 0 0 22 22" xml:space="preserve">
<g>
	<g>
		<linearGradient id="SVGID_1_" gradientUnits="userSpaceOnUse" x1="11.0005" y1="22" x2="11.0005" y2="-0.0435">
			<stop  offset="0" style="stop-color:#B4B4B4"/>
			<stop  offset="0.3322" style="stop-color:#BDBDBD"/>
			<stop  offset="1" style="stop-color:#CDCCCC"/>
		</linearGradient>
		<path fill="url(#SVGID_1_)" d="M2.712,20.623v-9.645h7.791h8.667c0.841-0.495,2.052-0.399,2.756,0.341L22,11.396V4.09
			l-4.133-4.134h-1.378v8.957h-5.986H5.47v-8.957h-5.512v10.559v11.261V22h10.545h1.236l-1.333-1.377H2.712z"/>
		<linearGradient id="SVGID_2_" gradientUnits="userSpaceOnUse" x1="11.0005" y1="22" x2="11.0005" y2="-0.0435">
			<stop  offset="0" style="stop-color:#B4B4B4"/>
			<stop  offset="0.3322" style="stop-color:#BDBDBD"/>
			<stop  offset="1" style="stop-color:#CDCCCC"/>
		</linearGradient>
		<polygon fill="url(#SVGID_2_)" points="19.287,19.174 19.287,20.623 17.885,20.623 16.553,22 22.042,22 22.042,16.325 		"/>
		<linearGradient id="SVGID_3_" gradientUnits="userSpaceOnUse" x1="11.0005" y1="22" x2="11.0005" y2="-0.0435">
			<stop  offset="0" style="stop-color:#B4B4B4"/>
			<stop  offset="0.3322" style="stop-color:#BDBDBD"/>
			<stop  offset="1" style="stop-color:#CDCCCC"/>
		</linearGradient>
		<polygon fill="url(#SVGID_3_)" points="4.133,12.357 4.133,13.734 10.838,13.734 11.68,13.734 16.332,13.734 17.724,12.357 		"/>
		<linearGradient id="SVGID_4_" gradientUnits="userSpaceOnUse" x1="11.0005" y1="22" x2="11.0005" y2="-0.0435">
			<stop  offset="0" style="stop-color:#B4B4B4"/>
			<stop  offset="0.3322" style="stop-color:#BDBDBD"/>
			<stop  offset="1" style="stop-color:#CDCCCC"/>
		</linearGradient>
		<path fill="url(#SVGID_4_)" d="M4.133,16.49h3.801c0.092-0.376,0.272-0.733,0.557-1.028l0.372-0.349H4.133V16.49z"/>
		<linearGradient id="SVGID_5_" gradientUnits="userSpaceOnUse" x1="11.0005" y1="22" x2="11.0005" y2="-0.0435">
			<stop  offset="0" style="stop-color:#B4B4B4"/>
			<stop  offset="0.3322" style="stop-color:#BDBDBD"/>
			<stop  offset="1" style="stop-color:#CDCCCC"/>
		</linearGradient>
		<polygon fill="url(#SVGID_5_)" points="14.221,15.823 14.938,15.113 13.571,15.113 		"/>
		<linearGradient id="SVGID_6_" gradientUnits="userSpaceOnUse" x1="11.0005" y1="22" x2="11.0005" y2="-0.0435">
			<stop  offset="0" style="stop-color:#B4B4B4"/>
			<stop  offset="0.3322" style="stop-color:#BDBDBD"/>
			<stop  offset="1" style="stop-color:#CDCCCC"/>
		</linearGradient>
		<path fill="url(#SVGID_6_)" d="M4.133,17.869v1.377h4.983l-0.624-0.645c-0.21-0.215-0.368-0.465-0.474-0.732H4.133z"/>
		<linearGradient id="SVGID_7_" gradientUnits="userSpaceOnUse" x1="11.0005" y1="22" x2="11.0005" y2="-0.0435">
			<stop  offset="0" style="stop-color:#B4B4B4"/>
			<stop  offset="0.3322" style="stop-color:#BDBDBD"/>
			<stop  offset="1" style="stop-color:#CDCCCC"/>
		</linearGradient>
		<rect x="12.398" y="1.335" fill="url(#SVGID_7_)" width="2.755" height="6.199"/>
	</g>
	<g>
		<linearGradient id="SVGID_8_" gradientUnits="userSpaceOnUse" x1="10.979" y1="22" x2="10.979" y2="-0.0435">
			<stop  offset="0" style="stop-color:#B4B4B4"/>
			<stop  offset="0.3322" style="stop-color:#BDBDBD"/>
			<stop  offset="1" style="stop-color:#CDCCCC"/>
		</linearGradient>
		<path fill="url(#SVGID_8_)" d="M2.712,20.623v-9.645h7.791h8.667c0.841-0.495,2.052-0.399,2.756,0.341L22,11.396V4.09
			l-4.133-4.134h-1.378v8.957h-5.986H5.47v-8.957h-5.512v10.559v11.261V22h10.545h1.236l-1.333-1.377H2.712z"/>
		<linearGradient id="SVGID_9_" gradientUnits="userSpaceOnUse" x1="19.2969" y1="22" x2="19.2969" y2="16.3252">
			<stop  offset="0" style="stop-color:#B4B4B4"/>
			<stop  offset="0.3322" style="stop-color:#BDBDBD"/>
			<stop  offset="1" style="stop-color:#CDCCCC"/>
		</linearGradient>
		<polygon fill="url(#SVGID_9_)" points="19.287,19.174 19.287,20.623 17.885,20.623 16.553,22 22.042,22 22.042,16.325 		"/>
		<linearGradient id="SVGID_10_" gradientUnits="userSpaceOnUse" x1="10.9282" y1="13.7344" x2="10.9282" y2="12.3574">
			<stop  offset="0" style="stop-color:#B4B4B4"/>
			<stop  offset="0.3322" style="stop-color:#BDBDBD"/>
			<stop  offset="1" style="stop-color:#CDCCCC"/>
		</linearGradient>
		<polygon fill="url(#SVGID_10_)" points="4.133,12.357 4.133,13.734 10.838,13.734 11.68,13.734 16.332,13.734 17.724,12.357 		"/>
		<linearGradient id="SVGID_11_" gradientUnits="userSpaceOnUse" x1="6.4976" y1="16.4902" x2="6.4976" y2="15.1133">
			<stop  offset="0" style="stop-color:#B4B4B4"/>
			<stop  offset="0.3322" style="stop-color:#BDBDBD"/>
			<stop  offset="1" style="stop-color:#CDCCCC"/>
		</linearGradient>
		<path fill="url(#SVGID_11_)" d="M4.133,16.49h3.801c0.092-0.376,0.272-0.733,0.557-1.028l0.372-0.349H4.133V16.49z"/>
		<linearGradient id="SVGID_12_" gradientUnits="userSpaceOnUse" x1="14.2549" y1="15.8232" x2="14.2549" y2="15.1133">
			<stop  offset="0" style="stop-color:#B4B4B4"/>
			<stop  offset="0.3322" style="stop-color:#BDBDBD"/>
			<stop  offset="1" style="stop-color:#CDCCCC"/>
		</linearGradient>
		<polygon fill="url(#SVGID_12_)" points="14.221,15.823 14.938,15.113 13.571,15.113 		"/>
		<linearGradient id="SVGID_13_" gradientUnits="userSpaceOnUse" x1="6.6245" y1="19.2461" x2="6.6245" y2="17.8691">
			<stop  offset="0" style="stop-color:#B4B4B4"/>
			<stop  offset="0.3322" style="stop-color:#BDBDBD"/>
			<stop  offset="1" style="stop-color:#CDCCCC"/>
		</linearGradient>
		<path fill="url(#SVGID_13_)" d="M4.133,17.869v1.377h4.983l-0.624-0.645c-0.21-0.215-0.368-0.465-0.474-0.732H4.133z"/>
		<linearGradient id="SVGID_14_" gradientUnits="userSpaceOnUse" x1="13.7754" y1="7.5347" x2="13.7754" y2="1.3354">
			<stop  offset="0" style="stop-color:#B4B4B4"/>
			<stop  offset="0.3322" style="stop-color:#BDBDBD"/>
			<stop  offset="1" style="stop-color:#CDCCCC"/>
		</linearGradient>
		<rect x="12.398" y="1.335" fill="url(#SVGID_14_)" width="2.755" height="6.199"/>
	</g>
</g>
<g>
	<linearGradient id="SVGID_15_" gradientUnits="userSpaceOnUse" x1="9.3574" y1="17.0684" x2="22.042" y2="17.0684">
		<stop  offset="0" style="stop-color:#51B44B"/>
		<stop  offset="1" style="stop-color:#A1CD48"/>
	</linearGradient>
	<path fill="url(#SVGID_15_)" d="M13.657,21.781C13.792,21.922,13.977,22,14.167,22c0.191,0,0.376-0.078,0.511-0.219l7.152-7.395
		c0.134-0.138,0.212-0.33,0.212-0.527c0-0.199-0.076-0.388-0.212-0.526l-0.948-0.979c-0.139-0.146-0.327-0.219-0.512-0.219
		s-0.369,0.073-0.511,0.219l-5.692,5.633l-2.38-2.604c-0.141-0.146-0.323-0.221-0.51-0.221c-0.185,0-0.369,0.074-0.512,0.221
		l-1.196,1.12c-0.282,0.292-0.282,0.767,0,1.055L13.657,21.781z"/>
</g>
</svg>
