<?xml version="1.0" encoding="utf-8"?>
<!-- Generator: Adobe Illustrator 15.1.0, SVG Export Plug-In . SVG Version: 6.00 Build 0)  -->
<!DOCTYPE svg PUBLIC "-//W3C//DTD SVG 1.1//EN" "http://www.w3.org/Graphics/SVG/1.1/DTD/svg11.dtd">
<svg version="1.1" id="Layer_1" xmlns="http://www.w3.org/2000/svg" xmlns:xlink="http://www.w3.org/1999/xlink" x="0px" y="0px"
	 width="80px" height="80px" viewBox="0 0 80 80" enable-background="new 0 0 80 80" xml:space="preserve">
<g>
	<path fill="#6A6A6A" d="M39.984,33.09c-2.384,0-4.251,0.872-4.831,1.82h9.658C44.23,33.962,42.369,33.09,39.984,33.09z"/>
	<path fill="#6A6A6A" d="M39.944,28.42c5.074,0,8.607-2.252,8.607-4.272v-0.002H31.338v0.002
		C31.338,26.168,34.871,28.42,39.944,28.42z"/>
	<path fill="#6A6A6A" d="M44.602,36.394h-9.238c0.758,0.824,2.487,1.521,4.621,1.521C42.115,37.916,43.844,37.218,44.602,36.394z"/>
	<path fill="#6A6A6A" d="M38.78,48.28c0-1.257,0.899-2.315,2.138-2.517l0.162-0.027l-0.078-0.108
		c-0.271-0.383-0.425-0.815-0.465-1.252c-0.197-0.004-0.392-0.017-0.593-0.017c-7.353,0-12.477,3.231-12.477,6.139h11.68
		c-0.231-0.385-0.368-0.831-0.368-1.309L38.78,48.28L38.78,48.28z"/>
	<path fill="#6A6A6A" d="M39.984,31.915c3.059,0,5.42,1.254,5.868,2.996h6.957l-1.666-10.765h-1.422v0.002
		c0,3.227-4.294,5.755-9.778,5.755c-5.482,0-9.776-2.528-9.776-5.755v-0.002h-1.494l-1.8,10.765h7.241
		C34.559,33.168,36.922,31.915,39.984,31.915z"/>
	<path fill="#6A6A6A" d="M45.204,41.43l0.114,0.081l0.029-0.175c0.193-1.228,1.254-2.131,2.516-2.131h0.908
		c1.252,0,2.31,0.896,2.517,2.131l0.069,0.418c0.063,0.027,0.127,0.057,0.189,0.087l0.346-0.217c0.681-0.435,1.57-0.474,2.328-0.171
		l-0.972-5.059h-7.494c-0.625,1.584-2.894,2.699-5.772,2.699c-2.886,0-5.149-1.115-5.776-2.699h-7.542L24,50.498h1.613
		c0-4.841,6.16-8.489,14.331-8.489c0.548,0,1.083,0.021,1.613,0.052l0.359-0.359C42.777,40.839,44.214,40.721,45.204,41.43z"/>
</g>
<path id="settings_2_" fill="#50B44D" d="M55.396,47.621l-1.517-0.254c-0.108-0.449-0.271-0.881-0.479-1.281l0.972-1.202
	c0.207-0.254,0.196-0.62-0.021-0.864l-0.604-0.68c-0.218-0.244-0.58-0.297-0.854-0.122l-1.297,0.814
	c-0.57-0.398-1.216-0.692-1.91-0.863l-0.254-1.522c-0.056-0.321-0.334-0.56-0.66-0.56h-0.908c-0.328,0-0.607,0.236-0.66,0.56
	l-0.255,1.522c-0.575,0.142-1.115,0.369-1.608,0.669l-1.23-0.879c-0.267-0.189-0.629-0.161-0.86,0.07l-0.642,0.642
	c-0.232,0.231-0.262,0.599-0.072,0.863l0.881,1.235c-0.295,0.486-0.521,1.023-0.661,1.596l-1.53,0.256
	c-0.322,0.053-0.561,0.331-0.561,0.658v0.91c0,0.326,0.236,0.604,0.561,0.658l1.53,0.256c0.116,0.47,0.283,0.918,0.507,1.334
	l-0.965,1.194c-0.207,0.253-0.195,0.62,0.021,0.865l0.603,0.678c0.218,0.244,0.58,0.298,0.856,0.122l1.312-0.824
	c0.56,0.381,1.188,0.659,1.861,0.823l0.255,1.524c0.053,0.322,0.332,0.56,0.658,0.56h0.908c0.328,0,0.606-0.235,0.66-0.56
	l0.254-1.524c0.567-0.139,1.104-0.36,1.59-0.655l1.283,0.918c0.266,0.188,0.631,0.159,0.861-0.072l0.643-0.643
	c0.229-0.229,0.264-0.596,0.07-0.861l-0.912-1.28c0.295-0.491,0.521-1.028,0.661-1.603l1.517-0.252
	c0.322-0.055,0.561-0.332,0.561-0.658V48.28C55.957,47.952,55.721,47.674,55.396,47.621z M48.333,51.604
	c-1.584,0-2.868-1.285-2.868-2.869c0-1.582,1.284-2.864,2.868-2.864c1.585,0,2.869,1.282,2.869,2.864S49.918,51.604,48.333,51.604z"
	/>
</svg>
