<?xml version="1.0" encoding="utf-8"?>
<!-- Generator: Adobe Illustrator 16.0.0, SVG Export Plug-In . SVG Version: 6.00 Build 0)  -->
<!DOCTYPE svg PUBLIC "-//W3C//DTD SVG 1.1//EN" "http://www.w3.org/Graphics/SVG/1.1/DTD/svg11.dtd">
<svg version="1.1" id="Layer_1" xmlns="http://www.w3.org/2000/svg" xmlns:xlink="http://www.w3.org/1999/xlink" x="0px" y="0px"
	 width="36px" height="36px" viewBox="0 0 36 36" enable-background="new 0 0 36 36" xml:space="preserve">
<path id="plus_12_" fill="#6A6A6A" d="M1730.626,833.451c-0.297,0-0.535-0.238-0.535-0.535v-5.23h-5.229
	c-0.298,0-0.537-0.236-0.537-0.531v-3.461c0-0.301,0.239-0.535,0.537-0.535h5.229v-5.23c0-0.299,0.238-0.537,0.535-0.537h3.461
	c0.296,0,0.536,0.238,0.536,0.537v5.23h5.229c0.301,0,0.537,0.234,0.537,0.535v3.461c0,0.295-0.236,0.531-0.537,0.531h-5.229v5.23
	c0,0.297-0.24,0.535-0.536,0.535H1730.626z"/>
<g>
	<g>
		<path fill="none" d="M8.057,26.49c1.008-0.822,3.024-1.545,5.038-2.365V8.914c-2.014,0.823-4.03,1.644-5.038,2.463
			C8.057,17.727,8.057,20.145,8.057,26.49z"/>
		<path fill="#6A6A6A" d="M21.154,28.423c0-0.581,0.238-1.104,0.621-1.489c-2.963-1.18-6.667-3.074-6.667-3.094V8.666
			c3.022,1.032,8.06,3.111,8.06,3.131v11.59c0.08-0.123,0.174-0.242,0.28-0.35l0.589-0.592c0.312-0.313,0.721-0.504,1.146-0.575
			V11.629c2.016-0.807,4.027-1.612,5.037-2.421c0,4.776,0,7.495,0,11.259h0.059c1.045,0,1.931,0.609,2.104,1.643l0.088,0.455
			c0.146,0.062,0.281,0.09,0.42,0.153l0.438-0.29c0.274-0.177,0.595-0.271,0.922-0.299c0-3.951,0-10.53,0-15.771
			c0-1.1-0.237-1.347-0.787-1.73c-0.506-0.298-1.394-0.183-1.799-0.014c-2.674,1.126-5.087,2.544-7.763,3.67
			c-2.726-1.125-5.67-2.544-8.396-3.67c-0.309-0.127-0.604-0.171-0.893-0.163c-0.278-0.008-0.567,0.035-0.864,0.163
			C10.767,5.894,7.9,7.171,4.916,8.449c-0.782,0.336-0.89,0.778-0.89,1.744c0,0.969,0,18.215,0,19.174
			c0,0.958,0.556,1.582,1.253,1.765c0.469,0.192,0.954,0.224,1.52-0.022c2.692-1.151,4.88-2.203,7.574-3.356
			c2.271,0.976,4.859,1.877,7.238,2.827c-0.285-0.361-0.459-0.812-0.459-1.307v-0.851H21.154z M13.095,24.125
			c-2.014,0.82-4.03,1.543-5.038,2.365c0-6.346,0-8.764,0-15.113c1.008-0.82,3.024-1.64,5.038-2.463V24.125z"/>
	</g>
	<path id="settings_8_" fill="#50B44D" d="M36.475,27.807l-1.418-0.238c-0.103-0.418-0.252-0.821-0.449-1.193l0.91-1.126
		c0.191-0.233,0.186-0.58-0.021-0.812l-0.562-0.635c-0.205-0.229-0.543-0.277-0.803-0.113l-1.213,0.764
		c-0.531-0.373-1.137-0.646-1.783-0.811l-0.238-1.424c-0.053-0.302-0.312-0.521-0.615-0.521H29.43c-0.308,0-0.566,0.222-0.619,0.521
		l-0.233,1.424c-0.54,0.137-1.045,0.348-1.503,0.627l-1.153-0.82c-0.249-0.18-0.591-0.149-0.805,0.064l-0.601,0.604
		c-0.219,0.213-0.246,0.558-0.067,0.806l0.821,1.153c-0.273,0.459-0.486,0.96-0.617,1.49l-1.434,0.24
		c-0.302,0.049-0.521,0.312-0.521,0.616v0.851c0,0.307,0.221,0.565,0.521,0.617l1.434,0.236c0.105,0.439,0.267,0.859,0.473,1.25
		l-0.898,1.117c-0.191,0.236-0.186,0.58,0.021,0.809l0.562,0.635c0.207,0.229,0.543,0.278,0.803,0.115l1.229-0.771
		c0.521,0.354,1.107,0.614,1.741,0.769l0.234,1.428C28.867,35.783,29.126,36,29.434,36h0.853c0.304,0,0.562-0.218,0.614-0.521
		l0.238-1.428c0.528-0.13,1.026-0.338,1.482-0.613l1.202,0.858c0.245,0.179,0.591,0.149,0.807-0.067l0.603-0.601
		c0.211-0.216,0.244-0.558,0.065-0.808l-0.854-1.197c0.274-0.459,0.486-0.96,0.617-1.495l1.418-0.235
		C36.779,29.84,37,29.579,37,29.273v-0.852C36.998,28.115,36.775,27.855,36.475,27.807z M29.867,31.53
		c-1.48,0-2.68-1.203-2.68-2.683c0-1.48,1.195-2.683,2.68-2.683c1.482,0,2.684,1.199,2.684,2.683
		C32.551,30.327,31.352,31.53,29.867,31.53z"/>
</g>
</svg>
