<?xml version="1.0" encoding="utf-8"?>
<!-- Generator: Adobe Illustrator 15.1.0, SVG Export Plug-In . SVG Version: 6.00 Build 0)  -->
<!DOCTYPE svg PUBLIC "-//W3C//DTD SVG 1.1//EN" "http://www.w3.org/Graphics/SVG/1.1/DTD/svg11.dtd">
<svg version="1.1" id="Layer_1" xmlns="http://www.w3.org/2000/svg" xmlns:xlink="http://www.w3.org/1999/xlink" x="0px" y="0px"
	 width="47px" height="37px" viewBox="0 0 47 37" enable-background="new 0 0 47 37" xml:space="preserve">
<g>
	<path fill="#6A6A6A" d="M23.518,12.628c-3.31,0-5.9,1.188-6.704,2.478h13.403C29.412,13.815,26.827,12.628,23.518,12.628z"/>
	<path fill="#6A6A6A" d="M11.518,0.449c0,2.752,4.903,5.818,11.944,5.818c7.04,0,11.945-3.066,11.945-5.818V0.446h-23.89V0.449z"/>
	<path fill="#6A6A6A" d="M29.925,17.125h-12.82c1.051,1.123,3.45,2.073,6.413,2.073C26.476,19.198,28.874,18.248,29.925,17.125z"/>
	<path fill="#6A6A6A" d="M23.462,27.973c-10.205,0-17.317,4.404-17.317,8.36H40.78C40.78,32.377,33.666,27.973,23.462,27.973z"/>
	<path fill="#6A6A6A" d="M39.004,0.446h-1.973v0.003c0,4.395-5.959,7.838-13.569,7.838c-7.609,0-13.57-3.443-13.57-7.838V0.446
		H7.819L5.32,15.105h10.05c0.617-2.371,3.897-4.079,8.147-4.079c4.245,0,7.523,1.708,8.143,4.079h9.656"/>
	<path fill="#6A6A6A" d="M41.931,17.125H31.529c-0.868,2.158-4.015,3.677-8.012,3.677c-4.005,0-7.147-1.519-8.017-3.677H5.034
		L1.332,36.333H3.57c0-6.594,8.55-11.562,19.892-11.562s19.893,4.968,19.893,11.562h2.332"/>
</g>
</svg>
