<?xml version="1.0" encoding="utf-8"?>
<!-- Generator: Adobe Illustrator 15.1.0, SVG Export Plug-In . SVG Version: 6.00 Build 0)  -->
<!DOCTYPE svg PUBLIC "-//W3C//DTD SVG 1.1//EN" "http://www.w3.org/Graphics/SVG/1.1/DTD/svg11.dtd">
<svg version="1.1" id="Layer_1" xmlns="http://www.w3.org/2000/svg" xmlns:xlink="http://www.w3.org/1999/xlink" x="0px" y="0px"
	 width="18px" height="18px" viewBox="2 2 18 18" enable-background="new 2 2 18 18" xml:space="preserve">
<g id="list">
	<path fill="#6A6A6A" d="M19.438,3.125h-13.5c-0.311,0-0.562,0.251-0.562,0.562v1.126c0,0.31,0.251,0.562,0.562,0.562h13.5
		C19.748,5.374,20,5.123,20,4.812V3.687C20,3.376,19.748,3.125,19.438,3.125z"/>
	<path fill="#6A6A6A" d="M19.438,7.625h-13.5c-0.311,0-0.562,0.251-0.562,0.563v1.124c0,0.311,0.251,0.563,0.562,0.563h13.5
		C19.748,9.876,20,9.624,20,9.312V8.188C20,7.876,19.748,7.625,19.438,7.625z"/>
	<path fill="#6A6A6A" d="M19.438,12.125h-13.5c-0.311,0-0.562,0.251-0.562,0.562v1.125c0,0.311,0.251,0.563,0.562,0.563h13.5
		c0.311,0,0.562-0.253,0.562-0.563v-1.125C20,12.376,19.748,12.125,19.438,12.125z"/>
	<path fill="#6A6A6A" d="M19.438,16.625h-13.5c-0.311,0-0.562,0.252-0.562,0.562v1.126c0,0.311,0.251,0.562,0.562,0.562h13.5
		c0.311,0,0.562-0.252,0.562-0.562v-1.126C20,16.877,19.748,16.625,19.438,16.625z"/>
	<path fill="#6A6A6A" d="M3.688,3.125H2.562C2.251,3.125,2,3.376,2,3.687v1.126c0,0.31,0.251,0.562,0.562,0.562h1.125
		c0.311,0,0.562-0.251,0.562-0.562V3.687C4.25,3.376,3.999,3.125,3.688,3.125z"/>
	<path fill="#6A6A6A" d="M3.688,7.625H2.562C2.251,7.625,2,7.876,2,8.188v1.124c0,0.311,0.251,0.563,0.562,0.563h1.125
		c0.311,0,0.562-0.252,0.562-0.563V8.188C4.25,7.876,3.999,7.625,3.688,7.625z"/>
	<path fill="#6A6A6A" d="M3.688,12.125H2.562C2.251,12.125,2,12.376,2,12.687v1.125c0,0.311,0.251,0.563,0.562,0.563h1.125
		c0.311,0,0.562-0.253,0.562-0.563v-1.125C4.25,12.376,3.999,12.125,3.688,12.125z"/>
	<path fill="#6A6A6A" d="M3.688,16.625H2.562C2.251,16.625,2,16.877,2,17.187v1.126c0,0.311,0.251,0.562,0.562,0.562h1.125
		c0.311,0,0.562-0.252,0.562-0.562v-1.126C4.25,16.877,3.999,16.625,3.688,16.625z"/>
</g>
</svg>
