<?xml version="1.0" encoding="UTF-8" standalone="no"?>
<!-- Generator: Adobe Illustrator 17.0.0, SVG Export Plug-In . SVG Version: 6.00 Build 0)  -->

<svg
   xmlns:dc="http://purl.org/dc/elements/1.1/"
   xmlns:cc="http://creativecommons.org/ns#"
   xmlns:rdf="http://www.w3.org/1999/02/22-rdf-syntax-ns#"
   xmlns:svg="http://www.w3.org/2000/svg"
   xmlns="http://www.w3.org/2000/svg"
   xmlns:sodipodi="http://sodipodi.sourceforge.net/DTD/sodipodi-0.dtd"
   xmlns:inkscape="http://www.inkscape.org/namespaces/inkscape"
   version="1.1"
   id="Layer_1"
   x="0px"
   y="0px"
   width="20"
   height="20"
   viewBox="0 0 20 20"
   enable-background="new 0 0 26 20"
   xml:space="preserve"
   inkscape:version="0.48.4 r9939"
   sodipodi:docname="arrow-out.svg"><metadata
     id="metadata8"><rdf:RDF><cc:Work
         rdf:about=""><dc:format>image/svg+xml</dc:format><dc:type
           rdf:resource="http://purl.org/dc/dcmitype/StillImage" /><dc:title></dc:title></cc:Work></rdf:RDF></metadata><defs
     id="defs6" /><sodipodi:namedview
     pagecolor="#ffffff"
     bordercolor="#666666"
     borderopacity="1"
     objecttolerance="10"
     gridtolerance="10"
     guidetolerance="10"
     inkscape:pageopacity="0"
     inkscape:pageshadow="2"
     inkscape:window-width="1139"
     inkscape:window-height="627"
     id="namedview4"
     showgrid="false"
     inkscape:zoom="21.986719"
     inkscape:cx="12.31777"
     inkscape:cy="10"
     inkscape:window-x="257"
     inkscape:window-y="77"
     inkscape:window-maximized="0"
     inkscape:current-layer="Layer_1" /><path
     id="reply_3_"
     d="M 12.49987,6.7256274 V 2.9756001 c 0,-0.2558787 0.153684,-0.4844533 0.39162,-0.5819681 0.07645,-0.030425 0.153683,-0.044467 0.233255,-0.044467 0.165385,0 0.33233,0.06787 0.454029,0.1942494 l 6.176194,6.7644036 c 0.191909,0.1934692 0.252758,0.3580741 0.244177,0.542182 0.01248,0.168505 -0.107657,0.39942 -0.234816,0.5297 l -0.0094,0.01092 -6.176194,6.766743 c -0.121698,0.124819 -0.288644,0.19347 -0.454029,0.19347 -0.07957,0 -0.156803,-0.0156 -0.233255,-0.04759 -0.237936,-0.09361 -0.39162,-0.323748 -0.39162,-0.578847 V 12.972808 C 0.425945,12.972808 0.014043,17.068428 0,17.34927 0.014082,7.3239779 12.49987,6.7256274 12.49987,6.7256274 z"
     inkscape:connector-curvature="0"
     style="fill:#f6f6f6" /></svg>