<?xml version="1.0" encoding="utf-8"?>
<!-- Generator: Adobe Illustrator 15.1.0, SVG Export Plug-In . SVG Version: 6.00 Build 0)  -->
<!DOCTYPE svg PUBLIC "-//W3C//DTD SVG 1.1//EN" "http://www.w3.org/Graphics/SVG/1.1/DTD/svg11.dtd">
<svg version="1.1" id="Layer_1" xmlns="http://www.w3.org/2000/svg" xmlns:xlink="http://www.w3.org/1999/xlink" x="0px" y="0px"
	 width="26px" height="20px" viewBox="0 0 26 20" enable-background="new 0 0 26 20" xml:space="preserve">
<path id="reply_3_" fill="#D33B37" d="M0.181,19.463c0.019-0.359,0.547-5.609,16.023-5.609v4.81c0,0.326,0.196,0.622,0.503,0.741
	c0.098,0.041,0.195,0.062,0.299,0.062c0.211,0,0.426-0.088,0.582-0.248l7.916-8.674l0.012-0.015
	c0.164-0.167,0.318-0.462,0.303-0.678c0.011-0.236-0.067-0.447-0.313-0.695l-7.916-8.671c-0.155-0.162-0.371-0.249-0.582-0.249
	c-0.103,0-0.2,0.018-0.299,0.057c-0.306,0.125-0.503,0.418-0.503,0.746v4.807C16.204,5.845,0.2,6.612,0.181,19.463z"/>
</svg>
