<?xml version="1.0" encoding="utf-8"?>
<!-- Generator: Adobe Illustrator 15.1.0, SVG Export Plug-In . SVG Version: 6.00 Build 0)  -->
<!DOCTYPE svg PUBLIC "-//W3C//DTD SVG 1.1//EN" "http://www.w3.org/Graphics/SVG/1.1/DTD/svg11.dtd">
<svg version="1.1" id="Layer_1" xmlns="http://www.w3.org/2000/svg" xmlns:xlink="http://www.w3.org/1999/xlink" x="0px" y="0px"
	 width="26px" height="20px" viewBox="0 0 26 20" enable-background="new 0 0 26 20" xml:space="preserve">
<path id="reply_3_" fill="#0180AC" d="M9.74,5.845V1.038c0-0.328-0.197-0.621-0.502-0.746C9.14,0.253,9.041,0.235,8.939,0.235
	c-0.212,0-0.426,0.087-0.582,0.249L0.44,9.155C0.194,9.403,0.116,9.614,0.127,9.85c-0.016,0.216,0.138,0.512,0.301,0.679
	l0.012,0.014l7.917,8.674c0.156,0.16,0.37,0.248,0.582,0.248c0.102,0,0.201-0.02,0.299-0.061c0.305-0.12,0.502-0.415,0.502-0.742
	v-4.809c15.477,0,16.005,5.25,16.023,5.61C25.745,6.612,9.74,5.845,9.74,5.845z"/>
</svg>
