<?xml version="1.0" encoding="UTF-8" standalone="no"?>
<!-- Generator: Adobe Illustrator 15.1.0, SVG Export Plug-In . SVG Version: 6.00 Build 0)  -->

<svg
   xmlns:dc="http://purl.org/dc/elements/1.1/"
   xmlns:cc="http://creativecommons.org/ns#"
   xmlns:rdf="http://www.w3.org/1999/02/22-rdf-syntax-ns#"
   xmlns:svg="http://www.w3.org/2000/svg"
   xmlns="http://www.w3.org/2000/svg"
   xmlns:sodipodi="http://sodipodi.sourceforge.net/DTD/sodipodi-0.dtd"
   xmlns:inkscape="http://www.inkscape.org/namespaces/inkscape"
   version="1.1"
   id="Layer_1"
   x="0px"
   y="0px"
   width="60.00016"
   height="60"
   viewBox="0 0 60.00016 60"
   enable-background="new 0 0 36 36"
   xml:space="preserve"
   inkscape:version="0.48.4 r9939"
   sodipodi:docname="photo.svg"><metadata
     id="metadata13"><rdf:RDF><cc:Work
         rdf:about=""><dc:format>image/svg+xml</dc:format><dc:type
           rdf:resource="http://purl.org/dc/dcmitype/StillImage" /></cc:Work></rdf:RDF></metadata><defs
     id="defs11" /><sodipodi:namedview
     pagecolor="#ffffff"
     bordercolor="#666666"
     borderopacity="1"
     objecttolerance="10"
     gridtolerance="10"
     guidetolerance="10"
     inkscape:pageopacity="0"
     inkscape:pageshadow="2"
     inkscape:window-width="1059"
     inkscape:window-height="754"
     id="namedview9"
     showgrid="false"
     fit-margin-top="0"
     fit-margin-left="0"
     fit-margin-right="0"
     fit-margin-bottom="0"
     inkscape:zoom="5.8727203"
     inkscape:cx="19.268877"
     inkscape:cy="30.001267"
     inkscape:window-x="0"
     inkscape:window-y="27"
     inkscape:window-maximized="0"
     inkscape:current-layer="Layer_1" /><path
     id="plus_12_"
     d="m 1742.6266,845.451 c -0.297,0 -0.535,-0.238 -0.535,-0.535 v -5.23 h -5.229 c -0.298,0 -0.537,-0.239 -0.537,-0.534 v -3.461 c 0,-0.298 0.239,-0.535 0.537,-0.535 h 5.229 v -5.23 c 0,-0.299 0.238,-0.537 0.535,-0.537 h 3.461 c 0.296,0 0.536,0.238 0.536,0.537 v 5.23 h 5.229 c 0.298,0 0.537,0.237 0.537,0.535 v 3.461 c 0,0.295 -0.239,0.534 -0.537,0.534 h -5.229 v 5.23 c 0,0.297 -0.24,0.535 -0.536,0.535 h -3.461 z"
     inkscape:connector-curvature="0"
     style="fill:#6a6a6a" /><g
     id="usericon"
     transform="matrix(2.1595997,0,0,2.1596717,-8.8716356,-8.874091)"><path
       d="m 30.156,26.683 -9.551,-3.474 h -5.21 l -9.55,3.474 c 0,0 -1.737,0.27 -1.737,1.735 v 1.738 c 0,0.959 0.778,1.735 1.737,1.735 h 24.311 c 0.959,0 1.735,-0.776 1.735,-1.735 v -1.738 c 0.001,-1.439 -1.735,-1.735 -1.735,-1.735 z"
       id="path5"
       inkscape:connector-curvature="0"
       style="fill:#6a6a6a" /><path
       d="m 18,21.474 c 4.341,0 6.945,-4.07 6.945,-6.946 v -4.342 c 0,-2.874 -3.109,-6.077 -6.945,-6.077 -3.835,0 -6.946,3.203 -6.946,6.077 v 4.342 c 0,2.603 2.604,6.946 6.946,6.946 z"
       id="path7"
       inkscape:connector-curvature="0"
       style="fill:#6a6a6a" /></g></svg>