<?xml version="1.0" encoding="utf-8"?>
<!-- Generator: Adobe Illustrator 16.0.0, SVG Export Plug-In . SVG Version: 6.00 Build 0)  -->
<!DOCTYPE svg PUBLIC "-//W3C//DTD SVG 1.1//EN" "http://www.w3.org/Graphics/SVG/1.1/DTD/svg11.dtd">
<svg version="1.1"
	 id="Layer_1" xmlns:dc="http://purl.org/dc/elements/1.1/" xmlns:cc="http://creativecommons.org/ns#" xmlns:rdf="http://www.w3.org/1999/02/22-rdf-syntax-ns#" xmlns:svg="http://www.w3.org/2000/svg" xmlns:sodipodi="http://sodipodi.sourceforge.net/DTD/sodipodi-0.dtd" xmlns:inkscape="http://www.inkscape.org/namespaces/inkscape" inkscape:version="0.48.4 r9939" sodipodi:docname="photo.svg"
	 xmlns="http://www.w3.org/2000/svg" xmlns:xlink="http://www.w3.org/1999/xlink" x="0px" y="0px" width="60px" height="60px"
	 viewBox="0 0 60 60" enable-background="new 0 0 60 60" xml:space="preserve">
<sodipodi:namedview  id="namedview9" bordercolor="#666666" pagecolor="#ffffff" borderopacity="1" objecttolerance="10" gridtolerance="10" guidetolerance="10" showgrid="false" fit-margin-top="0" fit-margin-left="0" inkscape:zoom="5.8727203" inkscape:cx="19.268877" inkscape:cy="30.001267" inkscape:pageopacity="0" inkscape:pageshadow="2" inkscape:window-width="1059" inkscape:window-height="754" fit-margin-right="0" fit-margin-bottom="0" inkscape:window-x="0" inkscape:window-y="27" inkscape:window-maximized="0" inkscape:current-layer="Layer_1">
	</sodipodi:namedview>
<path id="plus_12_" inkscape:connector-curvature="0" fill="#6A6A6A" d="M1742.627,845.451c-0.297,0-0.535-0.238-0.535-0.535v-5.23
	h-5.229c-0.298,0-0.537-0.238-0.537-0.533v-3.461c0-0.299,0.239-0.535,0.537-0.535h5.229v-5.23c0-0.299,0.238-0.537,0.535-0.537
	h3.461c0.296,0,0.536,0.238,0.536,0.537v5.23h5.229c0.298,0,0.537,0.236,0.537,0.535v3.461c0,0.295-0.239,0.533-0.537,0.533h-5.229
	v5.23c0,0.297-0.24,0.535-0.536,0.535H1742.627z"/>
<g>
	<path fill="#6A6A6A" d="M56.475,49.276l-20.687-7.203H24.506L3.823,49.276c0,0-3.761,0.562-3.761,3.602v3.605
		c0,1.986,1.687,3.598,3.761,3.598h52.652c2.078,0,3.761-1.611,3.761-3.598v-3.605C60.235,49.892,56.475,49.276,56.475,49.276z"/>
	<path fill="#6A6A6A" d="M47.142,21.949c1.819,0.014,4.152,0.679,4.152,0.679s0-22.709-19.976-22.709
		c-19.336,0-19.336,22.718-19.336,22.718c2.773-0.638,4.148-0.701,4.148-0.701c0.033,17.296,15.51,17.296,15.51,17.296
		S47.142,39.231,47.142,21.949z"/>
</g>
</svg>
