<?xml version="1.0" encoding="utf-8"?>
<!-- Generator: Adobe Illustrator 16.0.0, SVG Export Plug-In . SVG Version: 6.00 Build 0)  -->
<!DOCTYPE svg PUBLIC "-//W3C//DTD SVG 1.1//EN" "http://www.w3.org/Graphics/SVG/1.1/DTD/svg11.dtd">
<svg version="1.1" id="Layer_1" xmlns="http://www.w3.org/2000/svg" xmlns:xlink="http://www.w3.org/1999/xlink" x="0px" y="0px"
	 width="35px" height="35px" viewBox="-13.5 36.5 35 35" enable-background="new -13.5 36.5 35 35" xml:space="preserve">
<g>
	<path fill="#464646" d="M21.5,36.5h-2v1h2V36.5L21.5,36.5z M17.5,36.5h-2v1h2V36.5L17.5,36.5z M13.5,36.5h-2v1h2V36.5L13.5,36.5z
		 M9.5,36.5h-2v1h2V36.5L9.5,36.5z M5.5,36.5h-2v1h2V36.5L5.5,36.5z M1.5,36.5h-2v1h2V36.5L1.5,36.5z M-2.5,36.5h-2v1h2V36.5
		L-2.5,36.5z M-6.5,36.5h-2v1h2V36.5L-6.5,36.5z M-10.5,36.5h-2v1h-1v2h1v-2h2V36.5L-10.5,36.5z M-12.5,41.5h-1v2h1V41.5L-12.5,41.5
		z M-12.5,45.5h-1v2h1V45.5L-12.5,45.5z M-12.5,49.5h-1v2h1V49.5L-12.5,49.5z M-12.5,53.5h-1v2h1V53.5L-12.5,53.5z M-12.5,57.5h-1v2
		h1V57.5L-12.5,57.5z M-12.5,61.5h-1v2h1V61.5L-12.5,61.5z M-12.5,65.5h-1v2h1V65.5L-12.5,65.5z M-12.5,69.5h-1v2h1V69.5L-12.5,69.5
		z M-9.5,70.5h-2v1h2V70.5L-9.5,70.5z M-5.5,70.5h-2v1h2V70.5L-5.5,70.5z M-1.5,70.5h-2v1h2V70.5L-1.5,70.5z M2.5,70.5h-2v1h2V70.5
		L2.5,70.5z M6.5,70.5h-2v1h2V70.5L6.5,70.5z M10.5,70.5h-2v1h2V70.5L10.5,70.5z M14.5,70.5h-2v1h2V70.5L14.5,70.5z M18.5,70.5h-2v1
		h2V70.5L18.5,70.5z M21.5,70.5h-1l0,0l0,0v1h1V70.5L21.5,70.5z M21.5,66.5h-1v2h1V66.5L21.5,66.5z M21.5,62.5h-1v2h1V62.5
		L21.5,62.5z M21.5,58.5h-1v2h1V58.5L21.5,58.5z M21.5,54.5h-1v2h1V54.5L21.5,54.5z M21.5,50.5h-1v2h1V50.5L21.5,50.5z M21.5,46.5
		h-1v2h1V46.5L21.5,46.5z M21.5,42.5h-1v2h1V42.5L21.5,42.5z M21.5,38.5h-1v2h1V38.5L21.5,38.5z"/>
</g>
</svg>
