<?xml version="1.0" encoding="utf-8"?>
<!-- Generator: Adobe Illustrator 16.0.0, SVG Export Plug-In . SVG Version: 6.00 Build 0)  -->
<!DOCTYPE svg PUBLIC "-//W3C//DTD SVG 1.1//EN" "http://www.w3.org/Graphics/SVG/1.1/DTD/svg11.dtd">
<svg version="1.1" id="Layer_1" xmlns="http://www.w3.org/2000/svg" xmlns:xlink="http://www.w3.org/1999/xlink" x="0px" y="0px"
	 width="22px" height="22px" viewBox="-13.5 36.5 22 22" enable-background="new -13.5 36.5 22 22" xml:space="preserve">
<g>
	<path fill="#232323" d="M8.5,36.5h-2v1h2V36.5L8.5,36.5z M4.5,36.5h-2v1h2V36.5L4.5,36.5z M0.5,36.5h-2v1h2V36.5L0.5,36.5z
		 M-3.5,36.5h-2v1h2V36.5L-3.5,36.5z M-7.5,36.5h-2v1h2V36.5L-7.5,36.5z M-11.5,36.5h-2v1h2V36.5L-11.5,36.5z M-12.5,38.5h-1v2h1
		V38.5L-12.5,38.5z M-12.5,42.5h-1v2h1V42.5L-12.5,42.5z M-12.5,46.5h-1v2h1V46.5L-12.5,46.5z M-12.5,50.5h-1v2h1V50.5L-12.5,50.5z
		 M-12.5,54.5h-1v2h1V54.5L-12.5,54.5z M-11.5,57.5h-2v1h2V57.5L-11.5,57.5z M-7.5,57.5h-2v1h2V57.5L-7.5,57.5z M-3.5,57.5h-2v1h2
		V57.5L-3.5,57.5z M0.5,57.5h-2v1h2V57.5L0.5,57.5z M4.5,57.5h-2v1h2V57.5L4.5,57.5z M8.5,57.5h-2v1h2V57.5L8.5,57.5z M8.5,54.5h-1
		v2h1V54.5L8.5,54.5z M8.5,50.5h-1v2h1V50.5L8.5,50.5z M8.5,46.5h-1v2h1V46.5L8.5,46.5z M8.5,42.5h-1v2h1V42.5L8.5,42.5z M8.5,38.5
		h-1v2h1V38.5L8.5,38.5z"/>
</g>
</svg>
