<?xml version="1.0" encoding="UTF-8"?>
<svg width="360px" height="94px" viewBox="0 0 360 94" version="1.1" xmlns="http://www.w3.org/2000/svg" xmlns:xlink="http://www.w3.org/1999/xlink">
    <!-- Generator: Sketch 44.1 (41455) - http://www.bohemiancoding.com/sketch -->
    <title>images/lm-logo-watermark</title>
    <desc>Created with Sketch.</desc>
    <defs>
        <polygon id="path-1" points="19.2250936 23.0770687 19.2250936 0.415327391 0.156080925 0.415327391 0.156080925 23.0770687"></polygon>
        <linearGradient x1="0%" y1="0%" x2="100%" y2="100%" id="linearGradient-3">
            <stop stop-color="#ABD05C" offset="0%"></stop>
            <stop stop-color="#6E921C" offset="100%"></stop>
        </linearGradient>
    </defs>
    <g id="Symbols" stroke="none" stroke-width="1" fill="none" fill-rule="evenodd">
        <g id="images/lm-logo-watermark">
            <g id="Group-2" transform="translate(10.000000, 10.000000)">
                <g id="lm-text" transform="translate(91.957365, 22.400000)">
                    <polygon id="Fill-1" fill="#F3F3F3" points="0.233892798 2.06683891 0.233892798 23.4740237 15.9846948 23.4740237 15.9846948 20.0502759 4.18077638 20.0502759 4.18077638 2.06683891"></polygon>
                    <g id="Group-39" transform="translate(0.000000, 0.397043)">
                        <path d="M37.1453354,12.4375183 L37.1453354,12.37444 C37.1453354,8.21477913 33.9689114,4.75335957 29.5123674,4.75335957 C25.0558234,4.75335957 21.9455175,8.14819652 21.9455175,12.3104857 L21.9455175,12.3709357 C21.9455175,16.5305965 25.1164317,19.9543443 29.5794038,19.9543443 C34.027683,19.9596009 37.1453354,16.5936748 37.1453354,12.4375183 M17.8094627,12.4375183 L17.8094627,12.37444 C17.8094627,6.34959 22.6847547,1.29982478 29.5794038,1.29982478 C36.4657882,1.29982478 41.2795536,6.28651174 41.2795536,12.3122378 L41.2795536,12.37444 C41.2795536,18.4045465 36.4116081,23.4446748 29.5178772,23.4446748 C22.6186366,23.4446748 17.8094627,18.4623683 17.8094627,12.4375183" id="Fill-2" fill="#F3F3F3"></path>
                        <polygon id="Fill-4" fill="#F3F3F3" points="46.057505 1.66953348 49.7077754 1.66953348 61.7320876 16.4718987 61.7320876 1.66953348 65.6110164 1.66953348 65.6110164 23.0802226 62.3133759 23.0802226 49.9318423 7.84857478 49.9318423 23.0802226 46.057505 23.0802226"></polygon>
                        <path d="M70.3895188,12.4375183 L70.3895188,12.37444 C70.3895188,6.37850087 75.1959378,1.29982478 81.9684521,1.29982478 C85.88044,1.29982478 88.2799762,2.34061609 90.5904367,4.20405304 L88.0862135,7.04958348 C86.3597963,5.64434 84.6554184,4.75335957 81.8059117,4.75335957 C77.6716935,4.75335957 74.5310835,8.21302696 74.5310835,12.3104857 L74.5310835,12.3709357 C74.5310835,16.7750248 77.574353,20.0174226 82.156705,20.0174226 C84.2789125,20.0174226 86.194501,19.376127 87.5774714,18.4010422 L87.5774714,14.3903161 L81.8362159,14.3903161 L81.8362159,11.1163791 L91.3921187,11.1163791 L91.3921187,20.1102878 C89.1789988,21.915027 86.0007382,23.4420465 82.0299787,23.4420465 C75.002175,23.4446748 70.3895188,18.6761335 70.3895188,12.4375183" id="Fill-6" fill="#F3F3F3"></path>
                        <path d="M114.861016,12.4375183 L114.861016,12.37444 C114.861016,8.21477913 111.684592,4.75335957 107.22713,4.75335957 C102.772422,4.75335957 99.6602797,8.14819652 99.6602797,12.3104857 L99.6602797,12.3709357 C99.6602797,16.5305965 102.831194,19.9543443 107.294166,19.9543443 C111.75071,19.9596009 114.861016,16.5936748 114.861016,12.4375183 M95.5260615,12.4375183 L95.5260615,12.37444 C95.5260615,6.34959 100.401353,1.29982478 107.294166,1.29982478 C114.188815,1.29982478 119.00258,6.28651174 119.00258,12.3122378 L119.00258,12.37444 C119.00258,18.4045465 114.121779,23.4446748 107.234476,23.4446748 C100.335235,23.4446748 95.5260615,18.4623683 95.5260615,12.4375183" id="Fill-8" fill="#F3F3F3"></path>
                        <polygon id="Fill-10" fill="#F3F3F3" points="124.246848 0.415327391 126.962282 0.415327391 135.609061 12.7812948 144.272369 0.415327391 146.982293 0.415327391 146.982293 23.0770687 144.302674 23.0770687 144.302674 4.72217087 135.650385 16.8656122 135.51723 16.8656122 126.86035 4.75283391 126.86035 23.080573 124.246848 23.080573"></polygon>
                        <path d="M169.107524,14.7594991 L163.716143,3.23194696 L158.285275,14.7594991 L169.107524,14.7594991 Z M162.492958,0.252375217 L165.001773,0.252375217 L175.829531,23.080573 L172.94421,23.080573 L170.16174,17.0881383 L157.228304,17.0881383 L154.416448,23.080573 L151.663363,23.080573 L162.492958,0.252375217 Z" id="Fill-12" fill="#F3F3F3"></path>
                        <polygon id="Fill-14" fill="#F3F3F3" points="183.730461 2.77489239 175.757719 2.77489239 175.757719 0.415590217 194.420473 0.415590217 194.420473 2.77489239 186.447732 2.77489239 186.447732 23.0773315 183.730461 23.0773315"></polygon>
                        <path d="M196.766197,11.8095391 L196.766197,11.7499652 C196.766197,5.33788478 201.786581,0.0270456522 208.777652,0.0270456522 C213.087267,0.0270456522 215.664955,1.48310217 218.041534,3.61987826 L216.210429,5.49908478 C214.20852,3.68383261 211.966933,2.3881 208.747348,2.3881 C203.482694,2.3881 199.542239,6.47066522 199.542239,11.6825065 L199.542239,11.7499652 C199.542239,16.9977261 203.513917,21.1056978 208.747348,21.1056978 C212.002747,21.1056978 214.142402,19.908087 216.41613,17.8378935 L218.181116,19.485813 C215.700769,21.882787 212.985335,23.4711326 208.679394,23.4711326 C201.822395,23.4711326 196.766197,18.3206174 196.766197,11.8095391" id="Fill-16" fill="#F3F3F3"></path>
                        <g id="Group-20" transform="translate(222.704728, 0.000000)">
                            <mask id="mask-2" fill="white">
                                <use xlink:href="#path-1"></use>
                            </mask>
                            <g id="Clip-19"></g>
                            <polygon id="Fill-18" fill="#F3F3F3" mask="url(#mask-2)" points="0.156080925 0.415327391 2.83570081 0.415327391 2.83570081 10.4850709 16.5515345 10.4850709 16.5515345 0.415327391 19.2256445 0.415327391 19.2256445 23.0770687 16.5515345 23.0770687 16.5515345 12.8811687 2.83570081 12.8811687 2.83570081 23.0770687 0.156080925 23.0770687"></polygon>
                        </g>
                        <path d="M5.15115141,34.9249183 L0.926020801,34.9249183 L0.926020801,39.7039726 L5.45419272,39.7039726 C7.59292978,39.7039726 8.94743264,38.7683117 8.94743264,37.2728313 L8.94743264,37.2386639 C8.94743264,35.7755987 7.61129592,34.9249183 5.15115141,34.9249183 L5.15115141,34.9249183 Z M8.25227422,31.6255748 C8.25227422,30.3167009 7.12918473,29.4336052 5.13278527,29.4336052 L0.926020801,29.4336052 L0.926020801,34.1084052 L5.04462779,34.1084052 C6.9152192,34.1084052 8.25227422,33.2428313 8.25227422,31.6597422 L8.25227422,31.6255748 Z M0.000367322809,28.6179683 L5.15115141,28.6179683 C6.55891607,28.6179683 7.69945339,29.007827 8.39461181,29.6719009 C8.91161866,30.1642617 9.19629384,30.7941683 9.19629384,31.5423465 L9.19629384,31.5765139 C9.19629384,33.1911422 8.09157049,34.0076552 7.07592293,34.3975139 C8.57368168,34.7724791 9.89237056,35.5889922 9.89237056,37.2386639 L9.89237056,37.2728313 C9.89237056,39.2606726 8.10993663,40.5204857 5.41837875,40.5204857 L0.000367322809,40.5204857 L0.000367322809,28.6179683 Z" id="Fill-21" fill="#F3F3F3"></path>
                        <polygon id="Fill-23" fill="#F3F3F3" points="16.3959127 35.8095909 11.0495292 28.617793 12.2075144 28.617793 16.8771056 35.0105996 21.5650629 28.617793 22.6707046 28.617793 17.3234028 35.7920691 17.3234028 40.5203104 16.3959127 40.5203104"></polygon>
                        <polygon id="Fill-25" fill="#F3F3F3" points="30.4382045 28.617793 39.2254844 28.617793 39.2254844 29.4343061 31.3656946 29.4343061 31.3656946 34.3141104 38.4238024 34.3141104 38.4238024 35.1306235 31.3656946 35.1306235 31.3656946 40.5203104 30.4382045 40.5203104"></polygon>
                        <polygon id="Fill-27" fill="#F3F3F3" points="42.1296304 28.617793 43.0552839 28.617793 43.0552839 39.7037974 50.3815373 39.7037974 50.3815373 40.5203104 42.1296304 40.5203104"></polygon>
                        <path d="M52.6076053,35.5717333 L52.6076053,28.6182311 L53.5350954,28.6182311 L53.5350954,35.4858767 C53.5350954,38.2919833 55.1210117,39.9074876 57.7593077,39.9074876 C60.2901619,39.9074876 61.9109738,38.4444224 61.9109738,35.5717333 L61.9109738,28.6182311 L62.8384639,28.6182311 L62.8384639,35.4692311 C62.8384639,38.8877224 60.7529886,40.7064789 57.7234938,40.7064789 C54.7279763,40.7064789 52.6076053,38.9052441 52.6076053,35.5717333" id="Fill-29" fill="#F3F3F3"></path>
                        <polygon id="Fill-31" fill="#F3F3F3" points="66.3486006 28.617793 75.2249563 28.617793 75.2249563 29.4343061 67.2742541 29.4343061 67.2742541 34.1091061 74.4214377 34.1091061 74.4214377 34.924743 67.2742541 34.924743 67.2742541 39.7037974 75.3131138 39.7037974 75.3131138 40.5203104 66.3486006 40.5203104"></polygon>
                        <polygon id="Fill-33" fill="#F3F3F3" points="78.2884285 28.617793 79.1617385 28.617793 87.7708668 38.9713887 87.7708668 28.617793 88.6625429 28.617793 88.6625429 40.5203104 87.9664662 40.5203104 79.1801046 29.9441887 79.1801046 40.5203104 78.2884285 40.5203104"></polygon>
                        <path d="M93.2933816,29.4339557 L93.2933816,39.704323 L96.5203125,39.704323 C99.9961045,39.704323 102.188103,37.4422665 102.188103,34.6028687 L102.188103,34.5687013 C102.188103,31.7459491 99.9961045,29.4339557 96.5203125,29.4339557 L93.2933816,29.4339557 Z M92.3677281,28.6174426 L96.5203125,28.6174426 C100.440565,28.6174426 103.150489,31.1843774 103.150489,34.5345339 L103.150489,34.5687013 C103.150489,37.9179817 100.440565,40.51996 96.5203125,40.51996 L92.3677281,40.51996 L92.3677281,28.6174426 Z" id="Fill-35" fill="#F3F3F3"></path>
                        <path d="M117.336221,34.6032191 L117.336221,34.5690517 C117.336221,31.6262757 115.09096,29.21178 112.007285,29.21178 C108.924528,29.21178 106.713245,31.5929843 106.713245,34.5348843 L106.713245,34.5690517 C106.713245,37.5100757 108.958506,39.9245713 112.043099,39.9245713 C115.126774,39.9245713 117.336221,37.544243 117.336221,34.6032191 M105.751777,34.6032191 L105.751777,34.5690517 C105.751777,31.3213974 108.264265,28.4127887 112.043099,28.4127887 C115.821014,28.4127887 118.299525,31.28723 118.299525,34.5348843 L118.299525,34.5690517 C118.299525,37.8167061 115.7852,40.7235626 112.007285,40.7235626 C108.228452,40.7235626 105.751777,37.8508735 105.751777,34.6032191" id="Fill-37" fill="#F3F3F3"></path>
                    </g>
                </g>
                <g id="icon/logo/green/lm-any" fill="url(#linearGradient-3)">
                    <path d="M35.9279905,15.2733566 L35.9279905,10.3046363 L31.3089861,9.88293027 L31.3089861,2.18458975 C31.3089861,2.18458975 34.821277,1.35 40.0860183,1.35 C45.7018039,1.35 48.861203,2.18458975 48.861203,2.18458975 L48.861203,9.78853164 L44.2421985,10.2022976 L44.2421985,15.1754291 C44.3336548,15.1860159 45.3553786,15.2795323 47.6122242,15.8847422 C49.8709173,16.4917165 51.0053448,16.9857654 51.0053448,16.9857654 C61.2780107,21.177241 68.5224573,31.2426051 68.5243049,43.0000866 C68.5243049,58.5193977 55.918118,71.1 40.36593,71.1 C32.5681267,71.1 25.5130593,67.9363226 20.4146022,62.8202698 L25.7384667,56.1214961 C29.7745528,60.5996964 35.8439246,63.2181556 42.49991,62.5176648 C51.5928822,61.5604451 58.6294736,54.4902525 59.8396527,45.8311633 C61.5311322,33.7313764 52.1582483,23.3722297 40.3631586,23.3722297 C29.5112695,23.3722297 20.7157612,32.1424799 20.6945138,42.963033 L28.2077865,42.963033 L15.4962862,58.3658896 L2.8125,43.8452632 L10.9705857,43.8452632 C10.9770523,37.9634346 12.407096,33.1861582 14.8995108,29.0696722 L10.8523391,26.1097899 L8.89850026,27.8936593 L3.6393018,24.0462535 C3.6393018,24.0462535 3.30858108,22.8049557 5.930328,19.2204545 C7.92850933,16.4828942 10.3036014,15.7259407 10.3036014,15.7259407 L15.5664951,19.5715821 L14.2639358,21.8309736 L18.165147,24.6841059 C21.2478706,21.2954598 25.1629387,18.6223024 29.6082686,16.9469473 C29.6073448,16.9487118 30.9191421,16.4855409 32.7778295,16.0003143 C34.6374407,15.5194989 36.2032832,15.2839434 35.9279905,15.2733566 Z" id="icon-any"></path>
                </g>
            </g>
        </g>
    </g>
</svg>