<?xml version="1.0" encoding="UTF-8"?>
<svg width="360px" height="94px" viewBox="0 0 360 94" version="1.1" xmlns="http://www.w3.org/2000/svg" xmlns:xlink="http://www.w3.org/1999/xlink">
    <!-- Generator: Sketch 48.2 (47327) - http://www.bohemiancoding.com/sketch -->
    <title>embedded/logo-watermark</title>
    <desc>Created with Sketch.</desc>
    <defs>
        <linearGradient x1="50%" y1="16.5796728%" x2="50%" y2="100%" id="linearGradient-1">
            <stop stop-color="#EEEEEE" offset="0%"></stop>
            <stop stop-color="#DADADA" offset="100%"></stop>
        </linearGradient>
        <rect id="path-2" x="0" y="0" width="358" height="92" rx="4"></rect>
        <filter x="-1.1%" y="-4.3%" width="102.8%" height="110.9%" filterUnits="objectBoundingBox" id="filter-3">
            <feOffset dx="1" dy="1" in="SourceAlpha" result="shadowOffsetOuter1"></feOffset>
            <feGaussianBlur stdDeviation="1.5" in="shadowOffsetOuter1" result="shadowBlurOuter1"></feGaussianBlur>
            <feComposite in="shadowBlurOuter1" in2="SourceAlpha" operator="out" result="shadowBlurOuter1"></feComposite>
            <feColorMatrix values="0 0 0 0 0.0823529412   0 0 0 0 0.101960784   0 0 0 0 0.125490196  0 0 0 0.4 0" type="matrix" in="shadowBlurOuter1"></feColorMatrix>
        </filter>
        <linearGradient x1="0%" y1="5.62193391%" x2="100%" y2="94.3780661%" id="linearGradient-4">
            <stop stop-color="#ABD05C" offset="0%"></stop>
            <stop stop-color="#6E921C" offset="100%"></stop>
        </linearGradient>
    </defs>
    <g id="SpecialExports" stroke="none" stroke-width="1" fill="none" fill-rule="evenodd">
        <g id="embedded/logo-watermark">
            <g id="Bg">
                <use fill="black" fill-opacity="1" filter="url(#filter-3)" xlink:href="#path-2"></use>
                <use fill-opacity="0.900000036" fill="url(#linearGradient-1)" fill-rule="evenodd" xlink:href="#path-2"></use>
            </g>
            <g id="Logo" transform="translate(14.000000, 12.000000)" fill-rule="nonzero">
                <path d="M95.1085164,56.7219613 L90.8833858,56.7219613 L90.8833858,61.5010156 L95.4115577,61.5010156 C97.5502948,61.5010156 98.9047976,60.5653547 98.9047976,59.0698743 L98.9047976,59.0357069 C98.9047976,57.5726417 97.5686609,56.7219613 95.1085164,56.7219613 Z M98.2096392,53.4226178 C98.2096392,52.1137439 97.0865497,51.2306482 95.0901503,51.2306482 L90.8833858,51.2306482 L90.8833858,55.9054482 L95.0019928,55.9054482 C96.8725842,55.9054482 98.2096392,55.0398743 98.2096392,53.4567852 L98.2096392,53.4226178 Z M89.9577323,50.4150113 L95.1085164,50.4150113 C96.5162811,50.4150113 97.6568184,50.80487 98.3519768,51.4689439 C98.8689837,51.9613047 99.1536588,52.5912113 99.1536588,53.3393895 L99.1536588,53.3735569 C99.1536588,54.9881852 98.0489355,55.8046982 97.0332879,56.1945569 C98.5310467,56.5695221 99.8497356,57.3860352 99.8497356,59.0357069 L99.8497356,59.0698743 C99.8497356,61.0577156 98.0673016,62.3175287 95.3757437,62.3175287 L89.9577323,62.3175287 L89.9577323,50.4150113 Z M106.353278,57.6066339 L101.006894,50.414836 L102.164879,50.414836 L106.834471,56.8076426 L111.522428,50.414836 L112.62807,50.414836 L107.280768,57.5891121 L107.280768,62.3173534 L106.353278,62.3173534 L106.353278,57.6066339 Z M120.395569,50.414836 L129.182849,50.414836 L129.182849,51.2313491 L121.32306,51.2313491 L121.32306,56.1111534 L128.381167,56.1111534 L128.381167,56.9276665 L121.32306,56.9276665 L121.32306,62.3173534 L120.395569,62.3173534 L120.395569,50.414836 Z M132.086995,50.414836 L133.012649,50.414836 L133.012649,61.5008404 L140.338902,61.5008404 L140.338902,62.3173534 L132.086995,62.3173534 L132.086995,50.414836 Z M142.56497,57.3687763 L142.56497,50.4152741 L143.49246,50.4152741 L143.49246,57.2829197 C143.49246,60.0890263 145.078377,61.7045306 147.716673,61.7045306 C150.247527,61.7045306 151.868339,60.2414654 151.868339,57.3687763 L151.868339,50.4152741 L152.795829,50.4152741 L152.795829,57.2662741 C152.795829,60.6847654 150.710354,62.5035219 147.680859,62.5035219 C144.685341,62.5035219 142.56497,60.7022871 142.56497,57.3687763 Z M156.305966,50.414836 L165.182321,50.414836 L165.182321,51.2313491 L157.231619,51.2313491 L157.231619,55.9061491 L164.378803,55.9061491 L164.378803,56.721786 L157.231619,56.721786 L157.231619,61.5008404 L165.270479,61.5008404 L165.270479,62.3173534 L156.305966,62.3173534 L156.305966,50.414836 Z M168.245793,50.414836 L169.119103,50.414836 L177.728232,60.7684317 L177.728232,50.414836 L178.619908,50.414836 L178.619908,62.3173534 L177.923831,62.3173534 L169.13747,51.7412317 L169.13747,62.3173534 L168.245793,62.3173534 L168.245793,50.414836 Z M182.325093,50.4144856 L186.477677,50.4144856 C190.39793,50.4144856 193.107854,52.9814204 193.107854,56.3315769 L193.107854,56.3657443 C193.107854,59.7150247 190.39793,62.317003 186.477677,62.317003 L182.325093,62.317003 L182.325093,50.4144856 Z M183.250747,51.2309987 L183.250747,61.501366 L186.477677,61.501366 C189.953469,61.501366 192.145468,59.2393095 192.145468,56.3999117 L192.145468,56.3657443 C192.145468,53.5429921 189.953469,51.2309987 186.477677,51.2309987 L183.250747,51.2309987 Z M195.709142,56.4002621 L195.709142,56.3660947 C195.709142,53.1184404 198.22163,50.2098317 202.000464,50.2098317 C205.778379,50.2098317 208.25689,53.084273 208.25689,56.3319273 L208.25689,56.3660947 C208.25689,59.6137491 205.742565,62.5206056 201.96465,62.5206056 C198.185817,62.5206056 195.709142,59.6479165 195.709142,56.4002621 Z M207.293586,56.4002621 L207.293586,56.3660947 C207.293586,53.4233187 205.048325,51.008823 201.96465,51.008823 C198.881893,51.008823 196.67061,53.3900273 196.67061,56.3319273 L196.67061,56.3660947 C196.67061,59.3071187 198.915871,61.7216143 202.000464,61.7216143 C205.084139,61.7216143 207.293586,59.341286 207.293586,56.4002621 Z" id="Combined-Shape" fill="#151A20"></path>
                <path d="M90.1912578,23.4668389 L94.1381414,23.4668389 L94.1381414,41.4502759 L105.94206,41.4502759 L105.94206,44.8740237 L90.1912578,44.8740237 L90.1912578,23.4668389 Z M107.766828,34.2345613 L107.766828,34.171483 C107.766828,28.146633 112.64212,23.0968678 119.536769,23.0968678 C126.423153,23.0968678 131.236919,28.0835547 131.236919,34.1092808 L131.236919,34.171483 C131.236919,40.2015895 126.368973,45.2417178 119.475242,45.2417178 C112.576002,45.2417178 107.766828,40.2594113 107.766828,34.2345613 Z M127.1027,34.2345613 L127.1027,34.171483 C127.1027,30.0118221 123.926276,26.5504026 119.469732,26.5504026 C115.013188,26.5504026 111.902882,29.9452395 111.902882,34.1075287 L111.902882,34.1679787 C111.902882,38.3276395 115.073797,41.7513873 119.536769,41.7513873 C123.985048,41.7566439 127.1027,38.3907178 127.1027,34.2345613 Z M136.01487,23.4665765 L139.66514,23.4665765 L151.689453,38.2689417 L151.689453,23.4665765 L155.568381,23.4665765 L155.568381,44.8772656 L152.270741,44.8772656 L139.889207,29.6456178 L139.889207,44.8772656 L136.01487,44.8772656 L136.01487,23.4665765 Z M160.346884,34.2345613 L160.346884,34.171483 C160.346884,28.1755439 165.153303,23.0968678 171.925817,23.0968678 C175.837805,23.0968678 178.237341,24.1376591 180.547802,26.001096 L178.043578,28.8466265 C176.317161,27.441383 174.612783,26.5504026 171.763277,26.5504026 C167.629058,26.5504026 164.488448,30.01007 164.488448,34.1075287 L164.488448,34.1679787 C164.488448,38.5720678 167.531718,41.8144656 172.11407,41.8144656 C174.236277,41.8144656 176.151866,41.17317 177.534836,40.1980852 L177.534836,36.1873591 L171.793581,36.1873591 L171.793581,32.9134221 L181.349484,32.9134221 L181.349484,41.9073308 C179.136364,43.71207 175.958103,45.2390895 171.987344,45.2390895 C164.95954,45.2417178 160.346884,40.4731765 160.346884,34.2345613 Z M185.483426,34.2345613 L185.483426,34.171483 C185.483426,28.146633 190.358718,23.0968678 197.251531,23.0968678 C204.14618,23.0968678 208.959945,28.0835547 208.959945,34.1092808 L208.959945,34.171483 C208.959945,40.2015895 204.079144,45.2417178 197.191841,45.2417178 C190.2926,45.2417178 185.483426,40.2594113 185.483426,34.2345613 Z M204.818381,34.2345613 L204.818381,34.171483 C204.818381,30.0118221 201.641957,26.5504026 197.184495,26.5504026 C192.729787,26.5504026 189.617645,29.9452395 189.617645,34.1075287 L189.617645,34.1679787 C189.617645,38.3276395 192.788559,41.7513873 197.251531,41.7513873 C201.708075,41.7566439 204.818381,38.3907178 204.818381,34.2345613 Z M214.204213,22.2123704 L216.919647,22.2123704 L225.566426,34.5783378 L234.229734,22.2123704 L236.939658,22.2123704 L236.939658,44.8741117 L234.260039,44.8741117 L234.260039,26.5192139 L225.60775,38.6626552 L225.474595,38.6626552 L216.817715,26.5498769 L216.817715,44.877616 L214.204213,44.877616 L214.204213,22.2123704 Z M252.450323,22.0494182 L254.959138,22.0494182 L265.786896,44.877616 L262.901575,44.877616 L260.119105,38.8851813 L247.185669,38.8851813 L244.373813,44.877616 L241.620728,44.877616 L252.450323,22.0494182 Z M259.064889,36.5565421 L253.673508,25.02899 L248.24264,36.5565421 L259.064889,36.5565421 Z M273.687826,24.5719354 L265.715084,24.5719354 L265.715084,22.2126332 L284.377838,22.2126332 L284.377838,24.5719354 L276.405097,24.5719354 L276.405097,44.8743745 L273.687826,44.8743745 L273.687826,24.5719354 Z M286.723562,33.6065821 L286.723562,33.5470082 C286.723562,27.1349278 291.743946,21.8240887 298.735017,21.8240887 C303.044632,21.8240887 305.62232,23.2801452 307.998899,25.4169213 L306.167794,27.2961278 C304.165885,25.4808756 301.924298,24.185143 298.704713,24.185143 C293.440059,24.185143 289.499604,28.2677082 289.499604,33.4795495 L289.499604,33.5470082 C289.499604,38.7947691 293.471282,42.9027408 298.704713,42.9027408 C301.960112,42.9027408 304.099767,41.70513 306.373495,39.6349365 L308.138481,41.282856 C305.658134,43.67983 302.9427,45.2681756 298.636759,45.2681756 C291.77976,45.2681756 286.723562,40.1176604 286.723562,33.6065821 Z M312.818174,22.2123704 L315.497794,22.2123704 L315.497794,32.2821139 L329.213627,32.2821139 L329.213627,22.2123704 L331.887737,22.2123704 L331.887737,44.8741117 L329.213627,44.8741117 L329.213627,34.6782117 L315.497794,34.6782117 L315.497794,44.8741117 L312.818174,44.8741117 L312.818174,22.2123704 Z" id="Combined-Shape" fill="#151A20"></path>
                <path d="M33.9279905,14.2733566 L33.9279905,9.3046363 L29.3089861,8.88293027 L29.3089861,1.18458975 C29.3089861,1.18458975 32.821277,0.35 38.0860183,0.35 C43.7018039,0.35 46.861203,1.18458975 46.861203,1.18458975 L46.861203,8.78853164 L42.2421985,9.2022976 L42.2421985,14.1754291 C42.3336548,14.1860159 43.3553786,14.2795323 45.6122242,14.8847422 C47.8709173,15.4917165 49.0053448,15.9857654 49.0053448,15.9857654 C59.2780107,20.177241 66.5224573,30.2426051 66.5243049,42.0000866 C66.5243049,57.5193977 53.918118,70.1 38.36593,70.1 C30.5681267,70.1 23.5130593,66.9363226 18.4146022,61.8202698 L23.7384667,55.1214961 C27.7745528,59.5996964 33.8439246,62.2181556 40.49991,61.5176648 C49.5928822,60.5604451 56.6294736,53.4902525 57.8396527,44.8311633 C59.5311322,32.7313764 50.1582483,22.3722297 38.3631586,22.3722297 C27.5112695,22.3722297 18.7157612,31.1424799 18.6945138,41.963033 L26.2077865,41.963033 L13.4962862,57.3658896 L0.8125,42.8452632 L8.9705857,42.8452632 C8.9770523,36.9634346 10.407096,32.1861582 12.8995108,28.0696722 L8.8523391,25.1097899 L6.89850026,26.8936593 L1.6393018,23.0462535 C1.6393018,23.0462535 1.30858108,21.8049557 3.930328,18.2204545 C5.92850933,15.4828942 8.3036014,14.7259407 8.3036014,14.7259407 L13.5664951,18.5715821 L12.2639358,20.8309736 L16.165147,23.6841059 C19.2478706,20.2954598 23.1629387,17.6223024 27.6082686,15.9469473 C27.6073448,15.9487118 28.9191421,15.4855409 30.7778295,15.0003143 C32.6374407,14.5194989 34.2032832,14.2839434 33.9279905,14.2733566 Z" id="icon-any" fill="url(#linearGradient-4)"></path>
            </g>
        </g>
    </g> 
</svg>