<?xml version="1.0" encoding="utf-8"?>
<!-- Generator: Adobe Illustrator 16.2.0, SVG Export Plug-In . SVG Version: 6.00 Build 0)  -->
<!DOCTYPE svg PUBLIC "-//W3C//DTD SVG 1.1//EN" "http://www.w3.org/Graphics/SVG/1.1/DTD/svg11.dtd">
<svg version="1.1" id="Layer_1" xmlns="http://www.w3.org/2000/svg" xmlns:xlink="http://www.w3.org/1999/xlink" x="0px" y="0px"
	 width="15px" height="15px" viewBox="0 0 20 20" enable-background="new 0 0 20 20" xml:space="preserve">
<g>
	<g id="new-window_1_">
		<g>
			<path fill="#6A6A6A" d="M2.437,19.702c-1.109,0-2.012-0.903-2.012-2.013V2.564c0-1.111,0.902-2.015,2.012-2.015h15.127
				c1.108,0,2.012,0.904,2.012,2.015v15.125c0,1.108-0.902,2.013-2.012,2.013H2.437z M16.55,16.678V3.574H3.45v13.104H16.55z"/>
			<path fill="#1E1F20" d="M17.563,1.05c0.836,0,1.513,0.678,1.513,1.515v15.125c0,0.838-0.677,1.514-1.513,1.514H2.437
				c-0.836,0-1.512-0.676-1.512-1.514V2.564c0-0.837,0.676-1.515,1.512-1.515L17.563,1.05 M2.95,17.178h14.1V3.074H2.95V17.178
				 M17.563,0.05H2.437c-1.385,0-2.512,1.128-2.512,2.515v15.125c0,1.387,1.127,2.514,2.512,2.514h15.127
				c1.385,0,2.512-1.127,2.512-2.514V2.564C20.075,1.178,18.947,0.05,17.563,0.05L17.563,0.05z M3.95,4.074h12.1v12.104H3.95V4.074
				L3.95,4.074z"/>
		</g>
	</g>
	<g id="checkmark_2_" opacity="0.6">
		<path fill="#50B44D" d="M14.982,6.039c0.228,0.001,0.445,0.093,0.607,0.255l0.607,0.613c0.336,0.337,0.336,0.89,0,1.227
			l-6.799,7.009c-0.16,0.16-0.377,0.254-0.606,0.254c-0.001,0-0.002,0-0.003,0s-0.002,0-0.003,0c-0.228,0-0.444-0.094-0.605-0.254
			l-4.38-4.16C3.64,10.818,3.55,10.598,3.55,10.368c-0.001-0.23,0.09-0.452,0.251-0.613L4.41,9.142
			c0.167-0.17,0.385-0.254,0.604-0.254c0.001,0,0.002,0,0.004,0s0.005,0,0.007,0c0.216,0,0.434,0.085,0.6,0.254l3.165,3l5.583-5.849
			c0.161-0.161,0.377-0.254,0.604-0.254C14.98,6.04,14.98,6.04,14.982,6.039L14.982,6.039 M14.631,5.038l-0.059,0.047
			c-0.34,0.077-0.651,0.248-0.905,0.502L8.756,10.73L6.314,8.416C5.989,8.084,5.522,7.888,5.026,7.888
			c-0.51,0-0.979,0.196-1.329,0.553L3.091,9.05C2.746,9.396,2.548,9.878,2.55,10.373c0,0.486,0.198,0.968,0.542,1.314l4.401,4.181
			c0.334,0.334,0.8,0.528,1.293,0.528c0.503,0,0.97-0.195,1.322-0.549l6.807-7.018c0.716-0.718,0.716-1.901-0.011-2.629L16.303,5.59
			c-0.355-0.354-0.82-0.549-1.316-0.551L14.631,5.038L14.631,5.038z"/>
	</g>
</g>
</svg>
