<?xml version="1.0" encoding="utf-8"?>
<!-- Generator: Adobe Illustrator 16.2.0, SVG Export Plug-In . SVG Version: 6.00 Build 0)  -->
<!DOCTYPE svg PUBLIC "-//W3C//DTD SVG 1.1//EN" "http://www.w3.org/Graphics/SVG/1.1/DTD/svg11.dtd">
<svg version="1.1" id="Layer_1" xmlns="http://www.w3.org/2000/svg" xmlns:xlink="http://www.w3.org/1999/xlink" x="0px" y="0px"
	 width="20px" height="20px" viewBox="0 0 20 20" enable-background="new 0 0 20 20" xml:space="preserve">
<path fill="#6A6A6A" d="M2.437,19.702c-1.109,0-2.012-0.903-2.012-2.013V2.564c0-1.111,0.902-2.015,2.012-2.015h15.127
	c1.107,0,2.012,0.904,2.012,2.015v15.125c0,1.107-0.902,2.013-2.012,2.013H2.437z M16.55,16.678V3.574H3.45v13.104H16.55z"/>
<path fill="#6A6A6A" d="M17.563,1.05c0.836,0,1.514,0.678,1.514,1.515v15.125c0,0.838-0.678,1.515-1.514,1.515H2.437
	c-0.836,0-1.512-0.677-1.512-1.515V2.564c0-0.837,0.676-1.515,1.512-1.515L17.563,1.05 M2.95,17.178h14.1V3.074H2.95V17.178
	 M17.563,0.05H2.437c-1.385,0-2.512,1.128-2.512,2.515v15.125c0,1.388,1.127,2.515,2.512,2.515h15.127
	c1.385,0,2.512-1.127,2.512-2.515V2.564C20.075,1.178,18.947,0.05,17.563,0.05L17.563,0.05z M3.95,4.074h12.1v12.104H3.95V4.074
	L3.95,4.074z"/>
</svg>
