<?xml version="1.0" encoding="utf-8"?>
<!-- Generator: Adobe Illustrator 16.0.0, SVG Export Plug-In . SVG Version: 6.00 Build 0)  -->
<!DOCTYPE svg PUBLIC "-//W3C//DTD SVG 1.1//EN" "http://www.w3.org/Graphics/SVG/1.1/DTD/svg11.dtd">
<svg version="1.1" id="Layer_1" xmlns="http://www.w3.org/2000/svg" xmlns:xlink="http://www.w3.org/1999/xlink" x="0px" y="0px"
	 width="7px" height="164px" viewBox="0 0 7 164" enable-background="new 0 0 7 164" xml:space="preserve">
<rect x="2" fill="#292A2C" width="1" height="4"/>
<rect x="2" y="8" fill="#292A2C" width="1" height="4"/>
<rect x="2" y="16" fill="#292A2C" width="1" height="4"/>
<rect x="2" y="24" fill="#292A2C" width="1" height="4"/>
<rect x="2" y="32" fill="#292A2C" width="1" height="4"/>
<rect x="2" y="40" fill="#292A2C" width="1" height="4"/>
<rect x="4" fill="#292A2C" width="1" height="4"/>
<rect x="4" y="8" fill="#292A2C" width="1" height="4"/>
<rect x="4" y="16" fill="#292A2C" width="1" height="4"/>
<rect x="4" y="24" fill="#292A2C" width="1" height="4"/>
<rect x="4" y="32" fill="#292A2C" width="1" height="4"/>
<rect x="4" y="40" fill="#292A2C" width="1" height="4"/>
<rect x="2" y="48" fill="#292A2C" width="1" height="4"/>
<rect x="2" y="56" fill="#292A2C" width="1" height="4"/>
<rect x="2" y="64" fill="#292A2C" width="1" height="4"/>
<rect x="2" y="72" fill="#292A2C" width="1" height="4"/>
<rect x="2" y="80" fill="#292A2C" width="1" height="4"/>
<rect x="4" y="48" fill="#292A2C" width="1" height="4"/>
<rect x="4" y="56" fill="#292A2C" width="1" height="4"/>
<rect x="4" y="64" fill="#292A2C" width="1" height="4"/>
<rect x="4" y="72" fill="#292A2C" width="1" height="4"/>
<rect x="4" y="80" fill="#292A2C" width="1" height="4"/>
<rect x="2" y="88" fill="#292A2C" width="1" height="4"/>
<rect x="2" y="96" fill="#292A2C" width="1" height="4"/>
<rect x="2" y="104" fill="#292A2C" width="1" height="4"/>
<rect x="2" y="112" fill="#292A2C" width="1" height="4"/>
<rect x="2" y="120" fill="#292A2C" width="1" height="4"/>
<rect x="4" y="88" fill="#292A2C" width="1" height="4"/>
<rect x="4" y="96" fill="#292A2C" width="1" height="4"/>
<rect x="4" y="104" fill="#292A2C" width="1" height="4"/>
<rect x="4" y="112" fill="#292A2C" width="1" height="4"/>
<rect x="4" y="120" fill="#292A2C" width="1" height="4"/>
<rect x="2" y="128" fill="#292A2C" width="1" height="4"/>
<rect x="2" y="136" fill="#292A2C" width="1" height="4"/>
<rect x="2" y="144" fill="#292A2C" width="1" height="4"/>
<rect x="2" y="152" fill="#292A2C" width="1" height="4"/>
<rect x="2" y="160" fill="#292A2C" width="1" height="4"/>
<rect x="4" y="128" fill="#292A2C" width="1" height="4"/>
<rect x="4" y="136" fill="#292A2C" width="1" height="4"/>
<rect x="4" y="144" fill="#292A2C" width="1" height="4"/>
<rect x="4" y="152" fill="#292A2C" width="1" height="4"/>
<rect x="4" y="160" fill="#292A2C" width="1" height="4"/>
</svg>
