<?xml version="1.0" encoding="utf-8"?>
<!-- Generator: Adobe Illustrator 14.0.0, SVG Export Plug-In . SVG Version: 6.00 Build 43363)  -->
<!DOCTYPE svg PUBLIC "-//W3C//DTD SVG 1.1//EN" "http://www.w3.org/Graphics/SVG/1.1/DTD/svg11.dtd">
<svg version="1.1" id="Capa_1" xmlns="http://www.w3.org/2000/svg" xmlns:xlink="http://www.w3.org/1999/xlink" x="0px" y="0px"
	 width="114px" height="114px" viewBox="0 0 114 114" enable-background="new 0 0 114 114" xml:space="preserve">
<linearGradient id="SVGID_1_" gradientUnits="userSpaceOnUse" x1="-203.873" y1="1325.3555" x2="-155.8076" y2="1394.6591" gradientTransform="matrix(1 0 0 1 235.7002 -1304.3711)">
	<stop  offset="0" style="stop-color:#ABD05C"/>
	<stop  offset="1" style="stop-color:#6E921C"/>
</linearGradient>
<path fill="url(#SVGID_1_)" d="M51.424,31.211c2.013-0.545,3.708-0.812,3.793-0.824v-5.632l-5.31-0.478V15.56
	c0,0,3.875-0.964,9.682-0.964c6.194,0,9.679,0.964,9.679,0.964v8.718l-5.225,0.468v5.638c0.104,0.011,1.26,0.117,3.813,0.803
	c2.554,0.688,3.838,1.248,3.838,1.248c11.619,4.751,19.813,16.16,19.815,29.488c0,17.591-14.259,31.851-31.85,31.851
	c-8.82,0-16.8-3.586-22.567-9.385l6.022-7.594c4.071,4.528,9.973,7.378,16.542,7.378c12.289,0,22.254-9.96,22.254-22.246
	c0-12.29-9.965-22.252-22.254-22.252c-12.275,0-22.224,9.941-22.248,22.206h9.069l-13.76,17.352l-13.73-17.354h8.831
	c0.007-5.773,1.555-11.188,4.253-15.854L27.69,42.67l-2.115,2.022l-5.693-4.361c0,0-0.358-1.407,2.48-5.47
	c2.163-3.103,4.734-3.961,4.734-3.961l5.697,4.359l-1.41,2.561l4.223,3.234c3.337-3.841,7.575-6.871,12.387-8.77
	C47.992,32.286,49.412,31.761,51.424,31.211z"/>
<polygon fill="#3B3B3C" points="95.488,77.689 55.248,77.689 59.654,61.889 99.852,61.889 "/>
<path fill="#FFFFFF" d="M68.857,65.061c-0.865-0.861-2.033-1.201-3.729-1.201h-3.76l-3.187,11.857h2.608l0.967-3.592h2.252
	c1.882,0,3.507-0.559,4.56-1.609c0.761-0.762,1.201-1.775,1.201-3.016C69.771,66.467,69.467,65.67,68.857,65.061z M66.502,69.061
	c-0.51,0.508-1.322,0.779-2.354,0.779h-1.779l0.965-3.627h1.693c0.779,0,1.271,0.17,1.625,0.525c0.256,0.254,0.391,0.594,0.391,0.98
	C67.043,68.264,66.857,68.703,66.502,69.061z M77.193,63.859h-4.322l-3.184,11.855h2.607l1.02-3.795h1.947l1.826,3.795h2.969
	l-2.02-4.049c1.488-0.34,2.287-0.965,2.744-1.424c0.691-0.693,1.086-1.678,1.086-2.813c0-0.967-0.324-1.797-0.916-2.389
	C80.156,64.248,78.953,63.859,77.193,63.859z M78.648,68.855c-0.508,0.51-1.371,0.764-2.387,0.764h-2.322l0.914-3.406h2.186
	c0.832,0,1.406,0.17,1.729,0.492c0.254,0.254,0.371,0.541,0.371,0.949C79.139,68.145,78.953,68.549,78.648,68.855z M90.068,63.654
	c-2.068,0-3.797,0.813-5.049,2.068c-1.322,1.318-2.084,3.133-2.084,4.943c0,2.98,2.15,5.252,5.42,5.252
	c2.066,0,3.797-0.813,5.051-2.064c1.318-1.32,2.082-3.137,2.082-4.945C95.488,65.924,93.336,63.654,90.068,63.654z M91.406,72.346
	c-0.695,0.693-1.643,1.17-2.744,1.17c-1.949,0-3.016-1.256-3.016-3.016c0-1.135,0.508-2.406,1.373-3.271
	c0.691-0.691,1.643-1.168,2.744-1.168c1.943,0,3.014,1.254,3.014,3.018C92.777,70.213,92.27,71.482,91.406,72.346z"/>
</svg>
