<?xml version="1.0" encoding="utf-8"?>
<!-- Generator: Adobe Illustrator 16.0.0, SVG Export Plug-In . SVG Version: 6.00 Build 0)  -->
<!DOCTYPE svg PUBLIC "-//W3C//DTD SVG 1.1//EN" "http://www.w3.org/Graphics/SVG/1.1/DTD/svg11.dtd">
<svg version="1.1"
	 id="Capa_1" xmlns:dc="http://purl.org/dc/elements/1.1/" xmlns:cc="http://creativecommons.org/ns#" xmlns:rdf="http://www.w3.org/1999/02/22-rdf-syntax-ns#" xmlns:svg="http://www.w3.org/2000/svg" xmlns:sodipodi="http://sodipodi.sourceforge.net/DTD/sodipodi-0.dtd" xmlns:inkscape="http://www.inkscape.org/namespaces/inkscape" inkscape:version="0.48.4 r9939" sodipodi:docname="longomatch.svg"
	 xmlns="http://www.w3.org/2000/svg" xmlns:xlink="http://www.w3.org/1999/xlink" x="0px" y="0px" width="80px" height="80px"
	 viewBox="0 0 80 80" enable-background="new 0 0 80 80" xml:space="preserve">
<sodipodi:namedview  id="namedview14" bordercolor="#666666" pagecolor="#ffffff" borderopacity="1" objecttolerance="10" gridtolerance="10" guidetolerance="10" showgrid="false" fit-margin-top="0" fit-margin-left="0" inkscape:zoom="3.471246" inkscape:cx="38.013" inkscape:cy="36.774" inkscape:pageopacity="0" inkscape:pageshadow="2" inkscape:window-width="970" inkscape:window-height="483" fit-margin-right="0" fit-margin-bottom="0" inkscape:window-x="0" inkscape:window-y="27" inkscape:window-maximized="0" inkscape:current-layer="Capa_1">
	</sodipodi:namedview>
<path fill="#988E82" d="M41.004,18.104c-11.372,0-20.588,9.217-20.588,20.586c0,11.371,9.217,20.588,20.588,20.588
	c11.369,0,20.588-9.217,20.588-20.588C61.592,27.321,52.373,18.104,41.004,18.104z M41.004,54.894
	c-8.949,0-16.204-7.254-16.204-16.203c0-8.948,7.255-16.203,16.204-16.203c8.949,0,16.203,7.255,16.203,16.203
	C57.207,47.64,49.953,54.894,41.004,54.894z"/>
<circle fill="none" stroke="#988E82" stroke-miterlimit="10" cx="41.005" cy="38.69" r="24.068"/>
<g>
	<path fill="none" stroke="#988E82" stroke-width="3" stroke-miterlimit="10" d="M40,0.5L40,0.5v25.755c0-0.009,0-0.029,0-0.029V0.5
		z"/>
	<path fill="none" stroke="#988E82" stroke-width="3" stroke-miterlimit="10" d="M40,79.173L40,79.173V51.158c0,0,0-0.022,0-0.031
		V79.173z"/>
</g>
<rect x="48.5" y="36.5" fill="#988E82" width="27" height="7"/>
<g>
	<path fill="#988E82" d="M65.215,39.5c-0.238,13-10.982,23.596-24.211,23.596c-13.375,0-24.221-10.938-24.221-24.313
		s10.846-24.268,24.221-24.268c6.047,0,11.572,2.199,15.816,5.864l4.439-4.45c-5.385-4.794-12.479-7.718-20.256-7.718
		c-16.835,0-30.485,13.645-30.485,30.482c0,16.837,13.649,30.593,30.485,30.593c16.688,0,30.234-13.786,30.473-29.786
		C69.371,39.5,67.457,39.5,65.215,39.5z"/>
</g>
<path fill="#988E82" d="M65.152,39.604c-0.314,13.075-11,23.577-24.148,23.577c-13.344,0-24.164-10.818-24.164-24.164
	c0-13.221,10.622-23.962,23.796-24.158c0.121-0.002,0.244-0.003,0.367-0.003c0-2.759,0-5.52,0-8.279c-0.123,0-0.246,0-0.367,0.002
	C22.888,6.775,8.562,21.224,8.562,39.018c0,17.92,14.525,32.443,32.442,32.443c17.721,0,32.113-14.211,32.428-31.856
	C70.701,39.604,67.793,39.604,65.152,39.604z"/>
<g>
	<path fill="none" stroke="#988E82" stroke-width="3" stroke-miterlimit="10" d="M79.336,40L79.336,40H53.582
		c0.008,0,0.029,0,0.029,0H79.336z"/>
	<path fill="none" stroke="#988E82" stroke-width="3" stroke-miterlimit="10" d="M0.664,40L0.664,40h28.015c0,0,0.022,0,0.031,0
		H0.664z"/>
</g>
</svg>
