<?xml version="1.0" encoding="utf-8"?>
<!-- Generator: Adobe Illustrator 15.1.0, SVG Export Plug-In . SVG Version: 6.00 Build 0)  -->
<!DOCTYPE svg PUBLIC "-//W3C//DTD SVG 1.1//EN" "http://www.w3.org/Graphics/SVG/1.1/DTD/svg11.dtd">
<svg version="1.1" id="Capa_1" xmlns="http://www.w3.org/2000/svg" xmlns:xlink="http://www.w3.org/1999/xlink" x="0px" y="0px"
	 width="114px" height="114px" viewBox="35.5 73.574 114 114" enable-background="new 35.5 73.574 114 114" xml:space="preserve">
<linearGradient id="SVGID_1_" gradientUnits="userSpaceOnUse" x1="62.7678" y1="168.3635" x2="120.0317" y2="111.0995" gradientTransform="matrix(1 0 0 -1 0.1401 269.2036)">
	<stop  offset="0" style="stop-color:#393C43"/>
	<stop  offset="1" style="stop-color:#1E1F23"/>
</linearGradient>
<path fill="url(#SVGID_1_)" d="M86.677,107.601c2.013-0.545,3.708-0.812,3.793-0.824v-5.632l-5.31-0.478v-8.718
	c0,0,3.875-0.963,9.682-0.963c6.194,0,9.678,0.963,9.678,0.963v8.718l-5.224,0.468v5.638c0.103,0.01,1.259,0.117,3.812,0.802
	c2.553,0.688,3.839,1.248,3.839,1.248c11.618,4.751,19.812,16.161,19.815,29.49c0,17.59-14.259,31.85-31.85,31.85
	c-8.82,0-16.8-3.588-22.567-9.385l6.022-7.594c4.071,4.529,9.973,7.379,16.543,7.379c12.289,0,22.254-9.961,22.254-22.246
	c0-12.291-9.966-22.253-22.254-22.253c-12.276,0-22.225,9.942-22.249,22.206h9.069l-13.761,17.352l-13.73-17.352h8.831
	c0.007-5.775,1.555-11.189,4.253-15.856l-4.381-3.355l-2.115,2.022l-5.693-4.361c0,0-0.358-1.407,2.48-5.47
	c2.163-3.102,4.734-3.961,4.734-3.961l5.697,4.36l-1.41,2.56l4.223,3.235c3.337-3.841,7.575-6.872,12.387-8.77
	C83.245,108.676,84.665,108.151,86.677,107.601z"/>
<linearGradient id="SVGID_2_" gradientUnits="userSpaceOnUse" x1="66.9407" y1="171.8274" x2="115.0052" y2="102.5249" gradientTransform="matrix(1 0 0 -1 0.1401 269.2036)">
	<stop  offset="0" style="stop-color:#ABD05C"/>
	<stop  offset="1" style="stop-color:#6E921C"/>
</linearGradient>
<path fill="url(#SVGID_2_)" d="M86.677,107.601c2.013-0.545,3.708-0.812,3.793-0.824v-5.632l-5.31-0.478v-8.718
	c0,0,3.875-0.963,9.682-0.963c6.194,0,9.678,0.963,9.678,0.963v8.718l-5.224,0.468v5.638c0.103,0.01,1.259,0.117,3.812,0.802
	c2.553,0.688,3.839,1.248,3.839,1.248c11.618,4.751,19.812,16.161,19.815,29.49c0,17.59-14.259,31.85-31.85,31.85
	c-8.82,0-16.8-3.588-22.567-9.385l6.022-7.594c4.071,4.529,9.973,7.379,16.543,7.379c12.289,0,22.254-9.961,22.254-22.246
	c0-12.291-9.966-22.253-22.254-22.253c-12.276,0-22.225,9.942-22.249,22.206h9.069l-13.761,17.352l-13.73-17.352h8.831
	c0.007-5.775,1.555-11.189,4.253-15.856l-4.381-3.355l-2.115,2.022l-5.693-4.361c0,0-0.358-1.407,2.48-5.47
	c2.163-3.102,4.734-3.961,4.734-3.961l5.697,4.36l-1.41,2.56l4.223,3.235c3.337-3.841,7.575-6.872,12.387-8.77
	C83.245,108.676,84.665,108.151,86.677,107.601z"/>
</svg>
