<?xml version="1.0" encoding="utf-8"?>
<!-- Generator: Adobe Illustrator 14.0.0, SVG Export Plug-In . SVG Version: 6.00 Build 43363)  -->
<!DOCTYPE svg PUBLIC "-//W3C//DTD SVG 1.1//EN" "http://www.w3.org/Graphics/SVG/1.1/DTD/svg11.dtd">
<svg version="1.1" id="Layer_1" xmlns="http://www.w3.org/2000/svg" xmlns:xlink="http://www.w3.org/1999/xlink" x="0px" y="0px"
	 width="44px" height="44px" viewBox="0 0 44 44" enable-background="new 0 0 44 44" xml:space="preserve">
<path id="plus_1_" fill="#6A6A6A" d="M1719.137,835.451c-0.297,0-0.535-0.238-0.535-0.535v-5.23h-5.23
	c-0.297,0-0.537-0.237-0.537-0.532v-3.461c0-0.3,0.24-0.535,0.537-0.535h5.23v-5.23c0-0.299,0.238-0.537,0.535-0.537h3.461
	c0.295,0,0.535,0.238,0.535,0.537v5.23h5.229c0.297,0,0.537,0.235,0.537,0.535v3.461c0,0.295-0.24,0.532-0.537,0.532h-5.229v5.23
	c0,0.297-0.24,0.535-0.535,0.535H1719.137z"/>
<path id="plus_12_" fill="#6A6A6A" d="M1730.625,833.451c-0.297,0-0.533-0.238-0.533-0.535v-5.23h-5.23
	c-0.297,0-0.537-0.236-0.537-0.531v-3.461c0-0.301,0.24-0.535,0.537-0.535h5.23v-5.23c0-0.299,0.236-0.537,0.533-0.537h3.463
	c0.295,0,0.535,0.238,0.535,0.537v5.23h5.229c0.301,0,0.537,0.234,0.537,0.535v3.461c0,0.295-0.236,0.531-0.537,0.531h-5.229v5.23
	c0,0.297-0.24,0.535-0.535,0.535H1730.625z"/>
<path opacity="0.8" fill="#50B44D" enable-background="new    " d="M39.6,44H4.4C1.974,44,0,42.025,0,39.602V4.4
	C0,1.974,1.974,0,4.4,0h35.2C42.025,0,44,1.974,44,4.4v35.2C44,42.025,42.025,44,39.6,44z M4.4,0.978
	c-1.887,0-3.422,1.536-3.422,3.422v35.2c0,1.887,1.535,3.422,3.422,3.422h35.2c1.887,0,3.422-1.535,3.422-3.422V4.4
	c0-1.887-1.535-3.422-3.422-3.422H4.4z"/>
</svg>
