<?xml version="1.0" encoding="utf-8"?>
<!-- Generator: Adobe Illustrator 15.1.0, SVG Export Plug-In . SVG Version: 6.00 Build 0)  -->
<!DOCTYPE svg PUBLIC "-//W3C//DTD SVG 1.1//EN" "http://www.w3.org/Graphics/SVG/1.1/DTD/svg11.dtd">
<svg version="1.1" id="Layer_1" xmlns="http://www.w3.org/2000/svg" xmlns:xlink="http://www.w3.org/1999/xlink" x="0px" y="0px"
	 width="80px" height="40px" viewBox="0 0 80 40" enable-background="new 0 0 80 40" xml:space="preserve">
<g>
	<linearGradient id="SVGID_1_" gradientUnits="userSpaceOnUse" x1="39.9663" y1="37.0063" x2="39.9663" y2="3.3882">
		<stop  offset="0" style="stop-color:#3B3B3C"/>
		<stop  offset="1" style="stop-color:#6C6B6C"/>
	</linearGradient>
	<path fill="url(#SVGID_1_)" d="M72.346,3.388H17.795c-1.72,0-8.661,8.907-14.32,16.93c5.663,7.881,12.605,16.247,14.406,16.688
		l54.386-0.046c2.355,0,4.191-1.981,4.191-4.368V7.408C76.458,5.021,74.701,3.388,72.346,3.388z"/>
	<path fill="#242627" d="M72.346,0.388H17.795C14.4,0.388,5.527,12.291,0.539,19.44l-0.578,0.783l0.585,0.6
		c4.989,7.018,13.862,18.565,17.25,18.565h54.551c3.938,0,7.112-2.826,7.112-6.796V7.408C79.458,3.438,76.284,0.388,72.346,0.388z
		 M76.458,32.592c0,2.387-1.836,4.33-4.191,4.33l-54.425,0.007c-1.801-0.442-8.723-8.73-14.386-16.611
		c5.659-8.022,12.62-16.93,14.34-16.93h54.551c2.355,0,4.112,1.633,4.112,4.02V32.592z"/>
</g>
</svg>
