<?xml version="1.0" encoding="utf-8"?>
<!-- Generator: Adobe Illustrator 15.1.0, SVG Export Plug-In . SVG Version: 6.00 Build 0)  -->
<!DOCTYPE svg PUBLIC "-//W3C//DTD SVG 1.1//EN" "http://www.w3.org/Graphics/SVG/1.1/DTD/svg11.dtd">
<svg version="1.1" id="Layer_1" xmlns="http://www.w3.org/2000/svg" xmlns:xlink="http://www.w3.org/1999/xlink" x="0px" y="0px"
	 width="44px" height="44px" viewBox="-2 -2 44 44" enable-background="new -2 -2 44 44" xml:space="preserve">
<path id="plus_1_" fill="#6A6A6A" d="M1719.136,835.451c-0.297,0-0.535-0.238-0.535-0.535v-5.23h-5.229
	c-0.297,0-0.537-0.239-0.537-0.534v-3.461c0-0.298,0.24-0.535,0.537-0.535h5.229v-5.23c0-0.299,0.238-0.537,0.535-0.537h3.461
	c0.296,0,0.536,0.238,0.536,0.537v5.23h5.229c0.297,0,0.537,0.237,0.537,0.535v3.461c0,0.295-0.24,0.534-0.537,0.534h-5.229v5.23
	c0,0.297-0.24,0.535-0.536,0.535H1719.136z"/>
<path id="plus_12_" fill="#6A6A6A" d="M1730.626,833.451c-0.297,0-0.535-0.238-0.535-0.535v-5.23h-5.229
	c-0.298,0-0.537-0.238-0.537-0.533v-3.461c0-0.299,0.239-0.535,0.537-0.535h5.229v-5.23c0-0.299,0.238-0.537,0.535-0.537h3.461
	c0.296,0,0.536,0.238,0.536,0.537v5.23h5.229c0.299,0,0.537,0.236,0.537,0.535v3.461c0,0.295-0.238,0.533-0.537,0.533h-5.229v5.23
	c0,0.297-0.24,0.535-0.536,0.535H1730.626z"/>
<radialGradient id="SVGID_1_" cx="20" cy="20" r="21.5" gradientUnits="userSpaceOnUse">
	<stop  offset="0" style="stop-color:#3C3C3D"/>
	<stop  offset="1" style="stop-color:#242627"/>
</radialGradient>
<path fill="url(#SVGID_1_)" d="M41.5,37.591c0,2.159-1.75,3.909-3.909,3.909H2.409C0.25,41.5-1.5,39.75-1.5,37.591V2.409
	C-1.5,0.25,0.25-1.5,2.409-1.5h35.182c2.159,0,3.909,1.75,3.909,3.909V37.591z"/>
<path opacity="0.8" fill="#151A20" d="M37.6,42H2.4C-0.026,42-2,40.026-2,37.601V2.4C-2-0.026-0.026-2,2.4-2h35.2
	C40.026-2,42-0.026,42,2.4v35.2C42,40.026,40.026,42,37.6,42z M2.4-1.022c-1.887,0-3.422,1.536-3.422,3.422v35.2
	c0,1.887,1.535,3.422,3.422,3.422h35.2c1.887,0,3.422-1.535,3.422-3.422V2.4c0-1.887-1.535-3.422-3.422-3.422H2.4z"/>
</svg>
