<?xml version="1.0" encoding="utf-8"?>
<!-- Generator: Adobe Illustrator 15.1.0, SVG Export Plug-In . SVG Version: 6.00 Build 0)  -->
<!DOCTYPE svg PUBLIC "-//W3C//DTD SVG 1.1//EN" "http://www.w3.org/Graphics/SVG/1.1/DTD/svg11.dtd">
<svg version="1.1" id="Layer_1" xmlns="http://www.w3.org/2000/svg" xmlns:xlink="http://www.w3.org/1999/xlink" x="0px" y="0px"
	 width="80px" height="40px" viewBox="0 0 80 40" enable-background="new 0 0 80 40" xml:space="preserve">
<path fill="#242627" d="M72.346,1H17.795C14.4,1,5.527,12.902,0.539,20.051l-0.578,0.783l0.585,0.602
	C5.535,28.452,14.408,40,17.796,40h54.552c3.938,0,7.111-2.826,7.111-6.797V8.02C79.458,4.049,76.284,1,72.346,1z"/>
<g>
	
		<radialGradient id="SVGID_1_" cx="134.9668" cy="821.1973" r="28.409" gradientTransform="matrix(1 0 0 1 -95 -801)" gradientUnits="userSpaceOnUse">
		<stop  offset="0" style="stop-color:#3D3D3E"/>
		<stop  offset="1" style="stop-color:#242627"/>
	</radialGradient>
	<path fill="url(#SVGID_1_)" d="M72.346,3.388H17.795c-1.72,0-8.661,8.907-14.32,16.93c5.663,7.881,12.605,16.247,14.406,16.688
		l54.387-0.046c2.354,0,4.19-1.981,4.19-4.368V7.408C76.458,5.021,74.701,3.388,72.346,3.388z"/>
</g>
</svg>
