<?xml version="1.0" encoding="utf-8"?>

<!-- Generator: Adobe Illustrator 14.0.0, SVG Export Plug-In . SVG Version: 6.00 Build 43363)  -->

<!DOCTYPE svg PUBLIC "-//W3C//DTD SVG 1.1//EN" "http://www.w3.org/Graphics/SVG/1.1/DTD/svg11.dtd">

<svg version="1.1" id="Layer_1" xmlns="http://www.w3.org/2000/svg" xmlns:xlink="http://www.w3.org/1999/xlink" x="0px" y="0px"

	 width="80px" height="80px" viewBox="0 0 80 80" enable-background="new 0 0 80 80" xml:space="preserve">

<linearGradient id="SVGID_1_" gradientUnits="userSpaceOnUse" x1="0.292" y1="40" x2="79.708" y2="40">

	<stop  offset="0" style="stop-color:#769A24"/>

	<stop  offset="1" style="stop-color:#A4C955"/>

</linearGradient>

<path fill="url(#SVGID_1_)" d="M79.708,67.41c0,6.792-5.506,12.298-12.299,12.298h-54.82c-6.792,0-12.297-5.506-12.297-12.298

	V12.589c0-6.792,5.505-12.297,12.297-12.297h54.82c6.793,0,12.299,5.505,12.299,12.297V67.41z"/>

<path fill="#30302E" d="M70.833,61.284c0,5.273-4.274,9.549-9.549,9.549H18.715c-5.273,0-9.548-4.275-9.548-9.549V18.715

	c0-5.274,4.275-9.549,9.548-9.549h42.569c5.274,0,9.549,4.275,9.549,9.549V61.284z"/>

</svg>

