<?xml version="1.0" encoding="UTF-8" standalone="no"?>
<!-- Generator: Adobe Illustrator 15.1.0, SVG Export Plug-In . SVG Version: 6.00 Build 0)  -->

<svg
   xmlns:dc="http://purl.org/dc/elements/1.1/"
   xmlns:cc="http://creativecommons.org/ns#"
   xmlns:rdf="http://www.w3.org/1999/02/22-rdf-syntax-ns#"
   xmlns:svg="http://www.w3.org/2000/svg"
   xmlns="http://www.w3.org/2000/svg"
   xmlns:sodipodi="http://sodipodi.sourceforge.net/DTD/sodipodi-0.dtd"
   xmlns:inkscape="http://www.inkscape.org/namespaces/inkscape"
   version="1.1"
   id="Layer_1"
   x="0px"
   y="0px"
   width="44px"
   height="44px"
   viewBox="0 0 44 44"
   enable-background="new 0 0 44 44"
   xml:space="preserve"
   inkscape:version="0.48.4 r9939"
   sodipodi:docname="button-entry-default.svg"><metadata
     id="metadata11"><rdf:RDF><cc:Work
         rdf:about=""><dc:format>image/svg+xml</dc:format><dc:type
           rdf:resource="http://purl.org/dc/dcmitype/StillImage" /></cc:Work></rdf:RDF></metadata><defs
     id="defs9" /><sodipodi:namedview
     pagecolor="#ffffff"
     bordercolor="#666666"
     borderopacity="1"
     objecttolerance="10"
     gridtolerance="10"
     guidetolerance="10"
     inkscape:pageopacity="0"
     inkscape:pageshadow="2"
     inkscape:window-width="850"
     inkscape:window-height="577"
     id="namedview7"
     showgrid="false"
     inkscape:zoom="5.3636364"
     inkscape:cx="22"
     inkscape:cy="22"
     inkscape:window-x="75"
     inkscape:window-y="42"
     inkscape:window-maximized="0"
     inkscape:current-layer="Layer_1" /><path
     id="plus_1_"
     fill="#6A6A6A"
     d="M1719.136,835.451c-0.297,0-0.535-0.238-0.535-0.535v-5.23h-5.229  c-0.297,0-0.537-0.238-0.537-0.533v-3.461c0-0.299,0.24-0.535,0.537-0.535h5.229v-5.23c0-0.299,0.238-0.537,0.535-0.537h3.461  c0.296,0,0.536,0.238,0.536,0.537v5.23h5.229c0.297,0,0.537,0.236,0.537,0.535v3.461c0,0.295-0.24,0.533-0.537,0.533h-5.229v5.23  c0,0.297-0.24,0.535-0.536,0.535H1719.136z" /><path
     id="plus_12_"
     fill="#6A6A6A"
     d="M1730.626,833.451c-0.297,0-0.535-0.238-0.535-0.535v-5.23h-5.229  c-0.298,0-0.537-0.237-0.537-0.532v-3.461c0-0.3,0.239-0.535,0.537-0.535h5.229v-5.23c0-0.299,0.238-0.537,0.535-0.537h3.461  c0.296,0,0.536,0.238,0.536,0.537v5.23h5.229c0.3,0,0.537,0.235,0.537,0.535v3.461c0,0.295-0.237,0.532-0.537,0.532h-5.229v5.23  c0,0.297-0.24,0.535-0.536,0.535H1730.626z" /><path
     enable-background="new    "
     d="M39.6,44H4.4C1.974,44,0,42.025,0,39.602V4.4  C0,1.974,1.974,0,4.4,0h35.2C42.025,0,44,1.974,44,4.4v35.2C44,42.025,42.025,44,39.6,44z M4.4,0.978  c-1.887,0-3.422,1.536-3.422,3.422v35.2c0,1.887,1.535,3.422,3.422,3.422h35.2c1.887,0,3.422-1.535,3.422-3.422V4.4  c0-1.887-1.535-3.422-3.422-3.422H4.4z"
     id="path5"
     fill="#151A20"
     opacity="0.8" /><path
     style="fill:#6a6a6a;fill-opacity:1"
     d="M 3.0762712,42.617102 C 2.3814606,42.306968 1.5789556,41.465227 1.3169458,40.771761 1.1817583,40.413957 1.1186441,34.433628 1.1186441,21.981874 1.1186441,6.8872258 1.1632011,3.6127007 1.3753429,3.1168931 1.6857768,2.3913619 2.5140038,1.5868025 3.228239,1.3169458 3.5860293,1.1817632 9.5610527,1.1186441 22,1.1186441 c 12.438947,0 18.41397,0.063119 18.771761,0.1983017 0.714236,0.2698567 1.542463,1.0744161 1.852896,1.7999473 0.381385,0.8913527 0.381385,36.8748619 0,37.7662139 -0.310433,0.72553 -1.13866,1.530091 -1.852896,1.799947 -0.358324,0.135384 -6.332913,0.195986 -18.830508,0.191005 C 7.0621926,42.86813 3.5308948,42.820028 3.0762712,42.617102 l 0,0 z"
     id="path2988"
     inkscape:connector-curvature="0" /></svg>