<?xml version="1.0" encoding="utf-8"?>
<!-- Generator: Adobe Illustrator 16.0.0, SVG Export Plug-In . SVG Version: 6.00 Build 0)  -->
<!DOCTYPE svg PUBLIC "-//W3C//DTD SVG 1.1//EN" "http://www.w3.org/Graphics/SVG/1.1/DTD/svg11.dtd">
<svg version="1.1" id="Layer_1" xmlns="http://www.w3.org/2000/svg" xmlns:xlink="http://www.w3.org/1999/xlink" x="0px" y="0px"
	 width="20px" height="20px" viewBox="0 0 20 20" enable-background="new 0 0 20 20" xml:space="preserve">
<g id="Calque_1">
</g>
<g id="Capa_1">
	<g>
		<path fill="#E87610" d="M12.669,0.322C7.348-1.062,1.839,2.149,0.365,7.494c-1.474,5.344,1.644,10.801,6.967,12.184
			c5.32,1.384,10.83-1.827,12.303-7.172C21.109,7.16,17.991,1.705,12.669,0.322z M17.707,12.004
			c-1.18,4.275-5.586,6.846-9.842,5.738c-4.257-1.107-6.751-5.473-5.572-9.747c1.179-4.276,5.586-6.846,9.844-5.738
			C16.393,3.364,18.887,7.728,17.707,12.004z"/>
		<path fill="#E87610" d="M9.82,15.58l-0.05-0.002c-0.78-0.022-1.329-0.597-1.307-1.365c0.022-0.754,0.585-1.303,1.339-1.303
			l0.045,0.002c0.801,0.023,1.344,0.592,1.322,1.381C11.146,15.051,10.592,15.58,9.82,15.58z M13.1,9.072
			c-0.184,0.26-0.586,0.584-1.095,0.98l-0.56,0.386c-0.307,0.239-0.492,0.462-0.562,0.684c-0.055,0.174-0.082,0.22-0.086,0.573
			l-0.001,0.091H8.66l0.006-0.182c0.026-0.743,0.044-1.179,0.352-1.541c0.483-0.567,1.548-1.253,1.593-1.282
			c0.154-0.115,0.281-0.246,0.377-0.386c0.225-0.309,0.324-0.552,0.324-0.792c0-0.332-0.099-0.639-0.293-0.912
			c-0.188-0.264-0.543-0.397-1.058-0.397c-0.51,0-0.859,0.162-1.068,0.494c-0.215,0.341-0.323,0.7-0.323,1.066v0.091H6.37
			l0.004-0.095c0.057-1.349,0.538-2.32,1.43-2.887C8.365,4.603,9.062,4.42,9.876,4.42c1.065,0,1.965,0.259,2.673,0.769
			c0.717,0.517,1.081,1.292,1.081,2.303C13.63,8.058,13.452,8.589,13.1,9.072z"/>
	</g>
</g>
</svg>
