<?xml version="1.0" encoding="utf-8"?>
<!-- Generator: Adobe Illustrator 16.0.0, SVG Export Plug-In . SVG Version: 6.00 Build 0)  -->
<!DOCTYPE svg PUBLIC "-//W3C//DTD SVG 1.1//EN" "http://www.w3.org/Graphics/SVG/1.1/DTD/svg11.dtd">
<svg version="1.1" id="Calque_1" xmlns="http://www.w3.org/2000/svg" xmlns:xlink="http://www.w3.org/1999/xlink" x="0px" y="0px"
	 width="20px" height="20px" viewBox="0 0 20 20" enable-background="new 0 0 20 20" xml:space="preserve">
<g id="c115_arrows">
	<path fill="#50B44D" d="M19.999,13.945c0-0.633-0.47-1.143-1.051-1.143c-0.578,0-1.052,0.512-1.052,1.143v2.369l-4.244-4.389
		c-0.41-0.424-1.075-0.424-1.485,0s-0.41,1.113,0,1.537l4.224,4.363h-2.281c-0.621,0-1.123,0.488-1.123,1.086
		c0,0.602,0.502,1.088,1.123,1.088h4.768c0.621,0,1.121-0.486,1.123-1.088c-0.002-0.016-0.004-0.027-0.006-0.043
		C19.996,18.848,20,18.826,20,18.805L19.999,13.945L19.999,13.945z"/>
	<path fill="#50B44D" d="M6.347,11.926l-4.242,4.389v-2.369c0-0.633-0.474-1.143-1.053-1.143c-0.581,0-1.051,0.512-1.051,1.143
		L0,18.807c0,0.021,0.006,0.043,0.007,0.062c-0.001,0.016-0.004,0.029-0.006,0.045C0.002,19.516,0.503,20,1.124,20h4.769
		c0.62,0,1.121-0.484,1.121-1.086c0-0.6-0.501-1.086-1.121-1.088H3.611l4.223-4.361c0.409-0.426,0.409-1.113,0-1.537
		C7.424,11.502,6.759,11.502,6.347,11.926z"/>
	<path fill="#50B44D" d="M13.652,8.072l4.244-4.385v2.368c0,0.63,0.475,1.141,1.052,1.143c0.581,0,1.051-0.512,1.051-1.143V1.193
		c0-0.021-0.004-0.043-0.006-0.062c0.002-0.015,0.004-0.03,0.006-0.045C19.997,0.484,19.497,0,18.876,0h-4.769
		c-0.621,0-1.121,0.485-1.121,1.087c0,0.598,0.5,1.086,1.121,1.087h2.281l-4.223,4.363c-0.41,0.423-0.41,1.111,0,1.534
		C12.577,8.498,13.241,8.498,13.652,8.072z"/>
	<path fill="#50B44D" d="M3.611,2.174h2.281c0.62-0.001,1.121-0.489,1.121-1.087C7.013,0.485,6.512,0,5.892,0H1.124
		C0.503,0,0.003,0.485,0.001,1.087c0.001,0.015,0.004,0.03,0.006,0.045C0.006,1.151,0,1.172,0,1.194l0.001,4.862
		c0,0.63,0.47,1.143,1.051,1.143c0.579-0.002,1.053-0.512,1.053-1.143V3.688l4.242,4.384c0.412,0.426,1.077,0.426,1.488,0
		c0.409-0.423,0.409-1.111,0-1.534L3.611,2.174z"/>
</g>
</svg>
