<?xml version="1.0" encoding="utf-8"?>
<!-- Generator: Adobe Illustrator 16.0.0, SVG Export Plug-In . SVG Version: 6.00 Build 0)  -->
<!DOCTYPE svg PUBLIC "-//W3C//DTD SVG 1.1//EN" "http://www.w3.org/Graphics/SVG/1.1/DTD/svg11.dtd">
<svg version="1.1" id="Calque_1" xmlns="http://www.w3.org/2000/svg" xmlns:xlink="http://www.w3.org/1999/xlink" x="0px" y="0px"
	 width="20px" height="20px" viewBox="0 0 20 20" enable-background="new 0 0 20 20" xml:space="preserve">
<g>
	<path fill="#E87610" d="M11.219,14.949c0,0.684-0.546,1.24-1.219,1.24s-1.219-0.556-1.219-1.24V8.75c0-0.684,0.546-1.24,1.219-1.24
		s1.219,0.555,1.219,1.24V14.949z M10,6.291c-0.673,0-1.219-0.555-1.219-1.24c0-0.685,0.546-1.239,1.219-1.239
		s1.219,0.555,1.219,1.24C11.219,5.737,10.673,6.291,10,6.291z"/>
	<path fill="#E87610" d="M18.659,5.001C15.898,0.218,9.783-1.42,5.001,1.341C0.219,4.102-1.42,10.217,1.342,14.999
		c2.76,4.782,8.875,6.42,13.657,3.659C19.781,15.896,21.42,9.783,18.659,5.001z M13.999,16.926
		c-3.825,2.209-8.717,0.898-10.925-2.928C0.865,10.173,2.177,5.281,6.001,3.073C9.827,0.864,14.719,2.175,16.928,6
		C19.135,9.826,17.824,14.717,13.999,16.926z"/>
</g>
</svg>
