<?xml version="1.0" encoding="utf-8"?>
<!-- Generator: Adobe Illustrator 17.0.0, SVG Export Plug-In . SVG Version: 6.00 Build 0)  -->
<!DOCTYPE svg PUBLIC "-//W3C//DTD SVG 1.1//EN" "http://www.w3.org/Graphics/SVG/1.1/DTD/svg11.dtd">
<svg version="1.1" id="Calque_1" xmlns="http://www.w3.org/2000/svg" xmlns:xlink="http://www.w3.org/1999/xlink" x="0px" y="0px"
	 width="20px" height="20px" viewBox="0 0 20 20" enable-background="new 0 0 20 20" xml:space="preserve">
<g>
	<path fill="#FF0070" d="M13.479,7.756l-2.254,2.255l2.293,2.293c0.341,0.341,0.346,0.889,0.01,1.225
		c-0.168,0.168-0.388,0.25-0.61,0.248c-0.222-0.002-0.444-0.088-0.614-0.259l-2.293-2.293l-2.255,2.255
		c-0.168,0.168-0.388,0.25-0.61,0.248c-0.222-0.002-0.444-0.088-0.614-0.259c-0.341-0.341-0.346-0.889-0.01-1.225L8.775,9.99
		L6.483,7.697c-0.341-0.341-0.346-0.889-0.01-1.225c0.335-0.335,0.883-0.33,1.224,0.01L9.99,8.776l2.255-2.255
		c0.335-0.335,0.883-0.33,1.224,0.01C13.81,6.872,13.814,7.42,13.479,7.756z"/>
	<path fill="#FF0070" d="M12.588,0.342C7.255-1.088,1.771,2.079,0.342,7.412c-1.429,5.334,1.735,10.817,7.07,12.245
		c5.333,1.429,10.816-1.736,12.244-7.069C21.086,7.254,17.921,1.771,12.588,0.342z M17.725,12.07
		c-1.143,4.267-5.529,6.799-9.795,5.655c-4.267-1.143-6.799-5.529-5.656-9.795C3.417,3.663,7.803,1.13,12.07,2.273
		C16.336,3.418,18.869,7.803,17.725,12.07z"/>
</g>
</svg>
