<?xml version="1.0" encoding="utf-8"?>
<!-- Generator: Adobe Illustrator 17.0.0, SVG Export Plug-In . SVG Version: 6.00 Build 0)  -->
<!DOCTYPE svg PUBLIC "-//W3C//DTD SVG 1.1//EN" "http://www.w3.org/Graphics/SVG/1.1/DTD/svg11.dtd">
<svg version="1.1" xmlns="http://www.w3.org/2000/svg" xmlns:xlink="http://www.w3.org/1999/xlink" x="0px" y="0px" width="20px"
	 height="20px" viewBox="0 -2.219 20 20" enable-background="new 0 -2.219 20 20" xml:space="preserve">
<g id="Calque_1">
	<g>
		<path fill="#00FF64" d="M12.669-1.897C7.348-3.281,1.839-0.07,0.365,5.275s1.644,10.801,6.967,12.184
			c5.321,1.384,10.83-1.827,12.303-7.172C21.108,4.941,17.991-0.514,12.669-1.897z M17.707,9.785
			c-1.179,4.276-5.586,6.845-9.842,5.738c-4.257-1.107-6.751-5.472-5.572-9.747c1.179-4.276,5.586-6.845,9.843-5.738
			C16.392,1.146,18.887,5.51,17.707,9.785z"/>
		<path fill="#00FF64" d="M14.97,4.53l-0.687-0.688C14.16,3.72,13.994,3.651,13.82,3.651s-0.34,0.069-0.463,0.192L8.614,8.585
			l-1.6-1.599c-0.256-0.256-0.67-0.256-0.926,0L5.401,7.673C5.279,7.796,5.21,7.962,5.21,8.136c0,0.174,0.069,0.34,0.192,0.463
			l2.75,2.75c0.128,0.128,0.295,0.192,0.463,0.192s0.335-0.064,0.463-0.192l5.893-5.893C15.226,5.2,15.226,4.786,14.97,4.53z"/>
	</g>
</g>
<g id="Capa_1">
</g>
</svg>
