<?xml version="1.0" encoding="utf-8"?>
<!-- Generator: Adobe Illustrator 16.0.0, SVG Export Plug-In . SVG Version: 6.00 Build 0)  -->
<!DOCTYPE svg PUBLIC "-//W3C//DTD SVG 1.1//EN" "http://www.w3.org/Graphics/SVG/1.1/DTD/svg11.dtd">
<svg version="1.1" id="Layer_1" xmlns="http://www.w3.org/2000/svg" xmlns:xlink="http://www.w3.org/1999/xlink" x="0px" y="0px"
	 width="20px" height="20px" viewBox="0 0 20 20" enable-background="new 0 0 20 20" xml:space="preserve">
<g id="Calque_1">
	<g>
		<path fill="#50B44D" d="M12.669,0.322C7.348-1.062,1.839,2.149,0.365,7.494c-1.474,5.345,1.644,10.801,6.967,12.184
			c5.32,1.384,10.83-1.827,12.303-7.172C21.107,7.16,17.991,1.705,12.669,0.322z M17.707,12.004
			c-1.18,4.275-5.586,6.845-9.842,5.738c-4.257-1.107-6.751-5.473-5.572-9.747c1.179-4.276,5.586-6.845,9.844-5.738
			C16.393,3.365,18.887,7.729,17.707,12.004z"/>
		<path fill="#50B44D" d="M14.971,6.75l-0.688-0.688C14.16,5.939,13.994,5.87,13.82,5.87s-0.34,0.069-0.463,0.192l-4.744,4.742
			l-1.6-1.599c-0.256-0.256-0.67-0.256-0.926,0L5.401,9.892c-0.122,0.123-0.191,0.289-0.191,0.463c0,0.174,0.069,0.34,0.192,0.463
			l2.75,2.75c0.128,0.127,0.295,0.191,0.463,0.191c0.168,0,0.335-0.064,0.463-0.191l5.893-5.893
			C15.227,7.419,15.227,7.005,14.971,6.75z"/>
	</g>
</g>
<g id="Capa_1">
</g>
</svg>
