<?xml version="1.0" encoding="utf-8"?>
<!-- Generator: Adobe Illustrator 17.0.0, SVG Export Plug-In . SVG Version: 6.00 Build 0)  -->
<!DOCTYPE svg PUBLIC "-//W3C//DTD SVG 1.1//EN" "http://www.w3.org/Graphics/SVG/1.1/DTD/svg11.dtd">
<svg version="1.1" xmlns="http://www.w3.org/2000/svg" xmlns:xlink="http://www.w3.org/1999/xlink" x="0px" y="0px"
	 width="20.012px" height="20.012px" viewBox="0 5.332 20.012 20.012" enable-background="new 0 5.332 20.012 20.012"
	 xml:space="preserve">
<g id="Calque_1">
	<g id="Calque_1_1_">
	</g>
	<g id="Capa_1">
	</g>
</g>
<g id="Layer_1">
	<g>
		<path fill="#00FFFF" d="M14.519,8.759c0,0.691-0.561,1.253-1.253,1.253c-0.691,0-1.253-0.561-1.253-1.253V7.158
			c0-0.691,0.561-1.253,1.253-1.253c0.691,0,1.253,0.561,1.253,1.253V8.759z"/>
		<path fill="#00FFFF" d="M7.469,23.446h-1.97c-0.972,0-1.761-0.788-1.761-1.761v-6.698c0-0.972,0.788-1.761,1.761-1.761h8.912
			c0.674,0,1.252,0.383,1.548,0.938l0.739-0.739l0,0l0.388-0.388c0.138-0.138,0.648-0.589,1.405-0.589
			c0.506,0,0.993,0.209,1.373,0.589l0.142,0.142V8.144c0-0.169-0.066-0.33-0.186-0.448l-2.173-2.173
			c-0.12-0.118-0.28-0.185-0.448-0.185h-0.975v4.237c0,0.972-0.788,1.761-1.761,1.761H5.55c-0.972,0-1.761-0.788-1.761-1.761V5.338
			H1.767c-0.972,0-1.761,0.788-1.761,1.761v16.479c0,0.972,0.788,1.761,1.761,1.761h5.324L7.469,23.446z"/>
	</g>
	<g>
		<path fill="#00FF64" d="M18.988,16.579c0.447-0.447,0.748-0.748,0.82-0.821c0.445-0.445,0-0.888,0-0.888s-0.444-0.445-0.889-0.888
			c-0.445-0.445-0.889,0-0.889,0l-0.82,0.82L18.988,16.579z"/>
		<polygon fill="#00FF64" points="8.904,23.108 8.896,23.115 8.452,25.338 10.674,24.894 10.681,24.885 		"/>
		<path fill="#00FF64" d="M16.32,15.692l-6.526,6.527l1.778,1.777c1.381-1.381,4.436-4.435,6.526-6.526L16.32,15.692z"/>
	</g>
</g>
</svg>
