<?xml version="1.0" encoding="utf-8"?>
<!-- Generator: Adobe Illustrator 17.0.0, SVG Export Plug-In . SVG Version: 6.00 Build 0)  -->
<!DOCTYPE svg PUBLIC "-//W3C//DTD SVG 1.1//EN" "http://www.w3.org/Graphics/SVG/1.1/DTD/svg11.dtd">
<svg version="1.1" xmlns="http://www.w3.org/2000/svg" xmlns:xlink="http://www.w3.org/1999/xlink" x="0px" y="0px" width="20px"
	 height="20px" viewBox="0 -2.219 20 20" enable-background="new 0 -2.219 20 20" xml:space="preserve">
<g id="Calque_1">
</g>
<g id="Capa_1">
	<g>
		<path fill="#FFFF00" d="M12.669-1.946C7.348-3.33,1.839-0.119,0.365,5.226S2.009,16.027,7.332,17.41
			c5.321,1.384,10.83-1.827,12.303-7.172C21.109,4.892,17.991-0.563,12.669-1.946z M17.707,9.736
			c-1.179,4.276-5.586,6.846-9.842,5.738c-4.257-1.107-6.751-5.472-5.572-9.747c1.179-4.276,5.586-6.846,9.843-5.738
			C16.392,1.096,18.887,5.46,17.707,9.736z"/>
		<path fill="#FFFF00" d="M9.82,13.312L9.77,13.311c-0.78-0.023-1.329-0.597-1.307-1.365c0.022-0.755,0.585-1.303,1.339-1.303
			l0.045,0.001c0.801,0.024,1.345,0.592,1.322,1.382C11.146,12.783,10.592,13.312,9.82,13.312z M13.099,6.804
			c-0.183,0.26-0.586,0.584-1.094,0.98L11.445,8.17c-0.307,0.239-0.492,0.463-0.562,0.684c-0.055,0.174-0.082,0.22-0.086,0.574
			l-0.001,0.09H8.66l0.006-0.181c0.026-0.743,0.044-1.18,0.352-1.541c0.483-0.567,1.549-1.253,1.594-1.282
			c0.153-0.115,0.281-0.246,0.377-0.386c0.224-0.309,0.323-0.552,0.323-0.792c0-0.332-0.098-0.639-0.293-0.912
			c-0.187-0.264-0.543-0.397-1.057-0.397c-0.51,0-0.859,0.162-1.068,0.494c-0.215,0.341-0.323,0.7-0.323,1.066v0.091H6.37
			l0.004-0.095c0.057-1.349,0.538-2.32,1.43-2.887c0.561-0.361,1.258-0.544,2.072-0.544c1.065,0,1.965,0.259,2.673,0.769
			c0.717,0.517,1.081,1.292,1.081,2.303C13.63,5.79,13.452,6.321,13.099,6.804z"/>
	</g>
</g>
</svg>
