<?xml version="1.0" encoding="utf-8"?>
<!-- Generator: Adobe Illustrator 14.0.0, SVG Export Plug-In . SVG Version: 6.00 Build 43363)  -->
<!DOCTYPE svg PUBLIC "-//W3C//DTD SVG 1.1//EN" "http://www.w3.org/Graphics/SVG/1.1/DTD/svg11.dtd">
<svg version="1.1" id="Layer_1" xmlns="http://www.w3.org/2000/svg" xmlns:xlink="http://www.w3.org/1999/xlink" x="0px" y="0px"
	 width="36px" height="36px" viewBox="0 0 36 36" enable-background="new 0 0 36 36" xml:space="preserve">
<path id="plus_12_" fill="#6A6A6A" d="M1730.626,833.451c-0.297,0-0.534-0.238-0.534-0.535v-5.23h-5.229
	c-0.297,0-0.537-0.24-0.537-0.535v-3.461c0-0.297,0.24-0.535,0.537-0.535h5.229v-5.229c0-0.299,0.237-0.537,0.534-0.537h3.462
	c0.296,0,0.536,0.238,0.536,0.537v5.229h5.229c0.297,0,0.537,0.238,0.537,0.535v3.461c0,0.295-0.24,0.535-0.537,0.535h-5.229v5.23
	c0,0.297-0.24,0.535-0.536,0.535H1730.626z"/>
<path fill="#50B44D" d="M32.09,2.86c-0.117-0.048-0.241-0.072-0.361-0.072c-0.248,0-0.49,0.096-0.672,0.278l-3.532,3.53
	C24.751,4.145,21.235,2.79,17.51,2.79c-7.962,0-14.608,6.216-15.133,14.155c-0.018,0.261,0.074,0.518,0.254,0.711
	c0.18,0.19,0.43,0.3,0.692,0.3h1.899c0.496,0,0.908-0.381,0.946-0.877C6.616,11.191,11.598,6.582,17.51,6.582
	c2.715,0,5.28,0.955,7.336,2.695l-3.268,3.268c-0.272,0.272-0.351,0.679-0.206,1.033c0.146,0.354,0.493,0.585,0.878,0.585h9.479
	c0.521,0,0.947-0.424,0.947-0.948V3.736C32.676,3.353,32.443,3.006,32.09,2.86"/>
<path fill="#50B44D" d="M31.678,17.954h-1.896c-0.497,0-0.908,0.381-0.945,0.875c-0.448,5.888-5.425,10.501-11.329,10.501
	c-2.695,0-5.298-0.959-7.342-2.694l3.274-3.272c0.269-0.272,0.351-0.68,0.204-1.033c-0.145-0.354-0.49-0.585-0.875-0.585H3.29
	c-0.523,0-0.948,0.424-0.948,0.948v9.479c0,0.383,0.231,0.729,0.586,0.875c0.118,0.048,0.241,0.072,0.362,0.072
	c0.246,0,0.49-0.096,0.671-0.277l3.522-3.523c0.018,0.015,0.023,0.037,0.04,0.052c2.758,2.418,6.306,3.751,9.985,3.751
	c7.95,0,14.591-6.221,15.116-14.156c0.017-0.262-0.073-0.521-0.255-0.711C32.191,18.063,31.943,17.954,31.678,17.954"/>
</svg>
