<?xml version="1.0" encoding="utf-8"?>
<!-- Generator: Adobe Illustrator 16.0.0, SVG Export Plug-In . SVG Version: 6.00 Build 0)  -->
<!DOCTYPE svg PUBLIC "-//W3C//DTD SVG 1.1//EN" "http://www.w3.org/Graphics/SVG/1.1/DTD/svg11.dtd">
<svg version="1.1" id="Calque_1" xmlns="http://www.w3.org/2000/svg" xmlns:xlink="http://www.w3.org/1999/xlink" x="0px" y="0px"
	 width="20.012px" height="20.012px" viewBox="0 0 20.012 20.012" enable-background="new 0 0 20.012 20.012" xml:space="preserve">
<g id="Calque_1_1_">
</g>
<g id="Capa_1">
</g>
<g>
	<path fill="#A00000" d="M18.665,5.008c-2.761-4.783-8.876-6.421-13.659-3.66s-6.421,8.876-3.659,13.659
		c2.76,4.781,8.875,6.42,13.658,3.658C19.787,15.903,21.427,9.79,18.665,5.008z M14.005,16.932
		c-3.826,2.209-8.717,0.898-10.925-2.928C0.871,10.178,2.182,5.288,6.008,3.08c3.825-2.209,8.717-0.898,10.926,2.928
		C19.142,9.833,17.831,14.723,14.005,16.932z"/>
	<path fill="#A00000" d="M14.617,9.053c0-0.536-0.43-0.972-0.956-0.972h-0.777L12.883,8.08l-4.96,0.001l1.467-1.492
		c0.399-0.407,0.418-1.042,0.045-1.421c-0.374-0.38-0.997-0.36-1.396,0.047L4.972,8.333c-0.398,0.405-0.419,1.04-0.047,1.422
		c0.011,0.009,0.02,0.015,0.032,0.023c0.011,0.015,0.021,0.031,0.035,0.044l3.022,3.075l0,0c0.395,0.4,1.013,0.418,1.388,0.037
		c0.37-0.379,0.358-1.012-0.034-1.412l-1.475-1.5h0.943v0.003h3.868v3.747c0,0.537,0.427,0.973,0.955,0.971
		c0.527,0,0.956-0.436,0.956-0.973L14.617,9.053L14.617,9.053z"/>
</g>
</svg>
