<?xml version="1.0" encoding="utf-8"?>
<!-- Generator: Adobe Illustrator 17.0.0, SVG Export Plug-In . SVG Version: 6.00 Build 0)  -->
<!DOCTYPE svg PUBLIC "-//W3C//DTD SVG 1.1//EN" "http://www.w3.org/Graphics/SVG/1.1/DTD/svg11.dtd">
<svg version="1.1" id="Calque_1" xmlns="http://www.w3.org/2000/svg" xmlns:xlink="http://www.w3.org/1999/xlink" x="0px" y="0px"
	 width="20px" height="20px" viewBox="0 0 20 20" enable-background="new 0 0 20 20" xml:space="preserve">
<g>
	<path fill="#FFFF00" d="M11.219,14.949c0,0.684-0.546,1.24-1.219,1.24s-1.219-0.555-1.219-1.24V8.75c0-0.684,0.546-1.24,1.219-1.24
		s1.219,0.555,1.219,1.24V14.949z M10,6.291c-0.673,0-1.219-0.555-1.219-1.24S9.327,3.812,10,3.812s1.219,0.555,1.219,1.24
		S10.673,6.291,10,6.291z"/>
	<path fill="#FFFF00" d="M18.659,5.001c-2.76-4.783-8.876-6.421-13.658-3.66s-6.421,8.876-3.659,13.658
		c2.76,4.782,8.875,6.42,13.657,3.659S21.42,9.783,18.659,5.001z M13.999,16.926c-3.825,2.209-8.717,0.898-10.925-2.928
		C0.865,10.173,2.177,5.281,6.001,3.073C9.827,0.864,14.719,2.175,16.928,6C19.135,9.826,17.824,14.717,13.999,16.926z"/>
</g>
</svg>
