<?xml version="1.0" encoding="utf-8"?>
<!-- Generator: Adobe Illustrator 17.0.0, SVG Export Plug-In . SVG Version: 6.00 Build 0)  -->
<!DOCTYPE svg PUBLIC "-//W3C//DTD SVG 1.1//EN" "http://www.w3.org/Graphics/SVG/1.1/DTD/svg11.dtd">
<svg version="1.1" id="Calque_1" xmlns="http://www.w3.org/2000/svg" xmlns:xlink="http://www.w3.org/1999/xlink" x="0px" y="0px"
	 width="20.012px" height="20.012px" viewBox="0 5.332 20.012 20.012" enable-background="new 0 5.332 20.012 20.012"
	 xml:space="preserve">
<g id="Calque_1_1_">
</g>
<g id="Capa_1">
</g>
<g>
	<path fill="#00FFFF" d="M19.814,7.696L17.64,5.523c-0.12-0.118-0.28-0.185-0.448-0.185h-0.975v4.237
		c0,0.972-0.788,1.761-1.761,1.761H5.544c-0.972,0-1.761-0.788-1.761-1.761V5.338H1.761C0.788,5.338,0,6.126,0,7.098v16.479
		c0,0.972,0.788,1.761,1.761,1.761h16.479c0.972,0,1.761-0.788,1.761-1.761v-0.514V8.145C20,7.976,19.934,7.815,19.814,7.696z
		 M16.166,21.685c0,0.972-0.788,1.761-1.761,1.761H5.494c-0.972,0-1.761-0.788-1.761-1.761v-6.698c0-0.972,0.788-1.761,1.761-1.761
		h8.912c0.972,0,1.761,0.788,1.761,1.761V21.685z"/>
	<path fill="#00FFFF" d="M14.513,8.759c0,0.691-0.561,1.253-1.253,1.253c-0.691,0-1.253-0.561-1.253-1.253V7.158
		c0-0.691,0.561-1.253,1.253-1.253c0.691,0,1.253,0.561,1.253,1.253V8.759z"/>
	<g>
		<path fill="#00FFFF" d="M13.822,15.891c0.414,0,0.609,0.336,0.609,0.75s-0.195,0.75-0.609,0.75H6.218
			c-0.414,0-0.75-0.336-0.75-0.75s0.336-0.75,0.75-0.75H13.822z"/>
		<path fill="#00FFFF" d="M13.822,19.282c0.414,0,0.609,0.336,0.609,0.75s-0.195,0.75-0.609,0.75H6.218
			c-0.414,0-0.75-0.336-0.75-0.75s0.336-0.75,0.75-0.75H13.822z"/>
	</g>
</g>
</svg>
