<?xml version="1.0" encoding="utf-8"?>
<!-- Generator: Adobe Illustrator 16.0.0, SVG Export Plug-In . SVG Version: 6.00 Build 0)  -->
<!DOCTYPE svg PUBLIC "-//W3C//DTD SVG 1.1//EN" "http://www.w3.org/Graphics/SVG/1.1/DTD/svg11.dtd">
<svg version="1.1" id="Calque_1" xmlns="http://www.w3.org/2000/svg" xmlns:xlink="http://www.w3.org/1999/xlink" x="0px" y="0px"
	 width="20px" height="20px" viewBox="0 0 20 20" enable-background="new 0 0 20 20" xml:space="preserve">
<g>
	<path fill="#50B44D" d="M14.047,10.873h-3.188v3.243c0,0.481-0.384,0.873-0.859,0.873c-0.237,0-0.452-0.099-0.607-0.257
		c-0.155-0.157-0.251-0.375-0.251-0.616v-3.243H5.953c-0.237,0-0.452-0.098-0.607-0.256C5.191,10.46,5.095,10.241,5.095,10
		c0-0.482,0.384-0.873,0.859-0.873h3.188V5.884c0-0.482,0.384-0.873,0.859-0.873c0.474,0,0.858,0.391,0.858,0.873v3.243h3.188
		c0.474,0,0.858,0.391,0.858,0.873C14.904,10.482,14.521,10.873,14.047,10.873z"/>
	<path fill="#50B44D" d="M18.659,5.001C15.898,0.218,9.783-1.42,5.001,1.341C0.219,4.102-1.42,10.217,1.342,14.999
		c2.76,4.782,8.875,6.42,13.657,3.659C19.781,15.896,21.42,9.782,18.659,5.001z M13.999,16.926
		c-3.825,2.209-8.717,0.898-10.925-2.928C0.865,10.173,2.176,5.281,6.001,3.073C9.826,0.864,14.718,2.175,16.927,6
		C19.135,9.826,17.825,14.717,13.999,16.926z"/>
</g>
</svg>
