<?xml version="1.0" encoding="utf-8"?>
<!-- Generator: Adobe Illustrator 17.0.0, SVG Export Plug-In . SVG Version: 6.00 Build 0)  -->
<!DOCTYPE svg PUBLIC "-//W3C//DTD SVG 1.1//EN" "http://www.w3.org/Graphics/SVG/1.1/DTD/svg11.dtd">
<svg version="1.1" id="Calque_1" xmlns="http://www.w3.org/2000/svg" xmlns:xlink="http://www.w3.org/1999/xlink" x="0px" y="0px"
	 width="22.219px" height="22.219px" viewBox="0 -2.219 22.219 22.219" enable-background="new 0 -2.219 22.219 22.219"
	 xml:space="preserve">
<path fill="#FFFF00" d="M18.659,2.706c-2.76-4.702-8.876-6.313-13.658-3.599C0.219,1.822-1.42,7.834,1.342,12.537
	c0.55,0.937,1.238,1.745,2.017,2.427l-0.574,3.684c-0.221,1.418,0.455,1.778,1.508,0.805l2.681-2.474
	c2.585,0.807,5.491,0.594,8.025-0.844C19.78,13.42,21.42,7.408,18.659,2.706z M11.219,12.487c0,0.673-0.546,1.219-1.219,1.219
	c-0.673,0-1.219-0.546-1.219-1.219V6.392c0-0.673,0.546-1.219,1.219-1.219c0.673,0,1.219,0.546,1.219,1.219V12.487z M10.001,3.974
	c-0.673,0-1.219-0.546-1.219-1.219c0-0.673,0.546-1.219,1.219-1.219c0.673,0,1.219,0.546,1.219,1.219
	C11.219,3.428,10.673,3.974,10.001,3.974z"/>
</svg>
