<?xml version="1.0" encoding="utf-8"?>
<!-- Generator: Adobe Illustrator 16.0.0, SVG Export Plug-In . SVG Version: 6.00 Build 0)  -->
<!DOCTYPE svg PUBLIC "-//W3C//DTD SVG 1.1//EN" "http://www.w3.org/Graphics/SVG/1.1/DTD/svg11.dtd">
<svg version="1.1" id="Layer_1" xmlns="http://www.w3.org/2000/svg" xmlns:xlink="http://www.w3.org/1999/xlink" x="0px" y="0px"
	 width="20.012px" height="20.012px" viewBox="0 0 20.012 20.012" enable-background="new 0 0 20.012 20.012" xml:space="preserve">
<g id="Calque_1">
	<g id="Calque_1_1_">
	</g>
	<g id="Capa_1">
	</g>
</g>
<g>
	<path fill="#454447" d="M14.519,3.427c0,0.691-0.561,1.253-1.253,1.253c-0.69,0-1.253-0.561-1.253-1.253V1.826
		c0-0.691,0.562-1.253,1.253-1.253s1.253,0.561,1.253,1.253V3.427z"/>
	<path fill="#454447" d="M7.469,18.114h-1.97c-0.973,0-1.762-0.787-1.762-1.762V9.654c0-0.972,0.788-1.761,1.762-1.761h8.912
		c0.674,0,1.252,0.383,1.548,0.938l0.739-0.739l0,0l0.388-0.388c0.138-0.139,0.647-0.589,1.405-0.589
		c0.506,0,0.992,0.209,1.372,0.589l0.143,0.142V2.811c0-0.169-0.066-0.33-0.187-0.448L17.647,0.19
		c-0.12-0.117-0.279-0.185-0.447-0.185h-0.976v4.237c0,0.972-0.788,1.761-1.761,1.761H5.55c-0.972,0-1.761-0.788-1.761-1.761V0.006
		H1.767c-0.972,0-1.761,0.788-1.761,1.761v16.48c0,0.971,0.788,1.76,1.761,1.76h5.324L7.469,18.114z"/>
</g>
<g>
	<path fill="#50B44D" d="M18.988,11.246c0.447-0.447,0.748-0.748,0.82-0.821c0.445-0.445,0-0.888,0-0.888s-0.444-0.445-0.889-0.889
		c-0.445-0.444-0.89,0-0.89,0l-0.819,0.82L18.988,11.246z"/>
	<polygon fill="#50B44D" points="8.904,17.776 8.896,17.783 8.452,20.006 10.674,19.561 10.681,19.553 	"/>
	<path fill="#50B44D" d="M16.32,10.359l-6.525,6.528l1.777,1.777c1.382-1.381,4.437-4.436,6.526-6.527L16.32,10.359z"/>
</g>
</svg>
