<?xml version="1.0" encoding="utf-8"?>
<!-- Generator: Adobe Illustrator 16.0.0, SVG Export Plug-In . SVG Version: 6.00 Build 0)  -->
<!DOCTYPE svg PUBLIC "-//W3C//DTD SVG 1.1//EN" "http://www.w3.org/Graphics/SVG/1.1/DTD/svg11.dtd">
<svg version="1.1" id="Calque_1" xmlns="http://www.w3.org/2000/svg" xmlns:xlink="http://www.w3.org/1999/xlink" x="0px" y="0px"
	 width="20.012px" height="20.012px" viewBox="0 0 20.012 20.012" enable-background="new 0 0 20.012 20.012" xml:space="preserve">
<g id="Calque_1_1_">
</g>
<g id="Capa_1">
</g>
<g>
	<path fill="#454447" d="M19.819,2.364l-2.174-2.173c-0.119-0.117-0.279-0.185-0.447-0.185h-0.975v4.237
		c0,0.972-0.789,1.761-1.762,1.761H5.55c-0.973,0-1.761-0.788-1.761-1.761V0.006H1.766c-0.973,0-1.761,0.788-1.761,1.76v16.479
		c0,0.972,0.788,1.761,1.761,1.761h16.48c0.971,0,1.76-0.788,1.76-1.761v-0.515V2.813C20.006,2.644,19.94,2.483,19.819,2.364z
		 M16.172,16.353c0,0.973-0.789,1.761-1.762,1.761H5.5c-0.973,0-1.762-0.787-1.762-1.761V9.655c0-0.972,0.788-1.761,1.762-1.761
		h8.911c0.973,0,1.762,0.788,1.762,1.761V16.353L16.172,16.353z"/>
	<path fill="#454447" d="M14.518,3.427c0,0.691-0.561,1.253-1.252,1.253s-1.254-0.561-1.254-1.253V1.826
		c0-0.691,0.561-1.253,1.254-1.253c0.691,0,1.252,0.561,1.252,1.253V3.427z"/>
	<g>
		<path fill="#454447" d="M13.826,10.559c0.414,0,0.609,0.336,0.609,0.75s-0.195,0.75-0.609,0.75H6.223
			c-0.414,0-0.75-0.336-0.75-0.75s0.336-0.75,0.75-0.75H13.826z"/>
		<path fill="#454447" d="M13.826,13.95c0.414,0,0.609,0.336,0.609,0.75c0,0.413-0.195,0.75-0.609,0.75H6.223
			c-0.414,0-0.75-0.337-0.75-0.75c0-0.414,0.336-0.75,0.75-0.75H13.826z"/>
	</g>
</g>
</svg>
