<?xml version="1.0" encoding="utf-8"?>
<!-- Generator: Adobe Illustrator 17.0.0, SVG Export Plug-In . SVG Version: 6.00 Build 0)  -->
<!DOCTYPE svg PUBLIC "-//W3C//DTD SVG 1.1//EN" "http://www.w3.org/Graphics/SVG/1.1/DTD/svg11.dtd">
<svg version="1.1" id="Calque_1" xmlns="http://www.w3.org/2000/svg" xmlns:xlink="http://www.w3.org/1999/xlink" x="0px" y="0px"
	 width="20px" height="20px" viewBox="0 0 20 20" enable-background="new 0 0 20 20" xml:space="preserve">
<path fill="#00FFFF" d="M14.376,0H6.51C6.343,0,6.186,0.066,6.067,0.183L0.184,6.066C0.065,6.183,0,6.342,0,6.509v12.866
	C0,19.72,0.28,20,0.625,20h10.12c-0.025-0.114-0.039-0.232-0.039-0.354v-2.128H8.577c-0.922,0-1.672-0.749-1.672-1.67v-2.281
	c0-0.922,0.75-1.672,1.672-1.672h2.128V9.767c0-0.921,0.749-1.671,1.67-1.671h2.281c0.118,0,0.233,0.013,0.344,0.036V0.624
	C15.001,0.279,14.722,0,14.376,0z M5.937,6.25H1.874l0,0l4.375-4.373L6.25,5.939C6.25,6.11,6.109,6.25,5.937,6.25z"/>
<path id="plus_1_" fill="#00FF64" d="M12.375,20c-0.196,0-0.352-0.158-0.352-0.354V16.2H8.577c-0.196,0-0.354-0.158-0.354-0.352
	v-2.281c0-0.196,0.158-0.353,0.354-0.353h3.446V9.767c0-0.197,0.156-0.353,0.352-0.353h2.281c0.196,0,0.354,0.156,0.354,0.353v3.446
	h3.446c0.196,0,0.354,0.157,0.354,0.353v2.281c0,0.194-0.158,0.352-0.354,0.352H15.01v3.446c0,0.196-0.158,0.354-0.354,0.354
	L12.375,20L12.375,20z"/>
</svg>
