<?xml version="1.0" encoding="utf-8"?>
<!-- Generator: Adobe Illustrator 16.0.0, SVG Export Plug-In . SVG Version: 6.00 Build 0)  -->
<!DOCTYPE svg PUBLIC "-//W3C//DTD SVG 1.1//EN" "http://www.w3.org/Graphics/SVG/1.1/DTD/svg11.dtd">
<svg version="1.1" id="Calque_1" xmlns="http://www.w3.org/2000/svg" xmlns:xlink="http://www.w3.org/1999/xlink" x="0px" y="0px"
	 width="20.012px" height="20.012px" viewBox="0 0 20.012 20.012" enable-background="new 0 0 20.012 20.012" xml:space="preserve">
<g id="Calque_1_1_">
</g>
<g id="Capa_1">
</g>
<g>
	<g>
		<path fill="#A00000" d="M11.326,20.006H2.566c-1.252,0-2.232-1.163-2.232-2.648V2.655c0-1.485,0.98-2.648,2.232-2.648h8.761
			c0.547,0,0.989,0.443,0.989,0.99s-0.443,0.99-0.989,0.99H2.566C2.504,2.009,2.313,2.252,2.313,2.655V17.36
			c0,0.401,0.191,0.644,0.265,0.669l8.749-0.001c0.547,0,0.989,0.442,0.989,0.989C12.316,19.563,11.873,20.006,11.326,20.006z"/>
	</g>
	<g id="c115_arrows_3_">
		<path fill="#A00000" d="M13.691,6.163c-0.399-0.4-1.029-0.417-1.411-0.036c-0.377,0.378-0.363,1.011,0.036,1.411l1.498,1.498
			l-5.55-0.001c-0.537,0-0.971,0.434-0.971,0.971s0.436,0.972,0.972,0.972l5.521-0.001l-1.491,1.491
			c-0.405,0.407-0.425,1.042-0.046,1.421c0.38,0.38,1.014,0.36,1.42-0.047l3.117-3.117c0.405-0.405,0.426-1.039,0.047-1.421
			C16.82,9.295,16.811,9.289,16.8,9.281c-0.012-0.015-0.023-0.031-0.036-0.044L13.691,6.163L13.691,6.163z"/>
	</g>
</g>
</svg>
