<?xml version="1.0" encoding="UTF-8" standalone="no"?>
<!-- Generator: Adobe Illustrator 17.0.0, SVG Export Plug-In . SVG Version: 6.00 Build 0)  -->

<svg
   xmlns:dc="http://purl.org/dc/elements/1.1/"
   xmlns:cc="http://creativecommons.org/ns#"
   xmlns:rdf="http://www.w3.org/1999/02/22-rdf-syntax-ns#"
   xmlns:svg="http://www.w3.org/2000/svg"
   xmlns="http://www.w3.org/2000/svg"
   xmlns:sodipodi="http://sodipodi.sourceforge.net/DTD/sodipodi-0.dtd"
   xmlns:inkscape="http://www.inkscape.org/namespaces/inkscape"
   version="1.1"
   id="Layer_1"
   x="0px"
   y="0px"
   width="18.301264"
   height="18"
   viewBox="0 -0.022 18.301264 18"
   enable-background="new 0 -0.022 25.386 24.969"
   xml:space="preserve"
   inkscape:version="0.48.4 r9939"
   sodipodi:docname="longomatch-event.svg"><metadata
     id="metadata19"><rdf:RDF><cc:Work
         rdf:about=""><dc:format>image/svg+xml</dc:format><dc:type
           rdf:resource="http://purl.org/dc/dcmitype/StillImage" /></cc:Work></rdf:RDF></metadata><defs
     id="defs17" /><sodipodi:namedview
     pagecolor="#ffffff"
     bordercolor="#666666"
     borderopacity="1"
     objecttolerance="10"
     gridtolerance="10"
     guidetolerance="10"
     inkscape:pageopacity="0"
     inkscape:pageshadow="2"
     inkscape:window-width="733"
     inkscape:window-height="480"
     id="namedview15"
     showgrid="false"
     fit-margin-top="0"
     fit-margin-left="0"
     fit-margin-right="0"
     fit-margin-bottom="0"
     inkscape:zoom="9.4517202"
     inkscape:cx="9.1497921"
     inkscape:cy="8.9995472"
     inkscape:window-x="0"
     inkscape:window-y="27"
     inkscape:window-maximized="0"
     inkscape:current-layer="Layer_1" /><g
     id="g3"
     transform="matrix(0.72088098,0,0,0.72088098,-1.157436e-4,-0.00565281)"><path
       d="m 22.443,13.34 -1.545,2 -2,-1.544 c -0.551,-0.426 -1.344,-0.324 -1.769,0.228 -0.425,0.549 -0.323,1.342 0.228,1.768 l 2,1.545 -1.545,2.001 c -0.426,0.55 -0.324,1.342 0.228,1.769 0.549,0.426 1.342,0.324 1.769,-0.227 l 1.545,-2.001 2.002,1.545 c 0.551,0.426 1.342,0.324 1.768,-0.227 0.426,-0.552 0.325,-1.344 -0.227,-1.769 l -2.002,-1.545 1.545,-2 c 0.426,-0.552 0.325,-1.344 -0.228,-1.769 -0.552,-0.427 -1.344,-0.326 -1.769,0.226 z"
       id="path5"
       inkscape:connector-curvature="0"
       style="fill:#252627" /><path
       d="M 16.845,3.263 14.337,3.585 14.015,1.077 c -0.089,-0.69 -0.72,-1.179 -1.41,-1.089 -0.691,0.089 -1.179,0.721 -1.09,1.411 L 11.837,3.906 9.329,4.229 C 8.64,4.318 8.151,4.949 8.24,5.64 8.328,6.33 8.959,6.819 9.65,6.73 l 2.507,-0.323 0.323,2.508 c 0.088,0.69 0.719,1.179 1.41,1.089 0.69,-0.089 1.179,-0.721 1.089,-1.41 l -0.32,-2.507 2.508,-0.322 c 0.69,-0.089 1.179,-0.721 1.089,-1.41 -0.089,-0.693 -0.72,-1.181 -1.411,-1.092 z"
       id="path7"
       inkscape:connector-curvature="0"
       style="fill:#252627" /><path
       d="M 5.578,8.638 4.033,10.641 2.031,9.096 C 1.48,8.671 0.687,8.772 0.263,9.322 -0.163,9.873 -0.06,10.666 0.491,11.091 l 2,1.546 -1.545,2 c -0.425,0.55 -0.323,1.344 0.228,1.769 0.551,0.426 1.343,0.323 1.769,-0.227 l 1.545,-2.001 2.003,1.545 c 0.55,0.424 1.342,0.323 1.767,-0.227 0.426,-0.551 0.323,-1.344 -0.227,-1.769 L 6.03,12.184 7.575,10.181 C 8,9.63 7.898,8.838 7.348,8.412 6.795,7.986 6.002,8.088 5.578,8.638 z"
       id="path9"
       inkscape:connector-curvature="0"
       style="fill:#252627" /><g
       id="g11"><path
         d="m 24.626,7.727 0,0 L 23.628,6.956 20.962,4.897 C 20.411,4.472 19.618,4.573 19.193,5.125 18.768,5.676 18.87,6.467 19.42,6.893 l 1.585,1.223 c -1.528,0.359 -3.931,1.129 -6.49,2.764 -2.052,1.31 -3.923,4.235 -4.748,5.649 -0.625,-0.222 -1.303,-0.323 -2.006,-0.233 -2.379,0.306 -4.06,2.483 -3.754,4.861 0.306,2.38 2.483,4.059 4.861,3.754 2.378,-0.306 4.06,-2.482 3.754,-4.861 -0.117,-0.917 -0.518,-1.726 -1.097,-2.364 0.834,-1.447 2.532,-4.021 4.122,-5.035 2.083,-1.33 4.067,-2.024 5.425,-2.381 l -1.042,1.349 c -0.425,0.551 -0.324,1.343 0.228,1.768 0.551,0.425 1.343,0.324 1.769,-0.227 l 2.058,-2.666 0.761,-0.985 C 25.05,9.252 25.156,8.918 25.112,8.567 25.065,8.218 24.883,7.924 24.626,7.727 z M 8.542,22.42 c -1.002,0.13 -1.92,-0.579 -2.05,-1.583 -0.129,-1.004 0.581,-1.921 1.583,-2.05 1.004,-0.129 1.922,0.579 2.05,1.583 0.129,1.002 -0.579,1.92 -1.583,2.05 z"
         id="path13"
         inkscape:connector-curvature="0"
         style="fill:#252627" /></g></g></svg>