<?xml version="1.0" encoding="UTF-8" standalone="no"?>
<!-- Generator: Adobe Illustrator 17.0.0, SVG Export Plug-In . SVG Version: 6.00 Build 0)  -->

<svg
   xmlns:dc="http://purl.org/dc/elements/1.1/"
   xmlns:cc="http://creativecommons.org/ns#"
   xmlns:rdf="http://www.w3.org/1999/02/22-rdf-syntax-ns#"
   xmlns:svg="http://www.w3.org/2000/svg"
   xmlns="http://www.w3.org/2000/svg"
   xmlns:sodipodi="http://sodipodi.sourceforge.net/DTD/sodipodi-0.dtd"
   xmlns:inkscape="http://www.inkscape.org/namespaces/inkscape"
   version="1.1"
   x="0px"
   y="0px"
   width="26"
   height="16"
   viewBox="0 0 26.000001 16"
   enable-background="new 0 0 30.563 17.999"
   xml:space="preserve"
   id="svg2"
   inkscape:version="0.48.4 r9939"
   sodipodi:docname="longomatch-tag.svg"><metadata
     id="metadata12"><rdf:RDF><cc:Work
         rdf:about=""><dc:format>image/svg+xml</dc:format><dc:type
           rdf:resource="http://purl.org/dc/dcmitype/StillImage" /></cc:Work></rdf:RDF></metadata><defs
     id="defs10" /><sodipodi:namedview
     pagecolor="#ffffff"
     bordercolor="#666666"
     borderopacity="1"
     objecttolerance="10"
     gridtolerance="10"
     guidetolerance="10"
     inkscape:pageopacity="0"
     inkscape:pageshadow="2"
     inkscape:window-width="733"
     inkscape:window-height="480"
     id="namedview8"
     showgrid="false"
     fit-margin-top="0"
     fit-margin-left="0"
     fit-margin-right="0"
     fit-margin-bottom="0"
     inkscape:zoom="13.111839"
     inkscape:cx="19.782224"
     inkscape:cy="7.9994995"
     inkscape:window-x="258"
     inkscape:window-y="85"
     inkscape:window-maximized="0"
     inkscape:current-layer="svg2" /><g
     id="Layer_1"
     transform="translate(-1.600632,-0.99899972)" /><g
     id="Calque_1"
     transform="scale(0.88898762,0.88898762)"><path
       d="M 28.349,10.096 C 29,9.463 29,8.432 28.347,7.797 L 20.656,0.33 C 20.42,0.1 20.171,0.01 19.704,0.01 L 1.535,0 C 0.688,-0.001 0.001,0.667 0,1.493 l 0.102,15.009 c 0.002,0.826 0.691,1.495 1.538,1.496 l 18.075,-0.045 c 0.467,0.001 0.75,-0.192 0.957,-0.393 l 7.677,-7.464 0,0 z m -8.863,0.582 c -0.978,-0.952 -0.978,-2.499 -0.001,-3.45 0.978,-0.952 2.57,-0.952 3.548,0 0.981,0.954 0.981,2.501 0.002,3.453 -0.977,0.951 -2.569,0.951 -3.549,-0.003 z"
       id="path6"
       inkscape:connector-curvature="0"
       style="fill:#252627" /></g></svg>