<?xml version="1.0" encoding="UTF-8" standalone="no"?>
<!-- Generator: Adobe Illustrator 17.0.0, SVG Export Plug-In . SVG Version: 6.00 Build 0)  -->

<svg
   xmlns:dc="http://purl.org/dc/elements/1.1/"
   xmlns:cc="http://creativecommons.org/ns#"
   xmlns:rdf="http://www.w3.org/1999/02/22-rdf-syntax-ns#"
   xmlns:svg="http://www.w3.org/2000/svg"
   xmlns="http://www.w3.org/2000/svg"
   xmlns:sodipodi="http://sodipodi.sourceforge.net/DTD/sodipodi-0.dtd"
   xmlns:inkscape="http://www.inkscape.org/namespaces/inkscape"
   version="1.1"
   x="0px"
   y="0px"
   width="26.943905"
   height="16"
   viewBox="0 0 26.943905 16"
   enable-background="new 0 0 30.289 18"
   xml:space="preserve"
   id="svg2"
   inkscape:version="0.48.4 r9939"
   sodipodi:docname="longomatch-score.svg"><metadata
     id="metadata28"><rdf:RDF><cc:Work
         rdf:about=""><dc:format>image/svg+xml</dc:format><dc:type
           rdf:resource="http://purl.org/dc/dcmitype/StillImage" /></cc:Work></rdf:RDF></metadata><defs
     id="defs26" /><sodipodi:namedview
     pagecolor="#ffffff"
     bordercolor="#666666"
     borderopacity="1"
     objecttolerance="10"
     gridtolerance="10"
     guidetolerance="10"
     inkscape:pageopacity="0"
     inkscape:pageshadow="2"
     inkscape:window-width="1216"
     inkscape:window-height="608"
     id="namedview24"
     showgrid="false"
     fit-margin-top="0"
     fit-margin-left="0"
     fit-margin-right="0"
     fit-margin-bottom="0"
     inkscape:zoom="23.456597"
     inkscape:cx="13.471452"
     inkscape:cy="8.0005"
     inkscape:window-x="0"
     inkscape:window-y="27"
     inkscape:window-maximized="0"
     inkscape:current-layer="svg2" /><g
     id="Calque_1"
     transform="translate(-1.6730478,-1.0004999)" /><g
     id="Layer_1"
     transform="matrix(0.88953134,0,0,0.88953134,0,-0.00622673)"><g
       id="g6"><path
         d="m 25.644,14.392 c 0.207,-0.207 0.4,-0.446 0.571,-0.738 0.301,-0.514 0.535,-1.165 0.703,-1.95 0.168,-0.785 0.254,-1.708 0.254,-2.772 0,-0.148 -0.005,-0.301 -0.013,-0.454 -0.008,-0.153 -0.013,-0.3 -0.013,-0.441 l -6.17,4.634 c 0.196,0.618 0.453,1.118 0.765,1.506"
         id="path8"
         inkscape:connector-curvature="0"
         style="fill:none" /><path
         d="M 26.716,5.182 C 26.421,4.314 26.029,3.67 25.544,3.253 25.059,2.836 24.486,2.627 23.827,2.627 c -0.472,0 -0.91,0.125 -1.317,0.375 -0.405,0.25 -0.758,0.634 -1.058,1.152 -0.298,0.518 -0.535,1.167 -0.708,1.949 -0.174,0.781 -0.259,1.707 -0.259,2.778 0,0.175 0,0.339 0,0.494 0,0.153 0.008,0.31 0.026,0.467 l 6.205,-4.66 z"
         id="path10"
         inkscape:connector-curvature="0"
         style="fill:none" /><g
         id="g12"><polygon
           points="0.469,17.507 11.491,17.507 11.491,14.648 7.855,14.648 7.855,0.19 5.258,0.19 0,3.075 1.014,5.696 4.687,3.587 4.687,14.648 0.469,14.648 "
           id="polygon14"
           style="fill:#252627" /><path
           d="m 15.652,17.625 c 0.278,-0.122 0.519,-0.292 0.722,-0.507 0.203,-0.214 0.363,-0.467 0.482,-0.756 0.117,-0.29 0.176,-0.602 0.176,-0.935 0,-0.325 -0.06,-0.633 -0.176,-0.923 -0.119,-0.29 -0.279,-0.538 -0.482,-0.751 -0.203,-0.21 -0.443,-0.377 -0.722,-0.5 -0.279,-0.124 -0.577,-0.184 -0.9,-0.184 -0.323,0 -0.619,0.061 -0.894,0.184 -0.274,0.124 -0.515,0.29 -0.722,0.5 -0.207,0.212 -0.369,0.461 -0.489,0.751 -0.118,0.29 -0.176,0.598 -0.176,0.923 0,0.334 0.058,0.645 0.176,0.935 0.12,0.288 0.281,0.542 0.489,0.756 0.206,0.215 0.448,0.386 0.722,0.507 0.275,0.124 0.573,0.184 0.894,0.184 0.321,0 0.619,-0.061 0.9,-0.184 z"
           id="path16"
           inkscape:connector-curvature="0"
           style="fill:#252627" /><path
           d="m 13.137,8.051 c 0.206,0.212 0.448,0.377 0.722,0.5 0.275,0.124 0.573,0.184 0.894,0.184 0.321,0 0.619,-0.061 0.9,-0.184 0.278,-0.123 0.519,-0.288 0.722,-0.5 0.203,-0.21 0.363,-0.461 0.482,-0.749 0.117,-0.29 0.176,-0.602 0.176,-0.935 0,-0.325 -0.06,-0.633 -0.176,-0.922 C 16.738,5.154 16.578,4.903 16.375,4.688 16.172,4.473 15.932,4.304 15.653,4.181 15.374,4.059 15.076,3.997 14.753,3.997 c -0.322,0 -0.619,0.062 -0.894,0.184 -0.274,0.124 -0.515,0.292 -0.722,0.507 -0.207,0.214 -0.369,0.465 -0.489,0.757 -0.118,0.289 -0.176,0.597 -0.176,0.922 0,0.334 0.058,0.645 0.176,0.935 0.12,0.288 0.281,0.539 0.489,0.749 z"
           id="path18"
           inkscape:connector-curvature="0"
           style="fill:#252627" /></g><path
         d="M 23.705,1.487"
         id="path20"
         inkscape:connector-curvature="0"
         style="fill:none" /><path
         d="M 29.823,4.812 C 29.508,3.698 29.076,2.786 28.523,2.075 27.97,1.363 27.309,0.841 26.541,0.507 25.77,0.173 24.93,0.007 24.02,0.007 c -1.048,0 -1.986,0.203 -2.814,0.606 -0.828,0.404 -1.525,0.989 -2.09,1.758 -0.566,0.768 -0.998,1.71 -1.297,2.825 -0.301,1.115 -0.451,2.378 -0.451,3.791 0,1.554 0.156,2.89 0.469,4.004 0.312,1.114 0.747,2.03 1.305,2.746 0.034,0.043 0.071,0.081 0.107,0.122 l -0.008,0.016 c 1.183,1.317 2.748,2.119 4.465,2.119 1.325,0 2.559,-0.477 3.598,-1.301 v -0.034 c 0.46,-0.338 0.885,-0.727 1.246,-1.213 0.571,-0.768 1.001,-1.708 1.299,-2.824 0.294,-1.116 0.441,-2.379 0.441,-3.794 -10e-4,-1.56 -0.157,-2.9 -0.467,-4.016 z m -9.341,4.564 c 0.001,-0.155 0.001,-0.319 0.001,-0.494 0,-1.071 0.085,-1.997 0.259,-2.778 0.173,-0.782 0.41,-1.431 0.708,-1.949 0.301,-0.519 0.653,-0.902 1.058,-1.152 0.407,-0.25 0.845,-0.375 1.317,-0.375 0.658,0 1.232,0.208 1.717,0.626 0.485,0.417 0.876,1.06 1.172,1.929 L 20.508,9.844 C 20.49,9.684 20.482,9.528 20.482,9.376 z m 6.438,2.33 c -0.168,0.786 -0.402,1.435 -0.703,1.95 -0.126,0.216 -0.268,0.396 -0.415,0.563 l -0.005,-0.002 c -0.567,0.68 -1.261,1.08 -2.01,1.08 -0.807,0 -1.545,-0.476 -2.133,-1.254 -0.271,-0.368 -0.503,-0.814 -0.678,-1.369 l 6.17,-4.634 c 0,0.141 0.005,0.287 0.013,0.441 0.008,0.153 0.013,0.306 0.013,0.454 0.002,1.062 -0.084,1.985 -0.252,2.771 z"
         id="path22"
         inkscape:connector-curvature="0"
         style="fill:#252627" /></g></g></svg>