<?xml version="1.0" encoding="utf-8"?>
<!-- Generator: Adobe Illustrator 17.0.0, SVG Export Plug-In . SVG Version: 6.00 Build 0)  -->
<!DOCTYPE svg PUBLIC "-//W3C//DTD SVG 1.1//EN" "http://www.w3.org/Graphics/SVG/1.1/DTD/svg11.dtd">
<svg version="1.1" xmlns="http://www.w3.org/2000/svg" xmlns:xlink="http://www.w3.org/1999/xlink" x="0px" y="0px"
	 width="30.289px" height="18px" viewBox="0 0 30.289 18" enable-background="new 0 0 30.289 18" xml:space="preserve">
<g id="Calque_1">
</g>
<g id="Layer_1">
	<g>
		<path fill="none" d="M25.644,14.392c0.207-0.207,0.4-0.446,0.571-0.738c0.301-0.514,0.535-1.165,0.703-1.95
			c0.168-0.785,0.254-1.708,0.254-2.772c0-0.148-0.005-0.301-0.013-0.454s-0.013-0.3-0.013-0.441l-6.17,4.634
			c0.196,0.618,0.453,1.118,0.765,1.506"/>
		<path fill="none" d="M26.716,5.182c-0.295-0.868-0.687-1.512-1.172-1.929c-0.485-0.417-1.058-0.626-1.717-0.626
			c-0.472,0-0.91,0.125-1.317,0.375c-0.405,0.25-0.758,0.634-1.058,1.152c-0.298,0.518-0.535,1.167-0.708,1.949
			c-0.174,0.781-0.259,1.707-0.259,2.778c0,0.175,0,0.339,0,0.494c0,0.153,0.008,0.31,0.026,0.467L26.716,5.182z"/>
		<g>
			<polygon fill="#252627" points="7.855,0.19 5.258,0.19 0,3.075 1.014,5.696 4.687,3.587 4.687,14.648 0.469,14.648 0.469,17.507 
				11.491,17.507 11.491,14.648 7.855,14.648 			"/>
			<path fill="#252627" d="M15.652,17.625c0.278-0.122,0.519-0.292,0.722-0.507c0.203-0.214,0.363-0.467,0.482-0.756
				c0.117-0.29,0.176-0.602,0.176-0.935c0-0.325-0.06-0.633-0.176-0.923c-0.119-0.29-0.279-0.538-0.482-0.751
				c-0.203-0.21-0.443-0.377-0.722-0.5c-0.279-0.124-0.577-0.184-0.9-0.184s-0.619,0.061-0.894,0.184
				c-0.274,0.124-0.515,0.29-0.722,0.5c-0.207,0.212-0.369,0.461-0.489,0.751c-0.118,0.29-0.176,0.598-0.176,0.923
				c0,0.334,0.058,0.645,0.176,0.935c0.12,0.288,0.281,0.542,0.489,0.756c0.206,0.215,0.448,0.386,0.722,0.507
				c0.275,0.124,0.573,0.184,0.894,0.184S15.371,17.748,15.652,17.625z"/>
			<path fill="#252627" d="M13.137,8.051c0.206,0.212,0.448,0.377,0.722,0.5c0.275,0.124,0.573,0.184,0.894,0.184
				c0.321,0,0.619-0.061,0.9-0.184c0.278-0.123,0.519-0.288,0.722-0.5c0.203-0.21,0.363-0.461,0.482-0.749
				c0.117-0.29,0.176-0.602,0.176-0.935c0-0.325-0.06-0.633-0.176-0.922c-0.119-0.291-0.279-0.542-0.482-0.757
				c-0.203-0.215-0.443-0.384-0.722-0.507c-0.279-0.122-0.577-0.184-0.9-0.184c-0.322,0-0.619,0.062-0.894,0.184
				c-0.274,0.124-0.515,0.292-0.722,0.507c-0.207,0.214-0.369,0.465-0.489,0.757c-0.118,0.289-0.176,0.597-0.176,0.922
				c0,0.334,0.058,0.645,0.176,0.935C12.768,7.59,12.929,7.841,13.137,8.051z"/>
		</g>
		<path fill="none" d="M23.705,1.487"/>
		<path fill="#252627" d="M29.823,4.812c-0.315-1.114-0.747-2.026-1.3-2.737c-0.553-0.712-1.214-1.234-1.982-1.568
			c-0.771-0.334-1.611-0.5-2.521-0.5c-1.048,0-1.986,0.203-2.814,0.606c-0.828,0.404-1.525,0.989-2.09,1.758
			c-0.566,0.768-0.998,1.71-1.297,2.825c-0.301,1.115-0.451,2.378-0.451,3.791c0,1.554,0.156,2.89,0.469,4.004
			c0.312,1.114,0.747,2.03,1.305,2.746c0.034,0.043,0.071,0.081,0.107,0.122l-0.008,0.016c1.183,1.317,2.748,2.119,4.465,2.119
			c1.325,0,2.559-0.477,3.598-1.301v-0.034c0.46-0.338,0.885-0.727,1.246-1.213c0.571-0.768,1.001-1.708,1.299-2.824
			c0.294-1.116,0.441-2.379,0.441-3.794C30.289,7.268,30.133,5.928,29.823,4.812z M20.482,9.376
			c0.001-0.155,0.001-0.319,0.001-0.494c0-1.071,0.085-1.997,0.259-2.778c0.173-0.782,0.41-1.431,0.708-1.949
			c0.301-0.519,0.653-0.902,1.058-1.152c0.407-0.25,0.845-0.375,1.317-0.375c0.658,0,1.232,0.208,1.717,0.626
			c0.485,0.417,0.876,1.06,1.172,1.929l-6.206,4.661C20.49,9.684,20.482,9.528,20.482,9.376z M26.92,11.706
			c-0.168,0.786-0.402,1.435-0.703,1.95c-0.126,0.216-0.268,0.396-0.415,0.563l-0.005-0.002c-0.567,0.68-1.261,1.08-2.01,1.08
			c-0.807,0-1.545-0.476-2.133-1.254c-0.271-0.368-0.503-0.814-0.678-1.369l6.17-4.634c0,0.141,0.005,0.287,0.013,0.441
			c0.008,0.153,0.013,0.306,0.013,0.454C27.174,9.997,27.088,10.92,26.92,11.706z"/>
	</g>
</g>
</svg>
