<?xml version="1.0" encoding="utf-8"?>
<!-- Generator: Adobe Illustrator 17.0.0, SVG Export Plug-In . SVG Version: 6.00 Build 0)  -->
<!DOCTYPE svg PUBLIC "-//W3C//DTD SVG 1.1//EN" "http://www.w3.org/Graphics/SVG/1.1/DTD/svg11.dtd">
<svg version="1.1" xmlns="http://www.w3.org/2000/svg" xmlns:xlink="http://www.w3.org/1999/xlink" x="0px" y="0px"
	 width="30.563px" height="17.999px" viewBox="0 0 30.563 17.999" enable-background="new 0 0 30.563 17.999" xml:space="preserve">
<g id="Layer_1">
</g>
<g id="Calque_1">
	<path fill="#252627" d="M28.349,10.096C29,9.463,29,8.432,28.347,7.797L20.656,0.33c-0.236-0.23-0.485-0.32-0.952-0.32L1.535,0
		C0.688-0.001,0.001,0.667,0,1.493l0.102,15.009c0.002,0.826,0.691,1.495,1.538,1.496l18.075-0.045
		c0.467,0.001,0.75-0.192,0.957-0.393L28.349,10.096L28.349,10.096z M19.486,10.678c-0.978-0.952-0.978-2.499-0.001-3.45
		c0.978-0.952,2.57-0.952,3.548,0c0.981,0.954,0.981,2.501,0.002,3.453C22.058,11.632,20.466,11.632,19.486,10.678z"/>
</g>
</svg>
