<?xml version="1.0" encoding="utf-8"?>
<!-- Generator: Adobe Illustrator 17.0.0, SVG Export Plug-In . SVG Version: 6.00 Build 0)  -->
<!DOCTYPE svg PUBLIC "-//W3C//DTD SVG 1.1//EN" "http://www.w3.org/Graphics/SVG/1.1/DTD/svg11.dtd">
<svg version="1.1" id="Layer_1" xmlns="http://www.w3.org/2000/svg" xmlns:xlink="http://www.w3.org/1999/xlink" x="0px" y="0px"
	 width="33.799px" height="18px" viewBox="0 0 33.799 18" enable-background="new 0 0 33.799 18" xml:space="preserve">
<g>
	<g>
		<path fill="#FFFFFF" d="M2.961,7.481C2.154,7.482,1.483,8.144,1.459,8.978c-0.025,0.827,0.602,1.496,1.411,1.498
			c0.807-0.001,1.478-0.662,1.504-1.497C4.4,8.151,3.773,7.482,2.961,7.481z"/>
		<path fill="#262626" d="M10.943,14.018c0.536-1.195,1.945-1.73,3.14-1.194l2.759,1.238l1.238-2.759
			c0.536-1.195,1.944-1.731,3.137-1.195l0.503,0.225c0.076-0.437,0.133-0.882,0.147-1.338c0.019-0.648-0.027-1.276-0.136-1.884
			l11.932-2.603l0.136-4.494l-14.577-0.01l-0.089,2.997l-4.376-0.003l0.092-2.996L13.39,0C9.363-0.003,5.887,2.791,4.756,6.599
			c-0.48-0.387-1.084-0.613-1.749-0.613c-1.607-0.003-2.956,1.34-3.005,2.993c-0.052,1.657,1.213,2.998,2.825,2.999
			c0.665,0,1.283-0.226,1.788-0.613c0.635,2.685,2.467,4.862,4.9,5.919c0.03-0.103,0.057-0.207,0.102-0.307
			C9.616,16.975,10.943,14.018,10.943,14.018z M2.872,10.477c-0.81-0.001-1.436-0.67-1.411-1.498
			c0.024-0.834,0.696-1.497,1.503-1.497c0.812,0.001,1.438,0.67,1.412,1.498C4.349,9.815,3.678,10.475,2.872,10.477z"/>
	</g>
	<path fill="#262626" d="M21.685,6.825c0.393,1.843,0.219,3.846-0.624,5.724c-2.045,4.558-7.255,6.659-11.637,4.693
		c-2.654-1.191-4.395-3.601-4.902-6.329C4.193,9.136,4.387,7.226,5.193,5.429"/>
</g>
</svg>
