<?xml version="1.0" encoding="UTF-8" standalone="no"?>
<!-- Generator: Adobe Illustrator 17.0.0, SVG Export Plug-In . SVG Version: 6.00 Build 0)  -->

<svg
   xmlns:dc="http://purl.org/dc/elements/1.1/"
   xmlns:cc="http://creativecommons.org/ns#"
   xmlns:rdf="http://www.w3.org/1999/02/22-rdf-syntax-ns#"
   xmlns:svg="http://www.w3.org/2000/svg"
   xmlns="http://www.w3.org/2000/svg"
   xmlns:sodipodi="http://sodipodi.sourceforge.net/DTD/sodipodi-0.dtd"
   xmlns:inkscape="http://www.inkscape.org/namespaces/inkscape"
   version="1.1"
   id="Icons"
   x="0px"
   y="0px"
   width="18"
   height="18"
   viewBox="0 0 18 18"
   enable-background="new 0 0 22.985 22.985"
   xml:space="preserve"
   inkscape:version="0.48.4 r9939"
   sodipodi:docname="longomatch-timer.svg"><metadata
     id="metadata12"><rdf:RDF><cc:Work
         rdf:about=""><dc:format>image/svg+xml</dc:format><dc:type
           rdf:resource="http://purl.org/dc/dcmitype/StillImage" /></cc:Work></rdf:RDF></metadata><defs
     id="defs10" /><sodipodi:namedview
     pagecolor="#ffffff"
     bordercolor="#666666"
     borderopacity="1"
     objecttolerance="10"
     gridtolerance="10"
     guidetolerance="10"
     inkscape:pageopacity="0"
     inkscape:pageshadow="2"
     inkscape:window-width="798"
     inkscape:window-height="844"
     id="namedview8"
     showgrid="false"
     fit-margin-top="0"
     fit-margin-left="0"
     fit-margin-right="0"
     fit-margin-bottom="0"
     inkscape:zoom="12.874565"
     inkscape:cx="9"
     inkscape:cy="8.9999998"
     inkscape:window-x="0"
     inkscape:window-y="27"
     inkscape:window-maximized="0"
     inkscape:current-layer="Icons" /><g
     id="timemachine"
     transform="scale(0.7831194,0.7831194)"><path
       d="m 11.493,0 c 2.988,0 5.833,1.17 7.963,3.231 l 2.303,-2.303 c 0.138,-0.138 0.321,-0.21 0.508,-0.21 0.092,0 0.186,0.017 0.275,0.055 0.269,0.11 0.443,0.373 0.443,0.664 v 6.465 c 0,0.397 -0.321,0.718 -0.718,0.718 h -6.465 c -0.29,0 -0.552,-0.175 -0.664,-0.443 -0.111,-0.269 -0.05,-0.578 0.156,-0.782 l 2.138,-2.139 c -1.596,-1.524 -3.714,-2.382 -5.94,-2.382 -4.753,0 -8.619,3.866 -8.619,8.619 0,4.753 3.866,8.619 8.619,8.619 4.478,0 8.254,-3.494 8.594,-7.956 0.029,-0.374 0.341,-0.663 0.717,-0.663 h 1.44 c 0.199,0 0.389,0.082 0.524,0.227 0.135,0.145 0.205,0.341 0.192,0.538 C 22.56,18.273 17.524,22.985 11.492,22.985 5.156,22.985 0,17.829 0,11.493 0,5.157 5.156,0 11.493,0 z"
       id="path4"
       inkscape:connector-curvature="0"
       style="fill:#252627" /><path
       d="M 15.444,10.056 H 12.93 V 5.387 c 0,-0.199 -0.161,-0.359 -0.359,-0.359 h -2.155 c -0.199,0 -0.359,0.161 -0.359,0.359 v 5.028 0.718 1.436 c 0,0.199 0.161,0.359 0.359,0.359 h 2.155 2.873 c 0.199,0 0.359,-0.161 0.359,-0.359 v -1.436 -0.718 c 0,-0.199 -0.161,-0.359 -0.359,-0.359 z"
       id="path6"
       inkscape:connector-curvature="0"
       style="fill:#252627" /></g></svg>